<svg width="342" height="264" viewBox="0 0 342 264" fill="none" xmlns="http://www.w3.org/2000/svg">
<g id="bird">
<g id="body">
<path d="M116.493 233.802C116.528 233.593 131.952 218.839 139.672 211.284L133.205 205.183C129.504 210.506 116.671 227.129 112.915 226.743C109.483 226.389 87.9051 209.509 88.839 212.28C89.5488 214.386 91.0808 216.126 92.5682 217.732C94.1023 219.388 95.7099 220.985 97.2856 222.601C98.2822 223.624 99.3155 224.614 100.38 225.569C97.9168 225.095 81.6749 221.191 76.1385 222.066C72.9385 222.571 96.212 231.609 104.318 233.791C104.803 233.922 105.285 234.061 105.768 234.201C102.951 237.185 100.26 240.283 97.562 243.373C96.6809 244.382 89.6285 251.17 92.8116 251.413C93.5007 251.466 94.1444 251.101 94.738 250.749C99.8234 247.729 113.885 238.419 115.247 236.418C115.783 235.631 116.334 234.76 116.493 233.802Z" fill="#FFDA00"/>
<path d="M92.0436 251.343C91.9567 251.263 91.8912 251.165 91.8474 251.051C91.3663 249.795 93.9175 246.892 96.746 243.942C97.0537 243.621 97.2886 243.376 97.4082 243.239L97.8406 242.744C100.281 239.947 102.802 237.059 105.39 234.304C105.016 234.196 104.641 234.089 104.265 233.988C97.7786 232.242 75.5447 223.965 75.635 222.244C75.6425 222.104 75.7299 221.924 76.1068 221.864C80.8604 221.113 93.2219 223.809 98.5004 224.96C98.96 225.06 99.3602 225.148 99.6898 225.218C98.8145 224.411 97.9581 223.584 97.1394 222.744C96.6953 222.288 96.2488 221.834 95.8018 221.38C94.6809 220.24 93.5223 219.062 92.4186 217.871C90.8359 216.162 89.3562 214.453 88.6457 212.346C88.5505 212.063 88.6437 211.918 88.7385 211.846C89.346 211.387 92.3625 213.371 99.62 218.354C105.094 222.112 111.298 226.372 112.936 226.541C116.377 226.894 128.543 211.533 133.037 205.067L133.172 204.873L139.966 211.282L139.815 211.43C136.469 214.705 131.606 219.398 127.316 223.539C122.064 228.609 117.096 233.404 116.686 233.884C116.509 234.867 115.939 235.766 115.416 236.533C114.03 238.567 99.9397 247.898 94.8423 250.924C94.2776 251.26 93.5746 251.677 92.7963 251.617C92.4654 251.592 92.2133 251.5 92.0436 251.343ZM106.145 234.098L105.916 234.341C103.253 237.163 100.658 240.136 98.148 243.012L97.7156 243.507C97.5934 243.647 97.354 243.897 97.0405 244.224C95.5997 245.726 91.7732 249.717 92.2282 250.905C92.254 250.971 92.3309 251.172 92.8268 251.211C93.4279 251.256 94.0008 250.949 94.6336 250.573C99.566 247.645 113.747 238.257 115.079 236.303C115.608 235.526 116.138 234.689 116.292 233.768C116.317 233.619 116.717 233.203 127.033 223.245C131.258 219.167 136.039 214.552 139.378 211.287L133.237 205.493C131.405 208.107 127.354 213.489 123.235 218.238C118.071 224.191 114.592 227.121 112.895 226.947C111.153 226.767 105.173 222.661 99.3896 218.69C95.1335 215.768 89.8594 212.147 89.0194 212.172C89.0227 212.184 89.0266 212.199 89.032 212.215C89.7166 214.247 91.1661 215.918 92.7175 217.594C93.8169 218.781 94.9733 219.956 96.0923 221.094C96.5395 221.549 96.9866 222.003 97.4314 222.46C98.4147 223.468 99.4533 224.464 100.516 225.417L101.063 225.908L100.341 225.769C99.9755 225.699 99.3062 225.553 98.4139 225.358C93.1577 224.212 80.8487 221.528 76.1703 222.267C76.1157 222.276 76.0794 222.286 76.0568 222.294C76.7129 223.568 95.0503 231.085 104.37 233.595C104.824 233.717 105.274 233.847 105.726 233.977L106.145 234.098Z" fill="#AE5F13"/>
<path d="M116.493 233.802C116.528 233.593 131.952 218.839 139.672 211.284L133.205 205.183C132.637 205.999 131.854 207.083 130.923 208.328C131.332 208.755 131.7 209.215 131.991 209.726C132.858 211.249 132.707 212.937 131.862 214.433C130.571 216.718 128.702 218.779 126.931 220.697C124.999 222.79 122.942 224.763 120.911 226.76C118.95 228.688 116.977 230.581 115.445 232.879C114.794 233.855 114.16 234.847 113.42 235.76C112.678 236.675 111.811 237.485 110.964 238.301C108.011 241.145 104.895 243.82 101.675 246.357C107.529 242.514 114.321 237.778 115.247 236.418C115.783 235.631 116.334 234.76 116.493 233.802Z" fill="#FBAC47"/>
<path d="M104.849 226.224C100.333 220.803 93.6211 217.574 89.2599 212.028C88.905 211.925 88.7405 211.988 88.839 212.28C89.5488 214.386 91.0808 216.126 92.5682 217.732C94.1023 219.388 95.7099 220.985 97.2856 222.601C98.2822 223.624 99.3155 224.614 100.38 225.569C100.148 225.524 99.7926 225.449 99.3361 225.35C101.147 225.853 102.986 226.191 104.849 226.224Z" fill="#FBAC47"/>
<path d="M102.248 230.001C100.241 229.469 98.2039 229.061 96.1933 228.544C94.0022 227.98 91.8379 227.294 89.6655 226.663C85.1645 225.356 80.6671 224.036 76.1786 222.686C78.8649 224.855 97.2886 231.899 104.318 233.791C104.511 233.843 104.704 233.9 104.898 233.955C105.988 233.492 107.041 232.96 108.01 232.276C106.274 231.153 104.225 230.526 102.248 230.001Z" fill="#FBAC47"/>
<path d="M205.18 241.456C205.188 241.244 193.042 223.665 186.997 214.699L194.555 210.036C197.111 216 206.345 234.885 210.101 235.269C213.533 235.618 238.055 223.464 236.584 225.988C235.466 227.907 233.617 229.3 231.837 230.571C230.003 231.882 228.108 233.119 226.24 234.383C225.059 235.183 223.848 235.943 222.614 236.662C225.121 236.697 241.813 236.169 247.06 238.149C250.092 239.293 225.484 243.423 217.107 243.916C216.606 243.945 216.105 243.984 215.605 244.023C217.765 247.517 219.779 251.097 221.801 254.671C222.461 255.839 228.006 263.918 224.84 263.51C224.154 263.422 223.597 262.934 223.087 262.468C218.712 258.479 206.808 246.507 205.875 244.271C205.508 243.392 205.144 242.427 205.18 241.456Z" fill="#FFDA00"/>
<path d="M222.575 262.275C217.923 257.976 206.61 246.562 205.687 244.35C205.329 243.492 204.95 242.496 204.975 241.497C204.669 240.944 200.768 235.243 196.643 229.215C193.271 224.287 189.449 218.701 186.828 214.813L186.709 214.637L194.649 209.738L194.743 209.956C197.847 217.201 206.683 234.715 210.121 235.066C211.759 235.233 218.69 232.32 224.805 229.75C232.914 226.342 236.278 225.009 236.769 225.583C236.848 225.672 236.91 225.833 236.76 226.091C235.642 228.01 233.85 229.384 231.956 230.737C230.637 231.679 229.266 232.598 227.94 233.486C227.411 233.841 226.881 234.196 226.354 234.552C225.386 235.207 224.382 235.847 223.36 236.458C223.697 236.456 224.108 236.452 224.579 236.447C229.979 236.39 242.626 236.258 247.131 237.958C247.488 238.093 247.537 238.286 247.517 238.425C247.259 240.129 223.823 243.725 217.119 244.12C216.73 244.142 216.342 244.171 215.954 244.201C217.931 247.416 219.816 250.749 221.641 253.975L221.978 254.571C222.068 254.73 222.25 255.019 222.487 255.397C224.665 258.858 226.58 262.218 225.856 263.351C225.662 263.655 225.311 263.776 224.814 263.712C224.04 263.613 223.435 263.062 222.949 262.619C222.83 262.51 222.705 262.395 222.575 262.275ZM187.285 214.761C189.901 218.639 193.659 224.131 196.98 228.985C205.082 240.826 205.389 241.313 205.384 241.464C205.349 242.397 205.7 243.324 206.063 244.193C206.975 246.377 218.981 258.444 223.224 262.318C223.768 262.814 224.268 263.231 224.866 263.308C225.359 263.372 225.475 263.191 225.513 263.131C226.197 262.06 223.251 257.377 222.142 255.614C221.9 255.228 221.715 254.934 221.624 254.772L221.286 254.176C219.41 250.858 217.469 247.427 215.431 244.13L215.255 243.845L215.688 243.812C216.157 243.776 216.626 243.741 217.095 243.713C226.725 243.146 246.192 239.507 247.093 238.389C247.073 238.377 247.04 238.359 246.988 238.34C242.555 236.667 229.961 236.798 224.584 236.855C223.669 236.864 222.984 236.871 222.611 236.866L221.877 236.856L222.511 236.486C223.747 235.766 224.963 235.001 226.125 234.214C226.653 233.858 227.183 233.502 227.713 233.147C229.036 232.261 230.405 231.344 231.719 230.405C233.575 229.079 235.33 227.735 236.408 225.885C236.417 225.87 236.424 225.857 236.429 225.846C235.611 225.65 229.719 228.127 224.963 230.125C218.502 232.841 211.822 235.649 210.08 235.472C209.57 235.42 208.971 235.052 208.311 234.442C203.715 230.195 196.127 214.154 194.462 210.333L187.285 214.761Z" fill="#AE5F13"/>
<path d="M205.18 241.456C205.188 241.244 193.042 223.665 186.997 214.699L194.555 210.036C194.947 210.95 195.497 212.17 196.159 213.579C195.673 213.915 195.22 214.29 194.832 214.732C193.678 216.047 193.487 217.731 194.014 219.368C194.82 221.868 196.237 224.266 197.586 226.503C199.059 228.945 200.678 231.296 202.266 233.663C203.8 235.949 205.352 238.204 206.392 240.765C206.833 241.853 207.255 242.953 207.797 243.998C208.34 245.045 209.026 246.014 209.692 246.985C212.013 250.369 214.529 253.622 217.174 256.76C212.212 251.808 206.509 245.791 205.875 244.271C205.508 243.392 205.144 242.427 205.18 241.456Z" fill="#FBAC47"/>
<path d="M218.105 236.397C223.617 232.003 230.838 230.202 236.223 225.655C236.591 225.627 236.739 225.722 236.584 225.988C235.466 227.907 233.617 229.3 231.837 230.571C230.003 231.882 228.108 233.119 226.24 234.383C225.059 235.183 223.848 235.943 222.614 236.662C222.85 236.665 223.213 236.663 223.68 236.659C221.806 236.784 219.937 236.742 218.105 236.397Z" fill="#FBAC47"/>
<path d="M219.895 240.624C221.968 240.51 224.044 240.523 226.117 240.425C228.376 240.317 230.634 240.084 232.888 239.907C237.559 239.54 242.229 239.16 246.896 238.748C243.83 240.327 224.371 243.489 217.107 243.916C216.907 243.928 216.706 243.944 216.506 243.958C215.531 243.284 214.607 242.549 213.795 241.683C215.721 240.935 217.853 240.737 219.895 240.624Z" fill="#FBAC47"/>
<path d="M240.879 154.638C237.348 141.126 229.023 128.812 220.86 116.926C216.891 111.147 212.996 105.28 209.871 98.9922C209.044 97.3276 208.278 95.6334 207.582 93.9135C206.735 90.4312 205.388 87.0835 204.638 83.5779C203.775 79.5494 203.45 75.2784 201.544 71.5548C198.747 66.09 192.677 63.0213 187.119 61.1171C183.976 60.0403 180.727 59.2758 177.45 58.7469C176.578 58.4505 175.653 58.2492 174.674 58.1586C173.682 58.0666 172.677 58.0331 171.668 58.0363C170.662 57.9685 169.656 57.9373 168.66 57.9652C167.678 57.9929 166.742 58.1342 165.854 58.374C162.55 58.6911 159.26 59.2454 156.057 60.1182C150.392 61.6615 144.144 64.3339 141.014 69.6081C138.881 73.2019 138.291 77.4435 137.181 81.4086C136.215 84.859 134.663 88.1132 133.602 91.5342C132.8 93.2061 131.931 94.8478 131.002 96.4558C127.494 102.531 123.243 108.135 118.923 113.648C114.587 119.183 110.146 124.649 106.201 130.476C102.114 136.514 98.6155 142.958 96.4439 149.944C92.869 161.444 93.1841 174.36 98.389 185.335C104.086 197.347 115.476 204.465 127.189 209.807C158.787 224.22 204.44 223.25 230.654 198.023C242.239 186.874 244.835 169.78 240.879 154.638Z" fill="#F04923"/>
<path d="M107.34 197.632C103.696 194.264 100.497 190.256 98.2047 185.422C93.213 174.897 92.5 161.943 96.2491 149.884C98.2105 143.574 101.411 137.188 106.032 130.362C109.317 125.509 113.004 120.833 116.569 116.311C117.301 115.382 118.033 114.453 118.763 113.522C122.895 108.248 127.23 102.578 130.826 96.3539C131.76 94.7369 132.632 93.0856 133.418 91.4459C133.893 89.9059 134.491 88.3509 135.068 86.8468C135.753 85.0639 136.462 83.2199 136.984 81.3534C137.269 80.3386 137.524 79.2852 137.77 78.2666C138.491 75.2844 139.238 72.2011 140.838 69.5041C143.435 65.1282 148.396 61.9938 156.003 59.9217C159.037 59.0953 162.344 58.5063 165.834 58.1712C166.72 57.9289 167.681 57.7891 168.654 57.7616C169.588 57.7353 170.578 57.759 171.681 57.8328C172.774 57.8294 173.764 57.8697 174.693 57.9558C175.662 58.0455 176.611 58.2468 177.515 58.5541C180.944 59.1043 184.208 59.9044 187.185 60.9246C194.649 63.4812 199.404 66.9277 201.726 71.4623C203.156 74.2565 203.709 77.3819 204.244 80.404C204.427 81.4368 204.616 82.5047 204.837 83.5357C205.243 85.4316 205.835 87.317 206.408 89.1402C206.891 90.6786 207.391 92.2693 207.779 93.8653C208.455 95.5266 209.223 97.2305 210.053 98.9017C213.255 105.344 217.23 111.281 221.028 116.811C228.728 128.023 237.456 140.732 241.076 154.587C245.414 171.192 241.475 187.893 230.796 198.17C218.447 210.054 201.213 217.251 180.958 218.983C162.686 220.546 143.057 217.269 127.104 209.992C120.703 207.073 113.405 203.239 107.34 197.632ZM198.022 67.3141C195.432 64.92 191.8 62.9362 187.053 61.3099C184.098 60.2976 180.856 59.5028 177.417 58.9482C176.511 58.6429 175.593 58.4486 174.656 58.3619C173.739 58.277 172.762 58.2369 171.669 58.2404C170.565 58.1664 169.587 58.1436 168.666 58.1691C167.725 58.1955 166.797 58.3308 165.907 58.571C162.407 58.9102 159.122 59.4947 156.111 60.3148C148.61 62.3578 143.729 65.4317 141.189 69.7125C139.62 72.3569 138.881 75.4101 138.166 78.3626C137.919 79.3849 137.663 80.442 137.377 81.4639C136.849 83.3487 136.138 85.2014 135.449 86.9932C134.874 88.4911 134.279 90.04 133.797 91.5945C132.995 93.2713 132.118 94.9321 131.179 96.5579C127.57 102.806 123.225 108.488 119.084 113.774C118.354 114.705 117.622 115.634 116.889 116.564C113.329 121.08 109.647 125.75 106.37 130.591C101.771 137.384 98.588 143.734 96.6385 150.005C92.9195 161.968 93.6247 174.814 98.5731 185.248C104.625 198.009 117.09 204.977 127.273 209.622C143.164 216.87 162.719 220.134 180.923 218.577C201.084 216.853 218.232 209.694 230.513 197.876C241.086 187.701 244.983 171.153 240.682 154.689C237.08 140.903 228.373 128.226 220.692 117.042C216.886 111.5 212.902 105.549 209.688 99.083C208.853 97.4028 208.081 95.6889 207.393 93.9899C206.998 92.3783 206.501 90.7943 206.019 89.262C205.443 87.4299 204.848 85.5354 204.438 83.6207C204.216 82.5822 204.026 81.5108 203.843 80.4747C203.313 77.482 202.765 74.3875 201.362 71.6476C200.557 70.0734 199.447 68.6312 198.022 67.3141Z" fill="#526075"/>
<path d="M240.879 154.638C237.348 141.126 229.023 128.812 220.86 116.926C216.891 111.147 212.996 105.28 209.871 98.9922C209.044 97.3276 208.278 95.6334 207.582 93.9135C206.735 90.4312 205.388 87.0835 204.638 83.5779C203.775 79.5494 203.45 75.2784 201.544 71.5548C198.747 66.09 192.677 63.0213 187.119 61.1171C183.976 60.0403 180.727 59.2758 177.45 58.7469C176.578 58.4505 175.653 58.2492 174.674 58.1586C173.682 58.0666 172.677 58.0331 171.668 58.0363C170.662 57.9685 169.656 57.9373 168.66 57.9652C167.678 57.9929 166.742 58.1342 165.854 58.374C162.55 58.6911 159.26 59.2454 156.057 60.1182C150.392 61.6615 144.144 64.3339 141.014 69.6081C138.881 73.2019 138.291 77.4435 137.181 81.4086C136.215 84.859 134.663 88.1132 133.602 91.5342C132.8 93.2061 131.931 94.8478 131.002 96.4558C127.494 102.531 123.243 108.135 118.923 113.648C114.587 119.183 110.146 124.649 106.201 130.476C102.114 136.514 98.6155 142.958 96.4439 149.944C92.869 161.444 93.1841 174.36 98.389 185.335C104.086 197.347 115.476 204.465 127.189 209.807C158.787 224.22 204.44 223.25 230.654 198.023C242.239 186.874 244.835 169.78 240.879 154.638ZM224.468 175.711C224.106 177.298 223.535 178.891 222.51 180.175C222.424 180.284 222.227 180.318 222.158 180.164C221.044 177.681 221.295 174.915 220.885 172.289C221.042 174.54 220.881 176.813 220.504 179.035C219.85 182.886 218.531 186.552 216.605 189.947C215.726 191.494 214.707 193.042 213.368 194.233C212.309 195.174 210.978 195.87 209.53 195.552C209.441 195.533 209.386 195.434 209.386 195.351C209.384 194.116 209.66 192.948 210.052 191.808C206.586 194.87 202.66 197.401 198.469 199.387C192.153 202.38 185.317 204.184 178.414 205.191C171.434 206.209 164.349 206.434 157.306 206.124C149.327 205.773 141.211 204.729 133.875 201.383C130.152 199.685 126.591 197.43 123.871 194.339C121.482 191.625 119.783 188.43 118.095 185.256C118.702 188.512 120.106 191.559 120.824 194.794C120.86 194.957 120.667 195.126 120.518 195.015C115.626 191.36 114.071 185.313 112.483 179.712C111.967 182.562 112.626 185.692 111.258 188.328C111.212 188.417 111.058 188.458 110.977 188.392C110.564 188.056 110.175 187.697 109.816 187.304C108.204 185.544 107.161 183.322 106.414 181.078C105.607 178.654 105.133 176.123 104.864 173.586C104.593 171.021 104.527 168.467 104.888 165.907C105.316 162.873 106.22 159.929 107.469 157.135C109.945 151.595 113.664 146.703 117.289 141.877C120.912 137.053 124.618 132.268 127.715 127.082C129.425 124.218 130.937 121.219 132.085 118.092C132.864 114.922 133.5 111.717 133.931 108.467C133.95 108.325 134.056 108.253 134.195 108.279C135.85 108.587 136.888 110.152 137.574 111.56C138.224 112.893 138.779 114.382 139.077 115.837C139.232 116.598 139.303 117.38 139.502 118.131C139.656 118.711 139.92 119.163 140.588 119.023C142.378 118.65 143.338 116.969 144.067 115.46C144.792 113.96 145.381 112.306 146.544 111.075C146.668 110.944 146.894 111.061 146.888 111.23C146.826 112.856 146.384 114.459 146.243 116.081C146.132 117.357 145.975 119.312 147.101 120.226C148.357 121.245 150.153 120.311 151.154 119.406C152.519 118.172 153.499 116.546 154.464 114.999C155.266 113.713 156.036 112.253 157.188 111.237C157.323 111.117 157.528 111.214 157.531 111.392C157.56 113.016 157.099 114.645 156.867 116.243C156.762 116.967 156.674 117.702 156.692 118.436C156.706 118.974 156.765 119.608 157.118 120.043C157.493 120.505 158.119 120.517 158.659 120.414C159.664 120.223 160.629 119.719 161.484 119.175C165.596 116.556 167.878 111.737 169.708 107.398C169.786 107.215 170.041 107.209 170.101 107.411C170.675 109.339 171.145 111.306 171.909 113.173C172.577 114.802 173.482 116.402 174.878 117.518C176.299 118.655 178.354 119.351 180.165 118.91C181.629 118.553 182.387 117.285 182.837 115.944C183.328 114.479 183.556 112.941 184.021 111.468C184.059 111.347 184.214 111.28 184.324 111.355C185.697 112.298 186.608 113.792 187.51 115.155C188.39 116.486 189.282 117.938 190.576 118.913C191.633 119.709 193.207 120.158 194.416 119.431C195.534 118.759 196.059 117.367 196.485 116.203C196.907 115.051 197.227 113.808 197.898 112.768C197.976 112.647 198.119 112.654 198.22 112.737C199.031 113.407 199.612 114.391 200.218 115.238C200.897 116.187 201.58 117.165 202.427 117.975C203.036 118.556 203.918 119.193 204.68 118.496C205.429 117.813 205.741 116.642 206.051 115.714C206.346 114.828 206.581 113.856 207.094 113.063C207.17 112.945 207.384 112.928 207.446 113.075C208.503 115.573 208.556 118.303 209.079 120.929C209.647 123.784 210.969 126.524 212.219 129.136C213.372 131.544 214.626 133.902 215.838 136.281C217.063 138.686 218.141 141.138 219.153 143.64C221.165 148.612 222.935 153.704 224.057 158.955C224.824 162.547 225.144 166.307 225.084 169.976C225.053 171.898 224.896 173.834 224.468 175.711Z" fill="#9FA1A4"/>
</g>
<g id="rightWing">
<path d="M339.562 80.7296C329.044 78.9637 318.366 78.535 307.721 78.3075C296.788 78.0739 285.794 77.8318 274.916 79.1531C270.044 79.745 265.319 80.6319 260.835 82.6946C256.61 84.6383 252.748 87.2918 249.189 90.2686C245.639 93.2378 242.374 96.5313 239.244 99.9345C235.647 103.843 232.205 107.873 229.031 112.135C225.917 116.317 210.108 129.684 210.944 134.663C211.908 140.404 230.594 159.067 250.241 154.514C251.865 154.138 250.19 151.616 249.129 150.525C251.162 150.928 253.328 150.912 255.291 150.834C259.609 150.663 263.899 150.168 268.053 148.934C271.358 147.952 274.537 146.504 277.479 144.706C278.651 143.99 279.835 143.19 280.76 142.165C281.44 141.41 282.113 140.369 281.773 139.31C281.246 137.668 274.343 137.265 272.706 137.135C276.464 136.01 280.318 135.206 284.015 133.88C288.06 132.429 291.975 130.466 295.754 128.431C297.656 127.407 299.528 126.326 301.362 125.185C303.093 124.109 304.859 123.016 306.464 121.757C307.247 121.142 308.412 120.228 308.473 119.131C308.541 117.925 302.234 117.388 300.364 117.723C304.395 115.984 308.267 113.858 311.961 111.515C313.367 110.622 314.751 109.694 316.11 108.73C317.065 108.052 318.26 107.324 318.863 106.279C319.748 104.747 317.535 104.646 316.127 104.714C318.056 103.81 319.961 102.86 321.734 101.673C323.381 100.571 324.938 99.2429 326.017 97.5621C326.637 96.5977 327.117 95.3964 326.781 94.2425C326.49 93.2433 325.68 92.5103 324.809 91.9973C323.689 91.337 322.426 90.9379 321.167 90.6417C320.555 90.4976 319.934 90.3749 319.31 90.2711C324.382 89.6295 329.341 88.0143 334.021 86.0156C335.02 85.5889 336.028 85.186 337.006 84.7114C337.934 84.2607 338.943 83.7643 339.654 82.9961C340.147 82.463 340.456 81.7302 339.947 81.0944C339.836 80.9557 339.703 80.8385 339.562 80.7296Z" fill="#67625B"/>
<path d="M217.476 143.909C213.583 140.311 211.086 136.735 210.743 134.697C210.14 131.103 217.531 123.693 223.47 117.739C225.871 115.331 227.945 113.252 228.868 112.013C231.764 108.124 235.109 104.128 239.094 99.7964C242.766 95.8038 245.932 92.7266 249.058 90.1124C253.034 86.7861 256.858 84.2994 260.749 82.5094C265.542 80.3049 270.588 79.4734 274.892 78.9506C285.732 77.6336 296.834 77.8709 307.571 78.1006L307.725 78.1037C317.388 78.3103 328.616 78.6851 339.595 80.5283L339.646 80.5369L339.686 80.5683C339.866 80.707 339.999 80.8336 340.106 80.9671C340.601 81.5854 340.487 82.3956 339.803 83.135C339.055 83.9432 338.014 84.4488 337.095 84.8951C336.355 85.2548 335.586 85.5775 334.843 85.8897C334.596 85.9938 334.348 86.0981 334.101 86.2033C329.204 88.2951 324.762 89.6401 320.564 90.2992C320.783 90.3455 321 90.3934 321.213 90.4433C322.758 90.8071 323.933 91.245 324.912 91.8219C326.014 92.4705 326.708 93.2659 326.977 94.186C327.277 95.2178 327.012 96.3906 326.189 97.6726C325.23 99.1649 323.81 100.529 321.848 101.843C320.306 102.875 318.654 103.733 317.054 104.5C318.179 104.538 318.882 104.777 319.148 105.213C319.341 105.529 319.305 105.922 319.039 106.381C318.495 107.322 317.504 108.01 316.629 108.616C316.492 108.711 316.358 108.804 316.228 108.896C314.877 109.854 313.479 110.793 312.07 111.687C308.5 113.95 304.965 115.877 301.544 117.424C303.784 117.376 307.485 117.783 308.416 118.608C308.596 118.77 308.687 118.95 308.676 119.143C308.609 120.33 307.396 121.284 306.593 121.915C305.015 123.154 303.275 124.235 301.594 125.281L301.469 125.359C299.673 126.476 297.783 127.57 295.851 128.61C292.437 130.448 288.369 132.535 284.083 134.072C281.783 134.897 279.387 135.531 277.07 136.143C276.007 136.424 274.917 136.712 273.838 137.018C277.528 137.319 281.522 137.861 281.967 139.248C282.262 140.17 281.907 141.197 280.911 142.301C279.942 143.375 278.686 144.207 277.586 144.88C274.554 146.732 271.367 148.162 268.111 149.129C264.401 150.232 260.33 150.838 255.299 151.038C253.569 151.106 251.574 151.131 249.677 150.83C250.465 151.77 251.327 153.177 251.076 154.034C251.005 154.276 250.81 154.591 250.288 154.713C238.866 157.359 228.529 151.993 223.384 148.559C221.186 147.092 219.195 145.499 217.476 143.909ZM339.477 80.922C328.541 79.0906 317.35 78.7172 307.717 78.5115L307.563 78.5081C296.84 78.279 285.753 78.0418 274.942 79.3556C270.668 79.8742 265.661 80.699 260.92 82.8799C257.062 84.6545 253.268 87.1226 249.32 90.4254C246.208 93.028 243.054 96.0935 239.394 100.073C235.418 104.393 232.082 108.379 229.195 112.257C228.255 113.519 226.171 115.608 223.759 118.027C218.195 123.604 210.576 131.243 211.145 134.629C211.624 137.484 216.526 143.491 223.61 148.22C228.7 151.617 238.923 156.927 250.195 154.315C250.465 154.253 250.625 154.123 250.685 153.919C250.906 153.165 249.838 151.546 248.983 150.668L248.526 150.198L249.168 150.325C251.194 150.727 253.396 150.705 255.283 150.631C260.279 150.433 264.318 149.832 267.994 148.739C271.216 147.782 274.371 146.366 277.372 144.532C278.448 143.875 279.674 143.063 280.608 142.028C281.5 141.039 281.826 140.146 281.578 139.372C281.28 138.443 278.42 137.767 273.08 137.368L271.604 137.252L272.647 136.94C274.078 136.512 275.546 136.124 276.965 135.749C279.274 135.139 281.661 134.508 283.945 133.688C288.205 132.16 292.256 130.082 295.657 128.251C297.581 127.215 299.464 126.125 301.253 125.012L301.378 124.935C303.05 123.895 304.78 122.819 306.337 121.596C307.086 121.008 308.213 120.123 308.269 119.119C308.272 119.058 308.229 118.988 308.146 118.913C307.188 118.064 302.131 117.614 300.4 117.924L298.663 118.235L300.283 117.536C304.024 115.921 307.916 113.838 311.851 111.343C313.254 110.453 314.647 109.518 315.991 108.564C316.122 108.471 316.258 108.377 316.396 108.281C317.236 107.699 318.188 107.039 318.686 106.178C318.871 105.857 318.909 105.604 318.8 105.425C318.557 105.033 317.589 104.848 316.137 104.918L315.105 104.968L316.04 104.53C317.879 103.667 319.829 102.703 321.62 101.504C323.536 100.222 324.918 98.8966 325.845 97.452C326.602 96.2739 326.851 95.2132 326.585 94.2997C326.347 93.4835 325.715 92.7678 324.705 92.1735C323.763 91.6176 322.624 91.1942 321.12 90.8402C320.526 90.701 319.906 90.5771 319.276 90.4725L317.9 90.2444L319.283 90.0696C323.803 89.4975 328.598 88.1107 333.94 85.8288C334.188 85.7229 334.436 85.6184 334.685 85.5142C335.423 85.2041 336.186 84.8834 336.916 84.5287C337.803 84.098 338.807 83.6102 339.504 82.8582C339.761 82.5809 340.302 81.8656 339.788 81.2221C339.709 81.123 339.612 81.0296 339.477 80.922Z" fill="#292929"/>
<path d="M212.463 137.913C213.654 138.199 214.902 138.276 216.071 138.121C218.367 137.819 220.407 136.385 222.088 134.877C223.927 133.227 225.509 131.31 227.024 129.365C228.642 127.288 230.238 125.193 231.815 123.086C238.756 113.811 245.52 104.086 254.603 96.7404C262.429 90.411 271.632 86.4179 281.543 84.7406C287.109 83.7987 292.747 83.6155 298.38 83.4479C304.501 83.2659 310.624 83.198 316.744 83.0202C324.538 82.7937 332.367 82.3911 340.097 81.3317C340.059 81.2517 340.009 81.172 339.947 81.0944C339.836 80.9557 339.703 80.8385 339.562 80.7296C329.044 78.9637 318.366 78.535 307.721 78.3075C296.788 78.0739 285.794 77.8318 274.916 79.1531C270.044 79.745 265.319 80.6319 260.835 82.6946C256.61 84.6383 252.748 87.2918 249.189 90.2686C245.639 93.2378 242.374 96.5313 239.244 99.9345C235.647 103.843 232.205 107.873 229.031 112.135C225.917 116.317 210.108 129.684 210.944 134.663C211.085 135.506 211.612 136.628 212.463 137.913Z" fill="#9FA1A4"/>
<path d="M309.509 90.8658C303.16 91.3844 296.791 91.6308 290.438 92.104C290.519 92.1054 290.601 92.1104 290.682 92.1116C295.272 92.18 299.844 91.6788 304.431 91.642C305.735 91.6315 307.037 91.6807 308.341 91.677C309.513 91.6736 310.685 91.6736 311.857 91.7132C314.396 91.7988 317.096 91.9756 319.476 92.9454C321.119 93.6152 322.643 94.876 322.689 96.7823C322.722 98.193 321.828 99.4235 320.86 100.361C319.449 101.726 317.703 102.742 315.967 103.635C311.642 105.86 306.973 107.421 302.339 108.863C300.335 109.487 298.321 110.075 296.306 110.663C295.486 110.903 294.656 111.131 293.838 111.388C294.863 111.313 295.88 111.132 296.882 110.897C299.546 110.271 302.112 109.296 304.763 108.62C307.169 108.007 309.712 107.631 312.154 108.272C312.251 108.298 312.333 108.43 312.289 108.528C311.14 111.063 308.327 112.54 305.908 113.619C303.31 114.779 300.58 115.618 297.855 116.425C294.688 117.362 291.567 118.438 288.393 119.353C284.861 120.373 281.256 121.267 277.611 121.904C279.451 121.866 281.29 121.791 283.125 121.653C284.897 121.52 286.633 121.213 288.382 120.905C290.307 120.567 292.245 120.232 294.201 120.13C295.725 120.051 297.459 120.06 298.817 120.857C298.922 120.919 298.927 121.041 298.882 121.138C298.739 121.446 298.574 121.742 298.386 122.025C297.533 123.307 296.311 124.31 295.036 125.149C293.53 126.139 291.894 126.923 290.23 127.608C287.029 128.928 283.694 129.879 280.357 130.787C278.429 131.311 276.476 131.739 274.522 132.151C272.201 132.64 269.869 133.078 267.526 133.445C262.721 134.199 257.851 134.673 252.982 134.583C252.597 134.576 252.211 134.563 251.825 134.549C252.731 134.752 253.637 134.954 254.542 135.163C256.935 135.717 259.324 136.297 261.68 136.996C263.633 137.576 265.608 138.218 267.415 139.174C268.451 139.722 269.838 140.54 270.088 141.799C270.463 143.687 268.198 144.768 266.784 145.311C264.486 146.192 261.993 146.63 259.553 146.89C256.273 147.239 252.94 147.328 249.647 147.115C247.183 146.956 244.726 146.607 242.321 146.043C243.126 146.738 243.874 147.512 244.425 148.419C245.085 149.509 245.372 150.85 244.827 152.053C244.222 153.392 242.754 153.969 241.407 154.262C240.675 154.421 239.93 154.511 239.185 154.591C238.905 154.621 238.625 154.652 238.345 154.683C242.171 155.404 246.185 155.454 250.241 154.514C251.865 154.138 250.19 151.616 249.129 150.525C251.162 150.928 253.328 150.912 255.291 150.834C259.609 150.663 263.899 150.168 268.053 148.934C271.358 147.952 274.537 146.504 277.479 144.706C278.651 143.99 279.835 143.19 280.76 142.165C281.44 141.41 282.113 140.369 281.773 139.31C281.246 137.668 274.343 137.265 272.706 137.135C276.464 136.01 280.318 135.206 284.015 133.88C288.06 132.429 291.975 130.466 295.754 128.431C297.656 127.407 299.528 126.326 301.362 125.185C303.093 124.109 304.859 123.016 306.464 121.757C307.247 121.142 308.412 120.228 308.473 119.131C308.541 117.925 302.234 117.388 300.364 117.723C304.395 115.984 308.267 113.858 311.961 111.515C313.367 110.622 314.751 109.694 316.11 108.73C317.065 108.052 318.26 107.324 318.863 106.279C319.748 104.747 317.535 104.646 316.127 104.714C318.056 103.81 319.961 102.86 321.734 101.673C323.381 100.571 324.938 99.2429 326.017 97.5621C326.637 96.5977 327.117 95.3964 326.781 94.2425C326.49 93.2433 325.68 92.5103 324.809 91.9973C323.689 91.337 322.426 90.9379 321.167 90.6417C320.555 90.4976 319.934 90.3749 319.31 90.2711C322.782 89.8318 326.199 88.9298 329.512 87.7675C322.98 89.4909 316.232 90.3168 309.509 90.8658Z" fill="#9FA1A4"/>
<path d="M211.077 134.671C212.12 135.922 213.82 136.455 216.442 135.729C218.838 135.065 220.705 133.228 222.39 131.401C234.13 118.676 242.028 101.96 256.853 92.2774C270.348 83.4641 285.034 81.3398 300.824 81.1442C309.805 81.033 318.784 81.4434 327.764 81.3034C330.228 81.2649 339.276 82.2367 340.984 80.4132C342.944 78.3211 285.608 67.6822 273.087 68.3138C263.019 68.8215 254.097 70.4311 245.964 76.7736C240.605 80.9526 236.156 86.161 231.732 91.3188C224.182 100.12 216.488 109.044 211.685 119.6C210.169 122.934 208.302 131.344 211.077 134.671Z" fill="#464648"/>
<path d="M211.291 135.193C211.161 135.073 211.038 134.942 210.92 134.802C207.983 131.28 210.116 122.559 211.5 119.516C216.27 109.031 223.945 100.083 231.367 91.4305L231.711 91.0292C236.041 85.9816 240.518 80.7618 245.838 76.6129C254.428 69.9142 264.006 68.5674 273.076 68.1101C284.497 67.5337 339.878 77.3005 341.2 80.1388C341.268 80.2841 341.243 80.4352 341.133 80.5527C339.74 82.0401 334.009 81.7686 330.217 81.5889C329.192 81.5406 328.308 81.499 327.768 81.5074C323.153 81.5794 318.463 81.5048 313.927 81.4329C309.633 81.3645 305.193 81.294 300.827 81.3481C287.285 81.5157 271.485 82.9654 256.965 92.4484C247.493 98.6344 240.741 107.861 234.211 116.784C230.549 121.788 226.763 126.963 222.54 131.54C220.915 133.302 218.973 135.239 216.497 135.925C214.241 136.55 212.492 136.304 211.291 135.193ZM211.233 134.541C212.323 135.847 214.055 136.178 216.388 135.532C218.76 134.875 220.653 132.984 222.24 131.263C226.447 126.703 230.227 121.538 233.882 116.543C240.433 107.59 247.207 98.3334 256.741 92.1068C271.349 82.5667 287.221 81.1089 300.821 80.9406C305.193 80.8865 309.636 80.9569 313.933 81.025C318.465 81.097 323.152 81.1716 327.761 81.0994C328.314 81.0911 329.204 81.1332 330.235 81.1819C333.727 81.3473 339.57 81.6238 340.835 80.2738C340.09 78.1277 286.011 67.8661 273.097 68.5176C257.862 69.2857 251.113 73.017 246.089 76.9344C240.801 81.0587 236.337 86.2625 232.021 91.2949L231.677 91.6963C224.273 100.328 216.617 109.253 211.871 119.685C210.221 123.313 208.597 131.38 211.233 134.541Z" fill="#292929"/>
<path d="M233.019 92.45C236.56 88.6524 240.274 85.0195 244.268 81.6957C247.899 78.6737 251.844 75.9698 256.28 74.274C261.296 72.3562 266.86 71.7014 272.196 71.4497C277.848 71.1832 283.513 71.5234 289.136 72.1124C300.745 73.3283 312.195 75.5896 323.699 77.519C328.799 78.3744 333.885 79.4176 339.012 80.0988C339.676 80.187 340.345 80.2686 341.018 80.3418C341.71 78.093 285.473 67.689 273.087 68.3138C263.019 68.8215 254.097 70.4311 245.964 76.7736C240.605 80.9526 236.156 86.161 231.732 91.3188C226.235 97.727 220.667 104.203 216.189 111.324C221.891 105.117 227.271 98.6146 233.019 92.45Z" fill="#6E6D70"/>
<path d="M216.016 111.215C220.468 104.136 226.051 97.6273 231.451 91.3327L231.711 91.0292C236.041 85.9816 240.518 80.7618 245.838 76.6129C254.428 69.9142 264.006 68.5674 273.076 68.1101C279.56 67.783 297.472 70.455 310.841 72.8425C325.115 75.3914 339.998 78.5955 341.127 80.0357C341.244 80.1862 341.238 80.3177 341.213 80.4019L341.163 80.5623L340.996 80.5443C340.322 80.471 339.651 80.3892 338.985 80.3008C335.597 79.8507 332.174 79.2328 328.863 78.6357C327.16 78.3285 325.399 78.0106 323.665 77.7201C320.889 77.2543 318.071 76.7615 315.345 76.2848C306.777 74.7862 297.916 73.2367 289.114 72.3152C282.56 71.6288 277.187 71.4183 272.205 71.6534C268.043 71.8496 261.872 72.3543 256.353 74.4644C252.469 75.9496 248.67 78.2973 244.398 81.8525C240.734 84.9023 237.06 88.4147 233.168 92.5892C230.103 95.8759 227.092 99.3168 224.181 102.645C221.634 105.555 219 108.565 216.339 111.462L216.016 111.215ZM340.657 80.0965C337.283 77.5945 285.673 67.8832 273.097 68.5176C257.862 69.2857 251.113 73.017 246.089 76.9344C240.801 81.0587 236.337 86.2625 232.021 91.2949L231.761 91.5985C226.91 97.2526 221.912 103.08 217.727 109.331C219.81 107.021 221.869 104.667 223.874 102.375C226.788 99.0458 229.8 95.6022 232.87 92.3107C236.774 88.1235 240.46 84.5996 244.137 81.5385C248.444 77.9541 252.28 75.5849 256.207 74.0831C261.781 71.9521 267.996 71.4435 272.186 71.2459C277.189 71.0099 282.582 71.2205 289.157 71.9092C297.973 72.8324 306.84 74.383 315.415 75.8829C318.14 76.3593 320.958 76.8522 323.732 77.3175C325.468 77.6086 327.231 77.9266 328.936 78.2342C332.242 78.8305 335.66 79.4474 339.039 79.8963C339.575 79.9681 340.115 80.0349 340.657 80.0965Z" fill="#292929"/>
<path d="M333.727 80.1225C331.332 79.8528 328.941 79.6465 326.54 79.4484C323.024 79.1583 319.518 78.7658 316.013 78.3698C309.304 77.6117 302.576 76.8229 295.818 76.7469C289.926 76.6808 284.025 77.1553 278.244 78.2998C272.533 79.4302 266.959 81.213 261.666 83.6346C257.522 85.5305 253.377 87.7395 249.738 90.5011C247.218 92.4138 244.743 94.4006 242.039 96.0528C240.786 96.818 239.463 97.5515 238.045 97.961C237.118 98.2285 235.997 98.3829 235.139 97.83C234.145 97.1897 233.927 95.8846 233.9 94.7944C233.837 92.3206 234.628 89.8186 235.67 87.605C235.996 86.9139 236.355 86.2417 236.738 85.5839C235.035 87.4652 233.382 89.3955 231.732 91.3188C224.182 100.12 216.488 109.044 211.685 119.6C210.169 122.934 208.302 131.344 211.077 134.671C212.12 135.922 213.82 136.455 216.442 135.729C218.838 135.065 220.705 133.228 222.39 131.401C234.13 118.676 242.028 101.96 256.853 92.2774C270.348 83.4641 285.034 81.3398 300.824 81.1442C309.805 81.033 318.784 81.4434 327.764 81.3034C330.09 81.2672 338.284 82.1302 340.629 80.6916C338.321 80.6146 336.02 80.3809 333.727 80.1225Z" fill="#9FA1A4"/>
</g>
<g id="leftWing">
<path d="M1.7229 69.8647C12.3288 68.778 23.0127 69.0365 33.6504 69.4934C44.5755 69.9626 55.5636 70.4274 66.3369 72.4451C71.1632 73.3489 75.8238 74.5377 80.1712 76.8845C84.2671 79.0956 87.9568 81.9918 91.3241 85.1918C94.6826 88.3832 97.7366 91.8798 100.65 95.4773C103.997 99.6096 107.183 103.852 110.086 108.309C112.935 112.683 127.884 127.039 126.741 131.955C125.422 137.623 105.617 155.048 86.2912 149.241C84.6942 148.761 86.5214 146.352 87.6482 145.332C85.5947 145.604 83.4341 145.448 81.4799 145.244C77.1804 144.796 72.9296 144.027 68.8609 142.528C65.6232 141.336 62.5403 139.686 59.7154 137.703C58.5907 136.913 57.4587 136.038 56.5991 134.956C55.9667 134.159 55.3604 133.077 55.7654 132.042C56.3932 130.437 63.3071 130.478 64.9485 130.454C61.2674 129.09 57.472 128.04 53.8645 126.479C49.9167 124.77 46.1318 122.559 42.486 120.286C40.6514 119.142 38.8504 117.943 37.0908 116.687C35.4302 115.501 33.735 114.297 32.2115 112.937C31.4683 112.273 30.3625 111.286 30.3692 110.187C30.3763 108.98 36.7032 108.849 38.5489 109.303C34.6342 107.308 30.9022 104.938 27.3605 102.362C26.0118 101.381 24.6884 100.366 23.3921 99.3165C22.4806 98.5786 21.3339 97.7749 20.7966 96.6937C20.0087 95.1078 22.223 95.1494 23.6242 95.3077C21.755 94.2809 19.9125 93.211 18.2165 91.9124C16.6415 90.7067 15.1695 89.2807 14.1966 87.5341C13.6382 86.5318 13.2334 85.302 13.6406 84.172C13.9931 83.1936 14.8467 82.5141 15.7477 82.058C16.9065 81.471 18.1916 81.1538 19.4663 80.9392C20.0866 80.835 20.7133 80.7521 21.3431 80.6889C16.3206 79.7225 11.4714 77.792 6.92484 75.4966C5.95464 75.0066 4.97303 74.5396 4.02723 74.0033C3.12879 73.4939 2.15282 72.9334 1.49047 72.1212C1.03122 71.5576 0.768462 70.8062 1.31543 70.2043C1.43503 70.0728 1.5756 69.9644 1.7229 69.8647Z" fill="#67625B"/>
<path d="M31.7157 112.763C30.9948 112.097 30.1593 111.199 30.1654 110.186C30.1663 109.993 30.265 109.819 30.4577 109.669C31.4383 108.906 35.158 108.737 37.3901 108.929C34.071 107.165 30.6623 105.015 27.2407 102.527C25.8922 101.546 24.5544 100.519 23.2639 99.4748C23.1395 99.374 23.0111 99.2722 22.8803 99.1691C22.0452 98.5082 21.0978 97.7588 20.614 96.7843C20.3777 96.3087 20.3655 95.914 20.5778 95.6109C20.8706 95.1925 21.5868 95 22.7115 95.0346C21.1642 94.1663 19.5695 93.2051 18.0925 92.0742C16.2143 90.6366 14.8818 89.1838 14.0183 87.633C13.2761 86.301 13.0843 85.1134 13.4482 84.1027C13.773 83.202 14.5155 82.4533 15.6554 81.8761C16.6671 81.3635 17.8673 81.0018 19.4321 80.7383C19.6482 80.7017 19.8671 80.6679 20.089 80.636C15.9411 79.7083 11.5907 78.0803 6.83302 75.6783C6.59369 75.5576 6.35395 75.4385 6.11399 75.3187C5.39113 74.9591 4.64365 74.5872 3.92655 74.1804C3.03711 73.6764 2.02971 73.1059 1.33229 72.2496C0.695022 71.468 0.632711 70.6522 1.16449 70.0668C1.27887 69.9409 1.4199 69.8227 1.60841 69.6957L1.6506 69.667L1.70174 69.6617C12.7737 68.5275 24.0026 68.8749 33.6587 69.2896L33.8067 69.2961C44.5379 69.7568 55.6348 70.2334 66.3737 72.2442C70.6376 73.0431 75.623 74.1978 80.2675 76.705C84.0403 78.7418 87.7021 81.4699 91.4639 85.0436C94.4199 87.8527 97.3891 91.1273 100.808 95.349C104.518 99.9292 107.608 104.132 110.256 108.198C111.1 109.494 113.041 111.702 115.288 114.259C120.846 120.583 127.764 128.454 126.939 132.001C126.264 134.903 120.92 140.707 113.463 145.024C108.115 148.121 97.4659 152.811 86.2323 149.436C85.717 149.282 85.5431 148.955 85.4871 148.708C85.2896 147.836 86.2374 146.489 87.0818 145.601C85.1697 145.779 83.1811 145.626 81.4584 145.447C76.4503 144.925 72.4249 144.058 68.79 142.719C65.6014 141.545 62.509 139.913 59.5977 137.869C58.5414 137.128 57.339 136.216 56.4391 135.082C55.513 133.916 55.2226 132.868 55.5748 131.968C56.1038 130.615 60.1236 130.328 63.8261 130.264C62.7675 129.889 61.698 129.532 60.6555 129.183C58.3806 128.423 56.0282 127.637 53.7834 126.665C49.5998 124.855 45.6699 122.512 42.3777 120.459C40.5158 119.297 38.6972 118.084 36.972 116.852L36.8565 116.77C35.2417 115.617 33.5722 114.425 32.0755 113.089C31.9628 112.988 31.8409 112.879 31.7157 112.763ZM40.2153 109.923L38.5007 109.501C36.7926 109.08 31.7177 109.205 30.7086 109.991C30.619 110.061 30.5736 110.127 30.5731 110.189C30.567 111.195 31.6365 112.15 32.345 112.783C33.8271 114.106 35.4875 115.292 37.0936 116.438L37.2093 116.521C38.9275 117.748 40.739 118.956 42.5937 120.113C45.8731 122.158 49.7863 124.491 53.9454 126.291C56.1742 127.256 58.5181 128.039 60.7846 128.797C62.1774 129.262 63.6178 129.743 65.0194 130.263L66.0409 130.641L64.559 130.662C59.2056 130.717 56.3108 131.207 55.9552 132.117C55.6593 132.872 55.93 133.785 56.7588 134.829C57.6264 135.922 58.7993 136.811 59.8326 137.536C62.7146 139.559 65.7758 141.175 68.9313 142.337C72.5335 143.664 76.5272 144.523 81.5007 145.041C83.3786 145.237 85.5742 145.401 87.6212 145.13L88.27 145.044L87.785 145.483C86.877 146.305 85.7118 147.852 85.8856 148.619C85.9321 148.827 86.0846 148.966 86.3497 149.046C97.4363 152.377 107.968 147.735 113.258 144.672C120.621 140.408 125.886 134.727 126.542 131.909C127.319 128.566 120.189 120.452 114.983 114.529C112.725 111.96 110.776 109.741 109.915 108.42C107.275 104.366 104.192 100.175 100.492 95.6052C97.0846 91.3978 94.1269 88.1359 91.184 85.3393C87.4501 81.7915 83.8153 79.0833 80.0747 77.0637C75.4799 74.5833 70.5328 73.4381 66.3 72.6454C55.5896 70.6395 44.5072 70.1636 33.7902 69.7036L33.6421 69.6972C24.0159 69.2837 12.8237 68.9371 1.79579 70.0622C1.65623 70.1599 1.55087 70.249 1.46723 70.3415C0.913388 70.9506 1.40987 71.6988 1.64903 71.9924C2.29659 72.788 3.27012 73.3396 4.12793 73.826C4.83555 74.2273 5.57799 74.5969 6.29588 74.9541C6.5364 75.0737 6.77732 75.1936 7.01705 75.3148C12.2073 77.9351 16.9061 79.6276 21.382 80.4889L22.7505 80.7522L21.3643 80.8918C20.7284 80.9558 20.1015 81.0395 19.5004 81.1403C17.9778 81.3971 16.8144 81.7464 15.8405 82.2402C14.7963 82.7688 14.1207 83.4421 13.8328 84.2414C13.5103 85.1363 13.6928 86.2107 14.3748 87.4349C15.2111 88.9366 16.5088 90.3496 18.3409 91.7509C20.0567 93.0647 21.9414 94.1508 23.7224 95.1288L24.6277 95.6262L23.6015 95.51C22.1558 95.3468 21.1755 95.4684 20.9122 95.845C20.7922 96.0165 20.8147 96.2717 20.9793 96.603C21.4224 97.4953 22.3317 98.215 23.1332 98.8494C23.2655 98.9538 23.3953 99.0566 23.5203 99.1579C24.8054 100.198 26.1378 101.221 27.4806 102.198C31.2525 104.94 35.0076 107.27 38.6417 109.122L40.2153 109.923Z" fill="#292929"/>
<path d="M125.023 135.101C123.817 135.31 122.567 135.306 121.409 135.077C119.137 134.628 117.19 133.065 115.606 131.453C113.872 129.688 112.413 127.673 111.021 125.634C109.535 123.458 108.073 121.264 106.629 119.06C100.276 109.358 94.1289 99.2177 85.5197 91.3029C78.1019 84.4831 69.1647 79.9067 59.3769 77.5958C53.8809 76.2981 48.2646 75.7528 42.6536 75.2237C36.5568 74.6489 30.4501 74.1876 24.3528 73.6168C16.5889 72.89 8.7998 71.9851 1.15076 70.4312C1.19454 70.3538 1.24869 70.2779 1.31543 70.2043C1.43503 70.0728 1.5756 69.9644 1.7229 69.8647C12.3288 68.778 23.0127 69.0365 33.6504 69.4934C44.5755 69.9626 55.5636 70.4274 66.3369 72.4451C71.1632 73.3489 75.8238 74.5377 80.1712 76.8845C84.2671 79.0956 87.9568 81.9918 91.3241 85.1918C94.6826 88.3832 97.7366 91.8798 100.65 95.4773C103.997 99.6096 107.183 103.852 110.086 108.309C112.935 112.683 127.884 127.039 126.741 131.955C126.547 132.787 125.953 133.873 125.023 135.101Z" fill="#9FA1A4"/>
<path d="M31.0869 81.9117C37.3919 82.8374 43.7328 83.4925 50.0436 84.3727C49.9622 84.3689 49.8807 84.3686 49.7993 84.3646C45.2145 84.1381 40.6823 83.344 36.1064 83.0125C34.8063 82.9183 33.5034 82.8839 32.2027 82.7962C31.033 82.7175 29.8631 82.6422 28.691 82.6065C26.1519 82.5288 23.446 82.5318 21.0116 83.3466C19.3301 83.9094 17.7302 85.0696 17.567 86.9695C17.4459 88.3751 18.2624 89.6607 19.1708 90.6583C20.4939 92.1117 22.1736 93.2381 23.8501 94.2404C28.0289 96.7387 32.5916 98.597 37.1272 100.334C39.0884 101.085 41.0623 101.802 43.0366 102.518C43.8406 102.81 44.6541 103.091 45.4553 103.4C44.4365 103.259 43.4333 103.014 42.4474 102.714C39.8272 101.918 37.327 100.78 34.7234 99.9358C32.3604 99.1693 29.8454 98.6304 27.3687 99.1137C27.2707 99.1327 27.1804 99.2596 27.2185 99.3598C28.208 101.964 30.9233 103.619 33.2702 104.851C35.7917 106.176 38.4641 107.189 41.1337 108.169C44.236 109.307 47.2848 110.582 50.395 111.699C53.8575 112.944 57.3996 114.068 60.9978 114.938C59.1639 114.782 57.3333 114.588 55.5105 114.333C53.7501 114.086 52.0366 113.668 50.3105 113.249C48.4098 112.787 46.4964 112.329 44.5508 112.102C43.0348 111.925 41.3032 111.822 39.8988 112.531C39.7906 112.585 39.7779 112.707 39.8169 112.807C39.9399 113.123 40.0871 113.429 40.2572 113.724C41.0282 115.058 42.1856 116.137 43.4066 117.057C44.8476 118.141 46.4325 119.029 48.05 119.82C51.1632 121.343 54.4327 122.506 57.707 123.627C59.5978 124.274 61.5205 124.826 63.4455 125.362C65.7313 126 68.0314 126.587 70.3473 127.104C75.096 128.165 79.9269 128.951 84.7916 129.174C85.1767 129.191 85.5625 129.204 85.9485 129.214C85.0316 129.359 84.1146 129.502 83.1986 129.653C80.776 130.051 78.3555 130.477 75.9615 131.024C73.9757 131.477 71.9654 131.99 70.1025 132.828C69.0347 133.309 67.5998 134.036 67.2722 135.276C66.7808 137.136 68.9744 138.361 70.3523 138.994C72.5905 140.02 75.0511 140.618 77.4704 141.034C80.7225 141.593 84.0438 141.896 87.3428 141.895C89.8121 141.894 92.2854 141.705 94.721 141.296C93.8748 141.937 93.0799 142.662 92.4741 143.532C91.7473 144.577 91.3785 145.897 91.8469 147.133C92.3685 148.508 93.797 149.178 95.1232 149.557C95.8441 149.764 96.5825 149.901 97.3205 150.028C97.5986 150.077 97.8764 150.126 98.154 150.174C94.2906 150.648 90.281 150.44 86.2912 149.241C84.6942 148.761 86.5214 146.352 87.6482 145.332C85.5947 145.604 83.4341 145.448 81.4799 145.244C77.1804 144.796 72.9296 144.027 68.8609 142.528C65.6232 141.336 62.5403 139.686 59.7154 137.703C58.5907 136.913 57.4587 136.038 56.5991 134.956C55.9667 134.159 55.3604 133.077 55.7654 132.042C56.3932 130.437 63.3071 130.478 64.9485 130.454C61.2674 129.09 57.472 128.04 53.8645 126.479C49.9167 124.77 46.1318 122.559 42.486 120.286C40.6514 119.142 38.8504 117.943 37.0908 116.687C35.4302 115.501 33.735 114.297 32.2115 112.937C31.4683 112.273 30.3625 111.286 30.3692 110.187C30.3763 108.98 36.7032 108.849 38.5489 109.303C34.6342 107.308 30.9022 104.938 27.3605 102.362C26.0118 101.381 24.6884 100.366 23.3921 99.3165C22.4806 98.5786 21.3339 97.7749 20.7966 96.6937C20.0087 95.1078 22.223 95.1494 23.6242 95.3077C21.755 94.2809 19.9125 93.211 18.2165 91.9124C16.6415 90.7067 15.1695 89.2807 14.1966 87.5341C13.6382 86.5318 13.2334 85.302 13.6406 84.172C13.9931 83.1936 14.8467 82.5141 15.7477 82.058C16.9065 81.471 18.1916 81.1538 19.4663 80.9392C20.0866 80.835 20.7133 80.7521 21.3431 80.6889C17.9051 80.0271 14.551 78.9074 11.3166 77.5346C17.7286 79.674 24.4115 80.932 31.0869 81.9117Z" fill="#9FA1A4"/>
<path d="M126.608 131.955C125.489 133.136 123.759 133.558 121.188 132.665C118.838 131.849 117.088 129.895 115.52 127.964C104.592 114.51 97.7465 97.3194 83.551 86.7039C70.6294 77.0409 56.1045 73.9773 40.3578 72.7676C31.402 72.0796 22.4153 71.9122 13.4614 71.1953C11.005 70.9987 1.91456 71.3871 0.322854 69.4576C-1.50316 67.2438 56.3781 60.31 68.8352 61.7449C78.851 62.8986 87.6556 65.0784 95.3791 71.9308C100.468 76.4457 104.585 81.9296 108.681 87.3615C115.67 96.6306 122.796 106.031 126.934 116.875C128.241 120.299 129.584 128.812 126.608 131.955Z" fill="#464648"/>
<path d="M0.314907 69.7441C0.260203 69.6935 0.210394 69.6413 0.165762 69.5872C0.0632562 69.4628 0.0485138 69.311 0.125068 69.1699C1.60951 66.4353 57.4957 60.2339 68.8586 61.5427C84.1277 63.301 90.6936 67.5015 95.5147 71.7787C100.566 76.2616 104.71 81.7566 108.717 87.0709L109.039 87.4978C115.91 96.6097 123.015 106.032 127.125 116.803C128.318 119.928 129.906 128.769 126.756 132.095C125.47 133.453 123.574 133.71 121.121 132.858C118.692 132.014 116.875 129.956 115.361 128.093C111.432 123.254 107.973 117.846 104.628 112.616C98.6652 103.292 92.4995 93.6499 83.4289 86.8672C69.5263 76.4708 53.8465 74.0081 40.3425 72.971C35.9874 72.6362 31.5506 72.4213 27.2602 72.2133C22.7299 71.9938 18.0456 71.7669 13.4455 71.3989C12.9064 71.3556 12.0209 71.3404 10.9955 71.3229C7.32993 71.2608 1.85504 71.1677 0.314907 69.7441ZM96.0187 72.7854C95.7627 72.5487 95.5047 72.3148 95.2439 72.0835C87.1711 64.9213 77.7696 62.9793 68.8121 61.9475C55.9648 60.4678 1.36611 67.2297 0.482635 69.3666C1.6497 70.7529 7.50745 70.856 11.0022 70.9156C12.0343 70.9331 12.9257 70.9483 13.4774 70.9922C18.0713 71.3602 22.7524 71.5869 27.2796 71.8064C31.573 72.0146 36.0125 72.2296 40.3733 72.5644C53.9359 73.6065 69.6867 76.082 83.673 86.5411C92.8014 93.3672 98.9885 103.041 104.972 112.397C108.31 117.617 111.762 123.015 115.678 127.836C117.155 129.655 118.927 131.664 121.254 132.473C123.542 133.267 125.294 133.046 126.46 131.815C129.248 128.871 128.127 120.571 126.744 116.947C122.654 106.231 115.567 96.8325 108.714 87.7431L108.392 87.3164C104.604 82.2927 100.694 77.1067 96.0187 72.7854Z" fill="#292929"/>
<path d="M107.327 88.4076C104.028 84.3904 100.546 80.5258 96.7671 76.952C93.3306 73.7026 89.5603 70.7509 85.2387 68.7732C80.3513 66.5369 74.8392 65.5259 69.5296 64.9319C63.9052 64.3025 58.2311 64.2783 52.5828 64.5048C40.9207 64.972 29.3534 66.4933 17.7532 67.6797C12.6097 68.2057 7.46939 68.92 2.31046 69.2704C1.64212 69.3157 0.969316 69.3543 0.293869 69.3839C-0.25814 67.0951 56.5118 60.3253 68.8352 61.7449C78.851 62.8986 87.6556 65.0784 95.3791 71.9308C100.468 76.4457 104.585 81.9296 108.681 87.3615C113.77 94.1102 118.925 100.931 122.953 108.325C117.648 101.765 112.681 94.9295 107.327 88.4076Z" fill="#6E6D70"/>
<path d="M0.135415 69.5952L0.0958769 69.4318C0.075188 69.3463 0.0772681 69.2142 0.203676 69.0715C1.40432 67.7145 16.4735 65.4657 30.8752 63.8391C44.3662 62.3153 62.4086 60.7997 68.8586 61.5427C84.1277 63.301 90.6936 67.5015 95.5147 71.7787C100.566 76.2589 104.712 81.7581 108.719 87.0734L108.966 87.4011C113.963 94.0278 119.129 100.88 123.132 108.228L122.794 108.454C120.318 105.391 117.876 102.218 115.514 99.1491C112.815 95.6415 110.024 92.0143 107.169 88.5373C103.541 84.1188 100.093 80.3776 96.627 77.1003C92.5827 73.2724 88.9387 70.691 85.1543 68.9591C79.7782 66.4992 73.6496 65.5985 69.5075 65.135C64.5497 64.5803 59.174 64.4446 52.5913 64.7088C43.7507 65.0629 34.8136 66.0401 26.1708 66.9845C23.4196 67.2854 20.5746 67.5964 17.774 67.8828C16.0266 68.0616 14.2494 68.2656 12.5307 68.4629C9.18914 68.8461 5.73427 69.2426 2.32465 69.4743C1.6548 69.5198 0.980094 69.5584 0.303305 69.588L0.135415 69.5952ZM96.018 72.7845C95.7622 72.5481 95.5043 72.3145 95.2439 72.0835C87.1711 64.9213 77.7696 62.9793 68.8121 61.9475C56.3537 60.5124 4.62941 66.829 0.715861 69.1603C1.24464 69.134 1.77218 69.1029 2.29706 69.0673C5.69707 68.8363 9.14699 68.4402 12.4839 68.0575C14.2038 67.8601 15.9823 67.6559 17.7324 67.4769C20.5314 67.1906 23.3757 66.8799 26.1263 66.5792C34.776 65.6337 43.7203 64.6561 52.5743 64.301C59.1787 64.0364 64.5734 64.1724 69.5523 64.7295C73.7226 65.196 79.8941 66.1036 85.3237 68.5879C89.1504 70.3393 92.8271 72.9446 96.9073 76.804C100.386 80.0933 103.845 83.8468 107.484 88.2785C110.343 91.7606 113.136 95.3903 115.838 98.9003C117.697 101.317 119.606 103.798 121.542 106.238C117.755 99.7334 113.129 93.5986 108.641 87.6463L108.394 87.3185C104.605 82.2939 100.694 77.1067 96.018 72.7845Z" fill="#292929"/>
<path d="M7.58396 69.634C9.99065 69.5184 12.3896 69.466 14.7983 69.4227C18.3248 69.3592 21.8485 69.1927 25.3715 69.0227C32.1138 68.6972 38.8769 68.3424 45.6264 68.7007C51.5105 69.0133 57.3702 69.8661 63.0694 71.3798C68.6984 72.8748 74.1515 75.0123 79.2837 77.7693C83.3018 79.9277 87.3011 82.3986 90.7615 85.3885C93.1579 87.4592 95.5046 89.6009 98.1013 91.4237C99.3041 92.268 100.579 93.0848 101.969 93.5848C102.877 93.9113 103.986 94.1375 104.877 93.6408C105.909 93.0656 106.207 91.7773 106.302 90.6909C106.518 88.2262 105.884 85.6781 104.981 83.402C104.699 82.6913 104.382 81.9973 104.041 81.3165C105.624 83.3035 107.154 85.3359 108.681 87.3615C115.67 96.6306 122.796 106.031 126.934 116.875C128.241 120.299 129.584 128.812 126.608 131.955C125.489 133.136 123.759 133.558 121.188 132.665C118.838 131.849 117.088 129.895 115.52 127.964C104.592 114.51 97.7465 97.3194 83.551 86.7039C70.6294 77.0409 56.1045 73.9773 40.3578 72.7676C31.402 72.0796 22.4153 71.9122 13.4614 71.1953C11.1418 71.0097 2.91146 71.3446 0.660237 69.7582C2.96835 69.8297 5.2787 69.7443 7.58396 69.634Z" fill="#9FA1A4"/>
</g>
<g id="head">
<path d="M195.92 17.8827C191.566 5.81037 179.488 0.9707 172.872 0.85313C166.262 0.545495 153.908 4.59946 148.814 16.3678C137.246 43.0946 135.932 82.5446 120.783 108.315C119.998 109.651 136.081 102.321 140.347 97.6916C140.333 97.9482 140.318 98.2049 140.305 98.4617C140.266 99.2333 140.2 100.003 140.176 100.776C140.148 101.678 140.16 102.591 140.307 103.484C140.435 104.26 140.674 105.088 141.206 105.69C141.785 106.344 142.632 106.656 143.489 106.445C144.407 106.22 145.183 105.583 145.833 104.923C146.715 104.027 147.452 102.987 148.124 101.928C148.921 100.671 149.634 99.359 150.292 98.0198C150.415 98.7906 150.56 99.5583 150.729 100.319C151.366 103.177 152.436 106.442 155.34 107.721C156.787 108.359 158.479 108.389 159.968 107.889C161.434 107.397 162.691 106.403 163.712 105.264C164.794 104.058 165.628 102.68 166.382 101.253C167.28 99.5557 168.113 97.824 168.851 96.0512C169.015 95.6563 169.174 95.2575 169.33 94.8567C169.455 95.5616 169.598 96.2643 169.768 96.9629C170.568 100.252 171.893 103.583 174.188 106.127C175.293 107.351 176.61 108.354 178.119 109.028C179.565 109.673 181.257 110.063 182.761 109.378C184.265 108.693 185.216 107.219 185.932 105.792C187.026 103.61 187.775 101.258 188.257 98.8676C188.312 98.5929 188.358 98.3171 188.404 98.0413C188.697 98.7172 188.991 99.3925 189.279 100.071C190.538 103.043 191.735 106.261 194.083 108.572C194.642 109.122 195.271 109.602 195.969 109.961C196.564 110.268 197.227 110.515 197.907 110.447C199.066 110.333 199.673 109.26 199.938 108.239C200.304 106.827 200.283 105.332 200.266 103.884C200.254 102.781 200.213 101.679 200.15 100.578C204.159 105.284 217.967 111.125 217.388 109.797C203.486 77.9497 205.808 45.2994 195.92 17.8827Z" fill="#464648"/>
<path d="M120.638 108.592C120.557 108.518 120.507 108.381 120.608 108.212C129.126 93.72 133.293 74.7519 137.322 56.4083C140.534 41.7852 143.569 27.9733 148.627 16.2869C153.809 4.31361 166.254 0.340962 172.881 0.649571C179.508 0.766895 191.682 5.53119 196.111 17.8136C200.498 29.9774 202.464 43.0273 204.545 56.8432C207.149 74.1277 209.842 92.0007 217.575 109.716C217.661 109.914 217.571 110.06 217.467 110.125C216.379 110.804 204.534 105.459 200.385 101.139C200.432 102.081 200.461 103.002 200.47 103.882L200.471 103.927C200.487 105.372 200.504 106.867 200.135 108.291C199.922 109.112 199.353 110.51 197.927 110.65C197.126 110.73 196.373 110.399 195.876 110.143C195.198 109.793 194.547 109.312 193.941 108.717C191.79 106.6 190.603 103.761 189.455 101.016C189.333 100.726 189.212 100.437 189.091 100.15C188.892 99.6813 188.691 99.2139 188.488 98.7468C188.478 98.8003 188.467 98.8543 188.456 98.908C187.941 101.466 187.152 103.813 186.114 105.884C185.451 107.206 184.48 108.819 182.845 109.564C181.523 110.166 179.905 110.049 178.036 109.214C176.549 108.55 175.203 107.557 174.036 106.263C172.023 104.031 170.52 100.918 169.57 97.0109C169.46 96.5598 169.357 96.0905 169.259 95.5899C169.187 95.7707 169.114 95.9505 169.039 96.1294C168.337 97.8174 167.527 99.5247 166.562 101.349C165.936 102.532 165.064 104.062 163.864 105.4C162.675 106.726 161.386 107.628 160.033 108.082C158.454 108.613 156.714 108.549 155.258 107.908C152.264 106.589 151.158 103.183 150.53 100.364C150.408 99.8145 150.295 99.2478 150.194 98.6719C149.567 99.9105 148.943 101.016 148.296 102.038C147.466 103.347 146.751 104.281 145.978 105.066C145.434 105.619 144.589 106.385 143.537 106.643C142.632 106.866 141.705 106.559 141.053 105.824C140.584 105.294 140.274 104.539 140.105 103.517C139.942 102.526 139.948 101.528 139.972 100.769C139.987 100.294 140.018 99.8199 140.048 99.3453C140.067 99.0476 140.087 98.7496 140.102 98.4513L140.114 98.2208C135.759 102.431 121.617 109.321 120.66 108.611C120.652 108.605 120.645 108.599 120.638 108.592ZM189.2 8.11861C183.894 3.21389 177.187 1.13388 172.868 1.05704C166.344 0.753504 154.102 4.66379 149.001 16.4489C143.959 28.0996 140.929 41.8927 137.721 56.496C133.698 74.8077 129.539 93.7409 121.047 108.269C122.961 108.03 136.286 101.797 140.197 97.5532L140.583 97.135L140.509 98.472C140.493 98.772 140.474 99.0718 140.455 99.3719C140.425 99.8415 140.394 100.311 140.38 100.782C140.357 101.522 140.35 102.494 140.508 103.451C140.664 104.395 140.942 105.083 141.359 105.554C141.904 106.174 142.684 106.433 143.44 106.247C144.39 106.014 145.178 105.298 145.688 104.779C146.439 104.016 147.138 103.103 147.952 101.818C148.687 100.658 149.393 99.3856 150.109 97.9291L150.393 97.3532L150.494 97.9875C150.618 98.7679 150.764 99.5376 150.929 100.275C151.573 103.17 152.611 106.296 155.422 107.534C156.786 108.135 158.42 108.194 159.904 107.695C161.189 107.264 162.419 106.4 163.561 105.127C164.731 103.823 165.587 102.32 166.202 101.157C167.16 99.3445 167.965 97.6486 168.663 95.972C168.827 95.5786 168.985 95.1813 169.14 94.782L169.404 94.1045L169.531 94.8209C169.667 95.5832 169.809 96.268 169.966 96.9143C170.901 100.755 172.372 103.809 174.339 105.989C175.468 107.24 176.768 108.2 178.203 108.841C179.96 109.626 181.465 109.744 182.676 109.192C184.195 108.5 185.117 106.963 185.749 105.701C186.772 103.662 187.548 101.349 188.057 98.8266C188.112 98.5541 188.158 98.2807 188.203 98.0074L188.317 97.3263L188.731 98.2824C188.978 98.8514 189.225 99.4203 189.467 99.991C189.588 100.278 189.709 100.568 189.831 100.859C190.963 103.567 192.134 106.367 194.227 108.426C194.805 108.997 195.421 109.449 196.063 109.78C196.779 110.149 197.359 110.296 197.887 110.244C199.066 110.127 199.554 108.905 199.74 108.187C200.096 106.816 200.079 105.35 200.063 103.931L200.063 103.886C200.051 102.833 200.012 101.724 199.947 100.589L199.913 99.9838L200.306 100.445C204.022 104.809 215.762 109.824 217.162 109.79C209.437 92.0512 206.745 74.183 204.142 56.9031C202.064 43.1075 200.101 30.077 195.728 17.9511C194.254 13.8652 191.91 10.6232 189.2 8.11861Z" fill="#292929"/>
<path d="M131.321 88.5694C133.104 83.9615 134.6 79.247 135.957 74.4968C137.61 68.7053 139.145 62.8816 140.613 57.0403C143.626 45.0439 146.381 32.9746 149.77 21.0763C150.963 16.8868 153.014 12.9847 156.152 9.9262C159.111 7.04169 162.794 5.07527 166.637 3.63239C169.686 2.48769 172.896 1.61937 176.148 1.23072C174.965 0.995768 173.857 0.870616 172.872 0.85313C166.262 0.545495 153.908 4.59946 148.814 16.3678C137.321 42.921 135.943 82.0263 121.07 107.805C125.391 101.95 128.694 95.3528 131.321 88.5694Z" fill="#58595B"/>
<path d="M217.388 109.797C203.524 78.0382 205.794 45.481 196 18.1112C195.253 18.0644 194.5 18.062 193.739 18.1235C191.029 18.3423 188.366 19.139 186.037 20.5524C183.819 21.8992 181.97 23.9349 180.593 26.1179C179.211 28.3079 178.281 30.7872 178 33.3676C177.987 33.488 177.868 33.6094 177.736 33.5559C174.845 32.3815 171.287 32.2522 168.501 33.7798C168.352 33.8613 168.214 33.7412 168.2 33.5939C167.83 29.7995 165.79 26.4471 162.945 23.9743C160.93 22.2228 158.507 20.7015 155.851 20.2112C153.55 19.7865 151.129 19.8909 148.842 20.3441C148.239 20.4635 147.634 20.6122 147.035 20.7903C144.087 28.6325 141.836 37.3559 139.762 46.3893C140.263 46.8567 140.787 47.3007 141.341 47.7048C142.623 48.6395 144.073 49.4256 145.584 49.9144C147.259 50.4559 149.028 50.6679 150.626 51.4403C150.706 51.479 150.737 51.5952 150.713 51.6735C150.598 52.0477 150.455 52.4116 150.299 52.7706C149.524 54.5561 148.517 56.2361 147.855 58.0715C147.557 58.8975 147.309 59.7774 147.345 60.6639C147.373 61.3893 147.668 62.0856 148.057 62.6896C148.979 64.1212 150.418 65.2186 151.804 66.1687C153.364 67.2377 155.024 68.1604 156.714 69.0054C160.494 70.8955 164.456 72.4237 168.662 73.0052C173.395 73.6599 178.206 73.175 182.771 71.8085C187.5 70.3924 191.919 68.0867 196.013 65.3519C196.133 65.2713 196.268 65.3716 196.308 65.4835C197.666 69.2223 198.667 73.0748 199.596 76.9386C200.067 78.9032 200.525 80.8448 201.132 82.772C201.77 84.7957 202.432 86.812 203.019 88.8512C203.597 90.8578 204.142 92.8998 204.392 94.9768C204.547 96.2629 204.731 97.9735 203.908 99.0902C203.851 99.1685 203.771 99.1971 203.675 99.1765C202.248 98.8679 200.998 98.0536 199.946 97.0631C197.877 95.1154 196.431 92.5344 195.25 89.9626C195.404 91.0672 195.549 92.1734 195.673 93.2816C195.878 95.1197 196.042 96.9647 196.105 98.8133C196.154 100.267 196.163 101.747 195.933 103.187C195.803 103.997 195.603 105.098 194.852 105.582C193.805 106.256 192.629 104.973 192.077 104.216C190.83 102.506 190.091 100.418 189.431 98.4272C188.822 96.5938 188.331 94.7263 187.73 92.8909C187.711 92.8334 187.693 92.7752 187.674 92.7173C187.571 93.203 187.464 93.6875 187.349 94.1705C186.929 95.942 186.427 97.7018 185.76 99.3973C185.205 100.806 184.539 102.216 183.579 103.398C182.851 104.295 181.894 105.103 180.717 105.285C179.414 105.486 178.17 104.901 177.159 104.124C175.232 102.64 173.844 100.534 172.799 98.3667C171.43 95.5295 170.579 92.4537 170.007 89.3655C169.86 88.5731 169.732 87.7767 169.621 86.9782C169.073 88.8018 168.47 90.6094 167.789 92.3877C167.066 94.2779 166.26 96.1434 165.303 97.9278C164.493 99.4381 163.57 100.923 162.391 102.176C161.51 103.111 160.401 103.985 159.099 104.198C157.759 104.418 156.517 103.849 155.516 102.987C153.658 101.387 152.701 99.0606 152.29 96.6913C151.926 94.5896 151.92 92.4408 152.067 90.3101C151.431 92.1173 150.724 93.9004 149.899 95.6275C149.335 96.8064 148.713 97.9707 147.945 99.0307C147.37 99.8249 146.687 100.629 145.805 101.092C145.082 101.472 144.274 101.518 143.537 101.146C142.336 100.54 142.016 99.2118 141.966 97.9661C141.896 96.2542 142.237 94.5316 142.559 92.859C142.717 92.0416 142.886 91.2262 143.026 90.4052C143.09 90.0333 143.148 89.6558 143.183 89.2771C143.126 89.3623 143.07 89.4482 143.012 89.5329C141.461 91.841 139.802 94.1008 137.818 96.0598C136.825 97.0409 135.75 97.9397 134.59 98.7185C133.446 99.4868 132.215 100.092 130.964 100.663C129.337 101.407 126.672 102.496 125.366 100.632C125.225 100.431 125.114 100.214 125.021 99.9876C123.734 102.886 122.335 105.675 120.783 108.315C119.998 109.651 136.081 102.321 140.347 97.6916C140.333 97.9482 140.318 98.2049 140.305 98.4617C140.266 99.2333 140.2 100.003 140.176 100.776C140.148 101.678 140.16 102.591 140.307 103.484C140.435 104.26 140.674 105.088 141.206 105.69C141.785 106.344 142.632 106.656 143.489 106.445C144.407 106.22 145.183 105.583 145.833 104.923C146.715 104.027 147.452 102.987 148.124 101.928C148.921 100.671 149.634 99.359 150.292 98.0198C150.415 98.7906 150.56 99.5583 150.729 100.319C151.366 103.177 152.436 106.442 155.34 107.721C156.787 108.359 158.479 108.389 159.968 107.889C161.434 107.397 162.691 106.403 163.712 105.264C164.794 104.058 165.628 102.68 166.382 101.253C167.28 99.5557 168.113 97.824 168.851 96.0512C169.015 95.6563 169.174 95.2575 169.33 94.8567C169.455 95.5616 169.598 96.2643 169.768 96.9629C170.568 100.252 171.893 103.583 174.188 106.127C175.293 107.351 176.61 108.354 178.119 109.028C179.565 109.673 181.257 110.063 182.761 109.378C184.265 108.693 185.216 107.219 185.932 105.792C187.026 103.61 187.775 101.258 188.257 98.8676C188.312 98.5929 188.358 98.3171 188.404 98.0413C188.697 98.7172 188.991 99.3925 189.279 100.071C190.538 103.043 191.735 106.261 194.083 108.572C194.642 109.122 195.271 109.602 195.969 109.961C196.564 110.268 197.227 110.515 197.907 110.447C199.066 110.333 199.673 109.26 199.938 108.239C200.304 106.827 200.283 105.332 200.266 103.884C200.254 102.781 200.213 101.679 200.15 100.578C204.159 105.284 217.967 111.125 217.388 109.797Z" fill="#58595B"/>
<path d="M206.96 37.2417C206.732 44.5655 200.61 50.3117 193.286 50.0762C185.961 49.8406 180.207 43.7126 180.434 36.3886C180.662 29.0647 186.784 23.3187 194.109 23.5542C201.433 23.7897 207.187 29.9177 206.96 37.2417Z" fill="white"/>
<path d="M184.568 46.7043C181.796 44.1418 180.105 40.4401 180.231 36.3821C180.461 28.9577 186.689 23.112 194.115 23.3505C201.54 23.5895 207.394 29.8238 207.164 37.2483C206.933 44.6728 200.705 50.5187 193.279 50.2799C189.912 50.1714 186.868 48.8303 184.568 46.7043ZM202.55 27.2254C200.319 25.1635 197.368 23.863 194.102 23.7579C186.902 23.5264 180.862 29.1954 180.638 36.3953C180.415 43.5956 186.091 49.6407 193.292 49.8726C200.493 50.104 206.533 44.4351 206.756 37.235C206.878 33.3004 205.238 29.7099 202.55 27.2254Z" fill="#AFC4C4"/>
<path d="M194.109 23.5542C186.784 23.3187 180.662 29.0647 180.434 36.3886C180.207 43.7126 185.961 49.8406 193.286 50.0762C200.61 50.3117 206.732 44.5655 206.96 37.2417C207.187 29.9177 201.433 23.7897 194.109 23.5542ZM193.386 46.8296C187.254 46.6323 182.437 41.5019 182.627 35.3701C182.817 29.2383 187.943 24.4275 194.075 24.6247C200.208 24.822 205.025 29.9525 204.835 36.0842C204.644 42.2161 199.519 47.0269 193.386 46.8296Z" fill="#E0E1E2"/>
<path d="M202.001 36.9696C201.85 41.8316 197.786 45.6462 192.923 45.4898C188.061 45.3334 184.241 41.2653 184.392 36.4034C184.543 31.5417 188.607 27.7271 193.469 27.8834C198.332 28.0397 202.151 32.1078 202.001 36.9696Z" fill="#05180F"/>
<path d="M191.717 33.6345C191.677 34.9275 190.596 35.9421 189.303 35.9004C188.009 35.8589 186.993 34.7768 187.033 33.4837C187.074 32.1908 188.155 31.1761 189.448 31.2176C190.741 31.2594 191.757 32.3413 191.717 33.6345Z" fill="white"/>
<path d="M164.362 35.8717C164.135 43.1955 158.013 48.9417 150.688 48.7062C143.363 48.4706 137.61 42.3427 137.837 35.0189C138.064 27.6949 144.186 21.9487 151.511 22.1844C158.836 22.4198 164.59 28.548 164.362 35.8717Z" fill="white"/>
<path d="M141.971 45.3343C139.198 42.7722 137.507 39.0701 137.633 35.012C137.745 31.4155 139.251 28.0794 141.873 25.6181C144.495 23.1569 147.92 21.865 151.517 21.9807C158.942 22.2198 164.796 28.4539 164.566 35.8784C164.454 39.4749 162.949 42.8113 160.327 45.2726C157.704 47.7341 154.279 49.0254 150.681 48.9098C147.315 48.8015 144.271 47.4602 141.971 45.3343ZM159.952 25.8552C157.722 23.7935 154.77 22.4931 151.504 22.3879C148.017 22.276 144.695 23.5285 142.152 25.9153C139.609 28.3021 138.149 31.5373 138.041 35.0251C137.817 42.2249 143.494 48.2707 150.695 48.5022C154.183 48.6145 157.504 47.3619 160.047 44.9748C162.59 42.5882 164.05 39.3527 164.158 35.865C164.281 31.9305 162.64 28.3398 159.952 25.8552Z" fill="#AFC4C4"/>
<path d="M151.511 22.1844C144.186 21.9487 138.064 27.6949 137.837 35.0189C137.61 42.3427 143.363 48.4706 150.688 48.7062C158.013 48.9417 164.135 43.1955 164.362 35.8717C164.59 28.548 158.836 22.4198 151.511 22.1844ZM150.789 45.4598C144.656 45.2625 139.839 40.132 140.029 34.0002C140.22 27.8686 145.345 23.0576 151.478 23.255C157.61 23.452 162.427 28.5827 162.237 34.7144C162.047 40.8461 156.921 45.657 150.789 45.4598Z" fill="#E0E1E2"/>
<path d="M159.403 35.5998C159.252 40.4617 155.188 44.2763 150.326 44.1198C145.463 43.9635 141.644 39.8954 141.795 35.0335C141.945 30.1717 146.01 26.3572 150.872 26.5136C155.735 26.6699 159.554 30.7379 159.403 35.5998Z" fill="#05180F"/>
<path d="M149.119 32.2644C149.079 33.5575 147.998 34.5722 146.705 34.5305C145.412 34.4891 144.396 33.407 144.436 32.1139C144.476 30.8208 145.557 29.8063 146.851 29.8479C148.144 29.8894 149.16 30.9714 149.119 32.2644Z" fill="white"/>
<path d="M192.711 58.4942C192.321 58.082 191.802 57.7929 191.312 57.5141C190.719 57.1758 190.121 56.8439 189.513 56.5306C186.527 54.9899 183.439 53.5674 180.206 52.6318C177.004 51.7054 173.669 51.186 170.337 51.1364C168.716 51.1121 167.032 51.1437 165.436 51.4469C163.855 51.7469 162.365 52.3773 160.909 53.0418C160.157 53.3847 159.412 53.7414 158.664 54.092C158.57 54.1362 158.502 54.2038 158.453 54.2773C157.515 54.5624 156.579 54.8511 155.64 55.1344C153.576 55.7576 151.415 56.2406 149.783 57.7414C149.684 57.8324 149.631 57.9828 149.699 58.1058C152.351 62.9096 156.572 66.675 161.658 68.7421C164.152 69.7552 166.821 70.3429 169.508 70.4793C172.362 70.6238 175.161 70.1948 177.921 69.4969C180.898 68.7438 183.816 67.6855 186.48 66.1432C187.777 65.392 188.993 64.5165 190.116 63.5233C190.962 62.7748 191.817 61.9912 192.458 61.0529C192.962 60.3147 193.427 59.2504 192.711 58.4942Z" fill="#B16413"/>
<path d="M192.317 59.8962C192.088 60.9395 191.079 61.8349 190.335 62.5336C189.41 63.4033 188.429 64.2064 187.369 64.9084C184.916 66.5332 182.158 67.6647 179.34 68.4837C176.663 69.2616 173.891 69.8332 171.094 69.8466C168.523 69.8593 165.959 69.4507 163.52 68.6363C158.592 66.9913 154.274 63.6944 151.362 59.3938C151.031 58.9061 150.723 58.4041 150.429 57.8941C151.988 56.5596 154.117 56.109 156.027 55.4943C156.837 55.2337 157.643 54.9612 158.45 54.6908C158.519 54.7558 158.632 54.7816 158.803 54.7155C159.333 54.5105 159.853 54.2815 160.371 54.0482C161.228 53.7577 162.086 53.4658 162.944 53.1787C163.041 53.1464 163.067 52.9692 162.935 53.0026C162.774 53.0433 162.614 53.0897 162.453 53.1316C162.642 53.053 162.829 52.9712 163.02 52.898C164.52 52.3214 166.029 52.0547 167.63 51.9607C170.817 51.7731 174.039 52.0549 177.16 52.7267C180.254 53.3928 183.176 54.4941 186.044 55.8175C187.504 56.4912 188.938 57.2161 190.357 57.9732C191.062 58.3497 192.538 58.8927 192.317 59.8962Z" fill="#FFDA00"/>
<path d="M193.398 58.0991C193.287 57.5903 193.174 57.0815 193.047 56.5764C192.795 55.5729 192.494 54.5819 192.14 53.6095C191.468 51.7638 190.61 49.9809 189.554 48.3236C187.51 45.1162 184.72 42.4155 181.407 40.5403C179.113 39.2418 176.597 38.4192 174.01 37.9975C174.084 37.9975 174.159 37.9956 174.233 37.9964C174.235 37.9965 174.237 37.9942 174.239 37.9941C172.821 37.8239 171.388 37.8133 169.962 37.9144C167.463 38.1905 165.01 38.8378 162.736 39.94C159.314 41.5985 156.362 44.1144 154.123 47.184C152.967 48.7704 152 50.4947 151.215 52.2934C150.802 53.2409 150.439 54.2109 150.126 55.196C149.968 55.6919 149.824 56.1925 149.681 56.6932C149.604 56.9626 149.483 57.2885 149.57 57.5695C149.645 57.8135 149.858 57.9434 150.07 58.056C150.595 58.3337 151.157 58.5446 151.718 58.7353C152.952 59.1556 154.172 59.5406 155.347 60.1163C157.605 61.2234 159.657 62.7252 161.517 64.4099C165.568 68.0784 169.347 72.7785 170.482 78.2509C170.529 78.4737 170.708 78.4916 170.887 78.4253C171.061 78.5029 171.242 78.4967 171.302 78.2773C172.774 72.8888 176.837 68.4407 181.107 65.0398C183.068 63.4782 185.209 62.1111 187.531 61.1514C188.739 60.6521 189.981 60.3463 191.239 60.0063C191.81 59.8519 192.384 59.6776 192.925 59.4341C193.144 59.3355 193.365 59.2192 193.455 58.9807C193.559 58.7059 193.458 58.373 193.398 58.0991Z" fill="#B16413"/>
<path d="M192.382 58.855C191.865 59.078 191.318 59.2361 190.775 59.3806C189.545 59.7079 188.335 60.0159 187.155 60.5035C186.087 60.9451 185.052 61.4627 184.056 62.0496C181.988 63.2674 180.099 64.7655 178.34 66.3914C175.597 68.9249 173.053 71.9348 171.473 75.3714C171.382 75.4233 171.305 75.4881 171.275 75.5544C171.129 75.8799 171.032 76.218 170.945 76.5585C170.879 76.213 170.803 75.8693 170.678 75.5352C170.652 75.4672 170.579 75.3974 170.491 75.3398C169.128 71.8087 166.775 68.6411 164.195 65.9367C162.54 64.2009 160.747 62.5844 158.759 61.2361C157.802 60.5864 156.801 60.0034 155.762 59.4939C154.615 58.9317 153.426 58.5464 152.219 58.1407C151.686 57.9616 151.15 57.7686 150.648 57.5129C150.394 57.3833 150.255 57.3156 150.303 57.0194C150.452 56.1036 150.834 55.1568 151.143 54.2849C151.806 52.4137 152.652 50.6079 153.702 48.9222C155.676 45.7513 158.348 43.041 161.586 41.1613C164.803 39.2932 168.443 38.3002 172.14 38.0572C175.814 38.5373 179.384 39.762 182.48 41.8332C185.595 43.9174 188.093 46.7938 189.867 50.0851C190.81 51.8349 191.542 53.6916 192.088 55.6016C192.343 56.4917 192.665 57.4611 192.757 58.3848C192.787 58.6831 192.643 58.7419 192.382 58.855Z" fill="#FFDA00"/>
<path d="M165.026 57.7353C163.816 56.6361 162.445 55.6535 160.922 55.0393C159.611 54.5104 158.151 54.2611 156.771 54.6649C156.115 54.8569 155.537 55.1912 155.024 55.6099C156.201 55.9975 157.377 56.3875 158.541 56.8125C160.931 57.685 163.292 58.7102 165.386 60.1727C167.214 61.4497 168.765 63.0467 170.025 64.8715C169.631 63.7253 169.028 62.6415 168.369 61.6396C167.426 60.2067 166.295 58.8889 165.026 57.7353Z" fill="#FDBB45"/>
<path d="M192.088 55.6016C191.542 53.6916 190.81 51.8349 189.867 50.0851C188.093 46.7938 185.595 43.9174 182.48 41.8332C179.384 39.762 175.814 38.5373 172.14 38.0572C171.584 38.0938 171.03 38.1532 170.479 38.224C171.263 39.5627 171.832 41.0326 172.257 42.5208C173.526 46.9644 173.649 51.6711 173.651 56.2606C173.652 57.3318 173.633 58.4021 173.651 59.4737C173.672 60.691 173.702 61.9091 173.671 63.1266C173.615 65.3443 173.442 67.8484 172.151 69.7362C172.075 69.8465 171.925 69.8626 171.83 69.7672C170.277 68.2119 168.911 66.4847 167.375 64.9136C166.678 64.2006 165.943 63.5236 165.155 62.9127C164.285 62.238 163.362 61.6859 162.38 61.1906C160.432 60.2076 158.379 59.4551 156.29 58.8351C155.046 58.4659 153.783 58.3055 152.512 58.2395C153.619 58.6104 154.708 58.9773 155.762 59.4939C156.801 60.0034 157.802 60.5864 158.759 61.2361C160.747 62.5844 162.54 64.2009 164.195 65.9367C166.775 68.6411 169.128 71.8087 170.491 75.3398C170.579 75.3974 170.652 75.4672 170.678 75.5352C170.803 75.8693 170.879 76.213 170.945 76.5585C171.032 76.218 171.129 75.8799 171.275 75.5544C171.305 75.4881 171.382 75.4233 171.473 75.3714C173.053 71.9348 175.597 68.9249 178.34 66.3914C180.099 64.7655 181.988 63.2674 184.056 62.0496C185.052 61.4627 186.087 60.9451 187.155 60.5035C188.335 60.0159 189.545 59.7079 190.775 59.3806C191.318 59.2361 191.865 59.078 192.382 58.855C192.643 58.7419 192.787 58.6831 192.757 58.3848C192.665 57.4611 192.343 56.4917 192.088 55.6016Z" fill="#FDBB45"/>
<path d="M166.156 35.6729C164.692 34.8562 162.958 34.8968 161.361 35.2128C157.72 35.9325 154.425 38.1387 152.314 41.1813C150.559 43.7103 148.838 47.9865 151.773 50.3617C153.124 51.4543 154.869 51.4328 156.459 50.9737C158.391 50.4165 160.141 49.3854 161.686 48.1129C163.396 46.7047 164.895 44.947 166.059 43.0628C166.715 42.0011 167.398 40.6393 167.516 39.3037C168.011 37.8403 167.554 36.4528 166.156 35.6729Z" fill="#6B7274"/>
<path d="M165.628 42.7081C164.725 44.2371 163.557 45.6315 162.279 46.8598C160.939 48.1485 159.431 49.2818 157.724 50.0394C156.207 50.7124 154.415 51.2709 152.808 50.57C151.505 50.0013 150.692 48.7152 150.539 47.3263C150.355 45.6583 151.101 43.9034 151.908 42.4824C153.571 39.5522 156.32 37.2855 159.513 36.208C161.072 35.6822 162.866 35.3025 164.494 35.7342C167.924 36.6438 166.971 40.4332 165.628 42.7081Z" fill="#B2BABC"/>
<path d="M164.494 35.7342C164.49 35.7329 164.485 35.7325 164.48 35.7312C164.683 37.2836 163.988 38.9613 163.164 40.2466C161.821 42.3399 159.791 44.2265 157.47 45.1748C156.521 45.5627 155.469 45.8046 154.447 45.5929C153.553 45.4078 152.597 44.9522 152.271 44.0382C151.972 43.2035 152.276 42.2801 152.641 41.5199C152.755 41.2835 152.882 41.0542 153.017 40.8288C152.609 41.3518 152.236 41.9035 151.908 42.4824C151.101 43.9034 150.355 45.6583 150.539 47.3263C150.692 48.7152 151.505 50.0013 152.808 50.57C154.415 51.2709 156.207 50.7124 157.724 50.0394C159.431 49.2818 160.939 48.1485 162.279 46.8598C163.557 45.6315 164.725 44.2371 165.628 42.7081C166.971 40.4332 167.924 36.6438 164.494 35.7342Z" fill="#B2BABC"/>
<path d="M174.941 39.5425C174.976 40.8828 175.573 42.2859 176.161 43.3875C177.207 45.3428 178.594 47.1932 180.213 48.7085C181.676 50.0777 183.358 51.2192 185.252 51.8995C186.811 52.4597 188.551 52.5936 189.966 51.5899C193.044 49.408 191.591 45.0297 189.997 42.3933C188.078 39.221 184.926 36.8073 181.337 35.8551C179.763 35.4371 178.035 35.2854 176.523 36.0064C175.08 36.6947 174.538 38.0502 174.941 39.5425Z" fill="#6B7274"/>
<path d="M178.177 36.1743C179.829 35.848 181.596 36.3423 183.119 36.9673C186.239 38.2476 188.843 40.6867 190.321 43.7176C191.038 45.1877 191.674 46.9872 191.387 48.64C191.148 50.0161 190.257 51.2475 188.92 51.7314C187.273 52.3277 185.519 51.6552 184.048 50.886C182.391 50.0204 180.956 48.7923 179.699 47.4201C178.5 46.1122 177.42 44.6454 176.614 43.0614C175.415 40.7048 174.699 36.8615 178.177 36.1743Z" fill="#B2BABC"/>
<path d="M178.177 36.1743C178.182 36.1734 178.187 36.1731 178.192 36.1724C177.893 37.7083 178.482 39.4276 179.226 40.7633C180.437 42.9386 182.345 44.952 184.603 46.0474C185.526 46.4955 186.561 46.8044 187.594 46.6589C188.497 46.5315 189.48 46.1381 189.862 45.2472C190.212 44.4334 189.966 43.4924 189.649 42.7103C189.55 42.4669 189.436 42.23 189.316 41.9963C189.691 42.5445 190.029 43.1188 190.321 43.7176C191.038 45.1877 191.674 46.9872 191.387 48.64C191.148 50.0161 190.257 51.2475 188.92 51.7314C187.273 52.3277 185.519 51.6552 184.048 50.886C182.391 50.0204 180.956 48.7923 179.699 47.4201C178.5 46.1122 177.42 44.6454 176.614 43.0614C175.415 40.7048 174.699 36.8615 178.177 36.1743Z" fill="#B2BABC"/>
<path d="M144.258 79.1546C144.241 78.6183 144.221 77.9397 143.87 77.4946C143.468 76.9839 142.748 77.2438 142.346 77.6055C140.856 78.9496 140.33 80.9553 139.94 82.8492C139.896 83.0603 139.855 83.2718 139.813 83.4833C139.779 83.6529 139.715 83.8492 139.708 84.0335C139.594 84.5231 139.495 85.0624 139.621 85.5543C139.779 86.1746 140.348 86.44 140.955 86.3523C141.66 86.2504 142.207 85.7849 142.624 85.2351C143.453 84.1415 143.823 82.6602 144.069 81.3359C144.203 80.6206 144.28 79.8829 144.258 79.1546Z" fill="#F36D21"/>
<path d="M139.844 76.7101C139.847 76.6462 139.83 76.5869 139.792 76.5327C139.764 76.5028 139.735 76.473 139.706 76.443C139.632 76.3924 139.55 76.3654 139.46 76.3623C139.412 76.3657 139.363 76.3689 139.314 76.3721C139.206 76.3924 139.107 76.4328 139.015 76.4935C138.953 76.5354 138.896 76.5848 138.839 76.6323C138.824 76.6441 138.811 76.6568 138.798 76.6706C138.791 76.6774 138.785 76.6846 138.779 76.6919C138.74 76.7372 138.701 76.7823 138.665 76.8299C138.654 76.8448 138.643 76.8604 138.634 76.8769C138.608 76.9246 138.579 76.9757 138.558 77.026C138.529 77.0898 138.519 77.1556 138.529 77.2228C138.528 77.2455 138.529 77.268 138.534 77.2901C138.534 77.2931 138.535 77.2959 138.536 77.299C138.539 77.3122 138.543 77.3251 138.548 77.3377C138.573 77.4007 138.595 77.464 138.635 77.5192C138.676 77.5792 138.731 77.6199 138.801 77.6416C138.877 77.6645 138.955 77.6685 139.034 77.6534C139.124 77.6363 139.207 77.6026 139.284 77.552C139.361 77.5019 139.426 77.4389 139.477 77.3631C139.482 77.3544 139.489 77.3466 139.495 77.3381C139.535 77.3006 139.568 77.2632 139.603 77.211C139.609 77.2019 139.612 77.1921 139.617 77.1828C139.618 77.1815 139.619 77.1805 139.62 77.1793C139.623 77.1762 139.626 77.172 139.63 77.1689C139.628 77.1709 139.625 77.1732 139.622 77.1753C139.628 77.1653 139.635 77.1561 139.641 77.1466C139.659 77.1279 139.683 77.1157 139.698 77.0946C139.751 77.0402 139.79 76.9768 139.815 76.9046C139.844 76.8415 139.853 76.7767 139.844 76.7101Z" fill="#F36D21"/>
<path d="M133.095 92.4296C132.112 92.3927 131.07 92.9805 130.781 93.9626C130.7 94.2371 130.676 94.4634 130.699 94.7475C130.702 94.7942 130.707 94.8423 130.714 94.8899C130.463 95.4441 130.325 96.1164 130.435 96.7182C130.472 96.9184 130.688 97.0616 130.885 97.0551C131.432 97.0375 131.913 96.8298 132.316 96.4588C132.668 96.1349 132.915 95.7214 133.125 95.2971C133.461 94.6147 133.645 93.8257 133.696 93.0674C133.719 92.707 133.449 92.4427 133.095 92.4296Z" fill="#F36D21"/>
<path d="M131.094 95.8629C131.097 95.8611 131.1 95.8596 131.103 95.8579C131.115 95.8464 131.126 95.8345 131.139 95.8235C131.133 95.8263 131.129 95.8274 131.121 95.8326C131.114 95.84 131.103 95.8529 131.094 95.8629Z" fill="#F36D21"/>
<path d="M143.535 88.7489C143.506 88.6229 143.44 88.5214 143.336 88.4445C143.225 88.3688 143.103 88.3285 142.968 88.3241C142.854 88.3163 142.744 88.332 142.638 88.3712C142.517 88.398 142.406 88.4474 142.303 88.52C142.165 88.6093 142.05 88.7218 141.958 88.8575C141.877 88.9754 141.828 89.1053 141.811 89.2471C141.797 89.3763 141.824 89.496 141.893 89.6062C141.899 89.6162 141.906 89.6263 141.914 89.6358C141.917 89.6398 141.921 89.6437 141.924 89.6474C141.945 89.67 141.969 89.6948 141.988 89.7144C142.001 89.7285 142.03 89.7594 142.051 89.7809C142.053 89.7826 142.055 89.7842 142.056 89.7857C142.059 89.7884 142.062 89.7908 142.066 89.7931C142.067 89.7942 142.069 89.7953 142.071 89.7962C142.071 89.7966 142.072 89.797 142.073 89.7974C142.093 89.8088 142.214 89.8693 142.235 89.8789C142.238 89.8802 142.241 89.8817 142.244 89.8825C142.245 89.8827 142.246 89.8828 142.247 89.8831C142.251 89.8841 142.431 89.9162 142.436 89.9166C142.437 89.9169 142.439 89.9173 142.441 89.9172C142.509 89.9128 142.577 89.9081 142.645 89.9036C142.716 89.8831 142.787 89.8626 142.858 89.8423C142.927 89.8059 142.997 89.7695 143.067 89.733C143.168 89.6718 143.253 89.5943 143.322 89.5001C143.373 89.45 143.413 89.3913 143.439 89.324C143.477 89.2686 143.5 89.2073 143.509 89.1405C143.525 89.0984 143.53 89.0551 143.528 89.0113C143.546 88.925 143.552 88.8379 143.535 88.7489Z" fill="#F36D21"/>
<path d="M147.867 93.0001C147.756 92.6297 147.425 92.4716 147.052 92.4963C146.62 92.5253 146.209 92.7752 145.964 93.1309C145.673 93.5547 145.433 94.0276 145.275 94.5242C145.06 94.7961 144.888 95.1149 144.762 95.4203C144.555 95.9175 144.417 96.4493 144.33 96.9799C144.257 97.4228 144.204 97.8821 144.28 98.3289C144.353 98.7652 144.968 98.8427 145.293 98.6752C145.868 98.379 146.302 97.9991 146.696 97.485C147.034 97.0444 147.3 96.5389 147.515 96.0279C147.896 95.1199 148.16 93.9716 147.867 93.0001Z" fill="#F36D21"/>
<path d="M152.463 80.1897C152.339 79.9187 151.924 79.8843 151.679 79.9261C151.323 79.9872 151.014 80.2066 150.807 80.4965C150.603 80.783 150.477 81.114 150.452 81.4598C150.258 81.789 150.104 82.1445 149.983 82.4955C149.724 83.2429 149.532 84.1297 149.668 84.9217C149.724 85.2464 150.099 85.3267 150.369 85.2881C151.473 85.1304 152.163 84.0133 152.465 83.0335C152.743 82.1303 152.865 81.0723 152.463 80.1897Z" fill="#F36D21"/>
<path d="M161.2 88.1401C161.096 87.2771 160.951 86.2908 160.459 85.5498C160.048 84.9295 159.086 85.2684 158.673 85.6797C157.197 87.1496 156.881 89.3966 156.566 91.3671C156.318 92.9127 155.988 94.6793 156.315 96.2348C156.358 96.4386 156.426 96.6127 156.507 96.7665C156.515 96.871 156.517 96.976 156.528 97.0801C156.588 97.6697 156.785 98.3687 157.401 98.5952C158.195 98.887 159.1 98.3624 159.619 97.7868C160.262 97.073 160.59 96.1444 160.816 95.2253C161.083 94.1412 161.231 93.0361 161.297 91.9217C161.372 90.6632 161.35 89.3928 161.2 88.1401Z" fill="#F36D21"/>
<path d="M168.483 86.0647C168.483 86.0484 168.481 86.0306 168.48 86.0141C168.479 85.9673 168.48 85.919 168.474 85.8779C168.433 85.5898 168.126 85.4401 167.869 85.4247C167.541 85.4051 167.174 85.5628 166.951 85.8011C166.901 85.8538 166.856 85.9109 166.814 85.9695C166.856 85.9191 166.898 85.8686 166.939 85.818C166.874 85.8925 166.814 85.9691 166.762 86.0497C166.763 86.0482 166.763 86.0469 166.764 86.0455C166.758 86.0557 166.75 86.0654 166.744 86.0759C166.678 86.1834 166.629 86.2998 166.617 86.4354C166.614 86.4643 166.62 86.4935 166.621 86.5226C166.612 86.5937 166.603 86.6646 166.594 86.736C166.584 86.828 166.584 86.9218 166.584 87.0147C166.584 87.1364 166.585 87.2608 166.602 87.3814L166.606 87.3798C166.616 87.4269 166.631 87.4731 166.659 87.5174C166.741 87.6425 166.908 87.7173 167.054 87.72C167.427 87.7271 167.769 87.4958 167.926 87.1629L167.887 87.2376C167.967 87.0831 168.066 86.9399 168.152 86.7887C168.181 86.7383 168.208 86.6852 168.238 86.6332C168.271 86.593 168.305 86.552 168.326 86.5215C168.424 86.3827 168.476 86.2274 168.483 86.0647Z" fill="#F36D21"/>
<path d="M166.786 86.0029L166.764 86.0455C166.78 86.0198 166.796 85.9941 166.814 85.9695C166.805 85.9805 166.795 85.9918 166.786 86.0029Z" fill="#F36D21"/>
<path d="M166.778 86.0125C166.781 86.0093 166.783 86.006 166.786 86.0029C166.788 85.9998 166.789 85.997 166.791 85.994C166.787 86.0005 166.782 86.0064 166.778 86.0125Z" fill="#F36D21"/>
<path d="M175.961 94.6326C175.871 93.4723 175.621 92.3126 175.279 91.2009C175.129 90.7112 174.621 90.6073 174.175 90.7361C173.684 90.8778 173.27 91.2612 173.167 91.7706C172.665 92.7041 172.678 93.8534 172.808 94.8972C172.956 96.0924 173.265 97.2733 173.638 98.4171C173.902 99.2238 174.997 98.8202 175.344 98.2995C176.058 97.2282 176.057 95.8685 175.961 94.6326Z" fill="#F36D21"/>
<path d="M174.042 83.0079C174.032 82.8607 174.008 82.7124 173.962 82.572C173.927 82.4673 173.887 82.36 173.833 82.2638C173.757 82.1289 173.593 82.049 173.453 82.0021C173.161 81.9038 172.823 82.0329 172.597 82.2147C172.486 82.3043 172.398 82.4041 172.332 82.5314C172.272 82.6483 172.206 82.8275 172.255 82.9601C172.297 83.0732 172.328 83.1836 172.398 83.2833C172.411 83.3023 172.419 83.3242 172.431 83.3438C172.428 83.3636 172.422 83.3826 172.419 83.4025C172.365 83.765 172.424 84.1264 172.492 84.4827C172.531 84.6896 172.733 84.7972 172.927 84.8088C173.165 84.8231 173.424 84.7081 173.588 84.5379C173.981 84.1301 174.079 83.5528 174.042 83.0079Z" fill="#F36D21"/>
<path d="M186.047 92.7241C185.969 91.4802 185.621 90.269 185.365 89.0534C185.109 87.833 184.795 86.6166 184.389 85.4369C184.043 84.4342 183.563 82.7902 182.404 82.4364C181.607 82.193 180.75 82.7245 180.316 83.3679C179.959 83.898 179.836 84.5596 179.826 85.1892C179.811 86.1649 179.963 87.146 180.197 88.1082C180.39 89.3946 180.697 90.6693 181.062 91.9124C181.427 93.155 181.849 94.8027 182.914 95.6324C183.691 96.2375 184.734 95.946 185.363 95.2683C186.005 94.5774 186.104 93.624 186.047 92.7241Z" fill="#F36D21"/>
<path d="M189.863 83.0105C189.85 82.8474 189.821 82.6842 189.783 82.5252C189.747 82.372 189.683 82.2283 189.642 82.0771C189.545 81.7144 189.151 81.5659 188.805 81.6394C188.492 81.7062 188.202 81.8485 187.974 82.0784C187.79 82.2651 187.628 82.5259 187.614 82.7945C187.608 82.9067 187.616 83.0341 187.637 83.1471C187.663 83.2942 187.763 83.4174 187.882 83.5016C187.886 83.5552 187.888 83.6086 187.895 83.6622C187.924 83.884 187.994 84.0854 188.085 84.2892C188.176 84.4931 188.318 84.6528 188.476 84.8085C188.525 84.8331 188.574 84.858 188.624 84.8827C188.681 84.8929 188.739 84.9033 188.797 84.9137C188.967 84.9237 189.133 84.8707 189.282 84.7932C189.412 84.725 189.521 84.6395 189.615 84.5263C189.724 84.3949 189.77 84.2736 189.809 84.1067C189.893 83.7465 189.893 83.3775 189.863 83.0105Z" fill="#F36D21"/>
<path d="M195.876 94.1214C195.321 92.6328 194.476 91.1549 193.189 90.1811C192.766 89.8611 192.071 90.1127 191.748 90.4536C190.782 91.4719 191.11 93.1005 191.426 94.3246C191.774 95.6711 192.289 97.1785 193.187 98.2669C193.368 98.4874 193.575 98.6887 193.805 98.8435C194.129 99.1739 194.501 99.4258 194.986 99.5109C195.431 99.589 195.925 99.17 196.083 98.7933C196.704 97.3094 196.423 95.5861 195.876 94.1214Z" fill="#F36D21"/>
<path d="M198.991 81.0767C198.933 80.4224 198.79 79.7733 198.598 79.1452C198.406 78.5176 198.164 77.8843 197.824 77.32C197.555 76.8729 197.177 76.4136 196.658 76.2598C196.067 76.0851 195.262 76.5651 195.214 77.2043C195.199 77.4151 195.198 77.6269 195.206 77.8387C195.145 78.6703 195.36 79.5686 195.617 80.2949C196.011 81.4046 196.559 82.5525 197.458 83.3424C197.913 83.7417 198.649 83.2017 198.834 82.7783C199.068 82.2401 199.043 81.6478 198.991 81.0767Z" fill="#F36D21"/>
<path d="M203.562 91.4443C203.416 91.0887 203.254 90.7429 203.021 90.4349C202.787 90.1242 202.503 89.8674 202.191 89.6379C201.913 89.4329 201.511 89.5095 201.231 89.6558C200.897 89.8302 200.679 90.1061 200.602 90.4744C200.523 90.8512 200.553 91.2242 200.689 91.5759C200.766 92.0016 200.917 92.4188 201.096 92.8068C201.407 93.4797 201.97 94.1647 202.695 94.3999C202.967 94.4878 203.273 94.4009 203.505 94.2495C203.711 94.1146 203.975 93.8392 203.966 93.5677C203.943 92.8401 203.839 92.122 203.562 91.4443Z" fill="#F36D21"/>
<path d="M205.078 83.9515C205.042 83.6646 204.97 83.3818 204.865 83.1122C204.82 82.9751 204.763 82.8442 204.697 82.7345C204.692 82.7243 204.686 82.7142 204.68 82.7044C204.673 82.6943 204.667 82.6812 204.661 82.6717C204.659 82.6732 204.658 82.6746 204.656 82.6759C204.634 82.6463 204.613 82.6153 204.583 82.5906C204.512 82.498 204.418 82.4366 204.301 82.4062C204.181 82.3723 204.062 82.3633 203.944 82.3709C203.85 82.2818 203.705 82.2427 203.562 82.273C203.302 82.3273 203.021 82.5362 202.99 82.8199C202.813 83.001 202.687 83.2274 202.655 83.4836C202.598 83.9344 202.743 84.4801 203.074 84.8166C203.172 85.2157 203.335 85.5961 203.595 85.9389C203.792 86.2 204.169 86.2231 204.453 86.0988C204.77 85.96 205.064 85.6867 205.107 85.3268C205.161 84.8739 205.136 84.4033 205.078 83.9515Z" fill="#F36D21"/>
<path d="M135.687 83.6376C135.66 83.521 135.599 83.4274 135.503 83.3564C135.401 83.2862 135.288 83.2491 135.163 83.2451C135.022 83.2401 134.885 83.2647 134.754 83.3186C134.609 83.3776 134.48 83.4618 134.368 83.5711C134.354 83.5866 134.339 83.6024 134.325 83.6178C134.318 83.6257 134.31 83.6338 134.303 83.6418C134.302 83.6434 134.3 83.6449 134.299 83.6463C134.218 83.7243 134.158 83.8152 134.116 83.9192C134.08 84.0101 134.071 84.1035 134.09 84.1996C134.09 84.2037 134.091 84.2076 134.092 84.2113C134.095 84.2263 134.097 84.2413 134.1 84.2564C134.101 84.2599 134.101 84.2632 134.102 84.2667C134.102 84.2687 134.103 84.2707 134.103 84.2725C134.13 84.3888 134.191 84.4827 134.287 84.5538C134.389 84.6239 134.503 84.6609 134.627 84.6651C134.769 84.6699 134.905 84.6454 135.036 84.5915C135.182 84.5326 135.31 84.4483 135.422 84.339C135.524 84.2401 135.601 84.1251 135.654 83.9932C135.699 83.8778 135.711 83.7592 135.687 83.6376Z" fill="#F36D21"/>
<path d="M211.731 100.894C211.457 100.199 211.123 99.5258 210.7 98.9097C210.559 98.7046 210.341 98.6121 210.107 98.5906C209.778 98.1813 209.047 98.3391 208.707 98.722C208.542 98.908 208.396 99.0637 208.298 99.3004C208.241 99.4367 208.21 99.5789 208.178 99.723C208.137 99.9052 208.124 100.085 208.13 100.272C208.15 100.838 208.299 101.313 208.535 101.828C208.898 102.622 209.45 103.379 210.119 103.944C210.387 104.171 210.833 104.112 211.129 103.995C211.462 103.862 211.864 103.555 211.962 103.188C212.17 102.406 212.022 101.636 211.731 100.894Z" fill="#F36D21"/>
</g>
</g>
</svg>
