<svg width="30" height="30" viewBox="0 0 30 30" fill="none" xmlns="http://www.w3.org/2000/svg">
<path d="M30 15C30 23.2843 23.2843 30 15 30C6.71573 30 0 23.2843 0 15C0 6.71573 6.71573 0 15 0C23.2843 0 30 6.71573 30 15Z" fill="white" fill-opacity="0.05"/>
<path d="M22.5 4.16667C22.5 6.46785 19.3287 8.33333 15.4167 8.33333C11.5046 8.33333 8.33333 6.46785 8.33333 4.16667C8.33333 1.86548 11.5046 0 15.4167 0C19.3287 0 22.5 1.86548 22.5 4.16667Z" fill="white" fill-opacity="0.05"/>
<path d="M18.3333 1.96078C18.3333 3.0437 16.8409 3.92157 15 3.92157C13.1591 3.92157 11.6667 3.0437 11.6667 1.96078C11.6667 0.877873 13.1591 0 15 0C16.8409 0 18.3333 0.877873 18.3333 1.96078Z" fill="white" fill-opacity="0.05"/>
</svg>
