<svg width="60" height="70" viewBox="0 0 60 70" fill="none" xmlns="http://www.w3.org/2000/svg">
<path d="M28.817 0C6.04933 16.1538 -22.6636 70 28.817 70C85.8145 70 51.5847 30.5128 28.817 0Z" fill="#06B943"/>
<path d="M27.3982 10.3379L29.8304 65.4764H27.3982V10.3379Z" fill="#280505"/>
<path d="M39.1777 38.1504L28.926 51.876L27.3982 49.598L39.1777 38.1504Z" fill="#280505"/>
<path d="M16.4536 45.1719L29.185 55.4583L27.5264 57.5996L16.4536 45.1719Z" fill="#280505"/>
<path d="M21.3179 33.2305L29.023 41.4565L27.4858 42.8802L21.3179 33.2305Z" fill="#280505"/>
<path d="M34.1602 26.4414L28.4894 36.54L27.3982 35.3383L34.1602 26.4414Z" fill="#280505"/>
<path d="M23.75 22.1055L28.0837 28.1223L27.6937 28.4724L23.75 22.1055Z" fill="#280505"/>
</svg>
