<svg width="151" height="121" viewBox="0 0 151 121" fill="none" xmlns="http://www.w3.org/2000/svg">
<path d="M62.7526 120.01C63.1686 120.008 63.5848 120.002 64.0013 119.994C64.2289 119.989 64.4564 119.986 64.6842 119.979C65.1757 119.965 65.6676 119.945 66.1596 119.922C66.3089 119.915 66.458 119.911 66.6073 119.903C67.2459 119.87 67.8847 119.83 68.5238 119.782C68.6953 119.769 68.8669 119.753 69.0385 119.739C69.509 119.701 69.9795 119.661 70.4502 119.615C70.6861 119.592 70.922 119.566 71.1579 119.541C71.5679 119.498 71.9778 119.453 72.3877 119.405C72.6373 119.375 72.8868 119.344 73.1363 119.312C73.5408 119.26 73.9453 119.206 74.3496 119.148C74.5923 119.114 74.8348 119.08 75.0774 119.044C75.5128 118.979 75.9479 118.91 76.3829 118.839C76.5895 118.805 76.7961 118.773 77.0025 118.738C77.6414 118.629 78.2801 118.515 78.9179 118.394C84.2544 117.372 89.5454 115.903 94.7133 114.068C100.574 111.991 106.273 109.444 111.694 106.553C115.107 104.733 118.41 102.773 121.569 100.711C122.571 100.056 123.588 99.3634 124.612 98.6374C135.246 91.0995 146.391 79.8876 149.539 66.4389C149.913 64.857 150.173 63.2416 150.307 61.5957C151.9 42.2025 132.063 26.1243 116.113 16.6149C113.347 14.965 110.698 13.516 108.3 12.2784C107.962 12.1043 107.624 11.9305 107.282 11.7636C98.3438 7.26467 88.4057 3.71544 78.2003 1.74355C72.4662 0.631471 66.6474 0.0182957 60.8782 0.0146591C52.8327 0.0105678 44.8826 1.18746 37.3713 3.85516C33.1677 5.34223 29.1011 7.29866 25.2382 9.77355C25.0448 9.89827 24.8549 10.0194 24.6649 10.1481C6.51258 22.1359 -1.46251 44.9308 0.760404 66.4313C2.3579 81.8663 9.21096 96.6393 21.3261 106.27C25.9732 109.963 30.9054 112.831 36.0311 114.969C40.8966 117.001 45.9379 118.371 51.0738 119.166C51.5993 119.247 52.1262 119.321 52.6537 119.39C52.8207 119.412 52.9882 119.431 53.1552 119.452C53.5201 119.497 53.8852 119.541 54.2509 119.58C54.443 119.601 54.6354 119.621 54.8276 119.64C55.1793 119.675 55.5312 119.708 55.8836 119.738C56.0702 119.754 56.2567 119.77 56.4435 119.785C56.8412 119.816 57.2393 119.843 57.6378 119.867C57.7734 119.875 57.9088 119.886 58.0444 119.893C58.5761 119.923 59.1083 119.948 59.6412 119.966C59.763 119.971 59.8853 119.972 60.0073 119.976C60.4204 119.989 60.8338 119.999 61.2476 120.005C61.435 120.007 61.6225 120.008 61.81 120.009C62.014 120.011 62.2179 120.015 62.4221 120.015C62.5322 120.015 62.6425 120.011 62.7526 120.01Z" fill="#F089AC"/>
<path d="M62.7526 120.01C63.1686 120.008 63.5848 120.002 64.0013 119.994C64.2289 119.989 64.4564 119.986 64.6842 119.979C65.1757 119.965 65.6676 119.945 66.1596 119.922C66.3089 119.915 66.458 119.911 66.6073 119.903C67.2459 119.87 67.8847 119.83 68.5238 119.782C68.6953 119.769 68.8669 119.753 69.0385 119.739C69.509 119.701 69.9795 119.661 70.4502 119.615C70.6861 119.592 70.922 119.566 71.1579 119.541C71.5679 119.498 71.9778 119.453 72.3877 119.405C72.6373 119.375 72.8868 119.344 73.1363 119.312C73.5408 119.26 73.9453 119.206 74.3496 119.148C74.5923 119.114 74.8348 119.08 75.0774 119.044C75.5128 118.979 75.9479 118.91 76.3829 118.839C76.5895 118.805 76.7961 118.773 77.0025 118.738C77.6414 118.629 78.2801 118.515 78.9179 118.394C84.2544 117.372 89.5454 115.903 94.7133 114.068C100.574 111.991 106.273 109.444 111.694 106.553C115.107 104.733 118.41 102.773 121.569 100.711C122.571 100.056 123.588 99.3634 124.612 98.6374C135.246 91.0995 146.391 79.8876 149.539 66.4389C148.801 67.2375 148.052 67.9753 147.288 68.6335C138.483 76.2244 128.608 82.3429 118.128 86.8346C114.139 88.5494 110.062 90.025 105.922 91.2583C98.7133 93.4074 91.3185 94.8189 83.8676 95.4511C77.4087 96.0075 70.9115 95.9731 64.4597 95.3263C63.7982 95.2619 63.1404 95.1899 62.4789 95.1105C55.324 94.2551 48.2563 92.6433 41.3855 90.339C35.4228 88.3412 29.6078 85.8243 24.0144 82.8237C15.6978 78.3701 7.86684 72.8603 0.760404 66.4313C2.3579 81.8663 9.21096 96.6393 21.3261 106.27C25.9732 109.963 30.9054 112.831 36.0311 114.969C40.8966 117.001 45.9379 118.371 51.0738 119.166C51.5993 119.247 52.1262 119.321 52.6537 119.39C52.8207 119.412 52.9882 119.431 53.1552 119.452C53.5201 119.497 53.8852 119.541 54.2509 119.58C54.443 119.601 54.6354 119.621 54.8276 119.64C55.1793 119.675 55.5312 119.708 55.8836 119.738C56.0702 119.754 56.2567 119.77 56.4435 119.785C56.8412 119.816 57.2393 119.843 57.6378 119.867C57.7734 119.875 57.9088 119.886 58.0444 119.893C58.5761 119.923 59.1083 119.948 59.6412 119.966C59.763 119.971 59.8853 119.972 60.0073 119.976C60.4204 119.989 60.8338 119.999 61.2476 120.005C61.435 120.007 61.6225 120.008 61.81 120.009C62.014 120.011 62.2179 120.015 62.4221 120.015C62.5322 120.015 62.6425 120.011 62.7526 120.01Z" fill="#EC6894"/>
<path d="M100.542 30.1729C100.859 35.1375 104.739 38.9408 106.277 43.6365C108.346 49.9575 105.955 56.4574 103.564 62.9812C101.256 69.2746 98.9496 75.5903 100.648 81.7906C101.622 85.3512 103.8 88.2805 105.922 91.2583C107.385 93.3055 108.82 95.3753 109.819 97.6915C111.043 100.514 111.557 103.492 111.694 106.553C115.107 104.733 118.41 102.773 121.569 100.711C122.571 100.056 123.588 99.3634 124.612 98.6374C124.207 97.4338 123.732 96.2497 123.177 95.0956C121.787 92.2048 119.912 89.529 118.128 86.8346C115.56 82.9561 113.175 79.0432 112.661 74.3933C112.056 68.8997 114.218 63.5726 116.379 58.3042C118.881 52.2067 121.382 46.1879 119.596 40.0796C118.347 35.8115 115.12 32.3829 114.238 28.0087C113.453 24.1189 114.618 20.3537 116.113 16.6149C113.347 14.965 110.698 13.516 108.3 12.2784C107.962 12.1043 107.624 11.9305 107.282 11.7636C105.647 18.1777 100.11 23.3806 100.542 30.1729Z" fill="#FED47E"/>
<path d="M61.4024 22.1964C60.0089 25.4091 57.9586 28.3642 57.3286 31.8458C55.4886 42.0206 66.0917 49.9332 67.868 60.1233C68.7935 65.4274 67.2328 70.6909 65.6719 75.9553C64.1184 81.1954 62.565 86.4367 63.4637 91.7201C63.6783 92.9726 64.0162 94.1722 64.4597 95.3263C67.6679 103.753 76.1635 109.936 78.9179 118.394C84.2544 117.372 89.5454 115.903 94.7133 114.068C92.3071 107.904 88.346 102.501 84.8068 96.9496C84.4901 96.4539 84.1775 95.954 83.8676 95.4511C80.1813 89.4456 77.0392 82.7744 77.1624 75.6269C77.328 65.8717 83.5685 56.4871 81.4014 47.0158C80.107 41.3436 75.9768 36.852 74.3872 31.2705C72.793 25.6926 73.9015 19.6613 75.3612 14.0422C76.4165 9.97782 77.6623 5.89505 78.2003 1.74355C72.4662 0.631471 66.6474 0.0182957 60.8782 0.0146591C64.1605 6.79876 64.4136 15.2488 61.4024 22.1964Z" fill="#FED47E"/>
<path d="M51.2175 116.357C51.2175 113.399 50.7382 110.444 49.7582 107.678C47.6017 101.596 43.222 96.4048 41.3855 90.339C41.0301 89.173 40.7696 87.9739 40.6394 86.7327C40.069 81.3776 41.9714 76.1015 43.8739 70.8886C46.1604 64.6231 48.4469 58.4491 46.4405 52.3396C44.7274 47.1295 40.2068 43.4964 38.1842 38.4148C35.2328 30.9979 38.1943 22.5674 38.5324 14.507C38.6838 10.9202 38.2788 7.31003 37.3713 3.85516C33.1677 5.34223 29.1011 7.29866 25.2382 9.77355C25.0448 9.89827 24.8549 10.0194 24.6649 10.1481C26.283 16.384 24.3835 22.8436 22.9551 29.1516C21.7657 34.4037 21.0063 40.1177 23.0217 45.071C24.7668 49.3581 28.4392 52.6502 29.4877 57.1908C30.5446 61.776 28.711 66.1838 26.8774 70.6484C25.3548 74.3556 23.8323 78.1021 23.9648 82.0215C23.9754 82.2904 23.9895 82.5588 24.0144 82.8237C24.8974 92.696 35.7041 99.3487 36.4816 109.369C36.5125 109.765 36.5269 110.159 36.5269 110.553C36.5269 112.037 36.323 113.506 36.0311 114.969C40.8966 117.001 45.9379 118.371 51.0738 119.166C51.1696 118.233 51.2176 117.295 51.2175 116.357Z" fill="#FED47E"/>
<path d="M118.128 86.8346C114.139 88.5494 110.062 90.025 105.922 91.2583C107.385 93.3055 108.82 95.3753 109.819 97.6915C111.043 100.514 111.557 103.492 111.694 106.553C115.107 104.733 118.41 102.773 121.569 100.711C122.571 100.056 123.588 99.3634 124.612 98.6374C124.207 97.4338 123.732 96.2497 123.177 95.0956C121.787 92.2048 119.912 89.529 118.128 86.8346Z" fill="#F4A26B"/>
<path d="M29.1949 101.488C29.1949 101.294 29.1768 101.1 29.1399 100.913C28.9264 99.8298 28.254 98.9271 27.6023 98.0697C25.5403 95.3563 14.985 79.2291 12.4978 86.9051C12.2144 87.7802 12.0836 88.6403 12.0836 89.479C12.0836 96.3992 20.964 101.928 26.0734 103.559C26.6935 103.757 27.3677 103.927 27.9751 103.689C28.7757 103.375 29.1949 102.422 29.1949 101.488Z" fill="#F4A26B"/>
<path d="M83.8676 95.4511C77.4087 96.0075 70.9115 95.9731 64.4597 95.3263C67.6679 103.753 76.1635 109.936 78.9179 118.394C84.2544 117.372 89.5454 115.903 94.7133 114.068C92.3071 107.904 88.346 102.501 84.8068 96.9496C84.4901 96.4539 84.1775 95.954 83.8676 95.4511Z" fill="#F4A26B"/>
<path d="M68.0751 115.723C69.0547 115.579 70.0562 115.328 70.848 114.691C71.5099 114.159 71.9918 113.299 71.9918 112.429C71.9918 112.258 71.9733 112.087 71.9339 111.917C71.732 111.052 71.0566 110.422 70.403 109.872C67.251 107.225 56.8418 100.151 54.2745 106.945C54.0085 107.648 53.8862 108.305 53.8862 108.914C53.8862 114.572 64.4053 116.261 68.0751 115.723Z" fill="#F4A26B"/>
<path d="M51.2175 116.357C51.2175 113.399 50.7382 110.444 49.7582 107.678C47.6017 101.596 43.222 96.4048 41.3855 90.339C35.4228 88.3412 29.6078 85.8243 24.0144 82.8237C24.8974 92.696 35.7041 99.3487 36.4816 109.369C36.5125 109.765 36.5269 110.159 36.5269 110.553C36.5269 112.037 36.323 113.506 36.0311 114.969C40.8966 117.001 45.9379 118.371 51.0738 119.166C51.1696 118.233 51.2176 117.295 51.2175 116.357Z" fill="#F4A26B"/>
<path d="M119.869 72.0392C123.547 77.0197 130.993 75.7654 135.018 72.0702C136.558 70.6569 137.836 68.8325 138.33 66.7216C138.825 64.6107 138.438 62.1999 137.053 60.6134C135.997 59.4043 134.489 58.7732 132.99 58.3885C130.246 57.6851 127.28 57.7039 124.682 58.8841C119.967 61.0257 116.212 67.0852 119.869 72.0392Z" fill="#FED47E"/>
<path d="M132.78 43.5036C130.73 48.3997 136.32 53.903 139.779 55.7581C141.214 56.5281 142.981 57.0447 144.378 56.197C145.563 55.4784 146.145 53.9147 146.079 52.454C146.013 50.9932 145.398 49.6239 144.664 48.3931C142.858 45.3674 135.379 37.2949 132.78 43.5036Z" fill="#FED47E"/>
<path d="M81.378 35.6642C82.5643 40.2356 87.2308 44.1296 91.1809 45.6792C92.4495 46.1769 93.8158 46.5137 95.1482 46.2771C96.4807 46.0406 97.7712 45.1347 98.2249 43.7665C98.6145 42.593 98.3481 41.2834 97.9186 40.1259C96.4271 36.1062 93.1355 33.1831 89.7002 30.9293C85.809 28.3768 79.8298 29.6993 81.378 35.6642Z" fill="#FED47E"/>
<path d="M81.2392 70.8663C81.1552 75.9505 86.8129 82.2788 91.6363 81.4497C94.678 80.9267 96.7158 77.3293 96.3997 74.0335C96.0838 70.7379 93.8817 67.9169 91.2271 66.2364C87.3033 63.7531 81.3331 65.1656 81.2392 70.8663Z" fill="#FED47E"/>
<path d="M24.1583 65.8778C25.3005 64.4123 25.4866 62.2778 24.9888 60.442C24.4905 58.6058 23.3949 57.0244 22.188 55.6199C20.9202 54.1441 19.5053 52.8141 17.9764 51.6594C15.6883 49.9318 12.9809 48.5644 10.1957 48.8287C4.7518 49.3458 2.92315 55.0063 5.72439 59.3975C8.38932 63.5742 12.6499 66.6188 17.2732 67.5932C19.7013 68.1048 22.5689 67.9174 24.1583 65.8778Z" fill="#FED47E"/>
<path d="M17.4963 35.5026C18.5472 33.7693 18.7826 31.0639 17.1706 29.9348C13.5454 27.3958 7.29806 32.2065 8.13197 36.7425C9.08809 41.9459 15.8008 38.2987 17.4963 35.5026Z" fill="#FED47E"/>
<path d="M44.7284 81.4715C47.2061 88.7424 57.4672 86.9707 60.7918 81.6876C61.9064 79.916 62.4965 77.5583 61.6417 75.6268C60.8277 73.7865 58.9368 72.7979 57.1049 72.2775C52.2065 70.8863 42.1681 73.9574 44.7284 81.4715Z" fill="#FED47E"/>
<path d="M42.8508 18.8814C43.5701 27.1172 55.8687 21.1394 58.6296 17.6871C58.9965 17.2285 59.3436 16.7317 59.5083 16.1533C60.0676 14.1852 58.334 12.3121 56.5836 11.4812C51.8446 9.23118 42.208 11.5246 42.8508 18.8814Z" fill="#FED47E"/>
</svg>
