<svg width="500" height="500" viewBox="0 0 500 500" fill="none" xmlns="http://www.w3.org/2000/svg">
<g id="wall">
<rect id="block_1" class="block" x="0" y="50" width="49" height="49" fill="#D9D9D9" stroke="white"/>
<rect id="block_2" class="block" x="50" y="50" width="49" height="49" fill="#D9D9D9" stroke="white"/>
<rect id="block_3" class="block" x="100" y="50" width="49" height="49" fill="#D9D9D9" stroke="white"/>
<rect id="block_4" class="block" x="150" y="50" width="49" height="49" fill="#D9D9D9" stroke="white"/>
<rect id="block_5" class="block" x="200" y="50" width="49" height="49" fill="#D9D9D9" stroke="white"/>
<rect id="block_6" class="block" x="250" y="50" width="49" height="49" fill="#D9D9D9" stroke="white"/>
<rect id="block_7" class="block" x="300" y="50" width="49" height="49" fill="#D9D9D9" stroke="white"/>
<rect id="block_8" class="block" x="350" y="50" width="49" height="49" fill="#D9D9D9" stroke="white"/>
<rect id="block_9" class="block" x="400" y="50" width="49" height="49" fill="#D9D9D9" stroke="white"/>
<rect id="block_10" class="block" x="450" y="50" width="49" height="49" fill="#D9D9D9" stroke="white"/>
<rect id="block_11" class="block" x="25" y="100" width="49" height="49" fill="#D9D9D9" stroke="white"/>
<rect id="block_12" class="block" x="75" y="100" width="49" height="49" fill="#D9D9D9" stroke="white"/>
<rect id="block_13" class="block" x="125" y="100" width="49" height="49" fill="#D9D9D9" stroke="white"/>
<rect id="block_14" class="block" x="175" y="100" width="49" height="49" fill="#D9D9D9" stroke="white"/>
<rect id="block_15" class="block" x="225" y="100" width="49" height="49" fill="#D9D9D9" stroke="white"/>
<rect id="block_16" class="block" x="275" y="100" width="49" height="49" fill="#D9D9D9" stroke="white"/>
<rect id="block_17" class="block" x="325" y="100" width="49" height="49" fill="#D9D9D9" stroke="white"/>
<rect id="block_18" class="block" x="375" y="100" width="49" height="49" fill="#D9D9D9" stroke="white"/>
<rect id="block_19" class="block" x="425" y="100" width="49" height="49" fill="#D9D9D9" stroke="white"/>
<rect id="block_20" class="block" x="475" y="100" width="49" height="49" fill="#D9D9D9" stroke="white"/>
<rect id="block_21" class="block" x="-24" y="100" width="49" height="49" fill="#D9D9D9" stroke="white"/>
<rect id="block_22" class="block" x="0" y="150" width="49" height="49" fill="#D9D9D9" stroke="white"/>
<rect id="block_23" class="block" x="50" y="150" width="49" height="49" fill="#D9D9D9" stroke="white"/>
<rect id="block_24" class="block" x="100" y="150" width="49" height="49" fill="#D9D9D9" stroke="white"/>
<rect id="block_25" class="block" x="150" y="150" width="49" height="49" fill="#D9D9D9" stroke="white"/>
<rect id="block_26" class="block" x="200" y="150" width="49" height="49" fill="#D9D9D9" stroke="white"/>
<rect id="block_27" class="block" x="250" y="150" width="49" height="49" fill="#D9D9D9" stroke="white"/>
<rect id="block_28" class="block" x="300" y="150" width="49" height="49" fill="#D9D9D9" stroke="white"/>
<rect id="block_29" class="block" x="350" y="150" width="49" height="49" fill="#D9D9D9" stroke="white"/>
<rect id="block_30" class="block" x="400" y="150" width="49" height="49" fill="#D9D9D9" stroke="white"/>
<rect id="block_31" class="block" x="450" y="150" width="49" height="49" fill="#D9D9D9" stroke="white"/>
<rect id="block_32" class="block" x="25" y="200" width="49" height="49" fill="#D9D9D9" stroke="white"/>
<rect id="block_33" class="block" x="75" y="200" width="49" height="49" fill="#D9D9D9" stroke="white"/>
<rect id="block_34" class="block" x="125" y="200" width="49" height="49" fill="#D9D9D9" stroke="white"/>
<rect id="block_35" class="block" x="175" y="200" width="49" height="49" fill="#D9D9D9" stroke="white"/>
<rect id="block_36" class="block" x="225" y="200" width="49" height="49" fill="#D9D9D9" stroke="white"/>
<rect id="block_37" class="block" x="275" y="200" width="49" height="49" fill="#D9D9D9" stroke="white"/>
<rect id="block_38" class="block" x="325" y="200" width="49" height="49" fill="#D9D9D9" stroke="white"/>
<rect id="block_39" class="block" x="375" y="200" width="49" height="49" fill="#D9D9D9" stroke="white"/>
<rect id="block_40" class="block" x="425" y="200" width="49" height="49" fill="#D9D9D9" stroke="white"/>
<rect id="block_41" class="block" x="475" y="200" width="49" height="49" fill="#D9D9D9" stroke="white"/>
<rect id="block_42" class="block" x="-24" y="200" width="49" height="49" fill="#D9D9D9" stroke="white"/>
</svg>
