<svg width="500" height="250" viewBox="0 0 500 250" fill="none" xmlns="http://www.w3.org/2000/svg">
<rect width="500" height="250" fill="white"/>
<rect x="93" y="108" width="300" height="100" fill="url(#paint0_linear_624_359)"/>
<text fill="black" ><tspan x="32" y="48.2273">offset=&#x201c;0%&#x201d;</tspan></text>
<text fill="black" ><tspan x="32" y="70.2273">stop-color=&#x201d;red&#x201d;</tspan></text>
<text fill="black" ><tspan x="284" y="74.2273">stop-color=&#x201d;blue&#x201d;</tspan></text>
<text fill="black" ><tspan x="284" y="54.2273">offset=&#x201d;100%&#x201d;</tspan></text>
<path d="M92.2929 102.707C92.6834 103.098 93.3166 103.098 93.7071 102.707L100.071 96.3431C100.462 95.9526 100.462 95.3195 100.071 94.9289C99.6805 94.5384 99.0474 94.5384 98.6569 94.9289L93 100.586L87.3431 94.9289C86.9526 94.5384 86.3195 94.5384 85.9289 94.9289C85.5384 95.3195 85.5384 95.9526 85.9289 96.3431L92.2929 102.707ZM92 80L92 102L94 102L94 80L92 80Z" fill="black"/>
<path d="M392.293 102.707C392.683 103.098 393.317 103.098 393.707 102.707L400.071 96.3431C400.462 95.9526 400.462 95.3195 400.071 94.9289C399.681 94.5384 399.047 94.5384 398.657 94.9289L393 100.586L387.343 94.9289C386.953 94.5384 386.319 94.5384 385.929 94.9289C385.538 95.3195 385.538 95.9526 385.929 96.3431L392.293 102.707ZM392 80L392 102L394 102L394 80L392 80Z" fill="black"/>
<defs>
<linearGradient id="paint0_linear_624_359" x1="93" y1="158" x2="393" y2="158" gradientUnits="userSpaceOnUse">
<stop stop-color="#FF0000"/>
<stop offset="1" stop-color="#0000FF"/>
</linearGradient>
</defs>
</svg>
