<svg width="100" height="140" viewBox="0 0 100 140" fill="none" xmlns="http://www.w3.org/2000/svg">
<g clip-path="url(#clip0_310_3)">
<rect width="100" height="140" fill="white"/>
<path d="M51.0619 87.7885H16.0665V68.6538H51.0619C57.156 68.6538 62.0806 67.6282 65.8356 65.5769C69.5906 63.5256 72.33 60.7051 74.0536 57.1154C75.8387 53.4615 76.7313 49.2949 76.7313 44.6154C76.7313 40.1923 75.8387 36.0577 74.0536 32.2115C72.33 28.3013 69.5906 25.1603 65.8356 22.7885C62.0806 20.4167 57.156 19.2308 51.0619 19.2308H23.1764V140H0V0H51.0619C61.4651 0 70.2986 1.92308 77.5623 5.76923C84.8877 9.55128 90.4586 14.8077 94.2752 21.5385C98.0917 28.2051 100 35.8333 100 44.4231C100 53.4615 98.0917 61.2179 94.2752 67.6923C90.4586 74.1667 84.8877 79.1346 77.5623 82.5962C70.2986 86.0577 61.4651 87.7885 51.0619 87.7885Z" fill="#EBEBEB"/>
</g>
<defs>
<clipPath id="clip0_310_3">
<rect width="100" height="140" fill="white"/>
</clipPath>
</defs>
</svg>
