<svg width="1500" height="300" viewBox="0 0 1500 300">
<rect width="1500" height="300" fill="#E5E5E5"/>
<g id="REDHAT_Animation_assets">
<rect width="1500" height="300" fill="white"/>
<g id="REDefined">
<g id="RED">
<path id="12 - R" d="M772.91 185V115.182H801.751C806.978 115.182 811.489 116.125 815.285 118.011C819.103 119.875 822.046 122.557 824.114 126.057C826.182 129.534 827.216 133.659 827.216 138.432C827.216 143.273 826.16 147.386 824.046 150.773C821.932 154.136 818.932 156.705 815.046 158.477C811.16 160.227 806.557 161.102 801.239 161.102H783.001V147.807H798.103C800.648 147.807 802.773 147.477 804.478 146.818C806.205 146.136 807.512 145.114 808.398 143.75C809.285 142.364 809.728 140.591 809.728 138.432C809.728 136.273 809.285 134.489 808.398 133.08C807.512 131.648 806.205 130.58 804.478 129.875C802.751 129.148 800.626 128.784 798.103 128.784H789.785V185H772.91ZM812.216 153.091L829.603 185H811.194L794.148 153.091H812.216Z" fill="#DC3C36"/>
<path id="13 - E" d="M832.511 185V115.182H881.193V128.886H849.386V143.205H878.704V156.943H849.386V171.295H881.193V185H832.511Z" fill="#DC3C36"/>
<path id="14 - D" d="M912.687 185H886.88V115.182H912.653C919.767 115.182 925.892 116.58 931.028 119.375C936.187 122.148 940.165 126.148 942.96 131.375C945.755 136.58 947.153 142.807 947.153 150.057C947.153 157.33 945.755 163.58 942.96 168.807C940.187 174.034 936.221 178.045 931.062 180.841C925.903 183.614 919.778 185 912.687 185ZM903.755 170.614H912.04C915.949 170.614 919.255 169.955 921.96 168.636C924.687 167.295 926.744 165.125 928.13 162.125C929.54 159.102 930.244 155.08 930.244 150.057C930.244 145.034 929.54 141.034 928.13 138.057C926.721 135.057 924.642 132.898 921.892 131.58C919.165 130.239 915.801 129.568 911.801 129.568H903.755V170.614Z" fill="#DC3C36"/>
</g>
<path id="15 - e" d="M976.539 185.989C971.062 185.989 966.334 184.909 962.357 182.75C958.403 180.568 955.357 177.466 953.221 173.443C951.107 169.398 950.05 164.591 950.05 159.023C950.05 153.614 951.119 148.886 953.255 144.841C955.391 140.773 958.403 137.614 962.289 135.364C966.175 133.091 970.755 131.955 976.028 131.955C979.755 131.955 983.164 132.534 986.255 133.693C989.346 134.852 992.016 136.568 994.266 138.841C996.516 141.114 998.266 143.92 999.516 147.261C1000.77 150.58 1001.39 154.386 1001.39 158.682V162.841H955.88V153.159H985.88C985.857 151.386 985.437 149.807 984.619 148.42C983.8 147.034 982.675 145.955 981.244 145.182C979.834 144.386 978.209 143.989 976.369 143.989C974.505 143.989 972.834 144.409 971.357 145.25C969.88 146.068 968.709 147.193 967.846 148.625C966.982 150.034 966.528 151.636 966.482 153.432V163.284C966.482 165.42 966.903 167.295 967.744 168.909C968.584 170.5 969.778 171.739 971.323 172.625C972.869 173.511 974.709 173.955 976.846 173.955C978.323 173.955 979.664 173.75 980.869 173.341C982.073 172.932 983.107 172.33 983.971 171.534C984.834 170.739 985.482 169.761 985.914 168.602L1001.22 169.045C1000.58 172.477 999.187 175.466 997.028 178.011C994.891 180.534 992.084 182.5 988.607 183.909C985.13 185.295 981.107 185.989 976.539 185.989Z" fill="#DC3C36"/>
<path id="16 - f" d="M1040.36 132.636V144.909H1006.68V132.636H1040.36ZM1013.7 185V129.977C1013.7 125.932 1014.47 122.58 1015.99 119.92C1017.51 117.239 1019.62 115.239 1022.33 113.92C1025.03 112.58 1028.16 111.909 1031.7 111.909C1034.02 111.909 1036.2 112.091 1038.25 112.455C1040.32 112.795 1041.85 113.102 1042.85 113.375L1040.19 125.58C1039.58 125.375 1038.83 125.205 1037.94 125.068C1037.08 124.932 1036.26 124.864 1035.49 124.864C1033.53 124.864 1032.19 125.295 1031.47 126.159C1030.74 127.023 1030.37 128.205 1030.37 129.705V185H1013.7Z" fill="#DC3C36"/>
<path id="17 - i" d="M1054.79 185V132.636H1071.46V185H1054.79ZM1063.14 126.534C1060.8 126.534 1058.79 125.761 1057.11 124.216C1055.42 122.648 1054.58 120.761 1054.58 118.557C1054.58 116.375 1055.42 114.511 1057.11 112.966C1058.79 111.398 1060.8 110.614 1063.14 110.614C1065.5 110.614 1067.51 111.398 1069.17 112.966C1070.86 114.511 1071.7 116.375 1071.7 118.557C1071.7 120.761 1070.86 122.648 1069.17 124.216C1067.51 125.761 1065.5 126.534 1063.14 126.534Z" fill="#DC3C36"/>
<path id="18 - n" d="M1100.95 155.136V185H1084.28V132.636H1100.13V142.25H1100.71C1101.87 139.045 1103.85 136.534 1106.64 134.716C1109.44 132.875 1112.77 131.955 1116.63 131.955C1120.31 131.955 1123.51 132.784 1126.21 134.443C1128.94 136.08 1131.05 138.375 1132.55 141.33C1134.08 144.261 1134.83 147.693 1134.8 151.625V185H1118.13V154.898C1118.16 151.989 1117.42 149.716 1115.92 148.08C1114.44 146.443 1112.38 145.625 1109.75 145.625C1108 145.625 1106.45 146.011 1105.11 146.784C1103.79 147.534 1102.77 148.614 1102.04 150.023C1101.34 151.432 1100.97 153.136 1100.95 155.136Z" fill="#DC3C36"/>
<path id="19 - e" d="M1166.11 185.989C1160.63 185.989 1155.9 184.909 1151.93 182.75C1147.97 180.568 1144.93 177.466 1142.79 173.443C1140.68 169.398 1139.62 164.591 1139.62 159.023C1139.62 153.614 1140.69 148.886 1142.82 144.841C1144.96 140.773 1147.97 137.614 1151.86 135.364C1155.74 133.091 1160.32 131.955 1165.6 131.955C1169.32 131.955 1172.73 132.534 1175.82 133.693C1178.91 134.852 1181.58 136.568 1183.83 138.841C1186.08 141.114 1187.83 143.92 1189.08 147.261C1190.33 150.58 1190.96 154.386 1190.96 158.682V162.841H1145.45V153.159H1175.45C1175.43 151.386 1175.01 149.807 1174.19 148.42C1173.37 147.034 1172.24 145.955 1170.81 145.182C1169.4 144.386 1167.78 143.989 1165.94 143.989C1164.07 143.989 1162.4 144.409 1160.93 145.25C1159.45 146.068 1158.28 147.193 1157.41 148.625C1156.55 150.034 1156.1 151.636 1156.05 153.432V163.284C1156.05 165.42 1156.47 167.295 1157.31 168.909C1158.15 170.5 1159.35 171.739 1160.89 172.625C1162.44 173.511 1164.28 173.955 1166.41 173.955C1167.89 173.955 1169.23 173.75 1170.44 173.341C1171.64 172.932 1172.68 172.33 1173.54 171.534C1174.4 170.739 1175.05 169.761 1175.48 168.602L1190.79 169.045C1190.15 172.477 1188.76 175.466 1186.6 178.011C1184.46 180.534 1181.65 182.5 1178.18 183.909C1174.7 185.295 1170.68 185.989 1166.11 185.989Z" fill="#DC3C36"/>
<path id="20 - d" d="M1215.14 185.75C1211.28 185.75 1207.77 184.75 1204.61 182.75C1201.45 180.75 1198.93 177.75 1197.04 173.75C1195.15 169.75 1194.21 164.784 1194.21 158.852C1194.21 152.693 1195.19 147.625 1197.14 143.648C1199.1 139.67 1201.65 136.727 1204.81 134.818C1207.99 132.909 1211.41 131.955 1215.07 131.955C1217.82 131.955 1220.18 132.432 1222.13 133.386C1224.09 134.318 1225.7 135.523 1226.97 137C1228.24 138.477 1229.21 140.011 1229.87 141.602H1230.21V115.182H1246.88V185H1230.38V176.511H1229.87C1229.16 178.125 1228.16 179.636 1226.87 181.045C1225.57 182.455 1223.95 183.591 1221.99 184.455C1220.06 185.318 1217.78 185.75 1215.14 185.75ZM1220.94 172.761C1222.96 172.761 1224.69 172.193 1226.12 171.057C1227.55 169.898 1228.65 168.273 1229.43 166.182C1230.2 164.091 1230.59 161.636 1230.59 158.818C1230.59 155.955 1230.2 153.489 1229.43 151.42C1228.68 149.352 1227.57 147.761 1226.12 146.648C1224.69 145.534 1222.96 144.977 1220.94 144.977C1218.87 144.977 1217.12 145.545 1215.69 146.682C1214.26 147.818 1213.16 149.42 1212.41 151.489C1211.69 153.557 1211.32 156 1211.32 158.818C1211.32 161.636 1211.7 164.091 1212.45 166.182C1213.2 168.273 1214.28 169.898 1215.69 171.057C1217.12 172.193 1218.87 172.761 1220.94 172.761Z" fill="#DC3C36"/>
</g>
<g id="Creativity">
<path id="0 - C" d="M314.76 140.477H297.714C297.487 138.727 297.021 137.148 296.317 135.739C295.612 134.33 294.68 133.125 293.521 132.125C292.362 131.125 290.987 130.364 289.396 129.841C287.828 129.295 286.089 129.023 284.18 129.023C280.794 129.023 277.873 129.852 275.419 131.511C272.987 133.17 271.112 135.568 269.794 138.705C268.498 141.841 267.851 145.636 267.851 150.091C267.851 154.727 268.51 158.614 269.828 161.75C271.169 164.864 273.044 167.216 275.453 168.807C277.885 170.375 280.76 171.159 284.078 171.159C285.942 171.159 287.635 170.92 289.157 170.443C290.703 169.966 292.055 169.273 293.214 168.364C294.396 167.432 295.362 166.307 296.112 164.989C296.885 163.648 297.419 162.136 297.714 160.455L314.76 160.557C314.464 163.648 313.567 166.693 312.067 169.693C310.589 172.693 308.555 175.432 305.964 177.909C303.373 180.364 300.214 182.318 296.487 183.773C292.782 185.227 288.532 185.955 283.737 185.955C277.419 185.955 271.76 184.568 266.76 181.795C261.782 179 257.851 174.932 254.964 169.591C252.078 164.25 250.635 157.75 250.635 150.091C250.635 142.409 252.101 135.898 255.032 130.557C257.964 125.216 261.93 121.159 266.93 118.386C271.93 115.614 277.532 114.227 283.737 114.227C287.964 114.227 291.873 114.818 295.464 116C299.055 117.159 302.214 118.864 304.942 121.114C307.669 123.341 309.885 126.08 311.589 129.33C313.294 132.58 314.351 136.295 314.76 140.477Z" fill="#DC3C36"/>
<path id="1 - r" d="M322.27 185V132.636H338.463V142.182H339.008C339.963 138.727 341.52 136.159 343.679 134.477C345.838 132.773 348.349 131.92 351.213 131.92C351.986 131.92 352.781 131.977 353.599 132.091C354.417 132.182 355.179 132.33 355.883 132.534V147.023C355.088 146.75 354.042 146.534 352.747 146.375C351.474 146.216 350.338 146.136 349.338 146.136C347.361 146.136 345.576 146.58 343.986 147.466C342.417 148.33 341.179 149.545 340.27 151.114C339.383 152.659 338.94 154.477 338.94 156.568V185H322.27Z" fill="#DC3C36"/>
<path id="2 - e" d="M387.495 185.989C382.018 185.989 377.29 184.909 373.313 182.75C369.359 180.568 366.313 177.466 364.177 173.443C362.063 169.398 361.006 164.591 361.006 159.023C361.006 153.614 362.075 148.886 364.211 144.841C366.347 140.773 369.359 137.614 373.245 135.364C377.131 133.091 381.711 131.955 386.984 131.955C390.711 131.955 394.12 132.534 397.211 133.693C400.302 134.852 402.972 136.568 405.222 138.841C407.472 141.114 409.222 143.92 410.472 147.261C411.722 150.58 412.347 154.386 412.347 158.682V162.841H366.836V153.159H396.836C396.813 151.386 396.393 149.807 395.575 148.42C394.756 147.034 393.631 145.955 392.2 145.182C390.79 144.386 389.165 143.989 387.325 143.989C385.461 143.989 383.79 144.409 382.313 145.25C380.836 146.068 379.665 147.193 378.802 148.625C377.938 150.034 377.484 151.636 377.438 153.432V163.284C377.438 165.42 377.859 167.295 378.7 168.909C379.54 170.5 380.734 171.739 382.279 172.625C383.825 173.511 385.665 173.955 387.802 173.955C389.279 173.955 390.62 173.75 391.825 173.341C393.029 172.932 394.063 172.33 394.927 171.534C395.79 170.739 396.438 169.761 396.87 168.602L412.177 169.045C411.54 172.477 410.143 175.466 407.984 178.011C405.847 180.534 403.04 182.5 399.563 183.909C396.086 185.295 392.063 185.989 387.495 185.989Z" fill="#DC3C36"/>
<path id="3 - a" d="M433.148 185.886C429.808 185.886 426.842 185.33 424.251 184.216C421.683 183.08 419.648 181.375 418.148 179.102C416.671 176.807 415.933 173.932 415.933 170.477C415.933 167.568 416.444 165.114 417.467 163.114C418.489 161.114 419.898 159.489 421.694 158.239C423.489 156.989 425.558 156.045 427.898 155.409C430.239 154.75 432.739 154.307 435.398 154.08C438.376 153.807 440.773 153.523 442.592 153.227C444.41 152.909 445.728 152.466 446.546 151.898C447.387 151.307 447.808 150.477 447.808 149.409V149.239C447.808 147.489 447.205 146.136 446.001 145.182C444.796 144.227 443.171 143.75 441.126 143.75C438.921 143.75 437.148 144.227 435.808 145.182C434.467 146.136 433.614 147.455 433.251 149.136L417.876 148.591C418.33 145.409 419.501 142.568 421.387 140.068C423.296 137.545 425.91 135.568 429.228 134.136C432.569 132.682 436.58 131.955 441.262 131.955C444.603 131.955 447.683 132.352 450.501 133.148C453.319 133.92 455.773 135.057 457.864 136.557C459.955 138.034 461.569 139.852 462.705 142.011C463.864 144.17 464.444 146.636 464.444 149.409V185H448.762V177.705H448.353C447.421 179.477 446.228 180.977 444.773 182.205C443.342 183.432 441.648 184.352 439.694 184.966C437.762 185.58 435.58 185.886 433.148 185.886ZM438.296 174.977C440.092 174.977 441.705 174.614 443.137 173.886C444.592 173.159 445.751 172.159 446.614 170.886C447.478 169.591 447.91 168.091 447.91 166.386V161.409C447.433 161.659 446.853 161.886 446.171 162.091C445.512 162.295 444.785 162.489 443.989 162.67C443.194 162.852 442.376 163.011 441.535 163.148C440.694 163.284 439.887 163.409 439.114 163.523C437.546 163.773 436.205 164.159 435.092 164.682C434.001 165.205 433.16 165.886 432.569 166.727C432.001 167.545 431.717 168.523 431.717 169.659C431.717 171.386 432.33 172.705 433.558 173.614C434.808 174.523 436.387 174.977 438.296 174.977Z" fill="#DC3C36"/>
<path id="4 - t" d="M505.547 132.636V144.909H472.512V132.636H505.547ZM479.433 120.091H496.103V168.534C496.103 169.557 496.262 170.386 496.581 171.023C496.922 171.636 497.41 172.08 498.047 172.352C498.683 172.602 499.444 172.727 500.331 172.727C500.967 172.727 501.637 172.67 502.342 172.557C503.069 172.42 503.615 172.307 503.978 172.216L506.501 184.25C505.706 184.477 504.581 184.761 503.126 185.102C501.694 185.443 499.978 185.659 497.978 185.75C494.069 185.932 490.717 185.477 487.922 184.386C485.149 183.273 483.024 181.545 481.547 179.205C480.092 176.864 479.387 173.92 479.433 170.375V120.091Z" fill="#DC3C36"/>
<path id="5 - i" d="M520.635 185V132.636H537.305V185H520.635ZM528.987 126.534C526.646 126.534 524.635 125.761 522.953 124.216C521.271 122.648 520.43 120.761 520.43 118.557C520.43 116.375 521.271 114.511 522.953 112.966C524.635 111.398 526.646 110.614 528.987 110.614C531.35 110.614 533.362 111.398 535.021 112.966C536.703 114.511 537.544 116.375 537.544 118.557C537.544 120.761 536.703 122.648 535.021 124.216C533.362 125.761 531.35 126.534 528.987 126.534Z" fill="#DC3C36"/>
<path id="6 - v" d="M601.795 132.636L583.829 185H564.738L546.806 132.636H564.363L574.011 168.705H574.556L584.238 132.636H601.795Z" fill="#DC3C36"/>
<path id="7 - i" d="M611.27 185V132.636H627.94V185H611.27ZM619.622 126.534C617.281 126.534 615.27 125.761 613.588 124.216C611.906 122.648 611.065 120.761 611.065 118.557C611.065 116.375 611.906 114.511 613.588 112.966C615.27 111.398 617.281 110.614 619.622 110.614C621.986 110.614 623.997 111.398 625.656 112.966C627.338 114.511 628.179 116.375 628.179 118.557C628.179 120.761 627.338 122.648 625.656 124.216C623.997 125.761 621.986 126.534 619.622 126.534Z" fill="#DC3C36"/>
<path id="8 - t" d="M674.69 132.636V144.909H641.656V132.636H674.69ZM648.576 120.091H665.247V168.534C665.247 169.557 665.406 170.386 665.724 171.023C666.065 171.636 666.554 172.08 667.19 172.352C667.826 172.602 668.588 172.727 669.474 172.727C670.111 172.727 670.781 172.67 671.486 172.557C672.213 172.42 672.758 172.307 673.122 172.216L675.645 184.25C674.849 184.477 673.724 184.761 672.27 185.102C670.838 185.443 669.122 185.659 667.122 185.75C663.213 185.932 659.861 185.477 657.065 184.386C654.292 183.273 652.167 181.545 650.69 179.205C649.236 176.864 648.531 173.92 648.576 170.375V120.091Z" fill="#DC3C36"/>
<path id="9 - y" d="M694.592 204.636C692.592 204.636 690.706 204.477 688.933 204.159C687.16 203.864 685.638 203.466 684.365 202.966L688.047 190.864C689.683 191.409 691.16 191.727 692.479 191.818C693.82 191.909 694.967 191.693 695.922 191.17C696.899 190.67 697.649 189.773 698.172 188.477L698.82 186.909L680.206 132.636H697.66L707.308 170H707.854L717.638 132.636H735.195L715.456 190.011C714.501 192.875 713.149 195.398 711.399 197.58C709.672 199.784 707.433 201.511 704.683 202.761C701.956 204.011 698.592 204.636 694.592 204.636Z" fill="#DC3C36"/>
<path id="comma" d="M747.963 175.455L747.657 179.239C747.384 182.375 746.827 185.432 745.986 188.409C745.168 191.409 744.293 194.102 743.361 196.489C742.429 198.875 741.691 200.727 741.145 202.045H730.645C731.009 200.727 731.497 198.875 732.111 196.489C732.747 194.102 733.338 191.409 733.884 188.409C734.429 185.409 734.736 182.364 734.804 179.273L734.872 175.455H747.963Z" fill="#DC3C36"/>
</g>
<path id="@Vanguard" d="M797.805 230.631C794.737 230.631 792 230.214 789.595 229.381C787.19 228.557 785.154 227.349 783.487 225.759C781.82 224.158 780.551 222.217 779.68 219.935C778.809 217.652 778.368 215.053 778.359 212.136C778.368 209.248 778.809 206.62 779.68 204.253C780.561 201.876 781.844 199.83 783.529 198.116C785.225 196.393 787.298 195.062 789.751 194.125C792.213 193.188 795.021 192.719 798.174 192.719C801.053 192.719 803.638 193.126 805.93 193.94C808.222 194.755 810.172 195.929 811.782 197.463C813.402 198.997 814.637 200.848 815.49 203.017C816.342 205.186 816.763 207.634 816.754 210.361C816.763 212.226 816.583 213.898 816.214 215.375C815.845 216.852 815.281 218.116 814.524 219.168C813.776 220.219 812.829 221.047 811.683 221.653C810.547 222.25 809.207 222.605 807.663 222.719C806.413 222.823 805.466 222.747 804.822 222.491C804.178 222.236 803.724 221.866 803.458 221.384C803.193 220.891 803.009 220.342 802.904 219.736H802.734C802.516 220.313 802.038 220.83 801.299 221.284C800.57 221.729 799.699 222.07 798.686 222.307C797.672 222.534 796.631 222.615 795.561 222.548C794.481 222.473 793.43 222.217 792.407 221.781C791.385 221.336 790.461 220.687 789.637 219.835C788.823 218.973 788.174 217.889 787.691 216.582C787.218 215.276 786.976 213.737 786.967 211.966C786.976 210.195 787.223 208.675 787.706 207.406C788.198 206.128 788.837 205.067 789.623 204.224C790.419 203.372 791.29 202.714 792.237 202.25C793.184 201.777 794.112 201.469 795.021 201.327C796.119 201.137 797.18 201.123 798.203 201.284C799.225 201.445 800.087 201.705 800.788 202.065C801.498 202.425 801.939 202.813 802.109 203.23H802.322V201.639H807.237V215.844C807.256 216.459 807.379 216.904 807.606 217.179C807.833 217.454 808.127 217.591 808.487 217.591C809.036 217.591 809.519 217.321 809.936 216.781C810.362 216.232 810.689 215.394 810.916 214.267C811.153 213.131 811.266 211.687 811.257 209.935C811.266 207.984 811.011 206.317 810.49 204.935C809.978 203.543 809.282 202.392 808.402 201.483C807.521 200.574 806.517 199.864 805.39 199.352C804.273 198.831 803.089 198.467 801.839 198.259C800.589 198.05 799.358 197.946 798.146 197.946C795.731 197.946 793.643 198.311 791.882 199.04C790.12 199.759 788.662 200.759 787.507 202.037C786.351 203.315 785.49 204.797 784.922 206.483C784.363 208.159 784.079 209.958 784.069 211.881C784.079 214.068 784.391 216.005 785.007 217.69C785.622 219.366 786.527 220.773 787.72 221.909C788.913 223.045 790.386 223.907 792.137 224.494C793.899 225.072 795.916 225.361 798.189 225.361C799.297 225.361 800.376 225.29 801.427 225.148C802.478 225.006 803.435 224.826 804.297 224.608C805.168 224.39 805.883 224.163 806.441 223.926L808.061 228.543C807.464 228.912 806.64 229.253 805.589 229.565C804.547 229.887 803.354 230.143 802.01 230.332C800.674 230.531 799.273 230.631 797.805 230.631ZM797.464 217.278C798.591 217.278 799.481 217.07 800.135 216.653C800.788 216.227 801.252 215.602 801.527 214.778C801.801 213.955 801.924 212.946 801.896 211.753C801.896 210.768 801.773 209.897 801.527 209.139C801.28 208.382 800.835 207.785 800.191 207.349C799.547 206.914 798.619 206.696 797.407 206.696C796.366 206.696 795.48 206.9 794.751 207.307C794.031 207.714 793.477 208.296 793.089 209.054C792.71 209.812 792.521 210.725 792.521 211.795C792.521 212.733 792.677 213.623 792.99 214.466C793.302 215.299 793.818 215.976 794.538 216.497C795.258 217.018 796.233 217.278 797.464 217.278ZM827.592 196.909L834.098 218.216H834.339L840.845 196.909H848.714L838.899 226H829.538L819.723 196.909H827.592ZM855.458 226.369C854.066 226.369 852.83 226.137 851.75 225.673C850.68 225.2 849.833 224.49 849.208 223.543C848.592 222.586 848.284 221.388 848.284 219.949C848.284 218.737 848.498 217.714 848.924 216.881C849.35 216.047 849.937 215.37 850.685 214.849C851.433 214.329 852.295 213.936 853.27 213.67C854.246 213.396 855.287 213.211 856.395 213.116C857.636 213.003 858.635 212.884 859.392 212.761C860.15 212.629 860.699 212.444 861.04 212.207C861.391 211.961 861.566 211.616 861.566 211.17V211.099C861.566 210.37 861.315 209.807 860.813 209.409C860.311 209.011 859.634 208.812 858.782 208.812C857.863 208.812 857.124 209.011 856.566 209.409C856.007 209.807 855.652 210.356 855.5 211.057L849.094 210.83C849.283 209.504 849.771 208.32 850.557 207.278C851.353 206.227 852.442 205.403 853.824 204.807C855.216 204.201 856.888 203.898 858.838 203.898C860.23 203.898 861.514 204.063 862.688 204.395C863.862 204.717 864.885 205.19 865.756 205.815C866.627 206.431 867.3 207.188 867.773 208.088C868.256 208.988 868.498 210.015 868.498 211.17V226H861.963V222.96H861.793C861.405 223.699 860.908 224.324 860.301 224.835C859.705 225.347 858.999 225.73 858.185 225.986C857.38 226.241 856.471 226.369 855.458 226.369ZM857.603 221.824C858.351 221.824 859.023 221.672 859.62 221.369C860.226 221.066 860.709 220.65 861.069 220.119C861.428 219.58 861.608 218.955 861.608 218.244V216.17C861.409 216.275 861.168 216.369 860.884 216.455C860.609 216.54 860.306 216.62 859.975 216.696C859.643 216.772 859.302 216.838 858.952 216.895C858.602 216.952 858.266 217.004 857.944 217.051C857.29 217.155 856.731 217.316 856.267 217.534C855.813 217.752 855.462 218.036 855.216 218.386C854.98 218.727 854.861 219.134 854.861 219.608C854.861 220.328 855.117 220.877 855.628 221.256C856.149 221.634 856.807 221.824 857.603 221.824ZM879.691 213.557V226H872.745V204.182H879.35V208.188H879.591C880.074 206.852 880.898 205.806 882.063 205.048C883.228 204.281 884.615 203.898 886.225 203.898C887.759 203.898 889.089 204.243 890.216 204.935C891.353 205.616 892.233 206.573 892.858 207.804C893.493 209.026 893.805 210.455 893.796 212.094V226H886.85V213.457C886.859 212.245 886.551 211.298 885.926 210.616C885.311 209.935 884.454 209.594 883.355 209.594C882.626 209.594 881.982 209.755 881.424 210.077C880.874 210.389 880.448 210.839 880.145 211.426C879.852 212.013 879.7 212.723 879.691 213.557ZM908.267 234.636C906.193 234.636 904.417 234.348 902.94 233.77C901.463 233.192 900.303 232.402 899.46 231.398C898.617 230.394 898.11 229.258 897.94 227.989L904.517 227.619C904.64 228.064 904.867 228.453 905.199 228.784C905.539 229.116 905.98 229.371 906.52 229.551C907.069 229.731 907.713 229.821 908.451 229.821C909.616 229.821 910.577 229.537 911.335 228.969C912.102 228.41 912.485 227.43 912.485 226.028V222.193H912.244C911.969 222.866 911.553 223.467 910.994 223.997C910.435 224.527 909.739 224.944 908.906 225.247C908.082 225.55 907.135 225.702 906.065 225.702C904.474 225.702 903.016 225.332 901.69 224.594C900.374 223.846 899.318 222.69 898.522 221.128C897.736 219.556 897.343 217.534 897.343 215.062C897.343 212.515 897.751 210.418 898.565 208.77C899.379 207.113 900.445 205.886 901.761 205.091C903.087 204.295 904.512 203.898 906.037 203.898C907.182 203.898 908.163 204.097 908.977 204.494C909.801 204.883 910.478 205.384 911.008 206C911.538 206.616 911.941 207.255 912.216 207.918H912.414V204.182H919.332V226.085C919.332 227.932 918.868 229.49 917.94 230.759C917.012 232.027 915.715 232.989 914.048 233.642C912.381 234.305 910.454 234.636 908.267 234.636ZM908.48 220.645C909.323 220.645 910.042 220.422 910.639 219.977C911.235 219.532 911.695 218.893 912.017 218.06C912.339 217.226 912.5 216.227 912.5 215.062C912.5 213.879 912.339 212.861 912.017 212.009C911.704 211.147 911.245 210.484 910.639 210.02C910.042 209.556 909.323 209.324 908.48 209.324C907.618 209.324 906.889 209.561 906.292 210.034C905.696 210.508 905.241 211.175 904.929 212.037C904.626 212.889 904.474 213.898 904.474 215.062C904.474 216.227 904.63 217.226 904.943 218.06C905.255 218.893 905.705 219.532 906.292 219.977C906.889 220.422 907.618 220.645 908.48 220.645ZM937.837 216.582V204.182H944.769V226H938.15V221.938H937.922C937.439 223.273 936.615 224.333 935.451 225.119C934.295 225.896 932.899 226.284 931.26 226.284C929.774 226.284 928.467 225.943 927.34 225.261C926.213 224.58 925.337 223.628 924.712 222.406C924.087 221.175 923.77 219.736 923.76 218.088V204.182H930.706V216.724C930.716 217.908 931.028 218.841 931.644 219.523C932.259 220.205 933.097 220.545 934.158 220.545C934.849 220.545 935.47 220.394 936.019 220.091C936.578 219.778 937.018 219.329 937.34 218.741C937.671 218.145 937.837 217.425 937.837 216.582ZM955.341 226.369C953.949 226.369 952.713 226.137 951.633 225.673C950.563 225.2 949.716 224.49 949.091 223.543C948.475 222.586 948.167 221.388 948.167 219.949C948.167 218.737 948.38 217.714 948.806 216.881C949.233 216.047 949.82 215.37 950.568 214.849C951.316 214.329 952.178 213.936 953.153 213.67C954.128 213.396 955.17 213.211 956.278 213.116C957.519 213.003 958.518 212.884 959.275 212.761C960.033 212.629 960.582 212.444 960.923 212.207C961.273 211.961 961.449 211.616 961.449 211.17V211.099C961.449 210.37 961.198 209.807 960.696 209.409C960.194 209.011 959.517 208.812 958.664 208.812C957.746 208.812 957.007 209.011 956.449 209.409C955.89 209.807 955.535 210.356 955.383 211.057L948.977 210.83C949.166 209.504 949.654 208.32 950.44 207.278C951.235 206.227 952.324 205.403 953.707 204.807C955.099 204.201 956.77 203.898 958.721 203.898C960.113 203.898 961.396 204.063 962.571 204.395C963.745 204.717 964.768 205.19 965.639 205.815C966.51 206.431 967.182 207.188 967.656 208.088C968.139 208.988 968.38 210.015 968.38 211.17V226H961.846V222.96H961.676C961.288 223.699 960.79 224.324 960.184 224.835C959.588 225.347 958.882 225.73 958.068 225.986C957.263 226.241 956.354 226.369 955.341 226.369ZM957.485 221.824C958.234 221.824 958.906 221.672 959.502 221.369C960.109 221.066 960.592 220.65 960.951 220.119C961.311 219.58 961.491 218.955 961.491 218.244V216.17C961.292 216.275 961.051 216.369 960.767 216.455C960.492 216.54 960.189 216.62 959.858 216.696C959.526 216.772 959.185 216.838 958.835 216.895C958.484 216.952 958.148 217.004 957.826 217.051C957.173 217.155 956.614 217.316 956.15 217.534C955.696 217.752 955.345 218.036 955.099 218.386C954.862 218.727 954.744 219.134 954.744 219.608C954.744 220.328 955 220.877 955.511 221.256C956.032 221.634 956.69 221.824 957.485 221.824ZM972.627 226V204.182H979.375V208.159H979.602C980 206.72 980.648 205.65 981.548 204.949C982.448 204.239 983.494 203.884 984.687 203.884C985.009 203.884 985.341 203.907 985.681 203.955C986.022 203.992 986.34 204.054 986.633 204.139V210.176C986.302 210.062 985.866 209.973 985.326 209.906C984.796 209.84 984.323 209.807 983.906 209.807C983.082 209.807 982.339 209.991 981.676 210.361C981.022 210.721 980.506 211.227 980.127 211.881C979.758 212.525 979.574 213.282 979.574 214.153V226H972.627ZM996.299 226.312C994.69 226.312 993.226 225.896 991.91 225.062C990.594 224.229 989.543 222.979 988.757 221.312C987.971 219.646 987.578 217.577 987.578 215.105C987.578 212.539 987.985 210.427 988.799 208.77C989.614 207.113 990.679 205.886 991.995 205.091C993.321 204.295 994.746 203.898 996.271 203.898C997.417 203.898 998.397 204.097 999.211 204.494C1000.03 204.883 1000.7 205.384 1001.23 206C1001.76 206.616 1002.16 207.255 1002.44 207.918H1002.58V196.909H1009.52V226H1002.65V222.463H1002.44C1002.14 223.135 1001.73 223.765 1001.19 224.352C1000.65 224.939 999.969 225.413 999.154 225.773C998.35 226.133 997.398 226.312 996.299 226.312ZM998.714 220.901C999.557 220.901 1000.28 220.664 1000.87 220.19C1001.47 219.707 1001.93 219.03 1002.25 218.159C1002.57 217.288 1002.73 216.265 1002.73 215.091C1002.73 213.898 1002.57 212.87 1002.25 212.009C1001.94 211.147 1001.48 210.484 1000.87 210.02C1000.28 209.556 999.557 209.324 998.714 209.324C997.852 209.324 997.123 209.561 996.527 210.034C995.93 210.508 995.475 211.175 995.163 212.037C994.86 212.899 994.708 213.917 994.708 215.091C994.708 216.265 994.865 217.288 995.177 218.159C995.49 219.03 995.94 219.707 996.527 220.19C997.123 220.664 997.852 220.901 998.714 220.901Z" fill="#DC3C36"/>
</g>
</svg>
