<svg xmlns="http://www.w3.org/2000/svg" width="500" height="333" viewBox="0 0 307 204">
  <rect id="bg" x="0" y="0" width="307" height="204" fill="#DEF5F0" />
  <g id="advice_card_static_image" transform="scale(.8) translate(40 20)">
    <g id="constants">
      <path id="floor" d="M1.11987 176.354H306.414" stroke="#040505"></path>
      <g id="lower body">
        <g id="legs">
          <g id="Group">
            <path id="Vector" d="M279.636 120.804L278.301 124.926C278.301 124.926 277.955 128.028 277.45 131.876C277.09 134.585 276.648 137.664 276.187 140.286C275.073 146.631 270.399 157.986 270.173 160.878C270.145 161.272 270.111 161.843 270.077 162.54C269.928 165.719 269.756 171.479 269.674 174.452C269.64 175.614 269.621 176.354 269.621 176.354H249.471C249.471 176.354 249.135 174.903 251.921 173.678C252.867 173.265 254.131 172.223 255.437 170.859C257.992 168.208 260.721 164.341 261.604 161.545C262.94 157.319 262.604 130.603 263.828 124.81C265.053 119.022 267.839 116.688 267.839 116.688L276.153 119.589L279.636 120.804Z" fill="#D1D1D1" stroke="#040505"></path>
            <path id="Vector_2" d="M270.015 163.981C269.885 166.719 269.804 169.922 269.712 173.059C269.698 173.568 269.683 174.039 269.674 174.452C269.64 175.614 269.621 176.354 269.621 176.354H249.471C249.471 176.354 249.318 175.686 250.091 174.87C250.456 174.485 251.028 174.072 251.921 173.678C252.867 173.265 254.131 172.223 255.437 170.859C256.374 171.027 257.8 171.022 259.683 170.283C263.247 168.885 265.87 164.173 270.015 163.981Z" fill="#FFAD00" stroke="#040505"></path>
            <path id="Vector_3" d="M269.712 173.059C269.698 173.568 269.683 174.039 269.674 174.452C269.64 175.614 269.621 176.354 269.621 176.354H249.471C249.471 176.354 249.318 175.686 250.091 174.87L269.712 173.059Z" fill="#040505" stroke="#040505"></path>
          </g>
          <g id="Group_2">
            <path id="Vector_4" d="M290.875 163.424L291.654 176.359H270.74C270.74 176.359 270.51 175.777 271.206 174.61C271.586 173.981 272.806 173.361 274.367 172.367H274.371C275.707 171.517 277.292 170.398 278.8 168.784C282.076 165.292 282.657 162.372 282.542 160.623C282.441 159.177 279.074 140.392 277.45 131.684C277.104 129.854 276.84 128.47 276.701 127.783C275.88 123.826 275.529 119.512 275.529 119.512L276.153 119.426L289.9 117.529L290.016 126.962C290.016 126.962 291.068 133.019 291.654 138.379C292.239 143.74 290.717 160.787 290.717 160.787L290.875 163.414V163.424Z" fill="#D1D1D1" stroke="#040505"></path>
            <path id="Vector_5" d="M291.653 176.354H270.74C270.74 176.354 270.567 175.926 270.966 175.071C271.028 174.932 271.11 174.783 271.206 174.62C271.586 174 272.806 173.381 274.367 172.401H274.371C276.221 172.708 279.314 172.132 281.812 170.854C284.963 169.24 286.6 164.562 290.875 163.534L291.442 172.896L291.653 176.354Z" fill="#FFAD00" stroke="#040505"></path>
            <path id="Vector_6" d="M291.653 176.354H270.74C270.74 176.354 270.567 175.95 270.966 175.143L291.442 173.088L291.653 176.354Z" fill="#040505" stroke="#040505"></path>
          </g>
        </g>
      </g>
      <g id="fulcrum">
        <path id="Vector_10" d="M131.782 125H151.922L122.647 176.505H101.051L131.782 125Z" fill="#040505" stroke="#040505"></path>
        <path id="Vector_11" d="M151.922 125L179.296 176.5H122.647L151.922 125Z" fill="white" stroke="#040505" stroke-linejoin="bevel"></path>
      </g>
    </g>
    <g id="earth" class="earth" transform="translate(71 82)">
      <g transform="translate(-37 -36)">
        <circle cx="38" cy="37.5" r="37" stroke="#040505" fill="lightblue"></circle>
        <path d="M38.8331 3.04396C38.8331 3.04396 39.5632 4.1391 38.6506 5.23424C37.738 6.32938 36.8253 5.59928 35.5477 7.61184C34.27 9.6196 35.1826 10.5322 33.1749 11.2623C31.1671 11.9924 31.1671 12.1749 28.9768 12.905C26.7866 13.6351 25.5041 13.8176 26.604 12.1749C27.6992 10.5322 28.4293 10.3497 29.3419 9.43708C30.2545 8.52446 31.7147 7.61185 31.5322 6.69923C31.3496 5.78181 28.7943 6.14686 27.5167 6.88176C26.2342 7.61185 27.6992 7.06428 26.0517 8.88951C24.409 10.7147 23.6789 10.5322 22.9488 11.4448C22.2187 12.3574 22.5837 11.6274 21.8536 10.3497C21.1235 9.07203 22.4012 7.42932 20.941 7.97689C19.4808 8.52446 20.0284 8.15942 18.5682 9.07203C17.108 9.98465 17.8381 10.3497 16.1954 11.2623C14.5527 12.1749 14.0051 11.2623 13.6401 13.2701C13.275 15.2778 13.6401 17.2856 13.6401 17.2856C13.6401 17.2856 15.8304 16.9205 16.3779 15.0953C16.9255 13.2701 17.6556 12.3574 18.2032 12.54C18.7507 12.7225 20.2109 12.3574 19.8459 13.6351C19.4808 14.9128 19.6634 15.8254 20.576 15.2778C21.4886 14.7302 22.0362 13.4526 22.9488 14.5477C23.8614 15.6429 24.774 15.6429 24.0439 16.9205C23.3138 18.1982 22.2187 19.2933 21.6711 19.8409C21.1235 20.3885 21.3061 20.936 21.1235 22.5787L20.941 24.2214C20.941 24.2214 20.0284 23.6739 19.2983 23.6739C18.5682 23.6739 20.0284 22.3962 17.4731 24.404C14.9178 26.4117 14.9178 26.4117 14.1877 27.1418C13.4576 27.8719 12.7275 28.0544 13.0925 29.6971C13.4576 31.3447 13.4576 32.8048 12.545 31.5272C11.6323 30.2495 11.4498 29.1496 11.2673 28.602C11.0848 28.0544 11.9974 27.1418 10.5372 28.4195C9.07702 29.6971 8.89449 29.5146 7.79935 29.3321C6.70421 29.1496 8.52945 28.0544 5.97412 29.3321C3.4188 30.6146 3.78384 30.6146 3.04895 31.8922C2.31885 33.1699 1.95381 34.6301 2.50138 35.3602C3.04895 36.0903 3.23147 34.4475 4.51394 34.265C5.7916 34.0825 6.15664 34.0825 5.42655 35.5427C4.69646 37.0029 4.87898 36.6378 5.42655 37.5504C5.97412 38.4631 5.42655 38.4631 5.60907 39.5582C5.7916 40.6533 5.7916 40.8359 6.33917 40.8359H7.61683C8.52945 40.8359 9.25953 40.4708 9.44206 41.2009C9.62458 41.931 12.91 40.1058 15.6479 40.6533C18.3857 41.2009 19.2983 41.7485 20.3934 42.6611C21.4886 43.5737 21.8536 42.296 22.7663 43.5737C23.6789 44.8514 22.5837 46.129 24.0439 46.6766C25.5041 47.2242 26.4167 47.0417 27.1516 48.5018C27.8817 49.962 28.2468 50.5096 27.6992 51.6047C27.1516 52.6999 28.6118 52.5173 27.5167 54.7124L26.4167 56.9027C26.4167 56.9027 25.1391 58.1804 24.9565 58.7279C24.8348 59.093 24.774 59.7014 24.774 60.5532C24.774 61.8308 23.1313 63.1085 24.409 63.6561C25.6866 64.2036 26.2342 62.7434 27.3341 64.2036C28.4293 65.6638 27.8817 65.4813 28.7943 66.3939C29.7069 67.3065 29.7069 67.489 30.8021 68.0366C31.8972 68.5842 32.4448 68.9492 32.4448 68.9492L33.905 69.3143C33.905 69.3143 33.1749 70.4094 31.3496 69.8618C29.5244 69.3143 27.1516 68.0366 25.5041 68.0366C23.8566 68.0366 22.7662 68.0366 22.0362 66.9415C21.3061 65.8463 20.7585 66.3939 20.2109 65.1162C19.6634 63.8386 19.2983 63.1085 18.0206 62.7434C16.743 62.3784 14.9178 62.0133 14.5527 60.0056C14.1877 57.9978 13.0925 56.5377 11.6323 55.625C10.1722 54.7124 7.43431 53.9823 6.88674 52.5173C6.33917 51.0572 6.15664 49.0494 5.42655 48.3193C4.69646 47.5892 3.60132 46.8591 3.60132 45.764C3.60132 44.6688 4.14889 43.5737 5.0615 43.3912C5.97412 43.2087 6.52169 41.931 5.7916 41.7485C5.06151 41.5659 3.23147 42.4786 3.04895 41.0184C2.86642 39.5582 3.60132 39.7407 3.04895 38.2805C2.52539 36.8828 2.50138 37.3247 1.21411 36.5562C1.70885 16.6179 18.0206 0.613525 38.0742 0.613525C38.8571 0.613525 39.6352 0.637543 40.4038 0.690379L38.8331 3.04396Z" fill="#007873" stroke="#040505"></path>
        <path d="M74.4587 31.4455C73.8246 31.0229 73.1522 30.4513 72.6046 29.6972C71.1444 27.6894 72.057 27.3244 70.7794 26.0467C69.5017 24.7691 68.7716 25.8642 67.1289 26.0467C65.4862 26.2292 63.2959 24.9516 64.2086 26.4117C65.1212 27.8719 65.3037 27.5069 66.7639 27.5069C68.2241 27.5069 69.1367 28.602 69.6842 29.6972C70.2318 30.7971 68.7716 31.1622 66.7639 31.5272C64.7561 31.8922 64.9386 33.9 64.026 34.0825C63.1134 34.265 62.5658 32.2573 62.0183 30.4321C61.4707 28.602 59.4629 28.602 58.1853 27.3244C56.9076 26.0467 57.0902 25.4991 56.7251 24.9516C56.3601 24.404 55.4474 24.404 53.9873 23.6739C52.5271 22.9438 51.9795 22.2137 51.2494 22.0312C50.5193 21.8487 49.6019 24.404 49.6019 24.404C49.6019 24.404 47.5941 21.8487 46.6815 21.3011C45.7689 20.7535 44.6738 21.6662 45.9514 22.7613C47.2291 23.8564 46.8641 25.6817 46.8641 25.6817C46.8641 25.6817 45.7689 25.4991 45.5864 24.404C45.4039 23.3089 43.5786 22.7613 42.8485 22.9438C42.1184 23.1263 40.4757 23.8564 39.9282 25.3166C39.3806 26.7768 39.0156 26.5943 38.468 27.3244C37.9204 28.0545 36.6428 28.237 35.1826 28.0545C33.7224 27.8719 33.5399 26.2292 33.3573 24.404C33.1748 22.5788 33.7224 22.7613 34.2699 22.0312C34.8175 21.3011 34.8175 21.4836 36.8253 22.2137C38.833 22.9438 38.6505 20.7535 38.6505 20.7535L38.1029 18.5633C38.1029 18.5633 39.7456 18.5633 40.2932 18.3807C40.8408 18.1982 41.9359 16.373 42.666 14.5477C43.3961 12.7225 43.9437 14.3652 45.2213 14.5477C46.499 14.7303 45.9514 14.5477 46.3165 13.4526C46.6815 12.3575 46.864 12.1749 48.1417 11.2623C49.4194 10.3497 49.2368 10.1672 49.4194 9.61962C49.6019 9.07206 48.8718 9.07206 47.4116 9.07206C45.9514 9.07206 46.8641 8.15944 46.8641 8.15944C46.8641 8.15944 45.4039 7.97691 44.6738 8.34196C43.9437 8.70701 44.4913 9.25458 44.4913 11.9924C44.4913 14.7303 42.666 12.7225 42.666 12.7225C42.666 12.7225 41.7534 11.9924 41.3883 11.2623C41.0233 10.5322 41.0233 9.61962 41.9359 8.15944C42.8485 6.69925 43.7612 6.51193 44.4913 5.23426C45.2213 3.9566 46.3165 3.59156 47.9592 3.59156C49.6019 3.59156 49.0543 6.69925 49.0543 6.69925C49.0543 6.69925 50.1543 6.3294 50.3368 5.23426C50.4377 4.61465 51.8066 3.26013 51.8114 3.26013C63.5793 7.98172 72.3404 18.5873 74.4587 31.4455Z" fill="#007873" stroke="#040505"></path>
        <path d="M47.4117 28.237C46.0812 28.237 45.2214 28.7845 45.5864 27.8719C45.9515 26.9593 46.6816 25.4991 44.4913 26.4117C42.301 27.3244 42.301 27.3244 40.1107 27.8719C37.9205 28.4195 37.9205 27.6894 37.3729 29.3321C36.8253 30.9748 35.9127 31.3399 35.1826 32.6175C34.4525 33.8952 34.635 34.6253 34.4525 35.9029C34.27 37.1806 33.7224 37.3631 33.5399 38.0932C33.3574 38.8233 34.0875 38.8233 34.27 40.2835C34.4525 41.7437 35.3651 43.7514 36.8253 43.934C38.2855 44.1165 41.7535 43.5689 43.2136 44.4815C44.6738 45.3941 45.2214 46.1242 46.134 47.4019C47.0466 48.6796 47.5942 48.8621 47.4117 50.3223C47.2291 51.7825 47.4117 54.7028 48.8719 56.3455C50.332 57.9882 51.4272 59.4484 52.7048 60.9086C53.9825 62.3688 58.3631 63.829 58.3631 63.829C58.3631 63.829 57.998 62.5513 58.1805 60.5436C58.3631 58.5358 57.0854 59.2659 57.8155 56.8931C58.5456 54.5203 59.0931 51.965 58.5456 50.1397C57.998 48.3145 58.1805 49.2271 58.7281 47.0369C59.2757 44.8466 59.2757 43.0213 60.7359 42.1087C62.196 41.1961 65.664 38.2757 65.4815 36.633C65.2989 34.9903 63.4737 35.5379 62.0135 33.8952C60.5533 32.2525 58.7281 32.9826 58.3631 30.9748C57.998 28.9671 58.5456 28.0544 56.9029 27.8719C55.2602 27.6894 55.0776 28.602 53.4349 28.4195C51.7922 28.237 51.0621 27.1418 50.332 27.1418C49.602 27.1418 48.1418 28.237 47.4117 28.237Z" fill="#007873" stroke="#040505"></path>
        <path d="M60.7406 55.8076C60.3756 55.26 60.5581 53.6173 60.9231 52.7047C61.2882 51.7921 61.2882 50.5144 61.2882 49.7843C61.2882 49.0542 64.026 47.7766 64.026 47.7766C64.026 47.7766 64.026 50.1494 63.4785 51.2445C62.9309 52.3396 62.0183 52.3396 62.0183 53.6173C62.0183 54.895 60.7406 55.8076 60.7406 55.8076Z" fill="#007873" stroke="#040505"></path>
        <path d="M10.5372 32.2573C11.0848 32.8048 11.8148 34.0825 12.5449 34.0825C13.275 34.0825 14.1876 34.6301 14.1876 34.6301L12.3624 36.2728C12.3624 36.2728 11.6323 35.7252 10.9022 34.9951C10.1721 34.265 10.5372 32.2573 10.5372 32.2573Z" fill="#007873" stroke="#040505"></path>
      </g>
    </g>
    <g class="pieChart" id="chart" transform="translate(213 82)">
      <g id="chart_vector" transform="translate(-37 -37)">
        <path d="M33.1353 1.31877C35.4868 1.00555 37.9057 0.91882 40.368 1.07783C46.9021 1.49705 52.9302 3.58834 58.062 6.91319L37.9683 38.0126L33.1353 1.31877Z" fill="#FFAD00"></path>
        <path d="M35.6265 74.9184C35.5108 74.9088 35.3904 74.904 35.2795 74.8895L37.9683 38.0126L74.9175 40.3834C73.5972 60.771 56.0093 76.2291 35.6265 74.9184Z" fill="#DEF5F0"></path>
        <path d="M35.2795 74.8895C35.241 74.8895 35.2025 74.8895 35.1687 74.8799C15.0124 73.3379 -0.219253 55.8608 1.07696 35.6274C1.28416 32.3989 1.90095 29.2861 2.87431 26.3515C4.10306 22.6364 5.89558 19.1862 8.15552 16.1168C10.6564 12.71 13.7162 9.76581 17.1953 7.39987L37.9683 38.0078L35.2795 74.8847L35.2795 74.8895Z" fill="#F6001E"></path>
        <path d="M37.9683 38.0078L17.1953 7.39987C21.8741 4.20994 27.3095 2.08011 33.1304 1.31395L37.9683 38.0078Z" fill="white"></path>
        <path d="M37.9683 38.0078L58.062 6.90837L58.2451 7.02401C69.0292 14.0785 75.809 26.5828 74.9224 40.3641V40.3785L37.9732 38.0078L37.9683 38.0078Z" fill="#00BDA3"></path>
        <path d="M33.1353 1.31877L33.0693 0.823143L32.5744 0.889062L32.6396 1.38406L33.1353 1.31877ZM40.368 1.07783L40.3358 1.57679L40.336 1.57681L40.368 1.07783ZM58.062 6.91319L58.482 7.18453L58.753 6.76509L58.3339 6.49356L58.062 6.91319ZM35.6265 74.9184L35.585 75.4168L35.5944 75.4174L35.6265 74.9184ZM74.9175 40.3834L75.4165 40.4157L75.4488 39.9164L74.9496 39.8844L74.9175 40.3834ZM35.1687 74.8799L35.3061 74.3991L35.2574 74.3852L35.2069 74.3813L35.1687 74.8799ZM1.07696 35.6274L0.577983 35.5953L0.577979 35.5954L1.07696 35.6274ZM2.87431 26.3515L3.34888 26.5089L3.34902 26.5085L2.87431 26.3515ZM8.15552 16.1168L8.55816 16.4132L8.55857 16.4126L8.15552 16.1168ZM35.2795 74.8847L34.7809 74.8483L34.7796 74.8661L34.7795 74.8839L35.2795 74.8847ZM33.1304 1.31395L33.6262 1.24859L33.0652 0.818226L33.1304 1.31395ZM58.062 6.90837L58.329 6.48562L57.642 6.63703L58.062 6.90837ZM58.2451 7.02401L58.5189 6.60554L58.5121 6.60126L58.2451 7.02401ZM74.9224 40.3641L74.4234 40.332L74.4224 40.3641H74.9224ZM74.9224 40.3785L74.8903 40.8775L75.4224 40.3785H74.9224ZM37.9732 38.0078L38.0052 37.5088L37.9728 37.5078L37.9732 38.0078ZM33.2013 1.81439C35.5202 1.50552 37.9062 1.4199 40.3358 1.57679L40.4002 0.578874C37.9052 0.417744 35.4533 0.505593 33.0693 0.823143L33.2013 1.81439ZM40.336 1.57681C46.7826 1.99042 52.7284 4.05338 57.7901 7.33281L58.3339 6.49356C53.1319 3.1233 47.0215 1.00369 40.4 0.57886L40.336 1.57681ZM57.642 6.64184L37.5484 37.7412L38.3883 38.2839L58.482 7.18453L57.642 6.64184ZM38.4641 37.9473L33.631 1.25347L32.6396 1.38406L37.4726 38.0779L38.4641 37.9473ZM35.668 74.4202C35.5204 74.4079 35.4414 74.4064 35.3442 74.3937L35.2149 75.3853C35.3393 75.4015 35.5013 75.4097 35.585 75.4167L35.668 74.4202ZM35.7782 74.9259L38.467 38.0489L37.4697 37.9762L34.7809 74.8532L35.7782 74.9259ZM37.9363 38.5116L74.8855 40.8823L74.9496 39.8844L38.0004 37.5136L37.9363 38.5116ZM74.4186 40.351C73.1161 60.4633 55.7658 75.7124 35.6586 74.4195L35.5944 75.4174C56.2528 76.7458 74.0784 61.0786 75.4165 40.4157L74.4186 40.351ZM35.2795 74.3895C35.2692 74.3895 35.2635 74.3895 35.2585 74.3894C35.2539 74.3894 35.2531 74.3893 35.2545 74.3893C35.2559 74.3894 35.2613 74.3898 35.2696 74.3911C35.2779 74.3923 35.2905 74.3947 35.3061 74.3991L35.0314 75.3606C35.1452 75.3932 35.2583 75.3895 35.2795 75.3895V74.3895ZM35.2069 74.3813C15.3231 72.8602 0.29725 55.6192 1.57593 35.6593L0.577979 35.5954C-0.735757 56.1024 14.7018 73.8156 35.1306 75.3784L35.2069 74.3813ZM1.57593 35.6594C1.78038 32.4738 2.38892 29.4031 3.34888 26.5089L2.39973 26.1941C1.41297 29.1691 0.787934 32.324 0.577983 35.5953L1.57593 35.6594ZM3.34902 26.5085C4.56123 22.8434 6.32942 19.4403 8.55816 16.4132L7.75288 15.8203C5.46175 18.9322 3.64489 22.4293 2.3996 26.1945L3.34902 26.5085ZM8.55857 16.4126C11.0256 13.052 14.0442 10.1475 17.4764 7.81332L16.9141 6.98641C13.3883 9.38417 10.2871 12.368 7.75246 15.8209L8.55857 16.4126ZM16.7815 7.68065L37.5546 38.2886L38.3821 37.727L17.609 7.11908L16.7815 7.68065ZM37.4697 37.9714L34.7809 74.8483L35.7782 74.9211L38.467 38.0441L37.4697 37.9714ZM34.7795 74.8839L34.7795 74.8887L35.7795 74.8903L35.7795 74.8855L34.7795 74.8839ZM17.4769 7.81299C22.0925 4.66623 27.454 2.56541 33.1957 1.80967L33.0652 0.818226C27.1651 1.59481 21.6558 3.75365 16.9136 6.98674L17.4769 7.81299ZM32.6347 1.37931L37.4726 38.0731L38.4641 37.9424L33.6262 1.24859L32.6347 1.37931ZM38.3883 38.2791L58.482 7.17972L57.642 6.63703L37.5484 37.7364L38.3883 38.2791ZM57.795 7.33112L57.9781 7.44677L58.5121 6.60126L58.329 6.48562L57.795 7.33112ZM57.9714 7.44244C68.6108 14.4022 75.298 26.7376 74.4234 40.332L75.4213 40.3962C76.32 26.428 69.4476 13.7547 58.5188 6.60559L57.9714 7.44244ZM74.4224 40.3641V40.3785H75.4224V40.3641H74.4224ZM74.9544 39.8796L38.0052 37.5088L37.9411 38.5067L74.8903 40.8775L74.9544 39.8796ZM37.9728 37.5078L37.9679 37.5078L37.9687 38.5078L37.9736 38.5078L37.9728 37.5078Z" fill="#040505"></path>
      </g>
    </g>
    <g id="person" transform="translate(275 75)">
      <g id="dress" transform="translate(-67.5 -22)">
        <path id="Vector_7" d="M58.0001 22L53.0281 73.952H84.2301C84.2301 73.952 84.9791 43.4999 82.3611 32.8511C79.7441 22.2024 74.8881 18.8401 74.8881 18.8401L58.0001 22Z" fill="#007873" stroke="#040505" stroke-miterlimit="10"></path>
        <path id="Vector 1" d="M57.5 30L58 22L75 19L80.5 27.5L57.5 30Z" fill="black" stroke="black"></path>
        <path id="Vector_8" d="M59.584 43.4087L69.849 67.271" stroke="#040505" stroke-miterlimit="10"></path>
        <path id="Vector_9" d="M60.137 58.808L67.212 70.739" stroke="#040505" stroke-miterlimit="10"></path>
      </g>
      <g id="person_vector" class="torso" transform="rotate(0)">
        <g id="trunk_holder" transform="translate(-15 -50)">
          <g id="trunkAndHead">
            <g id="head">
              <path id="Vector_12" d="M13.3555 20.3895L9.94222 20.4831L8.91562 17.659C8.91562 17.659 5.67639 18.6142 3.96003 18.2814C2.24047 17.9427 2.25283 13.8034 2.25283 13.8034L1.15616 13.8756C1.04248 13.8862 0.97121 13.774 1.01123 13.6758C1.28595 13.0716 1.9598 11.3237 1.67517 9.11262C1.50604 7.79051 1.63407 6.67958 1.99015 5.69346C2.36406 4.63243 2.99079 3.71382 3.77694 2.84886C5.29005 1.18123 8.75188 0.730822 10.7531 1.15052C12.7575 1.5762 15.7936 3.13019 16.4622 6.09111C17.1293 9.05661 15.2268 13.4327 15.1385 13.7221L13.9589 18.1481L13.3555 20.3895Z" fill="#D1D1D1" stroke="#040505"></path>
              <path id="Vector_13" d="M25.6476 21.744C24.5544 25.3275 22.0105 25.8471 22.0105 25.8471C22.0105 25.8471 18.5041 26.8714 16.1899 24.6137C14.7376 23.2014 14.4757 18.3809 14.1493 17.3272C10.6997 13.7539 11.4903 8.97329 10.4841 8.78182C8.89178 8.48686 8.22235 9.87455 8.22235 9.87455C8.22235 9.87455 6.33851 9.35005 4.87646 8.44703C3.98557 7.89402 2.80087 6.60858 1.99634 5.69021C2.37025 4.62919 2.99701 3.71058 3.78315 2.84562C5.29627 1.178 8.7581 0.727588 10.7593 1.14728C12.7637 1.57297 15.7998 3.12695 16.4684 6.08786C17.1355 9.05337 15.233 13.4295 15.1447 13.7189L14.9518 14.4334C16.6377 13.1048 18.9326 12.5946 21.1378 13.2674C24.7213 14.3606 26.7422 18.156 25.649 21.7394L25.6476 21.744Z" fill="#545454" stroke="#040505"></path>
            </g>
            <path transform="translate(3.5 19)" d="M21.5439 16.6253C20.6362 11.2714 18.62 6.35765 15.6227 4.65984C12.6718 2.99124 12.6254 2.96204 12.6254 2.96204L11.3137 0.216675L5.70861 2.29313L6.48031 4.53727L6.53956 5.24836C2.33914 12.4955 -1.66075 13.4955 1.83918 35.4956C10.5865 37.2855 14.8847 36.3122 21.8009 32.0955C21.8009 32.0955 22.4529 21.9747 21.5453 16.6207L21.5439 16.6253Z" fill="#040505"></path>
          </g>
          <g id="arm" transform="translate(15 43)">
            <g id="lower_arm">
              <g id="lower_arm_rotator" class="arm" transform="rotate(0)">
                <g id="lower_arm_vector" transform="translate(-20 -37)">
                  <path id="hand" d="M13.2081 66.5296L11.3495 69.7894C11.3495 69.7894 9.20537 71.2655 7.84099 72.3028C7.13271 72.8392 5.94601 73.75 4.96176 74.5047C4.64764 74.7454 4.91295 75.2336 5.28421 75.1104L8.54311 74.026C8.54311 74.026 7.06978 77.4453 6.09752 78.5436C5.12527 79.6419 3.75006 81.6881 3.98444 81.9884C4.21882 82.2887 4.30095 82.074 4.78812 82.2369C5.2753 82.3997 5.60449 82.8086 6.1265 82.6498C6.64851 82.491 6.87161 82.4273 7.43416 82.5724C7.99344 82.7139 9.30108 82.6364 9.62947 82.3758C9.95787 82.1152 11.1016 81.7637 11.6285 81.4623C12.1554 81.161 13.8199 78.6081 14.7079 76.3005C15.5992 73.9964 17.5203 68.9171 17.5976 68.845C17.6748 68.7729 13.8708 66.3314 13.8708 66.3314L13.2081 66.5296Z" fill="#D1D1D1" stroke="#040505"></path>
                  <path id="lower" d="M11.0794 68.3948L14.7002 37.8517C16.8414 34.8775 21.9022 35.1332 23.1639 38.3301L18.0071 69.5395C15.3741 70.0324 13.878 70.0532 11.0794 68.3948Z" fill="#040505"></path>
                </g>
              </g>
            </g>
          </g>
        </g>
      </g>
    </g>
    <g id="board" transform="translate(142 125)">
      <g id="board_holder" class="boardPivot">
        <g id="board_vector" transform="translate(-110 -5)">
          <path d="M220.991 1L1 1.53619L1.00923 6L221 5.46381L220.991 1Z" fill="white"></path>
          <path d="M31.3467 1.46222L1 1.53619L1.00923 6L31.3559 5.92604L31.3467 1.46222Z" fill="#040505"></path>
          <path d="M1 1.53619L220.991 1L221 5.46381L1.00923 6M1 1.53619L1.00923 6M1 1.53619L31.3467 1.46222L31.3559 5.92604L1.00923 6" stroke="#040505" fill="none"></path>
        </g>
      </g>
    </g>
  </g>
  <g id="button" transform="translate(280 185)">
    <rect x="-20" y='-10' width="40" height="20" fill="white" stroke="none" rx="5"nry="5"/>
    <text x="0" y="0" text-anchor="middle" dominant-baseline="middle" fill="black" font-size="8">button</text>
  </g>
</svg>
