<svg width="100" height="100" viewBox="0 0 100 100" fill="none" xmlns="http://www.w3.org/2000/svg">
<circle cx="50" cy="50" r="50" fill="#6CA1E9"/>
<path d="M71.5098 61.1807V53.8492C71.5098 52.8648 70.7109 52.0659 69.7265 52.0659H66.1598C65.1754 52.0659 64.3765 52.8648 64.3765 53.8492V58.0098L71.5098 61.1807Z" fill="#BE3A2B"/>
<path d="M60.081 86.7546C66.9275 86.7546 62.3537 86.7546 71.5098 86.7546V68.3141L59.0261 62.7661L46.5425 68.3141V86.7546C48.3079 86.6083 58.2778 86.7546 60.081 86.7546Z" fill="#BE3A2B"/>
<path d="M72.5686 68.7851L59.0255 62.7662L45.4825 68.7851C44.3037 69.3095 42.9751 68.4462 42.9751 67.1551V63.9255C42.9751 63.221 43.3906 62.5825 44.0345 62.2954L59.0257 55.6328L74.017 62.2954C74.6608 62.5825 75.0764 63.221 75.0764 63.9255V67.1551C75.0762 68.4462 73.7475 69.3095 72.5686 68.7851Z" fill="#F97B76"/>
<path fill-rule="evenodd" clip-rule="evenodd" d="M84.8004 85.744C75.7849 94.5635 63.4464 99.9998 49.8382 99.9998C36.2299 99.9998 23.8914 94.5635 14.876 85.744C22.1957 83.1366 35.1181 81.4048 49.8382 81.4048C64.5582 81.4048 77.4806 83.1366 84.8004 85.744Z" fill="white"/>
<path d="M26.4663 17.4205C25.8975 17.4205 25.3374 17.1495 24.9916 16.6431C24.4368 15.8298 24.6455 14.7206 25.4587 14.1659C27.5577 12.7302 29.7941 11.4782 32.1055 10.4422C33.0007 10.0428 34.0583 10.4404 34.4614 11.341C34.8626 12.2416 34.4614 13.2957 33.5626 13.6987C31.4457 14.6457 29.3966 15.7941 27.4705 17.1084C27.1636 17.3189 26.8124 17.4205 26.4663 17.4205Z" fill="white"/>
<path d="M11.8269 35.2545C11.595 35.2545 11.3579 35.2098 11.1296 35.1118C10.2237 34.7266 9.80099 33.6779 10.1879 32.772C12.4332 27.4914 15.6718 22.7832 19.811 18.7742C20.519 18.0913 21.6497 18.1073 22.3327 18.8153C23.0175 19.5233 22.9996 20.6522 22.2934 21.337C18.4965 25.0126 15.5291 29.3301 13.4674 34.1703C13.1806 34.8479 12.5208 35.2545 11.8269 35.2545Z" fill="white"/>
<circle cx="30.7363" cy="80.9548" r="5.99174" transform="rotate(-5.8244 30.7363 80.9548)" fill="white"/>
<circle cx="30.1664" cy="73.3293" r="4.54545" transform="rotate(-5.8244 30.1664 73.3293)" fill="white"/>
<path d="M28.1835 72.9233C28.4957 72.8915 28.7234 72.6123 28.6915 72.2999C28.6597 71.9875 28.3802 71.7601 28.0681 71.7919C27.7554 71.8238 27.5283 72.1029 27.5601 72.4153C27.592 72.7278 27.8708 72.9552 28.1835 72.9233Z" fill="black"/>
<path d="M31.621 72.5727C31.9332 72.5409 32.1609 72.2617 32.129 71.9493C32.0972 71.6369 31.8177 71.4095 31.5056 71.4413C31.1929 71.4732 30.9658 71.7523 30.9976 72.0647C31.0295 72.3772 31.3083 72.6046 31.621 72.5727Z" fill="black"/>
<path d="M28.4751 74.2148L28.4717 74.1946L28.4609 74.1768L28.4751 74.2148Z" fill="black"/>
<path d="M28.4718 74.1944C28.5495 74.371 28.7423 74.4691 28.9311 74.4203L30.2792 74.0725C30.2792 74.0725 30.539 73.3865 29.8552 73.1485L28.6744 73.7162C28.495 73.8025 28.4114 74.0068 28.4718 74.1944Z" fill="black"/>
<path d="M39.4254 70.6656C38.6186 70.4401 37.7824 70.9108 37.5569 71.7173L37.2124 72.9472L37.1886 72.9026C37.0247 72.5889 36.6366 72.4677 36.3229 72.6319C36.0085 72.7966 35.8874 73.1844 36.0526 73.4977L36.8103 74.9448C36.8563 75.0325 36.9213 75.1035 36.9957 75.1591C37.0781 75.2332 37.1846 75.2937 37.3009 75.3496L36.2216 77.5454C35.8683 76.9579 35.4285 76.4312 34.9131 75.9916C34.9312 75.9004 34.9409 75.8064 34.9309 75.7088C34.9125 75.5282 34.8425 75.3667 34.7408 75.2315C35.0548 74.4784 35.1954 73.6404 35.1069 72.7731C35.0292 72.0116 34.7824 71.3099 34.4145 70.6934L35.2229 70.8253L35.4811 69.2415L33.4677 68.9134L34.0087 65.5967L28.7976 64.7461L28.2566 68.0628L26.243 67.7337L25.9849 69.3178L26.7534 69.4434C25.5396 70.4888 24.8371 72.0884 25.012 73.8029C25.1011 74.6759 25.4118 75.473 25.8759 76.1501C25.8087 76.2992 25.7749 76.4662 25.7927 76.6409C25.8022 76.7341 25.8289 76.8206 25.862 76.9032C25.4864 77.3832 25.1824 77.9188 24.9578 78.4913L23.7144 76.7073C23.8279 76.6208 23.9287 76.5319 23.9991 76.4333C24.0592 76.3626 24.107 76.2794 24.1329 76.1833L24.5573 74.606C24.6503 74.2647 24.4475 73.9123 24.1055 73.8201C23.7629 73.7279 23.4113 73.9308 23.3191 74.2727L23.3055 74.3215L22.7023 73.1962C22.3061 72.4579 21.3868 72.1807 20.6495 72.5764C19.9109 72.9725 19.6343 73.8915 20.0298 74.6298L21.404 77.1913C21.8 77.9289 22.337 77.4952 23.0757 77.0994C23.09 77.0914 23.1036 77.0838 23.118 77.0759L24.6969 79.3409C24.541 80.0019 24.4842 80.6971 24.557 81.411C24.9107 84.8718 28.0015 87.3904 31.4624 87.0377C34.9232 86.6844 37.4418 83.5935 37.0888 80.1327C37.0182 79.4412 36.8323 78.7911 36.5609 78.1912L36.66 78.2395L37.9646 75.5855C37.9907 75.5928 38.0156 75.6005 38.0418 75.6082C38.8486 75.8336 39.4679 76.1401 39.6935 75.3339L40.4769 72.5348C40.7024 71.7279 40.2317 70.8915 39.4254 70.6656ZM26.9405 70.7461C27.2983 70.3067 27.75 69.947 28.2652 69.69L32.9076 70.4476C33.5388 71.0795 33.9647 71.9209 34.0625 72.8796C34.1341 73.5817 34.0181 74.2561 33.7589 74.861L26.7537 75.5756C26.3778 75.0355 26.1279 74.3983 26.0563 73.6963C25.9442 72.5893 26.2891 71.5463 26.9405 70.7461ZM34.8918 84.0873C34.0418 85.1296 32.7993 85.8458 31.3558 85.9934C29.9123 86.1403 28.5501 85.6898 27.5071 84.8406C26.4648 83.9906 25.7493 82.748 25.6014 81.3046C25.548 80.7813 25.5762 80.2701 25.6719 79.7804L25.7957 79.694L25.7185 79.583C25.9011 78.8149 26.2499 78.1053 26.7351 77.5007C26.7722 77.5014 26.8096 77.5045 26.8477 77.5006L31.1992 77.0567L31.5028 80.0327C31.5361 80.3598 31.8284 80.5979 32.1554 80.5645L33.4948 80.4279C33.8219 80.3945 34.06 80.1023 34.0266 79.7753L33.7231 76.7993L34.0712 76.7637C34.1045 76.7603 34.1351 76.7507 34.1674 76.744C35.1909 77.5914 35.8989 78.8138 36.0443 80.2393C36.1916 81.6828 35.7411 83.0444 34.8918 84.0873Z" fill="black"/>
</svg>
