<svg width="500" height="500" viewBox="0 0 500 500" fill="none" xmlns="http://www.w3.org/2000/svg">

<path d="M221.936 219.437C228.175 219.07 233.929 214.825 240.128 214.825C248.099 214.825 249.396 220.88 254.798 225.202C258.493 228.158 257.926 234.864 257.681 239.039C257.453 242.907 249.388 245.081 247.303 247.687C244.794 250.824 235.983 251.54 232.313 251.723C225.267 252.075 218.197 252.876 210.981 252.876C206.198 252.876 197.842 244.549 194.262 241.345C189.931 237.47 185.037 233.41 185.037 226.932C185.037 217.008 186.186 210.9 191.956 202.397C196.361 195.906 202.761 191.466 208.739 186.574C216.345 180.351 225.036 181.91 233.723 179.336C239.755 177.548 249.658 176.734 255.375 179.592C269.947 186.878 284.418 199.465 287.661 216.49C288.925 223.129 290.362 228.465 289.967 235.58C289.837 237.911 288.066 241.594 287.404 243.908C285.983 248.883 284.599 254.475 282.472 259.154C280.175 264.208 274.031 266.793 271.261 271.325C266.112 279.751 252.869 282.489 244.421 285.739C227.563 292.222 205.846 289.774 188.112 289.774C181.718 289.774 175.131 288.192 168.894 286.828C162.144 285.351 153.816 284.233 147.883 280.55C144.832 278.656 139.016 276.745 137.505 273.375C134.192 265.985 126.862 259.752 125.077 251.723C118.995 224.35 122.361 202.835 136.096 177.862C149.534 153.428 173.324 137.569 201.18 137.569C214.412 137.569 227.668 137.337 240.897 137.569C251.105 137.748 261.227 140.357 271.261 141.925C281.767 143.566 289.607 148.527 299.127 153.071C324.777 165.313 345.056 189.481 353.386 216.554C360.76 240.519 361.635 270.717 349.286 293.17C336.824 315.827 319.752 329.711 296.885 340.51C284.134 346.531 270.956 352.152 257.168 356.012C236.746 361.73 216.38 363.853 195.159 365.621C182.911 366.642 167.416 367.477 155.762 362.995C145.384 359.003 136.521 353.529 127.127 347.684C111.675 338.07 101.145 323.679 87.0901 312.259C82.1945 308.282 79.7161 298.687 76.6484 293.234C74.816 289.976 72.0197 287.179 70.3706 283.881C67.6193 278.379 67.6485 271.442 66.0145 265.56C60.7363 246.558 60.5054 225.654 60.5054 206.049C60.5054 188.397 64.2253 171.15 66.2067 153.648C67.3606 143.455 71.5476 136.552 75.2391 127.191C79.2578 117.001 85.0484 109.567 92.7914 101.824C101.137 93.4778 109.829 83.4395 120.465 78.1215C129.018 73.8449 137.704 70.0099 146.409 66.0783C155.29 62.0678 164.849 60.7565 173.763 57.11C185.375 52.3593 197.331 47.5644 209.508 44.4262C223.69 40.7711 239.662 41.4886 254.158 41.9278C267.227 42.3239 277.373 45.3085 289.454 49.9353C302.86 55.0695 317.419 58.4386 330.324 64.669C338.471 68.602 345.357 74.3999 353.386 78.5059C365.809 84.8584 376.662 91.9604 387.978 100.094C395.283 105.345 402.346 110.427 408.733 116.814C416.273 124.353 425.101 131.95 431.795 140.131C451.217 163.869 452.55 199.522 452.55 228.662C452.55 248.964 448.238 267.34 443.902 287.02C440.358 303.104 437.311 319.457 432.884 335.321C429.952 345.825 422.909 355.083 417.958 364.724C415.314 369.874 411.217 372.858 407.837 377.408C404.523 381.869 401.295 383.009 397.459 386.44C386.347 396.383 375.853 404.923 363.507 413.153C352.917 420.213 341.075 423.127 329.235 427.567C320.013 431.025 307.969 434.793 298.038 435.062C286.314 435.378 272.47 436.313 261.076 439.161C246.729 442.748 229.233 441.98 214.505 441.98C186.192 441.98 153.954 444.835 126.999 434.421C117.02 430.565 107.725 427.271 97.6599 423.787C90.9143 421.452 84.5444 417.501 78.9545 413.153C75.9044 410.781 66.9747 407.163 67.4238 407.388" stroke="none" stroke-width="3" stroke-linecap="round"/>

<path id="spiral" d="M229.2 391C197.733 391 173.2 381.4 155.6 362.2C138.533 344.067 130 319 130 287C130 248.6 141.467 214.867 164.4 185.8C145.733 171.933 136.4 156.867 136.4 140.6C136.4 119.533 149.6 109 176 109C191.733 109 206.933 113.533 221.6 122.6C222.667 122.867 223.2 123.933 223.2 125.8C223.2 126.333 222.933 126.6 222.4 126.6C222.133 126.6 221.333 126.2 220 125.4C206.4 118.2 193.6 114.6 181.6 114.6C156.533 114.6 144 124.467 144 144.2C144 157.533 151.867 170.2 167.6 182.2C195.333 149.667 236.267 133.4 290.4 133.4C308.533 133.4 324.267 135.933 337.6 141C355.733 147.667 366.267 158.333 369.2 173C369.467 173.533 369.6 174.6 369.6 176.2C369.6 186.333 363.2 195.4 350.4 203.4C358.667 217.533 362.8 234.867 362.8 255.4C362.8 278.867 357.333 300.067 346.4 319C333.6 340.6 317.2 357.8 297.2 370.6C275.6 384.2 252.933 391 229.2 391ZM268.8 214.2C296.533 214.2 319.733 209.533 338.4 200.2C331.733 186.6 322.267 179.8 310 179.8C309.467 179.8 308.8 179.933 308 180.2C307.2 180.2 306.267 180.333 305.2 180.6C304.133 180.867 303.2 181 302.4 181C301.6 181 300.933 181 300.4 181C297.467 181 296 180.2 296 178.6C296 176.2 299.333 175 306 175C322 175 335.2 181.933 345.6 195.8C355.2 189.4 360 182.333 360 174.6C360 150.333 338.133 138.2 294.4 138.2C250.667 138.2 214.933 157 187.2 194.6C199.733 201 212.8 205.933 226.4 209.4C240 212.6 254.133 214.2 268.8 214.2ZM236 385C255.467 385 275.2 376.467 295.2 359.4C312 345 325.6 327.533 336 307C344 291 348 271.4 348 248.2C348 232.733 346 219.4 342 208.2C333.733 211.667 324.267 214.467 313.6 216.6C303.2 218.467 291.733 219.4 279.2 219.4C243.733 219.4 212.133 212.333 184.4 198.2C164.933 225.667 155.2 256.867 155.2 291.8C155.2 316.867 161.067 337.533 172.8 353.8C185.333 371.133 203.867 381.4 228.4 384.6C229.467 384.6 230.667 384.6 232 384.6C233.333 384.867 234.667 385 236 385Z" fill="#eaeaea"/>


<text x="0" y="150" font-size="16"  fill="black"><textPath href="#spiral">Lorem ipsum dolor sit amet consectetur adipisicing elit. Cupiditate, reiciendis libero. Earum, ullam dicta provident sapiente minima consectetur deleniti nulla quibusdam, voluptatum illo quisquam veniam molestiae commodi doloribus molestias sequi! Earum, ullam dicta provident sapiente minima consectetur deleniti nulla quibusdam, voluptatum illo quisquam veniam molestiae commodi doloribus molestias sequi!</textPath></text>
</svg>
