<svg width="500" height="500" viewBox="0 0 500 500" fill="none" xmlns="http://www.w3.org/2000/svg">
<g clip-path="url(#clip0_853_282)">
<rect width="500" height="500" fill="white"/>
<path d="M122.952 227.227V224.727H140.406V227.227H133.088V248H130.27V227.227H122.952ZM147.074 237.5V248H144.392V224.727H147.074V233.273H147.301C147.71 232.371 148.324 231.655 149.142 231.125C149.968 230.587 151.066 230.318 152.438 230.318C153.627 230.318 154.669 230.557 155.562 231.034C156.456 231.504 157.15 232.227 157.642 233.205C158.142 234.174 158.392 235.409 158.392 236.909V248H155.71V237.091C155.71 235.705 155.35 234.633 154.631 233.875C153.919 233.11 152.93 232.727 151.665 232.727C150.786 232.727 149.998 232.913 149.301 233.284C148.612 233.655 148.066 234.197 147.665 234.909C147.271 235.621 147.074 236.485 147.074 237.5ZM170.616 248.364C168.935 248.364 167.484 247.992 166.264 247.25C165.052 246.5 164.116 245.455 163.457 244.114C162.806 242.765 162.48 241.197 162.48 239.409C162.48 237.621 162.806 236.045 163.457 234.682C164.116 233.311 165.033 232.242 166.207 231.477C167.389 230.705 168.768 230.318 170.344 230.318C171.253 230.318 172.151 230.47 173.037 230.773C173.923 231.076 174.73 231.568 175.457 232.25C176.185 232.924 176.764 233.818 177.196 234.932C177.628 236.045 177.844 237.417 177.844 239.045V240.182H164.389V237.864H175.116C175.116 236.879 174.92 236 174.526 235.227C174.139 234.455 173.586 233.845 172.866 233.398C172.154 232.951 171.313 232.727 170.344 232.727C169.276 232.727 168.351 232.992 167.571 233.523C166.798 234.045 166.204 234.727 165.787 235.568C165.37 236.409 165.162 237.311 165.162 238.273V239.818C165.162 241.136 165.389 242.254 165.844 243.17C166.306 244.08 166.946 244.773 167.764 245.25C168.582 245.72 169.533 245.955 170.616 245.955C171.321 245.955 171.957 245.856 172.526 245.659C173.101 245.455 173.598 245.152 174.014 244.75C174.431 244.341 174.753 243.833 174.98 243.227L177.571 243.955C177.298 244.833 176.84 245.606 176.196 246.273C175.552 246.932 174.757 247.447 173.81 247.818C172.863 248.182 171.798 248.364 170.616 248.364ZM198.514 230.545V232.818H189.469V230.545H198.514ZM192.105 226.364H194.787V243C194.787 243.758 194.897 244.326 195.116 244.705C195.344 245.076 195.632 245.326 195.98 245.455C196.336 245.576 196.711 245.636 197.105 245.636C197.401 245.636 197.643 245.621 197.832 245.591C198.022 245.553 198.173 245.523 198.287 245.5L198.832 247.909C198.651 247.977 198.397 248.045 198.071 248.114C197.745 248.189 197.332 248.227 196.832 248.227C196.075 248.227 195.332 248.064 194.605 247.739C193.885 247.413 193.287 246.917 192.81 246.25C192.34 245.583 192.105 244.742 192.105 243.727V226.364ZM209.679 248.364C207.997 248.364 206.546 247.992 205.327 247.25C204.115 246.5 203.179 245.455 202.52 244.114C201.868 242.765 201.543 241.197 201.543 239.409C201.543 237.621 201.868 236.045 202.52 234.682C203.179 233.311 204.096 232.242 205.27 231.477C206.452 230.705 207.83 230.318 209.406 230.318C210.315 230.318 211.213 230.47 212.099 230.773C212.986 231.076 213.793 231.568 214.52 232.25C215.247 232.924 215.827 233.818 216.259 234.932C216.69 236.045 216.906 237.417 216.906 239.045V240.182H203.452V237.864H214.179C214.179 236.879 213.982 236 213.588 235.227C213.202 234.455 212.649 233.845 211.929 233.398C211.217 232.951 210.376 232.727 209.406 232.727C208.338 232.727 207.414 232.992 206.634 233.523C205.861 234.045 205.266 234.727 204.849 235.568C204.433 236.409 204.224 237.311 204.224 238.273V239.818C204.224 241.136 204.452 242.254 204.906 243.17C205.368 244.08 206.009 244.773 206.827 245.25C207.645 245.72 208.596 245.955 209.679 245.955C210.384 245.955 211.02 245.856 211.588 245.659C212.164 245.455 212.66 245.152 213.077 244.75C213.493 244.341 213.815 243.833 214.043 243.227L216.634 243.955C216.361 244.833 215.902 245.606 215.259 246.273C214.615 246.932 213.819 247.447 212.872 247.818C211.925 248.182 210.861 248.364 209.679 248.364ZM222.517 230.545L226.699 237.682L230.881 230.545H233.972L228.335 239.273L233.972 248H230.881L226.699 241.227L222.517 248H219.426L224.972 239.273L219.426 230.545H222.517ZM245.389 230.545V232.818H236.344V230.545H245.389ZM238.98 226.364H241.662V243C241.662 243.758 241.772 244.326 241.991 244.705C242.219 245.076 242.507 245.326 242.855 245.455C243.211 245.576 243.586 245.636 243.98 245.636C244.276 245.636 244.518 245.621 244.707 245.591C244.897 245.553 245.048 245.523 245.162 245.5L245.707 247.909C245.526 247.977 245.272 248.045 244.946 248.114C244.62 248.189 244.207 248.227 243.707 248.227C242.95 248.227 242.207 248.064 241.48 247.739C240.76 247.413 240.162 246.917 239.685 246.25C239.215 245.583 238.98 244.742 238.98 243.727V226.364ZM265.741 248.364C264.06 248.364 262.609 247.992 261.389 247.25C260.177 246.5 259.241 245.455 258.582 244.114C257.931 242.765 257.605 241.197 257.605 239.409C257.605 237.621 257.931 236.045 258.582 234.682C259.241 233.311 260.158 232.242 261.332 231.477C262.514 230.705 263.893 230.318 265.469 230.318C266.378 230.318 267.276 230.47 268.162 230.773C269.048 231.076 269.855 231.568 270.582 232.25C271.31 232.924 271.889 233.818 272.321 234.932C272.753 236.045 272.969 237.417 272.969 239.045V240.182H259.514V237.864H270.241C270.241 236.879 270.045 236 269.651 235.227C269.264 234.455 268.711 233.845 267.991 233.398C267.279 232.951 266.438 232.727 265.469 232.727C264.401 232.727 263.476 232.992 262.696 233.523C261.923 234.045 261.329 234.727 260.912 235.568C260.495 236.409 260.287 237.311 260.287 238.273V239.818C260.287 241.136 260.514 242.254 260.969 243.17C261.431 244.08 262.071 244.773 262.889 245.25C263.707 245.72 264.658 245.955 265.741 245.955C266.446 245.955 267.082 245.856 267.651 245.659C268.226 245.455 268.723 245.152 269.139 244.75C269.556 244.341 269.878 243.833 270.105 243.227L272.696 243.955C272.423 244.833 271.965 245.606 271.321 246.273C270.677 246.932 269.882 247.447 268.935 247.818C267.988 248.182 266.923 248.364 265.741 248.364ZM279.73 224.727V248H277.048V224.727H279.73ZM291.96 248.364C290.278 248.364 288.828 247.992 287.608 247.25C286.396 246.5 285.46 245.455 284.801 244.114C284.15 242.765 283.824 241.197 283.824 239.409C283.824 237.621 284.15 236.045 284.801 234.682C285.46 233.311 286.377 232.242 287.551 231.477C288.733 230.705 290.112 230.318 291.688 230.318C292.597 230.318 293.494 230.47 294.381 230.773C295.267 231.076 296.074 231.568 296.801 232.25C297.528 232.924 298.108 233.818 298.54 234.932C298.972 236.045 299.188 237.417 299.188 239.045V240.182H285.733V237.864H296.46C296.46 236.879 296.263 236 295.869 235.227C295.483 234.455 294.93 233.845 294.21 233.398C293.498 232.951 292.657 232.727 291.688 232.727C290.619 232.727 289.695 232.992 288.915 233.523C288.142 234.045 287.547 234.727 287.131 235.568C286.714 236.409 286.506 237.311 286.506 238.273V239.818C286.506 241.136 286.733 242.254 287.188 243.17C287.65 244.08 288.29 244.773 289.108 245.25C289.926 245.72 290.877 245.955 291.96 245.955C292.665 245.955 293.301 245.856 293.869 245.659C294.445 245.455 294.941 245.152 295.358 244.75C295.775 244.341 296.097 243.833 296.324 243.227L298.915 243.955C298.642 244.833 298.184 245.606 297.54 246.273C296.896 246.932 296.1 247.447 295.153 247.818C294.206 248.182 293.142 248.364 291.96 248.364ZM303.267 248V230.545H305.858V233.273H306.085C306.449 232.341 307.036 231.617 307.847 231.102C308.657 230.58 309.631 230.318 310.767 230.318C311.919 230.318 312.877 230.58 313.642 231.102C314.415 231.617 315.017 232.341 315.449 233.273H315.631C316.078 232.371 316.748 231.655 317.642 231.125C318.536 230.587 319.608 230.318 320.858 230.318C322.419 230.318 323.695 230.807 324.688 231.784C325.68 232.754 326.176 234.265 326.176 236.318V248H323.494V236.318C323.494 235.03 323.142 234.11 322.438 233.557C321.733 233.004 320.903 232.727 319.949 232.727C318.722 232.727 317.771 233.098 317.097 233.841C316.422 234.576 316.085 235.508 316.085 236.636V248H313.358V236.045C313.358 235.053 313.036 234.254 312.392 233.648C311.748 233.034 310.919 232.727 309.903 232.727C309.206 232.727 308.555 232.913 307.949 233.284C307.35 233.655 306.866 234.17 306.494 234.83C306.131 235.481 305.949 236.235 305.949 237.091V248H303.267ZM338.398 248.364C336.716 248.364 335.265 247.992 334.045 247.25C332.833 246.5 331.898 245.455 331.239 244.114C330.587 242.765 330.261 241.197 330.261 239.409C330.261 237.621 330.587 236.045 331.239 234.682C331.898 233.311 332.814 232.242 333.989 231.477C335.17 230.705 336.549 230.318 338.125 230.318C339.034 230.318 339.932 230.47 340.818 230.773C341.705 231.076 342.511 231.568 343.239 232.25C343.966 232.924 344.545 233.818 344.977 234.932C345.409 236.045 345.625 237.417 345.625 239.045V240.182H332.17V237.864H342.898C342.898 236.879 342.701 236 342.307 235.227C341.92 234.455 341.367 233.845 340.648 233.398C339.936 232.951 339.095 232.727 338.125 232.727C337.057 232.727 336.133 232.992 335.352 233.523C334.58 234.045 333.985 234.727 333.568 235.568C333.152 236.409 332.943 237.311 332.943 238.273V239.818C332.943 241.136 333.17 242.254 333.625 243.17C334.087 244.08 334.727 244.773 335.545 245.25C336.364 245.72 337.314 245.955 338.398 245.955C339.102 245.955 339.739 245.856 340.307 245.659C340.883 245.455 341.379 245.152 341.795 244.75C342.212 244.341 342.534 243.833 342.761 243.227L345.352 243.955C345.08 244.833 344.621 245.606 343.977 246.273C343.333 246.932 342.538 247.447 341.591 247.818C340.644 248.182 339.58 248.364 338.398 248.364ZM352.386 237.5V248H349.705V230.545H352.295V233.273H352.523C352.932 232.386 353.553 231.674 354.386 231.136C355.22 230.591 356.295 230.318 357.614 230.318C358.795 230.318 359.83 230.561 360.716 231.045C361.602 231.523 362.292 232.25 362.784 233.227C363.277 234.197 363.523 235.424 363.523 236.909V248H360.841V237.091C360.841 235.72 360.485 234.652 359.773 233.886C359.061 233.114 358.083 232.727 356.841 232.727C355.985 232.727 355.22 232.913 354.545 233.284C353.879 233.655 353.352 234.197 352.966 234.909C352.58 235.621 352.386 236.485 352.386 237.5ZM376.014 230.545V232.818H366.969V230.545H376.014ZM369.605 226.364H372.287V243C372.287 243.758 372.397 244.326 372.616 244.705C372.844 245.076 373.132 245.326 373.48 245.455C373.836 245.576 374.211 245.636 374.605 245.636C374.901 245.636 375.143 245.621 375.332 245.591C375.522 245.553 375.673 245.523 375.787 245.5L376.332 247.909C376.151 247.977 375.897 248.045 375.571 248.114C375.245 248.189 374.832 248.227 374.332 248.227C373.575 248.227 372.832 248.064 372.105 247.739C371.385 247.413 370.787 246.917 370.31 246.25C369.84 245.583 369.605 244.742 369.605 243.727V226.364Z" fill="black"/>
<line x1="4.37114e-08" y1="249.5" x2="500" y2="249.5" stroke="black"/>
</g>
<defs>
<clipPath id="clip0_853_282">
<rect width="500" height="500" fill="white"/>
</clipPath>
</defs>
</svg>
