<svg width="38" height="31" viewBox="0 0 38 31" fill="none" xmlns="http://www.w3.org/2000/svg">
<path d="M37.9866 22.5976C37.9276 22.134 36.8794 20.1112 32.1806 17.3829L28.9791 16.4437L26.1393 7.59476L32.6841 2.43411C34.8092 1.1301 34.0266 0.120742 32.0692 0.121451C20.2025 0.125543 14.9517 -1.42103 12.4903 6.40817C11.8832 8.33849 10.7751 12.6337 9.85764 16.2831C-0.156622 19.1241 -0.271958 21.7093 0.104628 22.4552L1.85916 25.9322L8.85428 29.4829L12.1546 26.0435V30.1955C12.1546 30.1955 18.7551 31.7379 24.5728 30.5513C30.391 29.3648 33.5231 27.823 33.5231 27.823L32.6277 25.2128L35.4255 26.5175L37.6189 23.8809C37.9111 23.5298 38.0449 23.0613 37.9866 22.5976Z" fill="black"/>
</svg>
