<svg xmlns="http://www.w3.org/2000/svg" width="1000" height="1000" viewBox="0 0 1000 1000">
  <path d="M539.518 339.062a5.3 5.3 0 0 0 2.252-.602 5 5 0 0 0 1.149-.837 5.7 5.7 0 0 0 1.472-2.446 5.5 5.5 0 0 0 .049-3.084 4.6 4.6 0 0 0-.602-1.335 7 7 0 0 0-.434-.563 3.14 3.14 0 0 0-.062-1.479 3.5 3.5 0 0 0-1.584-2.06 3.74 3.74 0 0 0-2.656-.347 7.7 7.7 0 0 0-4.657 3.293 6.55 6.55 0 0 0-.988 3.17 6.03 6.03 0 0 0 .776 3.158 5.86 5.86 0 0 0 5.285 3.132M591.947 337.753a5.01 5.01 0 0 0 4.993.18 4.8 4.8 0 0 0 1.066-.781 5.3 5.3 0 0 0 1.364-2.277 5.14 5.14 0 0 0 .04-2.853 4.3 4.3 0 0 0-.555-1.24 12 12 0 0 0-.26-.36 2.6 2.6 0 0 0-.08-1.152 3.48 3.48 0 0 0-1.585-2.06l-.824-.348a3.5 3.5 0 0 0-1.832 0 6.93 6.93 0 0 0-4.178 2.977 6 6 0 0 0-.893 2.908 5.54 5.54 0 0 0 .72 2.895 5.8 5.8 0 0 0 2.024 2.111M451.088 338.471a9.22 9.22 0 0 0-7.242-3.063 3.7 3.7 0 0 0-2.438 1.01 3.5 3.5 0 0 0-1.01 2.437c.078 1.74 1.523 3.608 3.448 3.448a5.5 5.5 0 0 1 .744.015q.206.052.408.118a7 7 0 0 1 .665.39c.102.091.208.179.305.274a5.62 5.62 0 0 0-2.031 3.995c-.274 3.53 3.414 6.242 6.714 5.346a5.47 5.47 0 0 0 3.689-3.51 7.64 7.64 0 0 0-.102-4.289 14.1 14.1 0 0 0-3.15-6.17M548.989 278.796a71.4 71.4 0 0 0-26.421 3.162 3.52 3.52 0 0 0-2.408 4.24 3.486 3.486 0 0 0 4.241 2.409 65.9 65.9 0 0 1 24.588-2.916 3.447 3.447 0 0 0 0-6.895M592.646 278.734a3.447 3.447 0 0 0 0 6.894 52 52 0 0 1 8.733.18q.477.051.954.113l.57.083q1.049.165 2.09.371c1.426.285 2.836.637 4.232 1.047a3.448 3.448 0 1 0 1.833-6.648 53.8 53.8 0 0 0-18.412-2.04M563.435 424.007a3.448 3.448 0 1 0 3.48-5.953 16 16 0 0 1-1.218-.743c-.14-.128-.288-.246-.427-.376a11 11 0 0 1-.51-.51c-.034-.036-.14-.175-.245-.305.018.053-.027.036-.196-.208-.01-.006-.027-.027-.035-.028l.024.011a10 10 0 0 1-.826-1.424q-.164-.351.11.281a3.1 3.1 0 0 1-.37-1.12c-.005-.023-.066-.245-.11-.433a6 6 0 0 1-.023-.277q-.016-.296-.011-.59 0-.18.012-.356l.006-.07.03-.138q.074-.33.178-.65.03-.094.063-.184l.014-.033q.075-.15.158-.298.135-.247.288-.484.092-.143.19-.28.225-.313-.198.25c-.048-.123.734-.79.852-.895.013-.012.013-.01.026-.02a1 1 0 0 1-.119.064 1 1 0 0 0 .156-.098c.163-.138.172-.125.092-.056.108-.078.214-.161.306-.217.168-.102.343-.19.515-.283q.33-.089.662-.17a1 1 0 0 1 .114-.029q.173-.042.342-.087l-.261.073a1.4 1.4 0 0 1 .221-.023 7 7 0 0 1 .668.033 3.46 3.46 0 0 0 3.448-3.448 3.54 3.54 0 0 0-3.448-3.447c-5.19-.453-10.227 3.958-11.016 9a13.26 13.26 0 0 0 7.058 13.521m-.339-10.878a.45.45 0 0 1-.022-.187z"/>
  <path d="M564.697 409.174a1 1 0 0 0 .13-.089c-.032.023-.061.036-.092.057zM564.319 415.913a1.4 1.4 0 0 1 .196.207.46.46 0 0 0-.207-.224zM566.309 408.416a.8.8 0 0 0 .195-.044l-.081.014zM510.87 386.826c4.437 0 4.445-6.895 0-6.895-4.436 0-4.443 6.895 0 6.895M460.975 338.364a3 3 0 0 1-.295.067 1.4 1.4 0 0 0 .295-.067"/>
  <path d="M432.439 657.717c-1.551 4.023-3.145 8.032-4.65 12.073a16.2 16.2 0 0 0-1.357 5.52 9.2 9.2 0 0 0 1.378 4.51 61.5 61.5 0 0 0 6.022 8.023q3.538 4.376 7.11 8.728 7.33 8.93 14.8 17.745 14.746 17.406 30.023 34.35 26.683 29.601 54.93 57.737 14.917-16.282 29.256-33.084c19.312-22.696 37.863-46.14 54.418-70.94q5.865-8.785 11.325-17.832 2.542-4.236 4.967-8.54c1.65-2.935 3.842-6.103 4.277-9.516.415-3.26-1.841-6.004-3.8-8.343q-4.03-4.813-8.271-9.445-8.274-9.063-17.257-17.442a3.487 3.487 0 0 1 .697-5.414q16.436-10.49 32.871-20.983c1.394-.89 3.572-1.932 4.2-3.589.68-1.793-.63-4.254-1.227-5.917a280 280 0 0 0-4.516-11.667c-3.472-8.452-7.278-16.766-11.212-25.01-6.918-14.498-14.3-28.774-21.927-42.91l-.239-.042q-1.558-.266-3.117-.525-1.896-.315-3.794-.622c-.552-.089-1.103-.183-1.655-.27-.036-.006-.069-.004-.105-.008l-1.23-.195q-.074-.664-.183-1.33c-.443-2.69-1.464-5.305-4.073-6.531a14 14 0 0 0-1.68-.648c-.03-.01-.098-.037-.17-.064-.09-.051-.25-.136-.36-.194-.005-.036-.55-.463-.595-.515-.501-.587-.913-1.277-1.374-1.898-1.886-2.533-3.87-4.991-5.903-7.406-3.995-4.745-8.171-9.333-12.127-14.11q-2.295-2.771-4.414-5.674c.007-2.137-.03-4.272-.094-6.408 13.684-2.263 25.97-10.354 34.988-20.941a83.7 83.7 0 0 0 13.67-22.574c3.887-9.46 5.8-19.658 6.828-29.797 1.664-16.439.62-32.937-.15-49.414a30.3 30.3 0 0 0-.7-27.347c-.112-12.498-.213-25-1.514-37.441a141.4 141.4 0 0 0-5.01-26.156 33.2 33.2 0 0 0 10.76-3.644c7.166-4.058 10.796-12.226 7.653-20.114a21.3 21.3 0 0 0-6.458-8.708c.323-.056.647-.09.97-.157a21.26 21.26 0 0 0 13.383-8.755c3.305-5.037 3.075-11.34.684-16.682-2.375-5.304-6.934-9.292-12.067-11.852a67.4 67.4 0 0 0-16.83-5.292 121 121 0 0 0-17.54-2.227 122.4 122.4 0 0 0-34.935 3.25 120.2 120.2 0 0 0-21.014 7.18 9.3 9.3 0 0 0-1.108-3.426c-3.993-7.209-14.184-6.043-20.881-4.683a84.13 84.13 0 0 0-41.739 22.469 81.5 81.5 0 0 0-15.937 21.916 4 4 0 0 0-.374 1.22q-.683.673-1.35 1.358-.277.285-.55.573-.914.956-1.8 1.938l-.159.175a92.7 92.7 0 0 0-11.132 15.33l-.105.178c-.113.195-.23.385-.342.58-.131.23-.246.47-.376.702q-.904 1.613-1.748 3.262c-.15.29-.304.578-.45.87l-.097.186a110 110 0 0 0-1.686 3.57c-.283.624-.553 1.253-.824 1.881q-.459 1.066-.895 2.139c-.284.698-.571 1.394-.842 2.096q-.657 1.707-1.26 3.43c-.272.776-.526 1.556-.782 2.337q-.304.929-.595 1.861c-.239.768-.478 1.536-.702 2.309q-.52 1.793-.993 3.6c-.166.643-.319 1.287-.476 1.93q-.328 1.347-.632 2.699c-.117.524-.236 1.048-.346 1.573a165 165 0 0 0-3.26 25.246c-.048.884-.083 1.769-.118 2.653-.013.095-.009.193-.013.29q-.168 4.419-.132 8.843a21 21 0 0 0-6.441 5.03 27 27 0 0 0-2.015 2.697q-.422.618-.807 1.261c-.059.1-.124.193-.181.292a26.8 26.8 0 0 0-2.77 6.733 28 28 0 0 0-.2.794c-.058.251-.107.506-.158.76a27.5 27.5 0 0 0-.616 6.495 30.56 30.56 0 0 0 8.434 19.798 28.9 28.9 0 0 0 8.53 6.266c.145.073.296.136.443.205.26.12.516.245.778.356l.016.007c3.9 32.965 5.993 66.386 3.675 99.543-.17 2.424-.38 4.842-.61 7.258a110 110 0 0 0-14.425 10.412 80 80 0 0 0-12.69 13.168 23 23 0 0 0-4.386 10.156q-2.67.278-5.34.568-.86.098-1.72.197-1.882.215-3.763.438-1.196 2.998-2.315 6.028c-1.81 4.88-3.53 9.795-5.233 14.714-3.218 9.29-6.344 18.613-9.686 27.86-1.374 3.801-2.778 7.595-4.32 11.332a133 133 0 0 1-2.082 4.812c-1.184 2.578-2.68 5.587-1.934 8.486 1.218 4.736 6.879 7.612 10.772 10.058l18.45 11.593 36.902 23.186a3.48 3.48 0 0 1 1.584 3.894zM538.39 772.974q-12.654-23.605-24.83-47.461l.228-1.512 17.694-117.973 2.2-14.666a3.64 3.64 0 0 0-1.584-3.894 110 110 0 0 1-19.086-15.854l.59-.33c.397-.223.796-.442 1.19-.667q2.418-1.378 4.805-2.809c.19-.114.376-.234.565-.349.121-.073.245-.14.366-.215.311-.19.617-.388.927-.582.77-.474 1.545-.942 2.31-1.426q.368-.235.736-.481c.285-.18.575-.354.86-.535q.048-.033.098-.063c.299-.185.593-.377.895-.558 2.413-1.443 4.225-1.32 6.845-.326.346.13.687.276 1.032.41l.437.185c.346.144.692.293 1.038.437l.015.007q3.595 1.517 7.19 3.031l5.434 2.293c-3.371 4.44-6.753 8.873-10.077 13.347a22 22 0 0 0-4.101 7.851c-.837 3.556-.266 7.138.356 10.675q10.337 58.517 18.505 117.39.76 5.476 1.492 10.954-7.533 21.756-16.13 43.12m59.97-231.411q.177-.515.355-1.028a937 937 0 0 1-39.29 174.793q-7.065-50.708-15.73-101.174-1.245-7.243-2.524-14.479c-.466-2.647-.958-5.422-.063-8.032.829-2.42 2.62-4.53 4.14-6.544q4.806-6.36 9.614-12.716l5.594 2.358.022.01c3.34 1.408 6.942 3.441 10.597 4.332a12 12 0 0 0 3.237.49 10.18 10.18 0 0 0 7.903-4.207c.133-.166.257-.342.388-.511q.341-.427.665-.876l.017-.024a62 62 0 0 0 4.681-7.517 139 139 0 0 0 8.292-18.917c.088-.24.166-.482.253-.722q.948-2.609 1.848-5.236zm-1.388-29.3zm-.005.089c-.184-.082-.115-.055 0 0m24.786-166.997a25 25 0 0 1-1.057 1.76 23.8 23.8 0 0 1-4.477 4.897 21 21 0 0 1-2.502 1.713 24 24 0 0 1-2.872 1.425 19.82 19.82 0 0 1-13.17.483 21.1 21.1 0 0 1-10.524-7.445c-.053-.078-.282-.394-.317-.445-.18-.262-.362-.522-.536-.787q-.418-.64-.8-1.304a22 22 0 0 1-1.472-3.025 25.5 25.5 0 0 1-1.597-6.88 27 27 0 0 1-.002-3.858 3 3 0 0 0 .42-.955 3.9 3.9 0 0 0-.056-1.828 23.4 23.4 0 0 1 2.613-7.245 21.9 21.9 0 0 1 9.618-9.124 20.23 20.23 0 0 1 12.578-1.502 21.23 21.23 0 0 1 13.547 9.811c.08 8.108.244 16.207.605 24.309zM565.86 242.257q1.862 1.31 3.75 2.58l-2.568 3.813q-1.925-1.298-3.824-2.632zm-7.35-5.379q1.814 1.379 3.651 2.724l-2.715 3.71q-1.87-1.369-3.717-2.773zm-7.168-5.635q1.77 1.438 3.562 2.847l-2.84 3.614q-1.82-1.43-3.62-2.892zm-7.008-5.853q1.733 1.486 3.485 2.95l-2.947 3.528q-1.775-1.483-3.53-2.99zm-6.871-6.032q1.702 1.525 3.42 3.036l-3.033 3.454q-1.736-1.525-3.455-3.067zm-23.794 40.224c9.364 3.003 19.236 4.313 29.013 5.06 8.432.643 18.834.21 24.25-7.363a15.16 15.16 0 0 0 2.732-8.076c.652.309 1.312.6 1.974.888l1.769-2.76q1.731 1.11 3.487 2.187l.375.23-1.269 2.057q2.197.781 4.443 1.425l.665-1.29c.851.438 1.636.805 2.4 1.122q.754.311 1.519.579l-.247.707c1.428.325 2.865.62 4.311.872l.093-.422c1.3.285 2.725.535 4.357.766l-.045.311q2.252.283 4.514.462l.025-.224.904.098-.02.197c3.591.255 7.187.328 10.745.237 1.6-.042 3.223-.102 4.85-.203a114 114 0 0 1 3.669 15.058c2.256 12.855 2.693 25.947 2.855 38.996a28.3 28.3 0 0 0-8.012-4.815c-11.071-4.34-23.84-.267-31.046 8.977a30 30 0 0 0-2.577 3.903c-1.745-2.136-6.162-1.438-6.191 2.12-.015 1.795.002 3.59.02 5.385a33 33 0 0 0-7.143.885 29.58 29.58 0 0 0-17.842-21.27c-11.071-4.34-23.84-.267-31.046 8.978a30.6 30.6 0 0 0-5.616 11.824h-41.457a44.4 44.4 0 0 0 12.677-17.103c-1.077-.24-2.15-.5-3.201-.799l1.256-4.421c1.19.337 2.408.63 3.63.885a64 64 0 0 0 2.45-9.474q.446-2.49.742-4.998c-.482-.158-.966-.313-1.444-.479l1.504-4.343c.122.043.246.08.368.122a93 93 0 0 0 .06-11.04c-.492-9.09-1.88-18.095-2.874-27.136-.255-2.32-.481-4.645-.663-6.974 7.341 8.976 17.958 15.306 29.036 18.86zm46.297 74.09a24.23 24.23 0 0 1-4.05 13.442 23.8 23.8 0 0 1-4.477 4.898 21 21 0 0 1-2.502 1.712 24 24 0 0 1-2.872 1.425 19.8 19.8 0 0 1-13.17.484 21.1 21.1 0 0 1-10.524-7.446c-.053-.077-.282-.394-.317-.444-.18-.263-.362-.522-.536-.788q-.418-.64-.8-1.304a22 22 0 0 1-1.472-3.024 25.5 25.5 0 0 1-1.597-6.88 24.3 24.3 0 0 1 2.975-13.886 21.9 21.9 0 0 1 9.618-9.125 20.23 20.23 0 0 1 12.578-1.501c10.326 2.254 17.07 11.952 17.146 22.437zm-80.519-51.286a86 86 0 0 0 4.103 1.79l-1.725 4.26a91 91 0 0 1-4.323-1.884zm-4.388 24.698a59 59 0 0 1-4.404-1.866l1.963-4.156a54 54 0 0 0 4.06 1.72zm-3.517-28.897a87 87 0 0 0 3.899 2.204l-2.158 4.058a93 93 0 0 1-4.105-2.319zm-7.425-4.996a87 87 0 0 0 3.647 2.595l-2.566 3.813a90 90 0 0 1-3.842-2.734zm4.598 25.828-2.299 3.982a60 60 0 0 1-4.04-2.556l2.612-3.782c1.2.83 2.453 1.621 3.727 2.357zm-10.526-7.942c1.042 1.013 2.147 2 3.283 2.934l-2.918 3.55a57 57 0 0 1-3.57-3.19zm3.54 46.97a5 5 0 0 1-.63.282 3.5 3.5 0 0 0 .63-.282m-18.14 24.712c-.034-.012-.064-.031-.1-.044a22.8 22.8 0 0 1-8.857-5.85 24.66 24.66 0 0 1-6.361-12.897 19 19 0 0 1-.188-2.65q-.004-.247-.002-.492.01-.608.056-1.22.017-.217.039-.433.053-.578.136-1.156.085-.558.2-1.113c.03-.149.052-.298.085-.446a22.2 22.2 0 0 1 2.944-7.032 15.73 15.73 0 0 1 6.637-5.85q.089-.043.176-.08a13.3 13.3 0 0 1 5.227-1.133 12.26 12.26 0 0 1 11.355 7.065 42.5 42.5 0 0 0 1.729 6.558 3.61 3.61 0 0 0 4.015 2.445.25.25 0 0 1-.209-.044 2.6 2.6 0 0 0 .563-.043l.025-.002c-.03.01-.055.012-.084.021.032-.009.063-.01.095-.021.507-.02 1.015-.04 1.52-.082a10.4 10.4 0 0 0 4.635-1.228 5.45 5.45 0 0 0 2.68-3.655h40.833a30.86 30.86 0 0 0 4.028 15.754 27.87 27.87 0 0 0 29.702 13.666c13.39-2.81 22.202-15.667 22.384-28.93a30 30 0 0 1 2.977-.669c.243-.04.493-.093.739-.113.114-.008.225-.017.279-.023q.841-.084 1.686-.122c.284-.013.568-.008.852-.013.022.65.029 1.3.055 1.949.183 4.43.15 9.149 1.383 13.442a16.55 16.55 0 0 0 3.061 5.903c.971 1.202 2.454 2.506 2.946 3.748a5.14 5.14 0 0 1 .168 3.245 4.3 4.3 0 0 1-.632 1.589 5.5 5.5 0 0 1-.993 1.23 3.56 3.56 0 0 0-1.236 4.716c.855 1.462 3.221 2.366 4.716 1.237a12.5 12.5 0 0 0 5.19-10.451c-.015-.414-.064-.83-.118-1.244a27.3 27.3 0 0 0 21.322 4.506 26.5 26.5 0 0 0 12.991-6.96c.334 7.21.623 14.42.607 21.637-.04 19.04-2.198 38.72-11.93 55.464-7.813 13.445-20.127 25.305-35.594 29.033a40.3 40.3 0 0 1-8.15 1.083q-.147.005-.293.009c-.88.023-1.761.025-2.647-.004-.084-.002-.155.014-.235.016-3.115-.063-6.238-.333-9.292-.659a101.9 101.9 0 0 1-29.192-7.528 3.56 3.56 0 0 0-4.717 1.236c-.852 1.457-.48 3.973 1.237 4.717a110.7 110.7 0 0 0 41.81 9.06c.13.017.25.048.39.053.731.028 1.5.069 2.279.088q.074 2.722.07 5.447c-.02.063-.046.119-.064.185l-.008.033c-2.598 9.818-4.5 20.314-9.033 29.154-.138.267-.27.538-.413.804-.155.287-.32.565-.479.848-.187.332-.37.667-.563.992-.109.183-.224.358-.335.539-.258.42-.515.841-.785 1.253l-.098.144a54 54 0 0 1-6.406 7.908l-.011.01q-.718.737-1.463 1.45-.094.089-.187.175c-2.66 2.532-5.504 4.89-8.201 7.39-.163.152-.33.3-.491.453-.347.326-.685.663-1.026.996-.237.233-.479.462-.712.697-.289.292-.565.595-.847.894-.273.288-.55.572-.815.867-.24.266-.465.545-.697.818-.266.312-.541.616-.798.937l-.105.136-.039.046c-.08.1-.154.205-.233.306q-.301.387-.592.778-.08.112-.158.223-.341.47-.667.947-.034.053-.069.106-.36.535-.7 1.082l-.016.027a28.8 28.8 0 0 0-3.06 6.654c-.092-.148-.191-.29-.285-.436q-.268-.425-.547-.84-.457-.68-.936-1.344-.27-.37-.547-.734a47 47 0 0 0-1.044-1.338c-.176-.216-.358-.426-.538-.64-.38-.449-.759-.896-1.155-1.332-.159-.175-.326-.344-.488-.517a55 55 0 0 0-4.134-3.978c-.308-.268-.612-.541-.927-.803-.303-.252-.615-.496-.924-.743-.4-.32-.8-.641-1.209-.953q-.411-.31-.828-.614-.697-.515-1.405-1.014-.363-.253-.73-.501-.79-.539-1.595-1.056-.313-.202-.627-.4-.888-.559-1.79-1.092l-.505-.3q-.98-.57-1.975-1.112-.199-.11-.398-.22-.176-.098-.35-.194c-.477-.253-.96-.494-1.44-.74-.247-.126-.492-.256-.74-.38a100 100 0 0 0-2.1-1.014q-.134-.065-.268-.13-.02-.007-.039-.017c-2.838-1.326-5.73-2.531-8.645-3.68q-.523-.206-1.047-.411-.536-.21-1.074-.418c-4.409-1.705-8.854-3.325-13.25-5.057q-1.108-.438-2.222-.89c-3.189-1.31-6.339-2.708-9.41-4.29-1.731-.892-3.556-1.863-5.353-2.943a51 51 0 0 1-4.343-3.014 23.7 23.7 0 0 1-7.058-8.705c4.506-31.44 3.959-63.48 1.42-95.066a721 721 0 0 0-2.476-25.038 27.7 27.7 0 0 0 7.75-.055c1.843-.275 2.859-2.601 2.408-4.24-.542-1.975-2.392-2.684-4.24-2.408a18.44 18.44 0 0 1-8.226-.65 3 3 0 0 0-.631-.275m-16.099 166.61q-1.545-2.045-3.032-4.133c-.4-.561-.806-1.117-1.2-1.682a50.6 50.6 0 0 1-4.146-6.542 14.7 14.7 0 0 1-1.452-4.908c-.002-.02-.009-.04-.011-.06a9.4 9.4 0 0 1 .193-2.775c1.16-5.152 5.176-9.237 8.772-12.863a99 99 0 0 1 12.939-11.017 20.9 20.9 0 0 0 1.17 6.394c.44 3.365 3.489 6.929 5.598 9.157q.027.026.052.05c5.133 5.486 12.259 9.228 18.967 12.288q.198.088.396.175.37.167.743.33c13.642 6.062 28.418 9.884 40.96 18.125.182.12.366.235.546.357.376.252.744.522 1.117.783a52.6 52.6 0 0 1 7.96 6.851 39 39 0 0 1 3.436 4.208l.053.074q.742 1.058 1.405 2.169.058.095.114.19a36 36 0 0 1 1.411 2.656c.756 1.715 1.193 4.108 2.823 5.062a13.5 13.5 0 0 0 2.946.982 3.1 3.1 0 0 0 2.84-.478 3.55 3.55 0 0 0 1.459-3.228 4 4 0 0 0-.058-.535 12.3 12.3 0 0 1-.203-2.067v-.002q-.007-.51.026-1.018.006-.06.012-.118.03-.449.09-.893c.01-.071.025-.14.035-.211q.058-.4.139-.796.029-.128.059-.254c.056-.25.114-.5.183-.75q.036-.126.074-.25.108-.376.231-.747l.078-.216q.136-.39.29-.777l.062-.15q.173-.42.364-.837l.03-.061a26 26 0 0 1 3.3-5.226l.067-.085q.204-.251.413-.496c.276-.324.564-.636.849-.952.27-.299.535-.602.812-.894.26-.275.529-.54.794-.809.295-.297.586-.598.886-.89.264-.256.533-.505.8-.757.313-.295.623-.592.94-.882q.41-.375.826-.747.478-.432.958-.861.647-.574 1.297-1.144.457-.402.912-.806.657-.579 1.312-1.161.277-.25.553-.502.61-.548 1.214-1.104c.185-.173.364-.35.548-.524.378-.358.76-.714 1.13-1.08l.028-.029.023-.022c.31-.307.587-.632.887-.944.636-.66 1.28-1.315 1.878-1.997.319-.365.606-.748.914-1.118.55-.66 1.108-1.313 1.624-1.993.26-.342.491-.702.743-1.048.53-.73 1.066-1.458 1.56-2.209.175-.267.329-.545.5-.815a61 61 0 0 0 1.575-2.58c.1-.176.185-.359.282-.535a64 64 0 0 0 1.572-2.988c.047-.097.087-.198.134-.294a68 68 0 0 0 1.507-3.342c.049-.116.089-.237.137-.354a74 74 0 0 0 1.3-3.38c.125-.355.23-.72.35-1.077.3-.888.603-1.772.873-2.676l.023-.082.015-.047c.276-.928.527-1.863.785-2.797.148-.536.307-1.07.45-1.608.368-1.377.72-2.76 1.068-4.142q.042-.165.084-.328.277-1.102.551-2.206c5.735 7.106 12.082 13.712 17.668 20.944 1.653 2.14 3.022 4.786 5.465 6.131a12 12 0 0 0 1.632.714c.112.041.59.215.812.287.07.235.212.713.26.918a16.6 16.6 0 0 1 .417 3.458c-.01.098-.035.186-.038.288a36 36 0 0 1-.643 5.773c-.582 2.628-1.442 5.213-2.238 7.66-1.157 3.562-2.323 7.13-3.55 10.679q-.11.308-.22.617c-1.252 3.59-2.583 7.158-4.05 10.666q-.36.862-.731 1.718-.349.806-.709 1.606a112 112 0 0 1-1.542 3.292c-.084.171-.175.338-.26.51q-.757 1.52-1.569 3.018c-.354.654-.707 1.31-1.078 1.957-.083.143-.17.302-.258.466a57 57 0 0 1-3.49 5.475 7.4 7.4 0 0 1-1.329 1.46 4.3 4.3 0 0 1-.816.46l-.037.014a4 4 0 0 1-.378.115 4.24 4.24 0 0 1-2.07-.18 32 32 0 0 1-2.088-.72c-.504-.236-.991-.472-1.437-.658q-2.893-1.214-5.781-2.437l-.013-.006-1.66-.7c-6.952-2.932-13.891-5.9-20.855-8.806-3.692-1.638-7.704-3.783-11.775-3.551-.31.016-.614.052-.917.097a9.5 9.5 0 0 0-1.476.295 14 14 0 0 0-2.139.832 69.5 69.5 0 0 0-8.765 5.309q-4.967 2.964-10.063 5.703c-.054.03-.091.07-.143.102a236 236 0 0 1-3.241 1.705c-1.559.799-3.162 1.653-4.796 2.488-1.82.86-3.656 1.68-5.509 2.44-3.197 1.312-6.612 2.327-10.048 2.01-4.228-.505-7.926-2.975-11.455-5.455-.641-.452-1.273-.916-1.909-1.374q-1.8-1.3-3.569-2.642c-.286-.217-.575-.43-.86-.648q-2.108-1.62-4.168-3.3c-.326-.265-.648-.536-.972-.804q-1.665-1.373-3.298-2.785-.532-.458-1.063-.917-1.99-1.745-3.937-3.54c-.229-.212-.453-.43-.68-.641q-1.944-1.815-3.836-3.681-.444-.433-.884-.867-2.062-2.057-4.063-4.174c-.305-.322-.605-.647-.908-.972q-1.849-1.981-3.646-4.01c-.158-.178-.32-.353-.477-.532q-1.945-2.217-3.817-4.498-.447-.54-.889-1.085-1.786-2.197-3.508-4.442c-.185-.244-.364-.49-.548-.734m13.857 42.427q-6.434-14.943-12.674-29.969.947 1.125 1.91 2.234.55.636 1.103 1.268 1.858 2.109 3.769 4.172c.29.313.589.617.881.927q1.603 1.698 3.246 3.36c.223.226.437.46.662.684.19.19.388.37.578.56a195 195 0 0 0 4.177 4.041 197 197 0 0 0 4.524 4.089l.524.456q4.293 3.749 8.786 7.258c1.903 1.48 3.835 3.016 5.816 4.495 4.461 3.367 9.3 6.546 14.647 7.665.097.02.193.047.29.066.172.034.345.057.517.085q.494.086.994.146.26.029.52.052.502.043 1.01.06c.12.004.24.02.36.022.069 0 .138-.005.206-.005q.06.002.122.003c.172 0 .343-.012.514-.017 7.612-.174 15.17-4.26 21.906-7.888q.51-.266 1.02-.533a118 118 0 0 0 19.893 17.064l-17.932 119.556-.501 3.343q-9.625-19.08-18.937-38.314-25.12-51.903-47.93-104.88z"/>
  <path d="M974.9 30.15c-.01-.533 0-1.069 0-1.603a3.5 3.5 0 0 0-3.448-3.447H66.822c-12.216 0-24.456-.224-36.671 0-.534.01-1.07 0-1.603 0a3.5 3.5 0 0 0-3.448 3.447v904.63c0 12.216-.225 24.457 0 36.672.01.534 0 1.07 0 1.604a3.5 3.5 0 0 0 3.448 3.447H353.68q-3.344-19.696-5.937-39.51a994 994 0 0 1-4.352-215.92 3.52 3.52 0 0 1 3.447-3.446 3.474 3.474 0 0 1 3.448 3.447q-2.673 30.077-3.523 60.276a995 995 0 0 0 2.845 107.825q3.546 43.89 11.028 87.328h174.46q.238-10.699.572-21.394 1.09-33.957 3.251-67.868 2.11-33.106 5.245-66.133c-.045-.04-.092-.066-.136-.11q-18.715-18.36-36.78-37.37-32.035-33.721-61.917-69.404-7.513-8.972-14.884-18.06c-4.421-5.453-10.482-11.266-10.896-18.699-.218-3.934 1.5-7.685 2.88-11.266l4.366-11.327 7.945-20.609-40.48-25.434c-5.97-3.75-12.225-7.25-17.927-11.4-4.925-3.584-9.355-8.502-8.782-15.037.307-3.502 1.778-6.618 3.216-9.774.306-.671.6-1.348.891-2.027l.346-.827q.263-.64.52-1.28c1.608-4.006 3.088-8.063 4.539-12.127 3.443-9.646 6.69-19.36 10.066-29.028 1.696-4.857 3.38-9.745 5.233-14.56-.558.072-1.117.139-1.674.213-.968.13-1.934.267-2.901.4-1.506.207-3.011.414-4.515.632-1.191.174-2.38.36-3.57.541-1.285.197-2.572.39-3.857.595-1.332.213-2.66.44-3.99.664-1.157.195-2.315.385-3.47.588-1.356.238-2.71.492-4.063.742-1.151.213-2.304.422-3.453.644-1.249.24-2.495.497-3.741.749-.998.202-1.999.391-2.996.6q-.736.156-1.474.314l-.135.028-.256.056a366 366 0 0 0-13.884 3.22l-.3.078q-1.428.363-2.854.745-.68.18-1.357.367-.9.246-1.798.497-1.2.336-2.396.688-.39.113-.778.229a151 151 0 0 0-26.986 10.611q-.054.03-.11.056-1.312.687-2.605 1.407c-.185.101-.373.197-.557.3-.177.1-.348.21-.524.31-.31.176-.625.344-.933.524-.312.183-.616.382-.927.568q-.7.42-1.393.854-.874.547-1.737 1.117c-.426.28-.85.56-1.272.848q-.917.623-1.822 1.27-.551.392-1.098.792-.987.722-1.957 1.47a102 102 0 0 0-.873.677q-1.08.848-2.141 1.724-.304.25-.607.504-1.188.993-2.352 2.02-.16.14-.32.282-1.302 1.155-2.575 2.35l-.027.025a165 165 0 0 0-19.423 22.11l-.027.036q-.9 1.215-1.778 2.435c-.113.156-.23.31-.341.467q-.172.244-.343.49c-.222.31-.45.621-.668.933-.218.31-.427.624-.642.935q-.594.855-1.18 1.716-.522.771-1.035 1.548-.613.922-1.216 1.852-.478.74-.949 1.484-.612.964-1.214 1.937-.453.732-.898 1.469-.599.988-1.188 1.98-.437.741-.867 1.485-.574.991-1.14 1.987-.437.773-.865 1.55-.537.97-1.066 1.943-.445.823-.882 1.65-.496.936-.984 1.876-.455.877-.9 1.758-.454.897-.903 1.799-.464.938-.919 1.879-.412.85-.82 1.704-.476 1.002-.94 2.01-.373.8-.74 1.604-.483 1.064-.954 2.13-.338.763-.672 1.525-.483 1.107-.953 2.22-.311.733-.62 1.467-.473 1.135-.934 2.274l-.59 1.46q-.45 1.127-.888 2.257-.297.762-.592 1.526-.414 1.082-.818 2.17-.308.824-.612 1.65-.366 1-.723 2c-.142.398-.29.794-.43 1.192-.047.135-.09.272-.138.407q-.16.45-.319.898c-.323.928-.62 1.862-.932 2.792-.388 1.152-.782 2.302-1.154 3.458-.37 1.144-.718 2.295-1.073 3.443-.358 1.159-.723 2.316-1.067 3.478-.338 1.143-.656 2.29-.98 3.434-.334 1.18-.674 2.357-.994 3.539-.304 1.125-.59 2.255-.881 3.383-.313 1.207-.631 2.414-.93 3.625-.271 1.104-.525 2.213-.785 3.32-.293 1.242-.59 2.483-.87 3.728-.237 1.065-.458 2.133-.685 3.2-.277 1.295-.558 2.59-.82 3.888-.202 1.003-.388 2.008-.582 3.012-.264 1.37-.532 2.74-.78 4.112-.168.926-.321 1.854-.482 2.781-.252 1.455-.507 2.911-.743 4.369-.135.838-.257 1.677-.387 2.516-.24 1.554-.483 3.107-.705 4.663-.106.734-.2 1.472-.3 2.207-.229 1.66-.457 3.321-.666 4.984-.08.638-.15 1.276-.228 1.914-.214 1.764-.426 3.53-.619 5.295-.059.54-.11 1.078-.166 1.616-.198 1.864-.39 3.728-.566 5.593-.044.473-.082.945-.125 1.418a508 508 0 0 0-.5 5.784c-.037.468-.068.937-.104 1.405a547 547 0 0 0-.42 5.771c-.04.594-.07 1.188-.108 1.782-.113 1.785-.224 3.57-.321 5.357-.052.956-.093 1.911-.14 2.868-.063 1.287-.133 2.574-.189 3.862l-.011.318-.02.39c-.081 1.947-.136 3.898-.208 5.847-.101 2.746-.212 5.49-.294 8.237-.043 1.462-.066 2.924-.104 4.386-.085 3.324-.173 6.647-.23 9.972-.023 1.287-.029 2.576-.047 3.863-.05 3.48-.099 6.96-.12 10.442-.01 1.501-.001 3.004-.006 4.506-.009 3.25-.02 6.5-.007 9.75.008 2.045.035 4.088.052 6.134.022 2.698.036 5.396.072 8.095.035 2.65.09 5.3.138 7.951.038 2.096.067 4.192.112 6.287.065 3.006.149 6.012.228 9.017.046 1.754.084 3.508.135 5.26.08 2.777.177 5.552.269 8.327.062 1.888.116 3.778.183 5.665l.023.657.006.167.05 1.372c.814 22.58 1.847 45.24 3.826 67.788q.034.383.07.765.241 2.722.5 5.441c.052.548.11 1.096.163 1.643.15 1.528.3 3.056.46 4.582.079.757.165 1.512.246 2.268.142 1.321.283 2.643.433 3.963.104.91.216 1.82.323 2.73.138 1.169.273 2.34.418 3.51.125 1.009.259 2.016.388 3.024.129.995.251 1.992.384 2.987l.032.228.03.23q.192 1.41.394 2.818c.066.462.128.925.195 1.387l.017.124H42.761c-3.535 0-7.2-.254-10.766-.11V42.76c0-3.535.255-7.2.11-10.767H957.24c3.535 0 7.2.255 10.766.112v901.071c0 11.602-.191 23.225-.019 34.828H804.502c-3.913-34.789-6.775-69.699-9.661-104.585-3.316-40.075-6.446-80.167-10.042-120.22-1.694-18.858-3.478-37.712-5.633-56.525q-.45-3.92-.91-7.845c-.098-.836-.203-1.673-.302-2.509-.213-1.78-.424-3.559-.645-5.338-.14-1.121-.29-2.241-.433-3.362-.192-1.499-.381-2.998-.583-4.495-.164-1.219-.343-2.436-.515-3.654-.197-1.398-.39-2.796-.598-4.192-.187-1.256-.393-2.508-.591-3.762-.215-1.36-.424-2.72-.651-4.077-.21-1.252-.442-2.5-.665-3.75-.242-1.358-.479-2.716-.737-4.071-.236-1.233-.494-2.461-.744-3.692-.277-1.367-.551-2.735-.848-4.1-.262-1.202-.55-2.401-.828-3.6-.247-1.068-.474-2.138-.735-3.202-.132-.538-.272-1.079-.408-1.617-.026-.105-.048-.211-.075-.316-.044-.176-.093-.354-.138-.53q-.335-1.315-.687-2.63l-.146-.55q-.439-1.633-.903-3.268l-.018-.064a202 202 0 0 0-3.261-10.437q-.03-.082-.057-.166-.548-1.589-1.127-3.169l-.17-.46q-.525-1.42-1.077-2.831l-.31-.789q-.492-1.237-1.006-2.463-.237-.566-.477-1.13-.45-1.05-.919-2.09-.324-.725-.656-1.445-.405-.876-.824-1.744-.415-.864-.843-1.722-.362-.723-.734-1.44-.502-.97-1.02-1.932-.327-.604-.662-1.203-.58-1.04-1.18-2.068-.308-.522-.621-1.04-.64-1.064-1.304-2.11-.313-.491-.633-.979-.673-1.032-1.37-2.044-.358-.515-.721-1.024-.67-.94-1.36-1.864c-.122-.162-.237-.332-.36-.495-.185-.243-.38-.475-.57-.716-.242-.312-.474-.632-.721-.94-9.55-11.904-23.06-20.354-36.652-26.919-.435-.21-.879-.403-1.316-.61q-1.851-.881-3.721-1.723-.953-.429-1.91-.848-2.14-.94-4.301-1.833-.832-.343-1.665-.68-2.181-.88-4.379-1.719-.947-.362-1.897-.715-2.019-.749-4.05-1.468-1.222-.43-2.45-.851-1.727-.593-3.46-1.162-1.564-.515-3.131-1.01-1.418-.45-2.84-.885-1.833-.562-3.67-1.104-1.253-.37-2.507-.728-1.851-.53-3.706-1.043c-.41-.113-.817-.234-1.227-.345-.485-.132-.973-.253-1.46-.385-.641-.171-1.281-.353-1.923-.522-.577-.152-1.157-.291-1.734-.44q-1.896-.492-3.797-.966-1.523-.378-3.048-.747-2.023-.488-4.05-.96-1.492-.347-2.985-.682-1.998-.45-4-.883-1.591-.346-3.184-.68-1.868-.392-3.74-.77-1.764-.357-3.53-.703-1.691-.33-3.384-.65c-.72-.138-1.44-.269-2.16-.402q4.359 8.179 8.598 16.42c8.92 17.428 17.513 35.11 24.64 53.359q1.174 3.005 2.274 6.037c.874 2.414 1.858 4.937 1.753 7.55-.242 6.042-5.808 8.894-10.3 11.762l-26.508 16.921q8.738 8.388 16.813 17.43c3.066 3.448 6.407 6.91 8.907 10.803a14.72 14.72 0 0 1 1.714 12.89c-1.226 3.674-3.315 7.06-5.222 10.412q-2.575 4.526-5.283 8.973-5.714 9.398-11.899 18.5c-8.62 12.75-17.784 25.125-27.241 37.266-17.647 22.652-36.397 44.443-55.794 65.612 1.04 1.026 2.075 2.059 3.118 3.082a3.36 3.36 0 0 1 2.516 3.287q-1.832 19.183-3.325 38.398-2.628 33.873-4.186 67.817-1.171 25.52-1.736 51.064H693.28a412 412 0 0 0-17.237-62.2c-1.07-2.94 2.723-5.366 5.1-3.895q2.103-21 4.014-42.016 4.005-44.456 7.068-88.99 3.062-44.532 5.18-89.12c.21-4.425 7.105-4.436 6.894 0q-1.192 25.07-2.68 50.124-2.65 44.556-6.242 89.052-3.592 44.49-8.127 88.9a4.06 4.06 0 0 1-1.541 2.712q2.082 6.13 3.978 12.322a410 410 0 0 1 10.57 43.111h77.796c5.588.001 11.186.084 16.778.063q2.796-.01 5.59-.063h132.757c12.217 0 24.457.224 36.672 0 .534-.01 1.07 0 1.603 0a3.18 3.18 0 0 0 2.332-.922c.041-.034.078-.075.117-.11.021-.024.044-.044.063-.068a3.18 3.18 0 0 0 .936-2.347V66.823c0-12.216.225-24.457 0-36.672M518.157 837.806a2 2 0 0 1 .09-.33 5.2 5.2 0 0 1 1.207-2.036 4.67 4.67 0 0 1 2.068-1.205 3.46 3.46 0 0 1 1.833 0l.823.347a3.6 3.6 0 0 1 .439.339 3 3 0 0 1 .432.077 3.86 3.86 0 0 1 2.06 1.585 4.86 4.86 0 0 1 .586 2.115 4.5 4.5 0 0 1-.14 1.33 4.9 4.9 0 0 1-.489 1.222 6 6 0 0 1-.76 1.03 5.8 5.8 0 0 1-.988.816 2 2 0 0 1-.34.203 5.3 5.3 0 0 1-1.162.454 5 5 0 0 1-1.267.136 4.8 4.8 0 0 1-2.088-.566 5 5 0 0 1-.94-.687 4.9 4.9 0 0 1-.766-.935 5.6 5.6 0 0 1-.496-1.087 2 2 0 0 1-.102-.348 7.6 7.6 0 0 1-.15-1.2 7 7 0 0 1 .15-1.26m-4.489 42.528a2 2 0 0 1 .09-.329 5.2 5.2 0 0 1 1.207-2.037 4.67 4.67 0 0 1 2.068-1.205 3.46 3.46 0 0 1 1.833 0l.823.347a3.6 3.6 0 0 1 .438.339 3 3 0 0 1 .432.077 3.86 3.86 0 0 1 2.06 1.585 4.86 4.86 0 0 1 .587 2.115 4.6 4.6 0 0 1-.14 1.331 4.9 4.9 0 0 1-.49 1.221 6 6 0 0 1-.76 1.029 5.8 5.8 0 0 1-.987.817 2 2 0 0 1-.34.203 5.3 5.3 0 0 1-1.162.453 4.9 4.9 0 0 1-1.267.136 4.8 4.8 0 0 1-2.088-.565 5 5 0 0 1-.94-.687 5 5 0 0 1-.766-.935 5.5 5.5 0 0 1-.496-1.086 2 2 0 0 1-.103-.35 7.6 7.6 0 0 1-.15-1.2 7 7 0 0 1 .151-1.26m-4.489 42.529a1.8 1.8 0 0 1 .09-.33 5.2 5.2 0 0 1 1.207-2.037 4.7 4.7 0 0 1 2.068-1.205 3.5 3.5 0 0 1 1.833 0l.823.348a3.5 3.5 0 0 1 .438.338 3 3 0 0 1 .432.077 3.86 3.86 0 0 1 2.06 1.585 4.86 4.86 0 0 1 .587 2.115 4.6 4.6 0 0 1-.14 1.33 4.9 4.9 0 0 1-.489 1.222 6 6 0 0 1-.76 1.029 5.8 5.8 0 0 1-.988.817 2 2 0 0 1-.34.204 5.3 5.3 0 0 1-1.162.452 4.9 4.9 0 0 1-1.267.136 4.8 4.8 0 0 1-2.088-.566 5 5 0 0 1-.94-.685 5 5 0 0 1-.766-.936 5.5 5.5 0 0 1-.496-1.086 2 2 0 0 1-.102-.35 7.6 7.6 0 0 1-.15-1.2 7 7 0 0 1 .15-1.258m156.824-65.636 3.248 3.252q-1.633 1.631-3.276 3.248l-3.225-3.275q1.632-1.608 3.253-3.225m-6.53 6.427 3.205 3.297q-1.655 1.607-3.319 3.202l-3.181-3.317q1.653-1.585 3.296-3.182m-6.612 6.343 3.16 3.338q-1.675 1.585-3.36 3.16l-3.138-3.36q1.674-1.562 3.338-3.138m-6.696 6.254 3.115 3.38q-1.696 1.562-3.4 3.114l-3.094-3.4q1.694-1.542 3.38-3.094zm-6.779 6.166 3.071 3.42q-1.715 1.54-3.442 3.069l-3.047-3.44q1.714-1.519 3.418-3.05m-50.593 47.023-2.72-3.705q1.846-1.356 3.685-2.723l2.744 3.688q-1.85 1.377-3.71 2.74m7.399-5.505-2.768-3.67q1.83-1.38 3.65-2.771l2.79 3.651q-1.832 1.401-3.672 2.79m7.327-5.601-2.815-3.634q1.81-1.402 3.61-2.818l2.842 3.614q-1.814 1.425-3.637 2.838m7.252-5.699-2.862-3.595q1.791-1.426 3.573-2.865l2.888 3.575q-1.794 1.45-3.599 2.885m6.323 27.842-2.427-3.903q1.934-1.204 3.847-2.44l2.497 3.858q-1.948 1.261-3.917 2.485m.854-33.632-2.909-3.56q1.773-1.45 3.537-2.911l2.933 3.54q-1.776 1.47-3.56 2.93m7.643-12.367 2.98 3.5q-1.756 1.494-3.521 2.977l-2.957-3.519q1.754-1.473 3.498-2.958m-.709 40.961-2.565-3.813q1.89-1.273 3.757-2.577l2.633 3.769q-1.9 1.328-3.825 2.621m7.646-46.947 3.026 3.461q-1.736 1.519-3.482 3.024l-3.003-3.48q1.735-1.497 3.46-3.005m-.043 41.636-2.7-3.719q1.843-1.338 3.663-2.709l2.765 3.672q-1.852 1.394-3.728 2.756m7.408-5.58-2.83-3.62q1.794-1.403 3.564-2.838l2.895 3.571q-1.801 1.46-3.629 2.887m7.205-5.837-2.957-3.52q1.744-1.464 3.461-2.96l3.02 3.464q-1.749 1.524-3.524 3.016zm6.993-6.093-3.08-3.411q1.691-1.527 3.354-3.083l3.141 3.356q-1.693 1.585-3.415 3.138m6.772-6.336-3.2-3.301q1.636-1.584 3.242-3.198l3.259 3.24q-1.636 1.645-3.301 3.26m6.543-6.576-3.316-3.182q1.577-1.643 3.125-3.314l3.372 3.122q-1.575 1.702-3.181 3.374m5.098-42.493-3.268-3.232q1.318-1.333 2.629-2.67l3.285 3.214q-1.32 1.348-2.646 2.688"/>
</svg>