<svg xmlns="http://www.w3.org/2000/svg" viewBox="0 0 1000 250">
  <g stroke="#fff" stroke-opacity=".1">
    <path fill="hsl(0, 75%, 50%)" d="M0 0h50v25H0z"/>
    <path fill="hsl(-14.353975266514697, 75%, 50%)" d="M50 0h50v25H50z"/>
    <path fill="hsl(-28.433125700146306, 75%, 50%)" d="M100 0h50v25h-50z"/>
    <path fill="hsl(-41.96921254684066, 75%, 50%)" d="M150 0h50v25h-50z"/>
    <path fill="hsl(-54.70702146636743, 75%, 50%)" d="M200 0h50v25h-50z"/>
    <path fill="hsl(-66.41050752, 75%, 50%)" d="M250 0h50v25h-50z"/>
    <path fill="hsl(-76.86850548810642, 75%, 50%)" d="M300 0h50v25h-50z"/>
    <path fill="hsl(-85.89987061593736, 75%, 50%)" d="M350 0h50v25h-50z"/>
    <path fill="hsl(-93.35792344730959, 75%, 50%)" d="M400 0h50v25h-50z"/>
    <path fill="hsl(-99.13371465482308, 75%, 50%)" d="M450 0h50v25h-50z"/>
    <path fill="hsl(-103.14704621037033, 75%, 50%)" d="M500 0h50v25h-50z"/>
    <path fill="hsl(-105.32880378689433, 75%, 50%)" d="M550 0h50v25h-50z"/>
    <path fill="hsl(-105.62697443083421, 75%, 50%)" d="M600 0h50v25h-50z"/>
    <path fill="hsl(-104.01636244906506, 75%, 50%)" d="M650 0h50v25h-50z"/>
    <path fill="hsl(-100.505625248362, 75%, 50%)" d="M700 0h50v25h-50z"/>
    <path fill="hsl(-95.14171776000002, 75%, 50%)" d="M750 0h50v25h-50z"/>
    <path fill="hsl(-88.01188025871744, 75%, 50%)" d="M800 0h50v25h-50z"/>
    <path fill="hsl(-79.2433282462508, 75%, 50%)" d="M850 0h50v25h-50z"/>
    <path fill="hsl(-69.00082907097467, 75%, 50%)" d="M900 0h50v25h-50z"/>
    <path fill="hsl(-57.48237809686447, 75%, 50%)" d="M950 0h50v25h-50z"/>
    <path fill="hsl(0, 75%, 50%)" d="M0 25h50v25H0z"/>
    <path fill="hsl(-14.30806094816477, 75%, 50%)" d="M50 25h50v25H50z"/>
    <path fill="hsl(-28.341957434572798, 75%, 50%)" d="M100 25h50v25h-50z"/>
    <path fill="hsl(-41.834100503347194, 75%, 50%)" d="M150 25h50v25h-50z"/>
    <path fill="hsl(-54.52990458544521, 75%, 50%)" d="M200 25h50v25h-50z"/>
    <path fill="hsl(-66.1939222701146, 75%, 50%)" d="M250 25h50v25h-50z"/>
    <path fill="hsl(-76.61554476298663, 75%, 50%)" d="M300 25h50v25h-50z"/>
    <path fill="hsl(-85.614133248, 75%, 50%)" d="M350 25h50v25h-50z"/>
    <path fill="hsl(-93.0434549317632, 75%, 50%)" d="M400 25h50v25h-50z"/>
    <path fill="hsl(-98.7952581434996, 75%, 50%)" d="M450 25h50v25h-50z"/>
    <path fill="hsl(-102.79519302365907, 75%, 50%)" d="M500 25h50v25h-50z"/>
    <path fill="hsl(-104.98212775753484, 75%, 50%)" d="M550 25h50v25h-50z"/>
    <path fill="hsl(-105.30854727267366, 75%, 50%)" d="M600 25h50v25h-50z"/>
    <path fill="hsl(-103.75080127284714, 75%, 50%)" d="M650 25h50v25h-50z"/>
    <path fill="hsl(-100.31681752052661, 75%, 50%)" d="M700 25h50v25h-50z"/>
    <path fill="hsl(-95.05113399179072, 75%, 50%)" d="M750 25h50v25h-50z"/>
    <path fill="hsl(-88.03739176813441, 75%, 50%)" d="M800 25h50v25h-50z"/>
    <path fill="hsl(-79.39845415280638, 75%, 50%)" d="M850 25h50v25h-50z"/>
    <path fill="hsl(-69.29434326281482, 75%, 50%)" d="M900 25h50v25h-50z"/>
    <path fill="hsl(-57.91820499708496, 75%, 50%)" d="M950 25h50v25h-50z"/>
    <path fill="hsl(0, 75%, 50%)" d="M0 50h50v25H0z"/>
    <path fill="hsl(-14.170978717286399, 75%, 50%)" d="M50 50h50v25H50z"/>
    <path fill="hsl(-28.069767737329588, 75%, 50%)" d="M100 50h50v25h-50z"/>
    <path fill="hsl(-41.4307212008797, 75%, 50%)" d="M150 50h50v25h-50z"/>
    <path fill="hsl(-54.001133656473606, 75%, 50%)" d="M200 50h50v25h-50z"/>
    <path fill="hsl(-65.54734423418144, 75%, 50%)" d="M250 50h50v25h-50z"/>
    <path fill="hsl(-75.8604075761664, 75%, 50%)" d="M300 50h50v25h-50z"/>
    <path fill="hsl(-84.76119709797779, 75%, 50%)" d="M350 50h50v25h-50z"/>
    <path fill="hsl(-92.10481471591024, 75%, 50%)" d="M400 50h50v25h-50z"/>
    <path fill="hsl(-97.78419166004718, 75%, 50%)" d="M450 50h50v25h-50z"/>
    <path fill="hsl(-101.72998173630921, 75%, 50%)" d="M500 50h50v25h-50z"/>
    <path fill="hsl(-103.89144281125928, 75%, 50%)" d="M550 50h50v25h-50z"/>
    <path fill="hsl(-104.22818486066242, 75%, 50%)" d="M600 50h50v25h-50z"/>
    <path fill="hsl(-102.72009421003754, 75%, 50%)" d="M650 50h50v25h-50z"/>
    <path fill="hsl(-99.37575609837035, 75%, 50%)" d="M700 50h50v25h-50z"/>
    <path fill="hsl(-94.23810802097825, 75%, 50%)" d="M750 50h50v25h-50z"/>
    <path fill="hsl(-87.3874586763264, 75%, 50%)" d="M800 50h50v25h-50z"/>
    <path fill="hsl(-78.9418485205864, 75%, 50%)" d="M850 50h50v25h-50z"/>
    <path fill="hsl(-69.05534557486241, 75%, 50%)" d="M900 50h50v25h-50z"/>
    <path fill="hsl(-57.91477105090564, 75%, 50%)" d="M950 50h50v25h-50z"/>
    <path fill="hsl(0, 75%, 50%)" d="M0 75h50v25H0z"/>
    <path fill="hsl(-13.944700167782399, 75%, 50%)" d="M50 75h50v25H50z"/>
    <path fill="hsl(-27.620480800586474, 75%, 50%)" d="M100 75h50v25h-50z"/>
    <path fill="hsl(-40.76491359148573, 75%, 50%)" d="M150 75h50v25h-50z"/>
    <path fill="hsl(-53.12840601599999, 75%, 50%)" d="M200 75h50v25h-50z"/>
    <path fill="hsl(-64.48025467952826, 75%, 50%)" d="M250 75h50v25h-50z"/>
    <path fill="hsl(-74.61426720522238, 75%, 50%)" d="M300 75h50v25h-50z"/>
    <path fill="hsl(-83.35381883076478, 75%, 50%)" d="M350 75h50v25h-50z"/>
    <path fill="hsl(-90.55621844392475, 75%, 50%)" d="M400 75h50v25h-50z"/>
    <path fill="hsl(-96.11626948853761, 75%, 50%)" d="M450 75h50v25h-50z"/>
    <path fill="hsl(-99.96823692243365, 75%, 50%)" d="M500 75h50v25h-50z"/>
    <path fill="hsl(-102.07290683102248, 75%, 50%)" d="M550 75h50v25h-50z"/>
    <path fill="hsl(-102.39997063163808, 75%, 50%)" d="M600 75h50v25h-50z"/>
    <path fill="hsl(-100.93513675565875, 75%, 50%)" d="M650 75h50v25h-50z"/>
    <path fill="hsl(-97.68924733200308, 75%, 50%)" d="M700 75h50v25h-50z"/>
    <path fill="hsl(-92.70402772524075, 75%, 50%)" d="M750 75h50v25h-50z"/>
    <path fill="hsl(-86.0555790067181, 75%, 50%)" d="M800 75h50v25h-50z"/>
    <path fill="hsl(-77.85629938727612, 75%, 50%)" d="M850 75h50v25h-50z"/>
    <path fill="hsl(-68.25421266799952, 75%, 50%)" d="M900 75h50v25h-50z"/>
    <path fill="hsl(-57.429872210253784, 75%, 50%)" d="M950 75h50v25h-50z"/>
    <path fill="hsl(0, 75%, 50%)" d="M0 100h50v25H0z"/>
    <path fill="hsl(-13.632476146361302, 75%, 50%)" d="M50 100h50v25H50z"/>
    <path fill="hsl(-27.000566828236803, 75%, 50%)" d="M100 100h50v25h-50z"/>
    <path fill="hsl(-39.846304511999996, 75%, 50%)" d="M150 100h50v25h-50z"/>
    <path fill="hsl(-51.92441168444521, 75%, 50%)" d="M200 100h50v25h-50z"/>
    <path fill="hsl(-63.0082834001068, 75%, 50%)" d="M250 100h50v25h-50z"/>
    <path fill="hsl(-72.89554086609812, 75%, 50%)" d="M300 100h50v25h-50z"/>
    <path fill="hsl(-81.41302306529279, 75%, 50%)" d="M350 100h50v25h-50z"/>
    <path fill="hsl(-88.42109198008318, 75%, 50%)" d="M400 100h50v25h-50z"/>
    <path fill="hsl(-93.81713768071887, 75%, 50%)" d="M450 100h50v25h-50z"/>
    <path fill="hsl(-97.53812948250926, 75%, 50%)" d="M500 100h50v25h-50z"/>
    <path fill="hsl(-99.5551874692173, 75%, 50%)" d="M550 100h50v25h-50z"/>
    <path fill="hsl(-99.8511386207725, 75%, 50%)" d="M600 100h50v25h-50z"/>
    <path fill="hsl(-98.41947097617447, 75%, 50%)" d="M650 100h50v25h-50z"/>
    <path fill="hsl(-95.27307225329562, 75%, 50%)" d="M700 100h50v25h-50z"/>
    <path fill="hsl(-90.4522923260822, 75%, 50%)" d="M750 100h50v25h-50z"/>
    <path fill="hsl(-84.03031552080166, 75%, 50%)" d="M800 100h50v25h-50z"/>
    <path fill="hsl(-76.11542860308475, 75%, 50%)" d="M850 100h50v25h-50z"/>
    <path fill="hsl(-66.85050611217447, 75%, 50%)" d="M900 100h50v25h-50z"/>
    <path fill="hsl(-56.41005657569744, 75%, 50%)" d="M950 100h50v25h-50z"/>
    <path fill="hsl(0, 75%, 50%)" d="M0 125h50v25H0z"/>
    <path fill="hsl(-13.23878445402292, 75%, 50%)" d="M50 125h50v25H50z"/>
    <path fill="hsl(-26.218937693672572, 75%, 50%)" d="M100 125h50v25h-50z"/>
    <path fill="hsl(-38.68815280771695, 75%, 50%)" d="M150 125h50v25h-50z"/>
    <path fill="hsl(-50.406626720085434, 75%, 50%)" d="M200 125h50v25h-50z"/>
    <path fill="hsl(-61.15295232, 75%, 50%)" d="M250 125h50v25h-50z"/>
    <path fill="hsl(-70.7295848401561, 75%, 50%)" d="M300 125h50v25h-50z"/>
    <path fill="hsl(-78.9677505539526, 75%, 50%)" d="M350 125h50v25h-50z"/>
    <path fill="hsl(-85.73167442418203, 75%, 50%)" d="M400 125h50v25h-50z"/>
    <path fill="hsl(-90.92201403736132, 75%, 50%)" d="M450 125h50v25h-50z"/>
    <path fill="hsl(-94.47839999999997, 75%, 50%)" d="M500 125h50v25h-50z"/>
    <path fill="hsl(-96.37888094543904, 75%, 50%)" d="M550 125h50v25h-50z"/>
    <path fill="hsl(-96.61947940319654, 75%, 50%)" d="M600 125h50v25h-50z"/>
    <path fill="hsl(-95.20158264094357, 75%, 50%)" d="M650 125h50v25h-50z"/>
    <path fill="hsl(-92.14237928962906, 75%, 50%)" d="M700 125h50v25h-50z"/>
    <path fill="hsl(-87.4839703703704, 75%, 50%)" d="M750 125h50v25h-50z"/>
    <path fill="hsl(-81.2990267715905, 75%, 50%)" d="M800 125h50v25h-50z"/>
    <path fill="hsl(-73.69331138220414, 75%, 50%)" d="M850 125h50v25h-50z"/>
    <path fill="hsl(-64.80539819712996, 75%, 50%)" d="M900 125h50v25h-50z"/>
    <path fill="hsl(-54.80393696223955, 75%, 50%)" d="M950 125h50v25h-50z"/>
    <path fill="hsl(0, 75%, 50%)" d="M0 150h50v25H0z"/>
    <path fill="hsl(-12.769257460497773, 75%, 50%)" d="M50 150h50v25H50z"/>
    <path fill="hsl(-25.2868025253888, 75%, 50%)" d="M100 150h50v25h-50z"/>
    <path fill="hsl(-37.30713360261119, 75%, 50%)" d="M150 150h50v25h-50z"/>
    <path fill="hsl(-48.597027244065416, 75%, 50%)" d="M200 150h50v25h-50z"/>
    <path fill="hsl(-58.941320700130085, 75%, 50%)" d="M250 150h50v25h-50z"/>
    <path fill="hsl(-68.14827264620885, 75%, 50%)" d="M300 150h50v25h-50z"/>
    <path fill="hsl(-76.05437146030077, 75%, 50%)" d="M350 150h50v25h-50z"/>
    <path fill="hsl(-82.52846899199997, 75%, 50%)" d="M400 150h50v25h-50z"/>
    <path fill="hsl(-87.47512740209297, 75%, 50%)" d="M450 150h50v25h-50z"/>
    <path fill="hsl(-90.83648760794573, 75%, 50%)" d="M500 150h50v25h-50z"/>
    <path fill="hsl(-92.59101417043277, 75%, 50%)" d="M550 150h50v25h-50z"/>
    <path fill="hsl(-92.74464580730879, 75%, 50%)" d="M600 150h50v25h-50z"/>
    <path fill="hsl(-91.3111752078829, 75%, 50%)" d="M650 150h50v25h-50z"/>
    <path fill="hsl(-88.3163636182051, 75%, 50%)" d="M700 150h50v25h-50z"/>
    <path fill="hsl(-83.80736620234998, 75%, 50%)" d="M750 150h50v25h-50z"/>
    <path fill="hsl(-77.85875030493314, 75%, 50%)" d="M800 150h50v25h-50z"/>
    <path fill="hsl(-70.57535176059255, 75%, 50%)" d="M850 150h50v25h-50z"/>
    <path fill="hsl(-62.09230683832319, 75%, 50%)" d="M900 150h50v25h-50z"/>
    <path fill="hsl(-52.57262307121876, 75%, 50%)" d="M950 150h50v25h-50z"/>
    <path fill="hsl(0, 75%, 50%)" d="M0 175h50v25H0z"/>
    <path fill="hsl(-12.230590463999999, 75%, 50%)" d="M50 175h50v25H50z"/>
    <path fill="hsl(-24.217484885136503, 75%, 50%)" d="M100 175h50v25h-50z"/>
    <path fill="hsl(-35.723065213184896, 75%, 50%)" d="M150 175h50v25h-50z"/>
    <path fill="hsl(-46.5217274658816, 75%, 50%)" d="M200 175h50v25h-50z"/>
    <path fill="hsl(-56.405536109966135, 75%, 50%)" d="M250 175h50v25h-50z"/>
    <path fill="hsl(-65.18946125168637, 75%, 50%)" d="M300 175h50v25h-50z"/>
    <path fill="hsl(-72.71606956157044, 75%, 50%)" d="M350 175h50v25h-50z"/>
    <path fill="hsl(-78.85954316052724, 75%, 50%)" d="M400 175h50v25h-50z"/>
    <path fill="hsl(-83.52791345111042, 75%, 50%)" d="M450 175h50v25h-50z"/>
    <path fill="hsl(-86.66212115020379, 75%, 50%)" d="M500 175h50v25h-50z"/>
    <path fill="hsl(-88.23856615587837, 75%, 50%)" d="M550 175h50v25h-50z"/>
    <path fill="hsl(-88.26986370181842, 75%, 50%)" d="M600 175h50v25h-50z"/>
    <path fill="hsl(-86.78628185030739, 75%, 50%)" d="M650 175h50v25h-50z"/>
    <path fill="hsl(-83.82651241512959, 75%, 50%)" d="M700 175h50v25h-50z"/>
    <path fill="hsl(-79.44614394667362, 75%, 50%)" d="M750 175h50v25h-50z"/>
    <path fill="hsl(-73.72412426965145, 75%, 50%)" d="M800 175h50v25h-50z"/>
    <path fill="hsl(-66.76603444057865, 75%, 50%)" d="M850 175h50v25h-50z"/>
    <path fill="hsl(-58.70471624632136, 75%, 50%)" d="M900 175h50v25h-50z"/>
    <path fill="hsl(-49.69883525993816, 75%, 50%)" d="M950 175h50v25h-50z"/>
    <path fill="hsl(0, 75%, 50%)" d="M0 200h50v25H0z"/>
    <path fill="hsl(-11.6304318664704, 75%, 50%)" d="M50 200h50v25H50z"/>
    <path fill="hsl(-23.02620367897756, 75%, 50%)" d="M100 200h50v25h-50z"/>
    <path fill="hsl(-33.958581916471786, 75%, 50%)" d="M150 200h50v25h-50z"/>
    <path fill="hsl(-44.21054599004159, 75%, 50%)" d="M200 200h50v25h-50z"/>
    <path fill="hsl(-53.58229651511377, 75%, 50%)" d="M250 200h50v25h-50z"/>
    <path fill="hsl(-61.89635174399997, 75%, 50%)" d="M300 200h50v25h-50z"/>
    <path fill="hsl(-69.002099730373, 75%, 50%)" d="M350 200h50v25h-50z"/>
    <path fill="hsl(-74.77851462920698, 75%, 50%)" d="M400 200h50v25h-50z"/>
    <path fill="hsl(-79.1331361394688, 75%, 50%)" d="M450 200h50v25h-50z"/>
    <path fill="hsl(-82.00543284228387, 75%, 50%)" d="M500 200h50v25h-50z"/>
    <path fill="hsl(-83.37159371612158, 75%, 50%)" d="M550 200h50v25h-50z"/>
    <path fill="hsl(-83.24718386692062, 75%, 50%)" d="M600 200h50v25h-50z"/>
    <path fill="hsl(-81.67856428335563, 75%, 50%)" d="M650 200h50v25h-50z"/>
    <path fill="hsl(-78.72179757954085, 75%, 50%)" d="M700 200h50v25h-50z"/>
    <path fill="hsl(-74.4444336578486, 75%, 50%)" d="M750 200h50v25h-50z"/>
    <path fill="hsl(-68.9324702072832, 75%, 50%)" d="M800 200h50v25h-50z"/>
    <path fill="hsl(-62.294759457860145, 75%, 50%)" d="M850 200h50v25h-50z"/>
    <path fill="hsl(-54.6643490894687, 75%, 50%)" d="M900 200h50v25h-50z"/>
    <path fill="hsl(-46.19623449600001, 75%, 50%)" d="M950 200h50v25h-50z"/>
    <path fill="hsl(-0.0005379411306086221, 75%, 50%)" d="M0 225h50v25H0z"/>
    <path fill="hsl(-10.9773226516647, 75%, 50%)" d="M50 225h50v25H50z"/>
    <path fill="hsl(-21.729820677430997, 75%, 50%)" d="M100 225h50v25h-50z"/>
    <path fill="hsl(-32.038756496179204, 75%, 50%)" d="M150 225h50v25h-50z"/>
    <path fill="hsl(-41.69650563587506, 75%, 50%)" d="M200 225h50v25h-50z"/>
    <path fill="hsl(-50.51223002075629, 75%, 50%)" d="M250 225h50v25h-50z"/>
    <path fill="hsl(-58.31675131953808, 75%, 50%)" d="M300 225h50v25h-50z"/>
    <path fill="hsl(-64.96597216419843, 75%, 50%)" d="M350 225h50v25h-50z"/>
    <path fill="hsl(-70.33967962030081, 75%, 50%)" d="M400 225h50v25h-50z"/>
    <path fill="hsl(-74.3447422462899, 75%, 50%)" d="M450 225h50v25h-50z"/>
    <path fill="hsl(-76.92129405178085, 75%, 50%)" d="M500 225h50v25h-50z"/>
    <path fill="hsl(-78.04706229128728, 75%, 50%)" d="M550 225h50v25h-50z"/>
    <path fill="hsl(-77.73971558400002, 75%, 50%)" d="M600 225h50v25h-50z"/>
    <path fill="hsl(-76.05558878814819, 75%, 50%)" d="M650 225h50v25h-50z"/>
    <path fill="hsl(-73.07100382107002, 75%, 50%)" d="M700 225h50v25h-50z"/>
    <path fill="hsl(-68.8693927310682, 75%, 50%)" d="M750 225h50v25h-50z"/>
    <path fill="hsl(-63.547877659642545, 75%, 50%)" d="M800 225h50v25h-50z"/>
    <path fill="hsl(-57.221679841644075, 75%, 50%)" d="M850 225h50v25h-50z"/>
    <path fill="hsl(-50.024795992473614, 75%, 50%)" d="M900 225h50v25h-50z"/>
    <path fill="hsl(-42.1083206431656, 75%, 50%)" d="M950 225h50v25h-50z"/>
  </g>
</svg>