<svg width="500" height="500" viewBox="0 0 500 500" fill="none" xmlns="http://www.w3.org/2000/svg">
<rect width="500" height="500" fill="white"/>
<path d="M72 99V422H428V78H127.5" stroke="black"/>
<path d="M108.36 32.48C109.64 32.48 110.88 32.76 112.08 33.32C113.32 33.84 114.32 34.58 115.08 35.54C115.88 36.46 116.28 37.46 116.28 38.54C116.28 40.9 114.68 42.08 111.48 42.08C110.56 42.08 109.84 42.02 109.32 41.9C108.84 41.74 108.26 41.5 107.58 41.18C107.46 41.46 107.4 41.86 107.4 42.38C107.4 43.02 107.5 43.78 107.7 44.66C107.94 45.54 108.22 46.36 108.54 47.12C109.38 48.36 109.8 49.84 109.8 51.56C109.8 52.32 109.7 53.24 109.5 54.32C109.02 56.4 107.96 58.3 106.32 60.02C104.72 61.74 102.64 63.1 100.08 64.1C97.56 65.06 94.78 65.54 91.74 65.54C89.42 65.54 87.24 65.38 85.2 65.06C84.6 65.58 84.3 66.22 84.3 66.98C84.3 67.5 84.54 67.94 85.02 68.3C85.5 68.62 86.3 68.78 87.42 68.78H96.42C99.5 68.78 101.9 69.32 103.62 70.4C105.34 71.44 106.2 72.94 106.2 74.9C106.2 75.62 106.08 76.36 105.84 77.12C105.36 78.68 104.26 80.12 102.54 81.44C100.86 82.8 98.48 83.9 95.4 84.74C92.32 85.58 88.58 86 84.18 86C80.26 86 76.94 85.66 74.22 84.98C71.5 84.3 69.48 83.36 68.16 82.16C66.8 81 66.12 79.7 66.12 78.26C66.12 77.94 66.2 77.46 66.36 76.82C66.72 75.66 67.54 74.72 68.82 74C70.06 73.24 72.12 72.74 75 72.5C74.04 71.58 73.56 70.48 73.56 69.2C73.56 68.76 73.62 68.3 73.74 67.82C74.38 65.74 76.26 64.2 79.38 63.2C76.38 61.56 74.88 59.16 74.88 56C74.88 55.12 75 54.2 75.24 53.24C75.72 51.16 76.78 49.28 78.42 47.6C80.06 45.88 82.16 44.52 84.72 43.52C87.28 42.52 90.08 42.02 93.12 42.02C97.88 42.02 101.62 42.64 104.34 43.88C103.74 42.96 103.26 41.98 102.9 40.94C102.58 39.86 102.42 38.88 102.42 38C102.42 36.48 102.9 35.18 103.86 34.1C104.86 33.02 106.36 32.48 108.36 32.48ZM95.34 53.78C95.98 51.74 96.3 50.18 96.3 49.1C96.3 47.74 95.72 47.06 94.56 47.06C93.56 47.06 92.68 47.56 91.92 48.56C91.2 49.52 90.46 51.26 89.7 53.78C89.06 55.86 88.74 57.44 88.74 58.52C88.74 59.84 89.3 60.5 90.42 60.5C91.42 60.5 92.3 60 93.06 59C93.82 58 94.58 56.26 95.34 53.78ZM83.4 74.84C82.28 74.84 81.26 74.78 80.34 74.66C79.86 75.26 79.62 76.06 79.62 77.06C79.66 78.06 80.06 78.78 80.82 79.22C81.62 79.66 82.84 79.88 84.48 79.88C86.48 79.88 88.1 79.58 89.34 78.98C90.62 78.38 91.26 77.52 91.26 76.4C91.26 75.92 91.08 75.54 90.72 75.26C90.36 74.98 89.84 74.84 89.16 74.84H83.4Z" fill="black"/>
<rect x="138.396" y="161.506" width="99" height="99" transform="rotate(-18.315 138.396 161.506)" stroke="black"/>
<path d="M354.529 347.941L266.778 297.278L354.529 246.615L354.529 347.941Z" stroke="black"/>
<path d="M319.529 244.941L231.778 194.278L319.529 143.615L319.529 244.941Z" fill="white" stroke="black"/>
<circle cx="198" cy="340" r="17.5" stroke="black"/>
<circle cx="250" cy="266" r="9.5" stroke="black"/>
<circle cx="331" cy="193" r="15.5" fill="white" stroke="black"/>
<path d="M259.411 326.704L259.412 327.068L272.814 331.39L259.776 335.658L259.431 335.771L259.432 336.134L259.462 349.852L251.374 338.772L251.16 338.478L250.814 338.591L237.776 342.858L245.816 331.742L246.029 331.449L245.815 331.155L237.727 320.074L251.129 324.396L251.342 324.102L259.382 312.985L259.411 326.704Z" stroke="black"/>
<rect x="135.972" y="216.676" width="90.0023" height="51.85" transform="rotate(27.9429 135.972 216.676)" fill="white" stroke="black"/>
</svg>
