<svg xmlns="http://www.w3.org/2000/svg" width="1000" height="1000" viewBox="0 0 1000 1000">
  <path d="m611.318 854.965-13.264-50.582-3.028-11.547a1.577 1.577 0 0 0-2.295-.933c-16.833 10.386-35.379 17.954-54.14 24.064a394.3 394.3 0 0 1-75.65 16.44 414 414 0 0 1-87.1 1.096 402 402 0 0 1-77.729-14.956c-19.737-5.904-39.25-13.338-57.19-23.55a170 170 0 0 1-4.2-2.478l2.752-10.492c16.57 9.418 34.494 16.492 52.636 22.215a401 401 0 0 0 74.064 15.64 413.7 413.7 0 0 0 85.715 1.08 408 408 0 0 0 76.042-14.184c19.717-5.701 39.196-12.928 57.295-22.675q2.786-1.5 5.518-3.092a1.6 1.6 0 0 0 .718-1.764l-6.772-25.82a1.563 1.563 0 0 0-3.012.83l2.281 8.699c-16.73 9.035-34.632 15.856-52.81 21.34a399.8 399.8 0 0 1-71.415 14.475 413.6 413.6 0 0 1-81.356.958 405.4 405.4 0 0 1-73.151-13.134c-19.359-5.373-38.456-12.19-56.375-21.331q-2.728-1.391-5.412-2.863a1.58 1.58 0 0 0-2.295.934l-6.634 25.3L221 840.153l-10.819 41.252-1.138 4.34c-.528 2.013-1.487 3.748-1.435 5.933.116 4.92 3.16 9.355 6.267 12.936 4.822 5.56 10.878 10.065 17 14.085a193 193 0 0 0 26.61 14.33c24.326 10.974 50.185 18.552 76.337 23.695a415 415 0 0 0 189.329-6.705c22.996-6.32 45.877-14.62 66.608-26.539a115 115 0 0 0 20.338-14.336c4.065-3.706 8.124-8.1 9.961-13.391a11.64 11.64 0 0 0-.44-9.134zM767.022 275.414c-1.372-1.476-3.577.737-2.209 2.209l.25.268c-5.179 6.304-10.307 12.655-15.564 18.892a11.2 11.2 0 0 1-1.87 1.871 4.5 4.5 0 0 1-.984.554 1.84 1.84 0 0 1-.927.121 1.61 1.61 0 0 0-1.922 1.091 1.576 1.576 0 0 0 1.091 1.922c4.405.766 7.164-3.764 9.57-6.684l8.744-10.62 5.032-6.112a1.607 1.607 0 0 0 0-2.209zM797.45 285.763c-1.372-1.476-3.577.737-2.21 2.21l.25.267c-5.177 6.304-10.305 12.655-15.562 18.892a11.2 11.2 0 0 1-1.87 1.871 4.5 4.5 0 0 1-.984.554 1.84 1.84 0 0 1-.928.122 1.607 1.607 0 0 0-1.921 1.09 1.575 1.575 0 0 0 1.091 1.922c4.404.766 7.164-3.763 9.569-6.684l8.744-10.62 5.033-6.111a1.607 1.607 0 0 0 0-2.21q-.607-.65-1.212-1.303M827.878 296.112c-1.371-1.475-3.576.737-2.209 2.21l.25.268c-5.179 6.303-10.306 12.654-15.563 18.892a11.2 11.2 0 0 1-1.87 1.87 4.5 4.5 0 0 1-.984.554 1.84 1.84 0 0 1-.928.122 1.607 1.607 0 0 0-1.921 1.09 1.575 1.575 0 0 0 1.09 1.922c4.405.766 7.165-3.763 9.57-6.684l8.745-10.62 5.032-6.111a1.606 1.606 0 0 0 0-2.21q-.606-.65-1.212-1.303M427.548 351.596a10 10 0 0 1 1.673-.965c.079-.031.267-.109.306-.123q.179-.065.361-.123a10 10 0 0 1 .985-.257 2.6 2.6 0 0 1 .5-.09c-.412 0 .132-.013.216-.02q.445-.039.889-.037c.338.002.672.027 1.008.058a9 9 0 0 1 .718.142 1.562 1.562 0 1 0 .83-3.012 11.28 11.28 0 0 0-9.063 1.73 1.6 1.6 0 0 0-.56 2.137 1.58 1.58 0 0 0 2.137.56M418.659 367.088c.408-.192.82-.376 1.229-.565-.04 2.905.165 6.007 1.912 8.407 1.076 1.48 2.847 2.646 4.731 1.986a10.4 10.4 0 0 0 3.923-3.085 16.43 16.43 0 0 0 3.934-8.441 9.34 9.34 0 0 0-.553-5.263 2.5 2.5 0 0 0-2.23-1.747 8.4 8.4 0 0 0-2.651.881q-6.016 2.373-11.872 5.13a1.575 1.575 0 0 0-.56 2.137 1.597 1.597 0 0 0 2.137.56m9.961-4.351q.814-.327 1.63-.647c.215-.084.558-.242.873-.37.026.072.057.142.079.215a5 5 0 0 1 .212 1.293 9 9 0 0 1-.065 1.43 1.4 1.4 0 0 0-1.024.195 35 35 0 0 1-4.043 2.263l-.194.086-.137.055q-.213.083-.427.161-.57.206-1.157.355a10 10 0 0 1-.944.19c-.037 0-.334.03-.408.035-.026-.88-.003-1.765.022-2.64a2 2 0 0 0-.018-.251c.794-.351 1.587-.703 2.385-1.043q1.601-.681 3.216-1.327M430.043 341.235a26 26 0 0 1 1.626-.783l.321-.129q.24-.09.483-.173.45-.152.912-.262.212-.05.426-.089l.128-.02.062-.007a8 8 0 0 1 .893-.015l.1.005.01.002c.153.035.306.063.457.108.085.024.578.13.183.049a1.7 1.7 0 0 1 .431.228 1.562 1.562 0 0 0 1.577-2.697c-2.973-1.748-6.408-.359-9.186 1.086a1.574 1.574 0 0 0-.56 2.137 1.6 1.6 0 0 0 2.137.56M324.973 212.806l.472 2.028a51 51 0 0 0 2.06-.525l-.556-2.007c-.656.182-1.32.352-1.976.504M320.972 213.551l.286 2.063a45 45 0 0 0 2.104-.343l-.383-2.047c-.669.125-1.344.235-2.007.327M332.765 210.347l.76 1.939q.984-.386 1.956-.8l-.817-1.916q-.945.402-1.899.777M328.907 211.72l.63 1.985c.66-.21 1.335-.437 2.008-.677l-.7-1.962c-.65.232-1.302.452-1.938.654M310.843 213.685a41 41 0 0 1-2.013-.271l-.329 2.056c.701.112 1.412.208 2.114.285zM319.137 215.854l-.183-2.074c-.667.058-1.349.101-2.026.126l.079 2.082a42 42 0 0 0 2.13-.134M314.898 213.932a42 42 0 0 1-2.03-.074l-.128 2.079c.709.043 1.426.07 2.133.078zM336.545 208.739l.865 1.895q.958-.438 1.906-.898l-.909-1.874q-.926.449-1.862.877M343.93 204.992l-.03.016 1.036 1.807a24 24 0 0 0 1.839-1.1l-1.161-1.728c-.57.382-1.17.722-1.684 1.005M296.329 211.663c.64.309 1.293.605 1.944.88l.811-1.918a41 41 0 0 1-1.85-.837zM347.051 202.813l1.502 1.443a6.5 6.5 0 0 0 1.363-2.053l-1.931-.78a4.4 4.4 0 0 1-.934 1.39M340.254 206.944l.945 1.856q.936-.477 1.863-.97l-.977-1.84q-.911.485-1.831.954M304.328 214.597c.686.179 1.384.342 2.076.487l.427-2.038a43 43 0 0 1-1.979-.464zM300.258 213.326c.664.243 1.344.474 2.02.685l.62-1.988c-.643-.201-1.29-.42-1.924-.653zM567.396 324.297q1.05.05 2.102.078l.057-2.081q-1.03-.028-2.061-.077zM590.366 321.14l-.844-1.904c-.603.268-1.23.52-1.866.752l.713 1.957a32 32 0 0 0 1.996-.804M586.33 322.615l-.59-1.997c-.632.186-1.29.36-1.956.515l.474 2.028a38 38 0 0 0 2.071-.546M573.715 324.39l-.048-2.082q-.86.02-1.722.02h-.332l-.009 2.082h.34q.888 0 1.771-.02M559.045 323.69q1.034.092 2.08.181l.175-2.075q-1.04-.088-2.07-.18zM577.946 324.155l-.19-2.074c-.656.06-1.342.11-2.04.148l.114 2.08a60 60 0 0 0 2.115-.154M563.21 324.037q1.043.079 2.09.145l.13-2.079q-1.033-.065-2.065-.143zM603.115 311.19l-1.507-1.438-.907.948 1.502 1.443zM600.736 313.646l-1.477-1.468c-.52.523-1 .99-1.465 1.428l1.425 1.518c.484-.454.981-.938 1.517-1.478M582.165 323.593l-.37-2.05a44 44 0 0 1-2.01.312l.274 2.065a46 46 0 0 0 2.106-.327M594.17 319.114l-1.113-1.76c-.558.353-1.14.691-1.731 1.006l.978 1.838a29 29 0 0 0 1.866-1.084M597.63 316.548l-1.35-1.586c-.531.452-1.06.875-1.574 1.258l1.245 1.67c.549-.41 1.114-.86 1.679-1.342M377.97 551.809l2.061.3q.15-1.028.305-2.055l-2.059-.31q-.157 1.031-.307 2.064M378.592 547.68l2.058.32q.159-1.027.324-2.052l-2.057-.33q-.165 1.03-.325 2.063M377.382 555.94l2.064.285q.14-1.03.287-2.059l-2.062-.292q-.146 1.033-.289 2.067M376.833 560.079l2.065.265q.133-1.03.27-2.06l-2.065-.275q-.138 1.035-.27 2.07M397.316 470.676l1.955.72q.356-.969.73-1.929l-1.939-.758q-.383.979-.746 1.967M400.606 462.906l1.868.923c.304-.616.62-1.227.939-1.815l-1.832-.991c-.33.61-.658 1.244-.975 1.883M391.077 490.627l2.004.567q.284-.999.571-1.997l-2-.578q-.29 1.003-.575 2.008M395.935 474.641l1.977.657q.326-.98.665-1.959l-1.967-.684q-.345.992-.675 1.986M394.745 478.347l-.087.276 1.986.627.088-.282q.265-.849.538-1.7l-1.983-.635q-.275.857-.542 1.714M392.236 486.615l1.998.587q.293-.997.59-1.993l-1.996-.595q-.298 1-.592 2M393.43 482.616l1.992.603q.3-.994.607-1.987l-1.99-.613q-.308.998-.61 1.996M398.854 466.754l1.92.808q.398-.948.821-1.882l-1.895-.861q-.437.96-.846 1.935M379.251 543.558l2.056.339q.168-1.026.341-2.051l-2.054-.346q-.173 1.028-.343 2.058M415.67 443.14l1.866.923a10 10 0 0 0 .795-2.18l-2.03-.464a8 8 0 0 1-.632 1.721M402.631 459.175l1.789 1.066c.35-.587.714-1.167 1.08-1.723l-1.737-1.147a47 47 0 0 0-1.132 1.804M410.673 449.332l1.468 1.478a69 69 0 0 0 1.48-1.51l-1.51-1.433c-.473.498-.957.987-1.438 1.465M408.809 451.166c-.37.366-.743.752-1.11 1.148l1.53 1.414q.51-.551 1.046-1.083l.376-.372-1.46-1.484zM404.982 455.62l1.678 1.233c.405-.552.823-1.09 1.243-1.6l-1.61-1.322c-.443.539-.884 1.107-1.31 1.688M413.465 446.363l1.59 1.344c.509-.602.945-1.166 1.333-1.724l-1.709-1.19a21 21 0 0 1-1.214 1.57M382.247 527.132l2.042.41q.205-1.02.413-2.037l-2.04-.418q-.21 1.022-.415 2.045M383.96 518.963l2.035.443q.221-1.014.448-2.028l-2.032-.454q-.227 1.019-.451 2.038M383.086 523.044l2.038.427q.213-1.018.431-2.033l-2.037-.436q-.218 1.02-.432 2.042M389.954 494.646l2.009.552q.275-1.002.555-2.003l-2.007-.56q-.28 1.005-.557 2.011M379.946 539.442l2.052.356q.177-1.024.36-2.047l-2.05-.365q-.184 1.028-.362 2.056M380.677 535.332l2.05.374q.185-1.022.377-2.043l-2.048-.383q-.192 1.026-.379 2.052M381.444 531.23l2.046.39q.194-1.02.395-2.04l-2.044-.4q-.201 1.024-.397 2.05M388.867 498.677l2.013.533q.266-1.004.537-2.007l-2.01-.543q-.273 1.008-.54 2.017M387.815 502.716l2.017.517q.258-1.007.52-2.013l-2.015-.525q-.264 1.01-.522 2.02M384.87 514.888l2.03.463q.232-1.013.467-2.025l-2.029-.472q-.235 1.016-.468 2.033M386.797 506.765l2.023.497q.248-1.008.501-2.015l-2.02-.508q-.254 1.012-.504 2.026M385.816 510.822l2.027.48q.24-1.01.484-2.02l-2.025-.49q-.245 1.015-.486 2.03M397.274 92.644l3.334 3.25 10.071 9.818 9.035 8.806c.683.666 1.37 1.33 2.051 2a4.33 4.33 0 0 1 1.32 3.856c-.449 2.835-.971 5.66-1.456 8.489l-2.456 14.32-1.885 10.988a16 16 0 0 0-.384 2.962 7.375 7.375 0 0 0 6.57 7.087c2.907.335 5.727-1.659 8.2-2.96l11.926-6.27 11.89-6.25 3.352-1.763a4.57 4.57 0 0 1 4.354-.317c2.076 1.028 4.107 2.16 6.157 3.237l12.606 6.628 10.825 5.69c.725.382 1.447.77 2.176 1.144a7.283 7.283 0 0 0 10.603-7.963q-.25-1.468-.503-2.935l-2.15-12.538-2.368-13.806-.773-4.503a9.1 9.1 0 0 1-.262-2.46 5.38 5.38 0 0 1 1.995-3.246l2.991-2.916 9.836-9.588 9.404-9.166 2.454-2.392a7.7 7.7 0 0 0 2.495-5.162 7.354 7.354 0 0 0-5.177-7.317 17 17 0 0 0-2.4-.415l-11.169-1.623-14.355-2.086c-2.78-.404-5.562-.798-8.341-1.212a4.43 4.43 0 0 1-3.598-2.558c-.417-.837-.828-1.678-1.242-2.517l-5.532-11.208q-3.12-6.325-6.243-12.65l-2.827-5.729a7.273 7.273 0 0 0-13.078.251l-3.932 7.967-6.443 13.056-4.84 9.807a7.8 7.8 0 0 1-1.647 2.57 6.05 6.05 0 0 1-3.31 1.136l-10.46 1.52-14.443 2.098-9.226 1.34a7.268 7.268 0 0 0-4.815 11.826 20 20 0 0 0 1.67 1.704m66.598-53.266c-.054-.044-.125-.109 0 0M397.085 86.04c.004-.061.04-.304.039-.326.03-.151.059-.303.1-.452q.056-.206.127-.408.033-.092.07-.184l.018-.034a7.5 7.5 0 0 1 .51-.857c.032-.034.17-.203.206-.242q.172-.186.36-.356c.035-.032.153-.126.193-.16q.213-.155.44-.287a5 5 0 0 1 .464-.237l.059-.02q.109-.04.221-.076a6.4 6.4 0 0 1 .941-.214c.176-.028.353-.051.53-.077l9.402-1.366 14.273-2.074 10.34-1.503a8.55 8.55 0 0 0 3.854-1.283 8.85 8.85 0 0 0 2.819-3.552l4.557-9.233 6.387-12.94 4.278-8.668q.129-.266.261-.531a4.06 4.06 0 0 1 2.022-2.052c.019-.01.1-.045.152-.069l.07-.026c.16-.048.317-.105.478-.147.13-.034.259-.059.389-.084.005.002.245-.035.32-.04a7 7 0 0 1 .925.017c.31.023.071.013.008 0 .07.014.14.025.21.041.162.039.324.075.484.124.07.02.287.098.352.118.059.03.27.13.335.166a7 7 0 0 1 .605.38l.044.037a5.7 5.7 0 0 1 .686.701l.037.057q.068.097.132.197c.117.183.22.373.318.566l2.964 6.006 6.192 12.545 5.48 11.102c.402.817.802 1.636 1.209 2.45a7.32 7.32 0 0 0 5.361 3.979c2.536.395 5.081.738 7.621 1.107l14.056 2.043 11.683 1.697c.71.103 1.42.199 2.129.31q.17.024.338.058.236.047.466.113c.048.013.383.13.406.13a5.6 5.6 0 0 1 .865.485l.098.072q.053.044.104.089c.142.132.283.262.414.404.038.04.183.219.212.248q.122.17.233.35c.087.143.158.292.24.437l.032.063c.026.068.089.223.088.22a8 8 0 0 1 .236.893l.008.031q.01.096.017.19.021.286.012.572c-.003.096-.013.191-.016.287l-.008.088-.011.068c-.021.095-.038.19-.06.284a7 7 0 0 1-.194.637 3 3 0 0 1-.075.168 3.9 3.9 0 0 1-.912 1.262q-.202.2-.407.397l-2.571 2.506-9.422 9.184-9.705 9.46-2.924 2.85a9 9 0 0 0-2.583 3.8 9.5 9.5 0 0 0 .007 4.483l.698 4.07 2.297 13.393q1.11 6.463 2.217 12.926l.598 3.488c.03.176.066.351.091.527a4.6 4.6 0 0 1-.096 1.603 6 6 0 0 1-.15.477c-.02.034-.129.289-.152.332q-.128.243-.278.473-.064.098-.133.192l-.024.037-.069.074a4.154 4.154 0 0 1-5.207 1.023c-.791-.412-1.58-.83-2.368-1.245l-10.911-5.736-12.404-6.521c-2.006-1.055-3.999-2.14-6.02-3.165a7.66 7.66 0 0 0-7.26.188l-2.949 1.55-11.448 6.019-12.105 6.364-3.863 2.03-.92.485q-.08.041-.159.083a4 4 0 0 1-.356.167 5 5 0 0 1-.567.177c-.084.02-.621.113-.396.087a3.55 3.55 0 0 1-1.927-.206 5 5 0 0 1-.244-.089l-.03-.015a6 6 0 0 1-.48-.255 2.8 2.8 0 0 1-.731-.55 4.06 4.06 0 0 1-1.29-3.466.8.8 0 0 1 .027-.206q.027-.16.055-.32l.22-1.287 1.921-11.199 2.42-14.105c.47-2.748.95-5.494 1.413-8.243a7.54 7.54 0 0 0-2.052-6.79c-.564-.562-1.14-1.111-1.71-1.666l-8.625-8.407-10.115-9.86c-1.745-1.7-3.507-3.384-5.234-5.101a3.2 3.2 0 0 1-.667-.81 7 7 0 0 1-.258-.465l-.073-.162-.03-.081a6 6 0 0 1-.198-.704l-.042-.246-.006-.053c-.003-.095-.012-.19-.015-.286a5 5 0 0 1 .006-.5M563.66 153.852l2.193 2.138L579 168.805c.482.47.967.937 1.446 1.41a2.5 2.5 0 0 1 .808 2.17c-.251 1.92-.657 3.832-.984 5.739l-2.978 17.361a12.6 12.6 0 0 0-.284 2.096 5.52 5.52 0 0 0 4.47 5.344c2.324.401 4.235-.898 6.19-1.925l16.269-8.553 2.42-1.273a2.68 2.68 0 0 1 2.537-.25c1.43.662 2.81 1.477 4.203 2.21l16.013 8.419c.499.262.994.533 1.497.787a5.473 5.473 0 0 0 7.98-5.958c-.101-.621-.213-1.241-.319-1.862l-3.085-17.987-.55-3.205a7 7 0 0 1-.182-1.453 3.13 3.13 0 0 1 1.2-2.023l2.03-1.978 13.18-12.847 1.687-1.645a5.8 5.8 0 0 0 1.837-3.705 5.51 5.51 0 0 0-3.562-5.537 8.4 8.4 0 0 0-1.825-.377l-17.4-2.528c-1.95-.284-3.903-.556-5.852-.85a2.6 2.6 0 0 1-2.193-1.515c-.28-.554-.55-1.112-.824-1.668l-8.07-16.353-1.942-3.934a5.53 5.53 0 0 0-6.044-2.821 5.45 5.45 0 0 0-3.725 2.945c-.883 1.767-1.748 3.542-2.622 5.313l-7.758 15.719a5.8 5.8 0 0 1-.964 1.625 3.64 3.64 0 0 1-2.138.763l-7.15 1.04-16.217 2.355a5.45 5.45 0 0 0-3.456 1.858 5.52 5.52 0 0 0-.438 6.537 10.4 10.4 0 0 0 1.454 1.603M482.238 253.102l1.584-1.544 10.33-10.07c1.31-1.276 2.653-2.392 2.86-4.362a4.63 4.63 0 0 0-2.54-4.532 6 6 0 0 0-1.851-.493l-13.572-1.972c-1.562-.227-3.126-.442-4.686-.681a1.72 1.72 0 0 1-1.533-1.027c-.22-.426-.425-.862-.638-1.293l-6.321-12.809-1.53-3.1a4.661 4.661 0 0 0-8.22.066c-.679 1.322-1.316 2.667-1.974 3.999l-6.136 12.433a7 7 0 0 1-.598 1.13 2.3 2.3 0 0 1-1.647.654l-5.553.807c-4.25.618-8.502 1.224-12.75 1.853a4.664 4.664 0 0 0-3.396 6.865 16.2 16.2 0 0 0 2.928 3.1l10.303 10.042c.404.395.812.786 1.214 1.184a1.64 1.64 0 0 1 .57 1.386c-.155 1.498-.515 3.003-.77 4.487l-2.334 13.61a11 11 0 0 0-.235 1.714 4.67 4.67 0 0 0 3.543 4.49c1.967.45 3.54-.569 5.187-1.434l12.772-6.715 1.937-1.019a1.82 1.82 0 0 1 1.701-.225c1.11.48 2.173 1.143 3.243 1.705l12.587 6.618c.391.205.779.419 1.173.616a4.628 4.628 0 0 0 6.755-5.019c-.073-.455-.156-.909-.234-1.363l-2.418-14.1a25.4 25.4 0 0 1-.58-3.539 2 2 0 0 1 .829-1.462m11.56-16.974c.05.078.028.049 0 0m-33.346-24.267c-.056-.014-.09-.027 0 0m-33.76 24.288c.045-.17.027-.071 0 0m-.104.796c.045.2.01.083 0 0m52.084 15.776c-.7 1.643-.165 3.475.125 5.164l1.202 7.008 1.2 7.003.359 2.087c.023.134.054.27.07.406-.004.01-.001.128-.002.16a1.47 1.47 0 0 1-.685 1.249c-.053.031-.337.156-.32.16a3 3 0 0 1-.33.091c-.002-.003-.013-.005-.049-.006a3 3 0 0 0-.37-.017 2 2 0 0 1-.304-.085c-.047-.02-.092-.046-.138-.07-.426-.216-.846-.445-1.268-.667l-5.814-3.056c-3.292-1.731-6.553-3.545-9.886-5.198a4.86 4.86 0 0 0-4.55.063c-.483.248-.961.505-1.442.757l-5.975 3.142-6.522 3.428-2.199 1.156-.601.317c-.073.037-.281.13-.293.14a1.53 1.53 0 0 1-2.016-1.547c.01-.144.112-.663.155-.914l1.03-6c.68-3.971 1.402-7.937 2.043-11.914a4.84 4.84 0 0 0-1.269-4.335c-.258-.265-.53-.517-.796-.776l-4.473-4.36c-2.82-2.749-5.687-5.457-8.463-8.25l-.098-.098q-.06-.061-.116-.127l-.077-.117a5 5 0 0 1-.118-.22l-.029-.088a5 5 0 0 1-.066-.266l-.003-.03c0-.094.002-.194-.001-.287l.004-.06c.02-.063.076-.307.09-.364l.01-.038q.078-.15.166-.297l.025-.045a2.5 2.5 0 0 1 .314-.313l.072-.041q.098-.056.197-.11l.02-.01.031-.01a4 4 0 0 1 .547-.13q.14-.022.281-.04l5-.727 13.162-1.912a5.6 5.6 0 0 0 2.018-.6 4.95 4.95 0 0 0 1.983-2.219l2.326-4.713 5.806-11.765q.094-.196.193-.39.047-.095.098-.189.067-.121.147-.236l.02-.02c.04-.045.239-.217.247-.237a3 3 0 0 0 .282-.17c.132-.046.267-.079.402-.114l.008-.002c.072-.002.142-.009.214-.009q.125 0 .248.012l.044.013c.074.024.303.1.356.112.051.032.189.112.27.163-.039-.017.168.169.255.255-.025-.011.193.32.224.378l4.888 9.904 2.93 5.938c.218.442.432.887.655 1.327a4.63 4.63 0 0 0 3.287 2.477c3.729.633 7.497 1.09 11.24 1.633l6.38.927c.454.066.91.125 1.362.198q.105.015.21.035.157.031.31.077c.003 0 .056.02.098.035a1.6 1.6 0 0 0 .314.18 2.6 2.6 0 0 1 .298.296l.023.042c.036.061.07.125.11.185l.029.046q.045.12.078.24c.019.069.032.139.049.208l.008.026-.003.054c-.003.079-.052.471-.02.376-.031.115-.083.294-.082.309a1.8 1.8 0 0 1-.368.511q-.107.106-.215.21l-1.374 1.34-5.018 4.89-5.186 5.056c-1.032 1.008-2.396 2.052-2.973 3.405zm15.238-15.796zM153.743 133.5l2.196 2.14 12.876 12.552c.49.478.985.953 1.472 1.434a2.42 2.42 0 0 1 .796 2.103c-.241 1.88-.643 3.755-.964 5.623l-2.94 17.137a13.4 13.4 0 0 0-.28 2.003 5.46 5.46 0 0 0 4.298 5.337c2.314.47 4.221-.818 6.164-1.839l16.082-8.455 2.378-1.25a2.63 2.63 0 0 1 2.492-.254c1.42.665 2.79 1.466 4.178 2.196l15.743 8.277c.487.256.97.52 1.463.768a5.414 5.414 0 0 0 7.894-5.896c-.102-.62-.213-1.24-.319-1.859l-3.045-17.753-.533-3.111a6.2 6.2 0 0 1-.169-1.502 3.12 3.12 0 0 1 1.17-1.877q1.004-.981 2.01-1.961l12.967-12.64c1.586-1.545 3.297-2.928 3.484-5.33a5.46 5.46 0 0 0-3.516-5.427 8.4 8.4 0 0 0-1.842-.38l-17.093-2.484c-1.924-.28-3.85-.549-5.772-.84a2.52 2.52 0 0 1-2.149-1.476c-.274-.543-.54-1.092-.809-1.639l-7.96-16.128-1.905-3.86a5.465 5.465 0 0 0-5.923-2.8 5.4 5.4 0 0 0-3.737 2.917c-.864 1.728-1.71 3.466-2.566 5.199l-7.669 15.54a6.2 6.2 0 0 1-.87 1.51 3.48 3.48 0 0 1-2.16.81l-6.969 1.013-16.034 2.33a5.36 5.36 0 0 0-3.41 1.817 5.47 5.47 0 0 0-.456 6.476 10 10 0 0 0 1.426 1.579M722.446 98.204c.14-.151-.238.056 0 0"/>
  <path d="m684.07 74.902 7.36 7.173c.309.301.621.6.927.904a2 2 0 0 1 .225.231c.01.016.068.348.064.29l.005.071c-.238 1.018-.355 2.082-.531 3.112l-1.658 9.66a9 9 0 0 0-.18 1.304 3.77 3.77 0 0 0 2.585 3.567c1.53.51 2.798-.208 4.092-.888l9.037-4.75 1.468-.772c.297-.156.502-.304.814-.208a4 4 0 0 1 .607.31l1.674.88 8.967 4.715c.269.141.535.29.807.424a3.728 3.728 0 0 0 5.45-4.047c-.044-.28-.096-.559-.144-.838l-1.698-9.898c-.142-.83-.306-1.659-.429-2.492.025.105-.005-.285-.007-.278.06-.18.086-.171.21-.313.063-.072.14-.136.208-.203l1.084-1.056 7.335-7.15c.904-.882 1.902-1.696 2.147-3.017a3.77 3.77 0 0 0-3.272-4.421l-9.441-1.372c-1.176-.171-2.354-.33-3.528-.513-.467-.073-.655-.135-.866-.513-.157-.282-.287-.582-.43-.87l-4.476-9.069-1.107-2.245a3.76 3.76 0 0 0-6.593.018c-.47.887-.89 1.806-1.335 2.707l-4.386 8.885a6 6 0 0 1-.388.766c-.17.245-.545.29-.95.348l-3.932.572c-3.012.437-6.028.851-9.037 1.313a3.748 3.748 0 0 0-2.8 5.253 9.1 9.1 0 0 0 2.123 2.41m9.635 23.291-.05-.037.053.038zm.2.081c.09.017.122.051 0 0m28.268.02.007.002q-.027.007-.007-.002m9.211-27.668c.06.068.037.072 0 0m-.252-.265.001.001c-.016-.014-.023-.02 0-.001zm.005.004.017.015zm.08.066-.039-.03zm-45.606-.185c1.164-.177 2.33-.338 3.496-.507l9.347-1.359a3.94 3.94 0 0 0 3.097-2.154c.533-1.065 1.054-2.136 1.581-3.204l4.154-8.417c.057-.115.111-.233.171-.347l.025-.05c.02-.038.055-.106.077-.144q.037-.063.052-.095a1 1 0 0 0 .082-.067c-.195.173.022-.02.092-.058l.041-.024.041-.014.122-.031.017-.001q.077.003.15.004c.025.012.127.036.199.055a.3.3 0 0 1 .075.047c.278.359-.149-.254.135.128-.177-.238.1.19.105.198l3.443 6.976 2.075 4.205c.667 1.352 1.411 2.628 3.073 2.93 2.588.47 5.221.759 7.824 1.137l4.587.666c.333.049.67.089 1.001.146q.029.003.057.008a2 2 0 0 1 .312.067c.042.013.07.02.093.024l.032.027.071.063c.35.31-.23-.182.106.128l.029.032a2 2 0 0 1 .066.228l.001.021c.01.005.013.03.014.056-.018.063-.049.167-.057.21a3 3 0 0 0-.093.16q-.031.037-.063.07-.08.079-.161.156-.505.494-1.011.986l-3.561 3.47-3.611 3.52a9.4 9.4 0 0 0-2.128 2.39c-.61 1.306-.267 2.608-.037 3.945l.833 4.859.867 5.051.272 1.588q.015.081.028.162c-.024-.096.007.244.011.329-.01-.201-.068.078-.025.046a2 2 0 0 0-.123.2l-.147.14h.007l-.01.003-.013.014.01-.012a7 7 0 0 1-.26.088l-.006-.002.032-.014c.134-.054-.133-.04-.1-.007a1.4 1.4 0 0 0-.23-.06l-.008-.005c-.305-.139-.598-.314-.895-.47l-4.103-2.158c-2.33-1.225-4.639-2.51-6.998-3.679a3.92 3.92 0 0 0-3.646.027c-.323.162-.641.337-.961.505l-4.151 2.182-4.669 2.455c-.73.383-1.456.844-2.216 1.165a.8.8 0 0 1-.333.038c-.018-.008-.028-.011-.053-.023a1 1 0 0 0-.136-.055c-.03-.023-.088-.065-.104-.079a1 1 0 0 0-.087-.072 1 1 0 0 0-.049-.1c-.018-.034-.03-.053-.042-.074a.2.2 0 0 0-.008-.066l-.01-.04q-.002-.083.003-.167c-.016.088-.04.159-.004-.038l.005-.029v-.055q.005.005.006.017.04-.231.08-.463l.718-4.185c.484-2.822.998-5.641 1.453-8.468a3.94 3.94 0 0 0-1.012-3.515c-.153-.16-.318-.31-.477-.465l-3.062-2.985-6.152-5.997q-.027-.025-.052-.05c-.034-.036-.056-.057-.075-.076-.012-.02-.03-.051-.067-.104-.013-.02-.02-.027-.03-.041a.4.4 0 0 0-.028-.13l-.003-.008c.001-.052.032-.213.035-.257.018-.046.035-.09.042-.112.06-.084.143-.198.086-.14.033-.037.073-.079.101-.108l.01-.003-.008.01c-.098.117.17-.037.067-.025a3 3 0 0 1 .376-.095q.095-.015.19-.028m-.623.138-.01.003c.034-.036.047-.048.01-.003m-.275.62c-.086-.27 0-.075 0 0"/>
  <path d="m693.42 97.492-.007.038v.067a.4.4 0 0 0 .007-.106M722.443 98.207l.003-.002.003-.002h-.003zM250.903 244.337c-.05.19-.105.38-.152.57a17.14 17.14 0 0 0-.046 9.053 12.87 12.87 0 0 0 4.175 6.25 10.1 10.1 0 0 0 4.72 2.124c-.212 2.657-.45 5.49.29 8.076a7.29 7.29 0 0 0 5.45 5.365 5.25 5.25 0 0 0 3.758-.64c1.705-1.058.139-3.761-1.576-2.697a2.11 2.11 0 0 1-2.01.16 4.1 4.1 0 0 1-1.87-1.384c-1.194-1.587-1.151-4.21-1.067-6.24.037-.89.077-1.799.14-2.711a11.16 11.16 0 0 0 6.102-3.759c1.595-1.856 3.078-4.232 3.042-6.767a4.17 4.17 0 0 0-1.38-3.237 4.03 4.03 0 0 0-4.433-.297c-2.426 1.195-4.017 3.832-4.955 6.266a21.7 21.7 0 0 0-1.172 4.78 6.3 6.3 0 0 1-2.096-.78c-3.655-2.13-5.003-6.538-4.455-10.71a19 19 0 0 1 .369-1.96 9.965 9.965 0 0 0 10.636-3.411c1.663-2.098 2.72-5.043 1.952-7.715-.81-2.821-3.712-3.935-6.411-3.417s-4.559 2.875-5.783 5.168a43 43 0 0 0-2.186 4.74 11.32 11.32 0 0 1-3.291-7.616c-.176-4.68 2.291-9.057 4.835-12.804a98 98 0 0 1 2.156-3.025 1.57 1.57 0 0 0-.56-2.137 1.6 1.6 0 0 0-2.137.56c-3.49 4.741-6.898 9.894-7.386 15.926a14.2 14.2 0 0 0 5.341 12.27m17.812 7.08c-.025-.117-.012-.065 0 0m-3.38 1.59a6.35 6.35 0 0 1 2.1-2.01 1.64 1.64 0 0 1 .94-.177l.062.025c.014.01.059.058.095.096.02.037.056.094.085.14a3 3 0 0 0 .103.362q.006.036.007.058c.004.105.01.21.01.316 0 .042-.034.459-.024.45a6 6 0 0 1-.177.76 8.8 8.8 0 0 1-1.23 2.351 9.44 9.44 0 0 1-4.208 3.547 14.55 14.55 0 0 1 2.238-5.917zm-6.28-17.972a4.5 4.5 0 0 1 .571-.376q.145-.084.295-.155l.03-.014.061-.022a3.3 3.3 0 0 1 1.154-.233c.093-.002.463.014.453.004a4 4 0 0 1 .598.14 2.15 2.15 0 0 1 .728.45 3.48 3.48 0 0 1 .466 2.276 6.1 6.1 0 0 1-.925 2.57 7.43 7.43 0 0 1-4.116 3.2 6.16 6.16 0 0 1-3.715-.048q.427-1.14.921-2.239c.865-1.924 1.783-4.204 3.48-5.553zM661.17 275.646a2.82 2.82 0 0 0 2.185.334 26 26 0 0 0 3.568-1.072q1.18-.447 2.311-.992a10 10 0 0 1-.002 1.092 17.9 17.9 0 0 1-2.812 7.929 24.8 24.8 0 0 1-6.132 6.949 1.614 1.614 0 0 0-.56 2.137 1.57 1.57 0 0 0 2.137.56 27.8 27.8 0 0 0 9.81-13.766 13.95 13.95 0 0 0 .495-6.54q.792-.515 1.547-1.09c4.027-3.09 7.13-7.493 7.733-12.622a15.5 15.5 0 0 0-.051-3.892 29.65 29.65 0 0 0 9.627-7.743 26.56 26.56 0 0 0 5.905-13.95 21.88 21.88 0 0 0-2.364-12.468 42.2 42.2 0 0 0 2.485-12.21c.632-9.952-1.364-20.867-7.914-28.688a24.9 24.9 0 0 0-5.432-4.805 1.562 1.562 0 0 0-1.576 2.697c6.223 4.087 9.584 11.146 11.034 18.343a45 45 0 0 1-.809 21.483 15.8 15.8 0 0 0-11.79-5.44c-4.575-.042-9.452 2.04-11.698 6.21a12.7 12.7 0 0 0 .337 12.069 10.3 10.3 0 0 0 4.363 4.207 10.66 10.66 0 0 0 7.679.439c5.132-1.564 9.12-5.89 11.607-10.522a20.8 20.8 0 0 1-.83 15.168 26.4 26.4 0 0 1-11.36 12.103 16.7 16.7 0 0 0-3.275-5.672c-3.19-3.593-8.48-5.45-13.049-3.469a6.84 6.84 0 0 0-4.212 6.017 8.75 8.75 0 0 0 2.922 6.584c4.164 3.75 10.494 2.857 15.35.998a13.4 13.4 0 0 1-2.61 8.643 18.5 18.5 0 0 1-4.742 4.612 8.16 8.16 0 0 0-5.987-3.86 5.46 5.46 0 0 0-5.624 3.095 5.93 5.93 0 0 0 .617 6.191 4.2 4.2 0 0 0 1.117.94m24.534-47.054c-2.714 2.548-6.614 4.507-10.341 3.181q-.058-.021-.117-.045c-.034-.015-.084-.038-.103-.048-.148-.077-.298-.147-.443-.228a8 8 0 0 1-.66-.411l-.192-.14c-.063-.054-.228-.191-.27-.229q-.212-.189-.412-.39a9 9 0 0 1-.34-.365c-.064-.073-.245-.293-.284-.337-.033-.049-.183-.257-.22-.31q-.163-.24-.312-.488a12 12 0 0 1-.513-.966l-.079-.17-.027-.064q-.109-.274-.204-.554-.178-.526-.307-1.069-.059-.253-.108-.509c-.01-.047-.06-.362-.069-.403a11 11 0 0 1-.08-1.104 11 11 0 0 1 .073-1.55l.006-.03q.03-.183.064-.365a10 10 0 0 1 .25-1q.075-.246.164-.487a9 9 0 0 1 .105-.275l.006-.016.04-.083a10 10 0 0 1 .489-.906q.137-.22.285-.432l.096-.131c.047-.056.19-.232.177-.217a10.47 10.47 0 0 1 8.443-3.431 12.53 12.53 0 0 1 8.804 3.906 14.4 14.4 0 0 1 1.468 1.857 23.6 23.6 0 0 1-5.389 7.81zm-15.924 25.88a7.53 7.53 0 0 1-4.837-1.958 6.2 6.2 0 0 1-1.275-1.874 4.9 4.9 0 0 1-.42-2.116 3.35 3.35 0 0 1 .616-1.893 4.2 4.2 0 0 1 1.798-1.397 7.43 7.43 0 0 1 4.737-.216 9.5 9.5 0 0 1 3.755 2.054 11.7 11.7 0 0 1 2.804 3.697 11 11 0 0 1 .844 2.098l.01.04c-.606.242-1.219.47-1.843.664a17.3 17.3 0 0 1-6.189.901zm-6.864 14.486c-.152.136-.064.048 0 0m-.948 2.001c.002-.041.033-.273.028-.27l.024-.126q.036-.168.085-.331c.013-.044.087-.246.102-.3.084-.17.182-.331.272-.5.01-.016.032-.05.052-.078q.077-.094.161-.183.11-.111.228-.215l.02-.014a2.7 2.7 0 0 1 .593-.291 3.6 3.6 0 0 1 2.633.264 5.3 5.3 0 0 1 2.182 1.968c-.342.174-.685.346-1.033.504a25 25 0 0 1-4.615 1.53c-.021-.01-.043-.026-.063-.035l-.026-.011-.01-.012c-.074-.071-.145-.15-.22-.22l-.013-.01-.01-.02c-.054-.088-.103-.187-.162-.27l-.02-.03a4 4 0 0 1-.123-.375c-.031-.116-.093-.649-.071-.3a6 6 0 0 1-.014-.675zM259.106 353.083a9.1 9.1 0 0 0-1.064 3.55 1.562 1.562 0 0 0 3.124 0 5.9 5.9 0 0 1 .782-2.257 23.5 23.5 0 0 0 1.308-2.764 9.27 9.27 0 0 0-2.713-9.916 11.4 11.4 0 0 1-1.985-1.658 3.64 3.64 0 0 1-.63-2.026c-.06-2.096 1.176-4.03 2.279-5.814 1.06-1.715-1.641-3.286-2.697-1.577a16.1 16.1 0 0 0-2.582 5.807 7.19 7.19 0 0 0 1.406 5.808 19 19 0 0 0 2.212 1.85 5.8 5.8 0 0 1 1.43 1.876 6.14 6.14 0 0 1 .411 4.379 16.6 16.6 0 0 1-1.281 2.742M377.55 266.627a1.74 1.74 0 0 0 1.104.457l.416-.056a1.56 1.56 0 0 0 .69-.401l.244-.316a1.55 1.55 0 0 0 .213-.789v-.436a1.605 1.605 0 0 0-1.562-1.562l-.415.056a1.56 1.56 0 0 0-.69.402l-.244.316a1.56 1.56 0 0 0-.214.788v.436a1.74 1.74 0 0 0 .458 1.105M393.04 263.161a1.563 1.563 0 0 0 0-3.124 1.563 1.563 0 0 0 0 3.124M387.861 281.71a1.2 1.2 0 0 0 .438.403 1.58 1.58 0 0 0 1.204.157 1.56 1.56 0 0 0 .933-.717l.877-1.742a1.16 1.16 0 0 0 .185-.58 1.6 1.6 0 0 0-.746-1.557 1.56 1.56 0 0 0-2.137.56l-.876 1.742a1.16 1.16 0 0 0-.186.58 1.4 1.4 0 0 0 .308 1.154zM525.653 194.65a9.8 9.8 0 0 0-3.72-1.543 15.6 15.6 0 0 1-3.993-.962 5.18 5.18 0 0 1-1.763-7.946 5.37 5.37 0 0 1 2.883-1.874c1.945-.506 1.12-3.52-.83-3.012a8.61 8.61 0 0 0-5.684 4.97 8.2 8.2 0 0 0 .678 7.606 8.8 8.8 0 0 0 2.814 2.77 11.5 11.5 0 0 0 4.134 1.292 9.1 9.1 0 0 1 3.669 1.236 6.75 6.75 0 0 1 2.141 2.329 6.65 6.65 0 0 1-.635 7.28 1.61 1.61 0 0 0 0 2.208 1.574 1.574 0 0 0 2.209 0 10.04 10.04 0 0 0 2.203-8.033 9.79 9.79 0 0 0-4.106-6.322M525.282 220.941a1.2 1.2 0 0 0-.602-.134l-.415.055a1.56 1.56 0 0 0-.69.402l-.244.316a1.56 1.56 0 0 0-.213.789v.435a1.605 1.605 0 0 0 1.562 1.562l.416-.055a1.56 1.56 0 0 0 .688-.402l.245-.316a1.56 1.56 0 0 0 .213-.789v-.435a1.51 1.51 0 0 0-.96-1.428M624.936 277.037a1.563 1.563 0 0 0 0 3.124 1.563 1.563 0 0 0 0-3.124M638.013 277.909a1.563 1.563 0 0 0 0 3.124 1.563 1.563 0 0 0 0-3.124M400.223 214.015l-2.037.436a9 9 0 0 1 .199 1.853l2.083-.009a11 11 0 0 0-.245-2.28M396.198 198.813l-1.966-.687a9.4 9.4 0 0 0-.478 2.287l2.074.18a7.3 7.3 0 0 1 .37-1.78M397.622 212.61l1.949-.735a29 29 0 0 0-.846-1.987l-1.889.878c.327.703.577 1.289.786 1.844M400.227 218.594l-2.033-.452a6.2 6.2 0 0 1-.615 1.667l1.82 1.01a8.3 8.3 0 0 0 .828-2.225M398.278 196.265l-.952-1.852a6 6 0 0 0-1.933 1.584l1.624 1.303a3.9 3.9 0 0 1 1.261-1.035M397.82 222.72l-1.302-1.627a3.7 3.7 0 0 1-.857.514l.822 1.913a5.8 5.8 0 0 0 1.336-.8M395.859 202.461l-2.068.24a11.5 11.5 0 0 0 .394 1.937q.044.147.09.293l1.984-.635-.077-.248a9.4 9.4 0 0 1-.323-1.587M397.817 207.997a50 50 0 0 1-.857-1.85l-1.912.827c.296.684.616 1.354.894 1.929zM318.383 360.943a15 15 0 0 0-.105 1.806q0 .213.005.427l2.082-.055q-.005-.187-.005-.372a13 13 0 0 1 .09-1.552zM320.842 367.081a30 30 0 0 1-.322-1.988l-2.067.26c.084.664.197 1.359.344 2.124zM322.455 375.352a28 28 0 0 0-.288-2.142l-2.053.352c.12.696.21 1.364.268 1.985zM318.87 358.714l1.98.649a8 8 0 0 1 .766-1.671l-1.779-1.083a10 10 0 0 0-.966 2.105M321.273 369.082l-2.03.468.28 1.194q.1.409.193.826l2.032-.452q-.096-.435-.198-.858-.14-.584-.277-1.178M309.645 387.189q-.61.132-1.216.27l.46 2.03q.6-.134 1.202-.266l.829-.183-.453-2.032zM318.914 382.815l1.688 1.22a9.5 9.5 0 0 0 1.121-2.045l-1.934-.772a7.4 7.4 0 0 1-.875 1.597M316.127 385.179l.98 1.837a11 11 0 0 0 1.905-1.275l-1.338-1.595a9 9 0 0 1-1.547 1.033M312.455 386.533l.53 2.013a25 25 0 0 0 2.077-.635l-.704-1.96c-.564.202-1.187.392-1.904.582M320.289 379.423l2.05.358a14.4 14.4 0 0 0 .206-2.233l-2.083-.036a12.5 12.5 0 0 1-.173 1.91M289.537 408.68l2.074.182c.057-.65.147-1.311.268-1.963l-2.047-.38a23 23 0 0 0-.296 2.162M291.885 400.34l1.872.913c.288-.592.608-1.18.95-1.749l-1.785-1.073c-.373.62-.722 1.263-1.037 1.91M299.913 393.543l-1.294-1.631a24 24 0 0 0-1.642 1.432l1.441 1.504c.48-.459.982-.898 1.495-1.305M289.596 413.05l2.068-.244a19 19 0 0 1-.127-1.968l-2.083.026a21 21 0 0 0 .142 2.186M294.122 396.62l1.685 1.224c.39-.536.807-1.06 1.24-1.557l-1.57-1.368a25 25 0 0 0-1.355 1.701M290.33 404.397l2.003.57c.18-.637.392-1.272.628-1.888l-1.944-.746c-.259.674-.49 1.368-.688 2.064M506.729 316.383a1 1 0 0 1 .026.084.3.3 0 0 1 .018-.068zM506.167 316.188l-1.36-.475a2.3 2.3 0 0 0-.135.752 2 2 0 0 0 .076.538 1.73 1.73 0 0 0 1.643 1.22 1.44 1.44 0 0 0 1.208-.627l-1.718-1.176a.66.66 0 0 1 .286-.233M509.999 310.115q0-.131-.008-.262a4.5 4.5 0 0 0-.407-1.619l-1.893.868a2.4 2.4 0 0 1 .221.875q.004.069.004.138a2.5 2.5 0 0 1-.035.414l2.054.344a4.6 4.6 0 0 0 .063-.758M507.91 314.719c.374-.498.763-1.013 1.1-1.555l-1.77-1.098c-.287.462-.63.917-.993 1.399l-.166.22 1.666 1.25zM508.043 306.253a9 9 0 0 0-1.973-1.274l-.907 1.875a7 7 0 0 1 1.521.977zM499.008 304.07q.137.11.278.214l1.23-1.68a5 5 0 0 1-.2-.155 3.5 3.5 0 0 1-.862-1.053l-1.831.992a5.6 5.6 0 0 0 1.385 1.682M499.492 298.768l-1.452-1.493a3.6 3.6 0 0 0-1.074 2.618l2.082.015a1.54 1.54 0 0 1 .444-1.14M501.321 305.4c.59.247 1.195.456 1.78.659l.236.081.684-1.967-.238-.082c-.58-.2-1.127-.39-1.656-.612zM606.406 394.497l-1.216-1.69c-.527.38-1.093.769-1.683 1.158l1.148 1.738c.612-.405 1.202-.81 1.75-1.206M615.464 356.42l-1.886-.882a21 21 0 0 0-.823 2.032l1.97.676a19 19 0 0 1 .74-1.826M612.718 388.661l-1.64-1.285a22 22 0 0 1-1.297 1.501l1.512 1.432c.512-.541.991-1.096 1.425-1.648M637.022 346.375l-1.563-1.377a2.9 2.9 0 0 1-1.274.788l.623 1.987a4.94 4.94 0 0 0 2.214-1.398M636.408 341.709q-.238-.187-.487-.346l-1.122 1.755q.167.107.328.232a1.7 1.7 0 0 1 .607.737l1.979-.65a3.7 3.7 0 0 0-1.305-1.729M609.746 391.819l-1.398-1.544c-.48.434-.997.873-1.539 1.306l1.3 1.627c.576-.46 1.126-.927 1.637-1.39M614.035 381.009a12 12 0 0 1-.272 1.232l2.007.555a14 14 0 0 0 .319-1.445q.063-.38.105-.76l-2.069-.232q-.037.324-.09.65M614.04 376.457a19 19 0 0 1 .16 1.967l2.082-.057a21 21 0 0 0-.178-2.18zM617.475 352.99l-1.7-1.203a26 26 0 0 0-1.18 1.822l1.794 1.057c.331-.56.696-1.124 1.086-1.675M615.747 374.062a67 67 0 0 0-.455-2.066l-2.027.474c.156.668.306 1.335.44 2.002zM635.822 319.725l-1.145-1.74c-.601.396-1.194.827-1.762 1.28l1.3 1.628a22 22 0 0 1 1.607-1.168M612.329 368.38c.139.69.295 1.377.456 2.064l2.027-.475a67 67 0 0 1-.442-2.003zM614.027 365.98a20 20 0 0 1-.175-1.97l-2.082.076c.026.692.09 1.403.194 2.175zM614.196 360.132l-2.035-.442a18 18 0 0 0-.335 2.185l2.075.185a16 16 0 0 1 .295-1.928M626.507 332.711q.053-.202.11-.403l-2.003-.57q-.064.223-.122.447c-.147.562-.272 1.13-.37 1.685l2.051.363c.088-.501.2-1.013.334-1.522M628.04 328.599l-1.869-.918a24 24 0 0 0-.87 1.993l1.944.747c.236-.616.505-1.23.795-1.822M623.865 336.06q-.026.463-.026.925c0 .439.018.877.055 1.304l2.075-.178a13 13 0 0 1-.047-1.126q0-.403.022-.807zM629 340.955a16 16 0 0 0-2.05.875l.81 1.594-1.435 1.184a10 10 0 0 0 1.672 1.607l1.26-1.659a8 8 0 0 1-1.093-1.005 13 13 0 0 1 1.508-.625zM612.204 385.767l1.773 1.092a17 17 0 0 0 1.038-1.96l-1.903-.847a15 15 0 0 1-.908 1.715M632.536 345.907a6 6 0 0 1-1.71-.44l-.803 1.922a8 8 0 0 0 2.309.59zM624.56 345.844q.415-.316.835-.62.386-.28.797-.548l-1.14-1.743q-.452.295-.878.604-.44.32-.877.651zM632.719 322.203l-1.44-1.505a25 25 0 0 0-1.503 1.57l1.567 1.373c.438-.5.9-.984 1.376-1.438M633.616 340.467a7.9 7.9 0 0 0-2.389-.043l.26 2.067a5.8 5.8 0 0 1 1.76.026zM628.418 323.966a25 25 0 0 0-1.205 1.808l1.782 1.078c.342-.565.714-1.123 1.104-1.657zM626.892 341.654a9.6 9.6 0 0 1-.604-1.668l-2.014.528a11.7 11.7 0 0 0 .737 2.034l.05.105 1.876-.904zM388.68 312.045a8.3 8.3 0 0 1-.188-1.837h-2.083a10.3 10.3 0 0 0 .24 2.297zM389.315 313.64l-1.758 1.116a6.8 6.8 0 0 0 1.666 1.799l1.242-1.673a4.7 4.7 0 0 1-1.15-1.241M391.913 315.541l-.372 2.05a4.7 4.7 0 0 0 .83.075 4.4 4.4 0 0 0 1.446-.245l-.687-1.966a2.4 2.4 0 0 1-1.217.086M388.95 306.255l-2.052-.36a46 46 0 0 0-.333 2.105l2.066.264c.086-.671.204-1.36.318-2.009M520.169 370.877l-1.733 1.155 1.154 1.733.457-.303-.001-.001 1.278-.851zM464.521 483.438a102.8 102.8 0 0 1-28.001 1.858q-3.917-.275-7.803-.852a1.613 1.613 0 0 0-1.922 1.09 1.574 1.574 0 0 0 1.091 1.922 105.8 105.8 0 0 0 29.143.376 110 110 0 0 0 8.322-1.382 1.562 1.562 0 1 0-.83-3.012zM884.222 232.104q.758.71 1.51 1.426l1.437-1.506q-.758-.724-1.525-1.442zM881.158 229.303q.774.692 1.54 1.392l1.405-1.537q-.774-.707-1.556-1.407zM805.587 188.794q1.019.154 2.034.332l.358-2.052q-1.038-.181-2.08-.339zM809.646 189.503q1.013.2 2.02.421l.445-2.034q-1.027-.225-2.061-.43zM789.063 185.993l.162 2.077c.67-.053 1.356-.095 2.042-.125l-.092-2.08c-.709.03-1.42.074-2.112.128M801.507 188.276q1.022.104 2.043.234l.263-2.066q-1.046-.133-2.095-.24zM813.675 190.388q1.006.242 2.002.504l.528-2.014q-1.015-.267-2.041-.515zM784.852 186.479l.318 2.058a53 53 0 0 1 2.021-.272l-.237-2.068c-.702.08-1.41.175-2.102.282M797.41 187.967q1.024.05 2.05.127l.157-2.076q-1.054-.08-2.105-.13zM793.289 185.807l.023 2.082q.347-.003.696-.004c.47.001.901.004 1.352.013l.041-2.082a67 67 0 0 0-2.112-.01M821.615 192.638q.987.321 1.957.657l.681-1.968q-.987-.342-1.993-.67zM897.365 242.58l-1.558 1.382q.688.776 1.363 1.557l1.576-1.361q-.684-.792-1.38-1.578M891.65 236.449l-1.489 1.456q.725.741 1.44 1.49l1.505-1.44q-.723-.756-1.456-1.506M894.545 239.479l-1.524 1.42q.708.759 1.403 1.523l1.54-1.402q-.704-.773-1.42-1.541M902.76 249.004l-1.633 1.294q.645.812 1.273 1.63l1.651-1.27q-.638-.83-1.292-1.654M900.106 245.754l-1.595 1.34q.667.794 1.32 1.593l1.613-1.318q-.662-.81-1.338-1.615M817.668 191.436q.996.282 1.98.582l.607-1.992q-1.003-.306-2.018-.594zM780.684 187.3l.49 2.024a47 47 0 0 1 1.989-.436l-.403-2.043c-.702.138-1.4.291-2.076.455M840.54 200.83q.91.484 1.823.984l1-1.827q-.924-.506-1.844-.995zM833.143 197.13q.949.436 1.863.88l.91-1.874q-.934-.453-1.905-.898zM829.36 195.486q.964.396 1.9.803l.83-1.91q-.954-.415-1.937-.82zM888.68 233.483l-1.454 1.49q.744.727 1.479 1.461l1.471-1.474q-.743-.742-1.495-1.477M825.515 193.989q.976.358 1.93.73l.756-1.941q-.972-.378-1.967-.744zM865.058 216.279q.834.61 1.664 1.229l1.245-1.67q-.838-.625-1.68-1.24zM854.82 209.24q.869.56 1.736 1.133l1.147-1.739q-.876-.578-1.753-1.144zM858.281 211.522q.858.578 1.715 1.167l1.18-1.716q-.864-.595-1.73-1.178zM910.535 263.865q.528.89 1.034 1.784l1.812-1.026q-.515-.911-1.054-1.82zM861.698 213.872q.844.592 1.686 1.195l1.212-1.693q-.85-.609-1.701-1.207zM851.316 207.026q.879.543 1.758 1.098l1.112-1.76q-.888-.561-1.776-1.11zM847.767 204.884q.89.525 1.78 1.062l1.076-1.783q-.9-.543-1.798-1.072zM844.175 202.818q.9.505 1.802 1.024l1.038-1.805q-.911-.525-1.82-1.035zM910.113 259.228l-1.75 1.13q.561.87 1.103 1.743l1.77-1.097q-.551-.89-1.123-1.776M907.772 255.738l-1.71 1.19q.593.85 1.166 1.705l1.73-1.16q-.582-.87-1.186-1.735M776.596 188.495l.68 1.968a42 42 0 0 1 1.934-.615l-.584-2c-.684.2-1.367.418-2.03.647M874.866 223.897q.799.66 1.593 1.327l1.34-1.594q-.8-.674-1.608-1.34zM905.318 252.33l-1.67 1.245q.619.83 1.221 1.667l1.69-1.218q-.612-.849-1.24-1.693M868.374 218.753q.822.626 1.64 1.262l1.278-1.645q-.826-.642-1.657-1.274zM878.039 226.567q.787.675 1.566 1.36l1.373-1.567q-.788-.69-1.583-1.373zM772.638 190.099l.884 1.885a38 38 0 0 1 1.856-.81l-.78-1.93c-.664.268-1.324.556-1.96.855M768.871 192.134l1.094 1.771c.568-.35 1.156-.69 1.75-1.011l-.99-1.833c-.629.34-1.253.701-1.854 1.072M836.861 198.927q.92.462 1.845.94l.957-1.849q-.935-.485-1.867-.953zM871.644 221.292q.812.643 1.618 1.294l1.309-1.62q-.814-.657-1.634-1.306zM762.185 197.484l1.491 1.455c.467-.48.955-.95 1.452-1.4l-1.398-1.544c-.528.48-1.048.98-1.545 1.49M765.363 194.605l1.302 1.626a33 33 0 0 1 1.615-1.213l-1.2-1.702c-.587.413-1.165.847-1.717 1.289M72.922 331.128l-.689-1.965q-.994.348-1.977.718l.734 1.949q.96-.362 1.932-.702M88.84 327.032l-.355-2.053q-1.035.179-2.065.377l.394 2.045q1.01-.194 2.025-.37M84.797 327.81l-.434-2.037q-1.028.22-2.049.458l.475 2.028q1.001-.235 2.008-.449M80.791 328.749l-.516-2.018q-1.02.261-2.03.543l.559 2.006q.99-.276 1.987-.531M76.83 329.853l-.602-1.993q-1.007.304-2.005.63l.645 1.98q.976-.32 1.962-.617M92.908 326.41l-.274-2.064q-1.042.138-2.078.297l.314 2.058q1.017-.155 2.038-.291M97.002 325.941l-.2-2.073q-1.044.1-2.086.22l.237 2.07q1.023-.118 2.049-.217M109.358 325.407l.017-2.082q-1.051-.01-2.099 0l.017 2.083q1.032-.009 2.065 0M113.57 323.427q-1.05-.043-2.097-.069l-.051 2.083q1.03.025 2.064.067zM117.76 323.666q-1.046-.077-2.094-.136l-.118 2.079q1.03.059 2.06.134zM105.231 325.443l-.054-2.082q-1.05.027-2.097.072l.09 2.08q1.029-.043 2.061-.07M69.074 332.577l-.778-1.932q-.977.393-1.943.81l.824 1.913q.943-.407 1.897-.791M101.11 325.62l-.125-2.079q-1.048.063-2.093.145l.162 2.076q1.026-.08 2.056-.142M65.3 334.203l-.868-1.893q-.958.44-1.904.902l.915 1.87q.923-.45 1.857-.88M47.908 345.051l-1.326-1.605q-.815.673-1.612 1.37l1.37 1.568q.776-.678 1.568-1.333M41.868 350.633l-1.497-1.449q-.732.757-1.447 1.537l1.537 1.407q.695-.76 1.407-1.495M36.495 356.839l-1.647-1.274q-.644.832-1.268 1.687l1.682 1.228q.608-.832 1.233-1.641M39.095 353.662l-1.574-1.364q-.69.796-1.36 1.615l1.612 1.32q.652-.798 1.322-1.572M44.81 347.76l-1.414-1.53q-.777.717-1.535 1.459l1.455 1.49q.738-.722 1.493-1.419M51.15 342.52l-1.236-1.676q-.85.627-1.684 1.279l1.282 1.64q.81-.633 1.638-1.243M58.012 337.997l-1.054-1.797q-.91.533-1.805 1.09l1.1 1.768q.872-.542 1.759-1.061M61.609 336.008l-.961-1.848q-.936.487-1.858.996l1.008 1.823q.898-.497 1.81-.971M54.521 340.167l-1.145-1.74q-.88.58-1.748 1.185l1.192 1.708q.843-.588 1.701-1.153M130.258 325.171q-1.035-.173-2.073-.33l-.314 2.058q1.022.155 2.042.326zM180.862 344.789q-.873-.597-1.759-1.168l-1.129 1.75q.863.556 1.712 1.137zM177.323 342.501q-.894-.551-1.805-1.088l-1.058 1.793q.891.527 1.77 1.068zM121.94 324.038q-1.043-.11-2.089-.203l-.185 2.075q1.028.091 2.056.2zM166.232 336.467q-.948-.453-1.906-.892l-.867 1.893q.941.432 1.874.878zM184.28 347.272q-.837-.646-1.692-1.267l-1.224 1.685q.83.603 1.643 1.23zM173.7 340.36q-.914-.517-1.843-1.021l-.993 1.83q.911.495 1.81 1.004zM191.93 357.33l1.582-1.355a57 57 0 0 0-1.41-1.585l-1.53 1.414c.46.497.917 1.01 1.359 1.526M187.546 349.96q-.795-.697-1.613-1.37l-1.323 1.609q.793.65 1.563 1.327zM194.458 360.532l1.686-1.222c-.412-.57-.844-1.14-1.282-1.695l-1.635 1.29c.42.533.835 1.08 1.231 1.627M190.633 352.859c-.489-.492-1-.99-1.519-1.476l-1.426 1.518c.502.471.996.95 1.469 1.426zM169.998 338.349q-.932-.485-1.875-.957l-.93 1.863q.927.464 1.844.941zM138.492 326.812q-1.023-.236-2.05-.457l-.438 2.036q1.011.218 2.019.45zM142.57 327.82q-1.015-.267-2.035-.52l-.5 2.023q1.005.248 2.005.511zM134.387 325.93q-1.03-.206-2.063-.396l-.375 2.049q1.017.186 2.031.389zM126.108 324.54q-1.041-.142-2.082-.267l-.25 2.067q1.025.124 2.05.263zM196.703 363.93l1.786-1.07a48 48 0 0 0-1.134-1.802l-1.737 1.149c.37.56.736 1.14 1.085 1.723M158.527 333.086q-.975-.39-1.958-.766l-.745 1.945q.968.37 1.928.755zM162.406 334.714q-.962-.422-1.934-.83l-.805 1.92q.956.401 1.903.816zM154.598 331.583q-.986-.359-1.98-.704l-.683 1.968q.98.34 1.95.693zM150.627 330.206q-.997-.33-2.001-.643l-.621 1.987q.988.31 1.97.633zM146.616 328.951q-1.007-.298-2.019-.581l-.561 2.005q.996.28 1.988.573z"/>
  <path d="M974.541 184.884a126.4 126.4 0 0 0-8.44-32.36 131 131 0 0 0-16.011-28.353 138.6 138.6 0 0 0-22.257-23.596 142.9 142.9 0 0 0-58.008-29.352 168 168 0 0 0-17.528-3.108 229 229 0 0 0-23.087-2.056 113.2 113.2 0 0 0-22.206 1.274c-6.572 1.108-12.936 3.325-18.192 7.52-9.314 7.433-13.494 19.416-16.709 30.465-4.246 14.599-8.212 29.284-12.309 43.925-1.784 6.373-3.967 12.76-4.798 19.348-.645 5.111-.34 10.788 2.991 14.979a9.3 9.3 0 0 0 2.888 2.58q.183.088.373.167c-1.055 3.49-1.916 7.05-2.86 10.562-1.437 5.344-2.956 10.674-4.297 16.043-1.216 4.866-1.88 10.068.437 14.719a15.32 15.32 0 0 0 9.185 7.684 5.1 5.1 0 0 0 1.438.338.8.8 0 0 0 .244-.024c.082.033.167.083.239.118l.493.237a28.5 28.5 0 0 1-2.242 6.699 8.4 8.4 0 0 1-2.727 3.368q-.968.447-1.931.907-.253.1-.506.2a2 2 0 0 0-.532.3 177 177 0 0 0-29.901 18.377 189.7 189.7 0 0 0-27.935 26.064 196.4 196.4 0 0 0-22.383 31.274 194 194 0 0 0-15.805 35.037 183.6 183.6 0 0 0-8.34 37.276 170 170 0 0 0-1.152 19.635 60.7 60.7 0 0 0 1.694 15.19l-1.878.504-8.505 2.277-3.293.882-10.026 2.684a77 77 0 0 0 2.563-15.436c1.002-15.086-1.586-30.23-4.872-44.9q-3.154-13.985-6.88-27.882c.478-.45.982-.898 1.5-1.335l-1.343-1.592q-.391.33-.771.669a573 573 0 0 0-18.108-55.55c-1.96-5.078-4.506-10.337-9.346-13.07.992-2.841 2.158-5.618 3.38-8.368 2.65-5.966 5.513-11.873 7.338-18.16a46.6 46.6 0 0 0 1.808-9.826 32 32 0 0 0-.02-4.742 21.4 21.4 0 0 0-.78-4.705c-.765-2.419-2.267-4.998-4.579-6.225a5.62 5.62 0 0 0-7.257 1.816 17.2 17.2 0 0 0-2.07 4.145l-2.011 5.059a34 34 0 0 0-.118-1.62c-.42-4.226-1.36-8.972-4.367-12.177-2.58-2.75-7.233-3.856-10.4-1.42-3.632 2.795-2.387 7.66-2.287 11.573a33 33 0 0 1-.458 6.292 30.7 30.7 0 0 0-2.101-6.604c-2.009-4.488-5.47-9.308-11-8.773-5.266.509-8.913 4.514-10.94 9.127-1.6 3.64-3.538 8.609-1.561 12.483a13.2 13.2 0 0 0-2.437 2.229 23.7 23.7 0 0 0-3.927 6.133 24.53 24.53 0 0 0-1.571 14.61 35.3 35.3 0 0 0 5.843 13.023 94.6 94.6 0 0 0 9.973 11.813c-1.71 2.413-3.198 5.063-3.262 8.09-.061 2.96 1.072 5.904 1.73 8.751 1.827 7.916 2.803 16.113 3.882 24.158q1.874 13.981 3.16 28.048c-2.377-.863-4.672-2.445-5.401-4.882a6 6 0 0 1-.18-.782c.024-.012.048-.02.072-.033 1.788-.946 3.507-3.475 1.675-5.244a2.355 2.355 0 0 0-3.206-.175 5.6 5.6 0 0 0-1.46 2.599c-.043.152-.072.303-.105.455a6 6 0 0 1-.632-.022l-.095-.018q-.293-.054-.58-.134a5.33 5.33 0 0 1-2.635-1.644 6.5 6.5 0 0 1-.953-1.55 8.8 8.8 0 0 1-.63-2.35 15 15 0 0 1 .192-4.537 1.605 1.605 0 0 0-1.091-1.922 1.576 1.576 0 0 0-1.922 1.091c-.709 3.852-.574 8.125 2.029 11.282a8.3 8.3 0 0 0 6.287 2.925 10.26 10.26 0 0 0 4.572 6.414 16.3 16.3 0 0 0 4.355 1.904q.965 11.4 1.475 22.825c.383 8.928.527 17.88.126 26.81-23.734 9.392-48.98 11.932-74.36 10.983q-7.182-.268-14.348-.847-.58-.045-1.163-.088c-.423-1.967-1.651-3.781-2.434-5.617a48.4 48.4 0 0 1-3.274-11.668 1.2 1.2 0 0 0-.258-.572c.81-2.107 1.61-4.22 2.413-6.329.838-2.202 1.73-4.382 2.64-6.555 2.694-4.328 5.086-8.841 7.478-13.339 1.294-2.432 2.582-4.867 3.904-7.284 1.319-2.412 2.742-4.772 3.922-7.257a25.3 25.3 0 0 0 2.56-8.606 20.4 20.4 0 0 0-1.179-8.408 45 45 0 0 0-8.804-14.416 29 29 0 0 0-5.888-5.208 21.5 21.5 0 0 0-3.66-1.894 10.5 10.5 0 0 1-3.361-1.663 17.4 17.4 0 0 1-2.272-3.155 45 45 0 0 0-2.359-3.157 36 36 0 0 0-5.364-5.351 28.2 28.2 0 0 0-13.947-6.248 22.75 22.75 0 0 0-13.47 2.506 18.24 18.24 0 0 0-9.005 10.77 23.05 23.05 0 0 0 1.605 16.855 18 18 0 0 0 1.451 2.3c-1.178 1.503-2.403 3.018-3.68 4.426a34 34 0 0 1-2.833 2.817 15 15 0 0 1-2.732 1.948 5.12 5.12 0 0 0-2.769 4.623 5.58 5.58 0 0 0 1.618 3.477c-.985 1.585-1.986 3.167-2.832 4.83a30.4 30.4 0 0 0-2.237 6.03 20.7 20.7 0 0 0-.658 7.882 22.7 22.7 0 0 0 2.357 7.637 25.7 25.7 0 0 0 4.516 6.041 22 22 0 0 1 2.14 2.413 5.4 5.4 0 0 1 1.12 2.673c.122 1.998-1.007 4.03-1.88 5.867a6.1 6.1 0 0 0-3.062 1.767c-1.272 1.182-2.49 2.407-3.786 3.568l-1.17 1.048c-8.084-7.353-14.103-16.928-18.906-26.646-7.28-14.731-12.121-30.624-15.993-46.552a520 520 0 0 1-9.998-55.704c-2.475-19.004-4.252-38.095-5.693-57.204q-1.035-13.718-1.867-27.45-.4-6.43-.775-12.86c-.268-4.489-.656-9.277-2.935-13.264a12.5 12.5 0 0 0-3.08-3.598c.445-.712.889-1.423 1.324-2.136a60 60 0 0 0 4.282-8.118 32 32 0 0 0 2.332-9.888 49.7 49.7 0 0 0-.465-10.609 30.7 30.7 0 0 0-2.27-9.033 9.8 9.8 0 0 0-5.841-5.46 8.57 8.57 0 0 0-4.096-.176 8.21 8.21 0 0 0-2.29-10.212c-4.612-3.83-11.179-3.818-16.395-1.303a19.2 19.2 0 0 0-6.908 5.7 24 24 0 0 1 1.544-4.274 19.3 19.3 0 0 0 2.16-5.925c.25-2.035-.452-4.068-2.479-4.856-2.214-.862-5.117.45-7.06 1.525a18.7 18.7 0 0 0-5.03 4.133 25.3 25.3 0 0 0-5.459 11.148 16.3 16.3 0 0 0-.234-3.295 5.42 5.42 0 0 0-2.783-3.898 5.99 5.99 0 0 0-5.237.183c-3.319 1.623-4.384 5.66-5.13 8.963-3.384 14.965.271 30.328 6.177 44.16 1.517 3.555 3.204 7.033 5 10.454-5.717 6.386-7.533 14.897-8.095 23.285-.663 9.9-.428 19.909-.554 29.828-.252 19.71-.43 39.426.053 59.134q.223 9.104.671 18.206a14.5 14.5 0 0 0-6.04 4.758 8.78 8.78 0 0 0-1.531 6.314 1.57 1.57 0 0 0 1.921 1.091 1.604 1.604 0 0 0 1.091-1.921 5.86 5.86 0 0 1 1.331-4.07 10.5 10.5 0 0 1 3.404-2.817c1.557 28.248 5.006 56.385 11.857 83.86-.616.32-1.227.672-1.818 1.054l1.13 1.749c.398-.257.806-.494 1.217-.72q.577 2.255 1.182 4.504a357.4 357.4 0 0 0 23.542 62.599q-.319 1.068-.603 2.147c-2.29 6.987-4.365 14.05-6.342 21.131-1.428 5.118-2.826 10.26-4.079 15.434-30.577-.948-61.267-2.415-91.91-2.387a68.3 68.3 0 0 1-6.105-16.006 134 134 0 0 1-2.874-17.564c-1.268-11.689-1.914-23.53-4.966-34.936a99 99 0 0 0-6.471-17.379 24.84 24.84 0 0 0 3.153-16.4c-.907-5.588-3.63-10.66-4.878-16.158a20 20 0 0 1-.218-8.125 14.28 14.28 0 0 0 10.037-3.95 25 25 0 0 0 5.702-9.51 84 84 0 0 0 2.994-10.86 131 131 0 0 1 4.478-15.419 128 128 0 0 1 6.25-14.494c2.252-4.451 4.71-8.8 6.79-13.336a50 50 0 0 0 4.45-14.287 36.5 36.5 0 0 0-.97-13.965c-2.736-10.445-9.289-19.55-16.524-27.374a140.1 140.1 0 0 0-46.755-32.828 148 148 0 0 0-55.988-12.275 138.7 138.7 0 0 0-28.499 2.41c-10.193 1.941-20.958 4.717-29.11 11.462-7.558 6.254-11.847 15.435-14.925 24.54-1.69 5.002-3.067 10.106-4.494 15.187q-2.444 8.705-4.81 17.43c-3.203 11.898-6.204 23.854-8.7 35.921a386 386 0 0 0-3.262 17.761c-.81 5.119-2.359 11.57.828 16.215a9.4 9.4 0 0 0 4.417 3.467q-2.227 6.631-4.065 13.385a163 163 0 0 0-4.18 19.03c-1.725 11.791-1.159 24.371 5.393 34.704a33 33 0 0 0 4.56 5.688 141 141 0 0 0 3.673 49.72c5.13 20.757 14.326 40.28 25.327 58.537 5.48 9.096 11.418 17.91 17.584 26.553q4.68 6.558 9.51 13.006c2.963 3.969 5.893 7.978 9.043 11.801 5.648 6.855 12.94 13.746 22.163 14.828 7.116.835 15.448-2.015 19.243-8.4a14.52 14.52 0 0 0 1.67-9.554 229.4 229.4 0 0 0 29.333 24.628c29.713 21.413 63.153 37.874 97.943 49.887l-2.53 9.648-7.025 26.79-8.502 32.417-7.351 28.034c-1.182 4.507-2.72 9.062-3.578 13.644-.013.066-.035.13-.052.195a1.563 1.563 0 0 0 3.013.83l2.036-7.764a300 300 0 0 0 52.186 20.245 406 406 0 0 0 70.178 13.795 415.1 415.1 0 0 0 151.656-11.645 316 316 0 0 0 56.088-20.518q2.799-1.362 5.559-2.801a1.585 1.585 0 0 0 .717-1.764l-5.517-21.037a1.563 1.563 0 0 0-3.012.83l.959 3.657a307.7 307.7 0 0 1-51.733 19.275 403.6 403.6 0 0 1-67.712 12.83 413.2 413.2 0 0 1-75.92.827 408 408 0 0 1-69.163-11.63 323 323 0 0 1-54.664-19.12q-2.301-1.064-4.577-2.18l2.864-10.923a323 323 0 0 0 50.815 18.248 415.3 415.3 0 0 0 141.08 13.049 414 414 0 0 0 67.741-11.062 337 337 0 0 0 54.605-18.507q2.83-1.255 5.627-2.578a1.576 1.576 0 0 0 .718-1.764l-6.433-24.53-10.245-39.07-1.943-7.406a393.2 393.2 0 0 0 86.536-42.074c16.32-10.68 32.035-22.807 45.236-37.235 8.781-9.596 17.656-21.043 20.529-34.025a30 30 0 0 0 .795-7.137c-.384-19.878-23.15-26.098-39.104-28.863-14.68-2.544-29.657-3.304-44.53-3.672-19.63-.485-39.277-.121-58.904.373q-9.297.235-18.594.517-.845.025-1.691.046l3.413-1.29c13.266-5.013 26.796-9.63 39.638-15.681 10.762-5.072 21.13-11.547 28.838-20.716l12.37-3.312 14.336-3.839 10.87-2.91.902-.242c1.626-.435 3.276-.825 4.899-1.288 2.188 3.07 4.557 6.02 6.893 8.956 4.453 5.597 9.111 11.198 15.158 15.147a26.4 26.4 0 0 0 18.266 4.305 17.55 17.55 0 0 0 13.75-10.452c2.432-5.795 1.495-12.346.002-18.255-1.12-4.437-2.663-8.756-4.025-13.124l2.625-.703c.398 2.404.847 4.8 1.363 7.178a73.6 73.6 0 0 0 6.493 18.823 37.64 37.64 0 0 0 12.435 14.233 27.34 27.34 0 0 0 15.377 4.166 23.54 23.54 0 0 0 14.517-5.098c5.024-4.176 6.689-10.569 6.644-16.886-.022-3.18-.347-6.358-.665-9.526a39.6 39.6 0 0 0 5.854 8.316 33.73 33.73 0 0 0 16.98 9.934c14.086 3.262 29.352-2.221 39.585-12.072 11.274-10.853 17.226-26.072 20.23-41.158.74-3.723 1.795-7.958.29-11.623a7.8 7.8 0 0 0-2.125-2.964l1.658-.444 13.77-3.687 15.5-4.15 11.074-2.965c.628-.169 1.259-.331 1.886-.506a9.31 9.31 0 0 0 6.769-8.159 9.15 9.15 0 0 0-7.42-9.704 10.9 10.9 0 0 0-4.785.33l-9.123 2.442-13.064 3.499-5.07 1.357q4.63-8.008 8.561-16.394a212.5 212.5 0 0 0 18.387-63.507 19.3 19.3 0 0 0 6.767.007 15.24 15.24 0 0 0 6.549-3.102c3.709-2.924 6.043-7.208 7.737-11.532 1.929-4.923 3.147-10.116 5.724-14.77 1.741-3.145 3.858-6.054 5.845-9.046 5.422 1.452 10.597-1.209 14.632-4.856 4.426-4.001 8.185-8.885 11.898-13.535q5.927-7.42 11.298-15.262a180 180 0 0 0 10.04-16.03 31.7 31.7 0 0 0 3.645-9.856 41 41 0 0 0-.085-11.547m-376.893 43.095c-.069.008-.165.009 0 0m-55.742 42.83a22 22 0 0 1-.616-12.333 21.1 21.1 0 0 1 2.478-5.876 19.7 19.7 0 0 1 1.85-2.558 9.6 9.6 0 0 1 2.312-2.171 3 3 0 0 1 .341-.17 5 5 0 0 0 1.017.368q.12.187.23.398a23 23 0 0 1 1.372 3.554 42.3 42.3 0 0 1 1.798 7.944 1.44 1.44 0 0 0-.513 1.123 1.57 1.57 0 0 0 1.562 1.562 7.45 7.45 0 0 1 5.5 1.733 20.5 20.5 0 0 1 4.096 4.815 1.6 1.6 0 0 0 2.137.56 1.577 1.577 0 0 0 .56-2.137 23.7 23.7 0 0 0-5.132-5.873 11.3 11.3 0 0 0-4.44-2.075 23.51 23.51 0 0 0 1.445-18.67 1.582 1.582 0 0 0-2.854-.373 10.25 10.25 0 0 1-3.305 4.083 2.2 2.2 0 0 1-.94.379q-.055.01-.115.017c-.048-.032-.091-.068-.14-.098a3.6 3.6 0 0 0-1.467-.507l-.04-.037c-.004-.003-.02-.022-.037-.043-.038-.056-.124-.176-.136-.196a4.4 4.4 0 0 1-.52-1.696 11 11 0 0 1-.024-1.221 12 12 0 0 1 .064-.833l.01-.096.013-.072a24.2 24.2 0 0 1 1.732-5.549c1.522-3.612 4.027-7.066 8.088-7.766a5.61 5.61 0 0 1 4.735 1.358 16.4 16.4 0 0 1 3.537 5.222 26.6 26.6 0 0 1 2.43 13.428q-.553.013-1.105.075a1.7 1.7 0 0 0-1.104.457 1.56 1.56 0 0 0 0 2.21 1.5 1.5 0 0 0 1.104.457 12.2 12.2 0 0 1 2.75 0c.253.038.507.079.758.132a1.66 1.66 0 0 0 1.204-.157 1.56 1.56 0 0 0 .56-2.137 1.74 1.74 0 0 0-.655-.618 35.5 35.5 0 0 0 2.562-17.058 12.4 12.4 0 0 1 .18-5.096 3.2 3.2 0 0 1 .478-.898 4 4 0 0 1 .458-.48l.103-.082a3.54 3.54 0 0 1 1.697-.655 5.3 5.3 0 0 1 3.728 1.017c2.876 2.127 3.777 6.51 4.22 9.876a32.7 32.7 0 0 1-.997 13.16 16.4 16.4 0 0 0-2.368-.122 1.562 1.562 0 1 0 0 3.124 15 15 0 0 1 2.162.112 15 15 0 0 1 2.934.754 1.57 1.57 0 0 0 1.921-1.09 1.604 1.604 0 0 0-1.091-1.922c-.13-.048-.263-.09-.394-.135l3.315-8.337c1.148-2.887 2.23-6.016 3.504-8.739a5.64 5.64 0 0 1 1.888-2.54 1.7 1.7 0 0 1 .52-.236 4 4 0 0 1 .395-.097l.074-.004q.197-.007.392.002a.4.4 0 0 0 .061 0c.021.005.034.01.062.016.1.026.2.047.301.077.022.006.214.08.265.096a5.25 5.25 0 0 1 2.114 1.96 9.6 9.6 0 0 1 1.34 3 26.2 26.2 0 0 1 .482 8.803 44.4 44.4 0 0 1-1.847 8.98c-1.799 5.93-4.512 11.502-7.01 17.154-1.431 3.237-2.808 6.506-3.913 9.87q-.059.183-.116.366c-.718 2.15-1.777 4.822-1.671 7.228v.055a5 5 0 0 0 .1 1.073 39.56 39.56 0 0 1-30.646 6.257l-.22-.05a1.5 1.5 0 0 0-.435-.859c-5.969-6.16-12.349-12.868-15.088-21.193m10.704-23.049a8.8 8.8 0 0 0 3.164-2.521 20.55 20.55 0 0 1-.782 9.957 42 42 0 0 0-.87-3.317q-.607-1.957-1.397-3.85zm-131.197 78.065a14.67 14.67 0 0 1 6.54-10.986 19.46 19.46 0 0 1 11.687-3.24 16 16 0 0 1 3.01.371 24 24 0 0 1 3.447 1.001 26.5 26.5 0 0 1 6.109 3.331 32.6 32.6 0 0 1 5.155 4.678 48 48 0 0 1 4.276 5.753 9.3 9.3 0 0 0 2.97 3.041 35 35 0 0 0 3.58 1.535 21 21 0 0 1 5.947 4.09 38.5 38.5 0 0 1 4.757 5.61 48 48 0 0 1 4.166 6.9 21.3 21.3 0 0 1 2.169 7.322 17.74 17.74 0 0 1-1.239 7.849 53 53 0 0 1-3.601 7.143 329 329 0 0 0-3.603 6.628c-2.48 4.655-4.92 9.337-7.596 13.883q-.144.24-.288.481a90 90 0 0 1-2.858-9.133q-.41-1.525-.797-3.056c-.622-2.45-1.223-4.904-1.86-7.349q.143-.022.287-.048c.272-.048.543-.1.81-.165l.153-.041q.526-.133 1.036-.307a13.6 13.6 0 0 0 3.957-2.156 11.74 11.74 0 0 0 4.699-9.405 12.14 12.14 0 0 0-3.69-8.535 10.4 10.4 0 0 0-8.63-2.69 11.13 11.13 0 0 0-6.303 3.075 11.64 11.64 0 0 1 2.929-10.192c.036-.037.068-.078.104-.115a1.7 1.7 0 0 0 .19-.233q.03-.043.057-.086a2 2 0 0 0 .086-.171 1.4 1.4 0 0 0 .065-.185q.013-.043.023-.087a1 1 0 0 0 .025-.15 1.4 1.4 0 0 0 .006-.21l-.007-.069a1.7 1.7 0 0 0-1.134-1.419c-3.644-1.302-7.33-2.54-10.827-4.184a31.3 31.3 0 0 1-10.06-7.175 1.7 1.7 0 0 0-.601-.702l-.018-.013a21.6 21.6 0 0 1-2.397-3.573 1.56 1.56 0 0 0-1.95-.64 1.59 1.59 0 0 0-.905 1.844 6.8 6.8 0 0 0 1.348 2.75q.392.524.827 1.002c-3.452 3.226-6.941 6.484-9.538 10.435a19.86 19.86 0 0 1-2.513-12.408m-5.094 78.796c.744-1.641 1.548-3.278 2.197-4.96a9.6 9.6 0 0 0 .67-3.296 65 65 0 0 0 3.836 2.85 1.57 1.57 0 0 0 2.137-.56 1.6 1.6 0 0 0-.56-2.137q-1.15-.785-2.265-1.619-.27-.202-.537-.408l-.094-.073-.25-.197q-.561-.443-1.112-.9-2.143-1.779-4.115-3.748a1.5 1.5 0 0 0-.546-.342c-.783-.825-1.591-1.629-2.321-2.498a18.88 18.88 0 0 1-4.374-13.152 24.4 24.4 0 0 1 1.66-6.748c.172-.456.258-.664.389-.958q.298-.668.636-1.316c.452-.871.951-1.716 1.46-2.555.617-1.017 1.247-2.025 1.867-3.04a1.595 1.595 0 0 0-.244-1.893 14 14 0 0 1-1.252-1.425c-.074-.113-.136-.232-.205-.348a.4.4 0 0 0-.034-.047l.005-.038a1.3 1.3 0 0 0-.052-.246q-.01-.112-.013-.226a1.82 1.82 0 0 1 .411-1.174 5.5 5.5 0 0 1 1.432-.978 27.4 27.4 0 0 0 5.696-5.017c3.72-4.13 6.682-8.657 10.363-12.802a34 34 0 0 1 2.982-3.011 13 13 0 0 1 1.316-1.047c.162-.114.33-.22.497-.327a29 29 0 0 0 3.963 3.284l.033.023q.379.265.766.519a41.4 41.4 0 0 0 5.827 3.202 76 76 0 0 0 5.66 2.278c.033.012.067.013.1.022q1.066.394 2.133.775l.632.226a14.83 14.83 0 0 0-1.144 14.849 1.39 1.39 0 0 0 .942.715 1.52 1.52 0 0 0 1.756-.715 7.35 7.35 0 0 1 5.066-4 7.45 7.45 0 0 1 6.203 1.156 8.69 8.69 0 0 1 1.187 12.59 10.4 10.4 0 0 1-2.063 1.758 10.3 10.3 0 0 1-1.758.908 10 10 0 0 1-1.075.364 10 10 0 0 1-2.73.36 1.5 1.5 0 0 0-.368.042 1.59 1.59 0 0 0-1.138 1.935c.702 2.587 1.334 5.207 1.982 7.826q.195.786.392 1.57a88 88 0 0 0 4.783 14.754c-1.934 4.712-3.706 9.488-5.555 14.234q-.593.565-1.224 1.089c-.604.499-.825.664-1.517 1.152q-.884.623-1.805 1.194a63 63 0 0 1-8.587 4.362c-5.876 2.513-12.315 4.541-18.492 6.623a202 202 0 0 0-4.642 1.614q-1.046.38-2.084.785c-.14.055-.277.115-.417.171a4.2 4.2 0 0 0-1.1-.558l-3.49-6.136c-1.235-2.171-2.58-4.314-3.67-6.563a9.3 9.3 0 0 1-.806-2.302zM316.99 101.577c-.212-.128-.04-.064 0 0m-19.178 62.788a103 103 0 0 1-7.295-20.358 61.3 61.3 0 0 1-1.435-20.924 47 47 0 0 1 .854-4.95 20 20 0 0 1 1.47-4.716 4.51 4.51 0 0 1 2.803-2.57 2.027 2.027 0 0 1 2.56 1.045 5.6 5.6 0 0 1 .392 1.887c.05.877.011 1.756.008 2.633a57 57 0 0 0 .36 6.644 59.6 59.6 0 0 0 2.9 12.89 2 2 0 0 0 .109.25l-1.118.94a1.57 1.57 0 0 0-.457 1.105 1.6 1.6 0 0 0 .457 1.104 1.57 1.57 0 0 0 1.105.458 1.76 1.76 0 0 0 1.105-.458l3.586-3.018a1.57 1.57 0 0 0 .457-1.104 1.6 1.6 0 0 0-.457-1.105 1.57 1.57 0 0 0-1.105-.457 1.66 1.66 0 0 0-.802.243c-1.005-8.833-1.724-18.41 3.524-26.013 2.085-3.021 5.367-5.84 9.087-6.454a2.3 2.3 0 0 1 .572-.04 1.6 1.6 0 0 1 .304.073l.044.019a1 1 0 0 1 .151.089l.005.006c.084.186.063.08.02-.001.05.074.09.152.14.227q.031.111.065.222a1 1 0 0 0 .039.115v.07c.006.193.016.384.007.577q-.008.15-.02.3l-.004.075a.3.3 0 0 0-.01.048 20.4 20.4 0 0 1-1.992 5.047 28.4 28.4 0 0 0-2.078 16.423 1.33 1.33 0 0 0 .257.597c-.497.431-.984.874-1.451 1.338a1.6 1.6 0 0 0-.458 1.105 1.6 1.6 0 0 0 .458 1.104 1.57 1.57 0 0 0 1.104.457 1.63 1.63 0 0 0 1.104-.457 30 30 0 0 1 2.698-2.37q.19-.144.382-.286a1.7 1.7 0 0 0 .718-.934 1.6 1.6 0 0 0-.158-1.203 1.58 1.58 0 0 0-.934-.718 2 2 0 0 0-.645-.041 14.9 14.9 0 0 1 6.461-11.265c4.044-2.827 9.384-3.884 13.826-1.394a7.35 7.35 0 0 1 2.716 2.477 4.7 4.7 0 0 1 .752 2.893 4.1 4.1 0 0 1-.247 1.343 3.9 3.9 0 0 1-.64 1.27c-.025.031-.114.145-.14.172-.088.095-.175.19-.27.28a1.3 1.3 0 0 1-.416.333 4 4 0 0 1-.412.232l-.094.04a5.8 5.8 0 0 1-1.327.313 18.3 18.3 0 0 0-4.26.795 12.9 12.9 0 0 0-3.749 2.183 10.38 10.38 0 0 0-3.78 7.375 10.02 10.02 0 0 0 2.75 7.237 8.2 8.2 0 0 0 2.747 1.9 17.78 17.78 0 0 0-6.448 11.007 1.61 1.61 0 0 0 1.091 1.922 1.573 1.573 0 0 0 1.921-1.091 15.09 15.09 0 0 1 8.835-11.53 8.5 8.5 0 0 0 5.19-4.27 7.43 7.43 0 0 0 .624-4.38c-.208-1.479-.74-2.87-1.06-4.323a5.4 5.4 0 0 1-.148-1.81 6 6 0 0 1 .179-.73c.01-.032.013-.049.018-.07l.053-.092q.102-.188.215-.368l.036-.06.015-.016a4 4 0 0 1 .517-.509l.05-.033a6 6 0 0 1 .614-.353c.042-.02.065-.034.086-.045.022-.006.038-.01.072-.022.14-.044.276-.094.417-.134.208-.059.42-.101.633-.14.069-.007.253-.031.272-.033q.15-.01.302-.015a7 7 0 0 1 .762.017c.017.001.256.033.294.035q.177.03.35.068a4.75 4.75 0 0 1 2.553 1.393c1.877 1.846 2.65 4.511 3.17 7.076a55.4 55.4 0 0 1 1.106 9.615 32.4 32.4 0 0 1-1.146 9.886 37.2 37.2 0 0 1-3.503 7.895c-1.17 2.063-2.44 4.069-3.69 6.085q-.017.021-.032.042-.341.55-.676 1.104l-.172.28q-.183.306-.365.612a56 56 0 0 0-3.67 6.984 33 33 0 0 0-1.492 4.255v.003a1.4 1.4 0 0 0-.035.178 37.7 37.7 0 0 1-31.231 5.318 8.3 8.3 0 0 0-.377-3.588c-.823-2.905-2.76-5.682-4.117-8.203a157 157 0 0 1-3.556-7.058zm39.743-35.716a12.1 12.1 0 0 1 .78 4.184c-.01.043-.048.31-.05.312q-.034.16-.08.317a2.3 2.3 0 0 1-.268.68 4.1 4.1 0 0 1-.93 1.25 4.6 4.6 0 0 1-1.212.9c-.187.105-.33.18-.451.235a1 1 0 0 0-.158.037c-.15.057-.297.124-.446.185q-.256.08-.516.139a4.7 4.7 0 0 1-2.805-.247 5.74 5.74 0 0 1-2.413-2.036 7.2 7.2 0 0 1-.776-1.469 9 9 0 0 1-.254-.827q-.064-.252-.112-.507c-.006-.03-.037-.255-.048-.315a6.23 6.23 0 0 1 .484-3.312 8 8 0 0 1 2.347-3.016 9.2 9.2 0 0 1 3.17-1.644c1.209-.348 2.481-.338 3.71-.565a9.05 9.05 0 0 0 .029 5.7zM205.898 421.855c3.556 10.643 4.757 21.726 5.837 32.839 1.134 11.669 2.275 23.58 6.62 34.576.786 1.99 1.679 3.93 2.649 5.834q-10.354.049-20.696.366l-1.361.04-1.351.045q-6.08.196-12.15.553-1.367.08-2.733.169-.767.05-1.535.103-2.565.179-5.125.4l-.351.028q-.362.033-.724.067-.762.068-1.523.14-.88.084-1.76.175-.615.06-1.227.126-.977.105-1.951.218-.575.065-1.148.131-.69.085-1.379.174l-.432.054c-3.516-13.312-14.244-22.822-24.937-30.767a76 76 0 0 1-7.568-5.897c-1.886-1.81-3.814-4.137-3.976-6.868-.198-3.348 2.186-6.062 3.92-8.69a67 67 0 0 0 5.024-9.096 75.7 75.7 0 0 0 6.28-23.114 1.57 1.57 0 0 0-1.562-1.562 1.6 1.6 0 0 0-1.562 1.562 71 71 0 0 1-5.297 20.281 67.5 67.5 0 0 1-4.916 9.322c-1.814 2.866-4.275 5.644-4.86 9.09-1.127 6.626 4.49 11.495 9.292 15.001a127 127 0 0 1 15.733 12.892c5.545 5.602 9.986 12.195 11.733 19.97v.002c2.35 11.438-1.747 23.277-13.202 27.737-9.429 3.67-20.02 2.27-29.5-.405a93.6 93.6 0 0 1-26.003-12.201 109.5 109.5 0 0 1-21.593-19.212 128 128 0 0 1-16.548-24.31A136.3 136.3 0 0 1 45.114 444c-3.094-11.308-5.011-23.193-4.327-34.938q.139-2.383.434-4.753v-.002a62.2 62.2 0 0 1 7.347-22.003 2 2 0 0 0 .144-.2 60.43 60.43 0 0 1 22.166-22.163 1.6 1.6 0 0 0 .5-.436q.186-.1.374-.198.514-.27 1.034-.532.361-.183.725-.363a64 64 0 0 1 2.326-1.071q.493-.217.99-.424.683-.287 1.372-.558.422-.168.848-.33.53-.201 1.063-.394.236-.084.472-.166 1.146-.404 2.305-.772l.11-.034q1.366-.429 2.75-.805a85.5 85.5 0 0 1 13.86-2.539l.057-.005q4.189-.421 8.427-.48a101.6 101.6 0 0 1 19.962 1.623l.286.056q1.096.207 2.182.444l.27.06a85.4 85.4 0 0 1 16.707 5.68 113 113 0 0 1 15.657 8.67q.602.4 1.198.807.869.59 1.727 1.197.74.527 1.472 1.065.712.521 1.416 1.053.578.437 1.15.88 1.077.838 2.134 1.702.198.16.396.32 4.117 3.404 7.91 7.185l.378.38q1.003 1.01 1.977 2.046.3.317.597.634c.566.61 1.12 1.228 1.672 1.85.237.268.48.531.715.802q.956 1.1 1.88 2.226c.481.585.95 1.178 1.42 1.772.248.315.5.628.744.946q.633.823 1.248 1.66.378.51.751 1.024 1.605 2.222 3.1 4.521l.008.012q1.61 2.493 3.078 5.075l.084.147q.709 1.252 1.382 2.523.038.076.08.152.663 1.259 1.294 2.535a96 96 0 0 1 4.932 11.973m-1.018-185.658 1.92.804q-.4.958-.796 1.918l-1.925-.794q.398-.965.801-1.928m-1.593 3.86 1.929.785q-.392.962-.778 1.926l-1.933-.775q.388-.97.782-1.937zm-1.555 3.875 1.937.766q-.382.966-.758 1.934l-1.941-.755q.38-.973.762-1.945zm-1.514 3.892 1.944.745q-.371.97-.737 1.94l-1.95-.734q.369-.976.743-1.951zm-1.475 3.906 1.951.726q-.361.974-.719 1.949l-1.955-.716q.359-.98.723-1.959zm-1.436 3.922 1.96.706q-.353.977-.7 1.956l-1.963-.696q.349-.984.703-1.966zm-1.396 3.935 1.967.686q-.342.98-.679 1.962l-1.97-.674q.338-.988.683-1.974zm-1.356 3.95 1.973.666q-.332.984-.659 1.97l-1.977-.655q.33-.993.664-1.981zm-1.315 3.963 1.98.647q-.323.987-.64 1.976l-1.983-.636q.32-.995.643-1.987m-1.275 3.977 1.986.625q-.312.99-.62 1.984l-1.989-.617q.31-.997.623-1.992zm-1.236 3.988 1.993.606q-.303.994-.6 1.99l-1.995-.596q.299-1.001.602-2zm-1.194 4.001 1.998.586q-.292.997-.579 1.995l-2.001-.575q.288-1.004.582-2.006zm-1.155 4.013 2.005.566q-.283 1-.56 2l-2.007-.555q.279-1.006.562-2.011zm-1.113 4.025 2.01.545q-.272 1.002-.54 2.007l-2.012-.536q.27-1.009.542-2.016zm-1.073 4.036 2.016.525q-.262 1.005-.518 2.011l-2.019-.514q.258-1.012.522-2.022zm-1.032 4.046 2.02.505q-.25 1.007-.497 2.016l-2.024-.494q.249-1.015.501-2.027zm-.99 4.057 2.026.483q-.241 1.01-.478 2.023l-2.028-.475q.238-1.016.48-2.031zm-.95 4.066 2.031.464q-.232 1.012-.457 2.026l-2.033-.453q.227-1.02.46-2.037zm-.908 4.076 2.035.442q-.22 1.016-.437 2.032l-2.037-.433q.217-1.022.439-2.041zm-.866 4.083 2.039.425-.072.347-2.041-.416zM37.42 407.213q-.637 3.089-1.102 6.2c-6.44-7.632-8.586-18.01-8.193-27.87a99.3 99.3 0 0 1 2.848-18.568c.255-1.092.527-2.18.798-3.268q.031-.055.064-.108l-.033-.02q.263-1.053.534-2.104l.595.387q.563-.865 1.143-1.706l-1.174-.81q1.402-5.21 3.03-10.354.788-2.475 1.631-4.934c.014-.032.03-.06.042-.093q.429-1.249.865-2.501.056-.158.11-.315.2-.567.402-1.133 1.528-4.216 3.23-8.364a97 97 0 0 1 2.042-4.621c.26-.535.514-1.073.785-1.6l.01-.021q.65-1.264 1.35-2.5a36.5 36.5 0 0 1 11.24-12.49q.258-.172.52-.34.317-.21.642-.413.757-.462 1.54-.889l.216-.115q.724-.388 1.47-.746c.085-.04.169-.084.254-.124q.818-.386 1.652-.737l.312-.13a72 72 0 0 1 13.444-3.826q1.1-.22 2.203-.425l.309-.056q.4-.073.8-.144l1.05-.183a184 184 0 0 1 24.193-2.522l.176-.007q1.471-.055 2.943-.088h.034q1.422-.031 2.845-.039l.69-.001q.86-.002 1.72.004c1.354.009 2.708.028 4.062.066q.284.01.566.02 1.783.055 3.565.146.559.026 1.118.057 1.96.11 3.916.258c.31.024.619.053.929.078q1.586.13 3.17.288.636.062 1.27.128 1.89.2 3.776.437c.38.049.761.103 1.142.153q1.49.199 2.977.422.637.094 1.276.192 1.886.296 3.766.63.533.098 1.066.197 1.597.295 3.189.617c.434.088.869.172 1.302.263l.286.06q1.422.302 2.841.625a139 139 0 0 1 15.142 4.255 75.7 75.7 0 0 1 12.95 5.934 46.06 46.06 0 0 1 16.412 15.75q.106.175.207.352.378.648.73 1.312c.126.239.245.48.366.722q.183.365.36.735.186.393.365.79.276.622.532 1.256c.089.222.17.446.255.67q.199.525.38 1.057c.066.192.135.383.197.577l.034.107q.147.461.278.925.055.188.107.377.077.286.15.573a33 33 0 0 1 .515 2.387q.07.4.13.8l.046.343q.055.396.098.79.053.486.09.972l.01.15a28.6 28.6 0 0 1-.063 4.674l-.033.313q-.063.578-.155 1.15c-.028.175-.063.35-.095.526a28 28 0 0 1-.285 1.37q-.03.119-.058.238c-.974 3.996-2.688 7.785-3.778 11.745q-.107-.207-.215-.412l-1.834.985c.319.595.628 1.205.917 1.813l.627-.299q-.124.599-.222 1.205c-.898 5.691.7 10.94 2.605 16.248 1.86 5.19 3.599 10.428 2.46 15.994a22.8 22.8 0 0 1-1.712 5.12q-1.758-3.328-3.75-6.521c-.203-.324-.418-.639-.623-.96q-.464-.727-.938-1.447-.455-.687-.918-1.368-.571-.833-1.156-1.655c-.272-.382-.54-.767-.817-1.146q-.824-1.13-1.68-2.236c-.132-.173-.26-.349-.393-.52q-1.063-1.366-2.17-2.697c-.226-.271-.458-.537-.685-.806a113 113 0 0 0-1.597-1.853q-.427-.482-.86-.957-.751-.832-1.518-1.649-.456-.486-.917-.965-.794-.825-1.608-1.633c-.288-.288-.574-.579-.865-.863q-1.105-1.079-2.238-2.127c-.09-.082-.175-.168-.264-.25-.097-.09-.2-.175-.297-.265q-1.108-1.01-2.24-1.993c-.422-.366-.852-.723-1.28-1.084-.414-.347-.827-.696-1.245-1.038q-.87-.71-1.755-1.405-.166-.132-.332-.265-.156-.119-.311-.236a116 116 0 0 0-9.865-6.876l-.123-.078c-.666-.413-1.338-.815-2.013-1.214q-.542-.324-1.09-.64-.82-.475-1.65-.936-.801-.446-1.61-.876c-.3-.16-.594-.33-.894-.487a101.4 101.4 0 0 0-16.563-7.018l-.3-.093q-.835-.258-1.675-.497l-.488-.14a72 72 0 0 0-1.856-.484l-.264-.069c-.122-.03-.244-.055-.366-.084q-.194-.048-.388-.095c-.126-.029-.252-.053-.378-.082q-1.011-.232-2.029-.442l-.074-.015a102.2 102.2 0 0 0-25.94-1.88q-.26.014-.518.03-.892.053-1.782.12-.605.044-1.208.095l-.145.011c-.19.017-.38.04-.57.057q-2.956.277-5.889.735-.4.062-.8.126-.824.137-1.646.29-.444.082-.885.167c-.321.063-.643.116-.963.182a81 81 0 0 0-7.807 2.01l-.02.007q-2.116.66-4.19 1.444l-.514.195q-.902.349-1.795.721c-.193.08-.384.166-.576.248q-.647.278-1.289.57-.352.159-.702.32-.81.38-1.611.781-.341.173-.68.35-.652.335-1.295.686-.25.134-.5.27-.666.372-1.323.758c-.12.07-.236.145-.355.216q-.262.157-.521.316-.78.478-1.545.979-.097.06-.192.121l-.045.031q-.869.58-1.715 1.187-.273.195-.544.393-.812.596-1.605 1.216-.224.18-.445.36-.65.522-1.284 1.063-.238.2-.475.404-.77.671-1.516 1.37-.204.193-.409.388-.715.682-1.41 1.388-.076.077-.154.155a58 58 0 0 0-1.518 1.63l-.271.304a56 56 0 0 0-1.476 1.73l-.046.057q-.694.854-1.355 1.738-.074.093-.146.186-.063.086-.126.174-.24.329-.48.662-.173.241-.344.485c-.08.116-.165.229-.245.345-.123.178-.24.36-.36.54l-.158.235q-.352.53-.693 1.068-.017.03-.036.059-.342.54-.67 1.086a90 90 0 0 0-2.825 5.06 62 62 0 0 0-5.257 13.902 67 67 0 0 0-1.272 7.027l-.003.009a111 111 0 0 0-.678 3.056zm102.983 173.129a12.1 12.1 0 0 1-4.9 5.71 18.8 18.8 0 0 1-16.67 1.576c-6.976-2.67-12.272-8.47-16.82-14.173-5.201-6.519-10.107-13.302-14.986-20.062-10.06-13.94-19.592-28.312-27.597-43.543a190.6 190.6 0 0 1-18.02-48.11 139 139 0 0 1-3.173-36.338 134 134 0 0 0 2.944 15.88 140 140 0 0 0 10.4 28.516 133.2 133.2 0 0 0 16.338 25.462 115 115 0 0 0 21.61 20.466 97.5 97.5 0 0 0 26.217 13.527c.826.275 1.658.534 2.492.785.006.092.016.183.022.275q.02.28.045.557c1.024 11.377 7.806 21.877 14.675 30.611.153.194.312.383.465.576q.258.322.518.641 2.718 3.375 5.633 6.586c1.237 3.556 2.197 7.405.807 11.058m411.43-80.963q7.684-.225 15.368-.423c18.246-.463 36.505-.804 54.756-.484 14.49.254 29.068.818 43.429 2.879 9.965 1.43 20.456 3.41 29.371 8.315 7.084 3.898 12.216 9.958 12.377 18.315.265 11.63-7.28 22.955-14.187 31.672-11.234 14.18-25.324 26.092-39.971 36.595-29.697 21.296-63.044 37.627-97.74 49.53a1.2 1.2 0 0 0-.394.061q-19.543 6.728-39.656 11.629l-.751.178q-2.625.634-5.257 1.234-1.305.298-2.612.584-1.54.342-3.084.673-1.963.42-3.93.824-.525.105-1.049.212a426.5 426.5 0 0 1-151.256 3.147l-.743-.118q-2.388-.386-4.77-.8-.728-.127-1.456-.257-1.957-.346-3.912-.711-.54-.1-1.078-.2-1.934-.367-3.867-.752-1.279-.254-2.556-.517l-1.253-.258a444 444 0 0 1-54.018-14.868 1.3 1.3 0 0 0-.455-.058A395 395 0 0 1 189.914 606c-16.559-10.53-32.46-22.499-46.026-36.74q-1.087-1.14-2.173-2.317a26 26 0 0 0-.416-.467q-1.512-1.665-2.97-3.376a115 115 0 0 1-4.938-6.194 71.2 71.2 0 0 1-9.717-16.974l-.048-.131c-.113-.303-.216-.609-.322-.914q-.478-1.394-.868-2.815l-.111-.414q-.091-.348-.176-.696a37 37 0 0 1-.22-.99 31 31 0 0 1-.48-3.04c10.336 2.644 21.827 3.532 31.625-1.29 11.008-5.417 14.882-17.25 13.111-28.707q.543-.07 1.087-.137l.9-.105q1.081-.127 2.163-.246l.673-.07q1.158-.123 2.317-.237.389-.038.778-.074 1.055-.1 2.11-.192.544-.048 1.087-.093.833-.07 1.667-.134.78-.061 1.563-.12l.977-.069c9.058-.632 18.149-.892 27.217-1.023q3.231-.046 6.463-.061 1.553-.01 3.106-.012c1.757-.005 3.514-.01 5.27-.006 17.843.035 35.685.511 53.518 1.035q19.314.568 38.628 1.193-.747 3.26-1.392 6.54-.16.8-.31 1.604-.046.232-.09.464c-.03.164-.052.33-.08.495-.102.574-.211 1.146-.304 1.721-.55 3.398-.588 6.92-1.467 10.25-20.187-.418-40.901-1.265-61.076 1.012a114 114 0 0 0-12.84 1.957c-.976.205-1.975.436-2.983.698-5.456 1.38-11.748 3.62-14.7 8.639a10.2 10.2 0 0 0-1.257 3.445c-.018.096-.027.196-.042.294-.026.175-.052.35-.07.526-.026.244-.04.495-.05.749l-.001.021a13 13 0 0 0 .201 2.84c1.571 8.734 9.429 15.983 16.272 21.455a133 133 0 0 0 14.036 9.953l.585.362q1.094.676 2.194 1.337.586.351 1.175.698c.242.143.483.29.726.432.306.178.616.35.922.526q.844.486 1.692.965a264.4 264.4 0 0 0 47.646 20.678q.855.284 1.71.562c.488.158.976.31 1.463.466q1.494.476 2.992.939.305.094.611.186 1.817.556 3.64 1.092l.51.148q1.722.502 3.448.988.206.06.41.118c.228.064.458.123.686.186q1.777.493 3.558.968.94.25 1.88.497.325.087.65.172c.484.125.97.242 1.454.365 1.11.281 2.219.563 3.33.834q.588.14 1.175.28a353.6 353.6 0 0 0 74.535 9.68c2.422.054 4.844.073 7.267.076q10.974.066 21.935-.614 7.808-.493 15.588-1.36a355 355 0 0 0 37.898-6.141c.411-.09.824-.173 1.234-.264l.073-.016c.452-.1.902-.206 1.353-.308q1.934-.436 3.864-.892c.187-.045.376-.085.563-.13.338-.081.676-.168 1.014-.25q1.448-.35 2.894-.711.687-.173 1.373-.348 1.484-.38 2.965-.77.816-.216 1.63-.436 1.241-.335 2.48-.678 1.16-.322 2.316-.652.798-.228 1.595-.46 1.643-.475 3.28-.97l.445-.134a287 287 0 0 0 46.465-18.407q.944-.475 1.883-.96c.316-.164.635-.321.95-.486l.6-.318q.665-.351 1.33-.707.937-.501 1.87-1.01.45-.247.9-.497 1.26-.695 2.51-1.41l.063-.037c3.84-2.196 7.606-4.521 11.254-7.017 8.093-5.434 16.46-11.875 21.684-20.144 2.142-3.27 3.85-7.082 3.575-10.991a11.2 11.2 0 0 0-2.236-5.886c-2.64-3.429-6.841-5.353-10.987-6.647a75.4 75.4 0 0 0-15.675-3.13c-3.867-.454-7.758-.74-11.622-.965-9.264-.58-18.56-.708-27.845-.687l-1.95.005q-.949.004-1.897.01-1.62.009-3.24.022l-.698.005-.698.008-1.536.013-.918.014q-4.71.052-9.42.134l-.924.017q-4.438.08-8.876.177a10.57 10.57 0 0 0-3.66-4.195 7.7 7.7 0 0 0-3.466-1.23q.582-1.937 1.123-3.886l30.44-11.503c5.154-1.946 11.054-1.421 16.518-1.582m-243.298 39.737a19 19 0 0 0 2.888 3.542 128 128 0 0 0-5.995 14.676c-2.582 7.11-5.03 14.27-7.664 21.362A346 346 0 0 1 293 590.864q-6.008-2.284-11.91-4.827-1.143-.493-2.29-.998-3.852-1.71-7.65-3.533a196 196 0 0 1-25.032-14.218 105 105 0 0 1-12.834-10.057 96 96 0 0 1-1.39-1.346q-.534-.527-1.058-1.063l-.062-.064a65 65 0 0 1-1.516-1.606c-3.091-3.42-6.216-7.52-7.002-12.166-.769-4.55 2.326-7.978 6.42-10.042a33 33 0 0 1 2.521-1.133 51 51 0 0 1 3.698-1.172 85.6 85.6 0 0 1 13.122-2.487 297 297 0 0 1 4.656-.452c1.452-.133 2.906-.248 4.36-.354q1.033-.07 2.062-.134c8.12-.508 16.26-.679 24.397-.708q1.025-.004 2.051-.006h1.289q1.713.003 3.425.009l1.103.005q1.389.007 2.778.02 4.423.033 8.845.098.505.007 1.01.015 3.272.05 6.544.116a31 31 0 0 0-3.139 4.604 8.5 8.5 0 0 0-.636 1.993 7.4 7.4 0 0 0-.19 1.556 11.28 11.28 0 0 0 1.963 6.202m170.395 21.805-1.698 1.205a3.12 3.12 0 0 1-.651-1.794 2.1 2.1 0 0 1 .528-1.405l1.568 1.37-.012.017a1.2 1.2 0 0 0 .265.607m.023 2.845 1.278-1.643c.529.41 1.078.814 1.632 1.198l-1.185 1.712a39 39 0 0 1-1.725-1.267m3.517 2.436 1.09-1.775a38 38 0 0 0 1.754 1.011l-.99 1.832a39 39 0 0 1-1.854-1.068zm3.762 2.034.89-1.883c.607.287 1.231.562 1.855.817l-.788 1.927a40 40 0 0 1-1.957-.861m3.956 1.617.685-1.967c.633.22 1.282.427 1.931.615l-.578 2a40 40 0 0 1-2.038-.648m4.106 1.187.471-2.028c.658.152 1.326.288 1.986.404l-.361 2.052a40 40 0 0 1-2.096-.428m4.212.74.25-2.067c.67.08 1.348.143 2.016.187l-.135 2.078a39 39 0 0 1-2.13-.197zm13.403-46.904c14.045-.302 28.1-.542 42.146-.26 5.23.105 10.494.247 15.743.576 3.117.226 6.228.502 9.33.846q1.32.146 2.66.309c1.606.218 3.208.462 4.803.743 1.784.315 3.717.662 5.662 1.12a39.5 39.5 0 0 1 6.915 2.445c3.107 1.466 6.072 3.659 6.897 6.954a11.44 11.44 0 0 1-1.125 7.261 27 27 0 0 1-1.703 3.086 40 40 0 0 1-1.594 2.245 51 51 0 0 1-3.98 4.59 81 81 0 0 1-3.303 3.153 95 95 0 0 1-4.314 3.668q-.862.686-1.731 1.353a134 134 0 0 1-7.878 5.582q-2.955 1.936-5.98 3.748-1.682 1.008-3.384 1.981-3.08 1.755-6.21 3.404a262 262 0 0 1-30.497 13.591c-3.297-8.802-6.698-17.57-10.423-26.201a174 174 0 0 0-10.34-20.867 61 61 0 0 0-5.522-7.857 16.33 16.33 0 0 0 3.722-6.807 11.1 11.1 0 0 0 .106-4.662zm-2.029 60.012.598 1.994-1.994.6-.6-1.995zm-2.594-1.396-.599-1.995 1.996-.598.598 1.994zm3.791 5.386.598 1.994-1.994.6-.599-1.996zm1.198 3.99.598 1.993-1.994.6-.6-1.996zm1.197 3.99.598 1.993-1.994.6-.6-1.996zm-5.389-17.954-1.994.6-.599-1.996 1.995-.598zm-3.191-3.39-.6-1.996 1.996-.598.598 1.994zm-.229-3.484q-.762.03-1.527.03l-.36-.001.018-2.083.344.002q.72 0 1.44-.03l.81-.032.3 1.004-1.057.323zm122.575-134.444-10.62 2.843c-1.798.482-3.643.885-5.417 1.45l-.005.002-.073.02-13.31 3.564q-8.258 2.21-16.515 4.422l-14.75 3.949-11.426 3.06-6.593 1.765c-.348.093-.696.183-1.042.28a9.168 9.168 0 0 0 .738 17.877 10.4 10.4 0 0 0 4.444-.275l5.32-1.425 10.31-2.76 13.961-3.74 16.17-4.33 15.334-4.105c-7.407 7.444-16.764 12.821-26.265 17.186-13.382 6.146-27.434 10.913-41.2 16.115l-9.24 3.492a60 60 0 0 0-6.356 2.402q-5.402 2.04-10.804 4.083l-12.955 4.895c-.309.116-.656.222-1.02.328a70 70 0 0 1 1.464-3.058c2.02-4.029 3.716-8.187 5.362-12.38a1.573 1.573 0 0 0-1.091-1.92 1.6 1.6 0 0 0-1.922 1.09c-1.608 4.098-3.293 8.128-5.264 12.066a42 42 0 0 0-2.638 6.18 48 48 0 0 0-1.235 5.167 32 32 0 0 1-.481 1.733 1.36 1.36 0 0 0 .287 1.378 1.78 1.78 0 0 0 1.634.544c3.065-.5 5.106 1.779 6.307 4.284q.05.128.098.258a9.3 9.3 0 0 1-.992 7.958l-.002.002q-.175.297-.368.587l-.027.04a18 18 0 0 1-1.732 2.177l-.127.136q-.188.2-.381.395-.141.143-.285.283-.129.126-.257.25a39 39 0 0 1-4.163 3.358 97 97 0 0 1-2.661 1.822l-.262.17q-.033.018-.064.035a113.6 113.6 0 0 1-14.303 7.891q-.244.113-.489.224-.766.352-1.538.692l-.39.171q-1.115.484-2.237.947-.407.169-.816.335a131 131 0 0 1-3.122 1.217q-1.65.617-3.314 1.189-.356.122-.713.242-1.31.446-2.626.866-.43.138-.861.274-1.377.43-2.762.833-.299.09-.598.178-1.567.45-3.144.866c-.478.127-.959.247-1.438.37q-.85.216-1.702.424-.909.222-1.82.433c-.383.089-.766.173-1.148.26a187 187 0 0 1-21.988 3.512l-.195.02q-1.25.124-2.5.233l-.32.028a258 258 0 0 1-36.178.295q-2.237-.14-4.471-.312a229 229 0 0 1-36.448-5.504c-13.275-3.225-26.36-8.014-37.668-15.809a14.6 14.6 0 0 1-4.271-5.952l-.015-.048a5.85 5.85 0 0 1-.265-2.597l.002-.015c.241-1.781 1.345-3.284 2.612-4.886a14 14 0 0 0 1.534-2.416 11 11 0 0 0 .684-1.267 2 2 0 0 0 .119-.272 1 1 0 0 0 .061-.196c1.17-3.63 1.143-7.481 1.748-11.224.315-1.95.69-3.89 1.094-5.823l.065-.319c.105-.499.217-.997.324-1.495q.56-2.557 1.165-5.103c.005-.02.003-.038.007-.058 1.34-5.64 2.843-11.244 4.403-16.825 1.72-6.148 3.523-12.277 5.46-18.361a1.4 1.4 0 0 0 .335-.615c.17-.73.36-1.452.554-2.173l.025-.08a12.4 12.4 0 0 0 .591-2.055c3.784-12.436 10.961-23.547 18.675-33.93 2.427-3.267 4.922-6.48 7.423-9.69a1.614 1.614 0 0 0 0-2.208 1.573 1.573 0 0 0-2.21 0c-9.148 11.735-18.395 23.672-24.203 37.49q-.731 1.74-1.376 3.512a355 355 0 0 1-2.457-5.228q-3.527-7.71-6.68-15.584a344 344 0 0 1-14.002-43.346c.189-.064.378-.138.566-.195q.304-.092.612-.177l-.555-2.008q-.334.093-.662.192-.236.073-.471.153a433.6 433.6 0 0 1-11.394-76.26q-.246-3.83-.443-7.661c1.053-.383 2.123-.725 3.18-1.087a16.5 16.5 0 0 0 5.505-2.624c1.86-1.583 2.045-4.079 1.987-6.352-.052-2.007-3.177-2.014-3.124 0 .04 1.568.14 3.367-1.33 4.323a23.5 23.5 0 0 1-5.384 2.15q-.494.167-.985.34c-.797-16.971-.967-33.97-.896-50.96.045-10.992.188-21.984.336-32.977.033-2.482.013-5-.004-7.533a42 42 0 0 0 1.756 1.014l.996-1.828a40 40 0 0 1-1.757-1.017l-.996 1.627c-.051-7.803-.05-15.747 1.7-23.244a27.7 27.7 0 0 1 5.314-11.374c.673 1.2 1.353 2.395 1.969 3.622a11 11 0 0 1 .977 2.576 5.66 5.66 0 0 1-.163 2.824 1.32 1.32 0 0 0 .193 1.231 1.73 1.73 0 0 0 .882.684l.016.007.027.008q.67.212 1.343.398a40.86 40.86 0 0 0 28.837-2.729 38.3 38.3 0 0 0 6.226-3.864q.57-.421 1.126-.863l.006-.004a1.32 1.32 0 0 0 .363-1.58 1.55 1.55 0 0 0-.363-.63 1.6 1.6 0 0 0-.258-.21 51 51 0 0 1 4.428-8.796c3.226 2.805 4.022 7.568 4.378 11.671.375 4.323.538 8.671.803 13.002q.837 13.653 1.825 27.297c1.41 19.081 3.141 38.146 5.55 57.129a550 550 0 0 0 9.63 55.72c3.765 16.141 8.506 32.19 15.477 47.263 5.163 11.164 11.766 22.205 20.915 30.592l-1.637 1.467a30.3 30.3 0 0 0-4.652 4.538c-1.255 1.747-1.432 3.918-1.474 6-.039 1.987-.043 3.976.025 5.962a61 61 0 0 0 1.193 10.369 78.3 78.3 0 0 0 3.717 11.98 1.58 1.58 0 0 0 2.61.69 78 78 0 0 1 8.107-7.42c1.624-1.337 3.248-2.68 4.787-4.11l1.941-.196a7 7 0 0 0-.3-1.412c.365-.376.724-.756 1.073-1.148a37 37 0 0 0 1.99-2.44c1.433 5.069 2.995 10.098 4.436 15.166.478 1.684.878 3.401 1.404 5.07.483 1.532 1.368 3.091 3.043 3.5 1.97.483 3.566-.944 5.06-1.984a99 99 0 0 1 4.056-2.669c5.331-3.334 10.931-6.222 16.206-9.648a53.4 53.4 0 0 0 13.973-12.587 12.3 12.3 0 0 0 1.727-2.87q5.78.477 11.575.78c7.917.4 15.852.517 23.774.22a175.7 175.7 0 0 0 38.212-5.383 153 153 0 0 0 16.658-5.467q.108.098.232.215a1.581 1.581 0 0 0 2.666-1.105l.012-.236c2.129-.79 4.297-1.477 6.405-2.309a1.564 1.564 0 0 0-.83-3.012 28 28 0 0 0-5.41 1.706c.623-15.826-.29-31.729-1.62-47.494a30 30 0 0 0 6.383.353 1.596 1.596 0 0 0 1.562-1.562 1.576 1.576 0 0 0-1.562-1.562 27.3 27.3 0 0 1-6.666-.438c-1.426-16.086-3.382-32.149-6.097-48.067-.673-3.941-1.811-7.764-2.535-11.684-.544-2.946.502-5.366 2.028-7.686q.44.106.882.201a42.68 42.68 0 0 0 27.255-3.188 39.4 39.4 0 0 0 5.73-3.346q.588-.406 1.164-.834a1.97 1.97 0 0 0 .634-.779 1.36 1.36 0 0 0-.073-1.356v-.002c-.594-1.086.048-2.66.323-3.754.179-.71.377-1.413.584-2.113 4.183 2.57 6.217 8.019 7.84 12.362q3.764 10.074 7.18 20.274 5.909 17.61 10.802 35.538c-.41.444-.808.893-1.179 1.342l1.606 1.326c.071-.086.148-.172.22-.258.226.84.456 1.678.678 2.518q3.093 11.697 5.749 23.504c4.29 19.149 7.814 41.231 1.896 60.424m-14.444 19.622-6.313 1.69-16.584 4.441-15.162 4.06-12.415 3.324-8.204 2.197-2.117.567a7.6 7.6 0 0 1-2.224.36 6.07 6.07 0 0 1-4.482-2.077 6.1 6.1 0 0 1-1.227-2.24 8 8 0 0 1-.174-.716 2.3 2.3 0 0 1-.062-.48 7 7 0 0 1-.001-1.061c0 .007.038-.322.033-.325a6.1 6.1 0 0 1 4.53-5.016c1.403-.382 2.809-.752 4.212-1.128l9.52-2.55 13.38-3.582 15.855-4.245 16.76-4.488 2.071-.554a64 64 0 0 0 2.604 11.823m309.061-254.763 1.714 1.184q-.595.86-1.198 1.716l-1.702-1.2q.597-.848 1.186-1.7m-2.389 3.388 1.691 1.216q-.61.849-1.227 1.693l-1.681-1.23q.612-.836 1.217-1.679M713.422 414.51l-3.852 1.031c-.126-9.622 2.022-19.257 4.92-28.498a160 160 0 0 0-1.068 27.467m174.714-128.991-.006.242c-.01.429-.03.857-.05 1.285-.01.202-.017.403-.03.604a91 91 0 0 1-.453 4.918 1 1 0 0 0 .013.286c-.382 3.33-.919 6.65-1.476 9.931q-1.367 8.058-3.367 15.99a209 209 0 0 1-10.5 31.172 213 213 0 0 1-13.336 26.06c-.645.835-1.138 1.86-1.694 2.752q-.848 1.363-1.717 2.713-3.577 5.555-7.498 10.878c-.38.515-.767 1.025-1.152 1.537l-.227.3a12.17 12.17 0 0 0-8.103 2.88c-2.807 2.372-4.41 5.965-5.44 9.412-.543 1.818-.943 3.675-1.332 5.53l-.003.023a69.5 69.5 0 0 1-8.182 16.046q-1.843 2.684-3.941 5.174a1.605 1.605 0 0 0 0 2.21 1.575 1.575 0 0 0 2.21 0 73 73 0 0 0 12.336-20.94c.166-.434.323-.87.48-1.306q7.067-7.527 13.37-15.719a4.95 4.95 0 0 1 3.312 2.426c1.665 3.087.389 7.33-.262 10.543-2.817 13.902-8.11 27.893-18.173 38.207-9.086 9.312-22.811 15.07-35.898 12.8-12.104-2.1-20.854-11.09-25.113-22.274a61 61 0 0 1-1.387-4.093l-.429-4.589-2.406-25.755-.524-5.61a79 79 0 0 1 .912-9.823c.795.29 1.59.577 2.383.87a1.57 1.57 0 0 0 1.921-1.091 1.604 1.604 0 0 0-1.09-1.922c-1.64-.605-3.283-1.205-4.92-1.817a24 24 0 0 1-.458-.175q-.06-.023-.118-.048l-.078-.034a10 10 0 0 1-.868-.453q-.142-.091-.28-.19c-.031-.034-.21-.184-.246-.222a3 3 0 0 1-.137-.148c-.08-.131-.159-.259-.227-.397a1.57 1.57 0 0 0-2.137-.56 1.6 1.6 0 0 0-.56 2.137 6.69 6.69 0 0 0 3.847 2.936 86 86 0 0 0-1.01 9.543 1.7 1.7 0 0 0-.13.629c-.317 12.428-.09 25.36 3.493 37.375l1.083 11.586c.614 6.576 1.537 14.01-2.44 19.774-2.712 3.93-7.297 6.082-11.896 6.849a24.6 24.6 0 0 1-14.504-2.074c-5.29-2.565-9.44-7.151-12.44-12.125a62.4 62.4 0 0 1-6.75-17.175 128 128 0 0 1-2.327-11.656 2 2 0 0 0-.024-.339q-1.119-7.293-1.536-14.667a157.6 157.6 0 0 1 4.533-47.488 2 2 0 0 0 .049-.306 26 26 0 0 0 4.88 3.372 1.596 1.596 0 0 0 2.138-.56 1.58 1.58 0 0 0-.56-2.137 23.36 23.36 0 0 1-10.55-11.519 1.57 1.57 0 0 0-2.137-.56 1.603 1.603 0 0 0-.56 2.137 25.8 25.8 0 0 0 5.117 7.673 1.6 1.6 0 0 0-1.388 1.07c-5.643 14.651-11.334 29.857-11.678 45.747q-.044 2.026.06 4.02a1 1 0 0 0-.01.176A63.6 63.6 0 0 0 709.29 433c.01.036.029.067.042.102q.253.864.523 1.728c1.94 6.168 4.332 12.38 5.08 18.843.67 5.789-.386 11.812-5.125 15.677-4.6 3.752-11.21 3.985-16.694 2.377-6.56-1.922-11.81-6.752-16.243-11.76a159 159 0 0 1-12.164-15.441q-.006-.012-.012-.025-1.034-1.493-1.998-3.034-.141-.226-.278-.453-.149-.245-.296-.493a42.6 42.6 0 0 1-6.03-17.983 122 122 0 0 1 .217-20.445 177.4 177.4 0 0 1 6.868-36.726 191.1 191.1 0 0 1 34.382-65.3 183.4 183.4 0 0 1 57.008-47.287 172 172 0 0 1 6.14-3.057 60.8 60.8 0 0 0 20.912-13.98c1.402-1.443-.804-3.654-2.209-2.21a57.8 57.8 0 0 1-12.318 9.637 27 27 0 0 0 1.083-3.019c.984-3.287 1.536-6.681 2.242-10.036l.053-.247q.12-.566.249-1.13c.14-.61.282-1.22.44-1.825.189-.726.395-1.466.631-2.2a13 13 0 0 1 3.252-5.494c3.056-2.889 7.162-4.168 11.28-4.521.496-.04.99-.073 1.487-.09.55-.02 1.1-.022 1.65-.016h.154q.838.015 1.675.066.076.003.153.007c.521.033 1.041.08 1.561.131q.14.013.28.026c.476.05.952.113 1.427.179q.209.027.417.055.653.098 1.305.212.267.043.533.09a60 60 0 0 1 1.208.237q.31.061.62.126c.38.081.758.169 1.137.256q.338.078.675.158.793.191 1.58.396a157 157 0 0 1 15.119 4.813c.74.277 1.474.566 2.21.855.54.211 1.083.418 1.621.636.812.329 1.618.672 2.424 1.014.46.195.923.385 1.38.584.867.378 1.727.771 2.586 1.164.396.182.796.357 1.19.541.911.426 1.814.868 2.716 1.31.341.168.686.329 1.026.499.965.482 1.921.981 2.876 1.483.273.143.549.28.821.425q1.68.896 3.338 1.834.154.085.31.17 1.814 1.028 3.602 2.103c.232.14.46.287.693.429.947.575 1.892 1.155 2.827 1.75.452.287.895.587 1.344.879.72.468 1.442.933 2.154 1.412.482.326.957.663 1.436.994.668.46 1.338.918 1.999 1.388.49.35.974.712 1.46 1.068.64.466 1.28.93 1.913 1.405.488.369.969.748 1.453 1.122.62.478 1.24.952 1.853 1.439.484.385.96.781 1.44 1.173.6.49 1.203.976 1.797 1.474.478.402.949.814 1.422 1.222.583.501 1.167 1 1.742 1.51.474.42.94.85 1.409 1.275.562.51 1.126 1.02 1.68 1.538.472.44.934.89 1.399 1.335.647.62 1.297 1.236 1.933 1.867l.034.034c1.964 1.949 3.923 3.94 5.754 6.039l.188.215c.346.4.682.805 1.017 1.213q.212.254.42.513c.26.325.513.657.766.988.185.243.372.484.552.73.215.292.42.591.628.889.192.276.388.55.574.831q.422.643.82 1.301a28.5 28.5 0 0 1 4.024 15.524m-44.165 112.129q-3.098 3.924-6.378 7.7c-.44.504-.89 1-1.336 1.5 1.307-4.127 3.446-7.973 7.714-9.2m80.098-149.485a47 47 0 0 1-2.96 5.174 1.4 1.4 0 0 0-.174.397c-1.777 2.701-3.727 5.304-5.31 7.898-2.581 4.227-4.138 8.824-5.717 13.491-1.426 4.218-3.053 8.521-6.075 11.884a13.6 13.6 0 0 1-5.54 3.905 14.8 14.8 0 0 1-7.435.404l.002-.017c.589-5.64.745-11.414-1.159-16.834a28 28 0 0 0-.511-1.337l-.011-.029-.02-.043a39.5 39.5 0 0 0-5.791-9.523l-.108-.134q-.28-.35-.564-.695l-.208-.25q-.24-.287-.482-.57-.128-.152-.258-.302-.227-.264-.456-.525l-.264-.298-.21-.238-.094-.102q-.91-1.015-1.847-2.002l-.062-.064a151 151 0 0 0-19.115-17.1c-.234-.179-.466-.361-.701-.538-.66-.496-1.33-.977-1.997-1.462-.516-.377-1.028-.76-1.55-1.131l-.008-.006q-1.727-1.23-3.487-2.413l-.035-.024c-.211-.142-.427-.276-.638-.417-.977-.65-1.957-1.294-2.948-1.923-.305-.194-.615-.379-.922-.57a161 161 0 0 0-2.796-1.718c-.27-.16-.543-.315-.813-.474q-1.483-.876-2.985-1.723c-.227-.127-.458-.25-.685-.376q-1.573-.872-3.162-1.712c-.218-.115-.437-.225-.655-.338q-1.591-.828-3.2-1.623-.41-.2-.82-.396-1.488-.722-2.988-1.417c-.428-.197-.86-.388-1.29-.582-.55-.247-1.095-.503-1.648-.744-.267-.117-.537-.225-.804-.34q-.949-.406-1.901-.8a171 171 0 0 0-1.93-.792c-.306-.123-.609-.255-.915-.376q-5.052-1.995-10.233-3.641l-.046-.016-.03-.009-.076-.024c-3.297-1.044-6.632-2.024-10.013-2.779-.212-.048-.425-.091-.638-.138-.33-.07-.659-.143-.99-.209a48.3 48.3 0 0 0-10.38-1.075 29.7 29.7 0 0 0-6.307.751l-.282.065-.087.021c-4.745 1.11-9.015 3.503-11.438 7.968a30.5 30.5 0 0 0-2.857 8.816q-.129.612-.254 1.222-.259 1.27-.511 2.539c-.54-.177-1.094-.26-1.663-.405a11.74 11.74 0 0 1-4.714-2.45c-3.332-2.868-4.534-6.844-4.153-11.154a43 43 0 0 1 1.536-7.318q1.042-3.882 2.087-7.764l.083-.125-.041-.028q.283-1.057.564-2.116l.658.504c.41-.536.838-1.063 1.274-1.567l-1.339-1.157c.919-3.445 1.837-6.891 2.792-10.326.286-1.033.584-2.068.905-3.095q.007-.015.013-.031c.401-1.266.838-2.528 1.333-3.766l.181-.446q.164-.393.337-.782.188-.424.388-.842.108-.228.22-.455.324-.657.684-1.294l.018-.034q.404-.713.855-1.402a21.9 21.9 0 0 1 8.498-7.33q.166-.084.334-.166.487-.244.983-.472.31-.142.623-.277.375-.164.755-.32.44-.182.883-.353l.226-.085a64 64 0 0 1 8.258-2.39q2.81-.643 5.659-1.078.153-.024.307-.048a79 79 0 0 1 3.156-.407q1.252-.14 2.507-.24.225-.017.448-.032a90 90 0 0 1 2.678-.163l.093-.005q1.395-.058 2.788-.076l.395-.006q1.407-.013 2.812.013l.181.004c13.158.282 26.207 3.193 38.663 7.377q2.306.775 4.594 1.602 4.319 1.58 8.546 3.337A158.6 158.6 0 0 1 884.27 186.9q.614.378 1.225.763.354.221.706.445.89.567 1.775 1.146l.036.024q.966.635 1.924 1.286.215.146.428.294.712.487 1.42.982 4.515 3.19 8.758 6.765a110 110 0 0 1 8.93 8.396q.158.166.313.333.248.265.493.532 2.398 2.637 4.568 5.463a57.8 57.8 0 0 1 8.906 15.988q.247.718.472 1.444.125.398.242.799.029.098.056.197.36 1.27.647 2.567.391 1.782.611 3.59a18.35 18.35 0 0 1-1.71 10.249m.68-46.259-1.722-1.17q.582-.858 1.157-1.72l1.733 1.154q-.58.87-1.167 1.736m2.32-3.482-1.742-1.14q.567-.867 1.127-1.74l1.753 1.124q-.564.88-1.137 1.756zm2.259-3.521-1.763-1.11q.552-.877 1.095-1.76l1.774 1.093q-.55.89-1.106 1.777m2.196-3.562-1.783-1.077q.537-.888 1.066-1.78l1.79 1.063q-.533.9-1.073 1.794m2.133-3.598-1.801-1.046q.521-.897 1.035-1.798l1.809 1.031q-.517.909-1.043 1.813m2.07-3.636-1.82-1.014q.506-.905 1.003-1.815l1.827.998q-.5.918-1.01 1.832m2.006-3.67-1.836-.983q.489-.914.97-1.833l1.845.967q-.486.927-.979 1.848m1.941-3.706-1.853-.95q.473-.923.938-1.85l1.862.935q-.47.934-.947 1.865m1.877-3.739-1.869-.918q.457-.93.906-1.865l1.877.902q-.452.943-.914 1.881m1.811-3.771-1.885-.885q.44-.939.874-1.881l1.892.87q-.436.95-.88 1.896m1.745-3.802-1.9-.852q.424-.947.84-1.896l1.907.836q-.42.958-.847 1.912m1.678-3.832-1.915-.819q.408-.953.807-1.91l1.922.803q-.402.965-.814 1.926m1.61-3.86-1.929-.786q.391-.96.773-1.924l1.936.768q-.385.973-.78 1.941zm1.543-3.89-1.942-.75q.373-.967.739-1.937l1.95.733q-.369.979-.746 1.954zm1.474-3.914-1.955-.717q.357-.974.705-1.95l1.962.7q-.352.985-.711 1.967zm1.405-3.941-1.967-.683.344-1 .162.056-.275-1.093a2 2 0 0 1 .509-.066 1.6 1.6 0 0 1 1.6 1.19l.074.298z"/>
  <path d="M951.169 144.885a.52.52 0 0 0 .421.392l-.118-.467z"/>
</svg>