<svg width="703" height="315" viewBox="0 0 703 315" fill="none" xmlns="http://www.w3.org/2000/svg">
<rect width="703" height="315" fill="#181818"/>
<path d="M101.193 114.856C103.07 114.173 104.691 113.832 106.057 113.832C108.361 113.832 110.11 114.515 111.305 115.88C112.585 117.245 113.225 118.867 113.225 120.744C113.225 121.427 113.182 121.939 113.097 122.28C112.499 124.584 111.475 126.376 110.025 127.656C108.574 128.851 106.27 130.003 103.113 131.112L62.5365 144.808L95.8165 157.736C98.2912 158.675 100.169 159.912 101.449 161.448C102.729 162.899 103.369 164.563 103.369 166.44C103.369 167.293 103.241 168.104 102.985 168.872C102.046 172.2 99.8698 173.864 96.4565 173.864C94.9205 173.864 92.9578 173.395 90.5685 172.456L38.3445 150.824C35.1872 149.459 33.6085 147.496 33.6085 144.936C33.6085 144.509 33.6938 143.955 33.8645 143.272C34.2058 141.565 34.9312 140.243 36.0405 139.304C37.1498 138.28 38.8138 137.384 41.0325 136.616L101.193 114.856ZM156.8 116.136C163.882 116.136 169.984 116.776 175.104 118.056C180.309 119.336 184.277 121.128 187.007 123.432C189.824 125.736 191.232 128.339 191.232 131.24C191.232 134.227 190.037 136.659 187.648 138.536C185.344 140.413 182.101 141.352 177.92 141.352C173.653 141.352 170.026 140.285 167.04 138.152C164.138 136.019 162.688 133.331 162.688 130.088C162.688 128.979 162.858 127.912 163.2 126.888C161.664 126.461 160.298 126.248 159.104 126.248C156.97 126.248 155.178 126.76 153.728 127.784C152.362 128.808 151.722 130.259 151.808 132.136C151.808 134.355 152.917 136.232 155.136 137.768C157.354 139.304 160.938 141.224 165.888 143.528C170.154 145.405 173.653 147.155 176.384 148.776C179.2 150.312 181.546 152.275 183.424 154.664C185.386 157.053 186.368 159.869 186.368 163.112C186.368 163.795 186.197 165.075 185.856 166.952C184.49 172.669 180.693 177.192 174.464 180.52C168.234 183.848 160.042 185.512 149.888 185.512C138.453 185.512 129.365 183.976 122.624 180.904C115.968 177.832 112.639 173.608 112.639 168.232C112.639 164.563 113.749 161.789 115.968 159.912C118.186 158.035 121.13 157.096 124.8 157.096C129.066 157.096 132.693 158.419 135.68 161.064C138.752 163.709 140.288 167.08 140.288 171.176C140.288 172.285 140.16 173.437 139.904 174.632C141.952 175.144 143.914 175.4 145.792 175.4C148.01 175.4 149.845 174.803 151.296 173.608C152.746 172.413 153.472 170.749 153.472 168.616C153.386 166.653 152.405 164.989 150.528 163.624C148.65 162.173 145.664 160.467 141.568 158.504C137.728 156.712 134.57 155.048 132.096 153.512C129.621 151.891 127.488 149.885 125.696 147.496C123.989 145.107 123.135 142.291 123.135 139.048C123.135 132.051 126.037 126.504 131.84 122.408C137.728 118.227 146.048 116.136 156.8 116.136ZM253.027 117.288C257.549 117.288 261.304 118.909 264.291 122.152C267.277 125.395 268.771 129.832 268.771 135.464C268.771 143.059 266.125 150.824 260.835 158.76C255.544 166.696 248.845 173.267 240.739 178.472C232.632 183.592 224.739 186.152 217.059 186.152C209.72 186.152 203.747 184.659 199.139 181.672C194.616 178.685 192.355 174.419 192.355 168.872C192.355 166.824 192.739 164.52 193.507 161.96L201.571 134.44C201.741 133.757 201.827 133.245 201.827 132.904C201.827 132.051 201.613 131.325 201.187 130.728C200.76 130.131 200.163 129.491 199.395 128.808C198.115 127.699 197.475 126.717 197.475 125.864C197.389 124.669 198.115 123.389 199.651 122.024C201.187 120.659 203.32 119.549 206.051 118.696C208.867 117.757 212.024 117.288 215.523 117.288C221.24 117.288 225.677 118.696 228.835 121.512C232.077 124.243 233.699 127.827 233.699 132.264C233.699 134.227 233.357 136.36 232.675 138.664L224.354 166.056C224.099 166.824 223.971 167.464 223.971 167.976C223.971 169.085 224.355 169.939 225.123 170.536C225.891 171.133 226.957 171.432 228.323 171.432C230.2 171.432 232.376 170.621 234.851 169C237.411 167.293 239.928 164.904 242.403 161.832C244.877 158.675 246.883 154.963 248.419 150.696C245.005 147.709 242.573 144.765 241.123 141.864C239.757 138.963 239.075 135.976 239.075 132.904C239.075 128.552 240.269 124.883 242.659 121.896C245.048 118.824 248.504 117.288 253.027 117.288ZM344.756 96.424C347.486 96.424 350.132 97.0213 352.692 98.216C355.337 99.3253 357.47 100.904 359.092 102.952C360.798 104.915 361.652 107.048 361.652 109.352C361.652 114.387 358.238 116.904 351.412 116.904C349.449 116.904 347.913 116.776 346.804 116.52C345.78 116.179 344.542 115.667 343.092 114.984C342.836 115.581 342.708 116.435 342.708 117.544C342.708 118.909 342.921 120.531 343.348 122.408C343.86 124.285 344.457 126.035 345.14 127.656C346.932 130.301 347.828 133.459 347.828 137.128C347.828 138.749 347.614 140.712 347.188 143.016C346.164 147.453 343.902 151.507 340.404 155.176C336.99 158.845 332.553 161.747 327.092 163.88C321.716 165.928 315.785 166.952 309.3 166.952C304.35 166.952 299.7 166.611 295.348 165.928C294.068 167.037 293.428 168.403 293.428 170.024C293.428 171.133 293.94 172.072 294.964 172.84C295.988 173.523 297.694 173.864 300.083 173.864H319.284C325.854 173.864 330.974 175.016 334.644 177.32C338.313 179.539 340.148 182.739 340.148 186.92C340.148 188.456 339.892 190.035 339.38 191.656C338.356 194.984 336.009 198.056 332.34 200.872C328.756 203.773 323.678 206.12 317.108 207.912C310.537 209.704 302.558 210.6 293.172 210.6C284.809 210.6 277.726 209.875 271.924 208.424C266.121 206.973 261.811 204.968 258.995 202.408C256.094 199.933 254.643 197.16 254.643 194.088C254.643 193.405 254.814 192.381 255.155 191.016C255.923 188.541 257.673 186.536 260.403 185C263.049 183.379 267.443 182.312 273.588 181.8C271.54 179.837 270.516 177.491 270.516 174.76C270.516 173.821 270.644 172.84 270.9 171.816C272.265 167.379 276.276 164.093 282.932 161.96C276.532 158.461 273.332 153.341 273.332 146.6C273.332 144.723 273.588 142.76 274.1 140.712C275.124 136.275 277.385 132.264 280.884 128.68C284.382 125.011 288.862 122.109 294.324 119.976C299.785 117.843 305.758 116.776 312.244 116.776C322.398 116.776 330.377 118.099 336.18 120.744C334.9 118.781 333.876 116.691 333.108 114.472C332.425 112.168 332.084 110.077 332.084 108.2C332.084 104.957 333.108 102.184 335.156 99.88C337.289 97.576 340.489 96.424 344.756 96.424ZM316.98 141.864C318.345 137.512 319.028 134.184 319.028 131.88C319.028 128.979 317.79 127.528 315.316 127.528C313.182 127.528 311.305 128.595 309.684 130.728C308.148 132.776 306.569 136.488 304.948 141.864C303.582 146.301 302.9 149.672 302.9 151.976C302.9 154.792 304.094 156.2 306.484 156.2C308.617 156.2 310.494 155.133 312.116 153C313.737 150.867 315.358 147.155 316.98 141.864ZM291.508 186.792C289.118 186.792 286.942 186.664 284.98 186.408C283.956 187.688 283.444 189.395 283.444 191.528C283.529 193.661 284.382 195.197 286.003 196.136C287.71 197.075 290.313 197.544 293.812 197.544C298.078 197.544 301.534 196.904 304.18 195.624C306.91 194.344 308.276 192.509 308.276 190.12C308.276 189.096 307.892 188.285 307.124 187.688C306.356 187.091 305.246 186.792 303.796 186.792H291.508ZM389.295 159.144C392.708 159.144 395.567 160.296 397.871 162.6C400.26 164.904 401.455 167.72 401.455 171.048C401.455 173.352 400.815 175.613 399.535 177.832C398.34 180.051 396.633 181.885 394.415 183.336C392.281 184.701 389.849 185.384 387.119 185.384C383.791 185.384 380.975 184.232 378.671 181.928C376.367 179.624 375.172 176.808 375.087 173.48C375.087 171.176 375.684 168.915 376.879 166.696C378.073 164.477 379.737 162.685 381.871 161.32C384.089 159.869 386.564 159.144 389.295 159.144ZM427.295 159.144C430.708 159.144 433.567 160.296 435.871 162.6C438.26 164.904 439.455 167.72 439.455 171.048C439.455 173.352 438.815 175.613 437.535 177.832C436.34 180.051 434.633 181.885 432.415 183.336C430.281 184.701 427.849 185.384 425.119 185.384C421.791 185.384 418.975 184.232 416.671 181.928C414.367 179.624 413.172 176.808 413.087 173.48C413.087 171.176 413.684 168.915 414.879 166.696C416.073 164.477 417.737 162.685 419.871 161.32C422.089 159.869 424.564 159.144 427.295 159.144ZM465.295 159.144C468.708 159.144 471.567 160.296 473.871 162.6C476.26 164.904 477.455 167.72 477.455 171.048C477.455 173.352 476.815 175.613 475.535 177.832C474.34 180.051 472.633 181.885 470.415 183.336C468.281 184.701 465.849 185.384 463.119 185.384C459.791 185.384 456.975 184.232 454.671 181.928C452.367 179.624 451.172 176.808 451.087 173.48C451.087 171.176 451.684 168.915 452.879 166.696C454.073 164.477 455.737 162.685 457.871 161.32C460.089 159.869 462.564 159.144 465.295 159.144ZM523.416 189.48C522.306 191.187 521.197 192.424 520.088 193.192C518.978 193.96 517.826 194.344 516.632 194.344C514.84 194.344 513.431 193.832 512.407 192.808C511.383 191.869 510.871 190.675 510.871 189.224C510.871 188.029 511.255 186.835 512.023 185.64L571.16 95.272C573.208 92.0293 575.554 90.408 578.2 90.408C579.906 90.408 581.229 90.92 582.168 91.944C583.192 92.968 583.704 94.2053 583.704 95.656C583.704 96.936 583.32 98.1733 582.552 99.368L523.416 189.48ZM652.209 136.872C655.366 138.237 656.945 140.2 656.945 142.76C656.945 143.187 656.859 143.741 656.689 144.424C656.347 146.131 655.622 147.496 654.513 148.52C653.403 149.459 651.739 150.312 649.521 151.08L589.361 172.84C587.483 173.523 585.862 173.864 584.497 173.864C582.193 173.864 580.401 173.181 579.121 171.816C577.926 170.451 577.329 168.829 577.329 166.952C577.329 166.269 577.371 165.757 577.457 165.416C578.054 163.112 579.078 161.363 580.529 160.168C581.979 158.888 584.283 157.693 587.441 156.584L628.017 142.888L594.737 129.96C592.262 129.021 590.385 127.827 589.105 126.376C587.825 124.84 587.185 123.133 587.185 121.256C587.185 120.403 587.313 119.592 587.569 118.824C588.507 115.496 590.683 113.832 594.097 113.832C595.633 113.832 597.595 114.301 599.985 115.24L652.209 136.872Z" fill="#FACBFF"/>
</svg>
