<svg xmlns:xlink="http://www.w3.org/1999/xlink" xmlns="http://www.w3.org/2000/svg" width="300" height="300" viewBox="2 2 496 496">
  <defs>
    <linearGradient id="tintGradient" x1="0%" y1="0%" x2="0%" y2="100%">
      <stop offset="0%" stop-color="black" stop-opacity="0"></stop>
      <stop offset="100%" stop-color="black" stop-opacity=".25"></stop>
    </linearGradient>
  </defs>
  <rect id="bg" x="0" y="0" width="500" height="500" fill="#3D0301" stroke="#000000" stroke-width="2px"></rect>
  <g id="particleHolder"><polyline points="145.60880167864934,36.02100184909986 142.80642952863838,31.228265795792165 147.03996361121898,33.640999255785765 " stroke="#FFEAD3" stroke-opacity="0.266785" stroke-linecap="round" fill="none"></polyline><polyline points="210.2581719191019,356.3027600397531 206.30804358842232,358.83374495440154 208.6513102957408,354.820566622787 " stroke="#FFEAD3" stroke-opacity="0.509927" stroke-linecap="round" fill="none"></polyline><polyline points="4.012709550082309,373.8354465449759 -7.426833393231075,358.4246127310158 7.220361612277793,363.1345416853205 " stroke="#FFEAD3" stroke-opacity="0.908527" stroke-linecap="round" fill="none"></polyline><polyline points="438.05283824738785,92.19243069148725 431.55023434430495,96.79268607467236 431.2885545209189,90.89260133025586 " stroke="#FFEAD3" stroke-opacity="0.316051" stroke-linecap="round" fill="none"></polyline><polyline points="390.5256380895206,297.4932401572558 385.7899683736431,294.2271060778453 388.97288292096107,291.8284286938021 " stroke="#FFEAD3" stroke-opacity="0.45265" stroke-linecap="round" fill="none"></polyline><polyline points="489.5531885156227,110.91570526084311 494.10449963420206,97.80384867039822 499.7664184893447,104.86887479701355 " stroke="#FFEAD3" stroke-opacity="0.708763" stroke-linecap="round" fill="none"></polyline><polyline points="338.2733632543289,368.68683217894636 339.0077238270354,363.1161818892288 343.89602106960183,368.0927817879493 " stroke="#FFEAD3" stroke-opacity="0.330674" stroke-linecap="round" fill="none"></polyline><polyline points="298.03825876089616,476.8004674452218 304.7984204933053,481.64125138887863 299.45590881070734,488.08342373684434 " stroke="#FFEAD3" stroke-opacity="0.857875" stroke-linecap="round" fill="none"></polyline><polyline points="159.50183225730328,82.32650028556645 159.62039642341804,87.73177298723137 153.80555846449167,85.04941698379645 " stroke="#FFEAD3" stroke-opacity="0.242703" stroke-linecap="round" fill="none"></polyline><polyline points="382.1885984273008,15.94892599814482 389.40814759974216,19.632918669032552 384.15734263458404,21.787516434034377 " stroke="#FFEAD3" stroke-opacity="0.356911" stroke-linecap="round" fill="none"></polyline><polyline points="123.298300212649,181.21885697773217 117.46310601160786,164.96772617456847 125.1515338805437,166.69222066990142 " stroke="#FFEAD3" stroke-opacity="0.781319" stroke-linecap="round" fill="none"></polyline><polyline points="287.7468105924059,486.1920641260238 301.4245537729759,473.3925636830831 308.0416985727832,491.7814845069095 " stroke="#FFEAD3" stroke-opacity="0.738155" stroke-linecap="round" fill="none"></polyline><polyline points="394.4334236262815,213.12699744843903 394.67209000021353,207.3726117424962 398.58380333995257,208.58088461484388 " stroke="#FFEAD3" stroke-opacity="0.349312" stroke-linecap="round" fill="none"></polyline><polyline points="76.35558011559185,145.69263288300996 66.7686782727163,152.279050836762 66.28052714001446,140.22159286920365 " stroke="#FFEAD3" stroke-opacity="0.56204" stroke-linecap="round" fill="none"></polyline><polyline points="451.4688585099864,373.69446957695106 445.62930468021574,373.5969717760014 447.82620465028407,369.4928510576193 " stroke="#FFEAD3" stroke-opacity="0.266313" stroke-linecap="round" fill="none"></polyline><polyline points="369.07672492799935,380.351699935084 384.83026890638234,366.7759044007296 382.7210768751764,379.9689095615349 " stroke="#FFEAD3" stroke-opacity="0.675436" stroke-linecap="round" fill="none"></polyline><polyline points="250.72294470265768,460.3292758733811 255.6995172187452,463.64628249384873 253.47223892673637,465.6011459260984 " stroke="#FFEAD3" stroke-opacity="0.36706" stroke-linecap="round" fill="none"></polyline><polyline points="196.50898329231745,192.15816632508947 196.09926945680874,189.1654031323223 199.62190919854706,189.18926112340768 " stroke="#FFEAD3" stroke-opacity="0.210971" stroke-linecap="round" fill="none"></polyline><polyline points="439.06386108616084,132.74176721549154 448.2182407867789,157.39853126083563 424.8793633832032,149.39734537866218 " stroke="#FFEAD3" stroke-opacity="0.988555" stroke-linecap="round" fill="none"></polyline><polyline points="456.7331234432675,479.78726136725703 465.35543277908215,484.1903218345994 453.4029078920361,493.0570590578147 " stroke="#FFEAD3" stroke-opacity="0.773707" stroke-linecap="round" fill="none"></polyline><polyline points="471.304497404044,245.04600309898254 464.5649021040284,248.9182116078325 461.9279243788462,244.15723217515136 " stroke="#FFEAD3" stroke-opacity="0.574667" stroke-linecap="round" fill="none"></polyline><polyline points="457.6406853475072,341.45247885128674 451.50201462328135,325.265373364161 464.710302339626,328.6241490951928 " stroke="#FFEAD3" stroke-opacity="0.641955" stroke-linecap="round" fill="none"></polyline><polyline points="93.464072529244,456.1849462631289 96.37064130007751,450.0417871302295 103.69612148651359,455.174334369762 " stroke="#FFEAD3" stroke-opacity="0.3986" stroke-linecap="round" fill="none"></polyline><polyline points="410.57938541887495,461.0340637421033 414.24475755812887,448.32501729917584 425.359838798348,462.94948532657787 " stroke="#FFEAD3" stroke-opacity="0.860372" stroke-linecap="round" fill="none"></polyline><polyline points="116.23610413784827,220.73474327242786 115.94168834714402,231.434981528203 106.6055384733157,225.82412350276908 " stroke="#FFEAD3" stroke-opacity="0.381565" stroke-linecap="round" fill="none"></polyline><polyline points="86.34796533243882,343.1250479823621 70.87758996493734,331.681602488788 89.99016705986122,322.30377323001807 " stroke="#FFEAD3" stroke-opacity="0.824798" stroke-linecap="round" fill="none"></polyline><polyline points="270.0242828065177,180.64922878691908 265.72917382973344,179.10525176285464 272.19609003880925,173.02854003729212 " stroke="#FFEAD3" stroke-opacity="0.849599" stroke-linecap="round" fill="none"></polyline><polyline points="472.0021490718329,64.24801940684084 471.59180180995475,61.76484668629545 474.563245930314,60.51684023646816 " stroke="#FFEAD3" stroke-opacity="0.196882" stroke-linecap="round" fill="none"></polyline><polyline points="492.6801511080078,310.5236002801725 490.3483590038236,310.6011262361294 490.9203085349078,309.64612015761725 " stroke="#FFEAD3" stroke-opacity="0.14572" stroke-linecap="round" fill="none"></polyline><polyline points="52.63219360027221,9.111102181686892 53.66710885859229,5.918851259129875 54.891457278471584,8.340632132092596 " stroke="#FFEAD3" stroke-opacity="0.14603" stroke-linecap="round" fill="none"></polyline><polyline points="21.636831931110507,73.92009274496583 21.65599166160816,76.16079737346094 19.420520629281402,74.98543667916768 " stroke="#FFEAD3" stroke-opacity="0.142" stroke-linecap="round" fill="none"></polyline><polyline points="382.2985892115724,496.84358762866356 386.90972923726866,489.5690196446217 390.8213496606788,496.10366268552514 " stroke="#FFEAD3" stroke-opacity="0.39194" stroke-linecap="round" fill="none"></polyline><polyline points="405.9740717677954,302.6833958169206 404.158740279305,306.4539022090096 395.74042913473215,299.9180891201193 " stroke="#FFEAD3" stroke-opacity="0.56569" stroke-linecap="round" fill="none"></polyline><polyline points="246.4358148879714,128.7461420005602 251.8731237661988,136.5275984339211 242.58798951711694,133.40433197382595 " stroke="#FFEAD3" stroke-opacity="0.42807" stroke-linecap="round" fill="none"></polyline><polyline points="70.70441623379784,340.31455241627236 68.0649506518119,331.09119097423553 76.85824919991431,327.2258290304865 " stroke="#FFEAD3" stroke-opacity="0.714808" stroke-linecap="round" fill="none"></polyline><polyline points="364.8674428494088,161.4716097371044 367.4947470086282,162.71144125256833 362.26978614186476,164.6442036203426 " stroke="#FFEAD3" stroke-opacity="0.2173" stroke-linecap="round" fill="none"></polyline><polyline points="13.656297093865117,285.37197926540415 3.986308249420188,283.0143731184421 12.296783693307303,278.7529642311773 " stroke="#FFEAD3" stroke-opacity="0.600779" stroke-linecap="round" fill="none"></polyline><polyline points="492.7681217234926,125.08384636295673 480.72259337223767,117.04014023859467 499.9238780290537,114.19588592563196 " stroke="#FFEAD3" stroke-opacity="0.689193" stroke-linecap="round" fill="none"></polyline><polyline points="154.53752305545618,84.45798975355896 159.2951199153563,84.78248348529532 156.95797892278432,87.17114042779997 " stroke="#FFEAD3" stroke-opacity="0.164125" stroke-linecap="round" fill="none"></polyline><polyline points="419.9554608384578,348.7635420427777 414.7967869027031,356.5079530231993 412.6886254802781,341.9245854012599 " stroke="#FFEAD3" stroke-opacity="0.682387" stroke-linecap="round" fill="none"></polyline><polyline points="328.64188264441003,200.00421024955347 328.9945114900492,182.0600359333615 344.9265672019037,191.14408999709178 " stroke="#FFEAD3" stroke-opacity="0.769273" stroke-linecap="round" fill="none"></polyline><polyline points="388.4281284244512,166.3221167310093 370.592837061877,162.4251166086703 380.10292486828274,150.9836188429704 " stroke="#FFEAD3" stroke-opacity="0.976205" stroke-linecap="round" fill="none"></polyline><polyline points="465.3441773187499,336.8981976045331 468.3767874011568,330.940722991829 475.7803468147076,334.58560534978807 " stroke="#FFEAD3" stroke-opacity="0.410191" stroke-linecap="round" fill="none"></polyline><polyline points="411.30909823369547,199.6549646694211 406.1827504130191,189.62185263919778 414.0345951649125,193.134925889804 " stroke="#FFEAD3" stroke-opacity="0.998641" stroke-linecap="round" fill="none"></polyline><polyline points="39.52101331046762,307.2620644580953 36.731409785600256,315.29229439661236 34.652897719318055,309.4521380875077 " stroke="#FFEAD3" stroke-opacity="0.328349" stroke-linecap="round" fill="none"></polyline><polyline points="227.22240136867111,453.6728139309338 229.93825311241136,454.5968104312955 228.7810989678692,456.8506868737089 " stroke="#FFEAD3" stroke-opacity="0.141178" stroke-linecap="round" fill="none"></polyline><polyline points="191.17937429666458,478.7288114199693 196.57876658230407,465.8798666978063 208.88482809477708,481.1488162559347 " stroke="#FFEAD3" stroke-opacity="0.746189" stroke-linecap="round" fill="none"></polyline><polyline points="67.64316093578957,405.76543429293804 65.09293147398976,405.6356664043617 65.69036467418432,401.47676361414153 " stroke="#FFEAD3" stroke-opacity="0.316774" stroke-linecap="round" fill="none"></polyline><polyline points="418.8966178931301,95.74573753674254 432.01960260970543,106.37353883590785 411.4578578568684,109.16903317785072 " stroke="#FFEAD3" stroke-opacity="0.757952" stroke-linecap="round" fill="none"></polyline><polyline points="485.91517667348967,295.8565382821677 484.68288375085723,291.2004397041874 487.259569377664,291.30926252922995 " stroke="#FFEAD3" stroke-opacity="0.26556" stroke-linecap="round" fill="none"></polyline><polyline points="299.67327639351527,433.58116212625697 301.1239622703154,431.8851050024989 301.8243664032769,433.6065438365637 " stroke="#FFEAD3" stroke-opacity="0.142173" stroke-linecap="round" fill="none"></polyline><polyline points="253.50804182414888,257.6349859550822 253.38389651874235,261.84872737118803 248.75895420811003,256.0847561042438 " stroke="#FFEAD3" stroke-opacity="0.279422" stroke-linecap="round" fill="none"></polyline><polyline points="396.5947964061657,110.38094259902802 390.6545590498001,117.0173759972993 389.21516653244544,111.75420726035591 " stroke="#FFEAD3" stroke-opacity="0.54252" stroke-linecap="round" fill="none"></polyline><polyline points="380.7249710206141,258.98286744181615 382.6920067688682,255.26253591790592 388.1604636766545,256.6640659594081 " stroke="#FFEAD3" stroke-opacity="0.317134" stroke-linecap="round" fill="none"></polyline><polyline points="408.3448577659457,-10.968767215853276 405.14787374965476,4.788887487038733 397.07172732686206,2.7911922880153037 " stroke="#FFEAD3" stroke-opacity="0.820157" stroke-linecap="round" fill="none"></polyline><polyline points="9.314415105072737,297.93482430311667 24.03385019421981,292.6524393556311 14.200958345474042,301.8455115777193 " stroke="#FFEAD3" stroke-opacity="0.868637" stroke-linecap="round" fill="none"></polyline><polyline points="302.6427845353144,313.5193489453206 311.52069402759054,306.63616671147577 307.5801981198148,321.72258488446954 " stroke="#FFEAD3" stroke-opacity="0.691334" stroke-linecap="round" fill="none"></polyline><polyline points="376.20528207117707,485.78407661812076 366.03265305449355,483.2619223387184 374.62106967753834,477.4809569490012 " stroke="#FFEAD3" stroke-opacity="0.652041" stroke-linecap="round" fill="none"></polyline><polyline points="446.66611330776567,412.99119879380703 451.26634008509023,429.65334584963216 436.655326524159,423.7652148957262 " stroke="#FFEAD3" stroke-opacity="0.617357" stroke-linecap="round" fill="none"></polyline><polyline points="351.98539367786054,226.50757078276303 357.08682138177386,222.55250042477618 358.98160718894525,225.3082426677461 " stroke="#FFEAD3" stroke-opacity="0.373206" stroke-linecap="round" fill="none"></polyline><polyline points="432.0237167119384,478.93658542502465 444.92178772957186,485.72069372626447 438.8854116566861,497.0055118454953 " stroke="#FFEAD3" stroke-opacity="0.992641" stroke-linecap="round" fill="none"></polyline><polyline points="79.42769260865529,104.34533732011774 68.52035538927677,106.05449341604708 69.66106903790231,99.49922988456137 " stroke="#FFEAD3" stroke-opacity="0.508985" stroke-linecap="round" fill="none"></polyline><polyline points="436.9765281407882,404.5198567016295 440.61627811463643,402.32896083729355 441.8241808091102,406.1928672340729 " stroke="#FFEAD3" stroke-opacity="0.284187" stroke-linecap="round" fill="none"></polyline><polyline points="472.1625549377539,85.90726058758354 472.56965675935095,95.75140981800962 467.05229415152075,93.68289966624987 " stroke="#FFEAD3" stroke-opacity="0.633877" stroke-linecap="round" fill="none"></polyline><polyline points="390.91452745269646,464.3370378977045 391.34130813702603,443.864236913926 399.60602395110476,452.91928270809115 " stroke="#FFEAD3" stroke-opacity="0.918262" stroke-linecap="round" fill="none"></polyline><polyline points="88.9765189079903,211.76320023823098 77.34267927695393,224.33665468344196 68.43306958544477,215.91710211794813 " stroke="#FFEAD3" stroke-opacity="0.858253" stroke-linecap="round" fill="none"></polyline><polyline points="401.04521623010356,227.35772688883455 404.96509579989345,231.0609948630792 399.0254880800227,237.4157707002439 " stroke="#FFEAD3" stroke-opacity="0.521648" stroke-linecap="round" fill="none"></polyline><polyline points="192.47632579696548,393.0742938827597 193.46824252026812,391.8366952622229 194.44980241209842,394.8506845759164 " stroke="#FFEAD3" stroke-opacity="0.213914" stroke-linecap="round" fill="none"></polyline><polyline points="36.91616804274582,216.501530310376 32.411328554000086,214.55872845450412 34.16096433179184,213.14183824289086 " stroke="#FFEAD3" stroke-opacity="0.274832" stroke-linecap="round" fill="none"></polyline><polyline points="307.14211208040797,319.4030411870552 304.2809122706231,323.6654903264552 301.70549997600364,321.14548700087755 " stroke="#FFEAD3" stroke-opacity="0.489948" stroke-linecap="round" fill="none"></polyline><polyline points="111.55590300788595,476.1700658904354 105.94724103111707,479.9441559640273 101.01099522354619,469.9440463224153 " stroke="#FFEAD3" stroke-opacity="0.814313" stroke-linecap="round" fill="none"></polyline><polyline points="96.82022505646836,483.2086983493136 96.58670038679551,481.81702539597114 98.19887939612637,483.2274399482816 " stroke="#FFEAD3" stroke-opacity="0.109321" stroke-linecap="round" fill="none"></polyline><polyline points="409.46392028385605,52.63118164680319 404.34171759625934,52.15184801227258 405.6361889312813,46.65289662300255 " stroke="#FFEAD3" stroke-opacity="0.2604" stroke-linecap="round" fill="none"></polyline><polyline points="39.79678949169657,187.04631243515976 24.38635752125636,197.46739325534466 23.829131325277448,188.90292003871608 " stroke="#FFEAD3" stroke-opacity="0.999171" stroke-linecap="round" fill="none"></polyline><polyline points="344.18045517583016,477.44493816438273 340.4681822218744,470.09742702479343 347.3644946446722,467.28824833030654 " stroke="#FFEAD3" stroke-opacity="0.70091" stroke-linecap="round" fill="none"></polyline><polyline points="433.6265950346419,461.7511418444896 435.60015062463583,456.44678925567035 437.2229603046792,460.5337749608276 " stroke="#FFEAD3" stroke-opacity="0.657102" stroke-linecap="round" fill="none"></polyline><polyline points="396.2738893506341,446.5993348446246 404.05267914009283,453.86337782233625 399.03153410423397,457.79148866918155 " stroke="#FFEAD3" stroke-opacity="0.586617" stroke-linecap="round" fill="none"></polyline><polyline points="246.1461728399417,282.6709421674044 239.57931510429862,277.26175253900385 246.17866060321256,267.5384548498861 " stroke="#FFEAD3" stroke-opacity="0.729059" stroke-linecap="round" fill="none"></polyline><polyline points="9.93469418880222,276.038843214765 13.980459732180321,278.0774770181165 10.735118010031481,278.432433305528 " stroke="#FFEAD3" stroke-opacity="0.182412" stroke-linecap="round" fill="none"></polyline><polyline points="88.80421339297907,356.7749418560264 87.64848173448816,358.37247499768523 86.90896273826465,355.9328528550768 " stroke="#FFEAD3" stroke-opacity="0.125047" stroke-linecap="round" fill="none"></polyline><polyline points="13.718722427230036,136.4858806155683 17.328417894553425,131.67282220572315 19.98593204939721,137.14065664197153 " stroke="#FFEAD3" stroke-opacity="0.566738" stroke-linecap="round" fill="none"></polyline><polyline points="176.17359711969084,39.482239276441426 185.92782006832175,28.23391607453459 188.57826480402431,41.180961030860225 " stroke="#FFEAD3" stroke-opacity="0.731128" stroke-linecap="round" fill="none"></polyline><polyline points="278.8670602299953,447.884951265104 276.7111862227267,451.12045279079916 276.8552766281572,446.51130782134766 " stroke="#FFEAD3" stroke-opacity="0.385604" stroke-linecap="round" fill="none"></polyline><polyline points="494.21855014618404,369.4456841362031 506.64681991612736,359.00797248103663 498.3738771126152,374.05214983484865 " stroke="#FFEAD3" stroke-opacity="0.871285" stroke-linecap="round" fill="none"></polyline><polyline points="426.4317776750583,451.619813715028 432.94151973870186,437.7955017043869 442.4408402128919,456.25746738062617 " stroke="#FFEAD3" stroke-opacity="0.791328" stroke-linecap="round" fill="none"></polyline><polyline points="173.75902956917477,327.03113559625615 171.8568380602148,335.08102228070294 162.18043987872895,335.3025147647836 " stroke="#FFEAD3" stroke-opacity="0.520185" stroke-linecap="round" fill="none"></polyline><polyline points="390.96643244728153,15.425529316320457 394.7338407822916,16.290613773086243 392.39018164269527,21.48174271755821 " stroke="#FFEAD3" stroke-opacity="0.406296" stroke-linecap="round" fill="none"></polyline><polyline points="86.71999805052818,348.22804419243244 70.35398419019819,346.3704952816924 74.17807419850448,335.1261739546722 " stroke="#FFEAD3" stroke-opacity="0.786648" stroke-linecap="round" fill="none"></polyline><polyline points="147.9509981412849,438.0782130134734 143.25642408755365,448.7356128032952 139.05571725909394,443.2033126499328 " stroke="#FFEAD3" stroke-opacity="0.776157" stroke-linecap="round" fill="none"></polyline><polyline points="425.7473413701629,352.51905637295795 404.78136212886085,345.0656285040426 424.52765142153686,334.71472357632973 " stroke="#FFEAD3" stroke-opacity="0.904317" stroke-linecap="round" fill="none"></polyline><polyline points="264.1103122843964,166.4717715785559 262.7358380061135,170.3140882809499 257.1864662339729,162.9958964986462 " stroke="#FFEAD3" stroke-opacity="0.464291" stroke-linecap="round" fill="none"></polyline><polyline points="445.5847629705583,392.35230178100545 441.8268657166536,393.7540006362861 445.058641899616,388.85340482940694 " stroke="#FFEAD3" stroke-opacity="0.215282" stroke-linecap="round" fill="none"></polyline><polyline points="184.5246328812429,497.56405495875237 180.9629435898841,500.81818595737315 179.32018621201382,494.7832485300173 " stroke="#FFEAD3" stroke-opacity="0.241158" stroke-linecap="round" fill="none"></polyline><polyline points="195.76695583821868,34.28288762164958 190.95125620631364,45.80072942521539 185.3040660614386,33.66925267240917 " stroke="#FFEAD3" stroke-opacity="0.692046" stroke-linecap="round" fill="none"></polyline><polyline points="85.77745693516948,171.66243144019177 86.59818679503402,181.47569509366863 75.9779330664893,181.35842803018738 " stroke="#FFEAD3" stroke-opacity="0.560491" stroke-linecap="round" fill="none"></polyline><polyline points="123.87672279157252,478.40020656337146 127.82336843407136,473.9456501834776 135.40749604086392,477.7680388895431 " stroke="#FFEAD3" stroke-opacity="0.456952" stroke-linecap="round" fill="none"></polyline><polyline points="117.1897244574509,434.63956514232797 120.05416344280292,433.7984061145047 119.53014123341488,436.562696808836 " stroke="#FFEAD3" stroke-opacity="0.10431" stroke-linecap="round" fill="none"></polyline><polyline points="400.94998034887993,319.29677470078065 410.84458628457423,316.0407993129287 411.8730931704486,328.5764724637531 " stroke="#FFEAD3" stroke-opacity="0.967532" stroke-linecap="round" fill="none"></polyline><polyline points="404.0164900590767,237.31662921256276 407.133762340595,236.9955944945627 404.77849429343485,240.6418909833186 " stroke="#FFEAD3" stroke-opacity="0.179774" stroke-linecap="round" fill="none"></polyline><polyline points="465.50965640235484,218.18009650176037 463.69178010591554,226.81063749845345 456.72766339253815,222.44021886330648 " stroke="#FFEAD3" stroke-opacity="0.95301" stroke-linecap="round" fill="none"></polyline><polyline points="226.1672799289182,362.853875629015 236.33432788127945,363.6167082366215 229.58626708577867,368.50426165361785 " stroke="#FFEAD3" stroke-opacity="0.422799" stroke-linecap="round" fill="none"></polyline><polyline points="287.89563381367424,454.6514146784053 278.6480028211071,474.83130556632153 276.3018210163221,460.1228426788157 " stroke="#FFEAD3" stroke-opacity="0.909281" stroke-linecap="round" fill="none"></polyline><polyline points="152.97361226168766,402.7943051634275 166.76148399714597,404.6109811145126 154.81910884751036,414.48337268095344 " stroke="#FFEAD3" stroke-opacity="0.869877" stroke-linecap="round" fill="none"></polyline><polyline points="173.1661539764732,287.3619879568809 171.89024227680153,296.1513560946179 166.40811555260743,287.0599348678295 " stroke="#FFEAD3" stroke-opacity="0.70482" stroke-linecap="round" fill="none"></polyline><polyline points="167.8878093366648,197.80418002105122 160.99865665727435,219.94163568758574 156.75847863059718,201.37489166564558 " stroke="#FFEAD3" stroke-opacity="0.967556" stroke-linecap="round" fill="none"></polyline><polyline points="388.05170470579503,318.81557625451876 388.12911552392,328.0544158503875 383.84466110518093,320.4942517450819 " stroke="#FFEAD3" stroke-opacity="0.577686" stroke-linecap="round" fill="none"></polyline><polyline points="176.46271651675494,321.9911867127024 169.11622036043465,323.8541031866814 175.25365653599476,317.4810392326624 " stroke="#FFEAD3" stroke-opacity="0.364927" stroke-linecap="round" fill="none"></polyline><polyline points="154.59660737484225,274.3990268655683 154.49569100961284,272.476233074128 157.2803442256244,272.43500794231693 " stroke="#FFEAD3" stroke-opacity="0.306646" stroke-linecap="round" fill="none"></polyline><polyline points="183.75477995625212,404.21714220216376 185.22286056183142,413.1215537483877 171.99713151853467,406.60974841795803 " stroke="#FFEAD3" stroke-opacity="0.586221" stroke-linecap="round" fill="none"></polyline><polyline points="462.53633980173885,396.9874513247516 462.77676759277017,406.28830353567116 447.787196905653,400.51011084434276 " stroke="#FFEAD3" stroke-opacity="0.729221" stroke-linecap="round" fill="none"></polyline><polyline points="135.71005863590972,271.31638576302237 139.6080856916796,286.4797462039426 121.05095409387414,279.66413153173374 " stroke="#FFEAD3" stroke-opacity="0.953051" stroke-linecap="round" fill="none"></polyline><polyline points="164.28480030758809,84.77094479184726 182.14820302631514,80.27217838562406 173.09127359763315,96.53154498328948 " stroke="#FFEAD3" stroke-opacity="0.968697" stroke-linecap="round" fill="none"></polyline><polyline points="41.626611829226526,104.9427380924873 33.99768793152851,100.69909659110779 38.022910088349846,96.63153561703596 " stroke="#FFEAD3" stroke-opacity="0.431711" stroke-linecap="round" fill="none"></polyline><polyline points="245.85254283150852,400.997715041451 247.12712565433387,394.83096855941557 254.68183020960677,395.2094615125111 " stroke="#FFEAD3" stroke-opacity="0.497987" stroke-linecap="round" fill="none"></polyline><polyline points="338.270124482211,6.149898493548762 327.19189412428153,21.510519878758473 317.4521927853141,7.770925877568517 " stroke="#FFEAD3" stroke-opacity="0.975173" stroke-linecap="round" fill="none"></polyline><polyline points="94.85285609236814,315.934479441589 109.81348944580516,319.2054505777091 101.31801465943828,325.7452713601858 " stroke="#FFEAD3" stroke-opacity="0.621023" stroke-linecap="round" fill="none"></polyline><polyline points="344.2677956887422,470.46029564077924 346.6911046085332,477.73214484242766 343.07720427147916,476.4749126479086 " stroke="#FFEAD3" stroke-opacity="0.433319" stroke-linecap="round" fill="none"></polyline><polyline points="117.56998481744854,438.81061611452134 106.50525315584768,447.33062029665814 109.17312795868078,436.0363909335733 " stroke="#FFEAD3" stroke-opacity="0.70071" stroke-linecap="round" fill="none"></polyline><polyline points="440.7907777632149,232.39033809486654 441.8382135283862,240.9393176928329 434.44958901396785,234.6452047446806 " stroke="#FFEAD3" stroke-opacity="0.433247" stroke-linecap="round" fill="none"></polyline><polyline points="108.17030336902654,142.02171568142722 103.22837950431882,154.84690233599824 96.96611983705273,145.05729046921067 " stroke="#FFEAD3" stroke-opacity="0.683607" stroke-linecap="round" fill="none"></polyline><polyline points="493.5737617422507,155.23770321905585 486.5389199077658,180.68434012197397 478.4308458923471,163.57817493403635 " stroke="#FFEAD3" stroke-opacity="0.926252" stroke-linecap="round" fill="none"></polyline><polyline points="310.45614173435047,405.89682914153036 313.4935002956704,388.62911792046714 330.2410319927688,405.77775278268876 " stroke="#FFEAD3" stroke-opacity="0.875002" stroke-linecap="round" fill="none"></polyline><polyline points="228.75668980066504,333.2427923189616 209.56179228896704,326.4969413844698 223.112364282225,313.5243846659341 " stroke="#FFEAD3" stroke-opacity="0.893213" stroke-linecap="round" fill="none"></polyline><polyline points="368.50108087558243,308.9849436399455 364.64860481511874,306.23730511898873 367.1373807291094,302.88191418770623 " stroke="#FFEAD3" stroke-opacity="0.247786" stroke-linecap="round" fill="none"></polyline><polyline points="298.51237316015505,159.35745126817497 298.2720861104528,160.69318197365251 296.80740951528185,159.82029505177601 " stroke="#FFEAD3" stroke-opacity="0.235112" stroke-linecap="round" fill="none"></polyline><polyline points="91.16001433220264,458.05885855850374 94.11878312287712,459.7320741555545 92.51320818566596,461.63996951354767 " stroke="#FFEAD3" stroke-opacity="0.427358" stroke-linecap="round" fill="none"></polyline><polyline points="368.6240091251222,313.4504708339801 381.17736570432794,309.83914690739755 370.2479842133494,328.83712589146916 " stroke="#FFEAD3" stroke-opacity="0.886738" stroke-linecap="round" fill="none"></polyline><polyline points="24.502608175144154,209.89550396899128 20.026634450269295,206.09368667856432 28.408308758525564,193.57449464515267 " stroke="#FFEAD3" stroke-opacity="0.912928" stroke-linecap="round" fill="none"></polyline><polyline points="414.8220274184728,76.29279816749383 400.5398354117189,89.39644513133425 396.6415729344842,80.0474799415567 " stroke="#FFEAD3" stroke-opacity="0.892478" stroke-linecap="round" fill="none"></polyline><polyline points="296.4055312391527,171.68470360707943 286.1299046322225,171.74089120726458 293.2693246918494,167.14249816266582 " stroke="#FFEAD3" stroke-opacity="0.494973" stroke-linecap="round" fill="none"></polyline><polyline points="218.0816921957315,430.39134411270487 221.0464519574206,428.4110695448823 221.86409652426062,429.59409637227316 " stroke="#FFEAD3" stroke-opacity="0.231688" stroke-linecap="round" fill="none"></polyline><polyline points="257.0411790879841,124.41410751072517 262.7639261460415,121.44711838584107 259.3039092053963,126.2808494851441 " stroke="#FFEAD3" stroke-opacity="0.322035" stroke-linecap="round" fill="none"></polyline><polyline points="390.8094307918995,93.02447111870619 390.01479689291205,87.50543284197661 392.8796231558406,89.86833307415354 " stroke="#FFEAD3" stroke-opacity="0.230915" stroke-linecap="round" fill="none"></polyline><polyline points="190.68091345980955,389.8679954428564 200.8108249181136,389.30832855977127 201.07302187591856,404.5494043627923 " stroke="#FFEAD3" stroke-opacity="0.945041" stroke-linecap="round" fill="none"></polyline><polyline points="293.50716551574135,43.14386992189585 283.95488597682277,44.24418755631232 287.6104553098266,38.46309960427342 " stroke="#FFEAD3" stroke-opacity="0.408975" stroke-linecap="round" fill="none"></polyline><polyline points="217.06160241558555,148.25927098315688 210.46307082739514,143.82726514930326 218.29106384172735,142.45182003495222 " stroke="#FFEAD3" stroke-opacity="0.50198" stroke-linecap="round" fill="none"></polyline><polyline points="80.51460244466375,430.65626036625133 77.41922886097852,440.10530961766005 72.34594628099474,436.6521425835585 " stroke="#FFEAD3" stroke-opacity="0.906078" stroke-linecap="round" fill="none"></polyline><polyline points="83.51725758376125,307.33106950406307 93.24207097958676,301.40680239031485 90.42687325387772,314.156958186867 " stroke="#FFEAD3" stroke-opacity="0.545389" stroke-linecap="round" fill="none"></polyline><polyline points="392.4920942757657,22.302559264933226 393.85173007510645,33.151368650665056 383.63724723529725,27.22809407033304 " stroke="#FFEAD3" stroke-opacity="0.415847" stroke-linecap="round" fill="none"></polyline><polyline points="130.48084437183368,160.37534247132623 128.8688517856666,162.04862971877802 128.02794223718863,160.26407130517478 " stroke="#FFEAD3" stroke-opacity="0.146755" stroke-linecap="round" fill="none"></polyline><polyline points="194.47974648887887,196.4224285238359 195.9426662858487,200.66174292208143 190.8150915381474,200.12511818974627 " stroke="#FFEAD3" stroke-opacity="0.418222" stroke-linecap="round" fill="none"></polyline><polyline points="470.4850464022783,145.25974934821286 469.9061441398984,141.9857515246657 474.2617127672179,141.9926634450875 " stroke="#FFEAD3" stroke-opacity="0.664222" stroke-linecap="round" fill="none"></polyline><polyline points="491.45018709661923,409.5909241131213 501.7347905174112,428.4221553996531 480.65238489381187,422.632863633389 " stroke="#FFEAD3" stroke-opacity="0.876662" stroke-linecap="round" fill="none"></polyline><polyline points="212.39142669290436,246.09027425932592 193.83215557128426,234.28067126629503 207.33393233407034,229.71220611142036 " stroke="#FFEAD3" stroke-opacity="0.984013" stroke-linecap="round" fill="none"></polyline><polyline points="272.00538546465447,333.1358401427113 273.34381006982386,332.15848105118704 274.20686608019116,334.5571675210538 " stroke="#FFEAD3" stroke-opacity="0.163324" stroke-linecap="round" fill="none"></polyline><polyline points="237.723393276923,488.8864156143582 229.14785973352667,499.3209230997422 228.189500185147,488.4202447271602 " stroke="#FFEAD3" stroke-opacity="0.513562" stroke-linecap="round" fill="none"></polyline><polyline points="28.75474793173144,370.31492640239446 30.05447580668795,371.1916868152441 27.997586825418633,372.1818816833317 " stroke="#FFEAD3" stroke-opacity="0.116919" stroke-linecap="round" fill="none"></polyline><polyline points="303.41877723360204,168.69266741022753 298.59151099930676,180.63374850928284 289.27641393934283,164.82255838417825 " stroke="#FFEAD3" stroke-opacity="0.771499" stroke-linecap="round" fill="none"></polyline><polyline points="166.56389895309738,238.21837426512752 167.8757403964459,239.01285615754347 166.5776590318228,239.7073305621277 " stroke="#FFEAD3" stroke-opacity="0.115925" stroke-linecap="round" fill="none"></polyline><polyline points="381.22320642546,91.54904898178056 392.8113379993123,81.92521438567562 385.7180942531347,101.6318441782663 " stroke="#FFEAD3" stroke-opacity="0.866953" stroke-linecap="round" fill="none"></polyline><polyline points="39.40312394065712,226.19823604399286 35.778949463660126,228.83856102409516 36.61505211607205,222.5649492478391 " stroke="#FFEAD3" stroke-opacity="0.328763" stroke-linecap="round" fill="none"></polyline><polyline points="391.08247896873297,293.93629757059404 413.3625290027397,300.26502720382047 401.2974921200097,313.4818096191058 " stroke="#FFEAD3" stroke-opacity="0.898143" stroke-linecap="round" fill="none"></polyline><polyline points="160.67377533532635,120.585102635083 163.89726914344774,121.55684435409708 161.68240740779987,123.04842347891037 " stroke="#FFEAD3" stroke-opacity="0.141154" stroke-linecap="round" fill="none"></polyline><polyline points="374.37987989087213,384.64189838316247 382.26514697315315,373.71817598619407 387.8385211075645,390.4944396764761 " stroke="#FFEAD3" stroke-opacity="0.6205" stroke-linecap="round" fill="none"></polyline><polyline points="5.6107580147409015,361.5407982454382 2.8704985001378787,358.3698733734501 6.071742959262215,357.982372928859 " stroke="#FFEAD3" stroke-opacity="0.164333" stroke-linecap="round" fill="none"></polyline><polyline points="181.15533349872155,183.04763606698162 183.12286143451504,190.54567229316595 168.85559431970395,184.8802948600788 " stroke="#FFEAD3" stroke-opacity="0.828974" stroke-linecap="round" fill="none"></polyline><polyline points="31.02965057861436,459.7050200888583 17.23018308586699,443.17885236500143 43.210394115027874,439.57919385241473 " stroke="#FFEAD3" stroke-opacity="0.934369" stroke-linecap="round" fill="none"></polyline><polyline points="259.82263531424184,170.25067087038346 255.5148421653317,177.1228549587257 251.2559816720307,168.6273507126703 " stroke="#FFEAD3" stroke-opacity="0.529752" stroke-linecap="round" fill="none"></polyline><polyline points="177.86351902268555,455.26670455407003 171.2318223023759,450.43356240377364 180.00892732917433,449.0112903349109 " stroke="#FFEAD3" stroke-opacity="0.713065" stroke-linecap="round" fill="none"></polyline><polyline points="226.593307637291,287.5074673597039 228.3718626625031,278.2596849413419 235.19080527206094,285.31009879021116 " stroke="#FFEAD3" stroke-opacity="0.665121" stroke-linecap="round" fill="none"></polyline><polyline points="184.41721115235626,417.1877824267994 199.79195617459274,413.54206578023127 192.2603799047724,421.5310442636034 " stroke="#FFEAD3" stroke-opacity="0.761358" stroke-linecap="round" fill="none"></polyline><polyline points="40.45598094549259,14.121043016618042 42.44288649516245,8.965845485622374 45.78492963654887,10.082072562921384 " stroke="#FFEAD3" stroke-opacity="0.383981" stroke-linecap="round" fill="none"></polyline><polyline points="464.19624125883473,469.3741209327311 462.20345092044505,448.61391471006107 476.8592200410037,462.42311155026107 " stroke="#FFEAD3" stroke-opacity="0.989089" stroke-linecap="round" fill="none"></polyline><polyline points="489.8461023829234,72.89737451510183 476.18515803738853,79.76947190209611 478.4499917021592,70.37878359394097 " stroke="#FFEAD3" stroke-opacity="0.571513" stroke-linecap="round" fill="none"></polyline><polyline points="149.95967429582225,69.61300775060334 163.4310142040995,68.8840996469967 158.80870550836278,79.44069447225137 " stroke="#FFEAD3" stroke-opacity="0.755771" stroke-linecap="round" fill="none"></polyline><polyline points="443.36455162961795,228.23710084243487 445.68023563105845,233.0578430739568 440.3222940431896,232.10823927653377 " stroke="#FFEAD3" stroke-opacity="0.188548" stroke-linecap="round" fill="none"></polyline><polyline points="436.60390710710186,323.55476394309517 436.17803833737645,321.1941776701738 437.8207909100683,323.0794127356164 " stroke="#FFEAD3" stroke-opacity="0.129244" stroke-linecap="round" fill="none"></polyline><polyline points="373.77468502274667,293.6683022901609 393.89563738957867,301.4032826797476 382.72146779118333,308.6746474212036 " stroke="#FFEAD3" stroke-opacity="0.878918" stroke-linecap="round" fill="none"></polyline><polyline points="378.7337885728219,264.7619505451128 374.21163036720344,256.32860448136677 381.18062056274454,255.67270468283766 " stroke="#FFEAD3" stroke-opacity="0.43878" stroke-linecap="round" fill="none"></polyline><polyline points="299.6656986174198,393.58355140564623 294.2842696935572,411.93784393538516 288.2555978562669,393.8276397730734 " stroke="#FFEAD3" stroke-opacity="0.889246" stroke-linecap="round" fill="none"></polyline><polyline points="276.6510231596701,460.14481403365727 255.4049111681903,460.0406165143466 264.45716803236894,439.8218690377117 " stroke="#FFEAD3" stroke-opacity="0.79088" stroke-linecap="round" fill="none"></polyline><polyline points="170.73796278299392,273.67184542732144 186.60238775184726,280.66935126861125 167.6695577601099,286.07460130462454 " stroke="#FFEAD3" stroke-opacity="0.797314" stroke-linecap="round" fill="none"></polyline><polyline points="438.62480599718657,75.88507125438127 446.79225665075154,85.88319142025061 432.75780391114387,86.13335854802133 " stroke="#FFEAD3" stroke-opacity="0.779525" stroke-linecap="round" fill="none"></polyline><polyline points="152.89116253535477,492.6879439492192 153.64904582509217,494.30622158956135 150.503151077076,495.7316051073378 " stroke="#FFEAD3" stroke-opacity="0.341023" stroke-linecap="round" fill="none"></polyline><polyline points="152.0176244817954,493.41955152407246 168.90003042421955,484.83331888151184 162.977143102753,503.7449395084411 " stroke="#FFEAD3" stroke-opacity="0.928029" stroke-linecap="round" fill="none"></polyline><polyline points="423.6979191118688,309.3831604389615 411.02485787682093,297.3776366654944 417.7094500084238,283.45802647858466 " stroke="#FFEAD3" stroke-opacity="0.995864" stroke-linecap="round" fill="none"></polyline><polyline points="241.88222580300112,445.7477883252161 252.5992553632826,452.0715823739675 247.56486920313588,458.1623128242397 " stroke="#FFEAD3" stroke-opacity="0.709758" stroke-linecap="round" fill="none"></polyline><polyline points="227.3734157534636,454.59233248032206 228.1436074706335,464.6977727132957 216.6165604809189,457.2876332561865 " stroke="#FFEAD3" stroke-opacity="0.498224" stroke-linecap="round" fill="none"></polyline><polyline points="315.2716957148083,160.44579980357568 307.27556494648854,154.4450696449107 313.01962921427736,146.01805015147383 " stroke="#FFEAD3" stroke-opacity="0.849878" stroke-linecap="round" fill="none"></polyline><polyline points="308.7822544035129,407.0978558751447 313.8636915184421,416.6017605290216 298.61611773699883,410.2596036000783 " stroke="#FFEAD3" stroke-opacity="0.635684" stroke-linecap="round" fill="none"></polyline><polyline points="448.9656511954131,365.57553481815717 444.6972689732649,360.438711808568 450.7154765246781,362.03984084599614 " stroke="#FFEAD3" stroke-opacity="0.819386" stroke-linecap="round" fill="none"></polyline><polyline points="468.90885603935476,300.748509175287 469.85888536135224,301.15266202052015 467.9228082847916,302.2801700213564 " stroke="#FFEAD3" stroke-opacity="0.110532" stroke-linecap="round" fill="none"></polyline><polyline points="374.0769568597531,319.5971049476271 367.78978332971155,316.0001469025742 373.97072183131525,312.5863345948213 " stroke="#FFEAD3" stroke-opacity="0.265835" stroke-linecap="round" fill="none"></polyline><polyline points="12.368287511704276,144.86306779664096 9.200530671533068,151.8002545906071 6.679959288045058,145.78670677944527 " stroke="#FFEAD3" stroke-opacity="0.304051" stroke-linecap="round" fill="none"></polyline><polyline points="261.7632997155224,206.36770999953154 254.72236407576904,215.7839384879257 252.8699835434133,200.78507555634755 " stroke="#FFEAD3" stroke-opacity="0.592926" stroke-linecap="round" fill="none"></polyline><polyline points="154.49328266682406,280.8222807650153 164.5884899706131,278.7939250450892 164.20690687184847,287.7242045114005 " stroke="#FFEAD3" stroke-opacity="0.782795" stroke-linecap="round" fill="none"></polyline><polyline points="419.81812243214387,469.2377474629112 409.45418026408896,465.33097571356126 423.8826122932697,461.1640933489791 " stroke="#FFEAD3" stroke-opacity="0.847784" stroke-linecap="round" fill="none"></polyline><polyline points="171.98397823019442,490.1161279085127 161.73911856686976,493.78765477641866 159.91766900805885,482.6855451071739 " stroke="#FFEAD3" stroke-opacity="0.564063" stroke-linecap="round" fill="none"></polyline><polyline points="276.64187450767236,492.16090868552544 269.2114623501285,484.1309582039748 279.9031508198856,484.04918303047214 " stroke="#FFEAD3" stroke-opacity="0.43783" stroke-linecap="round" fill="none"></polyline><polyline points="213.52286955634364,89.8612056914751 228.5900183102148,91.9491354555196 215.26008965732416,98.78937912462216 " stroke="#FFEAD3" stroke-opacity="0.785202" stroke-linecap="round" fill="none"></polyline><polyline points="347.33528147168954,376.94631390142655 353.1353540534193,368.311212261172 357.19070611569765,382.3043733823979 " stroke="#FFEAD3" stroke-opacity="0.999595" stroke-linecap="round" fill="none"></polyline><polyline points="345.5158780002655,367.2118003116936 343.5545745722327,374.8625185598267 340.6902555565966,367.94270697166115 " stroke="#FFEAD3" stroke-opacity="0.332272" stroke-linecap="round" fill="none"></polyline><polyline points="488.61313646062064,173.51868417574858 480.26028164275675,173.27971618591226 483.7146793782249,159.0373928265251 " stroke="#FFEAD3" stroke-opacity="0.973804" stroke-linecap="round" fill="none"></polyline><polyline points="14.165325188299594,336.1558004241683 10.842573610746122,335.5875797443001 14.08550647119915,330.88130450255846 " stroke="#FFEAD3" stroke-opacity="0.296672" stroke-linecap="round" fill="none"></polyline><polyline points="272.9734797103795,347.64622897194477 264.27213298006956,356.77169638607074 262.73238230990034,349.27955712941275 " stroke="#FFEAD3" stroke-opacity="0.546633" stroke-linecap="round" fill="none"></polyline><polyline points="298.9102985828213,100.58616991245728 287.3442784093837,82.83429894694602 302.55453299714407,84.91208915837328 " stroke="#FFEAD3" stroke-opacity="0.857786" stroke-linecap="round" fill="none"></polyline><polyline points="37.170994291861284,169.18796194840488 33.00753120078076,161.95297829612161 40.47709577835196,159.14694240570347 " stroke="#FFEAD3" stroke-opacity="0.553081" stroke-linecap="round" fill="none"></polyline><polyline points="294.8878971284903,309.50392901956144 280.6360231098654,304.9499151296483 291.7528903499555,302.3678407203472 " stroke="#FFEAD3" stroke-opacity="0.717622" stroke-linecap="round" fill="none"></polyline><polyline points="109.39305237517824,76.76082395760208 102.53696754389648,86.88798607576469 106.17887815201756,75.85760490473493 " stroke="#FFEAD3" stroke-opacity="0.614017" stroke-linecap="round" fill="none"></polyline><polyline points="94.65517267188561,378.88590078450204 98.91068659724824,377.5399741199881 100.56245363520752,383.8098985060992 " stroke="#FFEAD3" stroke-opacity="0.397345" stroke-linecap="round" fill="none"></polyline><polyline points="175.53427695409576,90.55034774617711 172.1851906999418,95.23991697484387 170.90278378488964,92.48196482161367 " stroke="#FFEAD3" stroke-opacity="0.331582" stroke-linecap="round" fill="none"></polyline><polyline points="280.1203438523461,456.92562944919155 286.2384997369844,457.14128129590785 279.1105645284925,463.00272502943005 " stroke="#FFEAD3" stroke-opacity="0.326487" stroke-linecap="round" fill="none"></polyline><polyline points="409.7829072554478,494.4450927018412 419.3651462611564,491.54536460827177 419.08819403893693,499.3577536795054 " stroke="#FFEAD3" stroke-opacity="0.513208" stroke-linecap="round" fill="none"></polyline><polyline points="454.9724679784976,183.91076583216324 445.9435425817745,181.22164219095768 447.9209872342425,173.64654837611636 " stroke="#FFEAD3" stroke-opacity="0.526669" stroke-linecap="round" fill="none"></polyline><polyline points="474.9992549047298,457.93592175958213 464.5253654142091,465.42872607633194 459.29693711987534,457.563275093504 " stroke="#FFEAD3" stroke-opacity="0.870037" stroke-linecap="round" fill="none"></polyline><polyline points="483.97913753966617,279.5383883891013 481.82307149312527,277.62810170410455 487.2320494277446,277.2973097418752 " stroke="#FFEAD3" stroke-opacity="0.260016" stroke-linecap="round" fill="none"></polyline><polyline points="417.0990708753322,63.922765200212375 415.16217931667217,65.719289137912 414.1576209161315,61.270588270266224 " stroke="#FFEAD3" stroke-opacity="0.357303" stroke-linecap="round" fill="none"></polyline><polyline points="308.5242249010283,98.78101837350472 305.0897335884841,94.9794164620332 308.768964601285,95.33916838582877 " stroke="#FFEAD3" stroke-opacity="0.189726" stroke-linecap="round" fill="none"></polyline><polyline points="254.38657411838693,194.7198037580059 243.51897723301926,199.6491878154161 242.33574512719886,189.1162294280952 " stroke="#FFEAD3" stroke-opacity="0.576573" stroke-linecap="round" fill="none"></polyline><polyline points="47.561103243857374,410.23549091791926 39.854335100382904,410.19328972911615 44.33716463763068,398.8860061437175 " stroke="#FFEAD3" stroke-opacity="0.837149" stroke-linecap="round" fill="none"></polyline><polyline points="207.9895522503184,166.23721105965313 214.80376163844647,160.40467601616683 215.01900525151564,170.5811706181187 " stroke="#FFEAD3" stroke-opacity="0.512514" stroke-linecap="round" fill="none"></polyline><polyline points="192.4692120350002,249.83506465347122 182.50653961001825,234.40812097381553 200.95917982800935,230.47434279121663 " stroke="#FFEAD3" stroke-opacity="0.72484" stroke-linecap="round" fill="none"></polyline><polyline points="414.9342963420725,397.243463401387 389.1864209200645,391.8536372634786 403.6264883487098,383.6653314365585 " stroke="#FFEAD3" stroke-opacity="0.939837" stroke-linecap="round" fill="none"></polyline><polyline points="54.474582159316675,445.1040206578273 52.8328302739085,442.6367106868446 56.99719749475728,440.2332098358973 " stroke="#FFEAD3" stroke-opacity="0.249919" stroke-linecap="round" fill="none"></polyline><polyline points="110.8706657894271,269.4616349029628 101.47164663203507,271.0413306760699 109.51423123004841,264.3420291784141 " stroke="#FFEAD3" stroke-opacity="0.588911" stroke-linecap="round" fill="none"></polyline><polyline points="154.6810449769014,179.43197814275786 155.6361556930774,173.19793278501515 159.79240960055628,176.19754277229467 " stroke="#FFEAD3" stroke-opacity="0.368303" stroke-linecap="round" fill="none"></polyline><polyline points="169.3567438331291,341.8108619370029 186.25164524250664,340.40441881639316 178.74945657520058,356.3494155647322 " stroke="#FFEAD3" stroke-opacity="0.715916" stroke-linecap="round" fill="none"></polyline><polyline points="64.1006042802737,210.0870890918814 66.33659877337037,210.7701333467418 66.09107586868214,212.20296968689556 " stroke="#FFEAD3" stroke-opacity="0.192443" stroke-linecap="round" fill="none"></polyline><polyline points="491.0153878897251,316.16914460234545 509.29979155010375,316.2565965711619 495.09606866004225,333.14312005355123 " stroke="#FFEAD3" stroke-opacity="0.896695" stroke-linecap="round" fill="none"></polyline><polyline points="80.32094073736423,423.7110023349569 82.72342961717509,417.15003977358657 85.868356311595,425.9202731385841 " stroke="#FFEAD3" stroke-opacity="0.559648" stroke-linecap="round" fill="none"></polyline><polyline points="122.09883366276887,109.39076669606743 121.35993724867554,104.36659448977511 134.75776458107953,102.8238739925577 " stroke="#FFEAD3" stroke-opacity="0.740682" stroke-linecap="round" fill="none"></polyline><polyline points="121.58534386461326,39.688662635224354 119.66035040093242,40.99263582474628 119.37760913165438,39.28680693212322 " stroke="#FFEAD3" stroke-opacity="0.175339" stroke-linecap="round" fill="none"></polyline><polyline points="157.21333381620897,208.37869741702772 155.8096406585282,220.04315123793236 152.36382495751963,218.33382495773665 " stroke="#FFEAD3" stroke-opacity="0.579734" stroke-linecap="round" fill="none"></polyline><polyline points="33.908262084254545,290.06490149214494 33.09923657131965,305.62550644440125 20.920742934708468,297.7547231501521 " stroke="#FFEAD3" stroke-opacity="0.599483" stroke-linecap="round" fill="none"></polyline><polyline points="91.25807635062432,340.9462955104606 87.26670197024411,336.25960740436886 97.57045160381102,333.39830139507274 " stroke="#FFEAD3" stroke-opacity="0.607138" stroke-linecap="round" fill="none"></polyline><polyline points="304.58691026810055,400.0886481279629 313.9124525327028,406.58716508117476 302.7968662516773,404.72597238242633 " stroke="#FFEAD3" stroke-opacity="0.852149" stroke-linecap="round" fill="none"></polyline><polyline points="475.96716121037264,359.0242994559358 478.6283145804873,354.1242437687175 479.77999822389694,355.09581084448314 " stroke="#FFEAD3" stroke-opacity="0.297502" stroke-linecap="round" fill="none"></polyline><polyline points="107.06799475546188,327.42492344891014 120.63451411228941,326.3986972049599 108.90100947090444,335.50406276979123 " stroke="#FFEAD3" stroke-opacity="0.937594" stroke-linecap="round" fill="none"></polyline><polyline points="162.00180743904863,463.69784266631376 163.30829824557944,469.75594110464283 154.8236533578055,473.1400045385392 " stroke="#FFEAD3" stroke-opacity="0.573466" stroke-linecap="round" fill="none"></polyline><polyline points="170.864425053893,18.230373377853734 176.839001604518,14.361229116784571 179.85763373654638,25.42652854692701 " stroke="#FFEAD3" stroke-opacity="0.884043" stroke-linecap="round" fill="none"></polyline><polyline points="278.18941769958116,228.56961666671785 270.1276127440929,233.95844470226479 273.6062022409546,219.31929218386557 " stroke="#FFEAD3" stroke-opacity="0.614358" stroke-linecap="round" fill="none"></polyline><polyline points="283.23740023018854,150.25918413844107 271.5665543803562,139.4013955225627 276.8749233841681,131.36492123422033 " stroke="#FFEAD3" stroke-opacity="0.917356" stroke-linecap="round" fill="none"></polyline><polyline points="359.8351721729794,380.77448222277064 356.0564598673756,379.5559518103449 358.54084037449354,376.83672196941023 " stroke="#FFEAD3" stroke-opacity="0.256249" stroke-linecap="round" fill="none"></polyline><polyline points="291.8154811542559,81.53190920735429 290.52619982348074,86.33708008363466 286.6137842586483,81.69749293562089 " stroke="#FFEAD3" stroke-opacity="0.282911" stroke-linecap="round" fill="none"></polyline><polyline points="400.12630245380547,320.81060751835446 399.44367309003854,319.78484216998726 401.601314829091,318.70992332167265 " stroke="#FFEAD3" stroke-opacity="0.132881" stroke-linecap="round" fill="none"></polyline><polyline points="430.38335762043465,275.2584772831197 425.4870987823329,265.70287085911446 433.4472619183866,265.75933032872643 " stroke="#FFEAD3" stroke-opacity="0.446809" stroke-linecap="round" fill="none"></polyline><polyline points="434.2608178209477,344.70293662510426 429.77143899407366,345.9291380059403 432.9753383066999,342.35569020026463 " stroke="#FFEAD3" stroke-opacity="0.209758" stroke-linecap="round" fill="none"></polyline><polyline points="30.445816184191465,308.6573138776754 25.802504961463328,310.842348577441 22.62710130061833,306.83318033663494 " stroke="#FFEAD3" stroke-opacity="0.273904" stroke-linecap="round" fill="none"></polyline><polyline points="469.36432950620826,132.49260632111066 467.2416572371857,140.27922642364823 453.33534391173583,137.68612140371408 " stroke="#FFEAD3" stroke-opacity="0.857763" stroke-linecap="round" fill="none"></polyline><polyline points="13.499990036515037,106.13740338698646 6.190355772798107,105.7004191090692 11.946643004116819,98.90689640464458 " stroke="#FFEAD3" stroke-opacity="0.326189" stroke-linecap="round" fill="none"></polyline><polyline points="494.60430448486704,359.7298065960448 492.6881511688126,364.7499271560126 490.33968823181806,362.7508874843979 " stroke="#FFEAD3" stroke-opacity="0.268573" stroke-linecap="round" fill="none"></polyline><polyline points="46.229865835459094,61.80283846380906 47.57406146757938,61.41296515072366 47.23564065448935,62.841691732392185 " stroke="#FFEAD3" stroke-opacity="0.137169" stroke-linecap="round" fill="none"></polyline><polyline points="330.56217082676426,66.94729878201987 331.974607866421,68.1268748330965 329.8084897325292,69.55746852341764 " stroke="#FFEAD3" stroke-opacity="0.201507" stroke-linecap="round" fill="none"></polyline><polyline points="115.27988299231495,109.44212012759719 115.31530956612514,110.47896443028415 110.16185495601289,110.28383900222737 " stroke="#FFEAD3" stroke-opacity="0.286276" stroke-linecap="round" fill="none"></polyline><polyline points="266.74423603424304,276.2552236902365 266.61069545739565,274.54092660745215 269.273311179434,276.61170880478187 " stroke="#FFEAD3" stroke-opacity="0.143103" stroke-linecap="round" fill="none"></polyline><polyline points="105.15455674020652,464.14357395390437 109.56653612075638,465.32045338490394 106.47156891797208,467.94898409167826 " stroke="#FFEAD3" stroke-opacity="0.201715" stroke-linecap="round" fill="none"></polyline><polyline points="350.812308767021,432.88797887450704 348.6252261935368,430.83801326484456 353.1445208727645,426.78438230087056 " stroke="#FFEAD3" stroke-opacity="0.593417" stroke-linecap="round" fill="none"></polyline><polyline points="191.99666056296658,53.66564167190572 180.61725464859825,47.258813799826235 201.90619601445755,39.013335592142916 " stroke="#FFEAD3" stroke-opacity="0.963193" stroke-linecap="round" fill="none"></polyline><polyline points="0.5133771508271243,50.97679736667453 3.815787554469307,44.57645054804598 5.601147009026513,52.073056142295584 " stroke="#FFEAD3" stroke-opacity="0.334967" stroke-linecap="round" fill="none"></polyline><polyline points="128.3863314503682,147.6795934238024 134.2380010640548,140.62683777350406 139.38978546811055,155.60636983243677 " stroke="#FFEAD3" stroke-opacity="0.98461" stroke-linecap="round" fill="none"></polyline><polyline points="21.944058416896237,239.9625622041981 27.327183571015468,249.01018704451863 13.013602869284082,251.29991724702177 " stroke="#FFEAD3" stroke-opacity="0.960885" stroke-linecap="round" fill="none"></polyline><polyline points="440.05277902892954,479.3654345217076 447.5668034439021,484.8079115314702 432.0363156636978,491.84161472581127 " stroke="#FFEAD3" stroke-opacity="0.767215" stroke-linecap="round" fill="none"></polyline><polyline points="421.56920542879897,318.45233529140916 418.76637142347374,319.18797593440127 419.8997777440248,317.59562524915606 " stroke="#FFEAD3" stroke-opacity="0.164825" stroke-linecap="round" fill="none"></polyline><polyline points="256.7990492277201,259.07450876850515 275.9177450204346,250.6281971053913 267.7928369843239,263.262614901563 " stroke="#FFEAD3" stroke-opacity="0.945308" stroke-linecap="round" fill="none"></polyline><polyline points="450.40602382617976,29.87850955260583 449.78783451590556,36.22349130646576 444.33566256361854,29.16990626211222 " stroke="#FFEAD3" stroke-opacity="0.506728" stroke-linecap="round" fill="none"></polyline><polyline points="45.18140741202039,81.30843264905887 48.332714137700336,80.91386308517062 47.21745814346848,83.345694716148 " stroke="#FFEAD3" stroke-opacity="0.161502" stroke-linecap="round" fill="none"></polyline><polyline points="74.33959871772456,82.14655177144945 74.56518772971783,83.71560776707285 72.65950880003354,83.19559748249848 " stroke="#FFEAD3" stroke-opacity="0.22976" stroke-linecap="round" fill="none"></polyline><polyline points="208.40951932282323,142.16417793223596 205.83578203974483,149.86318307997936 202.66123752518874,144.13725626975616 " stroke="#FFEAD3" stroke-opacity="0.688281" stroke-linecap="round" fill="none"></polyline><polyline points="268.4548038047004,57.542591168869734 276.8130779026434,41.879528853069985 284.45994649941207,52.56867390797229 " stroke="#FFEAD3" stroke-opacity="0.904953" stroke-linecap="round" fill="none"></polyline><polyline points="263.87753798158855,259.83283580876997 255.83321046404515,252.43272390422504 271.9768062758332,247.38939311758472 " stroke="#FFEAD3" stroke-opacity="0.699625" stroke-linecap="round" fill="none"></polyline><polyline points="498.0597606105634,377.89655994722744 496.93582315948726,376.4766699987663 498.720626082036,376.51733813952427 " stroke="#FFEAD3" stroke-opacity="0.126704" stroke-linecap="round" fill="none"></polyline><polyline points="466.5970266999361,3.681938597921398 470.7744735387883,-8.595287021942218 477.2386680824764,4.409003719267339 " stroke="#FFEAD3" stroke-opacity="0.98617" stroke-linecap="round" fill="none"></polyline><polyline points="257.5274383613543,467.3973156913315 269.09238903378997,484.25515609927584 254.0264794789025,486.0663047692483 " stroke="#FFEAD3" stroke-opacity="0.892681" stroke-linecap="round" fill="none"></polyline><polyline points="269.2694852799378,168.46349952197232 278.10946695100375,166.06311597960135 273.93713234403344,177.00991836467577 " stroke="#FFEAD3" stroke-opacity="0.486997" stroke-linecap="round" fill="none"></polyline><polyline points="233.22846924725494,249.25116090875645 236.71686179422034,250.62287227826164 235.9280715769549,252.829095279245 " stroke="#FFEAD3" stroke-opacity="0.198082" stroke-linecap="round" fill="none"></polyline><polyline points="15.354548374559855,274.82076885229134 18.781972247647317,277.86543608854 17.470325169573982,279.43682633388346 " stroke="#FFEAD3" stroke-opacity="0.356621" stroke-linecap="round" fill="none"></polyline><polyline points="393.4569976918501,273.15334685363797 396.0974728608112,282.0141981556391 379.0466413792738,279.11070334327763 " stroke="#FFEAD3" stroke-opacity="0.817495" stroke-linecap="round" fill="none"></polyline><polyline points="27.521961836842422,278.3890725036271 18.929574999535564,287.1611346877077 20.276897254332304,279.2479121992178 " stroke="#FFEAD3" stroke-opacity="0.442366" stroke-linecap="round" fill="none"></polyline><polyline points="489.72470133061154,19.101921073526917 479.4727704825959,20.854524267771147 485.94199106034955,11.097968817824626 " stroke="#FFEAD3" stroke-opacity="0.677409" stroke-linecap="round" fill="none"></polyline><polyline points="204.64004283304325,22.818269722012033 208.1127648935021,24.722025133704502 199.07571032520465,30.33988370657162 " stroke="#FFEAD3" stroke-opacity="0.486444" stroke-linecap="round" fill="none"></polyline><polyline points="233.99203120319729,348.7494330823408 229.4119447202282,355.14751053561736 229.6512154452808,345.90214268042257 " stroke="#FFEAD3" stroke-opacity="0.527262" stroke-linecap="round" fill="none"></polyline><polyline points="269.69703933775344,502.94655785643494 270.19680089591355,488.9142989807651 287.16586016422997,496.4081507951069 " stroke="#FFEAD3" stroke-opacity="0.898729" stroke-linecap="round" fill="none"></polyline><polyline points="20.760559781271567,282.0103539496767 20.289240307080284,287.76223418667905 15.442569567545148,286.38576870564606 " stroke="#FFEAD3" stroke-opacity="0.34673" stroke-linecap="round" fill="none"></polyline><polyline points="77.26168458605373,193.0402657578751 80.4724021035321,193.59388118997035 80.22574445671088,195.1964034214533 " stroke="#FFEAD3" stroke-opacity="0.196185" stroke-linecap="round" fill="none"></polyline><polyline points="250.29764269400687,481.16175608208147 258.2000185206649,466.377492267211 264.5224064203618,477.539949594755 " stroke="#FFEAD3" stroke-opacity="0.902795" stroke-linecap="round" fill="none"></polyline><polyline points="235.4195277562275,39.970691486904244 249.64238455204878,50.136929798617516 239.85602836066872,51.910853183960825 " stroke="#FFEAD3" stroke-opacity="0.724451" stroke-linecap="round" fill="none"></polyline><polyline points="149.73686586699395,433.8548705817317 154.5077507956573,451.49916361079744 145.3274970602308,451.8070087773854 " stroke="#FFEAD3" stroke-opacity="0.846054" stroke-linecap="round" fill="none"></polyline><polyline points="224.91830538069996,20.106987932755903 223.45962264593646,17.02920547386496 227.51003127885292,16.677754063949422 " stroke="#FFEAD3" stroke-opacity="0.313216" stroke-linecap="round" fill="none"></polyline><polyline points="174.8463644049059,369.98966261957685 180.46876564426523,375.1101548095667 168.88437061289252,381.380994598176 " stroke="#FFEAD3" stroke-opacity="0.895979" stroke-linecap="round" fill="none"></polyline><polyline points="252.65374926809153,378.3709722183864 254.98922562944819,374.9339898804957 263.97454302637567,382.1192384313198 " stroke="#FFEAD3" stroke-opacity="0.688597" stroke-linecap="round" fill="none"></polyline><polyline points="269.3640417311557,65.75910741642589 258.9541180897782,72.29501684335091 265.07687419467305,56.10359453188188 " stroke="#FFEAD3" stroke-opacity="0.990564" stroke-linecap="round" fill="none"></polyline><polyline points="338.0515602753818,502.29304403708977 330.60912604231925,499.1809840465593 337.18407398399137,496.7802983290005 " stroke="#FFEAD3" stroke-opacity="0.3392" stroke-linecap="round" fill="none"></polyline><polyline points="450.5847267684361,13.074424277178622 435.87650944142376,15.55250143885462 442.26788792559677,4.747601118214567 " stroke="#FFEAD3" stroke-opacity="0.885275" stroke-linecap="round" fill="none"></polyline><polyline points="502.4482575661028,184.96097159624568 499.02553024749034,189.45122069864507 495.5566735676483,185.05952652860674 " stroke="#FFEAD3" stroke-opacity="0.295471" stroke-linecap="round" fill="none"></polyline><polyline points="386.0302250623273,340.6293440780422 373.6982722724897,328.93242046840356 384.880777247677,328.94978553610383 " stroke="#FFEAD3" stroke-opacity="0.604811" stroke-linecap="round" fill="none"></polyline><polyline points="224.50504769992656,329.363182017076 227.2170605382562,318.7816322582946 231.73292196484135,330.8831934846477 " stroke="#FFEAD3" stroke-opacity="0.74964" stroke-linecap="round" fill="none"></polyline><polyline points="173.48976103099736,341.0948909389716 175.08076063596155,324.5722773347735 181.0977521258908,330.94974566658937 " stroke="#FFEAD3" stroke-opacity="0.703348" stroke-linecap="round" fill="none"></polyline><polyline points="458.1721032842868,298.6390666109915 456.88038346203,299.52292365501194 456.4555543025888,298.494344407746 " stroke="#FFEAD3" stroke-opacity="0.111621" stroke-linecap="round" fill="none"></polyline><polyline points="101.8833686781507,175.97174695463784 104.83319032317135,174.6003528597472 105.10014066403154,177.96562892548891 " stroke="#FFEAD3" stroke-opacity="0.267508" stroke-linecap="round" fill="none"></polyline><polyline points="183.69480569798944,392.99022449522556 192.0585816162708,394.10378798793954 187.00806037323758,407.4355577514156 " stroke="#FFEAD3" stroke-opacity="0.743011" stroke-linecap="round" fill="none"></polyline><polyline points="506.88117863039264,63.349252299175326 490.6794633005628,65.99982468496962 496.65197542984953,51.8018767121637 " stroke="#FFEAD3" stroke-opacity="0.685367" stroke-linecap="round" fill="none"></polyline><polyline points="201.01689628152127,32.536501638259416 193.12057303276018,34.169985468332406 197.86509440550557,28.434680916313685 " stroke="#FFEAD3" stroke-opacity="0.33719" stroke-linecap="round" fill="none"></polyline><polyline points="282.78873854407925,421.245811810345 285.3107818795252,423.98719557254066 281.5154235010039,424.11332343880173 " stroke="#FFEAD3" stroke-opacity="0.26223" stroke-linecap="round" fill="none"></polyline><polyline points="180.16626029187736,40.21783564118268 180.93446043569296,35.13722849534923 189.9682315966149,39.34550145181309 " stroke="#FFEAD3" stroke-opacity="0.586912" stroke-linecap="round" fill="none"></polyline><polyline points="367.71259142688893,249.1418544055819 367.722196368979,241.22248993239361 372.3592198305515,244.95512953214956 " stroke="#FFEAD3" stroke-opacity="0.293382" stroke-linecap="round" fill="none"></polyline><polyline points="179.34218846887555,184.87028701196851 179.2564158685554,182.24105815647792 180.99386096353766,184.12351052891546 " stroke="#FFEAD3" stroke-opacity="0.135384" stroke-linecap="round" fill="none"></polyline><polyline points="81.19983556835282,316.4459232342106 85.4114614052144,312.3137294731888 88.24136700487259,321.2286309454768 " stroke="#FFEAD3" stroke-opacity="0.503292" stroke-linecap="round" fill="none"></polyline><polyline points="349.28645124170083,410.3842233352552 356.55751860189,398.4559621632882 356.97706711135277,411.8384051418933 " stroke="#FFEAD3" stroke-opacity="0.778421" stroke-linecap="round" fill="none"></polyline><polyline points="471.74566587348784,329.6884039566622 469.0463694438202,344.6521477181422 461.51041522974697,338.86860168346055 " stroke="#FFEAD3" stroke-opacity="0.609742" stroke-linecap="round" fill="none"></polyline><polyline points="446.98053755645566,78.1003430155534 444.88678554900036,74.7536856835496 450.17045534420544,74.20849956372834 " stroke="#FFEAD3" stroke-opacity="0.229828" stroke-linecap="round" fill="none"></polyline></g>
  <!-- <rect id="tint" x="0" y="0" rx="20" ry="20" width="" height="" fill="url(#tintGradient)" /> -->
  <g id="mainHolder"><polyline points="50,241.8845316442321 100,432.2918092736682 150,298.915214573842 200,105.07287220830457 250,52.0407169309501 300,349.0017184892557 350,125.28872375766439 400,252.69980415704964 " stroke="#D76C82" stroke-width="6px" fill="none" stroke-linecap="round"></polyline></g>
  <text class="styled-text" x="250" y="480" text-anchor="middle" fill="white" font-size="60" font-weight="800" >polyline</text>
  <style>
  .styled-text {
    fill: white;
    font-family: sans-serif;
    font-size: 60px;
    font-weight: bold;
    /* Other SVG presentation attributes like fill, stroke, etc., can be used as CSS properties */
  }
  </style>
</svg>