<svg xmlns:xlink="http://www.w3.org/1999/xlink" xmlns="http://www.w3.org/2000/svg" width="300" height="300" viewBox="2 2 496 496">
  <defs>
    <linearGradient id="tintGradient" x1="0%" y1="0%" x2="0%" y2="100%">
      <stop offset="0%" stop-color="black" stop-opacity="0"></stop>
      <stop offset="100%" stop-color="black" stop-opacity=".25"></stop>
    </linearGradient>
  </defs>
  <rect id="bg" x="0" y="0" width="500" height="500" fill="#800080" stroke="#000000" stroke-width="2px"></rect>
  <g id="particleHolder"><g transform="translate(311.4036462075718 115.71713182436689)"><g transform="scale(0.1651974050066507) rotate(33.833127533635036)"><rect x="-40" y="-40" width="40" height="25.19619743085994" fill="#EE82EE" fill-opacity="0.0825987" stroke="#212121" stroke-opacity="0.1"></rect></g></g><g transform="translate(397.0274766708393 275.5759379514296)"><g transform="scale(0.2379289910473704) rotate(352.5054355300274)"><rect x="-40" y="-40" width="40" height="41.656925622953196" fill="#EE82EE" fill-opacity="0.118964" stroke="#212121" stroke-opacity="0.1"></rect></g></g><g transform="translate(387.40634437833285 6.009333386737648)"><g transform="scale(0.4573347279276988) rotate(46.198746513195395)"><rect x="-40" y="-40" width="40" height="65.51093507428241" fill="#EE82EE" fill-opacity="0.228667" stroke="#212121" stroke-opacity="0.1"></rect></g></g><g transform="translate(122.0787495382945 88.23835775242806)"><g transform="scale(0.17216362505813598) rotate(315.50322457258017)"><rect x="-40" y="-40" width="40" height="5.322721949212408" fill="#EE82EE" fill-opacity="0.0860818" stroke="#212121" stroke-opacity="0.1"></rect></g></g><g transform="translate(383.7599981212464 202.22517340420805)"><g transform="scale(0.14096594320526198) rotate(202.10403152239118)"><rect x="-40" y="-40" width="40" height="61.126900921009664" fill="#EE82EE" fill-opacity="0.070483" stroke="#212121" stroke-opacity="0.1"></rect></g></g><g transform="translate(436.9143831891384 447.5994793239575)"><g transform="scale(0.6224847504610567) rotate(27.525174935158386)"><rect x="-40" y="-40" width="40" height="32.797806914505045" fill="#EE82EE" fill-opacity="0.311242" stroke="#212121" stroke-opacity="0.1"></rect></g></g><g transform="translate(5.729970077861912 271.25838768363934)"><g transform="scale(0.9162088892888313) rotate(12.728324772929241)"><rect x="-40" y="-40" width="40" height="9.447264164896705" fill="#EE82EE" fill-opacity="0.458104" stroke="#212121" stroke-opacity="0.1"></rect></g></g><g transform="translate(139.12001835568628 45.083257213389125)"><g transform="scale(0.7374483510609765) rotate(134.9938244999867)"><rect x="-40" y="-40" width="40" height="25.360140890647138" fill="#EE82EE" fill-opacity="0.368724" stroke="#212121" stroke-opacity="0.1"></rect></g></g><g transform="translate(169.34451898800828 465.07569418082585)"><g transform="scale(0.35139060625324114) rotate(278.7503143578819)"><rect x="-40" y="-40" width="40" height="8.100046867208661" fill="#EE82EE" fill-opacity="0.175695" stroke="#212121" stroke-opacity="0.1"></rect></g></g><g transform="translate(321.69001940483156 311.9293056431983)"><g transform="scale(0.41872386042783283) rotate(132.12543925086575)"><rect x="-40" y="-40" width="40" height="10.117465038517723" fill="#EE82EE" fill-opacity="0.209362" stroke="#212121" stroke-opacity="0.1"></rect></g></g><g transform="translate(121.26442778734663 452.5748635759194)"><g transform="scale(0.20039324485276688) rotate(273.19727116302516)"><rect x="-40" y="-40" width="40" height="38.94719470298374" fill="#EE82EE" fill-opacity="0.100197" stroke="#212121" stroke-opacity="0.1"></rect></g></g><g transform="translate(77.2851784254805 45.025275007086975)"><g transform="scale(0.8176567685928628) rotate(254.61143497213135)"><rect x="-40" y="-40" width="40" height="20.662464448391347" fill="#EE82EE" fill-opacity="0.408828" stroke="#212121" stroke-opacity="0.1"></rect></g></g><g transform="translate(327.8516380413406 134.6367129365464)"><g transform="scale(0.19874117505205036) rotate(319.73069942880466)"><rect x="-40" y="-40" width="40" height="60.516585243773434" fill="#EE82EE" fill-opacity="0.0993706" stroke="#212121" stroke-opacity="0.1"></rect></g></g><g transform="translate(162.84020726746562 24.32139278810791)"><g transform="scale(0.5624877650958834) rotate(321.03694117519757)"><rect x="-40" y="-40" width="40" height="69.3279158059866" fill="#EE82EE" fill-opacity="0.281244" stroke="#212121" stroke-opacity="0.1"></rect></g></g><g transform="translate(469.02967023208845 205.37482429261772)"><g transform="scale(0.8767374655453927) rotate(219.4999078001265)"><rect x="-40" y="-40" width="40" height="76.62215665204198" fill="#EE82EE" fill-opacity="0.438369" stroke="#212121" stroke-opacity="0.1"></rect></g></g><g transform="translate(237.19295609781395 59.06407427805133)"><g transform="scale(0.6543734235695609) rotate(241.3189763481898)"><rect x="-40" y="-40" width="40" height="39.86308966874654" fill="#EE82EE" fill-opacity="0.327187" stroke="#212121" stroke-opacity="0.1"></rect></g></g><g transform="translate(473.28765652703845 339.56486560523297)"><g transform="scale(0.4290782884161588) rotate(295.3412703425731)"><rect x="-40" y="-40" width="40" height="63.17343760789296" fill="#EE82EE" fill-opacity="0.214539" stroke="#212121" stroke-opacity="0.1"></rect></g></g><g transform="translate(432.66153740825746 234.1491495025948)"><g transform="scale(0.7719708978778588) rotate(234.1051556530933)"><rect x="-40" y="-40" width="40" height="49.21578396566179" fill="#EE82EE" fill-opacity="0.385985" stroke="#212121" stroke-opacity="0.1"></rect></g></g><g transform="translate(466.860864391948 129.94218813304798)"><g transform="scale(0.9082855503632881) rotate(159.2410846665273)"><rect x="-40" y="-40" width="40" height="77.91778886122995" fill="#EE82EE" fill-opacity="0.454143" stroke="#212121" stroke-opacity="0.1"></rect></g></g><g transform="translate(436.7400921171153 465.2671960674286)"><g transform="scale(0.28423998694531083) rotate(245.93633785257313)"><rect x="-40" y="-40" width="40" height="46.62831744014221" fill="#EE82EE" fill-opacity="0.14212" stroke="#212121" stroke-opacity="0.1"></rect></g></g><g transform="translate(137.54516929049083 262.3384141520701)"><g transform="scale(0.1048135830605497) rotate(9.221025124923838)"><rect x="-40" y="-40" width="40" height="8.103992569083385" fill="#EE82EE" fill-opacity="0.0524068" stroke="#212121" stroke-opacity="0.1"></rect></g></g><g transform="translate(366.932674929628 345.07844326843053)"><g transform="scale(0.5467807509927683) rotate(116.73594438673047)"><rect x="-40" y="-40" width="40" height="73.49155454356156" fill="#EE82EE" fill-opacity="0.27339" stroke="#212121" stroke-opacity="0.1"></rect></g></g><g transform="translate(207.73304284197596 364.35777478068275)"><g transform="scale(0.6577353856137723) rotate(168.34540343891135)"><rect x="-40" y="-40" width="40" height="37.739214015127246" fill="#EE82EE" fill-opacity="0.328868" stroke="#212121" stroke-opacity="0.1"></rect></g></g><g transform="translate(41.03739830735087 128.0559942573299)"><g transform="scale(0.972176692100027) rotate(52.30076672103596)"><rect x="-40" y="-40" width="40" height="56.685948114542335" fill="#EE82EE" fill-opacity="0.486088" stroke="#212121" stroke-opacity="0.1"></rect></g></g><g transform="translate(239.89370226701402 222.55694505901585)"><g transform="scale(0.1923862815983077) rotate(118.01187344635437)"><rect x="-40" y="-40" width="40" height="64.91790918066555" fill="#EE82EE" fill-opacity="0.0961931" stroke="#212121" stroke-opacity="0.1"></rect></g></g><g transform="translate(125.60382685617743 91.38964998462274)"><g transform="scale(0.25342285165673484) rotate(111.38056961640135)"><rect x="-40" y="-40" width="40" height="79.15010925700048" fill="#EE82EE" fill-opacity="0.126711" stroke="#212121" stroke-opacity="0.1"></rect></g></g><g transform="translate(321.8455759753099 259.5646353142098)"><g transform="scale(0.2818505649916055) rotate(185.69173045834302)"><rect x="-40" y="-40" width="40" height="7.619646481344446" fill="#EE82EE" fill-opacity="0.140925" stroke="#212121" stroke-opacity="0.1"></rect></g></g><g transform="translate(1.4458951748732574 54.38348692532025)"><g transform="scale(0.4486396434004952) rotate(218.25141747016897)"><rect x="-40" y="-40" width="40" height="7.518682355807416" fill="#EE82EE" fill-opacity="0.22432" stroke="#212121" stroke-opacity="0.1"></rect></g></g><g transform="translate(146.77341684551314 460.18478786365995)"><g transform="scale(0.8508399097716955) rotate(167.51702628035017)"><rect x="-40" y="-40" width="40" height="58.74834971662396" fill="#EE82EE" fill-opacity="0.42542" stroke="#212121" stroke-opacity="0.1"></rect></g></g><g transform="translate(320.1441079383859 485.71761328905444)"><g transform="scale(0.19628630204268954) rotate(211.04203965818814)"><rect x="-40" y="-40" width="40" height="38.23825514542641" fill="#EE82EE" fill-opacity="0.0981432" stroke="#212121" stroke-opacity="0.1"></rect></g></g><g transform="translate(58.62727354166275 450.34247153829693)"><g transform="scale(0.3626195442373532) rotate(25.599603532498698)"><rect x="-40" y="-40" width="40" height="12.520421761681684" fill="#EE82EE" fill-opacity="0.18131" stroke="#212121" stroke-opacity="0.1"></rect></g></g><g transform="translate(454.6494883085288 433.62331099087277)"><g transform="scale(0.8568193840041584) rotate(12.609785973272697)"><rect x="-40" y="-40" width="40" height="57.424948270286606" fill="#EE82EE" fill-opacity="0.42841" stroke="#212121" stroke-opacity="0.1"></rect></g></g><g transform="translate(353.1049639543983 326.7674561462277)"><g transform="scale(0.9912791945590348) rotate(85.51984036217027)"><rect x="-40" y="-40" width="40" height="9.028333066930596" fill="#EE82EE" fill-opacity="0.49564" stroke="#212121" stroke-opacity="0.1"></rect></g></g><g transform="translate(241.0791443873035 255.840099000334)"><g transform="scale(0.6321145982935457) rotate(1.0543257945962914)"><rect x="-40" y="-40" width="40" height="75.77033114282528" fill="#EE82EE" fill-opacity="0.316057" stroke="#212121" stroke-opacity="0.1"></rect></g></g><g transform="translate(121.63191579119304 125.45395933968723)"><g transform="scale(0.375969883710607) rotate(148.44802193434447)"><rect x="-40" y="-40" width="40" height="63.22876632679833" fill="#EE82EE" fill-opacity="0.187985" stroke="#212121" stroke-opacity="0.1"></rect></g></g><g transform="translate(319.7271584199146 105.40104230095493)"><g transform="scale(0.5234940592165667) rotate(104.1963556233777)"><rect x="-40" y="-40" width="40" height="15.050376880762446" fill="#EE82EE" fill-opacity="0.261747" stroke="#212121" stroke-opacity="0.1"></rect></g></g><g transform="translate(447.62621266253126 157.01195236293418)"><g transform="scale(0.12573771942812254) rotate(347.4121220261338)"><rect x="-40" y="-40" width="40" height="33.87941470519581" fill="#EE82EE" fill-opacity="0.0628689" stroke="#212121" stroke-opacity="0.1"></rect></g></g><g transform="translate(479.34891217671407 231.62291765763678)"><g transform="scale(0.7453054606237066) rotate(189.84894609227825)"><rect x="-40" y="-40" width="40" height="75.46655238760334" fill="#EE82EE" fill-opacity="0.372653" stroke="#212121" stroke-opacity="0.1"></rect></g></g><g transform="translate(107.22658915187571 442.27530724023586)"><g transform="scale(0.6354348929971133) rotate(269.4061491069178)"><rect x="-40" y="-40" width="40" height="27.370511937298375" fill="#EE82EE" fill-opacity="0.317717" stroke="#212121" stroke-opacity="0.1"></rect></g></g><g transform="translate(70.32496667382388 5.308265972751025)"><g transform="scale(0.9878322575208882) rotate(183.15147558781973)"><rect x="-40" y="-40" width="40" height="63.06188668717774" fill="#EE82EE" fill-opacity="0.493916" stroke="#212121" stroke-opacity="0.1"></rect></g></g><g transform="translate(376.744835325368 106.54680491606806)"><g transform="scale(0.7952663376334798) rotate(353.58797982679437)"><rect x="-40" y="-40" width="40" height="8.518325001678937" fill="#EE82EE" fill-opacity="0.397633" stroke="#212121" stroke-opacity="0.1"></rect></g></g><g transform="translate(490.7300302773473 141.66954432313295)"><g transform="scale(0.2667327438093516) rotate(273.5704246464905)"><rect x="-40" y="-40" width="40" height="9.594094135509605" fill="#EE82EE" fill-opacity="0.133366" stroke="#212121" stroke-opacity="0.1"></rect></g></g><g transform="translate(433.6281893569984 103.79364185072399)"><g transform="scale(0.394107202484144) rotate(47.21516489955841)"><rect x="-40" y="-40" width="40" height="31.058149999744515" fill="#EE82EE" fill-opacity="0.197054" stroke="#212121" stroke-opacity="0.1"></rect></g></g><g transform="translate(25.79139506540795 75.03930189354257)"><g transform="scale(0.3995575470864291) rotate(107.11705519630027)"><rect x="-40" y="-40" width="40" height="19.72279661184335" fill="#EE82EE" fill-opacity="0.199779" stroke="#212121" stroke-opacity="0.1"></rect></g></g><g transform="translate(375.21805792369514 55.862303139549766)"><g transform="scale(0.7352427857267153) rotate(249.85115872586118)"><rect x="-40" y="-40" width="40" height="66.99188492754215" fill="#EE82EE" fill-opacity="0.367621" stroke="#212121" stroke-opacity="0.1"></rect></g></g><g transform="translate(291.91304451656293 115.6058710440781)"><g transform="scale(0.5626448546039085) rotate(285.3165387218829)"><rect x="-40" y="-40" width="40" height="59.43464196895876" fill="#EE82EE" fill-opacity="0.281322" stroke="#212121" stroke-opacity="0.1"></rect></g></g><g transform="translate(481.73917146609426 82.3552319388744)"><g transform="scale(0.4228461463022095) rotate(319.55720041306256)"><rect x="-40" y="-40" width="40" height="42.125174280504645" fill="#EE82EE" fill-opacity="0.211423" stroke="#212121" stroke-opacity="0.1"></rect></g></g><g transform="translate(55.338218208493664 234.00126790519383)"><g transform="scale(0.39144722999562753) rotate(135.10088122782892)"><rect x="-40" y="-40" width="40" height="31.220759431252976" fill="#EE82EE" fill-opacity="0.195724" stroke="#212121" stroke-opacity="0.1"></rect></g></g><g transform="translate(316.8660967088169 67.56373967154123)"><g transform="scale(0.16992123638658396) rotate(281.6404771705934)"><rect x="-40" y="-40" width="40" height="51.89933857294528" fill="#EE82EE" fill-opacity="0.0849606" stroke="#212121" stroke-opacity="0.1"></rect></g></g><g transform="translate(406.52449280610875 288.9031231880751)"><g transform="scale(0.8938040226046889) rotate(297.60311025263474)"><rect x="-40" y="-40" width="40" height="65.61479634366803" fill="#EE82EE" fill-opacity="0.446902" stroke="#212121" stroke-opacity="0.1"></rect></g></g><g transform="translate(27.368280793127695 491.4864748070871)"><g transform="scale(0.8405883583731899) rotate(296.4007104798341)"><rect x="-40" y="-40" width="40" height="78.2141296414133" fill="#EE82EE" fill-opacity="0.420294" stroke="#212121" stroke-opacity="0.1"></rect></g></g><g transform="translate(470.7838650413721 62.84656261020832)"><g transform="scale(0.38031224281864984) rotate(27.47907441092307)"><rect x="-40" y="-40" width="40" height="79.53239385476927" fill="#EE82EE" fill-opacity="0.190156" stroke="#212121" stroke-opacity="0.1"></rect></g></g><g transform="translate(402.6096502366917 299.2498050773402)"><g transform="scale(0.39003319410359905) rotate(318.56709890340557)"><rect x="-40" y="-40" width="40" height="4.479382084557857" fill="#EE82EE" fill-opacity="0.195017" stroke="#212121" stroke-opacity="0.1"></rect></g></g><g transform="translate(320.5814653272198 276.32281632087785)"><g transform="scale(0.5902882578695795) rotate(315.616773011209)"><rect x="-40" y="-40" width="40" height="47.41707141150155" fill="#EE82EE" fill-opacity="0.295144" stroke="#212121" stroke-opacity="0.1"></rect></g></g><g transform="translate(4.771297635089045 276.38074531453293)"><g transform="scale(0.9843767037783356) rotate(34.23487633212096)"><rect x="-40" y="-40" width="40" height="76.82401214579805" fill="#EE82EE" fill-opacity="0.492188" stroke="#212121" stroke-opacity="0.1"></rect></g></g><g transform="translate(107.67487284050247 366.43889649383743)"><g transform="scale(0.9616409696561975) rotate(330.69205350566284)"><rect x="-40" y="-40" width="40" height="79.2121462998528" fill="#EE82EE" fill-opacity="0.48082" stroke="#212121" stroke-opacity="0.1"></rect></g></g><g transform="translate(400.61465944069306 273.72908862310766)"><g transform="scale(0.36584874338384654) rotate(353.2542396992259)"><rect x="-40" y="-40" width="40" height="78.66982203771512" fill="#EE82EE" fill-opacity="0.182924" stroke="#212121" stroke-opacity="0.1"></rect></g></g><g transform="translate(93.16614776653259 249.6728967723007)"><g transform="scale(0.7386280881498154) rotate(263.6783856788223)"><rect x="-40" y="-40" width="40" height="1.5579156452807918" fill="#EE82EE" fill-opacity="0.369314" stroke="#212121" stroke-opacity="0.1"></rect></g></g><g transform="translate(66.80295863261453 246.5162827403624)"><g transform="scale(0.521210642684688) rotate(73.51182000146022)"><rect x="-40" y="-40" width="40" height="60.79366347155503" fill="#EE82EE" fill-opacity="0.260605" stroke="#212121" stroke-opacity="0.1"></rect></g></g><g transform="translate(113.12734086597392 254.06012103034413)"><g transform="scale(0.321135021849684) rotate(322.2848320614157)"><rect x="-40" y="-40" width="40" height="20.965662045842038" fill="#EE82EE" fill-opacity="0.160568" stroke="#212121" stroke-opacity="0.1"></rect></g></g><g transform="translate(404.6283514084061 152.6510984470908)"><g transform="scale(0.9561885240481932) rotate(285.60899849590396)"><rect x="-40" y="-40" width="40" height="9.491931213521605" fill="#EE82EE" fill-opacity="0.478094" stroke="#212121" stroke-opacity="0.1"></rect></g></g><g transform="translate(79.17806364298869 350.9709244570325)"><g transform="scale(0.502472195752947) rotate(359.3652186478509)"><rect x="-40" y="-40" width="40" height="17.172750708913014" fill="#EE82EE" fill-opacity="0.251236" stroke="#212121" stroke-opacity="0.1"></rect></g></g><g transform="translate(446.22573891962423 28.700148019850268)"><g transform="scale(0.5524301118974776) rotate(350.65148324156854)"><rect x="-40" y="-40" width="40" height="9.105128682034067" fill="#EE82EE" fill-opacity="0.276215" stroke="#212121" stroke-opacity="0.1"></rect></g></g><g transform="translate(145.42404161758492 49.35622189449934)"><g transform="scale(0.277812075013922) rotate(218.60109665486675)"><rect x="-40" y="-40" width="40" height="36.09119984703294" fill="#EE82EE" fill-opacity="0.138906" stroke="#212121" stroke-opacity="0.1"></rect></g></g><g transform="translate(412.0394557346482 178.77060493976765)"><g transform="scale(0.5699262189338534) rotate(4.021880041930972)"><rect x="-40" y="-40" width="40" height="56.67160436614679" fill="#EE82EE" fill-opacity="0.284963" stroke="#212121" stroke-opacity="0.1"></rect></g></g><g transform="translate(287.405220033594 220.57961857497617)"><g transform="scale(0.19234558170657928) rotate(266.4684594584201)"><rect x="-40" y="-40" width="40" height="63.268376409875614" fill="#EE82EE" fill-opacity="0.0961728" stroke="#212121" stroke-opacity="0.1"></rect></g></g><g transform="translate(165.20550011452207 84.08647328282132)"><g transform="scale(0.23292734981433683) rotate(3.469585710538574)"><rect x="-40" y="-40" width="40" height="78.28370228674319" fill="#EE82EE" fill-opacity="0.116464" stroke="#212121" stroke-opacity="0.1"></rect></g></g><g transform="translate(420.3201498942659 16.272954801859584)"><g transform="scale(0.7031585760899339) rotate(156.74968147490986)"><rect x="-40" y="-40" width="40" height="12.641153588999199" fill="#EE82EE" fill-opacity="0.351579" stroke="#212121" stroke-opacity="0.1"></rect></g></g><g transform="translate(94.86915400201102 280.4817657364142)"><g transform="scale(0.4019085956315185) rotate(293.6589870872137)"><rect x="-40" y="-40" width="40" height="61.298118722260696" fill="#EE82EE" fill-opacity="0.200954" stroke="#212121" stroke-opacity="0.1"></rect></g></g><g transform="translate(122.18796127423515 325.389666325848)"><g transform="scale(0.4278778765273953) rotate(344.4864817751019)"><rect x="-40" y="-40" width="40" height="62.093115995323615" fill="#EE82EE" fill-opacity="0.213939" stroke="#212121" stroke-opacity="0.1"></rect></g></g><g transform="translate(341.2202023004551 192.65659852113998)"><g transform="scale(0.6979000612070622) rotate(123.26487905509225)"><rect x="-40" y="-40" width="40" height="66.68409889625187" fill="#EE82EE" fill-opacity="0.34895" stroke="#212121" stroke-opacity="0.1"></rect></g></g><g transform="translate(362.5570206298459 480.2021831215494)"><g transform="scale(0.5633804676992973) rotate(189.10106300526488)"><rect x="-40" y="-40" width="40" height="30.009125328310205" fill="#EE82EE" fill-opacity="0.28169" stroke="#212121" stroke-opacity="0.1"></rect></g></g><g transform="translate(304.54979506002155 103.7313049020973)"><g transform="scale(0.9321295129030254) rotate(227.7239150234196)"><rect x="-40" y="-40" width="40" height="51.608410925668" fill="#EE82EE" fill-opacity="0.466065" stroke="#212121" stroke-opacity="0.1"></rect></g></g><g transform="translate(470.7169737299095 436.8999651877189)"><g transform="scale(0.9832165622696646) rotate(38.66232526432544)"><rect x="-40" y="-40" width="40" height="45.806928728475704" fill="#EE82EE" fill-opacity="0.491608" stroke="#212121" stroke-opacity="0.1"></rect></g></g><g transform="translate(422.2854687288167 422.82059839496475)"><g transform="scale(0.48639075733250536) rotate(253.82209179383347)"><rect x="-40" y="-40" width="40" height="73.28699135127877" fill="#EE82EE" fill-opacity="0.243195" stroke="#212121" stroke-opacity="0.1"></rect></g></g><g transform="translate(153.22765738230754 200.79025343833433)"><g transform="scale(0.5912873230882871) rotate(41.77119908678716)"><rect x="-40" y="-40" width="40" height="0.2800360537616431" fill="#EE82EE" fill-opacity="0.295644" stroke="#212121" stroke-opacity="0.1"></rect></g></g><g transform="translate(205.8830403054118 442.2363479786145)"><g transform="scale(0.3046762746684729) rotate(107.41283698160099)"><rect x="-40" y="-40" width="40" height="33.57509651880804" fill="#EE82EE" fill-opacity="0.152338" stroke="#212121" stroke-opacity="0.1"></rect></g></g><g transform="translate(290.1259295728175 165.58144542224977)"><g transform="scale(0.4820851211313648) rotate(21.520247804167163)"><rect x="-40" y="-40" width="40" height="39.24433478511612" fill="#EE82EE" fill-opacity="0.241043" stroke="#212121" stroke-opacity="0.1"></rect></g></g><g transform="translate(189.299308083487 369.2151060308831)"><g transform="scale(0.37632828271530794) rotate(289.75897196460556)"><rect x="-40" y="-40" width="40" height="9.373052050156598" fill="#EE82EE" fill-opacity="0.188164" stroke="#212121" stroke-opacity="0.1"></rect></g></g><g transform="translate(383.12289111884684 308.09439261934114)"><g transform="scale(0.16528841468237698) rotate(270.19951816171385)"><rect x="-40" y="-40" width="40" height="40.531507446812256" fill="#EE82EE" fill-opacity="0.0826442" stroke="#212121" stroke-opacity="0.1"></rect></g></g><g transform="translate(197.9398535623017 266.3886077716827)"><g transform="scale(0.589944926357189) rotate(302.90454691785396)"><rect x="-40" y="-40" width="40" height="69.45213577892395" fill="#EE82EE" fill-opacity="0.294972" stroke="#212121" stroke-opacity="0.1"></rect></g></g><g transform="translate(435.6897960706611 94.77398738859266)"><g transform="scale(0.5777412644156943) rotate(347.34956850825034)"><rect x="-40" y="-40" width="40" height="23.679922990659765" fill="#EE82EE" fill-opacity="0.288871" stroke="#212121" stroke-opacity="0.1"></rect></g></g><g transform="translate(455.56242134201585 455.65021006885206)"><g transform="scale(0.11158937250214292) rotate(257.01366200690956)"><rect x="-40" y="-40" width="40" height="1.0892772268220696" fill="#EE82EE" fill-opacity="0.0557947" stroke="#212121" stroke-opacity="0.1"></rect></g></g><g transform="translate(247.34046360786544 316.8480148723991)"><g transform="scale(0.3899780008925279) rotate(78.25651739571663)"><rect x="-40" y="-40" width="40" height="50.085377798023096" fill="#EE82EE" fill-opacity="0.194989" stroke="#212121" stroke-opacity="0.1"></rect></g></g><g transform="translate(130.5194348614554 162.98897493692448)"><g transform="scale(0.3120191388922261) rotate(83.1059716806642)"><rect x="-40" y="-40" width="40" height="4.3238489210540365" fill="#EE82EE" fill-opacity="0.15601" stroke="#212121" stroke-opacity="0.1"></rect></g></g><g transform="translate(382.91572766113677 65.0373091674018)"><g transform="scale(0.658050906530573) rotate(57.20855606109589)"><rect x="-40" y="-40" width="40" height="26.04684792491365" fill="#EE82EE" fill-opacity="0.329025" stroke="#212121" stroke-opacity="0.1"></rect></g></g><g transform="translate(338.57493789767346 451.9154830379863)"><g transform="scale(0.30572150669286735) rotate(80.85687574095168)"><rect x="-40" y="-40" width="40" height="29.306241096940564" fill="#EE82EE" fill-opacity="0.152861" stroke="#212121" stroke-opacity="0.1"></rect></g></g><g transform="translate(87.16604364574016 175.88120151212044)"><g transform="scale(0.813128237700833) rotate(69.76960023271002)"><rect x="-40" y="-40" width="40" height="75.13232011352062" fill="#EE82EE" fill-opacity="0.406564" stroke="#212121" stroke-opacity="0.1"></rect></g></g><g transform="translate(260.54984880115603 426.8313637527512)"><g transform="scale(0.7173199461478083) rotate(223.06422753693465)"><rect x="-40" y="-40" width="40" height="19.02446060472684" fill="#EE82EE" fill-opacity="0.35866" stroke="#212121" stroke-opacity="0.1"></rect></g></g><g transform="translate(106.85240277588359 468.2575258879315)"><g transform="scale(0.8831221508305634) rotate(309.04358119792334)"><rect x="-40" y="-40" width="40" height="58.12215652529446" fill="#EE82EE" fill-opacity="0.441561" stroke="#212121" stroke-opacity="0.1"></rect></g></g><g transform="translate(266.4981464004974 32.55439836414514)"><g transform="scale(0.4813670073784586) rotate(4.504159399671872)"><rect x="-40" y="-40" width="40" height="34.45359329108665" fill="#EE82EE" fill-opacity="0.240684" stroke="#212121" stroke-opacity="0.1"></rect></g></g><g transform="translate(46.999539764896625 421.5718681329969)"><g transform="scale(0.6820124195312522) rotate(263.5675302852732)"><rect x="-40" y="-40" width="40" height="16.75435523196411" fill="#EE82EE" fill-opacity="0.341006" stroke="#212121" stroke-opacity="0.1"></rect></g></g><g transform="translate(153.36394506727552 181.2033281607306)"><g transform="scale(0.1645925742515691) rotate(301.68838264296573)"><rect x="-40" y="-40" width="40" height="2.107928151668146" fill="#EE82EE" fill-opacity="0.0822963" stroke="#212121" stroke-opacity="0.1"></rect></g></g><g transform="translate(414.3867993758283 279.42040811126196)"><g transform="scale(0.8395798726574133) rotate(227.712916389783)"><rect x="-40" y="-40" width="40" height="51.99029126795567" fill="#EE82EE" fill-opacity="0.41979" stroke="#212121" stroke-opacity="0.1"></rect></g></g><g transform="translate(270.8238614562239 303.5296298258184)"><g transform="scale(0.6929475327001813) rotate(171.14578484229867)"><rect x="-40" y="-40" width="40" height="1.0575176933293662" fill="#EE82EE" fill-opacity="0.346474" stroke="#212121" stroke-opacity="0.1"></rect></g></g><g transform="translate(485.08158717684273 121.35951428666341)"><g transform="scale(0.8914479488094925) rotate(72.82512720620652)"><rect x="-40" y="-40" width="40" height="69.07050465240486" fill="#EE82EE" fill-opacity="0.445724" stroke="#212121" stroke-opacity="0.1"></rect></g></g><g transform="translate(214.45263557698013 270.3717691184509)"><g transform="scale(0.4981231970332476) rotate(106.46534928912062)"><rect x="-40" y="-40" width="40" height="72.32437470211141" fill="#EE82EE" fill-opacity="0.249062" stroke="#212121" stroke-opacity="0.1"></rect></g></g><g transform="translate(170.53410683217092 15.293463541926123)"><g transform="scale(0.15006202897451854) rotate(338.29713451825137)"><rect x="-40" y="-40" width="40" height="40.95254162445503" fill="#EE82EE" fill-opacity="0.075031" stroke="#212121" stroke-opacity="0.1"></rect></g></g><g transform="translate(306.6123464816161 142.88612666729605)"><g transform="scale(0.8760275963657176) rotate(66.3471421034236)"><rect x="-40" y="-40" width="40" height="64.10719755896706" fill="#EE82EE" fill-opacity="0.438014" stroke="#212121" stroke-opacity="0.1"></rect></g></g><g transform="translate(495.3178796367414 163.01327264302734)"><g transform="scale(0.7713560969748878) rotate(357.3186995903256)"><rect x="-40" y="-40" width="40" height="39.457723182474524" fill="#EE82EE" fill-opacity="0.385678" stroke="#212121" stroke-opacity="0.1"></rect></g></g><g transform="translate(27.760411230643932 139.12959064648228)"><g transform="scale(0.524323430555441) rotate(180.64761782203442)"><rect x="-40" y="-40" width="40" height="5.435343706177278" fill="#EE82EE" fill-opacity="0.262162" stroke="#212121" stroke-opacity="0.1"></rect></g></g><g transform="translate(109.348542650336 123.57901776388641)"><g transform="scale(0.8629027041805791) rotate(119.78903128731929)"><rect x="-40" y="-40" width="40" height="65.99406913428767" fill="#EE82EE" fill-opacity="0.431451" stroke="#212121" stroke-opacity="0.1"></rect></g></g><g transform="translate(196.40497810847023 119.59046129895424)"><g transform="scale(0.5446961984250017) rotate(140.75291105952957)"><rect x="-40" y="-40" width="40" height="71.13706890753946" fill="#EE82EE" fill-opacity="0.272348" stroke="#212121" stroke-opacity="0.1"></rect></g></g><g transform="translate(74.63780067916997 420.57553526374016)"><g transform="scale(0.13281709187288018) rotate(292.85575151890475)"><rect x="-40" y="-40" width="40" height="20.99527187386923" fill="#EE82EE" fill-opacity="0.0664085" stroke="#212121" stroke-opacity="0.1"></rect></g></g><g transform="translate(135.9476567809098 214.89599092387274)"><g transform="scale(0.4111934528633514) rotate(257.89794146150456)"><rect x="-40" y="-40" width="40" height="18.20963912008" fill="#EE82EE" fill-opacity="0.205597" stroke="#212121" stroke-opacity="0.1"></rect></g></g><g transform="translate(184.41099735976152 49.88473598248161)"><g transform="scale(0.3338038441438828) rotate(342.2965961900727)"><rect x="-40" y="-40" width="40" height="11.955360020252455" fill="#EE82EE" fill-opacity="0.166902" stroke="#212121" stroke-opacity="0.1"></rect></g></g><g transform="translate(314.7940147428588 387.6727438633007)"><g transform="scale(0.3209639620076358) rotate(163.251932401961)"><rect x="-40" y="-40" width="40" height="77.4592745836024" fill="#EE82EE" fill-opacity="0.160482" stroke="#212121" stroke-opacity="0.1"></rect></g></g><g transform="translate(19.837373886924137 257.0869885778251)"><g transform="scale(0.628828925269779) rotate(78.99735027838332)"><rect x="-40" y="-40" width="40" height="1.8597929373913935" fill="#EE82EE" fill-opacity="0.314414" stroke="#212121" stroke-opacity="0.1"></rect></g></g><g transform="translate(118.3455295141968 470.24413101710513)"><g transform="scale(0.9708979422838263) rotate(126.02089001260666)"><rect x="-40" y="-40" width="40" height="51.14976828883997" fill="#EE82EE" fill-opacity="0.485449" stroke="#212121" stroke-opacity="0.1"></rect></g></g><g transform="translate(487.78406272453515 473.56813832028223)"><g transform="scale(0.972836113687922) rotate(339.54829348694716)"><rect x="-40" y="-40" width="40" height="27.345749243257764" fill="#EE82EE" fill-opacity="0.486418" stroke="#212121" stroke-opacity="0.1"></rect></g></g><g transform="translate(160.04275010831452 498.64386114323804)"><g transform="scale(0.13890357217514984) rotate(108.61907355406187)"><rect x="-40" y="-40" width="40" height="75.17330875431144" fill="#EE82EE" fill-opacity="0.0694518" stroke="#212121" stroke-opacity="0.1"></rect></g></g><g transform="translate(110.74390707223102 439.3562895312733)"><g transform="scale(0.9747901202405923) rotate(96.15278894648432)"><rect x="-40" y="-40" width="40" height="41.57352310708382" fill="#EE82EE" fill-opacity="0.487395" stroke="#212121" stroke-opacity="0.1"></rect></g></g><g transform="translate(279.799671855674 391.0136847974056)"><g transform="scale(0.6468534555804116) rotate(97.0496122987452)"><rect x="-40" y="-40" width="40" height="74.24473505989988" fill="#EE82EE" fill-opacity="0.323427" stroke="#212121" stroke-opacity="0.1"></rect></g></g><g transform="translate(436.7736645108194 357.98741511922634)"><g transform="scale(0.29874153956622507) rotate(183.59528877777447)"><rect x="-40" y="-40" width="40" height="44.04129407475109" fill="#EE82EE" fill-opacity="0.149371" stroke="#212121" stroke-opacity="0.1"></rect></g></g><g transform="translate(82.92499410033865 361.5019100457201)"><g transform="scale(0.16753597661550018) rotate(10.30983962703321)"><rect x="-40" y="-40" width="40" height="24.7153258124657" fill="#EE82EE" fill-opacity="0.083768" stroke="#212121" stroke-opacity="0.1"></rect></g></g><g transform="translate(271.38412651595445 25.28492217406203)"><g transform="scale(0.4669893258149813) rotate(252.58240003530983)"><rect x="-40" y="-40" width="40" height="19.436667401045973" fill="#EE82EE" fill-opacity="0.233495" stroke="#212121" stroke-opacity="0.1"></rect></g></g><g transform="translate(471.39058000321165 204.8493314200565)"><g transform="scale(0.16911826056950824) rotate(341.19281227359403)"><rect x="-40" y="-40" width="40" height="8.198906287239378" fill="#EE82EE" fill-opacity="0.0845591" stroke="#212121" stroke-opacity="0.1"></rect></g></g><g transform="translate(31.416327683747802 433.3404739194095)"><g transform="scale(0.5174460954643589) rotate(18.932531384914878)"><rect x="-40" y="-40" width="40" height="70.01356192893442" fill="#EE82EE" fill-opacity="0.258723" stroke="#212121" stroke-opacity="0.1"></rect></g></g><g transform="translate(53.94366317517479 253.64028942771537)"><g transform="scale(0.7389007358903705) rotate(347.10558734058844)"><rect x="-40" y="-40" width="40" height="10.087320885639555" fill="#EE82EE" fill-opacity="0.36945" stroke="#212121" stroke-opacity="0.1"></rect></g></g><g transform="translate(336.20932464783834 402.34566033175355)"><g transform="scale(0.8631545554112217) rotate(106.06466964881012)"><rect x="-40" y="-40" width="40" height="13.350249198996194" fill="#EE82EE" fill-opacity="0.431577" stroke="#212121" stroke-opacity="0.1"></rect></g></g><g transform="translate(334.27339488757656 140.49325845972544)"><g transform="scale(0.23044934456163813) rotate(296.7118986976353)"><rect x="-40" y="-40" width="40" height="58.21497866897562" fill="#EE82EE" fill-opacity="0.115225" stroke="#212121" stroke-opacity="0.1"></rect></g></g><g transform="translate(491.53497265466217 90.20781114037324)"><g transform="scale(0.9121735106772176) rotate(350.9457856952469)"><rect x="-40" y="-40" width="40" height="46.21046667050251" fill="#EE82EE" fill-opacity="0.456087" stroke="#212121" stroke-opacity="0.1"></rect></g></g><g transform="translate(428.15513653266527 441.677342591546)"><g transform="scale(0.14132373730706893) rotate(66.31618972600782)"><rect x="-40" y="-40" width="40" height="58.337066646966285" fill="#EE82EE" fill-opacity="0.0706619" stroke="#212121" stroke-opacity="0.1"></rect></g></g><g transform="translate(157.14280245962016 75.83555757559584)"><g transform="scale(0.7785087935334783) rotate(270.4434278941474)"><rect x="-40" y="-40" width="40" height="41.778309896727144" fill="#EE82EE" fill-opacity="0.389254" stroke="#212121" stroke-opacity="0.1"></rect></g></g><g transform="translate(117.58108854911076 381.3368562601281)"><g transform="scale(0.6996653385227283) rotate(267.1347339583839)"><rect x="-40" y="-40" width="40" height="5.924925307197864" fill="#EE82EE" fill-opacity="0.349833" stroke="#212121" stroke-opacity="0.1"></rect></g></g><g transform="translate(97.72297153165665 144.84344263171738)"><g transform="scale(0.6159637438993121) rotate(132.03729424665852)"><rect x="-40" y="-40" width="40" height="66.33424057236076" fill="#EE82EE" fill-opacity="0.307982" stroke="#212121" stroke-opacity="0.1"></rect></g></g><g transform="translate(484.35026677214717 312.77166617030946)"><g transform="scale(0.24823401104343656) rotate(305.0159596119336)"><rect x="-40" y="-40" width="40" height="37.899319459589826" fill="#EE82EE" fill-opacity="0.124117" stroke="#212121" stroke-opacity="0.1"></rect></g></g><g transform="translate(209.06339942409747 367.16733738166994)"><g transform="scale(0.39798011313425863) rotate(59.047829233296525)"><rect x="-40" y="-40" width="40" height="73.91064034546656" fill="#EE82EE" fill-opacity="0.19899" stroke="#212121" stroke-opacity="0.1"></rect></g></g><g transform="translate(367.7970379309597 313.177201019457)"><g transform="scale(0.691439929852372) rotate(108.4808327449552)"><rect x="-40" y="-40" width="40" height="23.222387815917926" fill="#EE82EE" fill-opacity="0.34572" stroke="#212121" stroke-opacity="0.1"></rect></g></g><g transform="translate(136.27514358730596 4.926606018640589)"><g transform="scale(0.12794593787163458) rotate(284.5174463797678)"><rect x="-40" y="-40" width="40" height="65.17165080938102" fill="#EE82EE" fill-opacity="0.063973" stroke="#212121" stroke-opacity="0.1"></rect></g></g><g transform="translate(322.0784179135145 180.78605532434204)"><g transform="scale(0.20910253777102064) rotate(212.17025383497807)"><rect x="-40" y="-40" width="40" height="15.156674158055159" fill="#EE82EE" fill-opacity="0.104551" stroke="#212121" stroke-opacity="0.1"></rect></g></g><g transform="translate(382.1667576778984 356.6029139622786)"><g transform="scale(0.24223660619898157) rotate(166.29114572576117)"><rect x="-40" y="-40" width="40" height="13.098242171254322" fill="#EE82EE" fill-opacity="0.121118" stroke="#212121" stroke-opacity="0.1"></rect></g></g><g transform="translate(495.3878132515232 33.144226203965175)"><g transform="scale(0.1707994972486903) rotate(258.4289508643394)"><rect x="-40" y="-40" width="40" height="76.15104554776198" fill="#EE82EE" fill-opacity="0.0853997" stroke="#212121" stroke-opacity="0.1"></rect></g></g><g transform="translate(192.94785514045665 157.31098483239137)"><g transform="scale(0.934615485245652) rotate(244.19790355252636)"><rect x="-40" y="-40" width="40" height="45.27356971506389" fill="#EE82EE" fill-opacity="0.467308" stroke="#212121" stroke-opacity="0.1"></rect></g></g><g transform="translate(79.51115080925153 205.2307457489267)"><g transform="scale(0.17297206780288416) rotate(211.12783849982537)"><rect x="-40" y="-40" width="40" height="22.042730150973313" fill="#EE82EE" fill-opacity="0.086486" stroke="#212121" stroke-opacity="0.1"></rect></g></g><g transform="translate(47.10939486802257 212.05076455107763)"><g transform="scale(0.27034718710539546) rotate(308.0425371086631)"><rect x="-40" y="-40" width="40" height="43.39939208440021" fill="#EE82EE" fill-opacity="0.135174" stroke="#212121" stroke-opacity="0.1"></rect></g></g><g transform="translate(129.4435011420257 282.33091528369334)"><g transform="scale(0.4987739783280193) rotate(172.81772126178492)"><rect x="-40" y="-40" width="40" height="60.59296173490444" fill="#EE82EE" fill-opacity="0.249387" stroke="#212121" stroke-opacity="0.1"></rect></g></g><g transform="translate(93.46507392279757 236.66171712386125)"><g transform="scale(0.9698995788635876) rotate(170.022473303228)"><rect x="-40" y="-40" width="40" height="13.436881292536986" fill="#EE82EE" fill-opacity="0.48495" stroke="#212121" stroke-opacity="0.1"></rect></g></g><g transform="translate(57.34905008021507 239.50340804624233)"><g transform="scale(0.2535251453056824) rotate(233.47758230062334)"><rect x="-40" y="-40" width="40" height="8.550245394997154" fill="#EE82EE" fill-opacity="0.126763" stroke="#212121" stroke-opacity="0.1"></rect></g></g><g transform="translate(164.40344603427587 341.92092422264864)"><g transform="scale(0.19238240493051334) rotate(28.379685915194468)"><rect x="-40" y="-40" width="40" height="13.311522590695422" fill="#EE82EE" fill-opacity="0.0961912" stroke="#212121" stroke-opacity="0.1"></rect></g></g><g transform="translate(434.50691373474336 267.7720126304502)"><g transform="scale(0.712685872715128) rotate(305.491202288847)"><rect x="-40" y="-40" width="40" height="5.022150522573172" fill="#EE82EE" fill-opacity="0.356343" stroke="#212121" stroke-opacity="0.1"></rect></g></g><g transform="translate(281.38480873250165 494.4708241301759)"><g transform="scale(0.43900200783718357) rotate(160.70399396513724)"><rect x="-40" y="-40" width="40" height="77.80609527204999" fill="#EE82EE" fill-opacity="0.219501" stroke="#212121" stroke-opacity="0.1"></rect></g></g><g transform="translate(96.17655551382659 355.008072342449)"><g transform="scale(0.5358269935741555) rotate(331.31406563679747)"><rect x="-40" y="-40" width="40" height="73.02466075518058" fill="#EE82EE" fill-opacity="0.267913" stroke="#212121" stroke-opacity="0.1"></rect></g></g><g transform="translate(267.93343126873293 338.014037878915)"><g transform="scale(0.45670659617780685) rotate(212.1962132683998)"><rect x="-40" y="-40" width="40" height="9.705915113653898" fill="#EE82EE" fill-opacity="0.228353" stroke="#212121" stroke-opacity="0.1"></rect></g></g><g transform="translate(403.20411444192575 52.81996194025235)"><g transform="scale(0.8788418186233509) rotate(60.226252412132744)"><rect x="-40" y="-40" width="40" height="43.581426110823536" fill="#EE82EE" fill-opacity="0.439421" stroke="#212121" stroke-opacity="0.1"></rect></g></g><g transform="translate(172.69402053834594 423.23134304936025)"><g transform="scale(0.6930928424082264) rotate(29.596730272873415)"><rect x="-40" y="-40" width="40" height="12.72537386248751" fill="#EE82EE" fill-opacity="0.346546" stroke="#212121" stroke-opacity="0.1"></rect></g></g><g transform="translate(139.86513697168124 61.04618275482437)"><g transform="scale(0.24729251492500665) rotate(196.60981902426963)"><rect x="-40" y="-40" width="40" height="41.550498668050054" fill="#EE82EE" fill-opacity="0.123646" stroke="#212121" stroke-opacity="0.1"></rect></g></g><g transform="translate(149.03070203290176 377.6340234962237)"><g transform="scale(0.8867665863817196) rotate(158.19116787924904)"><rect x="-40" y="-40" width="40" height="24.01466517874284" fill="#EE82EE" fill-opacity="0.443383" stroke="#212121" stroke-opacity="0.1"></rect></g></g><g transform="translate(152.13266302666827 195.28348018925806)"><g transform="scale(0.357557065984933) rotate(126.53150794762348)"><rect x="-40" y="-40" width="40" height="72.74873455115683" fill="#EE82EE" fill-opacity="0.178779" stroke="#212121" stroke-opacity="0.1"></rect></g></g><g transform="translate(180.53466620736063 328.9375932844905)"><g transform="scale(0.7137174511329315) rotate(150.30330820268003)"><rect x="-40" y="-40" width="40" height="79.23740143252512" fill="#EE82EE" fill-opacity="0.356859" stroke="#212121" stroke-opacity="0.1"></rect></g></g><g transform="translate(63.81402041857343 196.62144092564958)"><g transform="scale(0.18910400104192837) rotate(54.05314681829276)"><rect x="-40" y="-40" width="40" height="37.32602672851524" fill="#EE82EE" fill-opacity="0.094552" stroke="#212121" stroke-opacity="0.1"></rect></g></g><g transform="translate(261.43030638664874 268.5165311577614)"><g transform="scale(0.2833800059044682) rotate(120.39588944710286)"><rect x="-40" y="-40" width="40" height="24.62622356324608" fill="#EE82EE" fill-opacity="0.14169" stroke="#212121" stroke-opacity="0.1"></rect></g></g><g transform="translate(310.24326624616987 316.57789707033027)"><g transform="scale(0.7757012192725298) rotate(300.8827848064095)"><rect x="-40" y="-40" width="40" height="43.97104704967632" fill="#EE82EE" fill-opacity="0.387851" stroke="#212121" stroke-opacity="0.1"></rect></g></g><g transform="translate(32.81688129637378 442.218227655124)"><g transform="scale(0.48957426923802694) rotate(356.66042112893103)"><rect x="-40" y="-40" width="40" height="40.71789801967955" fill="#EE82EE" fill-opacity="0.244787" stroke="#212121" stroke-opacity="0.1"></rect></g></g><g transform="translate(198.79086179359356 145.10339061489907)"><g transform="scale(0.4680763373004444) rotate(227.691802865491)"><rect x="-40" y="-40" width="40" height="24.29842506218904" fill="#EE82EE" fill-opacity="0.234038" stroke="#212121" stroke-opacity="0.1"></rect></g></g><g transform="translate(59.10571172561369 33.248176740802435)"><g transform="scale(0.5113101134921705) rotate(271.6858564873562)"><rect x="-40" y="-40" width="40" height="9.880944978849762" fill="#EE82EE" fill-opacity="0.255655" stroke="#212121" stroke-opacity="0.1"></rect></g></g><g transform="translate(22.03073046600196 427.0842780581393)"><g transform="scale(0.8867125296101573) rotate(92.46997474335946)"><rect x="-40" y="-40" width="40" height="44.89607575458187" fill="#EE82EE" fill-opacity="0.443356" stroke="#212121" stroke-opacity="0.1"></rect></g></g><g transform="translate(442.55656176293786 422.3157133342985)"><g transform="scale(0.19755060845228473) rotate(263.0626050341637)"><rect x="-40" y="-40" width="40" height="66.91615221975384" fill="#EE82EE" fill-opacity="0.0987753" stroke="#212121" stroke-opacity="0.1"></rect></g></g><g transform="translate(414.92740113152024 130.54038859514932)"><g transform="scale(0.4847084383217495) rotate(48.23319906320168)"><rect x="-40" y="-40" width="40" height="31.64640451316589" fill="#EE82EE" fill-opacity="0.242354" stroke="#212121" stroke-opacity="0.1"></rect></g></g><g transform="translate(35.75972188135507 301.6082828170433)"><g transform="scale(0.8052394446389405) rotate(358.79066270432924)"><rect x="-40" y="-40" width="40" height="79.96966925305321" fill="#EE82EE" fill-opacity="0.40262" stroke="#212121" stroke-opacity="0.1"></rect></g></g><g transform="translate(86.7875371178436 451.7800947228971)"><g transform="scale(0.4987714770831684) rotate(299.3723435984097)"><rect x="-40" y="-40" width="40" height="65.51554794332846" fill="#EE82EE" fill-opacity="0.249386" stroke="#212121" stroke-opacity="0.1"></rect></g></g><g transform="translate(197.31992401520304 65.44494120059157)"><g transform="scale(0.23155112967327704) rotate(56.236881930002255)"><rect x="-40" y="-40" width="40" height="69.04012801836146" fill="#EE82EE" fill-opacity="0.115776" stroke="#212121" stroke-opacity="0.1"></rect></g></g><g transform="translate(334.29631067292127 136.31282176790253)"><g transform="scale(0.7666957188776401) rotate(300.28211436332)"><rect x="-40" y="-40" width="40" height="41.22126008411118" fill="#EE82EE" fill-opacity="0.383348" stroke="#212121" stroke-opacity="0.1"></rect></g></g><g transform="translate(401.68669097860936 196.59696014253873)"><g transform="scale(0.1076886808294763) rotate(228.37675924400173)"><rect x="-40" y="-40" width="40" height="57.673930141619536" fill="#EE82EE" fill-opacity="0.0538443" stroke="#212121" stroke-opacity="0.1"></rect></g></g><g transform="translate(284.5497510395517 149.50655302703942)"><g transform="scale(0.6110075244614943) rotate(103.74013661973741)"><rect x="-40" y="-40" width="40" height="13.36672362602525" fill="#EE82EE" fill-opacity="0.305504" stroke="#212121" stroke-opacity="0.1"></rect></g></g><g transform="translate(317.6456870772182 446.2384526936237)"><g transform="scale(0.8686281734595559) rotate(294.7597885148406)"><rect x="-40" y="-40" width="40" height="45.78830422149541" fill="#EE82EE" fill-opacity="0.434314" stroke="#212121" stroke-opacity="0.1"></rect></g></g><g transform="translate(271.4637352270797 310.8509791893504)"><g transform="scale(0.6818836374735682) rotate(58.97553426373544)"><rect x="-40" y="-40" width="40" height="22.728609451817583" fill="#EE82EE" fill-opacity="0.340942" stroke="#212121" stroke-opacity="0.1"></rect></g></g><g transform="translate(251.23795493494632 378.6588244935205)"><g transform="scale(0.8680543108499993) rotate(234.92750668419092)"><rect x="-40" y="-40" width="40" height="54.06736925334474" fill="#EE82EE" fill-opacity="0.434027" stroke="#212121" stroke-opacity="0.1"></rect></g></g><g transform="translate(110.43700270276408 86.30155676073076)"><g transform="scale(0.7239560333511899) rotate(109.27789332477418)"><rect x="-40" y="-40" width="40" height="26.53232929721011" fill="#EE82EE" fill-opacity="0.361978" stroke="#212121" stroke-opacity="0.1"></rect></g></g><g transform="translate(487.9304536308065 486.47572924677564)"><g transform="scale(0.6496558538055047) rotate(352.0134164830668)"><rect x="-40" y="-40" width="40" height="65.25113167654729" fill="#EE82EE" fill-opacity="0.324828" stroke="#212121" stroke-opacity="0.1"></rect></g></g><g transform="translate(36.025807028682856 74.22886039770016)"><g transform="scale(0.3663674817538687) rotate(288.4963865942062)"><rect x="-40" y="-40" width="40" height="79.66582106901896" fill="#EE82EE" fill-opacity="0.183184" stroke="#212121" stroke-opacity="0.1"></rect></g></g><g transform="translate(124.16554139487957 399.8301317059744)"><g transform="scale(0.9725121696391542) rotate(257.5704474501189)"><rect x="-40" y="-40" width="40" height="6.461243351328676" fill="#EE82EE" fill-opacity="0.486256" stroke="#212121" stroke-opacity="0.1"></rect></g></g><g transform="translate(113.40175887209742 372.25769555541154)"><g transform="scale(0.323666607181529) rotate(55.556770256493195)"><rect x="-40" y="-40" width="40" height="40.81459992025857" fill="#EE82EE" fill-opacity="0.161833" stroke="#212121" stroke-opacity="0.1"></rect></g></g><g transform="translate(270.85561108692815 84.95247446756527)"><g transform="scale(0.4151132153871182) rotate(166.914533788383)"><rect x="-40" y="-40" width="40" height="2.736278476896077" fill="#EE82EE" fill-opacity="0.207557" stroke="#212121" stroke-opacity="0.1"></rect></g></g><g transform="translate(402.9998967934288 168.14459806078423)"><g transform="scale(0.2898895655560423) rotate(22.081457486030832)"><rect x="-40" y="-40" width="40" height="11.759912307762361" fill="#EE82EE" fill-opacity="0.144945" stroke="#212121" stroke-opacity="0.1"></rect></g></g><g transform="translate(154.92568793480027 328.8881489109294)"><g transform="scale(0.23375518042298363) rotate(30.329758911172316)"><rect x="-40" y="-40" width="40" height="32.628114874321064" fill="#EE82EE" fill-opacity="0.116878" stroke="#212121" stroke-opacity="0.1"></rect></g></g><g transform="translate(5.153321215256801 356.7243726390161)"><g transform="scale(0.5149927638320373) rotate(106.82041078254622)"><rect x="-40" y="-40" width="40" height="76.62660365306088" fill="#EE82EE" fill-opacity="0.257496" stroke="#212121" stroke-opacity="0.1"></rect></g></g><g transform="translate(69.76734388515055 100.21368506395584)"><g transform="scale(0.6203075893539001) rotate(291.6914401034695)"><rect x="-40" y="-40" width="40" height="5.746917810937617" fill="#EE82EE" fill-opacity="0.310154" stroke="#212121" stroke-opacity="0.1"></rect></g></g><g transform="translate(494.4605486699499 455.91180275901536)"><g transform="scale(0.319443482734198) rotate(7.767488620598866)"><rect x="-40" y="-40" width="40" height="33.87224672843733" fill="#EE82EE" fill-opacity="0.159722" stroke="#212121" stroke-opacity="0.1"></rect></g></g><g transform="translate(334.43190942400696 12.991091576108559)"><g transform="scale(0.4097536479089372) rotate(248.79141451702498)"><rect x="-40" y="-40" width="40" height="6.065008937843155" fill="#EE82EE" fill-opacity="0.204877" stroke="#212121" stroke-opacity="0.1"></rect></g></g><g transform="translate(438.5006785774211 367.58375393239874)"><g transform="scale(0.1972685453908806) rotate(342.7386751374513)"><rect x="-40" y="-40" width="40" height="56.44440796941855" fill="#EE82EE" fill-opacity="0.0986343" stroke="#212121" stroke-opacity="0.1"></rect></g></g><g transform="translate(469.29497660714395 185.39064322031112)"><g transform="scale(0.8425889126140697) rotate(77.59485829024601)"><rect x="-40" y="-40" width="40" height="66.81304552264899" fill="#EE82EE" fill-opacity="0.421294" stroke="#212121" stroke-opacity="0.1"></rect></g></g><g transform="translate(253.45120665664467 227.3178975371644)"><g transform="scale(0.6246052396231392) rotate(351.512607629724)"><rect x="-40" y="-40" width="40" height="75.92629433490237" fill="#EE82EE" fill-opacity="0.312303" stroke="#212121" stroke-opacity="0.1"></rect></g></g><g transform="translate(239.40686159895742 258.26030296492416)"><g transform="scale(0.17574966690481372) rotate(105.37662528611298)"><rect x="-40" y="-40" width="40" height="43.17492036177744" fill="#EE82EE" fill-opacity="0.0878748" stroke="#212121" stroke-opacity="0.1"></rect></g></g><g transform="translate(311.1720630176379 21.742556311080296)"><g transform="scale(0.11547015949028681) rotate(234.5627861280848)"><rect x="-40" y="-40" width="40" height="60.26232321651048" fill="#EE82EE" fill-opacity="0.0577351" stroke="#212121" stroke-opacity="0.1"></rect></g></g><g transform="translate(7.356504839014011 369.1260125516937)"><g transform="scale(0.4331416755686447) rotate(268.7551248804265)"><rect x="-40" y="-40" width="40" height="14.124379606692798" fill="#EE82EE" fill-opacity="0.216571" stroke="#212121" stroke-opacity="0.1"></rect></g></g><g transform="translate(11.126212735024621 300.74739470131397)"><g transform="scale(0.47835048848747197) rotate(26.13114874586627)"><rect x="-40" y="-40" width="40" height="52.04973166836783" fill="#EE82EE" fill-opacity="0.239175" stroke="#212121" stroke-opacity="0.1"></rect></g></g><g transform="translate(109.49671437356601 405.4474100011412)"><g transform="scale(0.27717913262851485) rotate(53.020626380391896)"><rect x="-40" y="-40" width="40" height="10.40468660343362" fill="#EE82EE" fill-opacity="0.13859" stroke="#212121" stroke-opacity="0.1"></rect></g></g><g transform="translate(443.27021886302464 106.71741613556962)"><g transform="scale(0.8381959747948705) rotate(131.58664101276827)"><rect x="-40" y="-40" width="40" height="48.67053299907954" fill="#EE82EE" fill-opacity="0.419098" stroke="#212121" stroke-opacity="0.1"></rect></g></g><g transform="translate(79.21870816297988 79.66486258841176)"><g transform="scale(0.6811623692204133) rotate(81.29997542100676)"><rect x="-40" y="-40" width="40" height="12.039681454688091" fill="#EE82EE" fill-opacity="0.340581" stroke="#212121" stroke-opacity="0.1"></rect></g></g><g transform="translate(52.995718983383455 360.43024913586015)"><g transform="scale(0.9623843395090687) rotate(81.00646751478224)"><rect x="-40" y="-40" width="40" height="35.40624275907794" fill="#EE82EE" fill-opacity="0.481192" stroke="#212121" stroke-opacity="0.1"></rect></g></g><g transform="translate(92.6968339459951 59.29932976009006)"><g transform="scale(0.6877511869201496) rotate(54.392077868164016)"><rect x="-40" y="-40" width="40" height="36.19300354697809" fill="#EE82EE" fill-opacity="0.343876" stroke="#212121" stroke-opacity="0.1"></rect></g></g><g transform="translate(448.6025425359128 106.56407289100306)"><g transform="scale(0.3500581323594574) rotate(96.971599585189)"><rect x="-40" y="-40" width="40" height="42.61053292607389" fill="#EE82EE" fill-opacity="0.175029" stroke="#212121" stroke-opacity="0.1"></rect></g></g><g transform="translate(79.99980640509591 3.6791128890971136)"><g transform="scale(0.6259389870285051) rotate(221.11258824218342)"><rect x="-40" y="-40" width="40" height="29.24453243039581" fill="#EE82EE" fill-opacity="0.31297" stroke="#212121" stroke-opacity="0.1"></rect></g></g><g transform="translate(489.27756116931624 15.058588339735168)"><g transform="scale(0.8993291468661537) rotate(341.9484250484081)"><rect x="-40" y="-40" width="40" height="13.701132578836068" fill="#EE82EE" fill-opacity="0.449665" stroke="#212121" stroke-opacity="0.1"></rect></g></g><g transform="translate(486.5786261511987 176.76383252866472)"><g transform="scale(0.6573876270978624) rotate(358.84324862114227)"><rect x="-40" y="-40" width="40" height="9.05509425001843" fill="#EE82EE" fill-opacity="0.328694" stroke="#212121" stroke-opacity="0.1"></rect></g></g><g transform="translate(401.471805935563 98.88032208200343)"><g transform="scale(0.10167207831841832) rotate(291.7449461680362)"><rect x="-40" y="-40" width="40" height="2.9729686888210427" fill="#EE82EE" fill-opacity="0.050836" stroke="#212121" stroke-opacity="0.1"></rect></g></g><g transform="translate(219.1570008962998 62.824400453997065)"><g transform="scale(0.913013615052026) rotate(75.60122527177418)"><rect x="-40" y="-40" width="40" height="48.38915188406631" fill="#EE82EE" fill-opacity="0.456507" stroke="#212121" stroke-opacity="0.1"></rect></g></g><g transform="translate(428.80051567683125 456.61622364668716)"><g transform="scale(0.938801437031009) rotate(271.16905478065684)"><rect x="-40" y="-40" width="40" height="49.73838399811718" fill="#EE82EE" fill-opacity="0.469401" stroke="#212121" stroke-opacity="0.1"></rect></g></g><g transform="translate(329.5385084590726 161.9985305327572)"><g transform="scale(0.712424433965093) rotate(189.15337766425597)"><rect x="-40" y="-40" width="40" height="0.6067914622283954" fill="#EE82EE" fill-opacity="0.356212" stroke="#212121" stroke-opacity="0.1"></rect></g></g><g transform="translate(105.91383340699839 198.49540519686192)"><g transform="scale(0.9799391713991168) rotate(317.5106857470203)"><rect x="-40" y="-40" width="40" height="39.92136773321178" fill="#EE82EE" fill-opacity="0.48997" stroke="#212121" stroke-opacity="0.1"></rect></g></g><g transform="translate(116.74937767624277 355.02329061435927)"><g transform="scale(0.6291339382156524) rotate(287.5158071543454)"><rect x="-40" y="-40" width="40" height="44.42456557806281" fill="#EE82EE" fill-opacity="0.314567" stroke="#212121" stroke-opacity="0.1"></rect></g></g><g transform="translate(86.42632702139625 64.57348599486274)"><g transform="scale(0.4397933547590973) rotate(149.2320936177144)"><rect x="-40" y="-40" width="40" height="49.22373381158512" fill="#EE82EE" fill-opacity="0.219897" stroke="#212121" stroke-opacity="0.1"></rect></g></g><g transform="translate(399.1787244274508 449.8128293554396)"><g transform="scale(0.9065470664452336) rotate(84.26380204142106)"><rect x="-40" y="-40" width="40" height="77.55704755923473" fill="#EE82EE" fill-opacity="0.453274" stroke="#212121" stroke-opacity="0.1"></rect></g></g><g transform="translate(311.7111082717502 484.7401315339001)"><g transform="scale(0.561978665067312) rotate(143.76682672327686)"><rect x="-40" y="-40" width="40" height="79.10329265840313" fill="#EE82EE" fill-opacity="0.280989" stroke="#212121" stroke-opacity="0.1"></rect></g></g><g transform="translate(201.72679517794583 217.82965813209148)"><g transform="scale(0.7241366007965567) rotate(95.74626057862903)"><rect x="-40" y="-40" width="40" height="17.846869831341063" fill="#EE82EE" fill-opacity="0.362068" stroke="#212121" stroke-opacity="0.1"></rect></g></g><g transform="translate(273.65430053765596 441.6939712879223)"><g transform="scale(0.4389623547865521) rotate(101.97810169953952)"><rect x="-40" y="-40" width="40" height="13.234151133775578" fill="#EE82EE" fill-opacity="0.219481" stroke="#212121" stroke-opacity="0.1"></rect></g></g><g transform="translate(480.28885314519613 221.1685880874844)"><g transform="scale(0.27380780076413985) rotate(198.4680649938571)"><rect x="-40" y="-40" width="40" height="52.3931093636436" fill="#EE82EE" fill-opacity="0.136904" stroke="#212121" stroke-opacity="0.1"></rect></g></g><g transform="translate(350.4888888504538 325.2212351935699)"><g transform="scale(0.2821414446066022) rotate(48.62590811962519)"><rect x="-40" y="-40" width="40" height="75.52072537692786" fill="#EE82EE" fill-opacity="0.141071" stroke="#212121" stroke-opacity="0.1"></rect></g></g><g transform="translate(109.69923178458119 494.6126814058873)"><g transform="scale(0.9427578235035619) rotate(248.83540777011268)"><rect x="-40" y="-40" width="40" height="75.1889781084253" fill="#EE82EE" fill-opacity="0.471379" stroke="#212121" stroke-opacity="0.1"></rect></g></g><g transform="translate(415.3069138034637 54.937191311120294)"><g transform="scale(0.41119716866807454) rotate(261.46431803298907)"><rect x="-40" y="-40" width="40" height="52.90941502640898" fill="#EE82EE" fill-opacity="0.205599" stroke="#212121" stroke-opacity="0.1"></rect></g></g><g transform="translate(65.27681525903056 24.889479399578473)"><g transform="scale(0.21498264598101935) rotate(82.42955158151143)"><rect x="-40" y="-40" width="40" height="3.581563228976723" fill="#EE82EE" fill-opacity="0.107491" stroke="#212121" stroke-opacity="0.1"></rect></g></g><g transform="translate(331.6907883847592 363.70444394865297)"><g transform="scale(0.8978333427564913) rotate(33.878939426536)"><rect x="-40" y="-40" width="40" height="26.224510205056923" fill="#EE82EE" fill-opacity="0.448917" stroke="#212121" stroke-opacity="0.1"></rect></g></g><g transform="translate(64.85583551002367 60.58796574929909)"><g transform="scale(0.6810163680659694) rotate(14.5223227445214)"><rect x="-40" y="-40" width="40" height="24.643882997968582" fill="#EE82EE" fill-opacity="0.340508" stroke="#212121" stroke-opacity="0.1"></rect></g></g><g transform="translate(175.2020752094447 293.69232423406567)"><g transform="scale(0.3990643244895632) rotate(61.219196808538726)"><rect x="-40" y="-40" width="40" height="63.6458926275484" fill="#EE82EE" fill-opacity="0.199532" stroke="#212121" stroke-opacity="0.1"></rect></g></g><g transform="translate(24.980850666668164 419.10513478754916)"><g transform="scale(0.8583618153345568) rotate(92.34509071147471)"><rect x="-40" y="-40" width="40" height="51.65444230665561" fill="#EE82EE" fill-opacity="0.429181" stroke="#212121" stroke-opacity="0.1"></rect></g></g><g transform="translate(333.8941237460374 108.06366479062956)"><g transform="scale(0.7936561412505188) rotate(276.46621468608265)"><rect x="-40" y="-40" width="40" height="15.934442527703814" fill="#EE82EE" fill-opacity="0.396828" stroke="#212121" stroke-opacity="0.1"></rect></g></g><g transform="translate(59.11888472463333 83.19941942236525)"><g transform="scale(0.37672272506090954) rotate(25.843999550363556)"><rect x="-40" y="-40" width="40" height="36.650366645791344" fill="#EE82EE" fill-opacity="0.188361" stroke="#212121" stroke-opacity="0.1"></rect></g></g><g transform="translate(76.25344042567566 421.2549026965906)"><g transform="scale(0.8268730704727362) rotate(171.28732220608572)"><rect x="-40" y="-40" width="40" height="34.36422061441868" fill="#EE82EE" fill-opacity="0.413437" stroke="#212121" stroke-opacity="0.1"></rect></g></g><g transform="translate(473.8958251572358 49.10819654269333)"><g transform="scale(0.14102653273297633) rotate(222.42235525484887)"><rect x="-40" y="-40" width="40" height="21.70607220671738" fill="#EE82EE" fill-opacity="0.0705133" stroke="#212121" stroke-opacity="0.1"></rect></g></g><g transform="translate(158.38506644266752 264.58295092855366)"><g transform="scale(0.6341393164785569) rotate(158.99108039254253)"><rect x="-40" y="-40" width="40" height="32.3517018892761" fill="#EE82EE" fill-opacity="0.31707" stroke="#212121" stroke-opacity="0.1"></rect></g></g><g transform="translate(13.465873482189917 499.5872563273458)"><g transform="scale(0.6402630455257836) rotate(356.0742592948842)"><rect x="-40" y="-40" width="40" height="27.664562496194858" fill="#EE82EE" fill-opacity="0.320132" stroke="#212121" stroke-opacity="0.1"></rect></g></g><g transform="translate(478.2897309124871 457.27254476214193)"><g transform="scale(0.8378353247576855) rotate(53.493254210673875)"><rect x="-40" y="-40" width="40" height="36.675171856918524" fill="#EE82EE" fill-opacity="0.418918" stroke="#212121" stroke-opacity="0.1"></rect></g></g><g transform="translate(80.77206385571905 26.94045952680485)"><g transform="scale(0.904063185503619) rotate(219.83563750201023)"><rect x="-40" y="-40" width="40" height="3.7183389223952457" fill="#EE82EE" fill-opacity="0.452032" stroke="#212121" stroke-opacity="0.1"></rect></g></g><g transform="translate(301.1400029247337 248.525096223163)"><g transform="scale(0.40384052740351706) rotate(326.1464728634462)"><rect x="-40" y="-40" width="40" height="1.0087286618395819" fill="#EE82EE" fill-opacity="0.20192" stroke="#212121" stroke-opacity="0.1"></rect></g></g><g transform="translate(336.42269621972196 414.1830787173993)"><g transform="scale(0.8524822657296685) rotate(279.6590776570305)"><rect x="-40" y="-40" width="40" height="73.90471231910189" fill="#EE82EE" fill-opacity="0.426241" stroke="#212121" stroke-opacity="0.1"></rect></g></g><g transform="translate(149.2334142378094 336.6873374036237)"><g transform="scale(0.3633149876915738) rotate(280.62219099995866)"><rect x="-40" y="-40" width="40" height="34.25663301121312" fill="#EE82EE" fill-opacity="0.181657" stroke="#212121" stroke-opacity="0.1"></rect></g></g><g transform="translate(269.3527343361479 421.48932078624523)"><g transform="scale(0.39716193907796526) rotate(253.35181160742403)"><rect x="-40" y="-40" width="40" height="31.609258400534507" fill="#EE82EE" fill-opacity="0.198581" stroke="#212121" stroke-opacity="0.1"></rect></g></g><g transform="translate(303.7661185374091 446.36864576379406)"><g transform="scale(0.12264474097400352) rotate(124.683655603569)"><rect x="-40" y="-40" width="40" height="79.2465517414661" fill="#EE82EE" fill-opacity="0.0613224" stroke="#212121" stroke-opacity="0.1"></rect></g></g><g transform="translate(78.78620793676211 312.20500126398883)"><g transform="scale(0.3621455708863264) rotate(24.031310034918537)"><rect x="-40" y="-40" width="40" height="45.94816340275947" fill="#EE82EE" fill-opacity="0.181073" stroke="#212121" stroke-opacity="0.1"></rect></g></g><g transform="translate(326.1110605097072 203.4106482985209)"><g transform="scale(0.2276539016420137) rotate(185.72373466892586)"><rect x="-40" y="-40" width="40" height="28.898393271132843" fill="#EE82EE" fill-opacity="0.113827" stroke="#212121" stroke-opacity="0.1"></rect></g></g><g transform="translate(281.34528814789024 420.0857487559599)"><g transform="scale(0.3272391176883278) rotate(358.8734904341045)"><rect x="-40" y="-40" width="40" height="12.757633860762985" fill="#EE82EE" fill-opacity="0.16362" stroke="#212121" stroke-opacity="0.1"></rect></g></g><g transform="translate(382.0125391060774 197.07164094672453)"><g transform="scale(0.865237555915569) rotate(16.809230959275112)"><rect x="-40" y="-40" width="40" height="2.644783578746095" fill="#EE82EE" fill-opacity="0.432619" stroke="#212121" stroke-opacity="0.1"></rect></g></g><g transform="translate(112.23956353500213 35.7666010014423)"><g transform="scale(0.22874348068462053) rotate(332.7443790110105)"><rect x="-40" y="-40" width="40" height="79.61424492129441" fill="#EE82EE" fill-opacity="0.114372" stroke="#212121" stroke-opacity="0.1"></rect></g></g><g transform="translate(44.326482692858434 244.66773309550626)"><g transform="scale(0.10644042138870526) rotate(101.64942023296769)"><rect x="-40" y="-40" width="40" height="45.01744130545067" fill="#EE82EE" fill-opacity="0.0532202" stroke="#212121" stroke-opacity="0.1"></rect></g></g><g transform="translate(158.8113552022112 364.96280762376654)"><g transform="scale(0.9840030553285757) rotate(227.65797821879403)"><rect x="-40" y="-40" width="40" height="18.578873354683473" fill="#EE82EE" fill-opacity="0.492002" stroke="#212121" stroke-opacity="0.1"></rect></g></g><g transform="translate(160.74165223641774 66.49979554562935)"><g transform="scale(0.6617785153682936) rotate(250.33250276733568)"><rect x="-40" y="-40" width="40" height="58.5251030501082" fill="#EE82EE" fill-opacity="0.330889" stroke="#212121" stroke-opacity="0.1"></rect></g></g><g transform="translate(17.353990320110256 87.40183609692559)"><g transform="scale(0.4365097648864853) rotate(229.1748798212937)"><rect x="-40" y="-40" width="40" height="45.00915094600637" fill="#EE82EE" fill-opacity="0.218255" stroke="#212121" stroke-opacity="0.1"></rect></g></g><g transform="translate(244.8364046334704 145.16717696198518)"><g transform="scale(0.20731969397290198) rotate(286.2848169502912)"><rect x="-40" y="-40" width="40" height="27.165589107067404" fill="#EE82EE" fill-opacity="0.10366" stroke="#212121" stroke-opacity="0.1"></rect></g></g><g transform="translate(103.7569715249872 131.30460086600948)"><g transform="scale(0.17511305091617624) rotate(0.9219793661215991)"><rect x="-40" y="-40" width="40" height="44.638352421928296" fill="#EE82EE" fill-opacity="0.0875565" stroke="#212121" stroke-opacity="0.1"></rect></g></g><g transform="translate(286.19069538369223 36.39931585591383)"><g transform="scale(0.49582935646357096) rotate(64.82237776017762)"><rect x="-40" y="-40" width="40" height="31.846982415957036" fill="#EE82EE" fill-opacity="0.247915" stroke="#212121" stroke-opacity="0.1"></rect></g></g><g transform="translate(87.34439739134963 275.7184460573684)"><g transform="scale(0.5935835075067512) rotate(329.65461800572166)"><rect x="-40" y="-40" width="40" height="75.03299771713962" fill="#EE82EE" fill-opacity="0.296792" stroke="#212121" stroke-opacity="0.1"></rect></g></g><g transform="translate(87.65695727580358 188.57180857224643)"><g transform="scale(0.7892963124566215) rotate(175.2568486892121)"><rect x="-40" y="-40" width="40" height="43.9058842912005" fill="#EE82EE" fill-opacity="0.394648" stroke="#212121" stroke-opacity="0.1"></rect></g></g><g transform="translate(200.32942373176593 319.84629890853836)"><g transform="scale(0.5138499861809194) rotate(198.32210145852218)"><rect x="-40" y="-40" width="40" height="11.987298386694762" fill="#EE82EE" fill-opacity="0.256925" stroke="#212121" stroke-opacity="0.1"></rect></g></g><g transform="translate(272.77812226646785 288.6920982945598)"><g transform="scale(0.6576116908619012) rotate(85.01539929383115)"><rect x="-40" y="-40" width="40" height="56.20552822164609" fill="#EE82EE" fill-opacity="0.328806" stroke="#212121" stroke-opacity="0.1"></rect></g></g><g transform="translate(120.24070863515307 201.24522521415494)"><g transform="scale(0.278433938751008) rotate(183.72227609405067)"><rect x="-40" y="-40" width="40" height="56.0912182188853" fill="#EE82EE" fill-opacity="0.139217" stroke="#212121" stroke-opacity="0.1"></rect></g></g><g transform="translate(294.138943593478 414.882684224466)"><g transform="scale(0.4743335305792735) rotate(180.0160143559382)"><rect x="-40" y="-40" width="40" height="38.15148572250918" fill="#EE82EE" fill-opacity="0.237167" stroke="#212121" stroke-opacity="0.1"></rect></g></g><g transform="translate(346.90629162757836 76.28677191382177)"><g transform="scale(0.1318851338729574) rotate(8.409847133405357)"><rect x="-40" y="-40" width="40" height="65.25898325708296" fill="#EE82EE" fill-opacity="0.0659426" stroke="#212121" stroke-opacity="0.1"></rect></g></g><g transform="translate(39.05582401963875 467.1458615259483)"><g transform="scale(0.23749563406041366) rotate(227.79940860800627)"><rect x="-40" y="-40" width="40" height="48.858759425740985" fill="#EE82EE" fill-opacity="0.118748" stroke="#212121" stroke-opacity="0.1"></rect></g></g><g transform="translate(223.64535754045977 67.2755821202708)"><g transform="scale(0.5325464949956831) rotate(73.13876426987751)"><rect x="-40" y="-40" width="40" height="6.097492037963352" fill="#EE82EE" fill-opacity="0.266273" stroke="#212121" stroke-opacity="0.1"></rect></g></g><g transform="translate(13.631521790083978 449.03373960124736)"><g transform="scale(0.23607543782059986) rotate(186.8124262453126)"><rect x="-40" y="-40" width="40" height="26.03087960322595" fill="#EE82EE" fill-opacity="0.118038" stroke="#212121" stroke-opacity="0.1"></rect></g></g><g transform="translate(221.87480663079816 367.98818129351037)"><g transform="scale(0.5540758513226881) rotate(142.87034573716357)"><rect x="-40" y="-40" width="40" height="36.00114958730533" fill="#EE82EE" fill-opacity="0.277038" stroke="#212121" stroke-opacity="0.1"></rect></g></g><g transform="translate(301.68162069253395 261.2496965657689)"><g transform="scale(0.39125151460926566) rotate(46.06140955255698)"><rect x="-40" y="-40" width="40" height="61.531192470851074" fill="#EE82EE" fill-opacity="0.195626" stroke="#212121" stroke-opacity="0.1"></rect></g></g><g transform="translate(65.89919737737976 497.02357998167804)"><g transform="scale(0.27204870675565795) rotate(233.5748464689384)"><rect x="-40" y="-40" width="40" height="14.134957213112092" fill="#EE82EE" fill-opacity="0.136024" stroke="#212121" stroke-opacity="0.1"></rect></g></g><g transform="translate(32.97433155207396 461.2996581882637)"><g transform="scale(0.2295789742814292) rotate(2.7667643384620577)"><rect x="-40" y="-40" width="40" height="12.012265440596472" fill="#EE82EE" fill-opacity="0.114789" stroke="#212121" stroke-opacity="0.1"></rect></g></g><g transform="translate(179.17504923528998 100.00474428450812)"><g transform="scale(0.8820492135367523) rotate(25.3910456714192)"><rect x="-40" y="-40" width="40" height="43.7698908113439" fill="#EE82EE" fill-opacity="0.441025" stroke="#212121" stroke-opacity="0.1"></rect></g></g><g transform="translate(466.7272592942069 53.52945397615483)"><g transform="scale(0.6391429022830902) rotate(65.49468422464595)"><rect x="-40" y="-40" width="40" height="2.7530758411637013" fill="#EE82EE" fill-opacity="0.319571" stroke="#212121" stroke-opacity="0.1"></rect></g></g><g transform="translate(76.56247517561793 127.62034339486034)"><g transform="scale(0.629254375214097) rotate(87.97992901950383)"><rect x="-40" y="-40" width="40" height="43.952732662707696" fill="#EE82EE" fill-opacity="0.314627" stroke="#212121" stroke-opacity="0.1"></rect></g></g><g transform="translate(5.882120640140764 477.10453426449766)"><g transform="scale(0.9061135932064885) rotate(342.6646597650267)"><rect x="-40" y="-40" width="40" height="58.59891106378533" fill="#EE82EE" fill-opacity="0.453057" stroke="#212121" stroke-opacity="0.1"></rect></g></g><g transform="translate(216.8254983786999 441.803037743337)"><g transform="scale(0.5894202970358) rotate(242.53709875655719)"><rect x="-40" y="-40" width="40" height="35.58460972402969" fill="#EE82EE" fill-opacity="0.29471" stroke="#212121" stroke-opacity="0.1"></rect></g></g><g transform="translate(385.34037324589127 17.912694062925784)"><g transform="scale(0.21533919943375762) rotate(163.2615412193443)"><rect x="-40" y="-40" width="40" height="70.50951383058538" fill="#EE82EE" fill-opacity="0.10767" stroke="#212121" stroke-opacity="0.1"></rect></g></g><g transform="translate(61.17012939784971 14.029565260949672)"><g transform="scale(0.14270028061080706) rotate(344.6836599141224)"><rect x="-40" y="-40" width="40" height="47.17754655615195" fill="#EE82EE" fill-opacity="0.0713501" stroke="#212121" stroke-opacity="0.1"></rect></g></g><g transform="translate(130.9532741320406 294.9520158394445)"><g transform="scale(0.4162380234487286) rotate(343.63035710482063)"><rect x="-40" y="-40" width="40" height="52.52269133535708" fill="#EE82EE" fill-opacity="0.208119" stroke="#212121" stroke-opacity="0.1"></rect></g></g><g transform="translate(4.047716855971107 47.35668741339494)"><g transform="scale(0.5851995683133596) rotate(238.34515138046123)"><rect x="-40" y="-40" width="40" height="35.447763400545554" fill="#EE82EE" fill-opacity="0.2926" stroke="#212121" stroke-opacity="0.1"></rect></g></g><g transform="translate(427.6692095940184 78.74638399012751)"><g transform="scale(0.8127166109935446) rotate(268.46549004761744)"><rect x="-40" y="-40" width="40" height="16.783656148014128" fill="#EE82EE" fill-opacity="0.406358" stroke="#212121" stroke-opacity="0.1"></rect></g></g><g transform="translate(464.32367235671944 0.6179001050666821)"><g transform="scale(0.35373426543957187) rotate(279.6556129525031)"><rect x="-40" y="-40" width="40" height="75.63811178909884" fill="#EE82EE" fill-opacity="0.176867" stroke="#212121" stroke-opacity="0.1"></rect></g></g><g transform="translate(381.2936437715005 492.60543001814034)"><g transform="scale(0.6475694872338948) rotate(295.66451113278754)"><rect x="-40" y="-40" width="40" height="20.678367881800426" fill="#EE82EE" fill-opacity="0.323785" stroke="#212121" stroke-opacity="0.1"></rect></g></g><g transform="translate(474.8751102778577 263.06369246224085)"><g transform="scale(0.1607348141139271) rotate(295.80004711523657)"><rect x="-40" y="-40" width="40" height="13.853724853874345" fill="#EE82EE" fill-opacity="0.0803674" stroke="#212121" stroke-opacity="0.1"></rect></g></g><g transform="translate(270.4010743775538 347.5197701115991)"><g transform="scale(0.6345413682703166) rotate(50.12449458897186)"><rect x="-40" y="-40" width="40" height="6.285825794777846" fill="#EE82EE" fill-opacity="0.317271" stroke="#212121" stroke-opacity="0.1"></rect></g></g><g transform="translate(480.2383277739922 421.51331638060714)"><g transform="scale(0.33067785600055316) rotate(130.12955064566245)"><rect x="-40" y="-40" width="40" height="39.50775815146773" fill="#EE82EE" fill-opacity="0.165339" stroke="#212121" stroke-opacity="0.1"></rect></g></g><g transform="translate(79.33504057349438 88.60199791217293)"><g transform="scale(0.43962618980782786) rotate(207.4009656258743)"><rect x="-40" y="-40" width="40" height="40.66840638825791" fill="#EE82EE" fill-opacity="0.219813" stroke="#212121" stroke-opacity="0.1"></rect></g></g><g transform="translate(245.19447231437059 64.54322773050485)"><g transform="scale(0.7232316091959775) rotate(112.02788335416483)"><rect x="-40" y="-40" width="40" height="46.00508750802117" fill="#EE82EE" fill-opacity="0.361616" stroke="#212121" stroke-opacity="0.1"></rect></g></g><g transform="translate(64.19830248179625 264.61510848478713)"><g transform="scale(0.7975624161369528) rotate(137.33144858131757)"><rect x="-40" y="-40" width="40" height="26.788792008863645" fill="#EE82EE" fill-opacity="0.398781" stroke="#212121" stroke-opacity="0.1"></rect></g></g><g transform="translate(97.37704991678176 397.3139076053566)"><g transform="scale(0.23631170305347615) rotate(306.92013992296387)"><rect x="-40" y="-40" width="40" height="63.25719776951516" fill="#EE82EE" fill-opacity="0.118156" stroke="#212121" stroke-opacity="0.1"></rect></g></g><g transform="translate(207.94404361250872 300.3318538418549)"><g transform="scale(0.4460670168269778) rotate(144.32446607856036)"><rect x="-40" y="-40" width="40" height="55.359644839892596" fill="#EE82EE" fill-opacity="0.223034" stroke="#212121" stroke-opacity="0.1"></rect></g></g><g transform="translate(175.94759580307445 2.5436984775237814)"><g transform="scale(0.4884778260602042) rotate(199.26704490566274)"><rect x="-40" y="-40" width="40" height="60.22347358999311" fill="#EE82EE" fill-opacity="0.244239" stroke="#212121" stroke-opacity="0.1"></rect></g></g><g transform="translate(274.31392102958387 0.7759019489723129)"><g transform="scale(0.10547853720730577) rotate(315.30661562317385)"><rect x="-40" y="-40" width="40" height="56.8917344948657" fill="#EE82EE" fill-opacity="0.0527393" stroke="#212121" stroke-opacity="0.1"></rect></g></g><g transform="translate(442.4389570764853 247.62770953742842)"><g transform="scale(0.8093061639149413) rotate(287.2338232808616)"><rect x="-40" y="-40" width="40" height="38.37289923581069" fill="#EE82EE" fill-opacity="0.404653" stroke="#212121" stroke-opacity="0.1"></rect></g></g><g transform="translate(329.9385024543136 136.1703328424239)"><g transform="scale(0.996300876064893) rotate(89.70899039067376)"><rect x="-40" y="-40" width="40" height="40.53143102309864" fill="#EE82EE" fill-opacity="0.49815" stroke="#212121" stroke-opacity="0.1"></rect></g></g><g transform="translate(230.00266124788394 321.0031900939852)"><g transform="scale(0.9211265679633567) rotate(252.29299739496088)"><rect x="-40" y="-40" width="40" height="32.8017733386606" fill="#EE82EE" fill-opacity="0.460563" stroke="#212121" stroke-opacity="0.1"></rect></g></g><g transform="translate(276.623865782024 274.55054664169313)"><g transform="scale(0.9230774239519622) rotate(150.71459547822496)"><rect x="-40" y="-40" width="40" height="72.2000488956129" fill="#EE82EE" fill-opacity="0.461539" stroke="#212121" stroke-opacity="0.1"></rect></g></g><g transform="translate(460.8423873282867 358.11049567444087)"><g transform="scale(0.16130275260560906) rotate(246.08056078133657)"><rect x="-40" y="-40" width="40" height="53.94353893340845" fill="#EE82EE" fill-opacity="0.0806514" stroke="#212121" stroke-opacity="0.1"></rect></g></g><g transform="translate(153.78691596768374 291.1535917179431)"><g transform="scale(0.47998463103601785) rotate(289.96149804963494)"><rect x="-40" y="-40" width="40" height="0.40566709190949624" fill="#EE82EE" fill-opacity="0.239992" stroke="#212121" stroke-opacity="0.1"></rect></g></g><g transform="translate(54.28788486605518 225.15737014621934)"><g transform="scale(0.6156799719747333) rotate(236.38085462472736)"><rect x="-40" y="-40" width="40" height="21.759979060410714" fill="#EE82EE" fill-opacity="0.30784" stroke="#212121" stroke-opacity="0.1"></rect></g></g><g transform="translate(124.73157644053867 442.46365833830066)"><g transform="scale(0.5413944093305623) rotate(335.48477394829547)"><rect x="-40" y="-40" width="40" height="38.98644827826888" fill="#EE82EE" fill-opacity="0.270697" stroke="#212121" stroke-opacity="0.1"></rect></g></g><g transform="translate(387.2893956924057 316.72865646080294)"><g transform="scale(0.6461013133793995) rotate(102.54681254645514)"><rect x="-40" y="-40" width="40" height="49.61128479369334" fill="#EE82EE" fill-opacity="0.323051" stroke="#212121" stroke-opacity="0.1"></rect></g></g><g transform="translate(59.74964057989685 334.85710158597436)"><g transform="scale(0.8004657595285021) rotate(134.30487533762323)"><rect x="-40" y="-40" width="40" height="12.212454591839412" fill="#EE82EE" fill-opacity="0.400233" stroke="#212121" stroke-opacity="0.1"></rect></g></g><g transform="translate(142.6029485975951 103.51972771958535)"><g transform="scale(0.2157754970843202) rotate(292.7254945419972)"><rect x="-40" y="-40" width="40" height="34.218926447818944" fill="#EE82EE" fill-opacity="0.107888" stroke="#212121" stroke-opacity="0.1"></rect></g></g><g transform="translate(144.24272155088917 257.0600397955941)"><g transform="scale(0.40328757076999866) rotate(294.0556678321286)"><rect x="-40" y="-40" width="40" height="1.761333192705239" fill="#EE82EE" fill-opacity="0.201644" stroke="#212121" stroke-opacity="0.1"></rect></g></g><g transform="translate(307.33384415025665 36.30957899123383)"><g transform="scale(0.24030878288116803) rotate(92.67936634423111)"><rect x="-40" y="-40" width="40" height="47.08934029840637" fill="#EE82EE" fill-opacity="0.120154" stroke="#212121" stroke-opacity="0.1"></rect></g></g><g transform="translate(5.330981051863414 71.87083698785935)"><g transform="scale(0.3754342085745763) rotate(51.27397079063425)"><rect x="-40" y="-40" width="40" height="12.272376746980695" fill="#EE82EE" fill-opacity="0.187717" stroke="#212121" stroke-opacity="0.1"></rect></g></g><g transform="translate(328.9883360803247 73.83080679781861)"><g transform="scale(0.48367560280095334) rotate(294.51421672933986)"><rect x="-40" y="-40" width="40" height="54.39227163073433" fill="#EE82EE" fill-opacity="0.241838" stroke="#212121" stroke-opacity="0.1"></rect></g></g><g transform="translate(33.842719978020405 158.46685299027658)"><g transform="scale(0.3364487276014432) rotate(128.63681919826274)"><rect x="-40" y="-40" width="40" height="35.19166891737306" fill="#EE82EE" fill-opacity="0.168224" stroke="#212121" stroke-opacity="0.1"></rect></g></g><g transform="translate(290.2275043307558 248.1327827639015)"><g transform="scale(0.4676355307410548) rotate(221.22481689727024)"><rect x="-40" y="-40" width="40" height="2.509440270313741" fill="#EE82EE" fill-opacity="0.233818" stroke="#212121" stroke-opacity="0.1"></rect></g></g><g transform="translate(168.76479664969767 218.82660467830777)"><g transform="scale(0.6120268365381202) rotate(164.16340636365337)"><rect x="-40" y="-40" width="40" height="41.25449883499782" fill="#EE82EE" fill-opacity="0.306013" stroke="#212121" stroke-opacity="0.1"></rect></g></g><g transform="translate(446.1492665556663 456.45004499676264)"><g transform="scale(0.9796925754050461) rotate(151.5878056441314)"><rect x="-40" y="-40" width="40" height="57.052070621450845" fill="#EE82EE" fill-opacity="0.489846" stroke="#212121" stroke-opacity="0.1"></rect></g></g><g transform="translate(344.9989180599402 432.53695150645575)"><g transform="scale(0.7405912309356001) rotate(279.3634641313073)"><rect x="-40" y="-40" width="40" height="18.25632994498087" fill="#EE82EE" fill-opacity="0.370296" stroke="#212121" stroke-opacity="0.1"></rect></g></g><g transform="translate(206.10778417727178 142.3301629020557)"><g transform="scale(0.9989211524543491) rotate(179.23923159352873)"><rect x="-40" y="-40" width="40" height="37.4678084142255" fill="#EE82EE" fill-opacity="0.499461" stroke="#212121" stroke-opacity="0.1"></rect></g></g><g transform="translate(331.9673910343268 356.4550482738808)"><g transform="scale(0.3557825049566661) rotate(340.0356914217389)"><rect x="-40" y="-40" width="40" height="20.89282247030674" fill="#EE82EE" fill-opacity="0.177891" stroke="#212121" stroke-opacity="0.1"></rect></g></g><g transform="translate(439.8200287343765 479.4228950066504)"><g transform="scale(0.5103348586650555) rotate(128.54960692892183)"><rect x="-40" y="-40" width="40" height="7.0557686973641776" fill="#EE82EE" fill-opacity="0.255167" stroke="#212121" stroke-opacity="0.1"></rect></g></g></g>
  <!-- <rect id="tint" x="0" y="0" rx="20" ry="20" width="" height="" fill="url(#tintGradient)" /> -->
  <g id="mainHolder"><g transform="translate(250 250)"><rect x="-125" y="-125" width="250" height="250" fill="#EE82EE" fill-opacity="1" stroke="#212121"></rect></g></g>
<text class="styled-text" x="250" y="480" text-anchor="middle" fill="white" font-size="60" font-weight="800" >rect</text>
  <style>
  .styled-text {
    fill: white;
    font-family: sans-serif;
    font-size: 60px;
    font-weight: bold;
    /* Other SVG presentation attributes like fill, stroke, etc., can be used as CSS properties */
  }
  </style>
  </svg>