<svg xmlns:xlink="http://www.w3.org/1999/xlink" xmlns="http://www.w3.org/2000/svg" width="300" height="300" viewBox="2 2 496 496">
  <defs>
    <linearGradient id="tintGradient" x1="0%" y1="0%" x2="0%" y2="100%">
      <stop offset="0%" stop-color="black" stop-opacity="0"></stop>
      <stop offset="100%" stop-color="black" stop-opacity=".25"></stop>
    </linearGradient>
  </defs>
  <rect id="bg" x="0" y="0" width="500" height="500" fill="#111F35" stroke="#000000" stroke-width="2px"></rect>
  <g id="particleHolder"><polygon points="475.1683864942348,346.5177932760967 482.50418821329026,351.74709652179325 478.3268208261698,358.80260846503046 473.206138067742,356.3556997325146 466.6118637328166,351.0642881568457 " stroke="#F63049" stroke-opacity="0.758965" stroke-linecap="round" fill="#F63049" fill-opacity="0.758965"></polygon><polygon points="281.40427080880306,280.1824706309361 278.3393637542038,278.1747073211647 278.29919898693254,268.22284999716715 286.37258395004505,274.49283542586176 289.43534589070094,282.8780887211356 " stroke="#F63049" stroke-opacity="0.416467" stroke-linecap="round" fill="#F63049" fill-opacity="0.416467"></polygon><polygon points="278.555792709178,430.575083734583 287.79874916670343,429.8009257554402 302.96586705635406,427.07469031616307 297.81765521762827,444.8676408812827 283.39333174572545,440.2588584288404 " stroke="#F63049" stroke-opacity="0.795998" stroke-linecap="round" fill="#F63049" fill-opacity="0.795998"></polygon><polygon points="421.5117500184003,185.0479619106905 418.16323519792024,190.1105793823839 418.1799250790953,184.04034568010232 419.18468804318866,181.66790380563086 424.52499141989955,180.55663925513966 " stroke="#F63049" stroke-opacity="0.24971" stroke-linecap="round" fill="#F63049" fill-opacity="0.24971"></polygon><polygon points="107.20060460895509,43.909890070042756 108.96557391163493,38.04207872911163 113.18613423571196,35.52065663142136 118.64430626511653,39.63219777290812 113.44167225184917,43.722935690003766 " stroke="#F63049" stroke-opacity="0.326035" stroke-linecap="round" fill="#F63049" fill-opacity="0.326035"></polygon><polygon points="440.6110625839175,411.74829714777036 440.4071254773929,405.8660629126245 443.9526515739696,401.394210335994 447.6611436875777,405.77614028706245 444.4826115979681,407.65259490131973 " stroke="#F63049" stroke-opacity="0.218027" stroke-linecap="round" fill="#F63049" fill-opacity="0.218027"></polygon><polygon points="426.73118634474514,475.37158509871284 443.37741724225026,473.8331370754448 450.12082879212085,483.22793662942075 446.6457466477713,497.405503961622 434.2896474217975,489.80008603760524 " stroke="#F63049" stroke-opacity="0.681674" stroke-linecap="round" fill="#F63049" fill-opacity="0.681674"></polygon><polygon points="65.67591305078328,419.80443955736985 69.00477347220956,430.10249786133534 59.60250236481414,429.49225772098646 51.3507982740757,427.76070541727256 54.589470993153476,416.43941253836186 " stroke="#F63049" stroke-opacity="0.44236" stroke-linecap="round" fill="#F63049" fill-opacity="0.44236"></polygon><polygon points="378.80961503144107,51.38907891800408 387.1021806212912,64.07589732853982 372.0187673057369,68.55993220663169 351.93964120924795,62.74279640385413 367.88535543720354,49.382976294165594 " stroke="#F63049" stroke-opacity="0.991371" stroke-linecap="round" fill="#F63049" fill-opacity="0.991371"></polygon><polygon points="456.0097509596708,92.25274368367114 464.28936234755366,73.6466788315166 465.53262417234566,94.34291771679516 469.937400465984,105.87087736761424 458.6558068750768,100.27828326194397 " stroke="#F63049" stroke-opacity="0.849427" stroke-linecap="round" fill="#F63049" fill-opacity="0.849427"></polygon><polygon points="161.52342343790417,484.17562157870606 163.86971744170106,480.5974411319759 165.2446767002151,484.7313368589394 164.07176184542655,487.31682766068303 162.11176586737338,485.82323999742795 " stroke="#F63049" stroke-opacity="0.208315" stroke-linecap="round" fill="#F63049" fill-opacity="0.208315"></polygon><polygon points="266.0838343965223,51.357576378736155 248.72451476753088,60.2370808734065 239.87562573107368,51.47811525478163 237.85599505472408,38.538247492312124 250.7121565320366,41.01209420551662 " stroke="#F63049" stroke-opacity="0.795651" stroke-linecap="round" fill="#F63049" fill-opacity="0.795651"></polygon><polygon points="18.796835668690026,349.21933844286673 31.53367426580201,355.9054852762582 30.853848847931435,373.12597787056154 16.279267417901412,367.4009313743674 15.291094559039875,359.9846017087913 " stroke="#F63049" stroke-opacity="0.709263" stroke-linecap="round" fill="#F63049" fill-opacity="0.709263"></polygon><polygon points="33.98340574670378,411.2669890443108 33.96247099587476,413.1970936135127 33.39111761263623,416.4720992617945 30.233520218449485,414.2565054474845 32.318242713120355,412.2540877487314 " stroke="#F63049" stroke-opacity="0.142602" stroke-linecap="round" fill="#F63049" fill-opacity="0.142602"></polygon><polygon points="165.42906716674446,164.3116878218695 177.96774849906913,163.04322477697661 185.4801118346761,173.1848945543787 175.02118847288716,176.76049670235767 163.9537731217261,177.82528264221673 " stroke="#F63049" stroke-opacity="0.853119" stroke-linecap="round" fill="#F63049" fill-opacity="0.853119"></polygon><polygon points="112.48099748869298,435.50010927327395 116.90925298995612,415.012441434946 135.2817413842262,409.10041536109884 150.9459378017115,426.36472538128663 134.27967315524793,445.501164001483 " stroke="#F63049" stroke-opacity="0.985881" stroke-linecap="round" fill="#F63049" fill-opacity="0.985881"></polygon><polygon points="192.1804645610048,413.8938463139142 197.9049020543314,412.06819575486344 196.71975724689452,417.0392197866578 196.48660156059003,418.8312240821134 192.01698859747276,419.57485444819855 " stroke="#F63049" stroke-opacity="0.215223" stroke-linecap="round" fill="#F63049" fill-opacity="0.215223"></polygon><polygon points="58.39281852475194,293.79057420340627 67.89291241204637,283.38795859850256 80.21678926009952,284.2035115864192 89.63879619793956,301.57847946745846 68.71845031199574,309.6996263634051 " stroke="#F63049" stroke-opacity="0.949108" stroke-linecap="round" fill="#F63049" fill-opacity="0.949108"></polygon><polygon points="312.7641140112907,291.16723172222055 323.614356770989,302.2807887814902 306.01853823717846,314.9918560795823 299.8592998504519,296.53254427932063 304.81711759630576,286.97084107270734 " stroke="#F63049" stroke-opacity="0.849685" stroke-linecap="round" fill="#F63049" fill-opacity="0.849685"></polygon><polygon points="105.21413845497845,146.2024575190842 103.60073703399021,143.17671477416167 105.7126829712784,142.2963879841845 106.8064231212158,142.31821934459535 106.8408398619238,143.52109000807744 " stroke="#F63049" stroke-opacity="0.152056" stroke-linecap="round" fill="#F63049" fill-opacity="0.152056"></polygon><polygon points="469.5485547372975,140.73563083791626 467.5164548040015,150.17327974495447 460.43086026152514,150.529348295172 457.6783742688212,145.91641351551561 458.32894327036064,133.91102718167957 " stroke="#F63049" stroke-opacity="0.742603" stroke-linecap="round" fill="#F63049" fill-opacity="0.742603"></polygon><polygon points="299.94513286181393,45.58492129281045 275.87858076171534,35.69768482102871 293.8530306615836,21.340944382372953 305.1428311815207,13.790262456224779 305.5712414370179,27.65468846788317 " stroke="#F63049" stroke-opacity="0.95572" stroke-linecap="round" fill="#F63049" fill-opacity="0.95572"></polygon><polygon points="119.26556902841038,296.9388903911163 124.8682232163294,301.6633164139162 128.46973975184906,308.1744172701088 120.57035792578945,309.3991517573563 118.74854543447518,304.1800204143308 " stroke="#F63049" stroke-opacity="0.31128" stroke-linecap="round" fill="#F63049" fill-opacity="0.31128"></polygon><polygon points="242.7006411112583,247.2204923591681 231.46194611440953,246.3815373520872 223.19049557842362,239.30313686144765 231.22121192200714,229.10742059966387 241.83029641762658,235.04771479167147 " stroke="#F63049" stroke-opacity="0.506374" stroke-linecap="round" fill="#F63049" fill-opacity="0.506374"></polygon><polygon points="174.13686545546125,395.45205420780917 182.56988073639616,402.26735148798224 171.77207062722314,401.27161680240874 152.3788960266911,402.89744367255264 170.2424081602523,395.1888719389202 " stroke="#F63049" stroke-opacity="0.848648" stroke-linecap="round" fill="#F63049" fill-opacity="0.848648"></polygon><polygon points="467.4220235483477,132.73905477268121 453.8395166944192,130.75704437374208 453.5125770559661,115.75440237385682 466.90542927402157,113.27872069688853 472.8407402954842,122.79011139813574 " stroke="#F63049" stroke-opacity="0.587776" stroke-linecap="round" fill="#F63049" fill-opacity="0.587776"></polygon><polygon points="78.44293728732913,221.49629527305436 84.78712121857569,227.37414859663727 84.17503618986669,232.41557610622266 78.8682423132946,236.09963613836288 78.7801522224234,229.95102102933268 " stroke="#F63049" stroke-opacity="0.360838" stroke-linecap="round" fill="#F63049" fill-opacity="0.360838"></polygon><polygon points="35.34466212934884,439.361916430088 36.41310168884154,434.740184771625 46.026283349007834,427.41075206342333 42.17179123808791,438.8835196073151 39.8245584503006,457.3939725034574 " stroke="#F63049" stroke-opacity="0.824065" stroke-linecap="round" fill="#F63049" fill-opacity="0.824065"></polygon><polygon points="362.4994742757905,243.76330361639899 367.8306120676364,238.96056647999376 376.17713304279965,245.39125913202287 370.0357809183332,256.2859196664997 358.9436266765599,251.80092488470174 " stroke="#F63049" stroke-opacity="0.456549" stroke-linecap="round" fill="#F63049" fill-opacity="0.456549"></polygon><polygon points="12.949120458406934,137.98283255236325 13.226611882197236,144.45980629432862 11.05642402345614,150.05946384304298 2.709993037312061,147.8581833504619 2.9220930252970136,137.13856488184928 " stroke="#F63049" stroke-opacity="0.372717" stroke-linecap="round" fill="#F63049" fill-opacity="0.372717"></polygon><polygon points="417.5906094962709,464.5971931258584 431.50527251275287,456.7954997448101 431.17425943076165,474.28461893954614 419.599673906995,472.12037883289975 405.0067298166215,471.8300881859992 " stroke="#F63049" stroke-opacity="0.77464" stroke-linecap="round" fill="#F63049" fill-opacity="0.77464"></polygon><polygon points="20.181474981551876,132.2335636841058 16.916217734592998,128.033046818046 22.377325239013324,123.14767370568325 25.061580694168704,129.1883409524243 25.947730224418457,136.11438153893556 " stroke="#F63049" stroke-opacity="0.29252" stroke-linecap="round" fill="#F63049" fill-opacity="0.29252"></polygon><polygon points="260.05502450232234,104.18442211583337 261.0139107613553,113.76527807409748 253.2953306964749,108.50424456012657 251.1011946507756,104.8640752247557 254.78677698988392,99.04664671717397 " stroke="#F63049" stroke-opacity="0.42935" stroke-linecap="round" fill="#F63049" fill-opacity="0.42935"></polygon><polygon points="447.30758053727635,396.1371468287679 453.88225651419293,392.7577731580043 458.78794151746155,393.14336164788995 456.0437425958325,396.7302553844812 454.17515144134694,398.7015679805309 " stroke="#F63049" stroke-opacity="0.303144" stroke-linecap="round" fill="#F63049" fill-opacity="0.303144"></polygon><polygon points="45.91664466058146,375.54083423373265 44.58567179058558,373.2567517958323 46.9715416280574,372.16617263020885 48.156347758563086,373.60433994608366 51.221694076330195,379.6250016812505 " stroke="#F63049" stroke-opacity="0.337238" stroke-linecap="round" fill="#F63049" fill-opacity="0.337238"></polygon><polygon points="160.3913206934772,259.2935130570646 163.9373764701995,257.5477390622668 167.56975250143228,260.7757825475145 164.44328594505666,264.7976806293082 159.62689792158304,263.71291584857727 " stroke="#F63049" stroke-opacity="0.25651" stroke-linecap="round" fill="#F63049" fill-opacity="0.25651"></polygon><polygon points="87.92493573176944,12.969990962930304 97.81034269322706,18.561466316566005 86.34791812145187,18.88297424207595 81.92840790105336,19.207797012860343 82.44579116481597,13.623466618126294 " stroke="#F63049" stroke-opacity="0.532297" stroke-linecap="round" fill="#F63049" fill-opacity="0.532297"></polygon><polygon points="161.23513366416478,248.57380474096095 164.2296713822886,244.18034667511432 167.0120521860025,247.06063773347194 171.60449808986053,251.1236880163736 164.52752004826874,255.48229015887887 " stroke="#F63049" stroke-opacity="0.342836" stroke-linecap="round" fill="#F63049" fill-opacity="0.342836"></polygon><polygon points="333.88851575872184,112.15718378420527 334.0741449354478,119.54011452675344 327.85313603198404,117.59774215316241 322.31000928377716,114.31800938849683 328.10783952038594,110.86635248614394 " stroke="#F63049" stroke-opacity="0.369945" stroke-linecap="round" fill="#F63049" fill-opacity="0.369945"></polygon><polygon points="33.42893418650013,73.19527750378212 22.485194721747916,70.8540078014717 23.775507203799418,59.458231394922336 32.56150226976118,60.58827959334231 39.22874167618654,65.21420029908727 " stroke="#F63049" stroke-opacity="0.497868" stroke-linecap="round" fill="#F63049" fill-opacity="0.497868"></polygon><polygon points="112.9904116520824,185.98872230020322 113.68253021917043,193.30536322566167 109.78538243504595,210.56086032988696 96.25523880566212,196.74554927425933 103.64441072807618,185.2484882878677 " stroke="#F63049" stroke-opacity="0.900554" stroke-linecap="round" fill="#F63049" fill-opacity="0.900554"></polygon><polygon points="176.0977917377623,419.117247706884 169.80547604273963,419.33386167699473 174.03144570087593,414.5379594497499 180.73947698900332,409.80004245245124 179.16661626181818,417.86958562079144 " stroke="#F63049" stroke-opacity="0.384391" stroke-linecap="round" fill="#F63049" fill-opacity="0.384391"></polygon><polygon points="164.56415337299885,321.55181337146524 178.20193174973085,320.23327464835495 166.85233110170432,328.08661323129274 163.80970136138046,328.02850248060383 158.55993616871405,324.58360629249046 " stroke="#F63049" stroke-opacity="0.708781" stroke-linecap="round" fill="#F63049" fill-opacity="0.708781"></polygon><polygon points="114.76442202745609,444.36604256741106 119.30729271219278,441.4678939404285 122.27991550290942,443.731230532435 124.1975830945209,448.9011987456874 117.53530115302166,450.3087371989868 " stroke="#F63049" stroke-opacity="0.226421" stroke-linecap="round" fill="#F63049" fill-opacity="0.226421"></polygon><polygon points="411.981131147423,469.1736300433779 423.80823355702375,478.1712429318362 412.61631014664977,489.583955414406 407.16270590284586,479.30268094778216 404.294860155638,474.49767973508193 " stroke="#F63049" stroke-opacity="0.737736" stroke-linecap="round" fill="#F63049" fill-opacity="0.737736"></polygon><polygon points="212.98530724339025,87.39144461188701 208.60849021261654,86.3971180793984 206.21393717953342,75.53807992714472 216.93633709689817,79.65150978042301 225.16196938284222,89.03443894219464 " stroke="#F63049" stroke-opacity="0.574199" stroke-linecap="round" fill="#F63049" fill-opacity="0.574199"></polygon><polygon points="400.1161691925082,335.8201706759878 392.49692391803643,346.7262581047433 381.210254750346,338.5045560840393 385.0311635410708,327.5335771968259 394.553151949166,327.66613530412604 " stroke="#F63049" stroke-opacity="0.516007" stroke-linecap="round" fill="#F63049" fill-opacity="0.516007"></polygon><polygon points="381.55165075930057,131.18644460215577 374.8718624426976,120.49932160074776 388.1175494737292,122.30328172896992 390.35640209323276,131.13747394497398 384.95728494746913,136.93939160885748 " stroke="#F63049" stroke-opacity="0.548876" stroke-linecap="round" fill="#F63049" fill-opacity="0.548876"></polygon><polygon points="118.32286802650476,402.9778713135336 114.41321567803654,403.59061207514833 112.14183576994654,401.26200540606624 113.67580832134912,397.91602262033365 119.27367938933187,397.2537176514563 " stroke="#F63049" stroke-opacity="0.286196" stroke-linecap="round" fill="#F63049" fill-opacity="0.286196"></polygon><polygon points="384.6284525074103,262.71420080751375 388.5078621062007,253.86706887906413 395.34870633949976,252.8735717727254 402.5589406454801,259.10857550295805 393.6713548579766,261.33411102874874 " stroke="#F63049" stroke-opacity="0.532024" stroke-linecap="round" fill="#F63049" fill-opacity="0.532024"></polygon><polygon points="157.24541242927998,281.75875342481805 161.23358803998153,289.5247890156755 150.7906056194204,293.12807795709506 144.63821808698745,283.7758684899626 150.64631416737663,272.77071599024345 " stroke="#F63049" stroke-opacity="0.509227" stroke-linecap="round" fill="#F63049" fill-opacity="0.509227"></polygon><polygon points="191.64556342887582,343.8428034999087 198.1294965080319,344.86713737562906 202.03164336869537,348.16039765382715 201.6726879617265,364.1106183262386 190.04770244547072,352.7201936186382 " stroke="#F63049" stroke-opacity="0.642447" stroke-linecap="round" fill="#F63049" fill-opacity="0.642447"></polygon><polygon points="55.13953971210692,234.64303592579236 60.50335425202151,228.02476585628693 67.66218794096159,229.99317653428122 68.98162087344664,237.64020831908118 61.4919690282645,240.36787539175572 " stroke="#F63049" stroke-opacity="0.576417" stroke-linecap="round" fill="#F63049" fill-opacity="0.576417"></polygon><polygon points="436.4307247593631,363.0781225449703 456.581806653177,362.75975083274517 470.6145236709056,367.36667128349086 464.5733921395858,384.7409356776054 441.7751739783904,387.92925620447994 " stroke="#F63049" stroke-opacity="0.8497" stroke-linecap="round" fill="#F63049" fill-opacity="0.8497"></polygon><polygon points="106.6119656662855,295.9082795003764 96.17578428671352,298.67757251396654 93.21320268321246,289.31263989811714 98.17756455109499,281.5828942296654 110.18132743929198,284.0703144283914 " stroke="#F63049" stroke-opacity="0.585468" stroke-linecap="round" fill="#F63049" fill-opacity="0.585468"></polygon><polygon points="74.76584672941446,390.353023388613 75.02718625703943,372.325239220796 89.09161015959002,368.3776088308069 102.38806296507485,377.1485658124978 91.13842180412115,387.9315292607095 " stroke="#F63049" stroke-opacity="0.655849" stroke-linecap="round" fill="#F63049" fill-opacity="0.655849"></polygon><polygon points="430.2592336888034,405.40339025755225 431.12496709509935,422.83848470244016 419.94934070441906,421.80101298038227 409.4821416506496,422.2083786030342 416.78845341081876,414.4072728360945 " stroke="#F63049" stroke-opacity="0.698943" stroke-linecap="round" fill="#F63049" fill-opacity="0.698943"></polygon><polygon points="225.7930440218299,273.34394920910694 218.00300724994636,276.91077703900737 216.09633589172373,270.50106896462876 215.26001021262192,262.90371201107337 220.33097465436495,268.6317690732369 " stroke="#F63049" stroke-opacity="0.298554" stroke-linecap="round" fill="#F63049" fill-opacity="0.298554"></polygon><polygon points="481.5711413037586,418.26694258482706 476.0585729013631,422.392349071439 474.1784696159707,416.47834283046393 474.8876366613284,411.9632051641713 486.05997141026205,406.74113839160793 " stroke="#F63049" stroke-opacity="0.599003" stroke-linecap="round" fill="#F63049" fill-opacity="0.599003"></polygon><polygon points="194.33326860044824,-0.26329622683421405 183.81326303804016,7.818132632553136 176.62652519255514,16.511169112432583 167.11671435486082,3.622256079396933 180.44745806448012,-3.88816459541553 " stroke="#F63049" stroke-opacity="0.764862" stroke-linecap="round" fill="#F63049" fill-opacity="0.764862"></polygon><polygon points="360.79819271109113,75.79260577928407 355.8305971984569,82.3018269154284 355.65401815658856,74.13753474460535 355.1286375103426,66.65623509759033 363.62842409221787,69.38413196772022 " stroke="#F63049" stroke-opacity="0.37703" stroke-linecap="round" fill="#F63049" fill-opacity="0.37703"></polygon><polygon points="145.5394257614382,437.44462226676734 121.9122854556938,441.69953089965594 114.69101200768617,427.2426564847839 123.54911514496982,422.87052295864885 127.63991410741897,423.5491291505685 " stroke="#F63049" stroke-opacity="0.971976" stroke-linecap="round" fill="#F63049" fill-opacity="0.971976"></polygon><polygon points="114.24860484001992,124.94506557515604 107.01308491462254,112.58331736694953 119.21311179495946,102.18616421947203 130.172440063361,112.04205711171427 122.32206289625648,118.84102450342627 " stroke="#F63049" stroke-opacity="0.646921" stroke-linecap="round" fill="#F63049" fill-opacity="0.646921"></polygon><polygon points="257.5259566952962,186.40779770142288 257.02675882927844,201.00737882835722 247.6668628408008,189.56893499847095 244.07263300857105,176.87218671167753 260.09126225923694,172.69386260048523 " stroke="#F63049" stroke-opacity="0.749421" stroke-linecap="round" fill="#F63049" fill-opacity="0.749421"></polygon><polygon points="448.6677526997778,87.72953092518354 449.557471736397,90.84574394814597 446.9816730618593,93.51410320977963 430.9637233863831,95.11819590248601 439.9240633140312,80.15322393972247 " stroke="#F63049" stroke-opacity="0.661052" stroke-linecap="round" fill="#F63049" fill-opacity="0.661052"></polygon><polygon points="498.4564363488735,83.42407340452972 492.0334938727746,86.29865639784383 491.7791694807426,77.44227242458561 499.55581791044335,77.27589775281322 502.7888824187056,82.01910568759058 " stroke="#F63049" stroke-opacity="0.352659" stroke-linecap="round" fill="#F63049" fill-opacity="0.352659"></polygon><polygon points="341.16923244378734,125.43458571443347 349.5514176146803,132.3095620610716 338.54801899337383,134.13020908563828 329.36465722599115,130.3636727302171 335.9884567269125,123.1396975046217 " stroke="#F63049" stroke-opacity="0.440796" stroke-linecap="round" fill="#F63049" fill-opacity="0.440796"></polygon><polygon points="140.11688199146553,424.9505429140311 132.1344056590171,428.0331026969473 129.14044245711943,421.26691901530995 131.42879057285433,414.35172753726187 136.52294037328414,418.94644993386964 " stroke="#F63049" stroke-opacity="0.31886" stroke-linecap="round" fill="#F63049" fill-opacity="0.31886"></polygon><polygon points="32.00448974643933,206.5512173477094 33.09204692099518,206.1617115916904 33.60617788245909,206.8740932723373 34.12278509396643,208.9657539101931 32.09848373647084,207.99192942795779 " stroke="#F63049" stroke-opacity="0.116027" stroke-linecap="round" fill="#F63049" fill-opacity="0.116027"></polygon><polygon points="439.3120445324423,37.53706963253468 437.72549584052837,40.92775842607964 434.3564081007657,41.82749728296683 431.5006935843607,38.02976764064963 435.8156703886319,37.1950390077748 " stroke="#F63049" stroke-opacity="0.203303" stroke-linecap="round" fill="#F63049" fill-opacity="0.203303"></polygon><polygon points="209.29659067857543,218.69526828723704 214.0613514963848,215.74556967137832 213.42999346286126,221.64852748026655 209.6591023759826,222.53133962548551 207.2672297488569,220.49811050069036 " stroke="#F63049" stroke-opacity="0.238386" stroke-linecap="round" fill="#F63049" fill-opacity="0.238386"></polygon><polygon points="72.63064746447952,432.9535940319201 78.9211442166914,418.6901961103259 92.42661849132054,420.6325209337784 93.95158622391224,431.8198598766577 85.83211448143527,435.3021603503006 " stroke="#F63049" stroke-opacity="0.71005" stroke-linecap="round" fill="#F63049" fill-opacity="0.71005"></polygon><polygon points="132.1842290378005,119.46449534203876 133.79576805555905,112.11178212345803 138.54104891309925,113.17207146606191 149.5774846357401,114.69445433605073 139.88337503382422,120.31501890478319 " stroke="#F63049" stroke-opacity="0.454252" stroke-linecap="round" fill="#F63049" fill-opacity="0.454252"></polygon><polygon points="324.73560754723303,280.88678128955013 339.54149570764383,281.8804305942639 332.93118351674286,293.3748622099497 324.1072614414426,311.9647168107338 318.5858577629871,291.88611697942116 " stroke="#F63049" stroke-opacity="0.799837" stroke-linecap="round" fill="#F63049" fill-opacity="0.799837"></polygon><polygon points="38.441771418817794,149.32440725809798 47.997214897890224,145.34798132620475 53.76672586526439,157.53647136137948 42.04685330410086,156.1102223021896 30.59834858961102,157.9865318156749 " stroke="#F63049" stroke-opacity="0.641376" stroke-linecap="round" fill="#F63049" fill-opacity="0.641376"></polygon><polygon points="399.94164791839125,454.4217660868609 409.90155284571176,455.445206906118 412.82631189638977,455.8796687381301 414.6522278522371,462.6189742438619 405.3487967486667,464.33564372931926 " stroke="#F63049" stroke-opacity="0.50822" stroke-linecap="round" fill="#F63049" fill-opacity="0.50822"></polygon><polygon points="444.0285251241875,467.99837632557285 443.99541875102045,464.07630398763433 444.6074428809675,463.04491852615877 445.8773608712189,463.2547948277853 449.4783617181373,466.76118498601824 " stroke="#F63049" stroke-opacity="0.254884" stroke-linecap="round" fill="#F63049" fill-opacity="0.254884"></polygon><polygon points="369.5449248300397,138.34553886633802 363.2251326512556,123.78253264730539 367.94791907200624,116.90296019640463 378.1589409101711,113.78980515455805 379.75546778558385,125.73218380506466 " stroke="#F63049" stroke-opacity="0.806344" stroke-linecap="round" fill="#F63049" fill-opacity="0.806344"></polygon><polygon points="349.77403397500143,270.2439318850007 357.9946727710841,258.46132586512357 364.712509790593,267.94534221580784 366.09208634817315,272.85011455667615 358.969108380299,280.0028291041494 " stroke="#F63049" stroke-opacity="0.463704" stroke-linecap="round" fill="#F63049" fill-opacity="0.463704"></polygon><polygon points="275.8730763050607,12.68418874491548 275.4440727905573,9.026944724753376 276.18687034899364,6.637444380642525 277.4016935797513,8.697388796399842 278.9953483519343,10.397567028354967 " stroke="#F63049" stroke-opacity="0.165384" stroke-linecap="round" fill="#F63049" fill-opacity="0.165384"></polygon><polygon points="40.86709278590875,304.6190559492145 40.375823195069344,306.98181929010303 37.93233500233766,309.38361978144025 31.07539092209913,306.0674234359753 36.229096097334626,297.7126171540983 " stroke="#F63049" stroke-opacity="0.33113" stroke-linecap="round" fill="#F63049" fill-opacity="0.33113"></polygon><polygon points="435.6497418675683,176.61997670161225 432.2053781516529,185.2337599162575 427.8689316174001,177.9248070280577 421.10102417919194,171.92326389737485 431.5042148441938,167.47427190074436 " stroke="#F63049" stroke-opacity="0.371492" stroke-linecap="round" fill="#F63049" fill-opacity="0.371492"></polygon><polygon points="361.1986441048474,217.13217087312998 353.156093639423,225.3414793226053 350.36347774172555,213.916276085947 354.52053340403285,206.02818544387137 372.72391473711707,202.87623248043232 " stroke="#F63049" stroke-opacity="0.719365" stroke-linecap="round" fill="#F63049" fill-opacity="0.719365"></polygon><polygon points="253.32671373193654,261.2092525629503 243.15514811030496,258.7006437357402 251.53378958650865,252.141419004813 260.2807286332883,250.73846928844424 262.95120347509265,261.5781377480565 " stroke="#F63049" stroke-opacity="0.4732" stroke-linecap="round" fill="#F63049" fill-opacity="0.4732"></polygon><polygon points="240.958971543142,79.57715230178174 218.24913158372627,70.82383382365397 235.59161254872242,52.322658202448125 246.44649761059304,63.57958687435601 264.62578270122805,78.12256123744484 " stroke="#F63049" stroke-opacity="0.984603" stroke-linecap="round" fill="#F63049" fill-opacity="0.984603"></polygon><polygon points="467.4253644108835,207.04180136393882 464.93754508027234,209.23849614963692 464.5190846531182,205.9957834555144 464.3894464989917,200.99477984466418 469.0504637414403,203.7969511536071 " stroke="#F63049" stroke-opacity="0.252403" stroke-linecap="round" fill="#F63049" fill-opacity="0.252403"></polygon><polygon points="402.50724075465774,319.66942929891144 392.58897686557054,319.9367324156808 394.7019695160804,312.40774173526574 396.4120923085474,303.51811876632956 402.0933952187043,310.9887291532249 " stroke="#F63049" stroke-opacity="0.383141" stroke-linecap="round" fill="#F63049" fill-opacity="0.383141"></polygon><polygon points="138.16948048379524,164.2914765489257 128.43043169370037,158.62014014305035 122.59210790534928,144.6897603741784 138.32239313461804,144.2864943896389 143.28091487088687,154.1275808605351 " stroke="#F63049" stroke-opacity="0.69652" stroke-linecap="round" fill="#F63049" fill-opacity="0.69652"></polygon><polygon points="356.3356612015527,471.31549503209993 350.0349749163633,471.167098222801 349.26272074911793,464.7326581324566 354.6203826486274,462.33589647137933 356.9671824696572,466.4541654580906 " stroke="#F63049" stroke-opacity="0.214832" stroke-linecap="round" fill="#F63049" fill-opacity="0.214832"></polygon><polygon points="136.1154143369701,-17.816639770336288 143.05957684023616,3.489834311502432 138.14525030737124,17.72591724032231 121.91867550307902,14.659387520007149 121.51685490575409,-0.6267742121730038 " stroke="#F63049" stroke-opacity="0.981967" stroke-linecap="round" fill="#F63049" fill-opacity="0.981967"></polygon><polygon points="366.95059798012994,412.21082431073927 364.0752573624101,413.8680879388679 362.8332211247731,410.10000247987216 365.9015460072289,408.3589052928971 367.02036074425706,410.62589673511434 " stroke="#F63049" stroke-opacity="0.154534" stroke-linecap="round" fill="#F63049" fill-opacity="0.154534"></polygon><polygon points="377.70909735305924,505.0510544241525 376.52464184982,495.4326041635471 374.1135227646715,489.311637390654 384.74884081086066,486.25472216524594 380.931589186437,496.0472266969695 " stroke="#F63049" stroke-opacity="0.409478" stroke-linecap="round" fill="#F63049" fill-opacity="0.409478"></polygon><polygon points="302.163136101449,448.43614968698347 300.8610180487906,446.53636580793943 302.8057736419115,445.0778890629328 307.28074555276635,445.1146372628958 304.8151649292049,449.0322874279488 " stroke="#F63049" stroke-opacity="0.250316" stroke-linecap="round" fill="#F63049" fill-opacity="0.250316"></polygon><polygon points="243.28570247301363,14.514830352038112 244.1999851613964,14.31099025337986 245.46592883163623,14.953556829713635 244.65547410500855,16.819192472978884 243.23704735076726,15.59211867475553 " stroke="#F63049" stroke-opacity="0.124499" stroke-linecap="round" fill="#F63049" fill-opacity="0.124499"></polygon><polygon points="500.5856492405098,90.74865164188226 497.9319494714179,90.8650146644633 497.1636584922527,88.61640962436731 498.79425710734375,87.1064850246661 500.160497689588,88.47842156018815 " stroke="#F63049" stroke-opacity="0.112143" stroke-linecap="round" fill="#F63049" fill-opacity="0.112143"></polygon><polygon points="256.3058021593165,60.92062097803481 252.8552154462493,55.17766945086248 253.59834954420862,50.98396395313593 257.537210567865,51.674876158758124 257.95696750642674,54.54160855808651 " stroke="#F63049" stroke-opacity="0.355181" stroke-linecap="round" fill="#F63049" fill-opacity="0.355181"></polygon><polygon points="159.9154650180133,-0.6394884372437194 157.37542412954264,2.667592077971901 151.698099511503,4.3435261738619175 145.20196015197098,-5.436548914185272 157.1347976477335,-7.39509940939024 " stroke="#F63049" stroke-opacity="0.479371" stroke-linecap="round" fill="#F63049" fill-opacity="0.479371"></polygon><polygon points="315.9739218662915,332.2354641748223 306.9818367040076,348.68589755694205 291.7179311601884,352.9136861672773 294.08834967349156,339.0079612131531 297.97139670587865,331.08443423204056 " stroke="#F63049" stroke-opacity="0.839466" stroke-linecap="round" fill="#F63049" fill-opacity="0.839466"></polygon><polygon points="187.07831363176058,223.9942876641854 190.60175674902777,219.67959397236282 202.18221120336412,216.62023152882833 197.36318105983057,227.90609773118015 190.63613711896267,228.18102034598377 " stroke="#F63049" stroke-opacity="0.516162" stroke-linecap="round" fill="#F63049" fill-opacity="0.516162"></polygon><polygon points="103.99151727160742,19.58777763411446 119.18180129598896,5.91812147504746 124.53933981828928,22.29460191924773 132.46419616028317,39.618745699414795 109.78551973305015,39.485688761983056 " stroke="#F63049" stroke-opacity="0.942331" stroke-linecap="round" fill="#F63049" fill-opacity="0.942331"></polygon><polygon points="28.16326256795558,411.9313636617462 28.38786133549695,413.78290474008685 26.4922822181269,415.511726009946 25.54780534228283,413.16731256034416 26.427494124907568,411.7479383173718 " stroke="#F63049" stroke-opacity="0.101074" stroke-linecap="round" fill="#F63049" fill-opacity="0.101074"></polygon><polygon points="397.9121157288575,200.7944463435548 404.62691963444274,200.55101465312575 402.85896270270814,209.15652328748712 396.67286745146237,204.98858610169103 384.88207403569953,199.30823230851703 " stroke="#F63049" stroke-opacity="0.541959" stroke-linecap="round" fill="#F63049" fill-opacity="0.541959"></polygon><polygon points="349.33758171550073,411.45041173200326 355.4581168181914,414.47720755630513 351.52394075890106,418.64531344543576 347.06032785468824,422.2613943995821 344.0332960454507,415.81929882278155 " stroke="#F63049" stroke-opacity="0.358562" stroke-linecap="round" fill="#F63049" fill-opacity="0.358562"></polygon><polygon points="395.4288530414581,270.9197609378739 396.6914503575469,269.85459039554434 397.9472471435163,270.3830526386219 397.98878854547365,271.7985237942493 396.1798799271961,273.14503321621385 " stroke="#F63049" stroke-opacity="0.103748" stroke-linecap="round" fill="#F63049" fill-opacity="0.103748"></polygon><polygon points="336.5953764946594,183.28323030501846 336.54173426620247,180.41203054112643 340.94321405194427,179.79924129519677 341.5919036249088,184.64447653414086 337.4880814104079,187.42460911913807 " stroke="#F63049" stroke-opacity="0.198944" stroke-linecap="round" fill="#F63049" fill-opacity="0.198944"></polygon><polygon points="87.77920566681226,319.41829633361925 97.89368090240313,317.8231471930852 95.01241070916005,330.09871898098845 82.56428836388321,331.0066865780479 76.8640913864821,319.4061744781445 " stroke="#F63049" stroke-opacity="0.578504" stroke-linecap="round" fill="#F63049" fill-opacity="0.578504"></polygon><polygon points="237.85291305299833,165.58296410274713 227.58037782019647,157.0307620506991 240.90583618731196,157.45814299487077 251.76211339792835,157.18409282076857 243.73409696671754,164.56019647385003 " stroke="#F63049" stroke-opacity="0.811764" stroke-linecap="round" fill="#F63049" fill-opacity="0.811764"></polygon><polygon points="422.12201885560023,294.4670694625141 420.05274610553784,312.07274507717335 403.425752032051,304.4588190984845 395.5739417802612,287.4898048938819 415.42859816150036,275.26317864851 " stroke="#F63049" stroke-opacity="0.962201" stroke-linecap="round" fill="#F63049" fill-opacity="0.962201"></polygon><polygon points="476.2430832775244,284.46574667930804 481.84457506538837,294.260757791086 482.2060338436811,298.7437684654848 476.17384860157506,302.8036555644637 472.39832642465626,295.4737850169273 " stroke="#F63049" stroke-opacity="0.748612" stroke-linecap="round" fill="#F63049" fill-opacity="0.748612"></polygon><polygon points="160.7446334684561,51.965829919291565 161.25177241403352,46.16267027770689 166.51886074183352,44.61996331039221 171.60119261512526,49.12962593789531 165.29868755736996,49.984638323746566 " stroke="#F63049" stroke-opacity="0.33937" stroke-linecap="round" fill="#F63049" fill-opacity="0.33937"></polygon><polygon points="330.2303267258626,95.99388509239955 333.66931678844554,88.80094233390795 338.5024571220938,94.18590755061743 347.6518170300893,104.48442275718546 334.49543820152036,100.61392061870885 " stroke="#F63049" stroke-opacity="0.802344" stroke-linecap="round" fill="#F63049" fill-opacity="0.802344"></polygon><polygon points="192.98226614019666,381.31679309251035 192.67222990431546,379.1240258237652 195.30420870778542,379.2509097693232 196.04493486839337,381.6925718368883 193.9923174737611,381.6198965472163 " stroke="#F63049" stroke-opacity="0.1821" stroke-linecap="round" fill="#F63049" fill-opacity="0.1821"></polygon><polygon points="251.86206022728783,5.313350400746807 256.30171879528746,9.162289855079152 256.6029364561279,12.716050666899424 252.7463237160478,15.552727239994187 247.78302150958885,11.282761245440394 " stroke="#F63049" stroke-opacity="0.263065" stroke-linecap="round" fill="#F63049" fill-opacity="0.263065"></polygon><polygon points="251.2510543306099,110.84150056537672 245.6007653824889,104.47331884460223 249.2978982266482,94.67815963050649 257.41001636713906,100.3439128585366 261.07068252514676,109.1099347025839 " stroke="#F63049" stroke-opacity="0.485375" stroke-linecap="round" fill="#F63049" fill-opacity="0.485375"></polygon><polygon points="291.9015941435746,415.82891883350766 303.45261180694797,397.60156747388174 319.57320664694663,407.3516931084223 331.46511684593264,429.14162538682655 303.06099679934357,440.2303324559671 " stroke="#F63049" stroke-opacity="0.975079" stroke-linecap="round" fill="#F63049" fill-opacity="0.975079"></polygon><polygon points="359.77716422663786,356.79741211128663 360.80549226108985,365.91980823024716 359.45479223188727,373.0463539743081 346.8811984799846,373.682591275656 351.4292938307824,362.1292956833502 " stroke="#F63049" stroke-opacity="0.58251" stroke-linecap="round" fill="#F63049" fill-opacity="0.58251"></polygon><polygon points="197.50293977720457,200.81824007415383 201.03465550343768,199.04372323486353 201.940637512153,201.70651301504083 202.45462696916726,204.0522878402783 199.22719306042418,204.38086240213656 " stroke="#F63049" stroke-opacity="0.181133" stroke-linecap="round" fill="#F63049" fill-opacity="0.181133"></polygon><polygon points="370.48649288583744,454.87619656426455 353.195273313973,454.6232000292655 348.05736330697914,451.8399771829505 343.1301716814436,437.55567865666626 363.01585127591505,434.91430713822683 " stroke="#F63049" stroke-opacity="0.717441" stroke-linecap="round" fill="#F63049" fill-opacity="0.717441"></polygon><polygon points="110.92407469414769,146.17814309153675 114.49519291782026,154.14651370446634 107.20346417958416,157.77140135073674 104.41505967312968,152.94181533955864 105.99637234676068,150.71629569014465 " stroke="#F63049" stroke-opacity="0.293311" stroke-linecap="round" fill="#F63049" fill-opacity="0.293311"></polygon><polygon points="109.19554069460254,295.4674592912392 111.01899802247246,292.3266069716265 112.35257599062825,295.89744874568777 110.36654698613515,296.98058298133765 108.95307583506602,296.8326418437671 " stroke="#F63049" stroke-opacity="0.152772" stroke-linecap="round" fill="#F63049" fill-opacity="0.152772"></polygon><polygon points="223.94653189202938,324.22146787763785 217.84322980976276,313.938644035914 216.80665785332823,308.4255068539766 223.0849474621083,306.9527864707358 224.9613115039962,312.3079342068327 " stroke="#F63049" stroke-opacity="0.537069" stroke-linecap="round" fill="#F63049" fill-opacity="0.537069"></polygon><polygon points="174.70095991719117,294.9006402790919 169.76713100965557,300.62637039027175 161.93170898641608,294.40661442671933 166.35202828531084,283.8053931743912 178.8395137824174,285.2103822323632 " stroke="#F63049" stroke-opacity="0.433329" stroke-linecap="round" fill="#F63049" fill-opacity="0.433329"></polygon><polygon points="424.5208221596622,114.76930032296816 412.80126790184704,106.71073215277922 419.0431239356014,97.7257546828263 425.82853461428687,96.94060726891983 435.6346682896556,104.5035817331602 " stroke="#F63049" stroke-opacity="0.534702" stroke-linecap="round" fill="#F63049" fill-opacity="0.534702"></polygon><polygon points="231.73065167520306,285.3342127363133 230.73488560095333,290.0308581695506 221.48837167028006,298.30644379268165 215.82102057111786,284.4249200893624 225.39557739411322,262.4735114274101 " stroke="#F63049" stroke-opacity="0.97088" stroke-linecap="round" fill="#F63049" fill-opacity="0.97088"></polygon><polygon points="166.79376775405362,382.0538968623786 160.0600343857638,378.0735446362917 160.247086438963,373.6734850868385 163.29434717569126,372.8308000274883 170.77585083284268,373.5907419784787 " stroke="#F63049" stroke-opacity="0.374622" stroke-linecap="round" fill="#F63049" fill-opacity="0.374622"></polygon><polygon points="249.94818744923472,52.802977293666544 252.5950173577184,63.143531978489065 253.6012119232537,68.9087152957573 242.46602402732924,74.47118164203545 235.64603583993508,59.40943714240406 " stroke="#F63049" stroke-opacity="0.754572" stroke-linecap="round" fill="#F63049" fill-opacity="0.754572"></polygon><polygon points="67.7145299649715,492.63938795801306 67.68002531848573,494.9862358736403 67.21834290737392,495.6284238261101 66.72430370315307,495.20895821441115 64.87044302041011,493.517688195834 " stroke="#F63049" stroke-opacity="0.102805" stroke-linecap="round" fill="#F63049" fill-opacity="0.102805"></polygon><polygon points="280.7805592747053,51.560012257468834 288.252022871373,61.509242425034415 280.9266407161978,66.7563703245502 271.1468546402162,70.89527295585994 270.63385177985714,58.76538609621886 " stroke="#F63049" stroke-opacity="0.438908" stroke-linecap="round" fill="#F63049" fill-opacity="0.438908"></polygon><polygon points="465.8866210306164,356.2309011023342 465.31758913620007,361.3412138173315 459.1822697768763,358.28027230088196 464.19620686916164,355.0215439520858 468.78080636001386,350.08747978210556 " stroke="#F63049" stroke-opacity="0.268544" stroke-linecap="round" fill="#F63049" fill-opacity="0.268544"></polygon><polygon points="227.47675552625194,105.6039814911469 217.63959932567474,120.10481337869606 209.55802228421103,129.17148903222073 210.4369992046068,117.09889140569575 209.61781520759655,107.81225020340017 " stroke="#F63049" stroke-opacity="0.736379" stroke-linecap="round" fill="#F63049" fill-opacity="0.736379"></polygon><polygon points="338.8611985612958,285.42420544693255 358.6142612663974,270.7985779336014 366.07889289845485,261.9572057657406 375.95912342440687,274.75703811886603 364.03071591860146,288.1659243426269 " stroke="#F63049" stroke-opacity="0.972499" stroke-linecap="round" fill="#F63049" fill-opacity="0.972499"></polygon><polygon points="46.60106438939102,88.56624178663574 35.94202303926305,107.13381634882468 16.93964968074265,111.35590440477056 8.90356918435722,91.07291914759071 26.487093907096067,85.39670364472441 " stroke="#F63049" stroke-opacity="0.88328" stroke-linecap="round" fill="#F63049" fill-opacity="0.88328"></polygon><polygon points="494.13100847922516,250.37615001617658 505.1442283566615,258.05322084467934 492.738062753258,260.8158197480232 482.5710236153526,266.94553448561874 489.8820341080349,257.68270280760703 " stroke="#F63049" stroke-opacity="0.648913" stroke-linecap="round" fill="#F63049" fill-opacity="0.648913"></polygon><polygon points="243.20243531753007,175.09408938132512 242.32601386959738,181.0567708868338 241.66997139236827,183.40792485869 238.41491413886285,182.7141784798207 235.92680709587236,176.9716043345265 " stroke="#F63049" stroke-opacity="0.2803" stroke-linecap="round" fill="#F63049" fill-opacity="0.2803"></polygon><polygon points="293.24644409125756,122.43037314506687 288.8909480774015,127.4096771416195 281.35942833328863,127.93977607535533 284.750434066628,121.65954907396079 287.95551718252455,118.79069977456734 " stroke="#F63049" stroke-opacity="0.342572" stroke-linecap="round" fill="#F63049" fill-opacity="0.342572"></polygon><polygon points="469.26461356807175,294.0372110347639 470.96804333348365,284.76768791283644 476.90616691218526,290.8049279450542 485.1315174226578,295.17480842671245 475.8803976073824,297.84955022834 " stroke="#F63049" stroke-opacity="0.45384" stroke-linecap="round" fill="#F63049" fill-opacity="0.45384"></polygon><polygon points="434.19286177355417,140.9511554085518 438.258637298647,134.0104886207428 442.2215623931375,132.2336688349296 442.4480391322968,135.9992373157106 442.5804538158278,140.8554335064887 " stroke="#F63049" stroke-opacity="0.458805" stroke-linecap="round" fill="#F63049" fill-opacity="0.458805"></polygon><polygon points="331.7394163558061,479.1400891644639 332.7774812135004,473.0429820275018 337.8200130304922,476.76005945586945 338.13888620341214,481.080723014861 333.3012457916716,485.1090148014593 " stroke="#F63049" stroke-opacity="0.252121" stroke-linecap="round" fill="#F63049" fill-opacity="0.252121"></polygon><polygon points="108.12101637916996,373.1863412064455 108.19282357325636,381.7248064101164 105.06367645801531,388.38843334994624 95.2167594785199,385.320424746312 97.23534563438392,374.04188345856136 " stroke="#F63049" stroke-opacity="0.418659" stroke-linecap="round" fill="#F63049" fill-opacity="0.418659"></polygon><polygon points="474.15925984175135,96.60001162634893 478.2470446768013,91.02093110408195 482.571048493274,96.69163022215777 480.3906554868842,101.54793870714055 472.73473644275975,104.73261380541999 " stroke="#F63049" stroke-opacity="0.318915" stroke-linecap="round" fill="#F63049" fill-opacity="0.318915"></polygon><polygon points="228.79208743469277,370.58367899196526 231.01995824166994,373.2181466002705 233.93964129050582,376.71046337819 228.80244360147583,378.0356718022791 227.37426441771234,374.0674790153463 " stroke="#F63049" stroke-opacity="0.192564" stroke-linecap="round" fill="#F63049" fill-opacity="0.192564"></polygon><polygon points="21.38586308578576,249.326734250389 1.3518080368599286,244.2781203905886 4.848228297851767,219.13494825290968 28.031561579619996,222.12423100108538 40.92230025086729,240.4712540728776 " stroke="#F63049" stroke-opacity="0.917426" stroke-linecap="round" fill="#F63049" fill-opacity="0.917426"></polygon><polygon points="42.09260277337812,111.9728592317557 50.94343907101542,122.66673442315549 44.610481685657874,130.96026361279962 35.917295049268375,130.88956540075597 38.76911186396203,124.06248445956798 " stroke="#F63049" stroke-opacity="0.616035" stroke-linecap="round" fill="#F63049" fill-opacity="0.616035"></polygon><polygon points="411.00980782053745,123.21554270063034 408.5177695064358,126.68623544388332 404.7502839867162,128.89507916473246 402.2836212976167,123.9966570917308 406.8464803973303,123.53694426631242 " stroke="#F63049" stroke-opacity="0.279586" stroke-linecap="round" fill="#F63049" fill-opacity="0.279586"></polygon><polygon points="472.0495433350175,374.98594494618914 473.3016453884145,394.32468133833623 457.1886117505993,384.3147107644548 447.6439437665731,372.97117921650243 462.0692907753408,374.95828540134056 " stroke="#F63049" stroke-opacity="0.965305" stroke-linecap="round" fill="#F63049" fill-opacity="0.965305"></polygon><polygon points="284.9099002549131,421.98186472662945 293.6611842249035,420.75201623981303 287.96496171768484,427.71996224016675 277.9710227685996,434.64232240017185 282.03872368725683,423.1818967721989 " stroke="#F63049" stroke-opacity="0.490535" stroke-linecap="round" fill="#F63049" fill-opacity="0.490535"></polygon><polygon points="461.20560318172977,488.6623296205817 464.25610878997463,481.42546460524835 475.6811985315166,469.02134918644504 482.6121738202794,486.96898377472667 469.32948921049154,492.29713857439776 " stroke="#F63049" stroke-opacity="0.945727" stroke-linecap="round" fill="#F63049" fill-opacity="0.945727"></polygon><polygon points="299.90636553603264,199.71368770155834 297.0862135326392,199.9731000853513 295.96450753943714,196.5112363610121 299.38757741116535,195.2854812862551 301.8237658367373,197.50848098864773 " stroke="#F63049" stroke-opacity="0.130354" stroke-linecap="round" fill="#F63049" fill-opacity="0.130354"></polygon><polygon points="462.7175355764271,339.5140636836984 449.3572883917859,333.20715317189075 448.37756269810683,316.6273206470017 462.796768892592,320.64324597377765 474.1702429108004,328.4263594034354 " stroke="#F63049" stroke-opacity="0.583165" stroke-linecap="round" fill="#F63049" fill-opacity="0.583165"></polygon><polygon points="263.22312788245625,88.89601347197737 267.83458697018915,87.97531107061708 267.4246893985994,93.28691515833168 262.5869742843843,96.01559559514227 262.85046570397077,91.04548824583146 " stroke="#F63049" stroke-opacity="0.243028" stroke-linecap="round" fill="#F63049" fill-opacity="0.243028"></polygon><polygon points="378.84024916667676,452.73678329362025 366.97940212889904,453.14442802551406 376.81276344411043,446.58770426070635 386.3826096167312,440.9932631093257 389.1812600647998,453.9778340301432 " stroke="#F63049" stroke-opacity="0.656224" stroke-linecap="round" fill="#F63049" fill-opacity="0.656224"></polygon><polygon points="259.7769685812454,314.5467146334838 262.8193242700358,322.0467565102464 256.19203387784876,328.5056318660543 247.354603439707,323.0264504323225 254.12848984776704,317.54270123666134 " stroke="#F63049" stroke-opacity="0.352511" stroke-linecap="round" fill="#F63049" fill-opacity="0.352511"></polygon><polygon points="152.04699451003643,48.673899216096046 156.0142582667936,59.47629661971414 152.7698004243697,77.31305756985616 132.84220188574278,68.69338626579203 134.28937215723212,47.737500961036666 " stroke="#F63049" stroke-opacity="0.932131" stroke-linecap="round" fill="#F63049" fill-opacity="0.932131"></polygon><polygon points="371.3734143060895,475.2442174852289 387.3172219985568,470.9394039960102 389.2206516389287,481.361794263708 389.7641369148127,488.7327701999292 375.5637415127795,493.27350857267265 " stroke="#F63049" stroke-opacity="0.725518" stroke-linecap="round" fill="#F63049" fill-opacity="0.725518"></polygon><polygon points="25.35395016028609,286.3571705506429 26.62019866871227,281.99924544375904 31.555126807242768,281.1517780799213 36.303669160640695,287.0369133382711 29.323964137110202,292.675769525358 " stroke="#F63049" stroke-opacity="0.307761" stroke-linecap="round" fill="#F63049" fill-opacity="0.307761"></polygon><polygon points="374.9390118718027,141.82011727084625 377.10291323857604,136.3104712040142 382.00123522184504,134.6832412370394 383.9557082503355,139.47675190990537 380.3437441360293,140.74760338378772 " stroke="#F63049" stroke-opacity="0.246273" stroke-linecap="round" fill="#F63049" fill-opacity="0.246273"></polygon><polygon points="319.46226640180197,405.55274184787027 317.8173757596895,412.95166970206077 312.5681700115133,419.96042023244866 311.37792357068923,411.41159922993654 310.5058859878598,404.1190298870219 " stroke="#F63049" stroke-opacity="0.368423" stroke-linecap="round" fill="#F63049" fill-opacity="0.368423"></polygon><polygon points="449.2787337051,136.13464327144243 445.45673598665496,137.2900245181899 443.74046070992745,133.59226737612943 445.6736247372024,127.09273008872199 453.344033743211,130.50224360287734 " stroke="#F63049" stroke-opacity="0.345891" stroke-linecap="round" fill="#F63049" fill-opacity="0.345891"></polygon><polygon points="337.40963125103565,228.7468708142388 345.4769849329161,218.10771824428423 352.8372477562291,232.12696963743602 342.1137715646807,240.16821816748262 336.44713460238745,233.13333574727415 " stroke="#F63049" stroke-opacity="0.608152" stroke-linecap="round" fill="#F63049" fill-opacity="0.608152"></polygon><polygon points="420.6705507923937,449.77242657834677 424.98340364069446,461.85838306283 421.8150369267884,468.12009965302934 416.85007089526914,465.2896059537737 414.6896162848189,460.9718755631429 " stroke="#F63049" stroke-opacity="0.585133" stroke-linecap="round" fill="#F63049" fill-opacity="0.585133"></polygon><polygon points="63.328516182070565,50.50496691677173 66.4210540518737,43.95022850313174 73.82629684228816,45.791536002433716 75.10635300992884,53.65631738058219 67.7199662844,55.583536544456116 " stroke="#F63049" stroke-opacity="0.27985" stroke-linecap="round" fill="#F63049" fill-opacity="0.27985"></polygon><polygon points="230.2783188551955,408.88472030844207 221.9246747041836,411.72997560694597 213.78829124381556,414.37776110752225 203.99277202178297,396.9634880004174 222.65063411568565,403.6965634843974 " stroke="#F63049" stroke-opacity="0.805037" stroke-linecap="round" fill="#F63049" fill-opacity="0.805037"></polygon><polygon points="227.18112284382923,249.4536294934141 228.21886415229326,253.39613637393356 224.44546064475435,252.64169710750693 218.89855721568662,250.92927066350887 224.3996399100029,249.07670427758887 " stroke="#F63049" stroke-opacity="0.228601" stroke-linecap="round" fill="#F63049" fill-opacity="0.228601"></polygon><polygon points="281.231834393585,438.5841023767265 281.7728474355414,444.09509478141075 272.9124720061432,445.42745723780945 273.21702890393357,436.24858337881807 279.9319021527154,431.8677624872876 " stroke="#F63049" stroke-opacity="0.391059" stroke-linecap="round" fill="#F63049" fill-opacity="0.391059"></polygon><polygon points="486.2318350109547,96.89098734102814 497.0954206339351,92.33149514797665 506.1319715223841,100.87482882828101 500.3320881366671,114.10570650338404 489.91540817652685,106.54161769555566 " stroke="#F63049" stroke-opacity="0.970807" stroke-linecap="round" fill="#F63049" fill-opacity="0.970807"></polygon><polygon points="278.93079197400425,220.317655646012 275.593714706611,225.86908716674276 270.00562190010476,225.81018981005752 270.941234727658,221.24401713064555 273.10608568456,219.1916691728237 " stroke="#F63049" stroke-opacity="0.298573" stroke-linecap="round" fill="#F63049" fill-opacity="0.298573"></polygon><polygon points="466.55803386931336,194.90499646148086 470.03078554691433,194.52696327722805 480.2998268532248,197.91449122101793 470.6964334804866,204.1357108015199 463.63805272281735,200.2694993400483 " stroke="#F63049" stroke-opacity="0.433629" stroke-linecap="round" fill="#F63049" fill-opacity="0.433629"></polygon><polygon points="24.482939006049026,380.34244223850396 20.152828551823614,373.27306264511134 13.954343069943903,365.84294266171054 25.445654291323933,362.22944596465675 26.978091597910776,372.12388361760503 " stroke="#F63049" stroke-opacity="0.558092" stroke-linecap="round" fill="#F63049" fill-opacity="0.558092"></polygon><polygon points="298.450673843484,206.56376007079456 291.88126692249,208.61148225521998 271.6243544158508,201.95062967095998 292.7950882040606,198.60008523821764 307.1359410892741,194.3664031054623 " stroke="#F63049" stroke-opacity="0.910253" stroke-linecap="round" fill="#F63049" fill-opacity="0.910253"></polygon><polygon points="366.41551295031155,117.36551254712536 352.48103489975426,115.00466261019018 335.23887602448707,114.32909483472186 349.0329155459744,103.72873811259355 355.77284093784755,108.06614400732705 " stroke="#F63049" stroke-opacity="0.702094" stroke-linecap="round" fill="#F63049" fill-opacity="0.702094"></polygon><polygon points="272.44165469921523,456.1801254361968 262.1886394586046,463.1829393412229 255.86226958228787,455.1207363021117 258.89614916767937,448.89020451169984 268.56737887039543,443.59942588842637 " stroke="#F63049" stroke-opacity="0.598208" stroke-linecap="round" fill="#F63049" fill-opacity="0.598208"></polygon><polygon points="31.10973125575148,136.21995816073016 33.47994558610581,133.5510885595127 34.401783754353936,137.2196115955667 32.21365309359308,137.94225625261325 28.822666075511858,138.89223623665177 " stroke="#F63049" stroke-opacity="0.141263" stroke-linecap="round" fill="#F63049" fill-opacity="0.141263"></polygon><polygon points="263.4034250877994,181.6354386945945 272.3304288891968,190.5686281063964 276.0381769751917,199.3420045274386 265.59257303594893,202.61826341700788 264.0552720670913,194.16483773708725 " stroke="#F63049" stroke-opacity="0.689863" stroke-linecap="round" fill="#F63049" fill-opacity="0.689863"></polygon><polygon points="17.2425422745471,90.82761324306577 14.23040311241829,85.70507710406642 15.049019915469117,79.58625265134911 19.08848900567463,83.84918192607547 22.002698393308105,86.90110345907343 " stroke="#F63049" stroke-opacity="0.246207" stroke-linecap="round" fill="#F63049" fill-opacity="0.246207"></polygon><polygon points="352.90602169114806,427.91387716594227 367.18580991685985,437.34797191243683 349.27287340544547,445.35674887413677 347.24460336447174,430.76971680663746 345.8820606504738,420.98460087403686 " stroke="#F63049" stroke-opacity="0.718066" stroke-linecap="round" fill="#F63049" fill-opacity="0.718066"></polygon><polygon points="290.26935730692315,300.07195571634867 276.1115832822288,295.7545212248246 264.85241968035325,292.9959813546467 271.30147469698255,278.36868546244887 290.84657515306185,280.0954462813677 " stroke="#F63049" stroke-opacity="0.706189" stroke-linecap="round" fill="#F63049" fill-opacity="0.706189"></polygon><polygon points="357.7072767689101,191.40820535573184 352.50237069274,196.94088135050072 345.9527497613601,192.46042400639308 347.22300902740966,184.33512507424516 357.4821973721537,181.17884126528486 " stroke="#F63049" stroke-opacity="0.440464" stroke-linecap="round" fill="#F63049" fill-opacity="0.440464"></polygon><polygon points="249.0527279992503,55.71981088991727 239.1686196935652,55.88458645026936 241.6167545557728,48.268641704578094 243.89067530031986,42.33737668622178 249.99415688976924,46.943057721574164 " stroke="#F63049" stroke-opacity="0.36203" stroke-linecap="round" fill="#F63049" fill-opacity="0.36203"></polygon><polygon points="491.26727863886066,514.2070273313489 489.079964355319,500.664038381547 486.7607627549581,494.39020415490313 498.86171440518393,488.73980286530536 496.2831973630113,501.6073957898932 " stroke="#F63049" stroke-opacity="0.535334" stroke-linecap="round" fill="#F63049" fill-opacity="0.535334"></polygon><polygon points="241.4680043015148,348.26485587280916 225.59335425264692,347.0117806871624 217.34117952550338,327.03381728888115 239.92412639215632,314.987628222133 255.1866568089274,334.3403228228613 " stroke="#F63049" stroke-opacity="0.830928" stroke-linecap="round" fill="#F63049" fill-opacity="0.830928"></polygon><polygon points="478.60383734403075,234.12150896096404 478.10995848371294,234.9470955898994 474.9492748795098,235.39817604574526 475.0009485500063,230.741117768476 479.24425017239247,231.7897888129223 " stroke="#F63049" stroke-opacity="0.184285" stroke-linecap="round" fill="#F63049" fill-opacity="0.184285"></polygon><polygon points="439.87800780177804,484.2576727080118 442.85512614734614,475.209420953922 450.36832114940574,479.51022027242226 451.7737600448512,485.32681110640584 446.749626181073,484.78480570286916 " stroke="#F63049" stroke-opacity="0.32717" stroke-linecap="round" fill="#F63049" fill-opacity="0.32717"></polygon><polygon points="392.56144784765286,66.32685740846921 390.23601838849123,48.231113345486065 400.0101453695644,43.506848098970124 416.19437794731516,42.36872876279455 403.39168434476755,52.419582463274274 " stroke="#F63049" stroke-opacity="0.744437" stroke-linecap="round" fill="#F63049" fill-opacity="0.744437"></polygon><polygon points="341.8661792014015,189.50397743418287 344.04583437589196,189.4975854638634 345.1397809158779,191.6477445215575 343.0855696349855,195.2327791575746 341.73597596090246,191.43914429378492 " stroke="#F63049" stroke-opacity="0.17911" stroke-linecap="round" fill="#F63049" fill-opacity="0.17911"></polygon><polygon points="68.76932499831345,398.11382602967393 49.51938230152342,380.60226160463014 72.49253595003611,372.54983699183606 89.07144039018063,372.91064007553547 78.4325728833694,384.7935388421975 " stroke="#F63049" stroke-opacity="0.992639" stroke-linecap="round" fill="#F63049" fill-opacity="0.992639"></polygon><polygon points="438.6845684596403,459.67961885999625 438.97061167715424,461.0379512484147 436.7185088004888,462.31948481705285 435.29669249528473,459.4784368875109 437.69059489114073,457.5087894046005 " stroke="#F63049" stroke-opacity="0.185886" stroke-linecap="round" fill="#F63049" fill-opacity="0.185886"></polygon><polygon points="396.8977984496436,346.20767893173405 383.1096540061505,342.3734350021565 379.3519508737101,332.59292516605734 387.85436887388425,331.5909507355884 397.45121770744754,331.4764591898372 " stroke="#F63049" stroke-opacity="0.588749" stroke-linecap="round" fill="#F63049" fill-opacity="0.588749"></polygon><polygon points="35.77309034799956,227.74600770990818 39.77863344685859,238.43505537333658 32.5201981036559,246.91613681605222 22.536471687753924,241.2596540687247 24.660733078789768,230.59755250342207 " stroke="#F63049" stroke-opacity="0.435003" stroke-linecap="round" fill="#F63049" fill-opacity="0.435003"></polygon><polygon points="463.86637818535286,95.19347712268414 452.3319034431262,95.04407925271533 449.39712329184255,90.664827090145 441.7812014947474,69.29878527287259 455.81923580000114,87.03381476340051 " stroke="#F63049" stroke-opacity="0.960139" stroke-linecap="round" fill="#F63049" fill-opacity="0.960139"></polygon><polygon points="248.62339718235918,416.7657031189394 249.8779115571914,417.38601589716967 254.36219107449023,422.0454352251419 247.66179519908923,421.87933369860724 244.5589086617474,417.919979748093 " stroke="#F63049" stroke-opacity="0.262082" stroke-linecap="round" fill="#F63049" fill-opacity="0.262082"></polygon><polygon points="105.5551387680343,342.4746346210747 107.24130186397767,350.2515576616085 98.85818332623461,353.3422374408515 94.55259913150228,346.195568612195 99.33119146744298,341.34877160417955 " stroke="#F63049" stroke-opacity="0.350145" stroke-linecap="round" fill="#F63049" fill-opacity="0.350145"></polygon><polygon points="40.411399099194725,330.7918339162575 41.50287107405724,336.7312282136599 36.72036114419844,340.2822746716945 33.41756784162679,335.95787566525604 35.07724883599913,332.03578559307624 " stroke="#F63049" stroke-opacity="0.219919" stroke-linecap="round" fill="#F63049" fill-opacity="0.219919"></polygon><polygon points="-0.22019529091075274,199.94822874242374 3.096559010600894,188.09845780579204 12.09647086788801,197.72788552969993 5.0681938566013525,202.27276919176788 2.7919753042672615,202.93366751562613 " stroke="#F63049" stroke-opacity="0.521105" stroke-linecap="round" fill="#F63049" fill-opacity="0.521105"></polygon><polygon points="154.24654888648405,416.78929748567396 145.21696107156117,416.7548333114454 138.06014843952755,418.2431972045174 139.94804327097773,409.59154422036113 148.03836277653295,409.50778643181667 " stroke="#F63049" stroke-opacity="0.368856" stroke-linecap="round" fill="#F63049" fill-opacity="0.368856"></polygon><polygon points="418.17140609503826,231.15783115600578 438.91487344707093,242.9992092913467 443.9420392253855,263.5830523867071 422.9439254852052,269.27835572863626 418.13302460666034,253.6213665882133 " stroke="#F63049" stroke-opacity="0.91491" stroke-linecap="round" fill="#F63049" fill-opacity="0.91491"></polygon><polygon points="216.52909750405027,490.06517478787566 214.4949204442785,483.1725991937191 222.3167600817485,482.60694687878396 221.2117446151782,488.11129043718535 220.45192531097908,489.99681823595927 " stroke="#F63049" stroke-opacity="0.344939" stroke-linecap="round" fill="#F63049" fill-opacity="0.344939"></polygon><polygon points="459.3854092013321,440.0424618099084 462.2002896955203,438.3123301796672 464.1355127511852,442.61285458516085 459.78973960777023,444.64012327361354 457.8330710469095,441.56824714188497 " stroke="#F63049" stroke-opacity="0.20097" stroke-linecap="round" fill="#F63049" fill-opacity="0.20097"></polygon><polygon points="117.91429516767951,382.08066294535536 128.2438034382138,366.01166296419467 137.09522899274563,385.98443352680727 122.75422593998871,397.68572520046195 110.10561772743745,389.57034715510036 " stroke="#F63049" stroke-opacity="0.787922" stroke-linecap="round" fill="#F63049" fill-opacity="0.787922"></polygon><polygon points="481.91822307291125,369.6370532286164 466.8277302521999,372.3628124309429 454.86542728174294,378.48416272778786 450.8088847467172,359.4835884760152 469.20998198550404,359.29639330729617 " stroke="#F63049" stroke-opacity="0.749778" stroke-linecap="round" fill="#F63049" fill-opacity="0.749778"></polygon><polygon points="22.539484197397996,134.51512321026598 27.0519925379407,152.50763679801943 14.942053437728452,157.53701011374955 5.167718204216772,154.14194409902757 12.603415489293193,148.50885431274543 " stroke="#F63049" stroke-opacity="0.679282" stroke-linecap="round" fill="#F63049" fill-opacity="0.679282"></polygon><polygon points="60.14029553886835,237.32403657489303 74.80871065037763,231.9548049201153 91.4217055195271,232.3369323451278 78.69622015690737,242.75109394857762 74.53639308624136,242.80234299045006 " stroke="#F63049" stroke-opacity="0.965494" stroke-linecap="round" fill="#F63049" fill-opacity="0.965494"></polygon><polygon points="165.573566774234,299.6655423176161 160.19150896580186,297.2431141346747 163.08494925226404,292.94697683586077 167.1694462145629,291.0848308987688 170.18939078325405,296.007907799646 " stroke="#F63049" stroke-opacity="0.23313" stroke-linecap="round" fill="#F63049" fill-opacity="0.23313"></polygon><polygon points="274.0523454365449,62.986308086873954 268.1679792357459,60.780468248757295 270.76344503525416,55.98033836062461 274.8336914219855,53.89742341783668 274.4768146907836,58.15737698463153 " stroke="#F63049" stroke-opacity="0.271552" stroke-linecap="round" fill="#F63049" fill-opacity="0.271552"></polygon><polygon points="288.2150000100224,370.1866683520825 298.24916860726523,369.9635041999839 293.1497084176141,381.1999024907563 285.917656757564,374.251737241769 281.7430507197232,369.1139468406853 " stroke="#F63049" stroke-opacity="0.441258" stroke-linecap="round" fill="#F63049" fill-opacity="0.441258"></polygon><polygon points="373.7507075745009,472.8314985757798 355.29581643663846,467.7939783640452 358.8987535602141,447.8128666618285 373.8666326146344,452.7824170639043 374.7398755797689,459.4427881217789 " stroke="#F63049" stroke-opacity="0.800169" stroke-linecap="round" fill="#F63049" fill-opacity="0.800169"></polygon><polygon points="72.85344048510561,102.61975904945484 71.99994098334486,100.3773160995665 73.92877417501181,95.22747592225853 78.81101309391138,99.37091393896473 75.32325126834111,102.77483015134494 " stroke="#F63049" stroke-opacity="0.247241" stroke-linecap="round" fill="#F63049" fill-opacity="0.247241"></polygon><polygon points="202.26703919694074,200.35835424552818 201.11630414495778,198.40198141167863 200.8581745946332,196.7521750541531 204.74242319361045,193.16063943888355 206.08854652555377,198.83478577871475 " stroke="#F63049" stroke-opacity="0.213917" stroke-linecap="round" fill="#F63049" fill-opacity="0.213917"></polygon><polygon points="279.30221682867403,218.5215402553057 282.25607233468844,220.73172137718558 281.44005177796464,223.32683960099484 278.5966107731975,225.05723565893345 278.95800816310026,221.87838773326737 " stroke="#F63049" stroke-opacity="0.152177" stroke-linecap="round" fill="#F63049" fill-opacity="0.152177"></polygon><polygon points="274.3738156363238,93.61833669139887 269.2169794595766,89.16013916055736 261.8959103835678,76.90553208135987 275.711896477838,80.98632787903787 277.35131927514624,87.47833315630413 " stroke="#F63049" stroke-opacity="0.734433" stroke-linecap="round" fill="#F63049" fill-opacity="0.734433"></polygon><polygon points="13.737060212066863,338.80715445700895 -1.2990795527511168,341.19701327849725 4.41165834886035,325.32640463225107 17.39147917738152,325.4854569949658 18.359105436996018,334.87595180734604 " stroke="#F63049" stroke-opacity="0.623558" stroke-linecap="round" fill="#F63049" fill-opacity="0.623558"></polygon><polygon points="25.57850289417479,68.63654271049045 26.986949324145627,59.4773348706279 33.97330999382855,66.13602002347614 32.32931098228752,72.00442894085467 27.359067665424035,72.67460266008425 " stroke="#F63049" stroke-opacity="0.360777" stroke-linecap="round" fill="#F63049" fill-opacity="0.360777"></polygon><polygon points="283.14243771112575,505.86715835195207 266.2869160996906,503.51816392585135 260.8349940060496,492.5092740306646 267.31318624607115,472.3331031986513 291.4082699402677,483.30499912532764 " stroke="#F63049" stroke-opacity="0.924435" stroke-linecap="round" fill="#F63049" fill-opacity="0.924435"></polygon><polygon points="311.15567624686304,338.2948006237501 307.76829221020654,338.21078197653185 307.91680082123645,334.92616708149393 310.7191909446547,331.5936406080432 311.63842293096656,335.74840459800953 " stroke="#F63049" stroke-opacity="0.234715" stroke-linecap="round" fill="#F63049" fill-opacity="0.234715"></polygon><polygon points="377.9734760162721,268.33513297154866 366.9565966136703,263.5494071241595 370.5325752841832,249.65288944594624 384.3623734487631,251.3012900663052 390.1334537326488,263.985129516782 " stroke="#F63049" stroke-opacity="0.480296" stroke-linecap="round" fill="#F63049" fill-opacity="0.480296"></polygon><polygon points="101.35936955323639,99.82959237599155 96.52501694971849,96.09838891965019 97.88753093122477,92.17179430856424 102.3163156640216,88.50958357555155 105.01302964030464,94.42748336247126 " stroke="#F63049" stroke-opacity="0.269425" stroke-linecap="round" fill="#F63049" fill-opacity="0.269425"></polygon><polygon points="272.99671213942577,347.13236047658614 268.5757923716878,364.6265501154531 248.00668964303875,367.80326086917415 246.97628139721203,348.3643638652001 258.9274874143846,348.4680742594935 " stroke="#F63049" stroke-opacity="0.713233" stroke-linecap="round" fill="#F63049" fill-opacity="0.713233"></polygon><polygon points="412.9614671822115,351.9256728401709 405.456384866483,355.47998728070513 394.06881748496903,351.7994455377561 401.07808760883165,340.8744309444086 414.1393365748687,339.5689551440464 " stroke="#F63049" stroke-opacity="0.79754" stroke-linecap="round" fill="#F63049" fill-opacity="0.79754"></polygon><polygon points="240.66480736793548,109.70604549553187 237.8791983475839,104.84818290876737 243.37088505848806,102.5764708041578 244.14853790372624,106.73045806949818 245.0041995346465,110.30837289932278 " stroke="#F63049" stroke-opacity="0.236168" stroke-linecap="round" fill="#F63049" fill-opacity="0.236168"></polygon><polygon points="339.525258726001,157.18677553404572 332.3155385005742,146.54871663985844 344.9850310923605,147.88681834685116 352.23400573520337,151.9750113955439 348.3220045294909,162.22824710674962 " stroke="#F63049" stroke-opacity="0.636739" stroke-linecap="round" fill="#F63049" fill-opacity="0.636739"></polygon><polygon points="81.30310152611946,442.48230899413744 73.53569674282866,432.6125231799894 74.80120030735864,428.4615798612294 79.54527985524301,421.6638813749804 82.96277209381441,429.8937419069988 " stroke="#F63049" stroke-opacity="0.540398" stroke-linecap="round" fill="#F63049" fill-opacity="0.540398"></polygon><polygon points="148.70886445619766,478.8441532706284 158.3463271003492,495.2165790456125 136.96975002216305,501.02846451637276 133.50396722623935,484.22881722047134 138.9299898144302,475.35106347332 " stroke="#F63049" stroke-opacity="0.812421" stroke-linecap="round" fill="#F63049" fill-opacity="0.812421"></polygon><polygon points="252.9771226309017,71.73045089061281 244.97258209244777,59.65912392390475 259.09849346582143,63.18206165280672 273.6338135490901,69.53263452556166 257.6162226765735,71.12576725851072 " stroke="#F63049" stroke-opacity="0.722144" stroke-linecap="round" fill="#F63049" fill-opacity="0.722144"></polygon><polygon points="334.01649360160326,348.9168179237241 333.13815748389806,348.2972718494204 333.6569097456748,347.5452101228893 335.3440296325569,346.07834018337155 335.1802757674079,348.3601563919571 " stroke="#F63049" stroke-opacity="0.137086" stroke-linecap="round" fill="#F63049" fill-opacity="0.137086"></polygon><polygon points="125.79191724448059,182.57965119528075 123.06838155267353,182.9065450776961 120.56963381409307,178.7060380894424 125.44440523664619,178.30806898384975 128.65626138352047,180.44536401919854 " stroke="#F63049" stroke-opacity="0.188261" stroke-linecap="round" fill="#F63049" fill-opacity="0.188261"></polygon><polygon points="281.9278476612555,328.06692416414677 280.3401642832585,337.6421813164717 278.2963769807172,347.3826917944055 271.0333152566754,339.79716942339945 271.3572259875786,330.97360336349215 " stroke="#F63049" stroke-opacity="0.459326" stroke-linecap="round" fill="#F63049" fill-opacity="0.459326"></polygon><polygon points="21.323615374677573,377.9375566120076 19.647216876027315,385.502896588408 11.771468474183802,383.58022404831746 11.526987511456163,376.9413518528217 16.54888146675283,374.3371895854691 " stroke="#F63049" stroke-opacity="0.582066" stroke-linecap="round" fill="#F63049" fill-opacity="0.582066"></polygon><polygon points="453.40400025500065,343.56979024006193 449.3162996386818,341.77173291281844 453.7241233432363,340.98529210518154 456.7918145588745,340.17240477168326 457.2527859669873,344.61438995964323 " stroke="#F63049" stroke-opacity="0.199113" stroke-linecap="round" fill="#F63049" fill-opacity="0.199113"></polygon><polygon points="476.1694470923358,260.49478390829483 472.0931855282401,268.8336225986332 464.5181346094395,272.42471256926603 457.23549556063284,263.6545311326125 464.24787187545115,245.4704629302528 " stroke="#F63049" stroke-opacity="0.805438" stroke-linecap="round" fill="#F63049" fill-opacity="0.805438"></polygon><polygon points="315.0061933385306,232.39884511117404 315.1046918402713,222.24859411291675 323.0390859095772,225.406253339142 331.50572889239476,228.6366406321013 327.0294332120158,247.9223658070486 " stroke="#F63049" stroke-opacity="0.823509" stroke-linecap="round" fill="#F63049" fill-opacity="0.823509"></polygon><polygon points="485.4692078080367,83.949933479884 489.0508610801239,80.91907649997697 491.0084935572477,80.30246385178866 492.270827005294,82.5123456608307 490.406489756544,86.39369113389267 " stroke="#F63049" stroke-opacity="0.216936" stroke-linecap="round" fill="#F63049" fill-opacity="0.216936"></polygon><polygon points="2.066076931028503,290.1670325831028 -4.197407296478324,287.10839703886364 -7.365983993410355,278.7501337910018 5.695241903398585,265.91294076176587 16.46938255807278,283.8499897311698 " stroke="#F63049" stroke-opacity="0.894674" stroke-linecap="round" fill="#F63049" fill-opacity="0.894674"></polygon><polygon points="120.73459342969738,360.7131015381891 124.69998342706141,362.45860012390074 122.62316761588926,365.89268308405286 119.4447271838735,366.549590214458 116.59031550485486,362.9508016250691 " stroke="#F63049" stroke-opacity="0.183307" stroke-linecap="round" fill="#F63049" fill-opacity="0.183307"></polygon><polygon points="209.089063358654,57.36649235424534 208.951437059228,50.67771271403483 214.461543443014,53.89244310252411 214.99229260384664,56.59924952063519 213.05829257956873,58.65122904833051 " stroke="#F63049" stroke-opacity="0.257678" stroke-linecap="round" fill="#F63049" fill-opacity="0.257678"></polygon><polygon points="306.1463158087135,356.31079641297373 288.55096664087125,353.4421940074678 302.08121880552847,342.7972322369357 312.3983349881205,333.00622598408216 309.8623469901158,347.0030608171748 " stroke="#F63049" stroke-opacity="0.742615" stroke-linecap="round" fill="#F63049" fill-opacity="0.742615"></polygon><polygon points="48.11271229441491,268.69340768068736 52.79578499342581,257.6568515632916 61.404912843655254,265.38528570379054 60.84568526668915,272.8167488893681 52.3059677195014,279.0260093237348 " stroke="#F63049" stroke-opacity="0.440217" stroke-linecap="round" fill="#F63049" fill-opacity="0.440217"></polygon><polygon points="16.395802546648138,271.3787546471462 11.930877279277098,268.74108831780234 13.431562173310281,264.0624803756493 18.100469374929155,263.4813159688709 16.726336355384806,267.165485974113 " stroke="#F63049" stroke-opacity="0.165835" stroke-linecap="round" fill="#F63049" fill-opacity="0.165835"></polygon><polygon points="391.37353205025386,412.71253758098817 406.81240598359125,394.14201062713903 420.40463938697866,409.7110952958973 420.0573178652145,423.3425937392615 402.24192085248427,434.08719625444473 " stroke="#F63049" stroke-opacity="0.812242" stroke-linecap="round" fill="#F63049" fill-opacity="0.812242"></polygon><polygon points="500.7205227567112,37.30226435994073 494.0286606383307,35.60892615477649 488.01911709576416,24.015372384959683 505.05267417248604,13.396490417205275 512.3201716529604,32.00519819168712 " stroke="#F63049" stroke-opacity="0.776167" stroke-linecap="round" fill="#F63049" fill-opacity="0.776167"></polygon><polygon points="169.8127179771289,401.05327107102835 177.9523295458461,388.72537035723053 194.2687296089531,392.0040502515372 192.37347031540153,408.46770897711224 180.70119591649745,405.0575702258874 " stroke="#F63049" stroke-opacity="0.733429" stroke-linecap="round" fill="#F63049" fill-opacity="0.733429"></polygon><polygon points="307.2399776069754,387.30135571404395 297.2699335589273,385.91108866674415 292.63929660864727,380.8438570276731 297.80815360412424,377.00044536609175 313.6183525025528,370.91781543766865 " stroke="#F63049" stroke-opacity="0.685476" stroke-linecap="round" fill="#F63049" fill-opacity="0.685476"></polygon><polygon points="94.12006396327658,274.0963284965688 97.99787994297856,290.8603901497566 98.20415710295985,295.9832128120339 87.4347925487951,303.5668971231176 89.09467192343179,290.3970772716188 " stroke="#F63049" stroke-opacity="0.7415" stroke-linecap="round" fill="#F63049" fill-opacity="0.7415"></polygon><polygon points="211.64398924053097,187.44245220173178 222.92271101638966,194.758535766247 223.80621613528697,205.43944851888662 211.96036665544412,213.3217704324198 200.90330838771507,200.29799904205007 " stroke="#F63049" stroke-opacity="0.670115" stroke-linecap="round" fill="#F63049" fill-opacity="0.670115"></polygon><polygon points="282.7990172511438,64.04371619581241 293.70747810752613,68.19451860095842 300.0880586166624,81.90240005991036 286.2724836099816,77.12063163337388 278.7406907101758,74.70472777679072 " stroke="#F63049" stroke-opacity="0.686807" stroke-linecap="round" fill="#F63049" fill-opacity="0.686807"></polygon><polygon points="65.2640727405625,254.71619840882846 74.88725622701537,255.67899321474587 77.76038989352249,272.2084199929917 64.63089235201936,262.56725237800896 44.706554652471816,256.2182318250667 " stroke="#F63049" stroke-opacity="0.819257" stroke-linecap="round" fill="#F63049" fill-opacity="0.819257"></polygon><polygon points="456.39150292930555,411.00721935999013 468.39334918834527,390.8501033949465 488.4681656320937,387.28426507947967 484.3430693608307,404.7790590222335 478.668529622889,419.41183338078315 " stroke="#F63049" stroke-opacity="0.992908" stroke-linecap="round" fill="#F63049" fill-opacity="0.992908"></polygon><polygon points="331.18630570478683,10.866731318611896 330.84149227891595,12.854225738727214 327.00373587026013,13.736894595312025 326.95458181106414,9.270642936667837 330.5854388104206,8.145513472269439 " stroke="#F63049" stroke-opacity="0.184272" stroke-linecap="round" fill="#F63049" fill-opacity="0.184272"></polygon><polygon points="34.69055067188519,357.6187773680499 26.766739271880134,346.04829653769156 28.360993502467082,331.03561672889407 38.618366464249,341.0396550343907 38.29786342322174,344.998763810484 " stroke="#F63049" stroke-opacity="0.60711" stroke-linecap="round" fill="#F63049" fill-opacity="0.60711"></polygon><polygon points="333.2122946018572,48.11487171246748 354.06409055039677,43.100044525522506 349.95089289548514,62.51015272138696 342.0884306395344,70.58344252644524 331.34336600760946,63.5612608981783 " stroke="#F63049" stroke-opacity="0.8623" stroke-linecap="round" fill="#F63049" fill-opacity="0.8623"></polygon><polygon points="139.15608165846095,46.848251288645436 153.31889776367007,45.62860364184114 160.10028651164126,60.36743606389696 146.19667875700765,70.26156093955612 132.13137483930825,60.71859292145917 " stroke="#F63049" stroke-opacity="0.586732" stroke-linecap="round" fill="#F63049" fill-opacity="0.586732"></polygon><polygon points="493.93644319087423,427.4930250290366 492.85345040316207,427.8514246316648 491.3638167720839,427.23676250753164 492.0705700261675,425.11395704502803 494.8525136194748,425.19638265581233 " stroke="#F63049" stroke-opacity="0.100793" stroke-linecap="round" fill="#F63049" fill-opacity="0.100793"></polygon><polygon points="45.99983195435073,283.99837000107135 46.03670774610057,278.1445424141623 46.05468924755943,276.1067803908039 49.27829526748739,275.75849835508916 50.647669818748014,279.8961394724501 " stroke="#F63049" stroke-opacity="0.279488" stroke-linecap="round" fill="#F63049" fill-opacity="0.279488"></polygon><polygon points="50.65390106153516,234.36077505171434 49.15662920950358,238.38503594578023 47.11869956432385,234.35956316751688 48.097543167898976,229.94113888120515 50.73222866104714,233.31447412562733 " stroke="#F63049" stroke-opacity="0.170951" stroke-linecap="round" fill="#F63049" fill-opacity="0.170951"></polygon><polygon points="355.61738674340586,32.80401046807993 338.8110403245339,23.03399175715342 332.4825250660414,5.7363250661773755 349.38556021472175,8.919366612179523 353.94634536163994,14.462659449570065 " stroke="#F63049" stroke-opacity="0.82216" stroke-linecap="round" fill="#F63049" fill-opacity="0.82216"></polygon><polygon points="125.4061685872071,3.493784307964626 139.13524696947255,14.93748137946153 156.63626392601938,26.372256768712802 135.4805875240384,36.93198039977456 120.08757174121659,23.665437734173054 " stroke="#F63049" stroke-opacity="0.87789" stroke-linecap="round" fill="#F63049" fill-opacity="0.87789"></polygon><polygon points="221.953998973473,445.0099721346819 225.0006385949993,439.3240092936111 231.7226401644399,443.816392724429 229.47609861636045,452.16206066047823 220.48471802366768,452.21350250652307 " stroke="#F63049" stroke-opacity="0.30994" stroke-linecap="round" fill="#F63049" fill-opacity="0.30994"></polygon><polygon points="358.7004024306205,162.26543138942992 363.0919331021913,162.67546887899 364.0396997744365,163.74020352319417 366.17415368560944,169.07387694651138 359.42390191479967,168.2662988960457 " stroke="#F63049" stroke-opacity="0.240213" stroke-linecap="round" fill="#F63049" fill-opacity="0.240213"></polygon><polygon points="315.3689762603972,204.8243975185942 313.56999320936467,208.27802118179343 311.71575037704264,207.73486943098558 310.5268004426499,206.91901223256932 311.36890095768035,204.62036589421507 " stroke="#F63049" stroke-opacity="0.159148" stroke-linecap="round" fill="#F63049" fill-opacity="0.159148"></polygon><polygon points="345.9678976380417,430.1871585914818 348.1192300089134,441.09661432723937 336.31235402061236,438.9621882897581 334.4806184787681,430.1364564696909 340.6073077637806,421.0163498279091 " stroke="#F63049" stroke-opacity="0.452196" stroke-linecap="round" fill="#F63049" fill-opacity="0.452196"></polygon><polygon points="286.6461187142766,467.1036183958331 294.4050232046288,475.739248430919 286.21653137363444,482.2817420052329 274.3954033330096,483.3527135605499 281.0572697663119,473.97263934384034 " stroke="#F63049" stroke-opacity="0.620172" stroke-linecap="round" fill="#F63049" fill-opacity="0.620172"></polygon><polygon points="99.76601828184678,146.16657950361298 111.22126011381182,154.71105676077175 120.16192089339191,161.20779650255 109.44541871356584,170.97581712410033 86.60127999754638,166.13742288637457 " stroke="#F63049" stroke-opacity="0.886467" stroke-linecap="round" fill="#F63049" fill-opacity="0.886467"></polygon><polygon points="324.5295526585313,140.64260735036845 313.4311411595255,145.45491651283143 314.2066210475276,134.95866861974446 314.22348222111737,126.00401585893849 318.5557106350705,133.90450529989334 " stroke="#F63049" stroke-opacity="0.606625" stroke-linecap="round" fill="#F63049" fill-opacity="0.606625"></polygon><polygon points="188.64569771698905,191.17738194280585 167.16644696263654,179.85276651150718 181.4577686472556,157.4189495613867 195.4698748799922,171.5015429531155 195.4891125203529,178.269325153679 " stroke="#F63049" stroke-opacity="0.94186" stroke-linecap="round" fill="#F63049" fill-opacity="0.94186"></polygon><polygon points="335.92839516469985,288.17238465387857 332.540041735818,284.31767557021055 332.37300337917446,280.47866196915584 336.67004959141786,279.54907103953104 342.1310829557249,283.97991708878385 " stroke="#F63049" stroke-opacity="0.280866" stroke-linecap="round" fill="#F63049" fill-opacity="0.280866"></polygon><polygon points="325.09916686011525,58.18843616522507 343.6181950834663,53.39253429360419 335.9464597290233,72.40448666076085 318.657278396714,78.46672890642989 307.15687933415006,60.5541427157568 " stroke="#F63049" stroke-opacity="0.778813" stroke-linecap="round" fill="#F63049" fill-opacity="0.778813"></polygon><polygon points="190.80783135834236,60.0599178386133 193.04369791509362,57.23451400485672 197.38779039186184,57.44012649366359 196.8170293226981,61.96699060619113 193.131314575932,62.85476073477232 " stroke="#F63049" stroke-opacity="0.174703" stroke-linecap="round" fill="#F63049" fill-opacity="0.174703"></polygon><polygon points="152.0007751416938,303.5067974409887 163.17389521533755,286.73512862092525 173.6023616436827,306.69393788449725 161.18455392510612,319.1142681282848 143.4885307747834,317.20238673627085 " stroke="#F63049" stroke-opacity="0.791901" stroke-linecap="round" fill="#F63049" fill-opacity="0.791901"></polygon><polygon points="403.08599210233507,417.3543319571525 406.26974030078435,428.1315114466053 393.4652206253465,429.08855627067203 386.6903028764675,418.30629830754503 395.61049349082793,405.6946062299921 " stroke="#F63049" stroke-opacity="0.70025" stroke-linecap="round" fill="#F63049" fill-opacity="0.70025"></polygon><polygon points="170.6819504537682,100.93927749882862 162.31423907979197,120.54207760687291 140.83999673118825,118.95593836447179 146.80271731149955,102.36096889448116 153.907846262994,94.75933494716038 " stroke="#F63049" stroke-opacity="0.750883" stroke-linecap="round" fill="#F63049" fill-opacity="0.750883"></polygon><polygon points="62.89279860307315,97.85175119522619 61.352299881728264,94.85109635380148 63.703168999470954,93.87504060262995 65.34351952872173,94.13478649681909 65.14148829488336,95.93160094191123 " stroke="#F63049" stroke-opacity="0.171577" stroke-linecap="round" fill="#F63049" fill-opacity="0.171577"></polygon><polygon points="103.33357389898828,339.69659899522946 107.33125547289383,337.6593633858257 110.01461961445476,344.0539568516602 103.52798622660185,344.00754101932154 102.93695597519645,341.1699021833863 " stroke="#F63049" stroke-opacity="0.300489" stroke-linecap="round" fill="#F63049" fill-opacity="0.300489"></polygon><polygon points="157.31070563201263,56.266902163194985 159.1456480017288,58.562904814114944 157.44744919822665,59.79040305438259 155.6149377982265,60.51228836506653 155.6778755394871,58.39787196137583 " stroke="#F63049" stroke-opacity="0.118775" stroke-linecap="round" fill="#F63049" fill-opacity="0.118775"></polygon><polygon points="217.92221147950374,390.87120511452144 222.40426252169848,401.2050696419632 213.39971253632189,403.7561390218622 200.60623133518556,404.2108605214473 202.58018312040846,386.93019902592164 " stroke="#F63049" stroke-opacity="0.610804" stroke-linecap="round" fill="#F63049" fill-opacity="0.610804"></polygon><polygon points="173.1764346953956,76.81835051539427 160.59183172509074,81.00737781572025 150.49713060458947,69.03041100262973 160.2166912408813,51.06205997863437 175.18253096419673,63.593875657812205 " stroke="#F63049" stroke-opacity="0.734945" stroke-linecap="round" fill="#F63049" fill-opacity="0.734945"></polygon><polygon points="166.14046979535894,470.2064267619368 181.13941869654857,466.88448800106556 185.7097053858099,471.18984416295496 183.824364624661,474.8885168524792 173.8310190884951,488.37017088890013 " stroke="#F63049" stroke-opacity="0.71786" stroke-linecap="round" fill="#F63049" fill-opacity="0.71786"></polygon><polygon points="393.2057593110731,36.300826421007024 398.44526231543585,38.2130154679418 397.3927850399772,41.59876994615318 395.67640363691777,44.51274221991051 391.5375605878529,42.00866024514501 " stroke="#F63049" stroke-opacity="0.269334" stroke-linecap="round" fill="#F63049" fill-opacity="0.269334"></polygon><polygon points="370.9264172142966,324.72434955440207 368.30068060449486,320.07739353364826 372.73763725732533,318.8295771552607 377.7868568617911,318.7787739916896 375.84809200445204,324.06571394218935 " stroke="#F63049" stroke-opacity="0.228278" stroke-linecap="round" fill="#F63049" fill-opacity="0.228278"></polygon><polygon points="389.61462429112436,403.2159680952361 391.80061404451527,408.709423373588 385.8457959294655,408.2247765484546 384.84600763931803,404.9363276504114 386.4718125781517,403.1945377813215 " stroke="#F63049" stroke-opacity="0.233745" stroke-linecap="round" fill="#F63049" fill-opacity="0.233745"></polygon><polygon points="47.58296835451421,114.25106041733748 53.094761116055345,99.46889778238217 66.26866050054298,96.00915422551326 70.98603962853304,108.33447491336548 63.526020915620265,120.77887799455979 " stroke="#F63049" stroke-opacity="0.829486" stroke-linecap="round" fill="#F63049" fill-opacity="0.829486"></polygon><polygon points="253.30080618655074,91.57969848241443 276.02777576927105,83.46176022763974 294.7405568287421,92.94783932508763 288.06084392611416,115.66288431512102 272.08105667128797,104.37373587560344 " stroke="#F63049" stroke-opacity="0.887218" stroke-linecap="round" fill="#F63049" fill-opacity="0.887218"></polygon><polygon points="16.42859062008987,423.4219020066482 30.70411004839794,417.4303564786455 38.82813085659135,422.58086977738634 43.93087718129606,438.0990427917096 29.193561362121944,431.41394709630043 " stroke="#F63049" stroke-opacity="0.951664" stroke-linecap="round" fill="#F63049" fill-opacity="0.951664"></polygon><polygon points="357.33446551063156,141.53053354578887 355.89163411273296,143.58429270662998 352.2846642478402,144.94987113766288 354.043676722873,141.5615682989848 355.69305442065377,136.0368618570305 " stroke="#F63049" stroke-opacity="0.31392" stroke-linecap="round" fill="#F63049" fill-opacity="0.31392"></polygon><polygon points="7.733594521871881,293.38835999387805 22.16982324174521,301.8834295009589 10.246067151560878,317.78038310254834 -10.805260350153343,313.64795569013523 -11.825256211307828,289.949408797176 " stroke="#F63049" stroke-opacity="0.76671" stroke-linecap="round" fill="#F63049" fill-opacity="0.76671"></polygon><polygon points="400.1935677271035,37.30455822825145 396.08031874967736,32.83473644292303 402.27766485843773,27.395733926497098 407.09057355542075,33.54906561139562 405.0388318661193,39.520757053199034 " stroke="#F63049" stroke-opacity="0.363629" stroke-linecap="round" fill="#F63049" fill-opacity="0.363629"></polygon><polygon points="474.96889921184874,197.90875453919097 478.4978421537326,190.35333425844777 483.3478797358884,189.1029867271394 486.25666171482465,193.08018824883055 482.9866338679172,196.24316663339454 " stroke="#F63049" stroke-opacity="0.341216" stroke-linecap="round" fill="#F63049" fill-opacity="0.341216"></polygon><polygon points="62.30244456774303,293.38697185374764 64.09998030048756,278.45128507709916 79.34146184690064,287.28100675829785 80.62532221255269,306.90062387183264 63.5814891788687,301.18801601207696 " stroke="#F63049" stroke-opacity="0.859883" stroke-linecap="round" fill="#F63049" fill-opacity="0.859883"></polygon><polygon points="437.8313061368099,195.23066646191091 438.23696388614195,208.43843220351482 427.8551468076824,204.00686774753962 424.74759874038335,200.78873917603258 425.4212877201095,187.78793389596052 " stroke="#F63049" stroke-opacity="0.512685" stroke-linecap="round" fill="#F63049" fill-opacity="0.512685"></polygon><polygon points="27.099383458153202,406.2554230250425 38.073267107150535,411.7355991008994 39.7849815890918,424.8933726676053 23.887168833213817,433.0142049392775 13.44977588516138,416.1637712847 " stroke="#F63049" stroke-opacity="0.969663" stroke-linecap="round" fill="#F63049" fill-opacity="0.969663"></polygon><polygon points="347.84551363687683,306.52891251913854 342.40794605072807,307.79126057824993 339.6692968996668,307.3910243760115 338.1230796239099,302.6095793782742 345.74864717694794,297.241149426028 " stroke="#F63049" stroke-opacity="0.469483" stroke-linecap="round" fill="#F63049" fill-opacity="0.469483"></polygon><polygon points="120.87045205581644,496.5567785212039 104.9776218432774,498.9542866479908 103.96910425327644,480.5788993278773 119.19800171002497,477.35024790289503 120.20192960437475,487.64432752093103 " stroke="#F63049" stroke-opacity="0.859283" stroke-linecap="round" fill="#F63049" fill-opacity="0.859283"></polygon><polygon points="222.83985763595388,393.988979526516 225.79441015726613,387.16223749214544 231.66789118641273,391.34707102257994 231.19640297077902,396.3327689159797 226.35464878748914,399.02731193896113 " stroke="#F63049" stroke-opacity="0.281402" stroke-linecap="round" fill="#F63049" fill-opacity="0.281402"></polygon><polygon points="183.42321315001055,132.08189882173806 172.55121940506123,145.75006904331582 162.96276942080937,130.15393828836883 173.6147006322026,125.41047467454649 179.1350887558269,123.69622905619326 " stroke="#F63049" stroke-opacity="0.673967" stroke-linecap="round" fill="#F63049" fill-opacity="0.673967"></polygon><polygon points="307.72223027228625,143.26015536785232 315.79869806912257,150.39743417234996 308.11541163712013,165.60463259999898 286.26763043523266,159.22444698357242 300.44267377920676,144.69433662247414 " stroke="#F63049" stroke-opacity="0.885178" stroke-linecap="round" fill="#F63049" fill-opacity="0.885178"></polygon><polygon points="403.1089537039033,480.527102654213 388.4117470295443,505.8979464517755 369.05238647251116,490.1990272516705 357.4353045055708,468.25968223661636 384.83685411122605,459.4369812423663 " stroke="#F63049" stroke-opacity="0.999341" stroke-linecap="round" fill="#F63049" fill-opacity="0.999341"></polygon><polygon points="159.39797479578286,155.4926524841516 154.9381237163943,175.12469796196729 149.58455319514837,155.65462569724494 138.15677142060267,134.11282126738791 165.37337887531655,136.7887984403881 " stroke="#F63049" stroke-opacity="0.985913" stroke-linecap="round" fill="#F63049" fill-opacity="0.985913"></polygon><polygon points="6.869504561452261,263.1556555730995 -2.6173176921712162,259.1901129911833 6.127110431160774,248.202515177439 18.895816540302008,255.60879117317808 16.714844809129172,269.9223198725092 " stroke="#F63049" stroke-opacity="0.582871" stroke-linecap="round" fill="#F63049" fill-opacity="0.582871"></polygon><polygon points="64.47956051760319,36.04086044189042 66.54988951897158,50.83024040593624 53.30448799182692,42.10131796825453 54.80133154933763,30.586420292138925 63.54941967255007,31.485852672967425 " stroke="#F63049" stroke-opacity="0.697185" stroke-linecap="round" fill="#F63049" fill-opacity="0.697185"></polygon><polygon points="363.491692867635,190.54412120493106 349.23209241603604,196.7134955079976 342.7056532481352,178.2185245863808 359.41682675788434,168.44958896470825 376.2385606347791,178.9053014276933 " stroke="#F63049" stroke-opacity="0.871221" stroke-linecap="round" fill="#F63049" fill-opacity="0.871221"></polygon><polygon points="409.7191497436285,126.66178074174512 399.27912072608126,142.90278433053632 388.8304554528915,124.84297847769555 397.43533331424976,111.28645397073285 410.70818779062256,115.70801699833966 " stroke="#F63049" stroke-opacity="0.84792" stroke-linecap="round" fill="#F63049" fill-opacity="0.84792"></polygon><polygon points="127.76091686705615,469.6335832991413 145.81644601228547,484.43712182473104 138.68998049873449,502.83084262682854 119.90601563671916,505.1756660168015 114.0398268408729,487.08056970155354 " stroke="#F63049" stroke-opacity="0.858037" stroke-linecap="round" fill="#F63049" fill-opacity="0.858037"></polygon><polygon points="453.3806477946902,407.52244994402196 459.367094855635,397.05128739157107 468.0776337649603,391.12726212521676 478.0047549676132,402.0878318215085 468.22187585954725,418.50672524366826 " stroke="#F63049" stroke-opacity="0.706007" stroke-linecap="round" fill="#F63049" fill-opacity="0.706007"></polygon></g>
  <!-- <rect id="tint" x="0" y="0" rx="20" ry="20" width="" height="" fill="url(#tintGradient)" /> -->
  <g id="mainHolder"><polygon points="88.95520763274257,131.40583972476998 433.22795172246117,169.8281988003798 227.81684064479637,448.7659614748502 " stroke="#F63049" stroke-opacity="1" stroke-linecap="round" fill="#F63049" fill-opacity="1"></polygon></g>
  <text class="styled-text" x="250" y="480" text-anchor="middle" fill="white" font-size="60" font-weight="800" >polygon</text>
  <style>
  .styled-text {
    fill: white;
    font-family: sans-serif;
    font-size: 60px;
    font-weight: bold;
    /* Other SVG presentation attributes like fill, stroke, etc., can be used as CSS properties */
  }
  </style>
</svg>