<svg xmlns:xlink="http://www.w3.org/1999/xlink" xmlns="http://www.w3.org/2000/svg" width="300" height="300" viewBox="2 2 496 496">
  <defs>
    <linearGradient id="tintGradient" x1="0%" y1="0%" x2="0%" y2="100%">
      <stop offset="0%" stop-color="black" stop-opacity="0"></stop>
      <stop offset="100%" stop-color="black" stop-opacity=".25"></stop>
    </linearGradient>
  </defs>
  <rect id="bg" x="0" y="0" width="500" height="500" fill="#3A2525" stroke="#000000" stroke-width="2px"></rect>
  <g id="particleHolder"><g transform="translate(298.87122823328457 270.93295626754764)"><ellipse cx="0" cy="0" rx="7.88918857227094" ry="3.94459428613547" fill="#5DD3B6" fill-opacity="0.19723" stroke="#6E5034" stroke-opacity="0.2" stroke-width="1" transform="rotate(94.25032786909841)"></ellipse></g><g transform="translate(79.74335618673855 72.16411015402919)"><ellipse cx="0" cy="0" rx="18.238694906751338" ry="9.119347453375669" fill="#5DD3B6" fill-opacity="0.455967" stroke="#6E5034" stroke-opacity="0.2" stroke-width="1" transform="rotate(330.4427448539633)"></ellipse></g><g transform="translate(475.82931177203864 485.6198482008417)"><ellipse cx="0" cy="0" rx="16.93609344235988" ry="8.46804672117994" fill="#5DD3B6" fill-opacity="0.423402" stroke="#6E5034" stroke-opacity="0.2" stroke-width="1" transform="rotate(106.08182409435156)"></ellipse></g><g transform="translate(349.8701767234849 366.1733642156953)"><ellipse cx="0" cy="0" rx="8.165999990720179" ry="4.0829999953600895" fill="#5DD3B6" fill-opacity="0.20415" stroke="#6E5034" stroke-opacity="0.2" stroke-width="1" transform="rotate(72.48995159922573)"></ellipse></g><g transform="translate(490.5932775027958 87.70084637752123)"><ellipse cx="0" cy="0" rx="16.712526034055063" ry="8.356263017027532" fill="#5DD3B6" fill-opacity="0.417813" stroke="#6E5034" stroke-opacity="0.2" stroke-width="1" transform="rotate(261.29310296492173)"></ellipse></g><g transform="translate(86.90750408138103 222.10560818122727)"><ellipse cx="0" cy="0" rx="17.63668674849573" ry="8.818343374247865" fill="#5DD3B6" fill-opacity="0.440917" stroke="#6E5034" stroke-opacity="0.2" stroke-width="1" transform="rotate(124.66894820534945)"></ellipse></g><g transform="translate(212.596604598263 290.58652520863717)"><ellipse cx="0" cy="0" rx="14.199124927695143" ry="7.099562463847572" fill="#5DD3B6" fill-opacity="0.354978" stroke="#6E5034" stroke-opacity="0.2" stroke-width="1" transform="rotate(156.445882500083)"></ellipse></g><g transform="translate(67.0217955879282 40.41723292453536)"><ellipse cx="0" cy="0" rx="14.885939650547984" ry="7.442969825273992" fill="#5DD3B6" fill-opacity="0.372148" stroke="#6E5034" stroke-opacity="0.2" stroke-width="1" transform="rotate(67.68491111267655)"></ellipse></g><g transform="translate(68.11901491928835 189.68826504724245)"><ellipse cx="0" cy="0" rx="15.548880788798352" ry="7.774440394399176" fill="#5DD3B6" fill-opacity="0.388722" stroke="#6E5034" stroke-opacity="0.2" stroke-width="1" transform="rotate(207.44373672031088)"></ellipse></g><g transform="translate(359.8632020858744 190.23366623505012)"><ellipse cx="0" cy="0" rx="13.796515003406073" ry="6.8982575017030365" fill="#5DD3B6" fill-opacity="0.344913" stroke="#6E5034" stroke-opacity="0.2" stroke-width="1" transform="rotate(284.4956287948313)"></ellipse></g><g transform="translate(412.31547005775366 213.27913427241768)"><ellipse cx="0" cy="0" rx="9.9457567419528" ry="4.9728783709764" fill="#5DD3B6" fill-opacity="0.248644" stroke="#6E5034" stroke-opacity="0.2" stroke-width="1" transform="rotate(156.36669508793617)"></ellipse></g><g transform="translate(116.48726078803506 338.9015117967687)"><ellipse cx="0" cy="0" rx="14.611109906887073" ry="7.3055549534435364" fill="#5DD3B6" fill-opacity="0.365278" stroke="#6E5034" stroke-opacity="0.2" stroke-width="1" transform="rotate(218.3033035417167)"></ellipse></g><g transform="translate(281.4112493997928 21.91286017071009)"><ellipse cx="0" cy="0" rx="17.374177833599795" ry="8.687088916799897" fill="#5DD3B6" fill-opacity="0.434354" stroke="#6E5034" stroke-opacity="0.2" stroke-width="1" transform="rotate(0.39213784465937707)"></ellipse></g><g transform="translate(294.6169984917184 394.3346600137092)"><ellipse cx="0" cy="0" rx="12.230872930028998" ry="6.115436465014499" fill="#5DD3B6" fill-opacity="0.305772" stroke="#6E5034" stroke-opacity="0.2" stroke-width="1" transform="rotate(152.11323768609725)"></ellipse></g><g transform="translate(396.3666696669901 93.39647717847433)"><ellipse cx="0" cy="0" rx="15.373078376420082" ry="7.686539188210041" fill="#5DD3B6" fill-opacity="0.384327" stroke="#6E5034" stroke-opacity="0.2" stroke-width="1" transform="rotate(125.39133695145925)"></ellipse></g><g transform="translate(56.64770331491381 383.29734546803843)"><ellipse cx="0" cy="0" rx="14.748274486738213" ry="7.374137243369106" fill="#5DD3B6" fill-opacity="0.368707" stroke="#6E5034" stroke-opacity="0.2" stroke-width="1" transform="rotate(192.01484249455345)"></ellipse></g><g transform="translate(275.66474325126154 269.3774776199)"><ellipse cx="0" cy="0" rx="18.022586924419443" ry="9.011293462209721" fill="#5DD3B6" fill-opacity="0.450565" stroke="#6E5034" stroke-opacity="0.2" stroke-width="1" transform="rotate(27.42796583382466)"></ellipse></g><g transform="translate(155.32436549416423 212.831382303779)"><ellipse cx="0" cy="0" rx="18.93579890289866" ry="9.46789945144933" fill="#5DD3B6" fill-opacity="0.473395" stroke="#6E5034" stroke-opacity="0.2" stroke-width="1" transform="rotate(222.8676868985618)"></ellipse></g><g transform="translate(388.61559293211013 212.01423843468098)"><ellipse cx="0" cy="0" rx="14.854153092969149" ry="7.4270765464845745" fill="#5DD3B6" fill-opacity="0.371354" stroke="#6E5034" stroke-opacity="0.2" stroke-width="1" transform="rotate(209.09935816709955)"></ellipse></g><g transform="translate(489.3776075235871 108.04762512611227)"><ellipse cx="0" cy="0" rx="8.401210515212178" ry="4.200605257606089" fill="#5DD3B6" fill-opacity="0.21003" stroke="#6E5034" stroke-opacity="0.2" stroke-width="1" transform="rotate(171.26467773140055)"></ellipse></g><g transform="translate(165.63364449071983 191.96303694240797)"><ellipse cx="0" cy="0" rx="14.960396522852601" ry="7.480198261426301" fill="#5DD3B6" fill-opacity="0.37401" stroke="#6E5034" stroke-opacity="0.2" stroke-width="1" transform="rotate(316.2135136882099)"></ellipse></g><g transform="translate(381.3760192609926 39.52128574354641)"><ellipse cx="0" cy="0" rx="11.337368193089738" ry="5.668684096544869" fill="#5DD3B6" fill-opacity="0.283434" stroke="#6E5034" stroke-opacity="0.2" stroke-width="1" transform="rotate(101.14343869849287)"></ellipse></g><g transform="translate(250.9485052735121 239.74096989667177)"><ellipse cx="0" cy="0" rx="3.091367549387787" ry="1.5456837746938934" fill="#5DD3B6" fill-opacity="0.0772842" stroke="#6E5034" stroke-opacity="0.2" stroke-width="1" transform="rotate(331.16664020546875)"></ellipse></g><g transform="translate(291.8022877504212 345.6536704305481)"><ellipse cx="0" cy="0" rx="11.434981158054352" ry="5.717490579027176" fill="#5DD3B6" fill-opacity="0.285875" stroke="#6E5034" stroke-opacity="0.2" stroke-width="1" transform="rotate(153.22752847315698)"></ellipse></g><g transform="translate(148.4698982305183 180.43956010612254)"><ellipse cx="0" cy="0" rx="10.310949642618022" ry="5.155474821309011" fill="#5DD3B6" fill-opacity="0.257774" stroke="#6E5034" stroke-opacity="0.2" stroke-width="1" transform="rotate(89.20537128160805)"></ellipse></g><g transform="translate(348.8849997491308 37.46521871739766)"><ellipse cx="0" cy="0" rx="19.021009677845754" ry="9.510504838922877" fill="#5DD3B6" fill-opacity="0.475525" stroke="#6E5034" stroke-opacity="0.2" stroke-width="1" transform="rotate(299.2203049098801)"></ellipse></g><g transform="translate(14.142724943327355 338.936095723605)"><ellipse cx="0" cy="0" rx="7.564988494790303" ry="3.7824942473951517" fill="#5DD3B6" fill-opacity="0.189125" stroke="#6E5034" stroke-opacity="0.2" stroke-width="1" transform="rotate(148.48416221167153)"></ellipse></g><g transform="translate(490.28809612694823 383.035625324754)"><ellipse cx="0" cy="0" rx="12.899096694630284" ry="6.449548347315142" fill="#5DD3B6" fill-opacity="0.322477" stroke="#6E5034" stroke-opacity="0.2" stroke-width="1" transform="rotate(312.06784989599987)"></ellipse></g><g transform="translate(109.96247415388987 296.6791773237403)"><ellipse cx="0" cy="0" rx="9.627886355202428" ry="4.813943177601214" fill="#5DD3B6" fill-opacity="0.240697" stroke="#6E5034" stroke-opacity="0.2" stroke-width="1" transform="rotate(344.47118634769186)"></ellipse></g><g transform="translate(340.00149513552617 244.46600300731342)"><ellipse cx="0" cy="0" rx="4.04473322643887" ry="2.022366613219435" fill="#5DD3B6" fill-opacity="0.101118" stroke="#6E5034" stroke-opacity="0.2" stroke-width="1" transform="rotate(292.39738953053967)"></ellipse></g><g transform="translate(258.4434485070956 208.74012498201438)"><ellipse cx="0" cy="0" rx="15.793320865865063" ry="7.896660432932531" fill="#5DD3B6" fill-opacity="0.394833" stroke="#6E5034" stroke-opacity="0.2" stroke-width="1" transform="rotate(262.2576487905643)"></ellipse></g><g transform="translate(330.17395020896913 489.0339907985331)"><ellipse cx="0" cy="0" rx="17.02454072286679" ry="8.512270361433394" fill="#5DD3B6" fill-opacity="0.425614" stroke="#6E5034" stroke-opacity="0.2" stroke-width="1" transform="rotate(27.80799549302509)"></ellipse></g><g transform="translate(2.4299030553602274 226.87256974505738)"><ellipse cx="0" cy="0" rx="9.991595433549696" ry="4.995797716774848" fill="#5DD3B6" fill-opacity="0.24979" stroke="#6E5034" stroke-opacity="0.2" stroke-width="1" transform="rotate(311.27532064333496)"></ellipse></g><g transform="translate(58.39808949193481 496.0687740689292)"><ellipse cx="0" cy="0" rx="4.723578926260664" ry="2.361789463130332" fill="#5DD3B6" fill-opacity="0.118089" stroke="#6E5034" stroke-opacity="0.2" stroke-width="1" transform="rotate(236.56882741896655)"></ellipse></g><g transform="translate(22.92318672404803 183.1532593282102)"><ellipse cx="0" cy="0" rx="19.203483478007595" ry="9.601741739003797" fill="#5DD3B6" fill-opacity="0.480087" stroke="#6E5034" stroke-opacity="0.2" stroke-width="1" transform="rotate(15.72644748322686)"></ellipse></g><g transform="translate(349.4450118761539 128.1842662886583)"><ellipse cx="0" cy="0" rx="3.1149656333957267" ry="1.5574828166978634" fill="#5DD3B6" fill-opacity="0.0778741" stroke="#6E5034" stroke-opacity="0.2" stroke-width="1" transform="rotate(276.4067361715572)"></ellipse></g><g transform="translate(75.16818081078553 260.28480461345686)"><ellipse cx="0" cy="0" rx="6.273200327824345" ry="3.1366001639121723" fill="#5DD3B6" fill-opacity="0.15683" stroke="#6E5034" stroke-opacity="0.2" stroke-width="1" transform="rotate(223.0503022005032)"></ellipse></g><g transform="translate(376.65642966831217 392.7150747201969)"><ellipse cx="0" cy="0" rx="16.991089845764698" ry="8.495544922882349" fill="#5DD3B6" fill-opacity="0.424777" stroke="#6E5034" stroke-opacity="0.2" stroke-width="1" transform="rotate(259.5461521231549)"></ellipse></g><g transform="translate(437.2101233703451 41.91637856820463)"><ellipse cx="0" cy="0" rx="9.260225823018581" ry="4.630112911509291" fill="#5DD3B6" fill-opacity="0.231506" stroke="#6E5034" stroke-opacity="0.2" stroke-width="1" transform="rotate(224.94431379031045)"></ellipse></g><g transform="translate(127.33014308667256 23.27763441945635)"><ellipse cx="0" cy="0" rx="16.683650739995986" ry="8.341825369997993" fill="#5DD3B6" fill-opacity="0.417091" stroke="#6E5034" stroke-opacity="0.2" stroke-width="1" transform="rotate(219.73827058822872)"></ellipse></g><g transform="translate(355.55715212110994 290.6170850091058)"><ellipse cx="0" cy="0" rx="10.825748772562072" ry="5.412874386281036" fill="#5DD3B6" fill-opacity="0.270644" stroke="#6E5034" stroke-opacity="0.2" stroke-width="1" transform="rotate(264.6370775010398)"></ellipse></g><g transform="translate(297.1495029468862 340.5911370027712)"><ellipse cx="0" cy="0" rx="19.33143620737227" ry="9.665718103686135" fill="#5DD3B6" fill-opacity="0.483286" stroke="#6E5034" stroke-opacity="0.2" stroke-width="1" transform="rotate(238.565307564346)"></ellipse></g><g transform="translate(26.250643638915605 359.3097948934778)"><ellipse cx="0" cy="0" rx="7.566726026521476" ry="3.783363013260738" fill="#5DD3B6" fill-opacity="0.189168" stroke="#6E5034" stroke-opacity="0.2" stroke-width="1" transform="rotate(303.4266682123901)"></ellipse></g><g transform="translate(431.35371883161406 241.52662771905543)"><ellipse cx="0" cy="0" rx="5.936315740347555" ry="2.9681578701737776" fill="#5DD3B6" fill-opacity="0.148408" stroke="#6E5034" stroke-opacity="0.2" stroke-width="1" transform="rotate(89.69171208831956)"></ellipse></g><g transform="translate(195.1136904716777 420.60543230586427)"><ellipse cx="0" cy="0" rx="17.486793549976237" ry="8.743396774988119" fill="#5DD3B6" fill-opacity="0.43717" stroke="#6E5034" stroke-opacity="0.2" stroke-width="1" transform="rotate(314.0100885132455)"></ellipse></g><g transform="translate(450.0748977182066 294.46117518396954)"><ellipse cx="0" cy="0" rx="12.0765694256348" ry="6.0382847128174" fill="#5DD3B6" fill-opacity="0.301914" stroke="#6E5034" stroke-opacity="0.2" stroke-width="1" transform="rotate(102.94093281219669)"></ellipse></g><g transform="translate(152.66243582369975 332.6523090646998)"><ellipse cx="0" cy="0" rx="6.5125051350849255" ry="3.2562525675424627" fill="#5DD3B6" fill-opacity="0.162813" stroke="#6E5034" stroke-opacity="0.2" stroke-width="1" transform="rotate(134.52368334963754)"></ellipse></g><g transform="translate(287.98299760755185 375.9699062066349)"><ellipse cx="0" cy="0" rx="13.136658638672793" ry="6.568329319336397" fill="#5DD3B6" fill-opacity="0.328416" stroke="#6E5034" stroke-opacity="0.2" stroke-width="1" transform="rotate(142.82759927899102)"></ellipse></g><g transform="translate(339.5983774687433 53.50335386515637)"><ellipse cx="0" cy="0" rx="10.377805133508907" ry="5.188902566754454" fill="#5DD3B6" fill-opacity="0.259445" stroke="#6E5034" stroke-opacity="0.2" stroke-width="1" transform="rotate(194.8243809635282)"></ellipse></g><g transform="translate(276.3837767714988 2.995654314824292)"><ellipse cx="0" cy="0" rx="16.179392634539106" ry="8.089696317269553" fill="#5DD3B6" fill-opacity="0.404485" stroke="#6E5034" stroke-opacity="0.2" stroke-width="1" transform="rotate(330.54589218023807)"></ellipse></g><g transform="translate(167.7102699793696 354.3434022626286)"><ellipse cx="0" cy="0" rx="16.919547348518435" ry="8.459773674259218" fill="#5DD3B6" fill-opacity="0.422989" stroke="#6E5034" stroke-opacity="0.2" stroke-width="1" transform="rotate(159.27049037222108)"></ellipse></g><g transform="translate(436.6535936838994 153.74747092216535)"><ellipse cx="0" cy="0" rx="2.5902357590107346" ry="1.2951178795053673" fill="#5DD3B6" fill-opacity="0.0647559" stroke="#6E5034" stroke-opacity="0.2" stroke-width="1" transform="rotate(209.2412743477933)"></ellipse></g><g transform="translate(149.77257552156897 286.626103275944)"><ellipse cx="0" cy="0" rx="13.790061442892975" ry="6.895030721446488" fill="#5DD3B6" fill-opacity="0.344752" stroke="#6E5034" stroke-opacity="0.2" stroke-width="1" transform="rotate(312.09525483073355)"></ellipse></g><g transform="translate(118.61776265416208 183.5333908218566)"><ellipse cx="0" cy="0" rx="2.4211396163184906" ry="1.2105698081592453" fill="#5DD3B6" fill-opacity="0.0605285" stroke="#6E5034" stroke-opacity="0.2" stroke-width="1" transform="rotate(149.32199684701683)"></ellipse></g><g transform="translate(32.62128696530303 283.16350456563066)"><ellipse cx="0" cy="0" rx="8.34188082545472" ry="4.17094041272736" fill="#5DD3B6" fill-opacity="0.208547" stroke="#6E5034" stroke-opacity="0.2" stroke-width="1" transform="rotate(302.4214608475638)"></ellipse></g><g transform="translate(263.99727198750435 373.0108941349665)"><ellipse cx="0" cy="0" rx="4.288639043709135" ry="2.1443195218545674" fill="#5DD3B6" fill-opacity="0.107216" stroke="#6E5034" stroke-opacity="0.2" stroke-width="1" transform="rotate(93.079581905665)"></ellipse></g><g transform="translate(275.017507682887 329.94667171923726)"><ellipse cx="0" cy="0" rx="18.83412648142049" ry="9.417063240710245" fill="#5DD3B6" fill-opacity="0.470853" stroke="#6E5034" stroke-opacity="0.2" stroke-width="1" transform="rotate(204.1014891073643)"></ellipse></g><g transform="translate(202.70749029939898 473.37272436920597)"><ellipse cx="0" cy="0" rx="15.737096255578972" ry="7.868548127789486" fill="#5DD3B6" fill-opacity="0.393427" stroke="#6E5034" stroke-opacity="0.2" stroke-width="1" transform="rotate(68.47221864836527)"></ellipse></g><g transform="translate(267.90111645098705 23.85650067366202)"><ellipse cx="0" cy="0" rx="17.97056846337296" ry="8.98528423168648" fill="#5DD3B6" fill-opacity="0.449264" stroke="#6E5034" stroke-opacity="0.2" stroke-width="1" transform="rotate(82.19607137583967)"></ellipse></g><g transform="translate(197.65644652818597 197.56654100914605)"><ellipse cx="0" cy="0" rx="10.303211921182857" ry="5.151605960591429" fill="#5DD3B6" fill-opacity="0.25758" stroke="#6E5034" stroke-opacity="0.2" stroke-width="1" transform="rotate(337.18271878068384)"></ellipse></g><g transform="translate(58.62748396482309 215.79333104208882)"><ellipse cx="0" cy="0" rx="3.4114437500263555" ry="1.7057218750131777" fill="#5DD3B6" fill-opacity="0.0852861" stroke="#6E5034" stroke-opacity="0.2" stroke-width="1" transform="rotate(207.42864304615037)"></ellipse></g><g transform="translate(241.64056516354543 147.90094551574518)"><ellipse cx="0" cy="0" rx="2.845153088690011" ry="1.4225765443450056" fill="#5DD3B6" fill-opacity="0.0711288" stroke="#6E5034" stroke-opacity="0.2" stroke-width="1" transform="rotate(300.04923043907104)"></ellipse></g><g transform="translate(67.74027624074574 397.2498991177938)"><ellipse cx="0" cy="0" rx="14.963762181283126" ry="7.481881090641563" fill="#5DD3B6" fill-opacity="0.374094" stroke="#6E5034" stroke-opacity="0.2" stroke-width="1" transform="rotate(155.24195569636652)"></ellipse></g><g transform="translate(191.15338686925298 231.1952172614013)"><ellipse cx="0" cy="0" rx="3.555781162921532" ry="1.777890581460766" fill="#5DD3B6" fill-opacity="0.0888945" stroke="#6E5034" stroke-opacity="0.2" stroke-width="1" transform="rotate(156.01557342555103)"></ellipse></g><g transform="translate(315.71302254631166 457.83213448940637)"><ellipse cx="0" cy="0" rx="8.40159250236012" ry="4.20079625118006" fill="#5DD3B6" fill-opacity="0.21004" stroke="#6E5034" stroke-opacity="0.2" stroke-width="1" transform="rotate(189.04719663448697)"></ellipse></g><g transform="translate(498.0425691179412 140.07764960626824)"><ellipse cx="0" cy="0" rx="15.732343319527534" ry="7.866171659763767" fill="#5DD3B6" fill-opacity="0.393309" stroke="#6E5034" stroke-opacity="0.2" stroke-width="1" transform="rotate(179.75290299657294)"></ellipse></g><g transform="translate(51.75772284254493 142.55250460999818)"><ellipse cx="0" cy="0" rx="3.9160351817047117" ry="1.9580175908523558" fill="#5DD3B6" fill-opacity="0.0979009" stroke="#6E5034" stroke-opacity="0.2" stroke-width="1" transform="rotate(150.97687628806213)"></ellipse></g><g transform="translate(219.56119557987853 185.61820688931024)"><ellipse cx="0" cy="0" rx="7.784917996579816" ry="3.892458998289908" fill="#5DD3B6" fill-opacity="0.194623" stroke="#6E5034" stroke-opacity="0.2" stroke-width="1" transform="rotate(188.3724578293611)"></ellipse></g><g transform="translate(50.38048413887086 476.65864818945425)"><ellipse cx="0" cy="0" rx="8.474098783378274" ry="4.237049391689137" fill="#5DD3B6" fill-opacity="0.211852" stroke="#6E5034" stroke-opacity="0.2" stroke-width="1" transform="rotate(334.7160876152689)"></ellipse></g><g transform="translate(291.04825298373555 478.3571919397021)"><ellipse cx="0" cy="0" rx="16.26709849347283" ry="8.133549246736415" fill="#5DD3B6" fill-opacity="0.406677" stroke="#6E5034" stroke-opacity="0.2" stroke-width="1" transform="rotate(56.46641298769106)"></ellipse></g><g transform="translate(171.04142837037938 91.40473391835346)"><ellipse cx="0" cy="0" rx="11.116207664935159" ry="5.558103832467579" fill="#5DD3B6" fill-opacity="0.277905" stroke="#6E5034" stroke-opacity="0.2" stroke-width="1" transform="rotate(113.51325416076779)"></ellipse></g><g transform="translate(98.84037552413815 392.3194430607488)"><ellipse cx="0" cy="0" rx="8.131766459268155" ry="4.0658832296340774" fill="#5DD3B6" fill-opacity="0.203294" stroke="#6E5034" stroke-opacity="0.2" stroke-width="1" transform="rotate(308.8397501636744)"></ellipse></g><g transform="translate(482.80389753926926 417.5735926926344)"><ellipse cx="0" cy="0" rx="15.895583357540495" ry="7.947791678770248" fill="#5DD3B6" fill-opacity="0.39739" stroke="#6E5034" stroke-opacity="0.2" stroke-width="1" transform="rotate(153.84131951602174)"></ellipse></g><g transform="translate(231.53194030557339 61.08651352201677)"><ellipse cx="0" cy="0" rx="15.8226543133852" ry="7.9113271566926" fill="#5DD3B6" fill-opacity="0.395566" stroke="#6E5034" stroke-opacity="0.2" stroke-width="1" transform="rotate(200.60129008259992)"></ellipse></g><g transform="translate(140.44014039651864 432.4268852429369)"><ellipse cx="0" cy="0" rx="14.97528194120466" ry="7.48764097060233" fill="#5DD3B6" fill-opacity="0.374382" stroke="#6E5034" stroke-opacity="0.2" stroke-width="1" transform="rotate(226.82806672354275)"></ellipse></g><g transform="translate(385.65867922282644 395.0476971503632)"><ellipse cx="0" cy="0" rx="8.736871413947792" ry="4.368435706973896" fill="#5DD3B6" fill-opacity="0.218422" stroke="#6E5034" stroke-opacity="0.2" stroke-width="1" transform="rotate(81.72871769813788)"></ellipse></g><g transform="translate(467.73887020533897 336.951133953387)"><ellipse cx="0" cy="0" rx="3.7073812735181857" ry="1.8536906367590928" fill="#5DD3B6" fill-opacity="0.0926845" stroke="#6E5034" stroke-opacity="0.2" stroke-width="1" transform="rotate(112.42351111364027)"></ellipse></g><g transform="translate(199.4527217138875 308.6125556479081)"><ellipse cx="0" cy="0" rx="7.252777208542356" ry="3.626388604271178" fill="#5DD3B6" fill-opacity="0.181319" stroke="#6E5034" stroke-opacity="0.2" stroke-width="1" transform="rotate(249.891306399915)"></ellipse></g><g transform="translate(167.67906097124035 279.07262328983137)"><ellipse cx="0" cy="0" rx="3.4211309242626866" ry="1.7105654621313433" fill="#5DD3B6" fill-opacity="0.0855283" stroke="#6E5034" stroke-opacity="0.2" stroke-width="1" transform="rotate(184.18461521325204)"></ellipse></g><g transform="translate(144.50063856279073 230.67870219067876)"><ellipse cx="0" cy="0" rx="6.365446934379842" ry="3.182723467189921" fill="#5DD3B6" fill-opacity="0.159136" stroke="#6E5034" stroke-opacity="0.2" stroke-width="1" transform="rotate(42.58026418010273)"></ellipse></g><g transform="translate(302.86616669639704 109.82181453230666)"><ellipse cx="0" cy="0" rx="13.013922595146823" ry="6.506961297573412" fill="#5DD3B6" fill-opacity="0.325348" stroke="#6E5034" stroke-opacity="0.2" stroke-width="1" transform="rotate(28.527185402180205)"></ellipse></g><g transform="translate(187.59310012849156 484.09051677854274)"><ellipse cx="0" cy="0" rx="10.883412138025204" ry="5.441706069012602" fill="#5DD3B6" fill-opacity="0.272085" stroke="#6E5034" stroke-opacity="0.2" stroke-width="1" transform="rotate(77.72764666074501)"></ellipse></g><g transform="translate(178.8791012228273 101.48968034302914)"><ellipse cx="0" cy="0" rx="17.867422702944236" ry="8.933711351472118" fill="#5DD3B6" fill-opacity="0.446686" stroke="#6E5034" stroke-opacity="0.2" stroke-width="1" transform="rotate(347.534310418588)"></ellipse></g><g transform="translate(88.15176887800436 25.130283214113756)"><ellipse cx="0" cy="0" rx="7.690854281169743" ry="3.8454271405848717" fill="#5DD3B6" fill-opacity="0.192271" stroke="#6E5034" stroke-opacity="0.2" stroke-width="1" transform="rotate(277.2648372630773)"></ellipse></g><g transform="translate(103.65131908218767 442.8413906715646)"><ellipse cx="0" cy="0" rx="4.853643890595002" ry="2.426821945297501" fill="#5DD3B6" fill-opacity="0.121341" stroke="#6E5034" stroke-opacity="0.2" stroke-width="1" transform="rotate(310.5607236695274)"></ellipse></g><g transform="translate(319.67097661590566 306.2463284150248)"><ellipse cx="0" cy="0" rx="8.341232151186418" ry="4.170616075593209" fill="#5DD3B6" fill-opacity="0.208531" stroke="#6E5034" stroke-opacity="0.2" stroke-width="1" transform="rotate(51.21088216959113)"></ellipse></g><g transform="translate(331.725765880967 29.56818343111206)"><ellipse cx="0" cy="0" rx="18.42175983398299" ry="9.210879916991495" fill="#5DD3B6" fill-opacity="0.460544" stroke="#6E5034" stroke-opacity="0.2" stroke-width="1" transform="rotate(56.706720342654556)"></ellipse></g><g transform="translate(148.66075613492018 173.67860419291182)"><ellipse cx="0" cy="0" rx="8.060861672344718" ry="4.030430836172359" fill="#5DD3B6" fill-opacity="0.201522" stroke="#6E5034" stroke-opacity="0.2" stroke-width="1" transform="rotate(41.75223935585032)"></ellipse></g><g transform="translate(391.7085751034855 247.78631758823815)"><ellipse cx="0" cy="0" rx="15.930831391615536" ry="7.965415695807768" fill="#5DD3B6" fill-opacity="0.398271" stroke="#6E5034" stroke-opacity="0.2" stroke-width="1" transform="rotate(72.22216793482565)"></ellipse></g><g transform="translate(103.36244694638836 191.19343338178558)"><ellipse cx="0" cy="0" rx="7.24328264735568" ry="3.62164132367784" fill="#5DD3B6" fill-opacity="0.181082" stroke="#6E5034" stroke-opacity="0.2" stroke-width="1" transform="rotate(276.14516236682914)"></ellipse></g><g transform="translate(274.1805341859725 303.2468937266614)"><ellipse cx="0" cy="0" rx="6.795778174456373" ry="3.3978890872281866" fill="#5DD3B6" fill-opacity="0.169894" stroke="#6E5034" stroke-opacity="0.2" stroke-width="1" transform="rotate(252.1843631357048)"></ellipse></g><g transform="translate(485.2416557907653 235.770927004445)"><ellipse cx="0" cy="0" rx="15.080081721391753" ry="7.540040860695877" fill="#5DD3B6" fill-opacity="0.377002" stroke="#6E5034" stroke-opacity="0.2" stroke-width="1" transform="rotate(13.690094821838379)"></ellipse></g><g transform="translate(481.16027531800415 32.70936107884687)"><ellipse cx="0" cy="0" rx="17.85291166233543" ry="8.926455831167715" fill="#5DD3B6" fill-opacity="0.446323" stroke="#6E5034" stroke-opacity="0.2" stroke-width="1" transform="rotate(200.30936679855785)"></ellipse></g><g transform="translate(146.63472800349524 260.029648181775)"><ellipse cx="0" cy="0" rx="8.240625265573666" ry="4.120312632786833" fill="#5DD3B6" fill-opacity="0.206016" stroke="#6E5034" stroke-opacity="0.2" stroke-width="1" transform="rotate(66.74070244430514)"></ellipse></g><g transform="translate(346.178267054706 286.72965260749936)"><ellipse cx="0" cy="0" rx="7.637617699041675" ry="3.8188088495208374" fill="#5DD3B6" fill-opacity="0.19094" stroke="#6E5034" stroke-opacity="0.2" stroke-width="1" transform="rotate(158.81572802341262)"></ellipse></g><g transform="translate(213.61858111166737 183.48832490895833)"><ellipse cx="0" cy="0" rx="16.764959897154363" ry="8.382479948577181" fill="#5DD3B6" fill-opacity="0.419124" stroke="#6E5034" stroke-opacity="0.2" stroke-width="1" transform="rotate(23.183689738184086)"></ellipse></g><g transform="translate(462.7394947044175 95.59805472945426)"><ellipse cx="0" cy="0" rx="11.25327347955434" ry="5.62663673977717" fill="#5DD3B6" fill-opacity="0.281332" stroke="#6E5034" stroke-opacity="0.2" stroke-width="1" transform="rotate(57.61461758069876)"></ellipse></g><g transform="translate(423.2886816665528 468.2388312461278)"><ellipse cx="0" cy="0" rx="18.182919113947655" ry="9.091459556973827" fill="#5DD3B6" fill-opacity="0.454573" stroke="#6E5034" stroke-opacity="0.2" stroke-width="1" transform="rotate(94.8701600894087)"></ellipse></g><g transform="translate(428.9630206698841 119.43931866893637)"><ellipse cx="0" cy="0" rx="8.745535562439368" ry="4.372767781219684" fill="#5DD3B6" fill-opacity="0.218638" stroke="#6E5034" stroke-opacity="0.2" stroke-width="1" transform="rotate(267.5413204546792)"></ellipse></g><g transform="translate(471.05566718624084 290.8630238057217)"><ellipse cx="0" cy="0" rx="11.247595695503554" ry="5.623797847751777" fill="#5DD3B6" fill-opacity="0.28119" stroke="#6E5034" stroke-opacity="0.2" stroke-width="1" transform="rotate(247.27224494111042)"></ellipse></g><g transform="translate(110.33105833350277 112.03588022253142)"><ellipse cx="0" cy="0" rx="18.209702291072936" ry="9.104851145536468" fill="#5DD3B6" fill-opacity="0.455243" stroke="#6E5034" stroke-opacity="0.2" stroke-width="1" transform="rotate(202.60547784053387)"></ellipse></g><g transform="translate(347.6325139335748 431.4306147053477)"><ellipse cx="0" cy="0" rx="19.468539861933884" ry="9.734269930966942" fill="#5DD3B6" fill-opacity="0.486713" stroke="#6E5034" stroke-opacity="0.2" stroke-width="1" transform="rotate(289.90973220702296)"></ellipse></g><g transform="translate(134.53824798043067 169.7369014024695)"><ellipse cx="0" cy="0" rx="15.882190570001688" ry="7.941095285000844" fill="#5DD3B6" fill-opacity="0.397055" stroke="#6E5034" stroke-opacity="0.2" stroke-width="1" transform="rotate(107.40213778930138)"></ellipse></g><g transform="translate(451.4299884381102 443.80068940587086)"><ellipse cx="0" cy="0" rx="16.25354151685896" ry="8.12677075842948" fill="#5DD3B6" fill-opacity="0.406339" stroke="#6E5034" stroke-opacity="0.2" stroke-width="1" transform="rotate(247.38533886327588)"></ellipse></g><g transform="translate(99.73908620342343 304.6133698652636)"><ellipse cx="0" cy="0" rx="14.628796996905422" ry="7.314398498452711" fill="#5DD3B6" fill-opacity="0.36572" stroke="#6E5034" stroke-opacity="0.2" stroke-width="1" transform="rotate(3.8233961335438327)"></ellipse></g><g transform="translate(88.76320376998292 43.789615997055165)"><ellipse cx="0" cy="0" rx="17.706901257018103" ry="8.853450628509052" fill="#5DD3B6" fill-opacity="0.442673" stroke="#6E5034" stroke-opacity="0.2" stroke-width="1" transform="rotate(50.254612784933805)"></ellipse></g><g transform="translate(422.54443117348586 48.097204217015744)"><ellipse cx="0" cy="0" rx="7.560031446883045" ry="3.7800157234415224" fill="#5DD3B6" fill-opacity="0.189001" stroke="#6E5034" stroke-opacity="0.2" stroke-width="1" transform="rotate(183.89415753227692)"></ellipse></g><g transform="translate(148.73107861564688 133.20807941306322)"><ellipse cx="0" cy="0" rx="15.534328707562866" ry="7.767164353781433" fill="#5DD3B6" fill-opacity="0.388358" stroke="#6E5034" stroke-opacity="0.2" stroke-width="1" transform="rotate(201.31405178943052)"></ellipse></g><g transform="translate(118.40849626165412 13.701640848476027)"><ellipse cx="0" cy="0" rx="12.741152110067123" ry="6.3705760550335615" fill="#5DD3B6" fill-opacity="0.318529" stroke="#6E5034" stroke-opacity="0.2" stroke-width="1" transform="rotate(197.29064551832488)"></ellipse></g><g transform="translate(275.43856875979446 342.0570119481691)"><ellipse cx="0" cy="0" rx="10.73316505391938" ry="5.36658252695969" fill="#5DD3B6" fill-opacity="0.268329" stroke="#6E5034" stroke-opacity="0.2" stroke-width="1" transform="rotate(232.99905474920138)"></ellipse></g><g transform="translate(225.50011883744102 385.9097584615239)"><ellipse cx="0" cy="0" rx="7.550954603560436" ry="3.775477301780218" fill="#5DD3B6" fill-opacity="0.188774" stroke="#6E5034" stroke-opacity="0.2" stroke-width="1" transform="rotate(339.08198246801703)"></ellipse></g><g transform="translate(69.02623141359187 254.82024626815152)"><ellipse cx="0" cy="0" rx="3.189860854592996" ry="1.594930427296498" fill="#5DD3B6" fill-opacity="0.0797465" stroke="#6E5034" stroke-opacity="0.2" stroke-width="1" transform="rotate(59.907554848798604)"></ellipse></g><g transform="translate(389.62637594124806 163.20348383332916)"><ellipse cx="0" cy="0" rx="7.433265936194406" ry="3.716632968097203" fill="#5DD3B6" fill-opacity="0.185832" stroke="#6E5034" stroke-opacity="0.2" stroke-width="1" transform="rotate(95.62584354802236)"></ellipse></g><g transform="translate(240.35655370422793 180.3732629485887)"><ellipse cx="0" cy="0" rx="18.850377327873975" ry="9.425188663936988" fill="#5DD3B6" fill-opacity="0.471259" stroke="#6E5034" stroke-opacity="0.2" stroke-width="1" transform="rotate(118.38822208496335)"></ellipse></g><g transform="translate(143.63733494556698 88.18637792325335)"><ellipse cx="0" cy="0" rx="2.441100415713064" ry="1.220550207856532" fill="#5DD3B6" fill-opacity="0.0610275" stroke="#6E5034" stroke-opacity="0.2" stroke-width="1" transform="rotate(290.7808948936587)"></ellipse></g><g transform="translate(82.16972416859264 422.3153924263523)"><ellipse cx="0" cy="0" rx="16.548832113885865" ry="8.274416056942933" fill="#5DD3B6" fill-opacity="0.413721" stroke="#6E5034" stroke-opacity="0.2" stroke-width="1" transform="rotate(159.30344448152397)"></ellipse></g><g transform="translate(345.3965783236102 111.45805342138388)"><ellipse cx="0" cy="0" rx="4.396369428194671" ry="2.1981847140973354" fill="#5DD3B6" fill-opacity="0.109909" stroke="#6E5034" stroke-opacity="0.2" stroke-width="1" transform="rotate(356.0465280511008)"></ellipse></g><g transform="translate(13.125790309111151 495.1877667514988)"><ellipse cx="0" cy="0" rx="18.59703067648126" ry="9.29851533824063" fill="#5DD3B6" fill-opacity="0.464926" stroke="#6E5034" stroke-opacity="0.2" stroke-width="1" transform="rotate(179.3947426442896)"></ellipse></g><g transform="translate(490.1227789458066 250.19620220027326)"><ellipse cx="0" cy="0" rx="15.002404708780668" ry="7.501202354390334" fill="#5DD3B6" fill-opacity="0.37506" stroke="#6E5034" stroke-opacity="0.2" stroke-width="1" transform="rotate(129.1048548893505)"></ellipse></g><g transform="translate(272.9617217384087 418.27103184691686)"><ellipse cx="0" cy="0" rx="5.058433754837196" ry="2.529216877418598" fill="#5DD3B6" fill-opacity="0.126461" stroke="#6E5034" stroke-opacity="0.2" stroke-width="1" transform="rotate(16.43062212251287)"></ellipse></g><g transform="translate(186.05246973723627 107.4554634846781)"><ellipse cx="0" cy="0" rx="18.017150823505364" ry="9.008575411752682" fill="#5DD3B6" fill-opacity="0.450429" stroke="#6E5034" stroke-opacity="0.2" stroke-width="1" transform="rotate(334.26010844417016)"></ellipse></g><g transform="translate(462.2067194225276 350.9026338985515)"><ellipse cx="0" cy="0" rx="16.783714048488335" ry="8.391857024244167" fill="#5DD3B6" fill-opacity="0.419593" stroke="#6E5034" stroke-opacity="0.2" stroke-width="1" transform="rotate(90.31999669748076)"></ellipse></g><g transform="translate(170.04185676373257 224.76749880124763)"><ellipse cx="0" cy="0" rx="12.233622985711918" ry="6.116811492855959" fill="#5DD3B6" fill-opacity="0.305841" stroke="#6E5034" stroke-opacity="0.2" stroke-width="1" transform="rotate(111.45870799204612)"></ellipse></g><g transform="translate(232.99308033659938 382.5262653655594)"><ellipse cx="0" cy="0" rx="19.59886681037405" ry="9.799433405187026" fill="#5DD3B6" fill-opacity="0.489972" stroke="#6E5034" stroke-opacity="0.2" stroke-width="1" transform="rotate(318.79418482415963)"></ellipse></g><g transform="translate(479.460835895816 402.62718835110593)"><ellipse cx="0" cy="0" rx="17.037269028879496" ry="8.518634514439748" fill="#5DD3B6" fill-opacity="0.425932" stroke="#6E5034" stroke-opacity="0.2" stroke-width="1" transform="rotate(77.7591968710394)"></ellipse></g><g transform="translate(311.4695466024888 150.4235622947022)"><ellipse cx="0" cy="0" rx="19.63971401546113" ry="9.819857007730565" fill="#5DD3B6" fill-opacity="0.490993" stroke="#6E5034" stroke-opacity="0.2" stroke-width="1" transform="rotate(136.12520659224649)"></ellipse></g><g transform="translate(284.23828345272415 213.56822578752076)"><ellipse cx="0" cy="0" rx="9.174041003168957" ry="4.587020501584479" fill="#5DD3B6" fill-opacity="0.229351" stroke="#6E5034" stroke-opacity="0.2" stroke-width="1" transform="rotate(298.13753248490457)"></ellipse></g><g transform="translate(444.73054382164935 289.14720871231555)"><ellipse cx="0" cy="0" rx="8.957281076623712" ry="4.478640538311856" fill="#5DD3B6" fill-opacity="0.223932" stroke="#6E5034" stroke-opacity="0.2" stroke-width="1" transform="rotate(37.325744994507566)"></ellipse></g><g transform="translate(498.9834815484985 446.4714051524978)"><ellipse cx="0" cy="0" rx="18.21377192005004" ry="9.10688596002502" fill="#5DD3B6" fill-opacity="0.455344" stroke="#6E5034" stroke-opacity="0.2" stroke-width="1" transform="rotate(36.46954340385482)"></ellipse></g><g transform="translate(390.0690321272427 144.304369902426)"><ellipse cx="0" cy="0" rx="3.782922368360847" ry="1.8914611841804234" fill="#5DD3B6" fill-opacity="0.0945731" stroke="#6E5034" stroke-opacity="0.2" stroke-width="1" transform="rotate(255.50856993864002)"></ellipse></g><g transform="translate(463.79784220953496 152.4448487921622)"><ellipse cx="0" cy="0" rx="16.021355088459593" ry="8.010677544229797" fill="#5DD3B6" fill-opacity="0.400534" stroke="#6E5034" stroke-opacity="0.2" stroke-width="1" transform="rotate(67.70431198257032)"></ellipse></g><g transform="translate(469.17148153470515 217.6442914535956)"><ellipse cx="0" cy="0" rx="17.100825854082657" ry="8.550412927041329" fill="#5DD3B6" fill-opacity="0.427521" stroke="#6E5034" stroke-opacity="0.2" stroke-width="1" transform="rotate(284.009637454305)"></ellipse></g><g transform="translate(61.58341499197956 319.21399646276603)"><ellipse cx="0" cy="0" rx="12.045186472568371" ry="6.022593236284186" fill="#5DD3B6" fill-opacity="0.30113" stroke="#6E5034" stroke-opacity="0.2" stroke-width="1" transform="rotate(178.33312429187538)"></ellipse></g><g transform="translate(443.3503069407422 303.6468324009385)"><ellipse cx="0" cy="0" rx="15.83923527208494" ry="7.91961763604247" fill="#5DD3B6" fill-opacity="0.395981" stroke="#6E5034" stroke-opacity="0.2" stroke-width="1" transform="rotate(119.66714602650691)"></ellipse></g><g transform="translate(136.85424049349905 27.34377127970977)"><ellipse cx="0" cy="0" rx="12.439502626279829" ry="6.2197513131399145" fill="#5DD3B6" fill-opacity="0.310988" stroke="#6E5034" stroke-opacity="0.2" stroke-width="1" transform="rotate(8.789201586131412)"></ellipse></g><g transform="translate(16.41641981135189 361.5159441943442)"><ellipse cx="0" cy="0" rx="8.5443293415777" ry="4.27216467078885" fill="#5DD3B6" fill-opacity="0.213608" stroke="#6E5034" stroke-opacity="0.2" stroke-width="1" transform="rotate(37.61678151146381)"></ellipse></g><g transform="translate(324.8503211339893 311.0610413735359)"><ellipse cx="0" cy="0" rx="15.485956677384241" ry="7.7429783386921205" fill="#5DD3B6" fill-opacity="0.387149" stroke="#6E5034" stroke-opacity="0.2" stroke-width="1" transform="rotate(206.40592540482186)"></ellipse></g><g transform="translate(37.98796541390498 380.6215628598189)"><ellipse cx="0" cy="0" rx="19.802829821518586" ry="9.901414910759293" fill="#5DD3B6" fill-opacity="0.495071" stroke="#6E5034" stroke-opacity="0.2" stroke-width="1" transform="rotate(260.8172760456487)"></ellipse></g><g transform="translate(441.4123373223285 160.55244842387222)"><ellipse cx="0" cy="0" rx="15.259077062464893" ry="7.629538531232447" fill="#5DD3B6" fill-opacity="0.381477" stroke="#6E5034" stroke-opacity="0.2" stroke-width="1" transform="rotate(28.871207214704167)"></ellipse></g><g transform="translate(246.90696925609302 455.52216327822254)"><ellipse cx="0" cy="0" rx="17.683678379404615" ry="8.841839189702307" fill="#5DD3B6" fill-opacity="0.442092" stroke="#6E5034" stroke-opacity="0.2" stroke-width="1" transform="rotate(283.37797334572906)"></ellipse></g><g transform="translate(431.05236661865166 432.4374006977583)"><ellipse cx="0" cy="0" rx="16.61510088391576" ry="8.30755044195788" fill="#5DD3B6" fill-opacity="0.415378" stroke="#6E5034" stroke-opacity="0.2" stroke-width="1" transform="rotate(90.0533541534796)"></ellipse></g><g transform="translate(161.24555486002174 446.61630059573173)"><ellipse cx="0" cy="0" rx="3.3250387446790066" ry="1.6625193723395033" fill="#5DD3B6" fill-opacity="0.083126" stroke="#6E5034" stroke-opacity="0.2" stroke-width="1" transform="rotate(35.495430562621635)"></ellipse></g><g transform="translate(368.1047103245881 154.19437841489676)"><ellipse cx="0" cy="0" rx="2.7077879741945154" ry="1.3538939870972577" fill="#5DD3B6" fill-opacity="0.0676947" stroke="#6E5034" stroke-opacity="0.2" stroke-width="1" transform="rotate(131.1604854048275)"></ellipse></g><g transform="translate(371.8830250004144 155.0834418781779)"><ellipse cx="0" cy="0" rx="2.4210704034197104" ry="1.2105352017098552" fill="#5DD3B6" fill-opacity="0.0605268" stroke="#6E5034" stroke-opacity="0.2" stroke-width="1" transform="rotate(67.31533005596962)"></ellipse></g><g transform="translate(450.8777558742203 202.65780682532537)"><ellipse cx="0" cy="0" rx="12.313548773935407" ry="6.156774386967704" fill="#5DD3B6" fill-opacity="0.307839" stroke="#6E5034" stroke-opacity="0.2" stroke-width="1" transform="rotate(319.3544318789107)"></ellipse></g><g transform="translate(205.98584449524876 344.39333836865)"><ellipse cx="0" cy="0" rx="7.265662197826542" ry="3.632831098913271" fill="#5DD3B6" fill-opacity="0.181642" stroke="#6E5034" stroke-opacity="0.2" stroke-width="1" transform="rotate(41.00854205517477)"></ellipse></g><g transform="translate(314.74909470825617 230.2687749708273)"><ellipse cx="0" cy="0" rx="5.48719623978132" ry="2.74359811989066" fill="#5DD3B6" fill-opacity="0.13718" stroke="#6E5034" stroke-opacity="0.2" stroke-width="1" transform="rotate(331.73602051769444)"></ellipse></g><g transform="translate(467.9703827281697 104.20687841578335)"><ellipse cx="0" cy="0" rx="2.680889383037699" ry="1.3404446915188495" fill="#5DD3B6" fill-opacity="0.0670222" stroke="#6E5034" stroke-opacity="0.2" stroke-width="1" transform="rotate(64.86129228786601)"></ellipse></g><g transform="translate(118.67526814571855 365.10235920711926)"><ellipse cx="0" cy="0" rx="17.141884523517035" ry="8.570942261758518" fill="#5DD3B6" fill-opacity="0.428547" stroke="#6E5034" stroke-opacity="0.2" stroke-width="1" transform="rotate(107.05432879799572)"></ellipse></g><g transform="translate(161.803038476024 292.6366992621885)"><ellipse cx="0" cy="0" rx="3.81563146005629" ry="1.907815730028145" fill="#5DD3B6" fill-opacity="0.0953908" stroke="#6E5034" stroke-opacity="0.2" stroke-width="1" transform="rotate(32.62121040564271)"></ellipse></g><g transform="translate(11.323722890443033 280.96765734264744)"><ellipse cx="0" cy="0" rx="9.133064745913702" ry="4.566532372956851" fill="#5DD3B6" fill-opacity="0.228327" stroke="#6E5034" stroke-opacity="0.2" stroke-width="1" transform="rotate(139.80601054544275)"></ellipse></g><g transform="translate(226.8536978272625 312.20838581955036)"><ellipse cx="0" cy="0" rx="8.534186317147556" ry="4.267093158573778" fill="#5DD3B6" fill-opacity="0.213355" stroke="#6E5034" stroke-opacity="0.2" stroke-width="1" transform="rotate(281.42574426713463)"></ellipse></g><g transform="translate(414.22220317146906 417.540252688567)"><ellipse cx="0" cy="0" rx="19.742577908259648" ry="9.871288954129824" fill="#5DD3B6" fill-opacity="0.493564" stroke="#6E5034" stroke-opacity="0.2" stroke-width="1" transform="rotate(16.829940615262096)"></ellipse></g><g transform="translate(303.9744254701649 112.77226622944431)"><ellipse cx="0" cy="0" rx="15.448137721005423" ry="7.724068860502712" fill="#5DD3B6" fill-opacity="0.386203" stroke="#6E5034" stroke-opacity="0.2" stroke-width="1" transform="rotate(306.32027569362543)"></ellipse></g><g transform="translate(301.83205892366436 395.0711353384183)"><ellipse cx="0" cy="0" rx="3.0117296944412293" ry="1.5058648472206146" fill="#5DD3B6" fill-opacity="0.0752932" stroke="#6E5034" stroke-opacity="0.2" stroke-width="1" transform="rotate(26.13084778009017)"></ellipse></g><g transform="translate(298.87577894629385 297.522599444036)"><ellipse cx="0" cy="0" rx="5.111047800136066" ry="2.555523900068033" fill="#5DD3B6" fill-opacity="0.127776" stroke="#6E5034" stroke-opacity="0.2" stroke-width="1" transform="rotate(350.23874230248833)"></ellipse></g><g transform="translate(411.18856369514543 124.63597995250286)"><ellipse cx="0" cy="0" rx="9.666755469814621" ry="4.833377734907311" fill="#5DD3B6" fill-opacity="0.241669" stroke="#6E5034" stroke-opacity="0.2" stroke-width="1" transform="rotate(291.39974142242113)"></ellipse></g><g transform="translate(169.12064885265465 336.8825175736065)"><ellipse cx="0" cy="0" rx="9.693295644487094" ry="4.846647822243547" fill="#5DD3B6" fill-opacity="0.242332" stroke="#6E5034" stroke-opacity="0.2" stroke-width="1" transform="rotate(166.83666787275104)"></ellipse></g><g transform="translate(136.19317328297825 368.22763419510346)"><ellipse cx="0" cy="0" rx="2.249717626735025" ry="1.1248588133675126" fill="#5DD3B6" fill-opacity="0.0562429" stroke="#6E5034" stroke-opacity="0.2" stroke-width="1" transform="rotate(290.52980906131836)"></ellipse></g><g transform="translate(91.58266897914724 77.15301174324868)"><ellipse cx="0" cy="0" rx="15.87844830574545" ry="7.939224152872725" fill="#5DD3B6" fill-opacity="0.396961" stroke="#6E5034" stroke-opacity="0.2" stroke-width="1" transform="rotate(153.0842036517351)"></ellipse></g><g transform="translate(435.47128481321903 339.2619999947561)"><ellipse cx="0" cy="0" rx="11.88035588936069" ry="5.940177944680345" fill="#5DD3B6" fill-opacity="0.297009" stroke="#6E5034" stroke-opacity="0.2" stroke-width="1" transform="rotate(246.7873960309161)"></ellipse></g><g transform="translate(94.16931835110076 135.85817993167743)"><ellipse cx="0" cy="0" rx="17.95063380192144" ry="8.97531690096072" fill="#5DD3B6" fill-opacity="0.448766" stroke="#6E5034" stroke-opacity="0.2" stroke-width="1" transform="rotate(280.3255582230771)"></ellipse></g><g transform="translate(46.97161504351016 399.68019199165917)"><ellipse cx="0" cy="0" rx="10.002555533460916" ry="5.001277766730458" fill="#5DD3B6" fill-opacity="0.250064" stroke="#6E5034" stroke-opacity="0.2" stroke-width="1" transform="rotate(112.27986753714843)"></ellipse></g><g transform="translate(380.60343983088876 461.8345479276469)"><ellipse cx="0" cy="0" rx="2.977756553302671" ry="1.4888782766513355" fill="#5DD3B6" fill-opacity="0.0744439" stroke="#6E5034" stroke-opacity="0.2" stroke-width="1" transform="rotate(352.53173782877883)"></ellipse></g><g transform="translate(446.1988790620362 66.87528501072005)"><ellipse cx="0" cy="0" rx="13.829774280877768" ry="6.914887140438884" fill="#5DD3B6" fill-opacity="0.345744" stroke="#6E5034" stroke-opacity="0.2" stroke-width="1" transform="rotate(265.252814034893)"></ellipse></g><g transform="translate(272.35912371875327 476.9263620722557)"><ellipse cx="0" cy="0" rx="18.799707613981646" ry="9.399853806990823" fill="#5DD3B6" fill-opacity="0.469993" stroke="#6E5034" stroke-opacity="0.2" stroke-width="1" transform="rotate(38.186129286957026)"></ellipse></g><g transform="translate(216.4080130865199 258.15699706543995)"><ellipse cx="0" cy="0" rx="12.635010911143018" ry="6.317505455571509" fill="#5DD3B6" fill-opacity="0.315875" stroke="#6E5034" stroke-opacity="0.2" stroke-width="1" transform="rotate(243.78617450317003)"></ellipse></g><g transform="translate(364.77417642884274 388.37181635858104)"><ellipse cx="0" cy="0" rx="12.261119875795341" ry="6.1305599378976705" fill="#5DD3B6" fill-opacity="0.306528" stroke="#6E5034" stroke-opacity="0.2" stroke-width="1" transform="rotate(50.50668645432448)"></ellipse></g><g transform="translate(72.81386866675777 305.50850948149565)"><ellipse cx="0" cy="0" rx="7.1099427468174525" ry="3.5549713734087263" fill="#5DD3B6" fill-opacity="0.177749" stroke="#6E5034" stroke-opacity="0.2" stroke-width="1" transform="rotate(35.19102716994838)"></ellipse></g><g transform="translate(36.846554735070484 187.62433632882082)"><ellipse cx="0" cy="0" rx="16.08620162718549" ry="8.043100813592744" fill="#5DD3B6" fill-opacity="0.402155" stroke="#6E5034" stroke-opacity="0.2" stroke-width="1" transform="rotate(86.68234606900074)"></ellipse></g><g transform="translate(396.0284900188433 425.9231373395747)"><ellipse cx="0" cy="0" rx="9.817383888220192" ry="4.908691944110096" fill="#5DD3B6" fill-opacity="0.245435" stroke="#6E5034" stroke-opacity="0.2" stroke-width="1" transform="rotate(138.38209606953797)"></ellipse></g><g transform="translate(354.32652536920136 58.112822817153464)"><ellipse cx="0" cy="0" rx="15.016316337124296" ry="7.508158168562148" fill="#5DD3B6" fill-opacity="0.375408" stroke="#6E5034" stroke-opacity="0.2" stroke-width="1" transform="rotate(330.7155754505477)"></ellipse></g><g transform="translate(423.1072789053976 155.83451467670483)"><ellipse cx="0" cy="0" rx="19.25935780245758" ry="9.62967890122879" fill="#5DD3B6" fill-opacity="0.481484" stroke="#6E5034" stroke-opacity="0.2" stroke-width="1" transform="rotate(65.15964509220498)"></ellipse></g><g transform="translate(350.9523910903547 286.2665697831354)"><ellipse cx="0" cy="0" rx="19.13613810118023" ry="9.568069050590115" fill="#5DD3B6" fill-opacity="0.478403" stroke="#6E5034" stroke-opacity="0.2" stroke-width="1" transform="rotate(36.430072817566625)"></ellipse></g><g transform="translate(486.91184914584517 419.9097000527859)"><ellipse cx="0" cy="0" rx="17.138615504106344" ry="8.569307752053172" fill="#5DD3B6" fill-opacity="0.428465" stroke="#6E5034" stroke-opacity="0.2" stroke-width="1" transform="rotate(209.30338945460468)"></ellipse></g><g transform="translate(210.0970997863152 343.88590033106505)"><ellipse cx="0" cy="0" rx="16.83416741913199" ry="8.417083709565995" fill="#5DD3B6" fill-opacity="0.420854" stroke="#6E5034" stroke-opacity="0.2" stroke-width="1" transform="rotate(61.61149327955587)"></ellipse></g><g transform="translate(440.17649002394415 460.6888445894292)"><ellipse cx="0" cy="0" rx="14.824627224348685" ry="7.4123136121743425" fill="#5DD3B6" fill-opacity="0.370616" stroke="#6E5034" stroke-opacity="0.2" stroke-width="1" transform="rotate(185.4714366001736)"></ellipse></g><g transform="translate(158.73552282153875 134.05275320884758)"><ellipse cx="0" cy="0" rx="2.855417777967425" ry="1.4277088889837124" fill="#5DD3B6" fill-opacity="0.0713854" stroke="#6E5034" stroke-opacity="0.2" stroke-width="1" transform="rotate(353.90713833537444)"></ellipse></g><g transform="translate(361.5198818007257 108.11670958875658)"><ellipse cx="0" cy="0" rx="13.114939133763208" ry="6.557469566881604" fill="#5DD3B6" fill-opacity="0.327873" stroke="#6E5034" stroke-opacity="0.2" stroke-width="1" transform="rotate(50.595036664179815)"></ellipse></g><g transform="translate(215.32291572525224 370.76634606586254)"><ellipse cx="0" cy="0" rx="13.32690741050267" ry="6.663453705251335" fill="#5DD3B6" fill-opacity="0.333173" stroke="#6E5034" stroke-opacity="0.2" stroke-width="1" transform="rotate(252.50882753769469)"></ellipse></g><g transform="translate(341.10479817477363 132.4852352137853)"><ellipse cx="0" cy="0" rx="15.757847679705367" ry="7.878923839852684" fill="#5DD3B6" fill-opacity="0.393946" stroke="#6E5034" stroke-opacity="0.2" stroke-width="1" transform="rotate(110.59987845278125)"></ellipse></g><g transform="translate(312.3602679760896 224.31592991611632)"><ellipse cx="0" cy="0" rx="4.117270107013215" ry="2.0586350535066074" fill="#5DD3B6" fill-opacity="0.102932" stroke="#6E5034" stroke-opacity="0.2" stroke-width="1" transform="rotate(277.1424412521784)"></ellipse></g><g transform="translate(211.44132355489637 368.0030614617658)"><ellipse cx="0" cy="0" rx="9.709387376763523" ry="4.8546936883817615" fill="#5DD3B6" fill-opacity="0.242735" stroke="#6E5034" stroke-opacity="0.2" stroke-width="1" transform="rotate(10.51505203702391)"></ellipse></g><g transform="translate(241.92587489476102 19.538081761967806)"><ellipse cx="0" cy="0" rx="16.3542395905389" ry="8.17711979526945" fill="#5DD3B6" fill-opacity="0.408856" stroke="#6E5034" stroke-opacity="0.2" stroke-width="1" transform="rotate(30.722476725457536)"></ellipse></g><g transform="translate(397.91247719498955 138.9761248670483)"><ellipse cx="0" cy="0" rx="10.283390077061622" ry="5.141695038530811" fill="#5DD3B6" fill-opacity="0.257085" stroke="#6E5034" stroke-opacity="0.2" stroke-width="1" transform="rotate(20.113000083040763)"></ellipse></g><g transform="translate(37.71171238791465 406.4384945122194)"><ellipse cx="0" cy="0" rx="12.474904002810765" ry="6.237452001405383" fill="#5DD3B6" fill-opacity="0.311873" stroke="#6E5034" stroke-opacity="0.2" stroke-width="1" transform="rotate(79.58073451108012)"></ellipse></g><g transform="translate(373.4153258398933 36.14701521755115)"><ellipse cx="0" cy="0" rx="9.05523333518514" ry="4.52761666759257" fill="#5DD3B6" fill-opacity="0.226381" stroke="#6E5034" stroke-opacity="0.2" stroke-width="1" transform="rotate(217.66979090475314)"></ellipse></g><g transform="translate(139.65236955608944 407.9908272845693)"><ellipse cx="0" cy="0" rx="16.228697734409046" ry="8.114348867204523" fill="#5DD3B6" fill-opacity="0.405717" stroke="#6E5034" stroke-opacity="0.2" stroke-width="1" transform="rotate(119.80564177252074)"></ellipse></g><g transform="translate(446.67966949279025 255.41996681423473)"><ellipse cx="0" cy="0" rx="10.30804206202417" ry="5.154021031012085" fill="#5DD3B6" fill-opacity="0.257701" stroke="#6E5034" stroke-opacity="0.2" stroke-width="1" transform="rotate(322.98340077354715)"></ellipse></g><g transform="translate(129.9719416690362 402.68253884185145)"><ellipse cx="0" cy="0" rx="11.657596299992676" ry="5.828798149996338" fill="#5DD3B6" fill-opacity="0.29144" stroke="#6E5034" stroke-opacity="0.2" stroke-width="1" transform="rotate(61.70310799488998)"></ellipse></g><g transform="translate(105.36349511923521 378.23120040607745)"><ellipse cx="0" cy="0" rx="11.007818885242362" ry="5.503909442621181" fill="#5DD3B6" fill-opacity="0.275195" stroke="#6E5034" stroke-opacity="0.2" stroke-width="1" transform="rotate(66.68711309453884)"></ellipse></g><g transform="translate(58.03554270616546 313.71624915493925)"><ellipse cx="0" cy="0" rx="14.607747558766466" ry="7.303873779383233" fill="#5DD3B6" fill-opacity="0.365194" stroke="#6E5034" stroke-opacity="0.2" stroke-width="1" transform="rotate(267.09150960286973)"></ellipse></g><g transform="translate(145.1524063186016 227.8559611482477)"><ellipse cx="0" cy="0" rx="13.17811271174154" ry="6.58905635587077" fill="#5DD3B6" fill-opacity="0.329453" stroke="#6E5034" stroke-opacity="0.2" stroke-width="1" transform="rotate(311.90340787473593)"></ellipse></g><g transform="translate(107.36482699971866 107.32650708376384)"><ellipse cx="0" cy="0" rx="2.145043963887469" ry="1.0725219819437346" fill="#5DD3B6" fill-opacity="0.0536261" stroke="#6E5034" stroke-opacity="0.2" stroke-width="1" transform="rotate(292.7133455531346)"></ellipse></g><g transform="translate(162.36158061123558 236.32899578582084)"><ellipse cx="0" cy="0" rx="10.306109599873555" ry="5.153054799936777" fill="#5DD3B6" fill-opacity="0.257653" stroke="#6E5034" stroke-opacity="0.2" stroke-width="1" transform="rotate(223.39932354320922)"></ellipse></g><g transform="translate(237.3540335741115 222.86539906349412)"><ellipse cx="0" cy="0" rx="2.287991751083003" ry="1.1439958755415014" fill="#5DD3B6" fill-opacity="0.0571998" stroke="#6E5034" stroke-opacity="0.2" stroke-width="1" transform="rotate(286.22350366021107)"></ellipse></g><g transform="translate(449.0914221328312 355.3792790958794)"><ellipse cx="0" cy="0" rx="10.889909560837527" ry="5.4449547804187635" fill="#5DD3B6" fill-opacity="0.272248" stroke="#6E5034" stroke-opacity="0.2" stroke-width="1" transform="rotate(156.69374413167122)"></ellipse></g><g transform="translate(471.19628607620194 387.2845791264342)"><ellipse cx="0" cy="0" rx="6.455688782772663" ry="3.2278443913863315" fill="#5DD3B6" fill-opacity="0.161392" stroke="#6E5034" stroke-opacity="0.2" stroke-width="1" transform="rotate(330.718856338305)"></ellipse></g><g transform="translate(467.5443445622659 411.3869772737209)"><ellipse cx="0" cy="0" rx="7.632806362246798" ry="3.816403181123399" fill="#5DD3B6" fill-opacity="0.19082" stroke="#6E5034" stroke-opacity="0.2" stroke-width="1" transform="rotate(98.86133716872959)"></ellipse></g><g transform="translate(182.51175516090927 466.3954945377974)"><ellipse cx="0" cy="0" rx="15.672449286058773" ry="7.836224643029387" fill="#5DD3B6" fill-opacity="0.391811" stroke="#6E5034" stroke-opacity="0.2" stroke-width="1" transform="rotate(272.03525753461855)"></ellipse></g><g transform="translate(156.58020995521994 26.399839265249692)"><ellipse cx="0" cy="0" rx="3.4664886747089616" ry="1.7332443373544808" fill="#5DD3B6" fill-opacity="0.0866622" stroke="#6E5034" stroke-opacity="0.2" stroke-width="1" transform="rotate(105.7673371711668)"></ellipse></g><g transform="translate(158.45184730098893 82.96090269306761)"><ellipse cx="0" cy="0" rx="16.79987487426001" ry="8.399937437130005" fill="#5DD3B6" fill-opacity="0.419997" stroke="#6E5034" stroke-opacity="0.2" stroke-width="1" transform="rotate(55.56667218658139)"></ellipse></g><g transform="translate(126.99661184726763 121.05905914143817)"><ellipse cx="0" cy="0" rx="19.938339217248704" ry="9.969169608624352" fill="#5DD3B6" fill-opacity="0.498458" stroke="#6E5034" stroke-opacity="0.2" stroke-width="1" transform="rotate(295.409087517264)"></ellipse></g><g transform="translate(483.265164725436 479.2388847850437)"><ellipse cx="0" cy="0" rx="15.969539374716472" ry="7.984769687358236" fill="#5DD3B6" fill-opacity="0.399238" stroke="#6E5034" stroke-opacity="0.2" stroke-width="1" transform="rotate(194.02810401398372)"></ellipse></g><g transform="translate(24.054709077182657 361.4438096651575)"><ellipse cx="0" cy="0" rx="11.92216082251048" ry="5.96108041125524" fill="#5DD3B6" fill-opacity="0.298054" stroke="#6E5034" stroke-opacity="0.2" stroke-width="1" transform="rotate(328.1691090872036)"></ellipse></g><g transform="translate(442.79929392320906 79.39828507704222)"><ellipse cx="0" cy="0" rx="9.157390706613766" ry="4.578695353306883" fill="#5DD3B6" fill-opacity="0.228935" stroke="#6E5034" stroke-opacity="0.2" stroke-width="1" transform="rotate(282.9955194832027)"></ellipse></g><g transform="translate(185.35981799071948 242.25225696103624)"><ellipse cx="0" cy="0" rx="10.149344344321795" ry="5.074672172160898" fill="#5DD3B6" fill-opacity="0.253734" stroke="#6E5034" stroke-opacity="0.2" stroke-width="1" transform="rotate(359.019047400537)"></ellipse></g><g transform="translate(289.0190933164666 343.9951509115474)"><ellipse cx="0" cy="0" rx="16.695174514251395" ry="8.347587257125697" fill="#5DD3B6" fill-opacity="0.417379" stroke="#6E5034" stroke-opacity="0.2" stroke-width="1" transform="rotate(315.22542290316187)"></ellipse></g><g transform="translate(166.34301094851662 454.5184465954367)"><ellipse cx="0" cy="0" rx="10.333050148170473" ry="5.166525074085237" fill="#5DD3B6" fill-opacity="0.258326" stroke="#6E5034" stroke-opacity="0.2" stroke-width="1" transform="rotate(112.20110606758715)"></ellipse></g><g transform="translate(202.0768910172822 375.79200161225106)"><ellipse cx="0" cy="0" rx="3.2713331850897513" ry="1.6356665925448757" fill="#5DD3B6" fill-opacity="0.0817833" stroke="#6E5034" stroke-opacity="0.2" stroke-width="1" transform="rotate(44.116446580525164)"></ellipse></g><g transform="translate(496.2500685414838 93.29930126629016)"><ellipse cx="0" cy="0" rx="6.956294912057208" ry="3.478147456028604" fill="#5DD3B6" fill-opacity="0.173907" stroke="#6E5034" stroke-opacity="0.2" stroke-width="1" transform="rotate(125.96377061556123)"></ellipse></g><g transform="translate(131.02301260019405 261.67888898162437)"><ellipse cx="0" cy="0" rx="19.913406683218945" ry="9.956703341609472" fill="#5DD3B6" fill-opacity="0.497835" stroke="#6E5034" stroke-opacity="0.2" stroke-width="1" transform="rotate(89.97416478332501)"></ellipse></g><g transform="translate(393.04669444989537 378.75490461842696)"><ellipse cx="0" cy="0" rx="15.27435538775099" ry="7.637177693875495" fill="#5DD3B6" fill-opacity="0.381859" stroke="#6E5034" stroke-opacity="0.2" stroke-width="1" transform="rotate(71.75614429459306)"></ellipse></g><g transform="translate(186.4694814920597 282.17094906973927)"><ellipse cx="0" cy="0" rx="17.173579160850643" ry="8.586789580425322" fill="#5DD3B6" fill-opacity="0.429339" stroke="#6E5034" stroke-opacity="0.2" stroke-width="1" transform="rotate(31.338902746695183)"></ellipse></g><g transform="translate(204.49654621350655 4.434693236548104)"><ellipse cx="0" cy="0" rx="14.997621757676725" ry="7.498810878838363" fill="#5DD3B6" fill-opacity="0.374941" stroke="#6E5034" stroke-opacity="0.2" stroke-width="1" transform="rotate(180.8223480201388)"></ellipse></g><g transform="translate(20.158736918719388 125.62625045706372)"><ellipse cx="0" cy="0" rx="19.383603766850886" ry="9.691801883425443" fill="#5DD3B6" fill-opacity="0.48459" stroke="#6E5034" stroke-opacity="0.2" stroke-width="1" transform="rotate(46.34106543938866)"></ellipse></g><g transform="translate(46.5227597741446 437.75526490799194)"><ellipse cx="0" cy="0" rx="16.978144043709868" ry="8.489072021854934" fill="#5DD3B6" fill-opacity="0.424454" stroke="#6E5034" stroke-opacity="0.2" stroke-width="1" transform="rotate(224.66997690382055)"></ellipse></g><g transform="translate(106.08877175010467 451.9348863574052)"><ellipse cx="0" cy="0" rx="12.351691553692628" ry="6.175845776846314" fill="#5DD3B6" fill-opacity="0.308792" stroke="#6E5034" stroke-opacity="0.2" stroke-width="1" transform="rotate(303.8867753940192)"></ellipse></g><g transform="translate(274.22603338872574 258.28043019296166)"><ellipse cx="0" cy="0" rx="10.967561373506449" ry="5.483780686753224" fill="#5DD3B6" fill-opacity="0.274189" stroke="#6E5034" stroke-opacity="0.2" stroke-width="1" transform="rotate(142.27434843236782)"></ellipse></g><g transform="translate(468.5030834123518 41.926077341340076)"><ellipse cx="0" cy="0" rx="15.456225021871452" ry="7.728112510935726" fill="#5DD3B6" fill-opacity="0.386406" stroke="#6E5034" stroke-opacity="0.2" stroke-width="1" transform="rotate(228.96441149069878)"></ellipse></g><g transform="translate(461.0063808581457 426.4134079687848)"><ellipse cx="0" cy="0" rx="5.367044798313827" ry="2.6835223991569137" fill="#5DD3B6" fill-opacity="0.134176" stroke="#6E5034" stroke-opacity="0.2" stroke-width="1" transform="rotate(161.80967273767936)"></ellipse></g><g transform="translate(388.12961028160333 343.3052364867405)"><ellipse cx="0" cy="0" rx="9.538305909942753" ry="4.769152954971377" fill="#5DD3B6" fill-opacity="0.238458" stroke="#6E5034" stroke-opacity="0.2" stroke-width="1" transform="rotate(150.47482219937592)"></ellipse></g><g transform="translate(264.0483120028258 52.43199627788686)"><ellipse cx="0" cy="0" rx="11.1098477887314" ry="5.5549238943657" fill="#5DD3B6" fill-opacity="0.277746" stroke="#6E5034" stroke-opacity="0.2" stroke-width="1" transform="rotate(184.16883667809668)"></ellipse></g><g transform="translate(224.57329423671192 292.81269184166126)"><ellipse cx="0" cy="0" rx="13.232245439113623" ry="6.616122719556811" fill="#5DD3B6" fill-opacity="0.330806" stroke="#6E5034" stroke-opacity="0.2" stroke-width="1" transform="rotate(290.3448109372517)"></ellipse></g><g transform="translate(245.04327789138125 277.81403093241505)"><ellipse cx="0" cy="0" rx="18.59057285141304" ry="9.29528642570652" fill="#5DD3B6" fill-opacity="0.464764" stroke="#6E5034" stroke-opacity="0.2" stroke-width="1" transform="rotate(29.79612292654506)"></ellipse></g><g transform="translate(373.09359596863214 480.2864626113465)"><ellipse cx="0" cy="0" rx="12.071390221835332" ry="6.035695110917666" fill="#5DD3B6" fill-opacity="0.301785" stroke="#6E5034" stroke-opacity="0.2" stroke-width="1" transform="rotate(88.8377679086819)"></ellipse></g><g transform="translate(454.53000581103936 324.4404792278698)"><ellipse cx="0" cy="0" rx="6.632662061055345" ry="3.3163310305276723" fill="#5DD3B6" fill-opacity="0.165817" stroke="#6E5034" stroke-opacity="0.2" stroke-width="1" transform="rotate(335.2174259287392)"></ellipse></g><g transform="translate(457.86743705387033 101.9755588676145)"><ellipse cx="0" cy="0" rx="15.28122299503876" ry="7.64061149751938" fill="#5DD3B6" fill-opacity="0.382031" stroke="#6E5034" stroke-opacity="0.2" stroke-width="1" transform="rotate(336.3726424685812)"></ellipse></g><g transform="translate(440.82924527012887 255.69536713458314)"><ellipse cx="0" cy="0" rx="5.892764019418197" ry="2.9463820097090987" fill="#5DD3B6" fill-opacity="0.147319" stroke="#6E5034" stroke-opacity="0.2" stroke-width="1" transform="rotate(180.27951283155306)"></ellipse></g><g transform="translate(489.45879254912086 163.3287715448007)"><ellipse cx="0" cy="0" rx="13.496804748529232" ry="6.748402374264616" fill="#5DD3B6" fill-opacity="0.33742" stroke="#6E5034" stroke-opacity="0.2" stroke-width="1" transform="rotate(99.65921236887485)"></ellipse></g><g transform="translate(452.1683861471446 52.552792790475145)"><ellipse cx="0" cy="0" rx="8.561979510865283" ry="4.280989755432642" fill="#5DD3B6" fill-opacity="0.214049" stroke="#6E5034" stroke-opacity="0.2" stroke-width="1" transform="rotate(202.86344684655106)"></ellipse></g><g transform="translate(164.1284010069743 315.9927542375332)"><ellipse cx="0" cy="0" rx="7.1300625346853845" ry="3.5650312673426923" fill="#5DD3B6" fill-opacity="0.178252" stroke="#6E5034" stroke-opacity="0.2" stroke-width="1" transform="rotate(127.12435580491318)"></ellipse></g><g transform="translate(3.6230713550128857 129.02923499612623)"><ellipse cx="0" cy="0" rx="9.260745550451283" ry="4.630372775225641" fill="#5DD3B6" fill-opacity="0.231519" stroke="#6E5034" stroke-opacity="0.2" stroke-width="1" transform="rotate(327.54039345501207)"></ellipse></g><g transform="translate(189.0500794886658 464.1217248258239)"><ellipse cx="0" cy="0" rx="6.89657991897242" ry="3.44828995948621" fill="#5DD3B6" fill-opacity="0.172414" stroke="#6E5034" stroke-opacity="0.2" stroke-width="1" transform="rotate(122.74042881794085)"></ellipse></g><g transform="translate(449.97717316325617 343.48766976094475)"><ellipse cx="0" cy="0" rx="11.200311838305497" ry="5.600155919152749" fill="#5DD3B6" fill-opacity="0.280008" stroke="#6E5034" stroke-opacity="0.2" stroke-width="1" transform="rotate(339.0286110945889)"></ellipse></g><g transform="translate(216.28526028271756 254.65948521249214)"><ellipse cx="0" cy="0" rx="17.136984700760124" ry="8.568492350380062" fill="#5DD3B6" fill-opacity="0.428425" stroke="#6E5034" stroke-opacity="0.2" stroke-width="1" transform="rotate(52.905688031192085)"></ellipse></g><g transform="translate(120.85526633916277 240.56499701311128)"><ellipse cx="0" cy="0" rx="16.341962913186048" ry="8.170981456593024" fill="#5DD3B6" fill-opacity="0.408549" stroke="#6E5034" stroke-opacity="0.2" stroke-width="1" transform="rotate(252.55231655369514)"></ellipse></g><g transform="translate(270.12828988185765 40.99525052056152)"><ellipse cx="0" cy="0" rx="8.300171268179461" ry="4.150085634089731" fill="#5DD3B6" fill-opacity="0.207504" stroke="#6E5034" stroke-opacity="0.2" stroke-width="1" transform="rotate(257.0693784364805)"></ellipse></g><g transform="translate(326.5238330939967 243.5471748473639)"><ellipse cx="0" cy="0" rx="6.32285488528569" ry="3.161427442642845" fill="#5DD3B6" fill-opacity="0.158071" stroke="#6E5034" stroke-opacity="0.2" stroke-width="1" transform="rotate(288.9206013628055)"></ellipse></g><g transform="translate(74.25682006321654 99.24922843702899)"><ellipse cx="0" cy="0" rx="6.009420545734421" ry="3.0047102728672104" fill="#5DD3B6" fill-opacity="0.150236" stroke="#6E5034" stroke-opacity="0.2" stroke-width="1" transform="rotate(181.989405971092)"></ellipse></g><g transform="translate(206.75819876525853 331.62332958683066)"><ellipse cx="0" cy="0" rx="12.748493587636752" ry="6.374246793818376" fill="#5DD3B6" fill-opacity="0.318712" stroke="#6E5034" stroke-opacity="0.2" stroke-width="1" transform="rotate(281.8675746873335)"></ellipse></g><g transform="translate(455.4360691519358 385.41265655741887)"><ellipse cx="0" cy="0" rx="2.051384939314934" ry="1.025692469657467" fill="#5DD3B6" fill-opacity="0.0512846" stroke="#6E5034" stroke-opacity="0.2" stroke-width="1" transform="rotate(355.2597587193369)"></ellipse></g><g transform="translate(76.25907359573996 338.08842854080024)"><ellipse cx="0" cy="0" rx="19.037181888639534" ry="9.518590944319767" fill="#5DD3B6" fill-opacity="0.47593" stroke="#6E5034" stroke-opacity="0.2" stroke-width="1" transform="rotate(20.96868011955447)"></ellipse></g><g transform="translate(290.99785128927067 387.2569201902245)"><ellipse cx="0" cy="0" rx="16.439643971642226" ry="8.219821985821113" fill="#5DD3B6" fill-opacity="0.410991" stroke="#6E5034" stroke-opacity="0.2" stroke-width="1" transform="rotate(72.1996167585526)"></ellipse></g><g transform="translate(182.3110614028076 497.53281486448816)"><ellipse cx="0" cy="0" rx="17.689543929134835" ry="8.844771964567418" fill="#5DD3B6" fill-opacity="0.442239" stroke="#6E5034" stroke-opacity="0.2" stroke-width="1" transform="rotate(244.69479249429767)"></ellipse></g><g transform="translate(66.82837965123679 307.1162328846224)"><ellipse cx="0" cy="0" rx="18.14893947759362" ry="9.07446973879681" fill="#5DD3B6" fill-opacity="0.453723" stroke="#6E5034" stroke-opacity="0.2" stroke-width="1" transform="rotate(47.90400171258651)"></ellipse></g><g transform="translate(341.27035276105215 317.06755791280625)"><ellipse cx="0" cy="0" rx="13.601558474093185" ry="6.8007792370465925" fill="#5DD3B6" fill-opacity="0.340039" stroke="#6E5034" stroke-opacity="0.2" stroke-width="1" transform="rotate(339.41981762863674)"></ellipse></g><g transform="translate(369.97169451106953 321.19684327452507)"><ellipse cx="0" cy="0" rx="15.951461704696666" ry="7.975730852348333" fill="#5DD3B6" fill-opacity="0.398787" stroke="#6E5034" stroke-opacity="0.2" stroke-width="1" transform="rotate(13.8360421511833)"></ellipse></g><g transform="translate(462.34213266314674 311.72931139370337)"><ellipse cx="0" cy="0" rx="7.113224087043699" ry="3.5566120435218496" fill="#5DD3B6" fill-opacity="0.177831" stroke="#6E5034" stroke-opacity="0.2" stroke-width="1" transform="rotate(31.906887257855857)"></ellipse></g><g transform="translate(269.87201502723343 226.26330973963366)"><ellipse cx="0" cy="0" rx="15.956947960796557" ry="7.978473980398278" fill="#5DD3B6" fill-opacity="0.398924" stroke="#6E5034" stroke-opacity="0.2" stroke-width="1" transform="rotate(133.66895966456084)"></ellipse></g><g transform="translate(262.1567887880796 249.4793504066387)"><ellipse cx="0" cy="0" rx="19.40339721846514" ry="9.70169860923257" fill="#5DD3B6" fill-opacity="0.485085" stroke="#6E5034" stroke-opacity="0.2" stroke-width="1" transform="rotate(180.7838261226403)"></ellipse></g><g transform="translate(332.22911201074066 225.4088460091994)"><ellipse cx="0" cy="0" rx="6.53687232887671" ry="3.268436164438355" fill="#5DD3B6" fill-opacity="0.163422" stroke="#6E5034" stroke-opacity="0.2" stroke-width="1" transform="rotate(197.1247144746773)"></ellipse></g><g transform="translate(492.43013468897254 376.45599033349396)"><ellipse cx="0" cy="0" rx="16.362279676325496" ry="8.181139838162748" fill="#5DD3B6" fill-opacity="0.409057" stroke="#6E5034" stroke-opacity="0.2" stroke-width="1" transform="rotate(56.44295350381476)"></ellipse></g><g transform="translate(168.8967454341242 483.1113243355546)"><ellipse cx="0" cy="0" rx="7.674715358615456" ry="3.837357679307728" fill="#5DD3B6" fill-opacity="0.191868" stroke="#6E5034" stroke-opacity="0.2" stroke-width="1" transform="rotate(249.4300291762029)"></ellipse></g><g transform="translate(190.4229533551554 183.63124607762137)"><ellipse cx="0" cy="0" rx="4.817105235217124" ry="2.408552617608562" fill="#5DD3B6" fill-opacity="0.120428" stroke="#6E5034" stroke-opacity="0.2" stroke-width="1" transform="rotate(298.38749845963207)"></ellipse></g><g transform="translate(497.8375125779805 82.54209278794971)"><ellipse cx="0" cy="0" rx="7.7530263633146745" ry="3.8765131816573373" fill="#5DD3B6" fill-opacity="0.193826" stroke="#6E5034" stroke-opacity="0.2" stroke-width="1" transform="rotate(154.5127602001945)"></ellipse></g><g transform="translate(286.6490812082381 172.92929391838325)"><ellipse cx="0" cy="0" rx="8.211541299334415" ry="4.105770649667208" fill="#5DD3B6" fill-opacity="0.205289" stroke="#6E5034" stroke-opacity="0.2" stroke-width="1" transform="rotate(230.83921774499407)"></ellipse></g><g transform="translate(28.18851322344057 169.876020761679)"><ellipse cx="0" cy="0" rx="9.101716176904011" ry="4.550858088452006" fill="#5DD3B6" fill-opacity="0.227543" stroke="#6E5034" stroke-opacity="0.2" stroke-width="1" transform="rotate(42.04982130511553)"></ellipse></g><g transform="translate(20.314339299980276 318.0738263329876)"><ellipse cx="0" cy="0" rx="5.989285026453556" ry="2.994642513226778" fill="#5DD3B6" fill-opacity="0.149732" stroke="#6E5034" stroke-opacity="0.2" stroke-width="1" transform="rotate(148.42835891728075)"></ellipse></g><g transform="translate(394.70917535275737 436.0542468496033)"><ellipse cx="0" cy="0" rx="4.062542477208627" ry="2.0312712386043135" fill="#5DD3B6" fill-opacity="0.101564" stroke="#6E5034" stroke-opacity="0.2" stroke-width="1" transform="rotate(289.7210716758848)"></ellipse></g><g transform="translate(300.6096674674242 252.36342233494352)"><ellipse cx="0" cy="0" rx="6.418194369316829" ry="3.2090971846584146" fill="#5DD3B6" fill-opacity="0.160455" stroke="#6E5034" stroke-opacity="0.2" stroke-width="1" transform="rotate(137.62180744577788)"></ellipse></g><g transform="translate(340.1152815551712 186.33410674589425)"><ellipse cx="0" cy="0" rx="17.562934152422656" ry="8.781467076211328" fill="#5DD3B6" fill-opacity="0.439073" stroke="#6E5034" stroke-opacity="0.2" stroke-width="1" transform="rotate(121.70967941709536)"></ellipse></g><g transform="translate(344.46460173682135 43.87371520045019)"><ellipse cx="0" cy="0" rx="5.231469003077715" ry="2.6157345015388573" fill="#5DD3B6" fill-opacity="0.130787" stroke="#6E5034" stroke-opacity="0.2" stroke-width="1" transform="rotate(108.7478669897559)"></ellipse></g><g transform="translate(493.1674424291258 203.65482608367662)"><ellipse cx="0" cy="0" rx="12.302670295543896" ry="6.151335147771948" fill="#5DD3B6" fill-opacity="0.307567" stroke="#6E5034" stroke-opacity="0.2" stroke-width="1" transform="rotate(228.46259650269522)"></ellipse></g><g transform="translate(116.81109431016867 453.92021344757546)"><ellipse cx="0" cy="0" rx="17.444137257641486" ry="8.722068628820743" fill="#5DD3B6" fill-opacity="0.436103" stroke="#6E5034" stroke-opacity="0.2" stroke-width="1" transform="rotate(39.432841763271696)"></ellipse></g><g transform="translate(391.7432360228964 172.9250270128385)"><ellipse cx="0" cy="0" rx="19.558058337800016" ry="9.779029168900008" fill="#5DD3B6" fill-opacity="0.488951" stroke="#6E5034" stroke-opacity="0.2" stroke-width="1" transform="rotate(170.52684131304315)"></ellipse></g><g transform="translate(219.43699563093094 447.0316325121898)"><ellipse cx="0" cy="0" rx="7.159773865152925" ry="3.5798869325764624" fill="#5DD3B6" fill-opacity="0.178994" stroke="#6E5034" stroke-opacity="0.2" stroke-width="1" transform="rotate(238.3720237562934)"></ellipse></g><g transform="translate(45.96087908681351 225.93887694632497)"><ellipse cx="0" cy="0" rx="4.001990944528475" ry="2.0009954722642376" fill="#5DD3B6" fill-opacity="0.10005" stroke="#6E5034" stroke-opacity="0.2" stroke-width="1" transform="rotate(354.62245523460183)"></ellipse></g><g transform="translate(104.78350729366498 419.6661268816637)"><ellipse cx="0" cy="0" rx="13.87022252953198" ry="6.93511126476599" fill="#5DD3B6" fill-opacity="0.346756" stroke="#6E5034" stroke-opacity="0.2" stroke-width="1" transform="rotate(251.66995688716605)"></ellipse></g><g transform="translate(172.7037518926874 278.6285303239558)"><ellipse cx="0" cy="0" rx="7.712172638265864" ry="3.856086319132932" fill="#5DD3B6" fill-opacity="0.192804" stroke="#6E5034" stroke-opacity="0.2" stroke-width="1" transform="rotate(13.035527897774637)"></ellipse></g><g transform="translate(346.85623200303917 10.777826226528564)"><ellipse cx="0" cy="0" rx="5.919339845155056" ry="2.959669922577528" fill="#5DD3B6" fill-opacity="0.147983" stroke="#6E5034" stroke-opacity="0.2" stroke-width="1" transform="rotate(295.6022425698411)"></ellipse></g><g transform="translate(323.54093407334176 108.72003079266219)"><ellipse cx="0" cy="0" rx="17.654066248921108" ry="8.827033124460554" fill="#5DD3B6" fill-opacity="0.441352" stroke="#6E5034" stroke-opacity="0.2" stroke-width="1" transform="rotate(40.89718363518907)"></ellipse></g><g transform="translate(123.5199356625496 88.96277416140047)"><ellipse cx="0" cy="0" rx="18.180418296085726" ry="9.090209148042863" fill="#5DD3B6" fill-opacity="0.45451" stroke="#6E5034" stroke-opacity="0.2" stroke-width="1" transform="rotate(302.1604975551592)"></ellipse></g><g transform="translate(264.3571917001767 153.97624504072692)"><ellipse cx="0" cy="0" rx="14.4768876625184" ry="7.2384438312592" fill="#5DD3B6" fill-opacity="0.361922" stroke="#6E5034" stroke-opacity="0.2" stroke-width="1" transform="rotate(250.8473195531343)"></ellipse></g><g transform="translate(435.8734485668678 313.0224448977674)"><ellipse cx="0" cy="0" rx="12.311340969810782" ry="6.155670484905391" fill="#5DD3B6" fill-opacity="0.307784" stroke="#6E5034" stroke-opacity="0.2" stroke-width="1" transform="rotate(59.78201190201741)"></ellipse></g><g transform="translate(478.9553092366565 306.9739912917229)"><ellipse cx="0" cy="0" rx="7.429388046949297" ry="3.7146940234746486" fill="#5DD3B6" fill-opacity="0.185735" stroke="#6E5034" stroke-opacity="0.2" stroke-width="1" transform="rotate(221.01676224720072)"></ellipse></g><g transform="translate(133.3770912575134 398.622110080203)"><ellipse cx="0" cy="0" rx="15.10898694477782" ry="7.55449347238891" fill="#5DD3B6" fill-opacity="0.377725" stroke="#6E5034" stroke-opacity="0.2" stroke-width="1" transform="rotate(309.7070097735235)"></ellipse></g><g transform="translate(126.00655610598311 329.7145446963334)"><ellipse cx="0" cy="0" rx="17.341010181041757" ry="8.670505090520878" fill="#5DD3B6" fill-opacity="0.433525" stroke="#6E5034" stroke-opacity="0.2" stroke-width="1" transform="rotate(11.288479079468306)"></ellipse></g><g transform="translate(414.14622167872164 234.25460561921778)"><ellipse cx="0" cy="0" rx="10.873244979290607" ry="5.436622489645304" fill="#5DD3B6" fill-opacity="0.271831" stroke="#6E5034" stroke-opacity="0.2" stroke-width="1" transform="rotate(253.40085184059615)"></ellipse></g><g transform="translate(160.21237293266927 346.1742254086046)"><ellipse cx="0" cy="0" rx="8.460090493477946" ry="4.230045246738973" fill="#5DD3B6" fill-opacity="0.211502" stroke="#6E5034" stroke-opacity="0.2" stroke-width="1" transform="rotate(138.51459959613823)"></ellipse></g><g transform="translate(497.99712842663183 59.796041093824414)"><ellipse cx="0" cy="0" rx="15.882702048242233" ry="7.941351024121117" fill="#5DD3B6" fill-opacity="0.397068" stroke="#6E5034" stroke-opacity="0.2" stroke-width="1" transform="rotate(243.06115626042885)"></ellipse></g><g transform="translate(492.5508895105758 374.2198557281621)"><ellipse cx="0" cy="0" rx="17.949927145750454" ry="8.974963572875227" fill="#5DD3B6" fill-opacity="0.448748" stroke="#6E5034" stroke-opacity="0.2" stroke-width="1" transform="rotate(343.70668815427007)"></ellipse></g><g transform="translate(489.6875430568479 228.69521928026415)"><ellipse cx="0" cy="0" rx="8.605540437043604" ry="4.302770218521802" fill="#5DD3B6" fill-opacity="0.215139" stroke="#6E5034" stroke-opacity="0.2" stroke-width="1" transform="rotate(320.03270473877916)"></ellipse></g><g transform="translate(470.8564557574406 285.5881981467103)"><ellipse cx="0" cy="0" rx="8.895493641657865" ry="4.447746820828932" fill="#5DD3B6" fill-opacity="0.222387" stroke="#6E5034" stroke-opacity="0.2" stroke-width="1" transform="rotate(307.13304763816217)"></ellipse></g><g transform="translate(181.13031664460078 210.54212547619116)"><ellipse cx="0" cy="0" rx="13.85495910377446" ry="6.92747955188723" fill="#5DD3B6" fill-opacity="0.346374" stroke="#6E5034" stroke-opacity="0.2" stroke-width="1" transform="rotate(156.6482109316198)"></ellipse></g><g transform="translate(279.02502223963467 50.54067121634276)"><ellipse cx="0" cy="0" rx="5.302007096255245" ry="2.6510035481276226" fill="#5DD3B6" fill-opacity="0.13255" stroke="#6E5034" stroke-opacity="0.2" stroke-width="1" transform="rotate(112.91343615393524)"></ellipse></g><g transform="translate(292.98552744371926 352.2215161393868)"><ellipse cx="0" cy="0" rx="8.81149170744514" ry="4.40574585372257" fill="#5DD3B6" fill-opacity="0.220287" stroke="#6E5034" stroke-opacity="0.2" stroke-width="1" transform="rotate(6.183397370270787)"></ellipse></g><g transform="translate(258.45943741624905 471.1905066958965)"><ellipse cx="0" cy="0" rx="14.914618817783465" ry="7.457309408891732" fill="#5DD3B6" fill-opacity="0.372865" stroke="#6E5034" stroke-opacity="0.2" stroke-width="1" transform="rotate(99.643951171832)"></ellipse></g><g transform="translate(246.642201242753 414.2150823901519)"><ellipse cx="0" cy="0" rx="12.183266039415255" ry="6.091633019707627" fill="#5DD3B6" fill-opacity="0.304582" stroke="#6E5034" stroke-opacity="0.2" stroke-width="1" transform="rotate(42.48604992620721)"></ellipse></g><g transform="translate(400.3252634602965 404.04156494253647)"><ellipse cx="0" cy="0" rx="8.92594197633122" ry="4.46297098816561" fill="#5DD3B6" fill-opacity="0.223149" stroke="#6E5034" stroke-opacity="0.2" stroke-width="1" transform="rotate(95.37537185285163)"></ellipse></g><g transform="translate(211.127880539007 165.73448050093077)"><ellipse cx="0" cy="0" rx="15.63062829796855" ry="7.815314148984275" fill="#5DD3B6" fill-opacity="0.390766" stroke="#6E5034" stroke-opacity="0.2" stroke-width="1" transform="rotate(249.4708135100979)"></ellipse></g><g transform="translate(118.9916385429845 479.68924862570856)"><ellipse cx="0" cy="0" rx="13.97781060023611" ry="6.988905300118055" fill="#5DD3B6" fill-opacity="0.349445" stroke="#6E5034" stroke-opacity="0.2" stroke-width="1" transform="rotate(205.3967098654397)"></ellipse></g><g transform="translate(260.2874197224542 221.9205089408649)"><ellipse cx="0" cy="0" rx="9.024527516101571" ry="4.512263758050786" fill="#5DD3B6" fill-opacity="0.225613" stroke="#6E5034" stroke-opacity="0.2" stroke-width="1" transform="rotate(40.1258817456407)"></ellipse></g><g transform="translate(95.8658226452519 383.4371167135535)"><ellipse cx="0" cy="0" rx="19.484984631749946" ry="9.742492315874973" fill="#5DD3B6" fill-opacity="0.487125" stroke="#6E5034" stroke-opacity="0.2" stroke-width="1" transform="rotate(188.75125222159298)"></ellipse></g><g transform="translate(464.9766123857822 55.72201725629344)"><ellipse cx="0" cy="0" rx="11.255048587504444" ry="5.627524293752222" fill="#5DD3B6" fill-opacity="0.281376" stroke="#6E5034" stroke-opacity="0.2" stroke-width="1" transform="rotate(73.30807724946558)"></ellipse></g><g transform="translate(335.284287988052 481.85459853773926)"><ellipse cx="0" cy="0" rx="6.961568163308094" ry="3.480784081654047" fill="#5DD3B6" fill-opacity="0.174039" stroke="#6E5034" stroke-opacity="0.2" stroke-width="1" transform="rotate(330.7719200506688)"></ellipse></g><g transform="translate(476.53819535387953 47.70726889052723)"><ellipse cx="0" cy="0" rx="13.523976260258415" ry="6.7619881301292075" fill="#5DD3B6" fill-opacity="0.338099" stroke="#6E5034" stroke-opacity="0.2" stroke-width="1" transform="rotate(355.9780955202816)"></ellipse></g><g transform="translate(436.66493237268713 75.28558153876652)"><ellipse cx="0" cy="0" rx="6.5957368481396745" ry="3.2978684240698373" fill="#5DD3B6" fill-opacity="0.164893" stroke="#6E5034" stroke-opacity="0.2" stroke-width="1" transform="rotate(269.7876751820017)"></ellipse></g><g transform="translate(455.0538775472744 176.031002773265)"><ellipse cx="0" cy="0" rx="14.856877913681375" ry="7.4284389568406874" fill="#5DD3B6" fill-opacity="0.371422" stroke="#6E5034" stroke-opacity="0.2" stroke-width="1" transform="rotate(307.96748162684975)"></ellipse></g><g transform="translate(355.8647981070977 84.38281991340607)"><ellipse cx="0" cy="0" rx="17.1084911244991" ry="8.55424556224955" fill="#5DD3B6" fill-opacity="0.427712" stroke="#6E5034" stroke-opacity="0.2" stroke-width="1" transform="rotate(240.89666129795958)"></ellipse></g></g>
  <!-- <rect id="tint" x="0" y="0" rx="20" ry="20" width="" height="" fill="url(#tintGradient)" /> -->
  <g id="mainHolder"><g transform="translate(250 250)"><ellipse cx="0" cy="0" rx="166.66666666666666" ry="83.33333333333333" fill="#5DD3B6" fill-opacity="1" stroke="#6E5034" stroke-opacity="0.2" stroke-width="1"></ellipse></g></g>
  <text class="styled-text" x="250" y="480" text-anchor="middle" fill="white" font-size="60" font-weight="800" >ellipse</text>
  <style>
  .styled-text {
    fill: white;
    font-family: sans-serif;
    font-size: 60px;
    font-weight: bold;
    /* Other SVG presentation attributes like fill, stroke, etc., can be used as CSS properties */
  }
  </style>
</svg>