<svg xmlns:xlink="http://www.w3.org/1999/xlink" xmlns="http://www.w3.org/2000/svg" width="300" height="300" viewBox="2 2 496 496">
  <defs>
    <linearGradient id="tintGradient" x1="0%" y1="0%" x2="0%" y2="100%">
      <stop offset="0%" stop-color="black" stop-opacity="0"></stop>
      <stop offset="100%" stop-color="black" stop-opacity=".25"></stop>
    </linearGradient>
  </defs>
  <rect id="bg" x="0" y="0" width="500" height="500" fill="#212121" stroke="#000000" stroke-width="2px"></rect>
  <g id="particleHolder"><g transform="translate(258.2936844319132 91.7645464479962) rotate(31.15321575698493)"><path d="M -14.89101600738168,0 h29.78203201476336" stroke="#EAEAEA" stroke-width="1" stroke-opacity="0.744551" stroke-linecap="round"></path></g><g transform="translate(63.59609927555826 441.4058641146425) rotate(228.68440548645376)"><path d="M -14.783127581766477,0 h29.566255163532954" stroke="#EAEAEA" stroke-width="1" stroke-opacity="0.739156" stroke-linecap="round"></path></g><g transform="translate(341.26167942998256 388.89999274838146) rotate(300.95768129723757)"><path d="M -15.069136324617105,0 h30.13827264923421" stroke="#EAEAEA" stroke-width="1" stroke-opacity="0.753457" stroke-linecap="round"></path></g><g transform="translate(448.9123168915219 154.87937562400396) rotate(119.31912660084828)"><path d="M -17.99094802818464,0 h35.98189605636928" stroke="#EAEAEA" stroke-width="1" stroke-opacity="0.899547" stroke-linecap="round"></path></g><g transform="translate(339.92120117734254 356.26291735777346) rotate(310.9224017861977)"><path d="M -13.583235326752314,0 h27.16647065350463" stroke="#EAEAEA" stroke-width="1" stroke-opacity="0.679162" stroke-linecap="round"></path></g><g transform="translate(244.36143292714087 441.0377601685845) rotate(48.529046575752474)"><path d="M -17.680565589697252,0 h35.361131179394505" stroke="#EAEAEA" stroke-width="1" stroke-opacity="0.884028" stroke-linecap="round"></path></g><g transform="translate(45.47515792628598 355.24166287274215) rotate(244.31705795009128)"><path d="M -6.895409016416209,0 h13.790818032832417" stroke="#EAEAEA" stroke-width="1" stroke-opacity="0.34477" stroke-linecap="round"></path></g><g transform="translate(139.21157195303041 42.469327293705064) rotate(17.489622501047734)"><path d="M -11.973265507952508,0 h23.946531015905016" stroke="#EAEAEA" stroke-width="1" stroke-opacity="0.598663" stroke-linecap="round"></path></g><g transform="translate(231.3254465683879 61.703780045961224) rotate(281.2132696501913)"><path d="M -10.904134697634158,0 h21.808269395268315" stroke="#EAEAEA" stroke-width="1" stroke-opacity="0.545207" stroke-linecap="round"></path></g><g transform="translate(439.90647851932727 273.05474090817756) rotate(238.23316110470185)"><path d="M -14.638410130074949,0 h29.276820260149897" stroke="#EAEAEA" stroke-width="1" stroke-opacity="0.73192" stroke-linecap="round"></path></g><g transform="translate(10.320885547303094 419.5464733086871) rotate(244.49266747403306)"><path d="M -8.22420396042351,0 h16.44840792084702" stroke="#EAEAEA" stroke-width="1" stroke-opacity="0.41121" stroke-linecap="round"></path></g><g transform="translate(89.95338583114176 32.18363992874662) rotate(99.86784083157055)"><path d="M -15.542301307366897,0 h31.084602614733793" stroke="#EAEAEA" stroke-width="1" stroke-opacity="0.777115" stroke-linecap="round"></path></g><g transform="translate(416.2939989377355 491.9328116465775) rotate(244.71610185566192)"><path d="M -17.97068107135267,0 h35.94136214270534" stroke="#EAEAEA" stroke-width="1" stroke-opacity="0.898534" stroke-linecap="round"></path></g><g transform="translate(17.63986806019613 323.21475792717746) rotate(209.03106224419838)"><path d="M -12.593596629516096,0 h25.187193259032192" stroke="#EAEAEA" stroke-width="1" stroke-opacity="0.62968" stroke-linecap="round"></path></g><g transform="translate(256.4378056598021 98.25365588901214) rotate(139.9231270091925)"><path d="M -11.227720254338303,0 h22.455440508676606" stroke="#EAEAEA" stroke-width="1" stroke-opacity="0.561386" stroke-linecap="round"></path></g><g transform="translate(18.211827243834467 169.1931840120846) rotate(341.2554641712677)"><path d="M -5.006090660559474,0 h10.012181321118948" stroke="#EAEAEA" stroke-width="1" stroke-opacity="0.250305" stroke-linecap="round"></path></g><g transform="translate(419.0761611650419 37.21442030087546) rotate(59.34011639027683)"><path d="M -4.34413329124464,0 h8.68826658248928" stroke="#EAEAEA" stroke-width="1" stroke-opacity="0.217207" stroke-linecap="round"></path></g><g transform="translate(481.27793518161553 205.77433250760524) rotate(188.64370463818815)"><path d="M -2.1056525671022857,0 h4.211305134204571" stroke="#EAEAEA" stroke-width="1" stroke-opacity="0.105283" stroke-linecap="round"></path></g><g transform="translate(481.47829558254193 75.95477945632234) rotate(146.08461859553043)"><path d="M -6.3537442229968635,0 h12.707488445993727" stroke="#EAEAEA" stroke-width="1" stroke-opacity="0.317687" stroke-linecap="round"></path></g><g transform="translate(237.70358124521834 69.29377226550642) rotate(198.2262278030765)"><path d="M -9.668220160228568,0 h19.336440320457136" stroke="#EAEAEA" stroke-width="1" stroke-opacity="0.483411" stroke-linecap="round"></path></g><g transform="translate(333.26311497838634 348.22031743056345) rotate(41.80409533200697)"><path d="M -10.115285243576261,0 h20.230570487152523" stroke="#EAEAEA" stroke-width="1" stroke-opacity="0.505764" stroke-linecap="round"></path></g><g transform="translate(320.47216294155294 244.59958358319005) rotate(145.39012305591254)"><path d="M -3.3326106968342573,0 h6.6652213936685145" stroke="#EAEAEA" stroke-width="1" stroke-opacity="0.166631" stroke-linecap="round"></path></g><g transform="translate(457.5356800353047 132.47001760500055) rotate(237.24577292269544)"><path d="M -15.509397035561268,0 h31.018794071122535" stroke="#EAEAEA" stroke-width="1" stroke-opacity="0.77547" stroke-linecap="round"></path></g><g transform="translate(346.7456128759157 191.98340583188622) rotate(239.56332329851026)"><path d="M -8.534931831417186,0 h17.069863662834372" stroke="#EAEAEA" stroke-width="1" stroke-opacity="0.426747" stroke-linecap="round"></path></g><g transform="translate(108.3012121227957 111.27840762935793) rotate(114.4773379176041)"><path d="M -18.73404587472203,0 h37.46809174944406" stroke="#EAEAEA" stroke-width="1" stroke-opacity="0.936702" stroke-linecap="round"></path></g><g transform="translate(402.54101843412997 160.54855289602844) rotate(330.37834226963685)"><path d="M -15.221682965312377,0 h30.443365930624754" stroke="#EAEAEA" stroke-width="1" stroke-opacity="0.761084" stroke-linecap="round"></path></g><g transform="translate(185.72781750643125 122.67505383983391) rotate(218.63302517261425)"><path d="M -2.0047990317832727,0 h4.009598063566545" stroke="#EAEAEA" stroke-width="1" stroke-opacity="0.10024" stroke-linecap="round"></path></g><g transform="translate(402.5502616833336 358.5309223189642) rotate(254.40739945001224)"><path d="M -8.222920139324138,0 h16.445840278648276" stroke="#EAEAEA" stroke-width="1" stroke-opacity="0.411146" stroke-linecap="round"></path></g><g transform="translate(365.4793596325226 309.3626737153017) rotate(335.0471324305034)"><path d="M -11.493669266911384,0 h22.98733853382277" stroke="#EAEAEA" stroke-width="1" stroke-opacity="0.574683" stroke-linecap="round"></path></g><g transform="translate(326.6345705226993 493.3395329186978) rotate(298.520958572016)"><path d="M -7.860944309266065,0 h15.72188861853213" stroke="#EAEAEA" stroke-width="1" stroke-opacity="0.393047" stroke-linecap="round"></path></g><g transform="translate(171.6118861431209 321.3168172757535) rotate(185.39895428901073)"><path d="M -8.59293897994162,0 h17.18587795988324" stroke="#EAEAEA" stroke-width="1" stroke-opacity="0.429647" stroke-linecap="round"></path></g><g transform="translate(289.9829006626737 98.60540622155057) rotate(97.74204468970366)"><path d="M -7.136852055378638,0 h14.273704110757276" stroke="#EAEAEA" stroke-width="1" stroke-opacity="0.356843" stroke-linecap="round"></path></g><g transform="translate(482.65540008867845 130.90660428815536) rotate(184.89044895689597)"><path d="M -7.895209348284407,0 h15.790418696568814" stroke="#EAEAEA" stroke-width="1" stroke-opacity="0.39476" stroke-linecap="round"></path></g><g transform="translate(382.3694197610055 329.62467244846073) rotate(133.7258182613187)"><path d="M -5.261488730529946,0 h10.522977461059892" stroke="#EAEAEA" stroke-width="1" stroke-opacity="0.263074" stroke-linecap="round"></path></g><g transform="translate(440.4674809877724 303.8849141720716) rotate(325.4377460739177)"><path d="M -5.289272908038646,0 h10.578545816077291" stroke="#EAEAEA" stroke-width="1" stroke-opacity="0.264464" stroke-linecap="round"></path></g><g transform="translate(272.5650577820834 115.3225776697992) rotate(280.53484126940725)"><path d="M -12.970066287251045,0 h25.94013257450209" stroke="#EAEAEA" stroke-width="1" stroke-opacity="0.648503" stroke-linecap="round"></path></g><g transform="translate(50.07761649130771 101.58515549728847) rotate(351.68751780969137)"><path d="M -17.63000909274767,0 h35.26001818549534" stroke="#EAEAEA" stroke-width="1" stroke-opacity="0.8815" stroke-linecap="round"></path></g><g transform="translate(56.293820898980606 193.74886261737618) rotate(249.12926147751512)"><path d="M -5.248464978204089,0 h10.496929956408177" stroke="#EAEAEA" stroke-width="1" stroke-opacity="0.262423" stroke-linecap="round"></path></g><g transform="translate(341.7717532447669 362.7274614427336) rotate(115.87019425781749)"><path d="M -17.541100065162972,0 h35.082200130325944" stroke="#EAEAEA" stroke-width="1" stroke-opacity="0.877055" stroke-linecap="round"></path></g><g transform="translate(484.3477214216481 347.6246334824975) rotate(294.2611445992645)"><path d="M -14.78590393250012,0 h29.57180786500024" stroke="#EAEAEA" stroke-width="1" stroke-opacity="0.739295" stroke-linecap="round"></path></g><g transform="translate(438.0347611243715 58.428570274126514) rotate(193.25057183554947)"><path d="M -11.215632670881648,0 h22.431265341763297" stroke="#EAEAEA" stroke-width="1" stroke-opacity="0.560782" stroke-linecap="round"></path></g><g transform="translate(447.0197323571506 431.29199396723664) rotate(247.68657583200786)"><path d="M -3.6302816227822534,0 h7.260563245564507" stroke="#EAEAEA" stroke-width="1" stroke-opacity="0.181514" stroke-linecap="round"></path></g><g transform="translate(279.56788691755605 321.17280288800447) rotate(204.37297517145706)"><path d="M -9.727711635569484,0 h19.45542327113897" stroke="#EAEAEA" stroke-width="1" stroke-opacity="0.486386" stroke-linecap="round"></path></g><g transform="translate(21.775977257594892 313.1760703737232) rotate(265.67647607651185)"><path d="M -17.09690753091865,0 h34.1938150618373" stroke="#EAEAEA" stroke-width="1" stroke-opacity="0.854845" stroke-linecap="round"></path></g><g transform="translate(258.2141603966438 235.10795542608875) rotate(51.77611033269828)"><path d="M -19.955532484785206,0 h39.91106496957041" stroke="#EAEAEA" stroke-width="1" stroke-opacity="0.997777" stroke-linecap="round"></path></g><g transform="translate(107.8166360202863 442.5113792039919) rotate(21.09530890628434)"><path d="M -8.077971039377514,0 h16.15594207875503" stroke="#EAEAEA" stroke-width="1" stroke-opacity="0.403899" stroke-linecap="round"></path></g><g transform="translate(269.48298731198895 24.13066772779193) rotate(180.82556416485048)"><path d="M -17.91241561914083,0 h35.82483123828166" stroke="#EAEAEA" stroke-width="1" stroke-opacity="0.895621" stroke-linecap="round"></path></g><g transform="translate(467.6265598072647 247.6341609229012) rotate(28.1733852380915)"><path d="M -15.719766665083863,0 h31.439533330167727" stroke="#EAEAEA" stroke-width="1" stroke-opacity="0.785988" stroke-linecap="round"></path></g><g transform="translate(291.3764114502769 155.97342214774696) rotate(131.7478691863694)"><path d="M -6.117781259737017,0 h12.235562519474033" stroke="#EAEAEA" stroke-width="1" stroke-opacity="0.305889" stroke-linecap="round"></path></g><g transform="translate(146.26796749981102 52.82630903214708) rotate(57.516360935813175)"><path d="M -8.569389300860692,0 h17.138778601721384" stroke="#EAEAEA" stroke-width="1" stroke-opacity="0.428469" stroke-linecap="round"></path></g><g transform="translate(220.03345610237224 326.34498972688607) rotate(102.23796952928153)"><path d="M -8.999013020725943,0 h17.998026041451887" stroke="#EAEAEA" stroke-width="1" stroke-opacity="0.449951" stroke-linecap="round"></path></g><g transform="translate(141.38752174668568 477.30060752125286) rotate(294.89501454890586)"><path d="M -14.309273259803714,0 h28.618546519607428" stroke="#EAEAEA" stroke-width="1" stroke-opacity="0.715464" stroke-linecap="round"></path></g><g transform="translate(316.79221827635627 363.9264081652141) rotate(66.24232175395791)"><path d="M -19.650209625702043,0 h39.30041925140409" stroke="#EAEAEA" stroke-width="1" stroke-opacity="0.982511" stroke-linecap="round"></path></g><g transform="translate(377.45233331278314 131.6333575222052) rotate(326.3944600610153)"><path d="M -15.762794950581,0 h31.525589901162" stroke="#EAEAEA" stroke-width="1" stroke-opacity="0.78814" stroke-linecap="round"></path></g><g transform="translate(306.0759156320764 481.2457038674556) rotate(253.13781675878957)"><path d="M -15.887974418273071,0 h31.775948836546142" stroke="#EAEAEA" stroke-width="1" stroke-opacity="0.794399" stroke-linecap="round"></path></g><g transform="translate(73.6831826472329 232.37976495260526) rotate(329.06673105910784)"><path d="M -5.197033421366242,0 h10.394066842732483" stroke="#EAEAEA" stroke-width="1" stroke-opacity="0.259852" stroke-linecap="round"></path></g><g transform="translate(227.230173602666 218.90628207182482) rotate(35.2806942469468)"><path d="M -2.7466362339004515,0 h5.493272467800903" stroke="#EAEAEA" stroke-width="1" stroke-opacity="0.137332" stroke-linecap="round"></path></g><g transform="translate(18.411289668667784 205.4167277512703) rotate(13.22921974872643)"><path d="M -10.12294505703749,0 h20.24589011407498" stroke="#EAEAEA" stroke-width="1" stroke-opacity="0.506147" stroke-linecap="round"></path></g><g transform="translate(297.1303314778078 324.4596384911304) rotate(271.1769980585689)"><path d="M -8.886453077264083,0 h17.772906154528165" stroke="#EAEAEA" stroke-width="1" stroke-opacity="0.444323" stroke-linecap="round"></path></g><g transform="translate(466.9262088575407 348.490672893138) rotate(359.9036437486206)"><path d="M -12.105183881737723,0 h24.210367763475446" stroke="#EAEAEA" stroke-width="1" stroke-opacity="0.605259" stroke-linecap="round"></path></g><g transform="translate(159.7038929883623 113.25401794678596) rotate(40.35412221518839)"><path d="M -19.50930880895407,0 h39.01861761790814" stroke="#EAEAEA" stroke-width="1" stroke-opacity="0.975465" stroke-linecap="round"></path></g><g transform="translate(142.25776166061877 217.69892007328656) rotate(20.935964974427822)"><path d="M -14.900333919214745,0 h29.80066783842949" stroke="#EAEAEA" stroke-width="1" stroke-opacity="0.745017" stroke-linecap="round"></path></g><g transform="translate(432.2367989664668 260.7480679468385) rotate(210.96951722713874)"><path d="M -18.86666920511462,0 h37.73333841022924" stroke="#EAEAEA" stroke-width="1" stroke-opacity="0.943333" stroke-linecap="round"></path></g><g transform="translate(396.03564823308614 161.03556864304775) rotate(347.8416403055874)"><path d="M -19.859722467469798,0 h39.719444934939595" stroke="#EAEAEA" stroke-width="1" stroke-opacity="0.992986" stroke-linecap="round"></path></g><g transform="translate(99.78265377239798 9.644631157177564) rotate(130.57858345881786)"><path d="M -6.395083784048108,0 h12.790167568096216" stroke="#EAEAEA" stroke-width="1" stroke-opacity="0.319754" stroke-linecap="round"></path></g><g transform="translate(69.68144412164922 372.5259157970809) rotate(126.26251080326224)"><path d="M -5.042168747792597,0 h10.084337495585194" stroke="#EAEAEA" stroke-width="1" stroke-opacity="0.252108" stroke-linecap="round"></path></g><g transform="translate(388.37489352320597 382.98166532428013) rotate(99.85307566002817)"><path d="M -13.454290518037578,0 h26.908581036075155" stroke="#EAEAEA" stroke-width="1" stroke-opacity="0.672715" stroke-linecap="round"></path></g><g transform="translate(145.60206326933044 86.26668404358561) rotate(125.73575862096818)"><path d="M -17.017639686923086,0 h34.03527937384617" stroke="#EAEAEA" stroke-width="1" stroke-opacity="0.850882" stroke-linecap="round"></path></g><g transform="translate(438.586926743675 116.82063485944776) rotate(63.75128794306997)"><path d="M -13.172765901695108,0 h26.345531803390216" stroke="#EAEAEA" stroke-width="1" stroke-opacity="0.658638" stroke-linecap="round"></path></g><g transform="translate(413.5849440249569 481.8048858358235) rotate(60.45132746966669)"><path d="M -7.755274625877235,0 h15.51054925175447" stroke="#EAEAEA" stroke-width="1" stroke-opacity="0.387764" stroke-linecap="round"></path></g><g transform="translate(66.13211355190562 401.89110618921273) rotate(46.410945013112325)"><path d="M -8.307474308929486,0 h16.61494861785897" stroke="#EAEAEA" stroke-width="1" stroke-opacity="0.415374" stroke-linecap="round"></path></g><g transform="translate(449.00102421483234 442.2649101902264) rotate(109.10395608637896)"><path d="M -17.066209326202067,0 h34.132418652404134" stroke="#EAEAEA" stroke-width="1" stroke-opacity="0.85331" stroke-linecap="round"></path></g><g transform="translate(462.421971028004 256.0873488698004) rotate(81.41227042853382)"><path d="M -14.151742059392152,0 h28.303484118784304" stroke="#EAEAEA" stroke-width="1" stroke-opacity="0.707587" stroke-linecap="round"></path></g><g transform="translate(26.340119850941758 337.49898839768406) rotate(265.9119750891061)"><path d="M -3.0563061439771513,0 h6.112612287954303" stroke="#EAEAEA" stroke-width="1" stroke-opacity="0.152815" stroke-linecap="round"></path></g><g transform="translate(395.34034113756456 163.9124618357426) rotate(180.24890651130966)"><path d="M -6.182422853112335,0 h12.36484570622467" stroke="#EAEAEA" stroke-width="1" stroke-opacity="0.309121" stroke-linecap="round"></path></g><g transform="translate(183.81414571972354 456.05845242681596) rotate(34.1742401524364)"><path d="M -10.921348350476652,0 h21.842696700953304" stroke="#EAEAEA" stroke-width="1" stroke-opacity="0.546067" stroke-linecap="round"></path></g><g transform="translate(383.91196900659503 341.2539767757158) rotate(107.39313209702212)"><path d="M -18.028521207403358,0 h36.057042414806716" stroke="#EAEAEA" stroke-width="1" stroke-opacity="0.901426" stroke-linecap="round"></path></g><g transform="translate(94.71651867972713 466.64433123887454) rotate(288.2414228085215)"><path d="M -2.209835890995793,0 h4.419671781991586" stroke="#EAEAEA" stroke-width="1" stroke-opacity="0.110492" stroke-linecap="round"></path></g><g transform="translate(269.4089231247817 10.064572951603456) rotate(160.51205481373222)"><path d="M -2.631652302596375,0 h5.26330460519275" stroke="#EAEAEA" stroke-width="1" stroke-opacity="0.131583" stroke-linecap="round"></path></g><g transform="translate(226.96695630075314 1.4536522028317234) rotate(229.74398706744032)"><path d="M -7.546653629472648,0 h15.093307258945297" stroke="#EAEAEA" stroke-width="1" stroke-opacity="0.377333" stroke-linecap="round"></path></g><g transform="translate(168.65308771241578 280.61505551936654) rotate(331.73562933034725)"><path d="M -18.621197008140008,0 h37.242394016280016" stroke="#EAEAEA" stroke-width="1" stroke-opacity="0.93106" stroke-linecap="round"></path></g><g transform="translate(391.4034535212533 401.2460056650609) rotate(310.6950558679675)"><path d="M -2.2072953350340416,0 h4.414590670068083" stroke="#EAEAEA" stroke-width="1" stroke-opacity="0.110365" stroke-linecap="round"></path></g><g transform="translate(35.2112361844068 402.9563782783423) rotate(201.5188172673275)"><path d="M -10.268963582171724,0 h20.537927164343447" stroke="#EAEAEA" stroke-width="1" stroke-opacity="0.513448" stroke-linecap="round"></path></g><g transform="translate(387.40446222092646 91.02126815984857) rotate(331.91059768453675)"><path d="M -2.966447756984076,0 h5.932895513968152" stroke="#EAEAEA" stroke-width="1" stroke-opacity="0.148322" stroke-linecap="round"></path></g><g transform="translate(136.37895582373494 23.389623238506797) rotate(294.41243735973757)"><path d="M -19.927913474870603,0 h39.85582694974121" stroke="#EAEAEA" stroke-width="1" stroke-opacity="0.996396" stroke-linecap="round"></path></g><g transform="translate(250.4633992392476 38.429709498015164) rotate(270.66920762019595)"><path d="M -18.175440440451634,0 h36.35088088090327" stroke="#EAEAEA" stroke-width="1" stroke-opacity="0.908772" stroke-linecap="round"></path></g><g transform="translate(489.5330928111892 453.31399344017757) rotate(70.26125026617056)"><path d="M -7.286237809298566,0 h14.572475618597132" stroke="#EAEAEA" stroke-width="1" stroke-opacity="0.364312" stroke-linecap="round"></path></g><g transform="translate(415.59209084157186 252.96420466659762) rotate(128.9452157420703)"><path d="M -7.456470003718532,0 h14.912940007437063" stroke="#EAEAEA" stroke-width="1" stroke-opacity="0.372824" stroke-linecap="round"></path></g><g transform="translate(254.22346490115106 209.80455266729632) rotate(114.86937901506379)"><path d="M -16.799719030185653,0 h33.599438060371305" stroke="#EAEAEA" stroke-width="1" stroke-opacity="0.839986" stroke-linecap="round"></path></g><g transform="translate(298.727446413217 374.0366449833276) rotate(88.712363404363)"><path d="M -18.868062613957044,0 h37.73612522791409" stroke="#EAEAEA" stroke-width="1" stroke-opacity="0.943403" stroke-linecap="round"></path></g><g transform="translate(110.99635393192564 257.41071086550875) rotate(236.14463120118543)"><path d="M -16.192068312465178,0 h32.384136624930356" stroke="#EAEAEA" stroke-width="1" stroke-opacity="0.809603" stroke-linecap="round"></path></g><g transform="translate(312.50848564139454 343.55153275154976) rotate(274.362695665063)"><path d="M -18.48929252095732,0 h36.97858504191464" stroke="#EAEAEA" stroke-width="1" stroke-opacity="0.924465" stroke-linecap="round"></path></g><g transform="translate(315.6935334825187 39.276139075914266) rotate(91.9769398100049)"><path d="M -16.26419090848069,0 h32.52838181696138" stroke="#EAEAEA" stroke-width="1" stroke-opacity="0.81321" stroke-linecap="round"></path></g><g transform="translate(351.96644814190256 96.32930502532217) rotate(222.45217520153912)"><path d="M -17.0238763265091,0 h34.0477526530182" stroke="#EAEAEA" stroke-width="1" stroke-opacity="0.851194" stroke-linecap="round"></path></g><g transform="translate(46.60244207795422 481.8010515359023) rotate(60.73994637588637)"><path d="M -18.993522584094084,0 h37.98704516818817" stroke="#EAEAEA" stroke-width="1" stroke-opacity="0.949676" stroke-linecap="round"></path></g><g transform="translate(330.64261016641154 221.5535611211053) rotate(67.24970291013877)"><path d="M -8.409052817701646,0 h16.818105635403292" stroke="#EAEAEA" stroke-width="1" stroke-opacity="0.420453" stroke-linecap="round"></path></g><g transform="translate(110.91950910641701 169.5386198250059) rotate(78.0436180417734)"><path d="M -16.0326363556184,0 h32.0652727112368" stroke="#EAEAEA" stroke-width="1" stroke-opacity="0.801632" stroke-linecap="round"></path></g><g transform="translate(245.18118367621204 325.90185043193134) rotate(107.74260533158258)"><path d="M -3.932448498818525,0 h7.86489699763705" stroke="#EAEAEA" stroke-width="1" stroke-opacity="0.196622" stroke-linecap="round"></path></g><g transform="translate(59.83625225627992 394.0905546607312) rotate(124.98673937624642)"><path d="M -14.985475223026372,0 h29.970950446052743" stroke="#EAEAEA" stroke-width="1" stroke-opacity="0.749274" stroke-linecap="round"></path></g><g transform="translate(202.25665367775764 432.7312570841881) rotate(78.82921067341475)"><path d="M -7.563713133146271,0 h15.127426266292542" stroke="#EAEAEA" stroke-width="1" stroke-opacity="0.378186" stroke-linecap="round"></path></g><g transform="translate(24.79245877044822 333.06685398979926) rotate(38.84317128688027)"><path d="M -14.613551570796492,0 h29.227103141592984" stroke="#EAEAEA" stroke-width="1" stroke-opacity="0.730678" stroke-linecap="round"></path></g><g transform="translate(301.67167406756374 130.26824531243474) rotate(158.48639719168713)"><path d="M -17.421874426625543,0 h34.843748853251086" stroke="#EAEAEA" stroke-width="1" stroke-opacity="0.871094" stroke-linecap="round"></path></g><g transform="translate(120.62414193558574 354.89454804120857) rotate(153.09006564813825)"><path d="M -2.3997559763676257,0 h4.799511952735251" stroke="#EAEAEA" stroke-width="1" stroke-opacity="0.119988" stroke-linecap="round"></path></g><g transform="translate(40.140522448285644 248.25967227253503) rotate(258.0061773277257)"><path d="M -15.096452191446376,0 h30.192904382892753" stroke="#EAEAEA" stroke-width="1" stroke-opacity="0.754823" stroke-linecap="round"></path></g><g transform="translate(179.25812139034315 146.3583253807282) rotate(204.63590395602975)"><path d="M -16.89482401974808,0 h33.78964803949616" stroke="#EAEAEA" stroke-width="1" stroke-opacity="0.844741" stroke-linecap="round"></path></g><g transform="translate(422.3009265083458 393.3725246601938) rotate(11.472819982627414)"><path d="M -15.372873060912921,0 h30.745746121825842" stroke="#EAEAEA" stroke-width="1" stroke-opacity="0.768644" stroke-linecap="round"></path></g><g transform="translate(17.621846450989796 26.715132384683706) rotate(160.42203829944123)"><path d="M -11.519047716210391,0 h23.038095432420782" stroke="#EAEAEA" stroke-width="1" stroke-opacity="0.575952" stroke-linecap="round"></path></g><g transform="translate(293.1601850473896 114.73768465251227) rotate(101.20740043426015)"><path d="M -7.090478960172661,0 h14.180957920345323" stroke="#EAEAEA" stroke-width="1" stroke-opacity="0.354524" stroke-linecap="round"></path></g><g transform="translate(331.87508791875234 148.22316466820666) rotate(109.04105216258182)"><path d="M -13.868029409116463,0 h27.736058818232927" stroke="#EAEAEA" stroke-width="1" stroke-opacity="0.693401" stroke-linecap="round"></path></g><g transform="translate(352.7033472344725 359.7705154442766) rotate(159.67765900316536)"><path d="M -17.086373923688512,0 h34.172747847377025" stroke="#EAEAEA" stroke-width="1" stroke-opacity="0.854319" stroke-linecap="round"></path></g><g transform="translate(140.26917444161458 365.80232139413494) rotate(265.90588519492053)"><path d="M -10.839221389670826,0 h21.67844277934165" stroke="#EAEAEA" stroke-width="1" stroke-opacity="0.541961" stroke-linecap="round"></path></g><g transform="translate(121.41589163496214 136.46355842972963) rotate(154.16893341074993)"><path d="M -8.677676085710734,0 h17.35535217142147" stroke="#EAEAEA" stroke-width="1" stroke-opacity="0.433884" stroke-linecap="round"></path></g><g transform="translate(350.0782408628367 421.6184594255543) rotate(230.14162322383098)"><path d="M -15.692914555387937,0 h31.385829110775873" stroke="#EAEAEA" stroke-width="1" stroke-opacity="0.784646" stroke-linecap="round"></path></g><g transform="translate(0.154706966335183 141.91702013668734) rotate(46.990374248049)"><path d="M -5.772828779343766,0 h11.545657558687532" stroke="#EAEAEA" stroke-width="1" stroke-opacity="0.288641" stroke-linecap="round"></path></g><g transform="translate(150.6085551636578 421.5919248183582) rotate(326.9289801323018)"><path d="M -5.492548136613566,0 h10.985096273227132" stroke="#EAEAEA" stroke-width="1" stroke-opacity="0.274627" stroke-linecap="round"></path></g><g transform="translate(489.329306061045 418.8888840202246) rotate(242.88895281747617)"><path d="M -9.758378400411921,0 h19.516756800823842" stroke="#EAEAEA" stroke-width="1" stroke-opacity="0.487919" stroke-linecap="round"></path></g><g transform="translate(482.3592181474196 305.4828299181632) rotate(254.89500308862029)"><path d="M -16.524620944292682,0 h33.049241888585364" stroke="#EAEAEA" stroke-width="1" stroke-opacity="0.826231" stroke-linecap="round"></path></g><g transform="translate(181.85406498376662 196.52084170858842) rotate(5.691789126848499)"><path d="M -7.949790128947303,0 h15.899580257894605" stroke="#EAEAEA" stroke-width="1" stroke-opacity="0.39749" stroke-linecap="round"></path></g><g transform="translate(33.10887211310809 401.52493102333796) rotate(256.14615465353216)"><path d="M -15.645229570109393,0 h31.290459140218786" stroke="#EAEAEA" stroke-width="1" stroke-opacity="0.782261" stroke-linecap="round"></path></g><g transform="translate(98.29595717054207 146.91040071421773) rotate(117.87399836794638)"><path d="M -9.42499931447368,0 h18.84999862894736" stroke="#EAEAEA" stroke-width="1" stroke-opacity="0.47125" stroke-linecap="round"></path></g><g transform="translate(399.02862180753067 404.59618066196) rotate(145.89221926645428)"><path d="M -11.069625652243474,0 h22.139251304486947" stroke="#EAEAEA" stroke-width="1" stroke-opacity="0.553481" stroke-linecap="round"></path></g><g transform="translate(366.3034836925563 373.07937308466006) rotate(264.16521766876446)"><path d="M -5.826033039967178,0 h11.652066079934356" stroke="#EAEAEA" stroke-width="1" stroke-opacity="0.291302" stroke-linecap="round"></path></g><g transform="translate(408.06396458163465 170.3488457390469) rotate(178.96706873944274)"><path d="M -19.09295833467271,0 h38.18591666934542" stroke="#EAEAEA" stroke-width="1" stroke-opacity="0.954648" stroke-linecap="round"></path></g><g transform="translate(350.8775268861062 120.54138243941526) rotate(300.5174532949564)"><path d="M -13.674824373838309,0 h27.349648747676618" stroke="#EAEAEA" stroke-width="1" stroke-opacity="0.683741" stroke-linecap="round"></path></g><g transform="translate(373.6193574573799 404.4809160079473) rotate(199.46616378050655)"><path d="M -15.04714691457654,0 h30.09429382915308" stroke="#EAEAEA" stroke-width="1" stroke-opacity="0.752357" stroke-linecap="round"></path></g><g transform="translate(325.0656193802153 438.3045682732711) rotate(61.26095914099372)"><path d="M -5.40837672971763,0 h10.81675345943526" stroke="#EAEAEA" stroke-width="1" stroke-opacity="0.270419" stroke-linecap="round"></path></g><g transform="translate(497.4429337041692 12.236245368555776) rotate(83.85410359519365)"><path d="M -17.07205219020616,0 h34.14410438041232" stroke="#EAEAEA" stroke-width="1" stroke-opacity="0.853603" stroke-linecap="round"></path></g><g transform="translate(167.5116306272039 399.7855955803496) rotate(43.34315785298742)"><path d="M -17.934876836467964,0 h35.86975367293593" stroke="#EAEAEA" stroke-width="1" stroke-opacity="0.896744" stroke-linecap="round"></path></g><g transform="translate(243.3064573178137 26.581021696859388) rotate(215.1543603588736)"><path d="M -18.45878478315123,0 h36.91756956630246" stroke="#EAEAEA" stroke-width="1" stroke-opacity="0.922939" stroke-linecap="round"></path></g><g transform="translate(158.55060207416 344.3846124712428) rotate(169.53500838368356)"><path d="M -14.983007286510261,0 h29.966014573020523" stroke="#EAEAEA" stroke-width="1" stroke-opacity="0.74915" stroke-linecap="round"></path></g><g transform="translate(437.9142619983848 240.0193266619769) rotate(191.67293518175197)"><path d="M -11.810338758038911,0 h23.620677516077823" stroke="#EAEAEA" stroke-width="1" stroke-opacity="0.590517" stroke-linecap="round"></path></g><g transform="translate(295.73430219010305 12.553320954420466) rotate(291.6506035184821)"><path d="M -17.467121771872574,0 h34.93424354374515" stroke="#EAEAEA" stroke-width="1" stroke-opacity="0.873356" stroke-linecap="round"></path></g><g transform="translate(62.84027729914343 199.04222768601548) rotate(143.5921936177815)"><path d="M -2.5413250183394793,0 h5.082650036678959" stroke="#EAEAEA" stroke-width="1" stroke-opacity="0.127066" stroke-linecap="round"></path></g><g transform="translate(255.5892763646942 190.66141323234552) rotate(0.13557387682762378)"><path d="M -9.359495271486098,0 h18.718990542972197" stroke="#EAEAEA" stroke-width="1" stroke-opacity="0.467975" stroke-linecap="round"></path></g><g transform="translate(406.01852225365855 286.57889347870037) rotate(290.29080732846353)"><path d="M -6.315520626261495,0 h12.63104125252299" stroke="#EAEAEA" stroke-width="1" stroke-opacity="0.315776" stroke-linecap="round"></path></g><g transform="translate(4.283178444697333 242.1317048868602) rotate(197.7080279323934)"><path d="M -13.252361188626981,0 h26.504722377253962" stroke="#EAEAEA" stroke-width="1" stroke-opacity="0.662618" stroke-linecap="round"></path></g><g transform="translate(25.473502275652372 87.3581073011343) rotate(244.57311216488188)"><path d="M -5.265840246847723,0 h10.531680493695445" stroke="#EAEAEA" stroke-width="1" stroke-opacity="0.263292" stroke-linecap="round"></path></g><g transform="translate(212.80938926008187 309.6907113866643) rotate(26.362987303914863)"><path d="M -18.01291206007736,0 h36.02582412015472" stroke="#EAEAEA" stroke-width="1" stroke-opacity="0.900646" stroke-linecap="round"></path></g><g transform="translate(169.35830316495492 9.772830443340485) rotate(237.18521078260187)"><path d="M -14.729778473995577,0 h29.459556947991153" stroke="#EAEAEA" stroke-width="1" stroke-opacity="0.736489" stroke-linecap="round"></path></g><g transform="translate(135.84705244126644 388.82593630139047) rotate(245.58405805807686)"><path d="M -8.027479515448402,0 h16.054959030896804" stroke="#EAEAEA" stroke-width="1" stroke-opacity="0.401374" stroke-linecap="round"></path></g><g transform="translate(31.706231854039647 363.96146614299636) rotate(148.45480743897596)"><path d="M -19.154364032957773,0 h38.308728065915545" stroke="#EAEAEA" stroke-width="1" stroke-opacity="0.957718" stroke-linecap="round"></path></g><g transform="translate(246.59690527924877 304.53713614164053) rotate(173.27140421100748)"><path d="M -12.282058047976918,0 h24.564116095953835" stroke="#EAEAEA" stroke-width="1" stroke-opacity="0.614103" stroke-linecap="round"></path></g><g transform="translate(467.03873185961294 321.4220293334511) rotate(136.58574471658804)"><path d="M -3.8706127189230277,0 h7.741225437846055" stroke="#EAEAEA" stroke-width="1" stroke-opacity="0.193531" stroke-linecap="round"></path></g><g transform="translate(123.50569750542162 123.24813845479204) rotate(105.40683203815874)"><path d="M -17.48323634756028,0 h34.96647269512056" stroke="#EAEAEA" stroke-width="1" stroke-opacity="0.874162" stroke-linecap="round"></path></g><g transform="translate(87.99437764578727 154.86921992419855) rotate(52.485938588741085)"><path d="M -19.78795893303403,0 h39.57591786606806" stroke="#EAEAEA" stroke-width="1" stroke-opacity="0.989398" stroke-linecap="round"></path></g><g transform="translate(464.35059358651023 354.3373717937907) rotate(221.3941973329582)"><path d="M -17.1679971129592,0 h34.3359942259184" stroke="#EAEAEA" stroke-width="1" stroke-opacity="0.8584" stroke-linecap="round"></path></g><g transform="translate(494.2770178400461 140.80468460650502) rotate(279.14916171944714)"><path d="M -3.7192317265153685,0 h7.438463453030737" stroke="#EAEAEA" stroke-width="1" stroke-opacity="0.185962" stroke-linecap="round"></path></g><g transform="translate(275.3982665254762 52.04379975906881) rotate(46.0315016415274)"><path d="M -11.591219937462744,0 h23.18243987492549" stroke="#EAEAEA" stroke-width="1" stroke-opacity="0.579561" stroke-linecap="round"></path></g><g transform="translate(249.10139449759316 450.37162957886306) rotate(186.3846920369765)"><path d="M -10.228964845307937,0 h20.457929690615874" stroke="#EAEAEA" stroke-width="1" stroke-opacity="0.511448" stroke-linecap="round"></path></g><g transform="translate(143.35127567453333 269.043886501761) rotate(249.47451645577448)"><path d="M -8.544532543991972,0 h17.089065087983943" stroke="#EAEAEA" stroke-width="1" stroke-opacity="0.427227" stroke-linecap="round"></path></g><g transform="translate(454.3882533076762 488.9749611407642) rotate(275.7944868750153)"><path d="M -10.556221663421368,0 h21.112443326842737" stroke="#EAEAEA" stroke-width="1" stroke-opacity="0.527811" stroke-linecap="round"></path></g><g transform="translate(472.13410106729077 322.24249375057184) rotate(158.3177191401904)"><path d="M -11.08928705422796,0 h22.17857410845592" stroke="#EAEAEA" stroke-width="1" stroke-opacity="0.554464" stroke-linecap="round"></path></g><g transform="translate(333.4419841045898 169.84800134083528) rotate(162.32457094229824)"><path d="M -18.784152735042518,0 h37.568305470085036" stroke="#EAEAEA" stroke-width="1" stroke-opacity="0.939208" stroke-linecap="round"></path></g><g transform="translate(409.5035614063382 308.61597489364163) rotate(64.14350018984693)"><path d="M -19.523890937025577,0 h39.047781874051154" stroke="#EAEAEA" stroke-width="1" stroke-opacity="0.976195" stroke-linecap="round"></path></g><g transform="translate(318.3679777029578 281.5554634735851) rotate(2.801515448485259)"><path d="M -10.365572469649052,0 h20.731144939298105" stroke="#EAEAEA" stroke-width="1" stroke-opacity="0.518279" stroke-linecap="round"></path></g><g transform="translate(247.88324415262818 3.7905403471293897) rotate(49.99004057975959)"><path d="M -15.80249029142982,0 h31.60498058285964" stroke="#EAEAEA" stroke-width="1" stroke-opacity="0.790125" stroke-linecap="round"></path></g><g transform="translate(195.00400571239484 394.19312670294426) rotate(89.97203562465153)"><path d="M -8.083174449869311,0 h16.166348899738622" stroke="#EAEAEA" stroke-width="1" stroke-opacity="0.404159" stroke-linecap="round"></path></g><g transform="translate(265.4414028009109 105.99773232225462) rotate(57.97839287578811)"><path d="M -11.557054966557542,0 h23.114109933115085" stroke="#EAEAEA" stroke-width="1" stroke-opacity="0.577853" stroke-linecap="round"></path></g><g transform="translate(283.8027506802651 457.4532085116505) rotate(116.5274336550436)"><path d="M -6.29598412568525,0 h12.5919682513705" stroke="#EAEAEA" stroke-width="1" stroke-opacity="0.314799" stroke-linecap="round"></path></g><g transform="translate(193.12950780644334 333.7191059083121) rotate(152.40325090829165)"><path d="M -5.22645876385174,0 h10.45291752770348" stroke="#EAEAEA" stroke-width="1" stroke-opacity="0.261323" stroke-linecap="round"></path></g><g transform="translate(349.9566827438534 179.4982717469868) rotate(50.41211786831535)"><path d="M -13.117544594743888,0 h26.235089189487777" stroke="#EAEAEA" stroke-width="1" stroke-opacity="0.655877" stroke-linecap="round"></path></g><g transform="translate(133.37024330070435 174.96184229203743) rotate(82.07294701802881)"><path d="M -11.660731936814326,0 h23.32146387362865" stroke="#EAEAEA" stroke-width="1" stroke-opacity="0.583037" stroke-linecap="round"></path></g><g transform="translate(457.19644934364237 409.53583787705946) rotate(147.94526363944624)"><path d="M -6.3708744212898605,0 h12.741748842579721" stroke="#EAEAEA" stroke-width="1" stroke-opacity="0.318544" stroke-linecap="round"></path></g><g transform="translate(229.99969485631055 175.44267851275504) rotate(244.358501869615)"><path d="M -7.72821188817815,0 h15.4564237763563" stroke="#EAEAEA" stroke-width="1" stroke-opacity="0.386411" stroke-linecap="round"></path></g><g transform="translate(328.44165802303377 420.79083216962925) rotate(153.96799239464485)"><path d="M -19.00446350401711,0 h38.00892700803422" stroke="#EAEAEA" stroke-width="1" stroke-opacity="0.950223" stroke-linecap="round"></path></g><g transform="translate(20.805503704417696 160.60480876583915) rotate(286.7007857084029)"><path d="M -4.968266706254907,0 h9.936533412509814" stroke="#EAEAEA" stroke-width="1" stroke-opacity="0.248413" stroke-linecap="round"></path></g><g transform="translate(439.68941223451213 45.15355294247592) rotate(9.495800226737767)"><path d="M -13.465072784020656,0 h26.93014556804131" stroke="#EAEAEA" stroke-width="1" stroke-opacity="0.673254" stroke-linecap="round"></path></g><g transform="translate(125.99007045183019 134.2860954390105) rotate(183.80279195000384)"><path d="M -13.784096949156876,0 h27.56819389831375" stroke="#EAEAEA" stroke-width="1" stroke-opacity="0.689205" stroke-linecap="round"></path></g><g transform="translate(1.1270880446268006 13.320677084468269) rotate(197.69788188451005)"><path d="M -3.7890100987502557,0 h7.5780201975005115" stroke="#EAEAEA" stroke-width="1" stroke-opacity="0.189451" stroke-linecap="round"></path></g><g transform="translate(9.595763353681841 309.5941619679895) rotate(233.59959971825614)"><path d="M -6.752714025830297,0 h13.505428051660594" stroke="#EAEAEA" stroke-width="1" stroke-opacity="0.337636" stroke-linecap="round"></path></g><g transform="translate(59.14986624032681 360.2025812659207) rotate(166.71227962279448)"><path d="M -17.703127494017696,0 h35.40625498803539" stroke="#EAEAEA" stroke-width="1" stroke-opacity="0.885156" stroke-linecap="round"></path></g><g transform="translate(337.85331845800306 33.92784842746699) rotate(230.73135500346353)"><path d="M -6.651831370630006,0 h13.303662741260013" stroke="#EAEAEA" stroke-width="1" stroke-opacity="0.332592" stroke-linecap="round"></path></g><g transform="translate(427.3307205435703 118.00110099801314) rotate(43.264107499402435)"><path d="M -14.273372473941045,0 h28.54674494788209" stroke="#EAEAEA" stroke-width="1" stroke-opacity="0.713669" stroke-linecap="round"></path></g><g transform="translate(245.41792041502143 295.6786603171746) rotate(99.21328408358922)"><path d="M -4.7038613854301445,0 h9.407722770860289" stroke="#EAEAEA" stroke-width="1" stroke-opacity="0.235193" stroke-linecap="round"></path></g><g transform="translate(211.03018571812336 437.9761201191638) rotate(81.721285697366)"><path d="M -14.618440071274975,0 h29.23688014254995" stroke="#EAEAEA" stroke-width="1" stroke-opacity="0.730922" stroke-linecap="round"></path></g><g transform="translate(452.52851523784665 348.213325642527) rotate(47.317999406415254)"><path d="M -6.727002108008326,0 h13.454004216016653" stroke="#EAEAEA" stroke-width="1" stroke-opacity="0.33635" stroke-linecap="round"></path></g><g transform="translate(146.51087548101398 98.11749094041062) rotate(350.4122430545762)"><path d="M -6.5011436101678495,0 h13.002287220335699" stroke="#EAEAEA" stroke-width="1" stroke-opacity="0.325057" stroke-linecap="round"></path></g><g transform="translate(4.405885843026757 425.2335228263759) rotate(186.15322639017867)"><path d="M -10.636702869978103,0 h21.273405739956207" stroke="#EAEAEA" stroke-width="1" stroke-opacity="0.531835" stroke-linecap="round"></path></g><g transform="translate(433.46319980703606 472.0274845010071) rotate(113.76109944379127)"><path d="M -12.933685887298203,0 h25.867371774596407" stroke="#EAEAEA" stroke-width="1" stroke-opacity="0.646684" stroke-linecap="round"></path></g><g transform="translate(189.66718849679432 345.36230053261954) rotate(178.52300192003526)"><path d="M -2.437616273136032,0 h4.875232546272064" stroke="#EAEAEA" stroke-width="1" stroke-opacity="0.121881" stroke-linecap="round"></path></g><g transform="translate(85.82339832602386 368.9457203355218) rotate(30.34915227624955)"><path d="M -10.707047708972626,0 h21.41409541794525" stroke="#EAEAEA" stroke-width="1" stroke-opacity="0.535352" stroke-linecap="round"></path></g><g transform="translate(371.7661722426692 330.83849420306444) rotate(23.288511355864337)"><path d="M -5.645265357361495,0 h11.29053071472299" stroke="#EAEAEA" stroke-width="1" stroke-opacity="0.282263" stroke-linecap="round"></path></g><g transform="translate(259.13294098125886 397.2804283670478) rotate(148.57944268689212)"><path d="M -7.2337348867051166,0 h14.467469773410233" stroke="#EAEAEA" stroke-width="1" stroke-opacity="0.361687" stroke-linecap="round"></path></g><g transform="translate(226.84147089481283 166.59953793254473) rotate(60.74230479345593)"><path d="M -2.5573211207373294,0 h5.114642241474659" stroke="#EAEAEA" stroke-width="1" stroke-opacity="0.127866" stroke-linecap="round"></path></g><g transform="translate(239.45529906420003 334.55553000566215) rotate(167.68270989804498)"><path d="M -8.987576281212808,0 h17.975152562425617" stroke="#EAEAEA" stroke-width="1" stroke-opacity="0.449379" stroke-linecap="round"></path></g><g transform="translate(173.8098161717901 196.56089889789) rotate(54.964990614640925)"><path d="M -15.213583126450622,0 h30.427166252901245" stroke="#EAEAEA" stroke-width="1" stroke-opacity="0.760679" stroke-linecap="round"></path></g><g transform="translate(329.1358181991832 481.93846107120976) rotate(277.9875106668677)"><path d="M -12.739778082407778,0 h25.479556164815556" stroke="#EAEAEA" stroke-width="1" stroke-opacity="0.636989" stroke-linecap="round"></path></g><g transform="translate(366.4407954930196 441.17422480456787) rotate(146.53192062926178)"><path d="M -4.29297023887199,0 h8.58594047774398" stroke="#EAEAEA" stroke-width="1" stroke-opacity="0.214649" stroke-linecap="round"></path></g><g transform="translate(178.73678720137192 165.64415804650517) rotate(137.91831460670855)"><path d="M -16.91216857721529,0 h33.82433715443058" stroke="#EAEAEA" stroke-width="1" stroke-opacity="0.845608" stroke-linecap="round"></path></g><g transform="translate(27.99831114437157 9.657923090468756) rotate(47.86721085480973)"><path d="M -19.522659970090913,0 h39.04531994018183" stroke="#EAEAEA" stroke-width="1" stroke-opacity="0.976133" stroke-linecap="round"></path></g><g transform="translate(93.80227394194252 278.72864579171267) rotate(208.26399427962127)"><path d="M -7.567741426538605,0 h15.13548285307721" stroke="#EAEAEA" stroke-width="1" stroke-opacity="0.378387" stroke-linecap="round"></path></g><g transform="translate(124.29210187465972 129.472812921835) rotate(201.49732257945985)"><path d="M -4.430335931872453,0 h8.860671863744907" stroke="#EAEAEA" stroke-width="1" stroke-opacity="0.221517" stroke-linecap="round"></path></g><g transform="translate(99.44061418242472 37.6604982681476) rotate(229.9093710240487)"><path d="M -5.750813322733228,0 h11.501626645466455" stroke="#EAEAEA" stroke-width="1" stroke-opacity="0.287541" stroke-linecap="round"></path></g><g transform="translate(175.04838112032218 14.115581788613053) rotate(337.6368026322762)"><path d="M -10.771585104821055,0 h21.54317020964211" stroke="#EAEAEA" stroke-width="1" stroke-opacity="0.538579" stroke-linecap="round"></path></g><g transform="translate(62.150685088668 246.1924500576994) rotate(126.83295316680025)"><path d="M -10.457995435008476,0 h20.91599087001695" stroke="#EAEAEA" stroke-width="1" stroke-opacity="0.5229" stroke-linecap="round"></path></g><g transform="translate(221.74169250268417 306.5250670090632) rotate(127.6755011743994)"><path d="M -13.76904440236837,0 h27.53808880473674" stroke="#EAEAEA" stroke-width="1" stroke-opacity="0.688452" stroke-linecap="round"></path></g><g transform="translate(169.07026700848004 410.6138552325017) rotate(237.71289609702688)"><path d="M -4.096831648745188,0 h8.193663297490376" stroke="#EAEAEA" stroke-width="1" stroke-opacity="0.204842" stroke-linecap="round"></path></g><g transform="translate(274.8473070287196 215.28771642701622) rotate(248.5234476804128)"><path d="M -12.346757024818691,0 h24.693514049637383" stroke="#EAEAEA" stroke-width="1" stroke-opacity="0.617338" stroke-linecap="round"></path></g><g transform="translate(382.4483267439226 244.93532650412735) rotate(289.33859485113595)"><path d="M -9.123487674363616,0 h18.246975348727233" stroke="#EAEAEA" stroke-width="1" stroke-opacity="0.456174" stroke-linecap="round"></path></g><g transform="translate(497.3507783034263 145.99337616680702) rotate(297.8433693618477)"><path d="M -3.9647475037437285,0 h7.929495007487457" stroke="#EAEAEA" stroke-width="1" stroke-opacity="0.198237" stroke-linecap="round"></path></g><g transform="translate(380.7752672771426 293.1484369913599) rotate(127.44769477372228)"><path d="M -10.902542359244391,0 h21.805084718488782" stroke="#EAEAEA" stroke-width="1" stroke-opacity="0.545127" stroke-linecap="round"></path></g><g transform="translate(135.3099834515505 20.33086197614209) rotate(175.38133386797222)"><path d="M -10.307750440721712,0 h20.615500881443424" stroke="#EAEAEA" stroke-width="1" stroke-opacity="0.515388" stroke-linecap="round"></path></g><g transform="translate(15.222562046488031 234.4833810277837) rotate(214.54254822381682)"><path d="M -6.127832037270476,0 h12.255664074540952" stroke="#EAEAEA" stroke-width="1" stroke-opacity="0.306392" stroke-linecap="round"></path></g><g transform="translate(398.31040442379623 227.91697152340768) rotate(5.588196629089288)"><path d="M -12.430206047495949,0 h24.860412094991897" stroke="#EAEAEA" stroke-width="1" stroke-opacity="0.62151" stroke-linecap="round"></path></g><g transform="translate(380.71112010124665 204.72594321047492) rotate(33.888466051800535)"><path d="M -10.49642939298485,0 h20.9928587859697" stroke="#EAEAEA" stroke-width="1" stroke-opacity="0.524821" stroke-linecap="round"></path></g><g transform="translate(490.38654769007775 399.71632290111506) rotate(160.27580208538834)"><path d="M -2.273298553291541,0 h4.546597106583082" stroke="#EAEAEA" stroke-width="1" stroke-opacity="0.113665" stroke-linecap="round"></path></g><g transform="translate(233.80792229908042 284.26695042084185) rotate(277.02752489197223)"><path d="M -18.70051874818572,0 h37.40103749637144" stroke="#EAEAEA" stroke-width="1" stroke-opacity="0.935026" stroke-linecap="round"></path></g><g transform="translate(301.23677494268145 31.903052218796635) rotate(127.0231044030465)"><path d="M -18.879988333628805,0 h37.75997666725761" stroke="#EAEAEA" stroke-width="1" stroke-opacity="0.943999" stroke-linecap="round"></path></g><g transform="translate(233.5079833340159 458.39064338456916) rotate(230.92428906644537)"><path d="M -15.88590260091798,0 h31.77180520183596" stroke="#EAEAEA" stroke-width="1" stroke-opacity="0.794295" stroke-linecap="round"></path></g><g transform="translate(394.5785574911552 384.81565643336967) rotate(172.77136088969485)"><path d="M -8.86348057410565,0 h17.7269611482113" stroke="#EAEAEA" stroke-width="1" stroke-opacity="0.443174" stroke-linecap="round"></path></g><g transform="translate(385.09767876008743 483.32276709746) rotate(71.49177067380126)"><path d="M -7.615711828416534,0 h15.231423656833067" stroke="#EAEAEA" stroke-width="1" stroke-opacity="0.380786" stroke-linecap="round"></path></g><g transform="translate(387.84800738002554 474.1003611492645) rotate(277.0670668566607)"><path d="M -5.783320139734641,0 h11.566640279469283" stroke="#EAEAEA" stroke-width="1" stroke-opacity="0.289166" stroke-linecap="round"></path></g><g transform="translate(491.920845913133 44.44908669299535) rotate(328.6138179323849)"><path d="M -19.41387916511889,0 h38.82775833023778" stroke="#EAEAEA" stroke-width="1" stroke-opacity="0.970694" stroke-linecap="round"></path></g><g transform="translate(484.0036379751079 390.706532292511) rotate(259.6817631507806)"><path d="M -7.430699750620691,0 h14.861399501241381" stroke="#EAEAEA" stroke-width="1" stroke-opacity="0.371535" stroke-linecap="round"></path></g><g transform="translate(119.66790805157174 82.2602968926529) rotate(318.7353928358238)"><path d="M -7.505530908370554,0 h15.011061816741108" stroke="#EAEAEA" stroke-width="1" stroke-opacity="0.375277" stroke-linecap="round"></path></g><g transform="translate(422.6953113559255 132.15727736316745) rotate(162.13704725002432)"><path d="M -15.817835297580293,0 h31.635670595160587" stroke="#EAEAEA" stroke-width="1" stroke-opacity="0.790892" stroke-linecap="round"></path></g><g transform="translate(267.0501079158111 264.11040397860705) rotate(142.2805735122573)"><path d="M -15.773723896125633,0 h31.547447792251265" stroke="#EAEAEA" stroke-width="1" stroke-opacity="0.788686" stroke-linecap="round"></path></g><g transform="translate(298.07441856071637 308.8102983810369) rotate(279.1927998204816)"><path d="M -3.566725175591392,0 h7.133450351182784" stroke="#EAEAEA" stroke-width="1" stroke-opacity="0.178336" stroke-linecap="round"></path></g><g transform="translate(176.80136368209438 306.56397495801946) rotate(31.862704826000467)"><path d="M -15.77909762198956,0 h31.55819524397912" stroke="#EAEAEA" stroke-width="1" stroke-opacity="0.788955" stroke-linecap="round"></path></g><g transform="translate(36.8236714219482 217.29697666859033) rotate(320.4363211848389)"><path d="M -19.299244834548848,0 h38.598489669097695" stroke="#EAEAEA" stroke-width="1" stroke-opacity="0.964962" stroke-linecap="round"></path></g><g transform="translate(324.27154448338536 452.55815789083323) rotate(319.00089581670807)"><path d="M -15.967749204558409,0 h31.935498409116818" stroke="#EAEAEA" stroke-width="1" stroke-opacity="0.798387" stroke-linecap="round"></path></g><g transform="translate(468.4285814376154 258.4315228786921) rotate(229.91913126614165)"><path d="M -7.657882111158274,0 h15.315764222316549" stroke="#EAEAEA" stroke-width="1" stroke-opacity="0.382894" stroke-linecap="round"></path></g><g transform="translate(293.3794035206716 12.908404355970681) rotate(195.4370317706416)"><path d="M -12.698571027452878,0 h25.397142054905757" stroke="#EAEAEA" stroke-width="1" stroke-opacity="0.634929" stroke-linecap="round"></path></g><g transform="translate(338.2189034311731 365.03918401828537) rotate(107.035342063309)"><path d="M -14.349340737158018,0 h28.698681474316036" stroke="#EAEAEA" stroke-width="1" stroke-opacity="0.717467" stroke-linecap="round"></path></g><g transform="translate(172.79772961650096 161.95306960973377) rotate(166.78363973688846)"><path d="M -4.199194882228868,0 h8.398389764457736" stroke="#EAEAEA" stroke-width="1" stroke-opacity="0.20996" stroke-linecap="round"></path></g><g transform="translate(466.10611700539715 250.27208956290443) rotate(70.24535365901762)"><path d="M -9.189517072982344,0 h18.379034145964688" stroke="#EAEAEA" stroke-width="1" stroke-opacity="0.459476" stroke-linecap="round"></path></g><g transform="translate(167.39170357189442 238.21142885189084) rotate(189.6422043451016)"><path d="M -10.170044580196233,0 h20.340089160392466" stroke="#EAEAEA" stroke-width="1" stroke-opacity="0.508502" stroke-linecap="round"></path></g><g transform="translate(443.9998249941245 481.97527549217375) rotate(207.93185943246817)"><path d="M -8.887993459083475,0 h17.77598691816695" stroke="#EAEAEA" stroke-width="1" stroke-opacity="0.4444" stroke-linecap="round"></path></g><g transform="translate(248.3931216837436 232.52464111761444) rotate(90.83572390517205)"><path d="M -17.94269581816182,0 h35.88539163632364" stroke="#EAEAEA" stroke-width="1" stroke-opacity="0.897135" stroke-linecap="round"></path></g><g transform="translate(399.4643110954072 332.2349196204437) rotate(22.605667886564582)"><path d="M -4.605876862886569,0 h9.211753725773137" stroke="#EAEAEA" stroke-width="1" stroke-opacity="0.230294" stroke-linecap="round"></path></g><g transform="translate(102.49158222841531 407.4536136713267) rotate(157.48288401451882)"><path d="M -13.967622573782673,0 h27.935245147565347" stroke="#EAEAEA" stroke-width="1" stroke-opacity="0.698381" stroke-linecap="round"></path></g><g transform="translate(333.9371913446209 263.99268827242906) rotate(229.04036272257392)"><path d="M -10.951924890880543,0 h21.903849781761085" stroke="#EAEAEA" stroke-width="1" stroke-opacity="0.547596" stroke-linecap="round"></path></g><g transform="translate(75.57008111474345 158.68762346845082) rotate(303.10990507631794)"><path d="M -8.643948162666067,0 h17.287896325332134" stroke="#EAEAEA" stroke-width="1" stroke-opacity="0.432197" stroke-linecap="round"></path></g><g transform="translate(140.8700907559039 435.39782456360797) rotate(9.559197132789485)"><path d="M -3.1216322974481683,0 h6.243264594896337" stroke="#EAEAEA" stroke-width="1" stroke-opacity="0.156082" stroke-linecap="round"></path></g><g transform="translate(467.30207488827534 350.2652350303017) rotate(254.2429637707011)"><path d="M -15.293114686594283,0 h30.586229373188566" stroke="#EAEAEA" stroke-width="1" stroke-opacity="0.764656" stroke-linecap="round"></path></g><g transform="translate(386.35447711911996 440.1445356098996) rotate(187.6312859940375)"><path d="M -19.332152392783513,0 h38.664304785567026" stroke="#EAEAEA" stroke-width="1" stroke-opacity="0.966608" stroke-linecap="round"></path></g><g transform="translate(111.95002747712707 499.2914980018414) rotate(67.88995397092141)"><path d="M -11.598740037028572,0 h23.197480074057143" stroke="#EAEAEA" stroke-width="1" stroke-opacity="0.579937" stroke-linecap="round"></path></g><g transform="translate(85.43924425630439 133.20241766820294) rotate(72.61486986012842)"><path d="M -2.8364860058520724,0 h5.672972011704145" stroke="#EAEAEA" stroke-width="1" stroke-opacity="0.141824" stroke-linecap="round"></path></g><g transform="translate(217.4444669997344 23.193199822479915) rotate(274.80826884275467)"><path d="M -16.734416870588593,0 h33.468833741177185" stroke="#EAEAEA" stroke-width="1" stroke-opacity="0.836721" stroke-linecap="round"></path></g><g transform="translate(186.07951189333437 154.93638530096104) rotate(154.95171340740956)"><path d="M -6.826908679437432,0 h13.653817358874864" stroke="#EAEAEA" stroke-width="1" stroke-opacity="0.341345" stroke-linecap="round"></path></g><g transform="translate(17.76389729573141 238.0059001321256) rotate(64.3054553741195)"><path d="M -6.247559543728196,0 h12.495119087456391" stroke="#EAEAEA" stroke-width="1" stroke-opacity="0.312378" stroke-linecap="round"></path></g><g transform="translate(112.17251710606713 297.76896391251324) rotate(128.44257843094238)"><path d="M -17.375349385766395,0 h34.75069877153279" stroke="#EAEAEA" stroke-width="1" stroke-opacity="0.868767" stroke-linecap="round"></path></g><g transform="translate(256.89443930827736 442.41990085516557) rotate(34.665246060113205)"><path d="M -8.593992374483177,0 h17.187984748966354" stroke="#EAEAEA" stroke-width="1" stroke-opacity="0.4297" stroke-linecap="round"></path></g><g transform="translate(262.4123986732861 451.5108275149788) rotate(183.94757563870886)"><path d="M -2.3617941971289307,0 h4.723588394257861" stroke="#EAEAEA" stroke-width="1" stroke-opacity="0.11809" stroke-linecap="round"></path></g><g transform="translate(363.2527629995963 359.2291657111845) rotate(271.88968003133004)"><path d="M -5.343986052661331,0 h10.687972105322663" stroke="#EAEAEA" stroke-width="1" stroke-opacity="0.267199" stroke-linecap="round"></path></g><g transform="translate(60.620382599137876 80.95857884083013) rotate(344.76582430844996)"><path d="M -13.471245577802396,0 h26.94249115560479" stroke="#EAEAEA" stroke-width="1" stroke-opacity="0.673562" stroke-linecap="round"></path></g><g transform="translate(349.5753271754077 295.8553477414698) rotate(287.770510436485)"><path d="M -9.774907294629394,0 h19.549814589258787" stroke="#EAEAEA" stroke-width="1" stroke-opacity="0.488745" stroke-linecap="round"></path></g><g transform="translate(155.27708344741686 31.586915016404816) rotate(80.50826429704594)"><path d="M -15.665613424797238,0 h31.331226849594476" stroke="#EAEAEA" stroke-width="1" stroke-opacity="0.783281" stroke-linecap="round"></path></g><g transform="translate(239.97764484699385 349.84578978415453) rotate(277.60273706058535)"><path d="M -9.418685973262447,0 h18.837371946524893" stroke="#EAEAEA" stroke-width="1" stroke-opacity="0.470934" stroke-linecap="round"></path></g><g transform="translate(270.6761118320273 87.04182655819498) rotate(173.79888725472114)"><path d="M -17.17912018888991,0 h34.35824037777982" stroke="#EAEAEA" stroke-width="1" stroke-opacity="0.858956" stroke-linecap="round"></path></g><g transform="translate(434.96304640437853 496.3216485793482) rotate(237.907579981322)"><path d="M -8.856850393565871,0 h17.713700787131742" stroke="#EAEAEA" stroke-width="1" stroke-opacity="0.442843" stroke-linecap="round"></path></g><g transform="translate(422.5230962276212 11.838223894327093) rotate(269.42272129479676)"><path d="M -6.613450019768471,0 h13.226900039536941" stroke="#EAEAEA" stroke-width="1" stroke-opacity="0.330673" stroke-linecap="round"></path></g><g transform="translate(422.441096866043 498.88058228372995) rotate(129.301091100899)"><path d="M -4.203894078582352,0 h8.407788157164704" stroke="#EAEAEA" stroke-width="1" stroke-opacity="0.210195" stroke-linecap="round"></path></g><g transform="translate(343.30025120781454 179.58376915117248) rotate(268.13189330278686)"><path d="M -11.311207389991711,0 h22.622414779983423" stroke="#EAEAEA" stroke-width="1" stroke-opacity="0.56556" stroke-linecap="round"></path></g><g transform="translate(330.7130964727465 228.3270520425475) rotate(343.6846055159105)"><path d="M -10.594449791533282,0 h21.188899583066565" stroke="#EAEAEA" stroke-width="1" stroke-opacity="0.529723" stroke-linecap="round"></path></g><g transform="translate(181.41177471634396 352.85202495430747) rotate(246.5645915865867)"><path d="M -16.25453895477372,0 h32.50907790954744" stroke="#EAEAEA" stroke-width="1" stroke-opacity="0.812727" stroke-linecap="round"></path></g><g transform="translate(17.739690941170615 418.13019629865414) rotate(356.155141850715)"><path d="M -16.664415641959835,0 h33.32883128391967" stroke="#EAEAEA" stroke-width="1" stroke-opacity="0.833221" stroke-linecap="round"></path></g><g transform="translate(389.8022828793638 399.7167237500867) rotate(261.9182552450073)"><path d="M -14.073919921345428,0 h28.147839842690857" stroke="#EAEAEA" stroke-width="1" stroke-opacity="0.703696" stroke-linecap="round"></path></g><g transform="translate(127.99231189417998 331.0147955632464) rotate(144.3389797695385)"><path d="M -8.855656668874467,0 h17.711313337748933" stroke="#EAEAEA" stroke-width="1" stroke-opacity="0.442783" stroke-linecap="round"></path></g><g transform="translate(333.7929858930472 167.38353348991836) rotate(204.22391912833845)"><path d="M -2.524816620121654,0 h5.049633240243308" stroke="#EAEAEA" stroke-width="1" stroke-opacity="0.126241" stroke-linecap="round"></path></g><g transform="translate(467.35005731010324 110.52101515666313) rotate(344.38588157949874)"><path d="M -13.57156622514794,0 h27.14313245029588" stroke="#EAEAEA" stroke-width="1" stroke-opacity="0.678578" stroke-linecap="round"></path></g><g transform="translate(37.657035378763695 72.27652666820639) rotate(123.97184143008893)"><path d="M -3.1623080886038633,0 h6.3246161772077265" stroke="#EAEAEA" stroke-width="1" stroke-opacity="0.158115" stroke-linecap="round"></path></g><g transform="translate(477.5799592430109 266.12955204365556) rotate(24.56553660196628)"><path d="M -9.78989193775827,0 h19.57978387551654" stroke="#EAEAEA" stroke-width="1" stroke-opacity="0.489495" stroke-linecap="round"></path></g><g transform="translate(110.56292367600157 329.89958863389234) rotate(79.47337169047394)"><path d="M -5.969522220832193,0 h11.939044441664386" stroke="#EAEAEA" stroke-width="1" stroke-opacity="0.298476" stroke-linecap="round"></path></g><g transform="translate(422.06112310750933 417.004564022866) rotate(117.97555376876194)"><path d="M -14.18723760073644,0 h28.37447520147288" stroke="#EAEAEA" stroke-width="1" stroke-opacity="0.709362" stroke-linecap="round"></path></g><g transform="translate(74.16895877220736 296.27385573647115) rotate(209.10343213672115)"><path d="M -3.4975557540795874,0 h6.995111508159175" stroke="#EAEAEA" stroke-width="1" stroke-opacity="0.174878" stroke-linecap="round"></path></g><g transform="translate(392.8111402801684 471.3259169385311) rotate(136.04339143513914)"><path d="M -11.47864482204001,0 h22.95728964408002" stroke="#EAEAEA" stroke-width="1" stroke-opacity="0.573932" stroke-linecap="round"></path></g><g transform="translate(494.4977086882599 481.4253003587139) rotate(204.7396379436475)"><path d="M -16.00532797530025,0 h32.0106559506005" stroke="#EAEAEA" stroke-width="1" stroke-opacity="0.800266" stroke-linecap="round"></path></g><g transform="translate(114.46453419438679 260.2114266855282) rotate(254.1137980866753)"><path d="M -2.3542154221388683,0 h4.7084308442777365" stroke="#EAEAEA" stroke-width="1" stroke-opacity="0.117711" stroke-linecap="round"></path></g><g transform="translate(227.79398367263076 391.9842453902743) rotate(191.3479294643786)"><path d="M -2.733506624157414,0 h5.467013248314828" stroke="#EAEAEA" stroke-width="1" stroke-opacity="0.136675" stroke-linecap="round"></path></g><g transform="translate(21.188335766344878 486.7614354221054) rotate(180.16022212510532)"><path d="M -7.324095876888624,0 h14.648191753777247" stroke="#EAEAEA" stroke-width="1" stroke-opacity="0.366205" stroke-linecap="round"></path></g><g transform="translate(399.02614004469035 237.57468068420374) rotate(335.39683687758264)"><path d="M -3.0306044168613937,0 h6.061208833722787" stroke="#EAEAEA" stroke-width="1" stroke-opacity="0.15153" stroke-linecap="round"></path></g><g transform="translate(95.2771050022757 85.42086242893842) rotate(198.12184462686938)"><path d="M -6.68144620669736,0 h13.36289241339472" stroke="#EAEAEA" stroke-width="1" stroke-opacity="0.334072" stroke-linecap="round"></path></g><g transform="translate(452.59815331380787 376.619258601799) rotate(293.83239405282734)"><path d="M -16.59960637463645,0 h33.1992127492729" stroke="#EAEAEA" stroke-width="1" stroke-opacity="0.82998" stroke-linecap="round"></path></g><g transform="translate(387.511088043887 309.41564943792343) rotate(221.81489651866661)"><path d="M -7.99592232555995,0 h15.9918446511199" stroke="#EAEAEA" stroke-width="1" stroke-opacity="0.399796" stroke-linecap="round"></path></g><g transform="translate(32.90019810382388 1.834667651379407) rotate(339.9464754226852)"><path d="M -9.696979221522826,0 h19.39395844304565" stroke="#EAEAEA" stroke-width="1" stroke-opacity="0.484849" stroke-linecap="round"></path></g><g transform="translate(71.07006687946537 341.1712963792161) rotate(300.10062247933104)"><path d="M -19.79727874477048,0 h39.59455748954096" stroke="#EAEAEA" stroke-width="1" stroke-opacity="0.989864" stroke-linecap="round"></path></g><g transform="translate(454.0804267946545 252.61025114025514) rotate(46.240190399996976)"><path d="M -4.728694916142248,0 h9.457389832284496" stroke="#EAEAEA" stroke-width="1" stroke-opacity="0.236435" stroke-linecap="round"></path></g><g transform="translate(401.5452541318715 127.907879057234) rotate(41.702204278159485)"><path d="M -9.42826127532343,0 h18.85652255064686" stroke="#EAEAEA" stroke-width="1" stroke-opacity="0.471413" stroke-linecap="round"></path></g><g transform="translate(184.2715864072223 181.51082010705056) rotate(164.15748067084562)"><path d="M -6.898782944715975,0 h13.79756588943195" stroke="#EAEAEA" stroke-width="1" stroke-opacity="0.344939" stroke-linecap="round"></path></g><g transform="translate(132.3182279752499 468.1729173471764) rotate(10.178656699391597)"><path d="M -6.1253230829490635,0 h12.250646165898127" stroke="#EAEAEA" stroke-width="1" stroke-opacity="0.306266" stroke-linecap="round"></path></g><g transform="translate(174.90405441673988 7.280356769271911) rotate(212.15716140626216)"><path d="M -13.781998857575033,0 h27.563997715150066" stroke="#EAEAEA" stroke-width="1" stroke-opacity="0.6891" stroke-linecap="round"></path></g><g transform="translate(475.1774656491465 254.7485772725908) rotate(79.43992478197391)"><path d="M -12.750353899034028,0 h25.500707798068056" stroke="#EAEAEA" stroke-width="1" stroke-opacity="0.637518" stroke-linecap="round"></path></g><g transform="translate(307.6438308025327 348.28310700023604) rotate(167.426260322813)"><path d="M -17.038529308017942,0 h34.077058616035885" stroke="#EAEAEA" stroke-width="1" stroke-opacity="0.851926" stroke-linecap="round"></path></g><g transform="translate(200.5541745770108 34.189063925029295) rotate(305.16977668362046)"><path d="M -11.44701320251987,0 h22.89402640503974" stroke="#EAEAEA" stroke-width="1" stroke-opacity="0.572351" stroke-linecap="round"></path></g><g transform="translate(425.8158917089772 456.0610140954936) rotate(164.38335158685715)"><path d="M -2.279338687440113,0 h4.558677374880226" stroke="#EAEAEA" stroke-width="1" stroke-opacity="0.113967" stroke-linecap="round"></path></g><g transform="translate(436.73245596636195 246.14553300296137) rotate(300.2732477343651)"><path d="M -12.970563052800625,0 h25.94112610560125" stroke="#EAEAEA" stroke-width="1" stroke-opacity="0.648528" stroke-linecap="round"></path></g><g transform="translate(364.5623987925761 254.17895050457219) rotate(146.17100819385251)"><path d="M -13.55007978024728,0 h27.10015956049456" stroke="#EAEAEA" stroke-width="1" stroke-opacity="0.677504" stroke-linecap="round"></path></g><g transform="translate(305.29687455527244 409.38079954120235) rotate(207.15045188395945)"><path d="M -19.512652362934833,0 h39.02530472586967" stroke="#EAEAEA" stroke-width="1" stroke-opacity="0.975633" stroke-linecap="round"></path></g><g transform="translate(455.87334170638536 299.8760145497664) rotate(307.1358071365617)"><path d="M -19.400029118976832,0 h38.800058237953664" stroke="#EAEAEA" stroke-width="1" stroke-opacity="0.970001" stroke-linecap="round"></path></g><g transform="translate(136.32757740732887 220.33827653955717) rotate(270.8294480841829)"><path d="M -18.92540098795046,0 h37.85080197590092" stroke="#EAEAEA" stroke-width="1" stroke-opacity="0.94627" stroke-linecap="round"></path></g><g transform="translate(215.25667004232184 439.59020091518596) rotate(58.665781020767774)"><path d="M -7.3878927658459626,0 h14.775785531691925" stroke="#EAEAEA" stroke-width="1" stroke-opacity="0.369395" stroke-linecap="round"></path></g><g transform="translate(11.234576859751211 268.4932661095303) rotate(345.28820999262945)"><path d="M -17.970736359773326,0 h35.94147271954665" stroke="#EAEAEA" stroke-width="1" stroke-opacity="0.898537" stroke-linecap="round"></path></g><g transform="translate(400.05898202986197 390.46130741417153) rotate(85.54526895685702)"><path d="M -14.873922434810623,0 h29.747844869621247" stroke="#EAEAEA" stroke-width="1" stroke-opacity="0.743696" stroke-linecap="round"></path></g><g transform="translate(46.155816174102085 55.58000510678468) rotate(195.93440202233322)"><path d="M -6.180007708641431,0 h12.360015417282861" stroke="#EAEAEA" stroke-width="1" stroke-opacity="0.309" stroke-linecap="round"></path></g><g transform="translate(342.3004320656538 93.64908978349156) rotate(241.72437601863734)"><path d="M -11.103198691991189,0 h22.206397383982377" stroke="#EAEAEA" stroke-width="1" stroke-opacity="0.55516" stroke-linecap="round"></path></g><g transform="translate(164.47988630139415 196.23711603547173) rotate(277.6997229937287)"><path d="M -9.567238985772883,0 h19.134477971545767" stroke="#EAEAEA" stroke-width="1" stroke-opacity="0.478362" stroke-linecap="round"></path></g><g transform="translate(408.3559308851959 328.0665599215978) rotate(296.62489479469696)"><path d="M -15.431142580989901,0 h30.862285161979802" stroke="#EAEAEA" stroke-width="1" stroke-opacity="0.771557" stroke-linecap="round"></path></g><g transform="translate(489.7821383525249 30.701811655026113) rotate(103.99984007628188)"><path d="M -17.19162937051918,0 h34.38325874103836" stroke="#EAEAEA" stroke-width="1" stroke-opacity="0.859581" stroke-linecap="round"></path></g><g transform="translate(440.35735622636093 315.5337765368415) rotate(125.4275033092826)"><path d="M -14.29799307022938,0 h28.59598614045876" stroke="#EAEAEA" stroke-width="1" stroke-opacity="0.7149" stroke-linecap="round"></path></g></g>
  <!-- <rect id="tint" x="0" y="0" rx="20" ry="20" width="" height="" fill="url(#tintGradient)" /> -->
  <g id="mainHolder"><g transform="translate(250 250) rotate(30.183494210815685)"><path d="M -200,0 h400" stroke="#EAEAEA" stroke-width="10px" stroke-opacity="1" stroke-linecap="round"></path></g></g>
  <text class="styled-text" x="250" y="480" text-anchor="middle" fill="white" font-size="60" font-weight="800" >line</text>
  <style>
  .styled-text {
    fill: white;
    font-family: sans-serif;
    font-size: 60px;
    font-weight: bold;
    /* Other SVG presentation attributes like fill, stroke, etc., can be used as CSS properties */
  }
  </style>
</svg>