<svg xmlns="http://www.w3.org/2000/svg" width="1000" height="93" fill="none" viewBox="0 0 1000 93">
  <g fill="#35535a" >
  <path d="M296.296 93H74.074s23.704-34.962 29.63-36.71l11.852-3.497s11.851-20.628 16.296-23.075c4.444-2.098 14.815-3.147 17.037-5.594C151.111 21.327 165.185 3.496 170.37.35l.741-.35c3.704 0 35.556 32.515 35.556 32.515s9.629-.35 14.814 1.049l1.482 1.049c3.704 2.447 18.518 15.733 20.741 15.733s12.592 1.748 18.518 3.846l4.445 1.748c4.444 2.447 26.666 21.677 29.629 37.06"/>
  <path d="M444.444 93H222.963s23.704-27.27 29.63-28.67l11.851-2.796s11.112-16.083 16.297-18.18c4.444-1.749 14.815-2.448 17.037-4.546 1.481-1.748 15.555-16.082 20.741-18.18l1.481-.35c3.704 0 35.556 25.523 35.556 25.523s9.629-.35 14.074.699l2.222.7c2.963 2.097 17.778 12.236 20.741 12.236 2.222 0 11.851 1.748 17.777 3.147l4.445 1.398c4.444 2.098 26.666 17.132 29.629 29.019m1333.336 0h-222.22s23.7-34.962 29.63-36.71l11.85-3.497s11.85-20.628 16.29-23.075c4.45-2.098 14.82-3.147 17.04-5.594 2.22-2.797 16.3-20.628 21.48-23.774l.74-.35c3.71 0 35.56 32.515 35.56 32.515s9.63-.35 14.81 1.049l1.48 1.049c3.71 2.447 18.52 15.733 20.75 15.733 2.22 0 12.59 1.748 18.51 3.846l4.45 1.748c4.44 2.447 26.66 21.677 29.63 37.06"/>
  <path d="M1925.93 93h-221.49s23.71-27.272 29.63-28.67l11.86-2.797s11.11-16.083 16.29-18.18c4.45-1.749 14.82-2.448 17.04-4.546 1.48-1.748 15.55-16.082 20.74-18.18l1.48-.35c3.71 0 35.56 25.523 35.56 25.523s9.63-.35 14.07.7l2.22.698c2.97 2.098 17.78 12.237 20.74 12.237 2.23 0 11.86 1.748 17.78 3.147l4.45 1.398c4.44 2.098 26.66 17.132 29.63 29.02M648.889 93H444.444s21.482-20.279 27.408-21.328l10.37-1.748s11.111-11.887 15.556-13.286c3.703-1.398 13.333-1.748 15.555-3.496 1.482-1.399 14.815-11.887 19.26-13.635h1.481c2.963 0 32.593 18.53 32.593 18.53s8.889 0 13.333.699l1.481.7c2.963 1.398 17.038 9.09 19.26 9.09 7.199.57 14.185 1.63 20.74 3.146 3.704 1.399 24.445 12.587 27.408 21.327m-500.741 0H0s15.556-16.783 19.26-17.482l8.147-1.748s8.149-9.79 11.112-10.838c2.962-1.05 9.63-1.399 11.11-2.797 1.482-1.05 11.112-9.79 14.075-11.188l.74-.35c2.963 0 23.704 15.733 23.704 15.733s6.667-.35 9.63.35l1.481.35c2.222 1.398 12.593 7.69 14.074 7.69 5.226.55 10.229 1.495 14.815 2.798 2.963 1.049 17.778 10.139 20 17.481"/>
  <path d="M518.518 90.903H370.37s15.556-16.782 19.26-17.481l8.148-1.748s8.148-9.79 11.111-10.839 9.63-1.748 11.111-2.797c1.481-1.398 11.111-9.79 14.074-11.188l.741-.35c2.963 0 23.703 15.384 23.703 15.384s6.667 0 9.63.7l1.482.349c2.222 1.049 12.592 7.692 14.074 7.692 5.182.44 10.183 1.266 14.814 2.447 2.963 1.398 17.778 10.489 20 17.83M2000 93h-148.15s15.56-16.782 19.26-17.482l8.15-1.748s8.15-9.79 11.11-10.838 9.63-1.398 11.11-2.797c1.48-1.049 11.11-9.79 14.08-11.188l.74-.35c2.96 0 23.7 15.733 23.7 15.733s6.67-.35 9.63.35l1.48.35c2.22 1.398 12.59 7.691 14.08 7.691 5.22.55 10.22 1.494 14.81 2.797 2.96 1.05 17.78 10.14 20 17.482m-370.37 0h-148.15s15.56-16.782 19.26-17.482l8.15-1.748s8.15-9.79 11.11-10.838 9.63-1.398 11.11-2.797c1.48-1.049 11.11-9.79 14.08-11.188l.74-.35c2.96 0 23.7 15.733 23.7 15.733s6.67-.35 9.63.35l1.48.35c2.22 1.398 12.59 7.691 14.07 7.691 5.23.55 10.23 1.494 14.82 2.797 2.96 1.05 17.78 10.14 20 17.482m-911.112 0H537.037s19.259-23.076 24.444-24.124l9.63-2.448s9.63-13.635 13.333-15.034c3.704-1.398 11.852-2.097 14.074-3.846 1.482-1.748 12.593-13.635 17.038-15.733h.74c2.963 0 28.889 21.328 28.889 21.328s8.148-.35 11.852.699l2.222.699c2.222 1.398 14.815 10.489 17.037 10.489 1.482 0 9.63 1.049 14.815 2.447l2.963 1.049c3.704 1.748 22.222 14.335 24.444 24.474"/>
  <path d="M1028.89 93H637.037s41.482-29.37 51.852-30.768c10.37-1.748 21.481-2.797 21.481-2.797s20-17.48 28.149-19.579c8.148-1.748 26.666-2.447 30.37-4.894 3.704-2.098 28.148-17.132 37.037-19.58l2.222-.349c6.667 0 62.963 27.27 62.963 27.27s17.037-.349 25.185 1.05l3.704.699c5.185 2.098 31.852 13.286 36.296 13.286 13.656.794 27.075 2.319 40 4.545 7.408 2.098 46.664 18.18 52.594 31.116"/>
  <path d="M1340.74 93H949.63s41.481-29.37 51.85-30.768l20.74-2.797s20.74-17.48 28.89-19.579c8.15-1.748 25.93-2.447 30.37-4.894 2.96-2.098 28.15-17.132 37.04-19.58l2.22-.349c5.93 0 62.22 27.27 62.22 27.27s17.04-.349 25.93 1.05l2.96.699c5.93 2.098 32.59 13.286 37.04 13.286 13.65.794 27.07 2.319 40 4.545 7.41 2.098 46.67 18.18 51.85 31.116"/>
  <path d="M1159.26 93H843.704s33.333-20.278 42.222-21.327l17.037-1.748s16.296-11.887 22.963-13.286 20.741-1.748 24.444-3.496c2.963-1.398 22.222-11.887 29.63-13.635h1.481c5.926 0 51.109 18.53 51.109 18.53s13.34 0 20 .7l2.97.698c4.44 1.399 25.92 9.09 29.63 9.09 10.8.561 21.47 1.615 31.85 3.147 5.92 1.399 37.77 12.587 42.22 21.327"/>
  <path d="M1471.85 93H1156.3s33.33-20.278 41.48-21.327l17.03-1.748s16.3-11.887 22.97-13.286c6.66-1.398 21.48-1.748 24.44-3.496 2.97-1.398 22.97-11.887 30.37-13.635h1.48c5.19 0 50.37 18.53 50.37 18.53s14.08 0 20.75.7l2.96.698c4.44 1.399 25.92 9.09 29.63 9.09 10.81.561 21.47 1.615 31.85 3.147 5.93 1.399 37.78 12.587 42.22 21.327"/>
  <path d="M1334.81 93h-286.66s30.37-27.272 38.52-28.67l14.81-2.797s15.56-16.083 21.48-18.18c5.93-1.749 19.26-2.448 22.23-4.546 2.22-1.748 20.74-16.082 26.66-18.18l1.48-.35c5.19 0 45.93 25.523 45.93 25.523s12.59-.35 19.26.7l2.22.698c4.45 2.098 23.7 12.237 26.67 12.237 10.29.832 20.27 2.363 29.63 4.545 5.18 2.098 34.07 17.132 37.77 29.02m220.75 0h-194.82s20.74-13.986 25.93-14.685l10.37-1.399s10.37-8.39 14.07-9.44c4.45-.699 13.33-1.048 15.56-2.447 1.48-.699 14.07-8.041 18.52-9.44h.74c2.96 0 31.11 12.936 31.11 12.936s8.15 0 12.59.7l1.48.35c2.96 1.048 16.3 6.293 18.52 6.293 6.81.35 13.52 1.054 20 2.097 3.7 1.05 22.96 8.742 25.93 15.035"/>
</g>
</svg>