<svg width="1000" height="250" viewBox="0 0 1000 250" fill="none" xmlns="http://www.w3.org/2000/svg">
<rect width="1000" height="250" fill="#E5E5E5"/>
<g id="parallax 1" clip-path="url(#clip0_0_1)">
<path id="sky" d="M1000 0H0V250H1000V0Z" fill="url(#paint0_linear_0_1)"/>
<g id="sun">
<path id="core" d="M844 154C860.569 154 874 140.569 874 124C874 107.431 860.569 94 844 94C827.431 94 814 107.431 814 124C814 140.569 827.431 154 844 154Z" fill="#FEE6D5"/>
<path id="inner-sun" opacity="0.3" d="M844 154C860.569 154 874 140.569 874 124C874 107.431 860.569 94 844 94C827.431 94 814 107.431 814 124C814 140.569 827.431 154 844 154Z" fill="#FEE6D5"/>
<path id="middle-sun" opacity="0.3" d="M844 154C860.569 154 874 140.569 874 124C874 107.431 860.569 94 844 94C827.431 94 814 107.431 814 124C814 140.569 827.431 154 844 154Z" fill="#FEE6D5"/>
<path id="outer-sun" d="M844 154C860.569 154 874 140.569 874 124C874 107.431 860.569 94 844 94C827.431 94 814 107.431 814 124C814 140.569 827.431 154 844 154Z" fill="#FEE6D5"/>
</g>
<g id="range">
<g id="range_graphic_front">
<path d="M296.296 250H74.0741C74.0741 250 97.7778 215.038 103.704 213.289L115.556 209.793C115.556 209.793 127.407 189.165 131.852 186.718C136.296 184.62 146.667 183.571 148.889 181.124C151.111 178.327 165.185 160.496 170.37 157.35L171.111 157C174.815 157 206.667 189.515 206.667 189.515C206.667 189.515 216.296 189.165 221.481 190.564L222.963 191.613C226.667 194.06 241.481 207.346 243.704 207.346C245.926 207.346 256.296 209.094 262.222 211.192L266.667 212.94C271.111 215.387 293.333 234.617 296.296 250Z" fill="#35535A"/>
<path d="M444.444 250H222.963C222.963 250 246.667 222.729 252.593 221.331L264.444 218.534C264.444 218.534 275.556 202.451 280.741 200.353C285.185 198.605 295.556 197.906 297.778 195.808C299.259 194.06 313.333 179.726 318.519 177.628L320 177.278C323.704 177.278 355.556 202.801 355.556 202.801C355.556 202.801 365.185 202.451 369.63 203.5L371.852 204.199C374.815 206.297 389.63 216.436 392.593 216.436C394.815 216.436 404.444 218.184 410.37 219.583L414.815 220.981C419.259 223.079 441.481 238.113 444.444 250ZM1777.78 250H1555.56C1555.56 250 1579.26 215.038 1585.19 213.289L1597.04 209.793C1597.04 209.793 1608.89 189.165 1613.33 186.718C1617.78 184.62 1628.15 183.571 1630.37 181.124C1632.59 178.327 1646.67 160.496 1651.85 157.35L1652.59 157C1656.3 157 1688.15 189.515 1688.15 189.515C1688.15 189.515 1697.78 189.165 1702.96 190.564L1704.44 191.613C1708.15 194.06 1722.96 207.346 1725.19 207.346C1727.41 207.346 1737.78 209.094 1743.7 211.192L1748.15 212.94C1752.59 215.387 1774.81 234.617 1777.78 250Z" fill="#35535A"/>
<path d="M1925.93 249.999H1704.44C1704.44 249.999 1728.15 222.728 1734.07 221.33L1745.93 218.533C1745.93 218.533 1757.04 202.45 1762.22 200.353C1766.67 198.604 1777.04 197.905 1779.26 195.807C1780.74 194.059 1794.81 179.725 1800 177.627L1801.48 177.277C1805.19 177.277 1837.04 202.8 1837.04 202.8C1837.04 202.8 1846.67 202.45 1851.11 203.499L1853.33 204.198C1856.3 206.296 1871.11 216.435 1874.07 216.435C1876.3 216.435 1885.93 218.183 1891.85 219.582L1896.3 220.98C1900.74 223.078 1922.96 238.112 1925.93 249.999ZM648.889 249.999L444.444 250C444.444 250 465.926 229.721 471.852 228.672L482.222 226.924C482.222 226.924 493.333 215.037 497.778 213.638C501.481 212.24 511.111 211.89 513.333 210.142C514.815 208.744 528.148 198.255 532.593 196.507H534.074C537.037 196.507 566.667 215.037 566.667 215.037C566.667 215.037 575.556 215.037 580 215.736L581.481 216.435C584.444 217.834 598.519 225.525 600.741 225.525C607.94 226.096 614.926 227.156 621.481 228.672C625.185 230.071 645.926 241.259 648.889 249.999ZM148.148 249.999H0C0 249.999 15.5556 233.217 19.2593 232.518L27.4074 230.77C27.4074 230.77 35.5556 220.98 38.5185 219.931C41.4815 218.883 48.1481 218.533 49.6296 217.134C51.1111 216.086 60.7407 207.345 63.7037 205.947L64.4444 205.597C67.4074 205.597 88.1481 221.33 88.1481 221.33C88.1481 221.33 94.8148 220.98 97.7778 221.68L99.2593 222.029C101.481 223.428 111.852 229.721 113.333 229.721C118.559 230.27 123.562 231.215 128.148 232.518C131.111 233.567 145.926 242.657 148.148 249.999Z" fill="#35535A"/>
<path d="M518.518 247.903H370.37C370.37 247.903 385.926 231.121 389.63 230.422L397.778 228.674C397.778 228.674 405.926 218.884 408.889 217.835C411.852 216.786 418.519 216.087 420 215.038C421.481 213.64 431.111 205.249 434.074 203.85L434.815 203.501C437.778 203.501 458.518 218.884 458.518 218.884C458.518 218.884 465.185 218.884 468.148 219.583L469.63 219.933C471.852 220.982 482.222 227.625 483.704 227.625C488.886 228.064 493.887 228.891 498.518 230.072C501.481 231.471 516.296 240.561 518.518 247.903ZM2000 250.001H1851.85C1851.85 250.001 1867.41 233.219 1871.11 232.519L1879.26 230.771C1879.26 230.771 1887.41 220.982 1890.37 219.933C1893.33 218.884 1900 218.534 1901.48 217.136C1902.96 216.087 1912.59 207.346 1915.56 205.948L1916.3 205.598C1919.26 205.598 1940 221.331 1940 221.331C1940 221.331 1946.67 220.982 1949.63 221.681L1951.11 222.031C1953.33 223.429 1963.7 229.722 1965.19 229.722C1970.41 230.272 1975.41 231.216 1980 232.519C1982.96 233.568 1997.78 242.659 2000 250.001ZM1629.63 250.001H1481.48C1481.48 250.001 1497.04 233.219 1500.74 232.519L1508.89 230.771C1508.89 230.771 1517.04 220.982 1520 219.933C1522.96 218.884 1529.63 218.534 1531.11 217.136C1532.59 216.087 1542.22 207.346 1545.19 205.948L1545.93 205.598C1548.89 205.598 1569.63 221.331 1569.63 221.331C1569.63 221.331 1576.3 220.982 1579.26 221.681L1580.74 222.031C1582.96 223.429 1593.33 229.722 1594.81 229.722C1600.04 230.272 1605.04 231.216 1609.63 232.519C1612.59 233.568 1627.41 242.659 1629.63 250.001ZM718.518 250.001H537.037C537.037 250.001 556.296 226.925 561.481 225.877L571.111 223.429C571.111 223.429 580.741 209.794 584.444 208.395C588.148 206.997 596.296 206.298 598.518 204.549C600 202.801 611.111 190.914 615.556 188.816H616.296C619.259 188.816 645.185 210.143 645.185 210.143C645.185 210.143 653.333 209.794 657.037 210.843L659.259 211.542C661.481 212.94 674.074 222.031 676.296 222.031C677.778 222.031 685.926 223.08 691.111 224.478L694.074 225.527C697.778 227.275 716.296 239.862 718.518 250.001Z" fill="#35535A"/>
<path d="M1028.89 249.999H637.037C637.037 249.999 678.519 220.631 688.889 219.232C699.259 217.484 710.37 216.435 710.37 216.435C710.37 216.435 730.37 198.954 738.519 196.857C746.667 195.108 765.185 194.409 768.889 191.962C772.593 189.864 797.037 174.83 805.926 172.383L808.148 172.033C814.815 172.033 871.111 199.304 871.111 199.304C871.111 199.304 888.148 198.954 896.296 200.353L900 201.052C905.185 203.15 931.852 214.338 936.296 214.338C949.952 215.132 963.371 216.657 976.296 218.883C983.704 220.981 1022.96 237.063 1028.89 249.999Z" fill="#35535A"/>
<path d="M1340.74 249.999H949.63C949.63 249.999 991.111 220.631 1001.48 219.232L1022.22 216.435C1022.22 216.435 1042.96 198.954 1051.11 196.857C1059.26 195.108 1077.04 194.409 1081.48 191.962C1084.44 189.864 1109.63 174.83 1118.52 172.383L1120.74 172.033C1126.67 172.033 1182.96 199.304 1182.96 199.304C1182.96 199.304 1200 198.954 1208.89 200.353L1211.85 201.052C1217.78 203.15 1244.44 214.338 1248.89 214.338C1262.54 215.132 1275.96 216.657 1288.89 218.883C1296.3 220.981 1335.56 237.063 1340.74 249.999Z" fill="#35535A"/>
<path d="M1159.26 250H843.704C843.704 250 877.037 229.722 885.926 228.673L902.963 226.925C902.963 226.925 919.259 215.038 925.926 213.639C932.593 212.241 946.667 211.891 950.37 210.143C953.333 208.745 972.592 198.256 980 196.508H981.481C987.407 196.508 1032.59 215.038 1032.59 215.038C1032.59 215.038 1045.93 215.038 1052.59 215.737L1055.56 216.436C1060 217.835 1081.48 225.527 1085.19 225.527C1095.99 226.087 1106.66 227.141 1117.04 228.673C1122.96 230.072 1154.81 241.26 1159.26 250Z" fill="#35535A"/>
<path d="M1471.85 250H1156.3C1156.3 250 1189.63 229.722 1197.78 228.673L1214.81 226.925C1214.81 226.925 1231.11 215.038 1237.78 213.639C1244.44 212.241 1259.26 211.891 1262.22 210.143C1265.19 208.745 1285.19 198.256 1292.59 196.508H1294.07C1299.26 196.508 1344.44 215.038 1344.44 215.038C1344.44 215.038 1358.52 215.038 1365.19 215.737L1368.15 216.436C1372.59 217.835 1394.07 225.527 1397.78 225.527C1408.59 226.087 1419.25 227.141 1429.63 228.673C1435.56 230.072 1467.41 241.26 1471.85 250Z" fill="#35535A"/>
<path d="M1334.81 249.999H1048.15C1048.15 249.999 1078.52 222.728 1086.67 221.33L1101.48 218.533C1101.48 218.533 1117.04 202.45 1122.96 200.353C1128.89 198.604 1142.22 197.905 1145.19 195.807C1147.41 194.059 1165.93 179.725 1171.85 177.627L1173.33 177.277C1178.52 177.277 1219.26 202.8 1219.26 202.8C1219.26 202.8 1231.85 202.45 1238.52 203.499L1240.74 204.198C1245.19 206.296 1264.44 216.435 1267.41 216.435C1277.7 217.267 1287.68 218.798 1297.04 220.98C1302.22 223.078 1331.11 238.112 1334.81 249.999ZM1555.56 250L1360.74 249.999C1360.74 249.999 1381.48 236.014 1386.67 235.315L1397.04 233.916C1397.04 233.916 1407.41 225.525 1411.11 224.477C1415.56 223.777 1424.44 223.428 1426.67 222.029C1428.15 221.33 1440.74 213.988 1445.19 212.589H1445.93C1448.89 212.589 1477.04 225.525 1477.04 225.525C1477.04 225.525 1485.19 225.525 1489.63 226.225L1491.11 226.574C1494.07 227.623 1507.41 232.868 1509.63 232.868C1516.44 233.218 1523.15 233.922 1529.63 234.965C1533.33 236.014 1552.59 243.707 1555.56 250Z" fill="#35535A"/>
</g>
</g>
<path id="fog" d="M1000 0H0V250H1000V0Z" fill="url(#paint1_linear_0_1)"/>
<g id="car">
<g id="body-holder">
<g id="carBody">
<path id="Vector" d="M471.374 197.293L487.75 184.986C491.193 182.399 495.384 181 499.69 181H541.412C545.832 180.993 550.185 182.086 554.078 184.181C557.971 186.276 561.281 189.307 563.711 193.001C570.452 203.294 576.485 218.994 566.752 235.167H431.354V221.13C431.353 218.215 432.339 215.385 434.153 213.103C435.966 210.821 438.5 209.221 441.34 208.564C450.717 206.39 464.391 202.542 471.374 197.293Z" fill="#FF1100"/>
<path id="Vector_2" opacity="0.03" d="M479.055 227.219V214.784C479.055 213.142 479.707 211.567 480.868 210.406C482.03 209.244 483.605 208.592 485.247 208.592H545.052C547.397 208.573 549.662 209.442 551.393 211.025C553.124 212.607 554.193 214.786 554.384 217.123C554.626 219.59 554.103 222.073 552.885 224.232L546.045 227.219H479.055Z" fill="black"/>
<path id="Vector_3" d="M570.145 227.219H430.702C429.762 227.219 429 227.981 429 228.921V233.471C429 234.411 429.762 235.173 430.702 235.173H570.145C571.085 235.173 571.847 234.411 571.847 233.471V228.921C571.847 227.981 571.085 227.219 570.145 227.219Z" fill="#FF1100"/>
<path id="Vector_4" opacity="0.46" d="M570.145 227.219H430.702C429.762 227.219 429 227.981 429 228.921V233.471C429 234.411 429.762 235.173 430.702 235.173H570.145C571.085 235.173 571.847 234.411 571.847 233.471V228.921C571.847 227.981 571.085 227.219 570.145 227.219Z" fill="white"/>
<path id="Vector_5" d="M491.143 189.184L479.065 200.762C478.764 201.051 478.556 201.423 478.468 201.831C478.38 202.238 478.416 202.663 478.572 203.05C478.727 203.437 478.994 203.769 479.339 204.003C479.685 204.237 480.092 204.363 480.509 204.363H547.939C548.545 204.363 549.142 204.219 549.681 203.942C550.22 203.665 550.685 203.264 551.038 202.771C551.39 202.278 551.62 201.708 551.709 201.109C551.797 200.509 551.741 199.897 551.546 199.324L549.081 192.088C548.54 190.5 547.515 189.121 546.151 188.144C544.786 187.167 543.15 186.642 541.472 186.643H497.467C495.11 186.643 492.844 187.554 491.143 189.184Z" fill="#24285B"/>
<path id="Vector_6" d="M555.257 184.859C555.257 184.859 552.095 198.584 570.013 206.006C570.013 206.006 566.977 191.03 555.257 184.859Z" fill="#24285B"/>
<path id="Vector_7" opacity="0.03" d="M455.471 215.299C455.156 215.271 454.862 215.132 454.641 214.907C454.419 214.682 454.285 214.386 454.261 214.071C454.237 213.756 454.326 213.443 454.511 213.188C454.697 212.932 454.967 212.751 455.273 212.675C458.382 211.86 461.667 212.019 464.683 213.131C467.625 214.173 470.264 215.925 472.368 218.231C472.705 218.613 472.935 219.078 473.033 219.578C473.131 220.078 473.095 220.595 472.927 221.076C472.76 221.557 472.467 221.985 472.079 222.316C471.692 222.646 471.223 222.868 470.721 222.958C470.12 223.069 469.5 222.988 468.948 222.724C468.397 222.461 467.943 222.029 467.653 221.492C466.544 219.367 463.53 216.112 455.471 215.299Z" fill="black"/>
<path id="Vector_8" d="M513.53 184.859L512.186 208.092H524.268L520.376 184.859H513.53Z" fill="#FF1100"/>
<path id="Vector_9" d="M552.089 223.002H479.055V224.232H552.089V223.002Z" fill="#24285B"/>
<path id="Vector_10" d="M499.306 208.592H493.723C492.874 208.592 492.186 209.28 492.186 210.129V210.623C492.186 211.472 492.874 212.16 493.723 212.16H499.306C500.155 212.16 500.843 211.472 500.843 210.623V210.129C500.843 209.28 500.155 208.592 499.306 208.592Z" fill="white"/>
<path id="Vector_11" d="M547.698 208.592H542.115C541.266 208.592 540.578 209.28 540.578 210.129V210.623C540.578 211.472 541.266 212.16 542.115 212.16H547.698C548.547 212.16 549.235 211.472 549.235 210.623V210.129C549.235 209.28 548.547 208.592 547.698 208.592Z" fill="white"/>
<path id="Vector_12" opacity="0.16" d="M532.052 186.643L535.681 204.363H544.975L539.573 186.643H532.052Z" fill="#BED9F4"/>
<path id="Vector_13" opacity="0.16" d="M497.522 186.643L501.146 204.363H510.44L505.038 186.643H497.522Z" fill="#BED9F4"/>
<path id="Vector_14" d="M486.999 198.348H480.713C479.161 198.348 477.902 199.606 477.902 201.158V202.053C477.902 203.606 479.161 204.864 480.713 204.864H486.999C488.551 204.864 489.809 203.606 489.809 202.053V201.158C489.809 199.606 488.551 198.348 486.999 198.348Z" fill="#68E1FD"/>
<path id="Vector_15" opacity="0.46" d="M486.999 198.348H480.713C479.161 198.348 477.902 199.606 477.902 201.158V202.053C477.902 203.606 479.161 204.864 480.713 204.864H486.999C488.551 204.864 489.809 203.606 489.809 202.053V201.158C489.809 199.606 488.551 198.348 486.999 198.348Z" fill="white"/>
<path id="Vector_16" d="M433.963 213.896H443.581C443.862 213.895 444.139 213.97 444.381 214.113C444.624 214.256 444.823 214.461 444.959 214.708C445.094 214.955 445.161 215.234 445.151 215.515C445.141 215.796 445.056 216.07 444.904 216.306L442.34 220.303C441.99 220.85 441.508 221.3 440.938 221.612C440.368 221.924 439.729 222.087 439.079 222.087H431.394V221.072C431.393 218.448 432.316 215.907 434.001 213.896H433.963Z" fill="white"/>
</g>
</g>
<g id="Group">
<g id="front-wheel">
<path id="Vector_17" d="M468.884 250.342C477.169 250.342 483.884 243.626 483.884 235.342C483.884 227.058 477.169 220.342 468.884 220.342C460.6 220.342 453.884 227.058 453.884 235.342C453.884 243.626 460.6 250.342 468.884 250.342Z" fill="white" stroke="black" stroke-width="8"/>
<path id="Vector_18" d="M468.884 243.342C473.303 243.342 476.884 239.76 476.884 235.342C476.884 230.924 473.303 227.342 468.884 227.342C464.466 227.342 460.884 230.924 460.884 235.342C460.884 239.76 464.466 243.342 468.884 243.342Z" stroke="black" stroke-width="2" stroke-dasharray="10 10"/>
<path id="Vector_19" d="M468.884 239.342C471.093 239.342 472.884 237.551 472.884 235.342C472.884 233.133 471.093 231.342 468.884 231.342C466.675 231.342 464.884 233.133 464.884 235.342C464.884 237.551 466.675 239.342 468.884 239.342Z" fill="#808080" stroke="black"/>
</g>
</g>
<g id="Group_2">
<g id="back-wheel">
<path id="Vector_20" d="M538.884 250.342C547.169 250.342 553.884 243.626 553.884 235.342C553.884 227.058 547.169 220.342 538.884 220.342C530.6 220.342 523.884 227.058 523.884 235.342C523.884 243.626 530.6 250.342 538.884 250.342Z" fill="white" stroke="black" stroke-width="8"/>
<path id="Vector_21" d="M538.884 243.342C543.303 243.342 546.884 239.76 546.884 235.342C546.884 230.924 543.303 227.342 538.884 227.342C534.466 227.342 530.884 230.924 530.884 235.342C530.884 239.76 534.466 243.342 538.884 243.342Z" stroke="black" stroke-width="2" stroke-dasharray="10 10"/>
<path id="Vector_22" d="M538.884 239.342C541.093 239.342 542.884 237.551 542.884 235.342C542.884 233.133 541.093 231.342 538.884 231.342C536.675 231.342 534.884 233.133 534.884 235.342C534.884 237.551 536.675 239.342 538.884 239.342Z" fill="#808080" stroke="black"/>
</g>
</g>
</g>
</g>
<defs>
<linearGradient id="paint0_linear_0_1" x1="0" y1="0" x2="0" y2="150" gradientUnits="userSpaceOnUse">
<stop offset="0.0028" stop-color="#3CA0FC"/>
<stop offset="1" stop-color="#DBECFB"/>
</linearGradient>
<linearGradient id="paint1_linear_0_1" x1="0" y1="162.5" x2="0" y2="287.5" gradientUnits="userSpaceOnUse">
<stop stop-color="white" stop-opacity="0"/>
<stop offset="1" stop-color="white" stop-opacity="0.9"/>
</linearGradient>
<clipPath id="clip0_0_1">
<rect width="1000" height="250" fill="white"/>
</clipPath>
</defs>
</svg>
