<svg xmlns="http://www.w3.org/2000/svg" width="806" height="155" fill="none" viewBox="0 0 806 155">
  <g fill="black"><path d="M30.648 72.576q-8.064 0-14.496-2.976T5.88 60.864q-3.744-5.856-3.744-14.112 0-5.76 2.016-12.48 4.416-14.4 13.344-20.736Q26.424 7.104 36.6 7.104q5.472 0 9.696 1.632t7.776 4.704l2.592-2.016q2.592-2.016 4.32-2.784 1.824-.768 4.032-.768 2.4 0 3.84 1.056T70.296 12q0 1.056-.384 2.112l-5.376 14.976q-.864 2.592-2.112 3.648-1.152 1.056-3.552 1.056-2.496 0-4.128-1.728-1.536-1.824-3.552-6.144-2.304-4.512-3.744-5.952t-4.224-1.44q-3.936 0-7.584 4.896-3.648 4.8-6.624 14.496-2.496 8.16-2.496 13.632 0 4.8 1.824 7.2 1.824 2.304 4.896 2.304 4.512 0 7.392-2.016 2.976-2.016 6.048-5.472 1.92-2.112 3.072-3.072Q51 49.44 52.344 49.44q1.728 0 3.648 1.728t1.824 3.456q.096 2.112-3.456 6.528-3.456 4.416-9.696 7.968-6.144 3.456-14.016 3.456M110.845 21.216q5.376 0 8.544 3.264 3.264 3.264 3.264 8.064 0 1.824-.384 3.36-.96 3.936-3.648 6.048t-6.432 2.112q-3.648 0-5.568-1.728-1.824-1.728-3.264-4.608-.768-1.632-1.44-2.4t-1.536-.768q-.96 0-1.728.768-.672.768-1.248 2.688l-7.392 24q-.192.48-.192 1.44 0 1.248.672 2.112.768.768 2.016 1.536 1.152.768 1.536 1.248t.288 1.248q-.192 1.248-1.44 1.824Q91.74 72 88.86 72H64.285q-2.496 0-3.552-.768-1.152-.864-.864-2.208.384-1.152 2.016-2.016 1.44-.768 2.4-1.824t1.632-3.36L74.46 34.08q.192-.48.192-1.344 0-1.056-.48-1.632-.384-.576-1.344-1.44-.96-.768-1.344-1.344t-.096-1.536q.576-2.208 6.048-3.84 5.472-1.728 11.424-1.728 3.936 0 6.528 1.824 2.592 1.728 3.36 4.992 4.608-6.816 12.096-6.816M151.846 20.736q12.192 0 17.664 3.936 5.472 3.84 5.472 9.888 0 1.824-.384 3.36-1.44 6.336-8.064 9.12-6.528 2.688-15.456 2.688-4.512 0-8.448-.576-.096 4.992 2.688 7.008t7.776 2.016q2.304 0 4.416-.48 2.112-.576 5.376-1.632 2.688-.96 3.648-.96 1.056 0 1.056 1.248.096 3.36-2.496 7.104-2.592 3.648-7.68 6.24t-12.288 2.592q-10.656 0-17.472-5.376t-6.816-15.648q0-2.88.768-6.72 2.4-11.808 10.464-17.76 8.16-6.048 19.776-6.048m-8.544 22.656q.384.096 1.056.096 4.032 0 6.144-3.744t2.016-8.352q-.096-2.688-1.536-2.688-1.056 0-2.496 1.728-1.44 1.632-2.88 4.992-1.344 3.36-2.304 7.968M207.293 21.216q11.04 0 17.664 4.128 6.624 4.032 6.624 12.384 0 3.168-1.152 7.2l-3.936 13.248a4 4 0 0 0-.096.96q0 1.536 1.248 1.536 1.152 0 1.92-.96.864-1.056 1.152-1.056.48 0 .768.672.384.672.384 1.536.096 2.592-2.016 5.28-2.016 2.688-5.472 4.416t-7.584 1.728q-4.992 0-8.544-1.824t-4.896-5.376q-2.88 3.456-6.816 5.376-3.936 1.824-8.448 1.824-5.088 0-8.544-1.92-3.456-2.016-5.184-5.088-1.632-3.168-1.632-6.624 0-1.536.288-2.976 1.536-6.624 6.624-9.984 5.184-3.36 12.288-3.36 7.968 0 15.648 2.496l2.4-6.336q1.248-4.032 1.248-6.24-.096-2.304-1.536-3.456t-4.416-1.152a9 9 0 0 1 .576 3.168q0 3.552-2.688 6.144t-7.68 2.592q-4.704 0-7.392-2.016-2.592-2.112-2.592-5.184 0-4.8 5.376-7.968t16.416-3.168m-5.376 29.088q-2.688 0-4.416 2.112-1.632 2.016-1.632 4.416 0 1.536.672 2.496.768.96 2.112.96 1.248 0 2.688-.96 1.536-1.056 2.208-3.072l2.016-5.664q-1.632-.288-3.648-.288M278.746 22.464q1.824 0 2.784.768 1.056.768 1.056 2.112 0 .384-.192 1.344-1.248 4.224-5.76 4.224h-5.568l-7.2 23.712a9.4 9.4 0 0 0-.48 2.976q0 1.728.96 2.4t2.688.672q1.536 0 3.84-.384Q272.026 60 272.89 60q.672 0 .96.48.384.384.384 1.056.096 1.92-2.88 4.704-2.88 2.688-7.872 4.704-4.992 1.92-11.04 1.92-6.528 0-10.464-2.976t-3.936-8.16q0-2.4.768-4.608l6.144-19.008q.48-1.632.48-2.592 0-1.92-.96-3.264-.864-1.344-2.496-2.784-1.44-1.344-2.016-2.208-.576-.96-.288-2.208.384-1.248 1.632-1.92t3.936-.672h5.376l6.048-6.048q3.168-3.168 5.76-4.416 2.688-1.248 6.912-1.248 6.048 0 6.048 4.608 0 1.44-.384 2.688l-1.344 4.416zM302.332 21.216q5.568 0 8.16 2.112t2.592 5.76q0 2.208-.672 4.224l-8.832 28.704q-.288 1.152-.288 2.016 0 1.248.48 2.016.48.672 1.344 1.344.672.672.96 1.152.288.384.096 1.056-.48 1.248-1.92 1.824t-4.416.576h-21.888q-2.496 0-3.648-.768-1.152-.864-.768-2.208.384-1.152 2.016-2.016 1.44-.768 2.4-1.824t1.632-3.36l8.352-27.744q.288-.864.288-1.44 0-1.056-.48-1.632-.48-.672-1.44-1.344-.96-.768-1.344-1.344t-.096-1.536q.576-2.208 6.048-3.84 5.472-1.728 11.424-1.728M308.764 0q3.744 0 6.24 2.496 2.496 2.4 2.496 5.952 0 2.496-1.344 4.896-1.248 2.4-3.648 3.936-2.304 1.44-5.184 1.44-3.648 0-6.144-2.4-2.4-2.496-2.496-6.144 0-2.4 1.248-4.704 1.248-2.4 3.552-3.936T308.764 0M359.088 21.216q5.088 0 8.448 3.648t3.36 9.984q0 8.544-5.952 17.472t-15.072 14.784q-9.12 5.76-17.76 5.76-8.256 0-13.44-3.36-5.088-3.36-5.088-9.6 0-2.304.864-5.184l6.048-20.64q.192-.768.192-1.152 0-.96-.48-1.632t-1.344-1.44q-1.44-1.248-1.44-2.208-.096-1.344 1.632-2.88t4.8-2.496q3.168-1.056 7.104-1.056 6.432 0 9.984 3.168 3.648 3.072 3.648 8.064 0 2.208-.768 4.8l-6.24 20.544q-.288.864-.288 1.44 0 1.248.864 1.92t2.4.672q2.112 0 4.896-1.824 2.88-1.92 5.664-5.376 2.784-3.552 4.512-8.352-3.84-3.36-5.472-6.624-1.536-3.264-1.536-6.72 0-4.896 2.688-8.256 2.688-3.456 7.776-3.456M402.253 20.736q12.192 0 17.664 3.936 5.472 3.84 5.472 9.888 0 1.824-.384 3.36-1.44 6.336-8.064 9.12-6.528 2.688-15.456 2.688-4.512 0-8.448-.576-.096 4.992 2.688 7.008t7.776 2.016q2.304 0 4.416-.48 2.112-.576 5.376-1.632 2.688-.96 3.648-.96 1.056 0 1.056 1.248.096 3.36-2.496 7.104-2.592 3.648-7.68 6.24t-12.288 2.592q-10.656 0-17.472-5.376t-6.816-15.648q0-2.88.768-6.72 2.4-11.808 10.464-17.76 8.16-6.048 19.776-6.048m-8.544 22.656q.384.096 1.056.096 4.032 0 6.144-3.744t2.016-8.352q-.096-2.688-1.536-2.688-1.056 0-2.496 1.728-1.44 1.632-2.88 4.992-1.344 3.36-2.304 7.968M36.8 104.52q0 3.56-2.48 7.28a21.3 21.3 0 0 1-6.28 6.16q-3.76 2.4-7.4 2.4-2.88 0-4.88-1t-2.6-2.88q-1.48 1.8-3.28 2.72t-3.76.92q-2.72 0-4.44-1.32Q0 117.44 0 114.84q0-1.36.44-2.8l2.24-7.84q.08-.32.08-.48a1.14 1.14 0 0 0-.2-.68 3.7 3.7 0 0 0-.56-.6q-.6-.52-.6-.92-.04-.56.68-1.2t2-1.04q1.32-.44 2.96-.44 2.68 0 4.16 1.32 1.52 1.28 1.52 3.36 0 .92-.32 2l-2.04 6.8q-.16.56-.16.76 0 .52.28.8.32.28.84.28.72 0 1.2-.48.52-.52 1-1.64l2.28-7.84q.08-.32.08-.48a1.14 1.14 0 0 0-.2-.68 3.7 3.7 0 0 0-.56-.6q-.6-.52-.6-.92-.04-.56.68-1.2t2-1.04q1.32-.44 2.96-.44 2.72 0 4.2 1.28t1.48 3.4q0 .84-.32 2l-2.6 8.56q-.08.2-.08.6 0 .52.36.8t1 .28q.88 0 2.04-.76 1.2-.8 2.32-2.24 1.16-1.48 1.88-3.48-1.6-1.4-2.28-2.76a6.5 6.5 0 0 1-.64-2.8q0-2.04 1.12-3.44 1.12-1.44 3.24-1.44t3.52 1.52 1.4 4.16M46.83 98.84q2.32 0 3.4.88t1.08 2.4q0 .92-.28 1.76l-3.68 11.96q-.12.48-.12.84 0 .52.2.84.2.28.56.56.28.28.4.48.12.16.04.44-.2.52-.8.76t-1.84.24h-9.12q-1.04 0-1.52-.32-.48-.36-.32-.92.16-.48.84-.84.6-.32 1-.76t.68-1.4l3.48-11.56q.12-.36.12-.6 0-.44-.2-.68a2.5 2.5 0 0 0-.6-.56q-.4-.32-.56-.56t-.04-.64q.24-.92 2.52-1.6 2.28-.72 4.76-.72M49.51 90q1.56 0 2.6 1.04 1.04 1 1.04 2.48 0 1.04-.56 2.04a4.26 4.26 0 0 1-1.52 1.64q-.96.6-2.16.6-1.52 0-2.56-1-1-1.04-1.04-2.56 0-1 .52-1.96a4.37 4.37 0 0 1 1.48-1.64q.96-.64 2.2-.64M68.839 99.36q.76 0 1.16.32.44.32.44.88 0 .16-.08.56-.52 1.76-2.4 1.76h-2.32l-3 9.88q-.2.6-.2 1.24 0 .72.4 1t1.12.28q.64 0 1.6-.16.48-.12.84-.12.28 0 .4.2.16.16.16.44.039.8-1.2 1.96-1.2 1.12-3.28 1.96-2.08.8-4.6.8-2.72 0-4.36-1.24t-1.64-3.4a5.8 5.8 0 0 1 .32-1.92l2.56-7.92q.2-.68.2-1.08 0-.8-.4-1.36-.36-.56-1.04-1.16-.6-.56-.84-.92-.24-.4-.12-.92.16-.52.68-.8t1.64-.28h2.24l2.52-2.52q1.32-1.32 2.4-1.84 1.119-.52 2.88-.52 2.52 0 2.52 1.92 0 .6-.16 1.12l-.56 1.84z"/>
  <path d="M92.666 114.48q-.08.16-.08.48 0 .28.12.44.16.16.4.16.48 0 .8-.4.36-.44.48-.44.2 0 .32.28.12.24.12.6.04 1.16-.76 2.28-.8 1.08-2.36 1.8-1.52.68-3.68.68-2.64 0-4.2-1.2-1.56-1.24-1.6-3.28 0-1.48.72-3.32l2.2-5.76q.2-.52.2-.84 0-.52-.36-.8a1.09 1.09 0 0 0-.8-.32q-.759 0-1.56.72-.76.68-1.24 2.24v-.08l-2.52 8.12q-.12.48-.12.84 0 .52.2.84.2.28.56.56.28.28.4.48.12.16.04.44-.2.52-.8.76t-1.84.24h-9.12q-1.04 0-1.52-.32-.48-.36-.32-.92.16-.48.84-.84.6-.32 1-.76t.68-1.4l6.08-19.96q.12-.36.12-.6 0-.44-.24-.72a2.8 2.8 0 0 0-.56-.56 4.3 4.3 0 0 1-.6-.56q-.16-.24-.04-.64.24-.92 2.52-1.6t4.76-.68q2.32 0 3.4.88 1.12.88 1.12 2.4 0 .88-.28 1.72l-2.16 7.04q1.56-2.04 3.28-2.84 1.76-.8 3.8-.8 2.44 0 3.92 1.48 1.52 1.48 1.52 3.84a7.7 7.7 0 0 1-.4 2.44zM131.144 89.488q5.376 0 9.888 1.344 4.608 1.248 9.312 4.032l2.208-1.824q2.304-1.824 3.744-2.496 1.536-.672 3.456-.672 2.304 0 3.648 1.056 1.344.96 1.344 2.88 0 .768-.288 1.632l-4.032 13.248q-.672 2.304-1.728 3.264-.96.96-2.976.96-2.112 0-3.744-1.248-1.536-1.344-4.896-5.376-3.36-3.84-6.144-5.376-2.688-1.632-5.568-1.632-2.112 0-3.552 1.44-1.44 1.344-1.44 3.36 0 2.304 2.304 4.32 2.304 1.92 7.2 4.896 4.992 2.976 8.256 5.376t5.568 5.952 2.304 8.16q0 2.976-.96 5.952-2.304 7.68-8.928 11.712-6.624 3.936-15.456 3.936-6.624 0-11.136-1.536t-9.216-5.184l-3.456 2.88q-2.4 2.016-3.936 2.784-1.536.672-3.456.672-2.208 0-3.552-1.056-1.248-1.056-1.248-2.88 0-.96.384-2.016l4.704-14.304q.768-2.496 2.112-3.552t3.456-1.056q2.208 0 3.936 1.536 1.824 1.536 4.704 5.568 3.072 4.416 5.664 6.144 2.688 1.728 6.336 1.728 2.592 0 3.936-.768 1.44-.864 2.016-2.688.192-.48.192-1.44 0-2.304-2.208-4.224t-6.816-4.608q-4.896-2.976-7.968-5.28-3.072-2.4-5.376-5.952-2.208-3.552-2.208-8.352 0-3.36 1.056-6.624 2.016-6.624 8.256-10.656t14.304-4.032M240.217 99.28q0 3.456-1.536 5.952-1.44 2.496-3.744 3.84-2.304 1.248-4.608 1.248t-4.224-.96a9.2 9.2 0 0 1-3.072-2.592l-23.136 38.976q-2.592 4.416-4.8 6.336t-4.992 1.92q-2.976 0-4.8-1.92-1.728-2.016-2.496-6.336l-8.064-44.352q-.288-1.728-1.056-2.784t-2.016-2.304q-.96-.864-1.344-1.344-.384-.576-.384-1.344-.48-3.552 4.224-3.552h24q2.208 0 3.36.96 1.152.864 1.056 2.4 0 .864-.384 1.44-.288.576-1.056 1.44-.864.96-1.344 1.824t-.48 2.112q0 .576.096.96l3.648 22.368 12.768-22.656q3.36-6.144 6.624-8.64 3.264-2.592 8.064-2.592 4.416 0 7.008 2.592 2.688 2.496 2.688 7.008M259.219 154.576q-6.432 0-11.712-2.784-5.184-2.88-8.256-8.352-3.072-5.568-3.072-13.248 0-5.856 2.016-13.056 4.416-15.36 13.824-21.696 9.504-6.336 20.256-6.336 9.792 0 17.664 7.104l2.88-2.784q2.4-2.016 4.128-2.784t4.032-.768q2.496 0 4.032 1.248 1.536 1.152 1.536 3.168 0 .768-.288 1.824l-3.456 12.096q-.96 3.072-2.304 4.32-1.248 1.248-3.456 1.248-2.304 0-4.128-1.152-1.728-1.152-4.032-4.128-3.072-4.032-5.472-5.664-2.304-1.728-5.088-1.728-4.32 0-8.256 4.416-3.84 4.32-6.72 14.496-1.824 6.624-1.824 11.424 0 5.088 1.92 7.776 2.016 2.592 5.568 2.592 3.072 0 4.704-1.44 1.728-1.44 2.688-4.992l.672-2.4q.48-1.92.48-2.592 0-1.152-.576-1.632-.48-.48-1.728-1.056l-3.36-1.248q-2.208-.864-2.208-3.168 0-.672.096-1.056.384-1.248 1.344-1.824 1.056-.576 3.168-.576l28.992.096q3.168 0 3.168 2.016 0 .384-.192 1.152-.384 1.44-1.248 2.304t-2.496 1.728l-2.496 1.44q-.96.576-1.44 1.152-.48.48-.672 1.248l-5.088 17.76q-.96 3.168-2.208 4.224-1.152 1.056-2.88 1.056h-4.032q-2.304 0-3.84-.96-1.44-.96-2.4-3.744l-.96-2.784q-6.912 8.064-17.28 8.064"/>
  <path d="M335.043 102.352q7.968 0 13.728 1.44 5.856 1.44 8.928 4.032 3.168 2.592 3.168 5.856 0 3.36-2.688 5.472-2.592 2.112-7.296 2.112-4.8 0-8.16-2.4-3.264-2.4-3.264-6.048 0-1.248.384-2.4-1.728-.48-3.072-.48-2.4 0-4.032 1.152-1.536 1.152-1.44 3.264 0 2.496 2.496 4.224t8.064 4.32q4.8 2.112 7.872 3.936 3.168 1.728 5.28 4.416 2.208 2.688 2.208 6.336 0 .768-.384 2.88-1.536 6.432-8.544 10.176t-18.432 3.744q-12.864 0-20.448-3.456-7.488-3.456-7.488-9.504 0-4.128 2.496-6.24t6.624-2.112q4.8 0 8.16 2.976 3.456 2.976 3.456 7.584 0 1.248-.288 2.592 2.304.576 4.416.576 2.496 0 4.128-1.344t1.632-3.744q-.096-2.208-2.208-3.744-2.112-1.632-6.72-3.84-4.32-2.016-7.104-3.744a18.9 18.9 0 0 1-4.8-4.512q-1.92-2.688-1.92-6.336 0-7.872 6.528-12.48 6.624-4.704 18.72-4.704M471.867 72.576q-8.064 0-14.496-2.976t-10.272-8.736q-3.744-5.856-3.744-14.112 0-5.76 2.016-12.48 4.416-14.4 13.344-20.736 8.928-6.432 19.104-6.432 5.472 0 9.696 1.632t7.776 4.704l2.592-2.016q2.592-2.016 4.32-2.784 1.824-.768 4.032-.768 2.4 0 3.84 1.056t1.44 3.072q0 1.056-.384 2.112l-5.376 14.976q-.864 2.592-2.112 3.648-1.152 1.056-3.552 1.056-2.496 0-4.128-1.728-1.536-1.824-3.552-6.144-2.304-4.512-3.744-5.952t-4.224-1.44q-3.936 0-7.584 4.896-3.648 4.8-6.624 14.496-2.496 8.16-2.496 13.632 0 4.8 1.824 7.2 1.824 2.304 4.896 2.304 4.512 0 7.392-2.016 2.976-2.016 6.048-5.472 1.92-2.112 3.072-3.072 1.248-1.056 2.592-1.056 1.728 0 3.648 1.728t1.824 3.456q.096 2.112-3.456 6.528-3.456 4.416-9.696 7.968-6.144 3.456-14.016 3.456M542.079 21.216q13.056 0 19.2 5.28 6.24 5.28 6.24 13.824 0 2.88-.768 6.432-1.824 7.872-6.816 13.824-4.992 5.856-12.288 9.12-7.2 3.168-15.648 3.168-13.344 0-19.776-5.28-6.336-5.376-6.336-14.208 0-2.976.768-6.624 1.824-7.488 6.912-13.248 5.184-5.856 12.576-9.024 7.488-3.264 15.936-3.264m-.288 8.544q-2.016 0-4.32 3.648-2.208 3.552-5.28 13.536t-3.072 14.016q0 2.112.672 2.88.672.672 1.824.672 2.016.192 4.128-3.456 2.208-3.648 5.472-14.208 2.976-9.312 2.976-13.536 0-2.016-.672-2.784-.576-.768-1.728-.768M621.591 58.176q-.192.768-.192 1.056 0 .672.384 1.056t.96.384q1.152 0 1.92-.96.864-1.056 1.152-1.056.48 0 .768.672t.288 1.536q.096 2.592-2.016 5.28-2.016 2.688-5.472 4.416t-7.488 1.728q-4.8 0-8.352-1.824t-4.896-4.8q-2.592 3.36-5.952 4.992a16.06 16.06 0 0 1-7.104 1.632 16.3 16.3 0 0 1-8.256-2.208q-3.744-2.208-6.048-6.24-2.208-4.128-2.208-9.312 0-8.736 3.264-16.416 3.36-7.776 9.312-12.48 5.952-4.8 13.536-4.8 4.128 0 7.008.96 2.976.96 5.376 2.88l3.264-10.752q.288-.864.288-1.44 0-1.056-.576-1.728-.48-.672-1.344-1.344-.96-.768-1.44-1.344-.384-.576-.096-1.536.576-2.208 6.048-3.84t11.424-1.632q5.568 0 8.16 2.112 2.688 2.112 2.688 5.76 0 2.112-.672 4.128zM605.559 31.2q-1.536-1.344-3.36-1.344-2.784 0-5.472 4.128t-4.32 9.984-1.536 10.56q0 5.28 3.456 5.28 1.248 0 2.112-.96.864-1.056 1.632-3.36zM656.082 21.216q5.568 0 8.16 2.112t2.592 5.76q0 2.208-.672 4.224l-8.832 28.704q-.288 1.152-.288 2.016 0 1.248.48 2.016.48.672 1.344 1.344.672.672.96 1.152.288.384.096 1.056-.48 1.248-1.92 1.824t-4.416.576h-21.888q-2.496 0-3.648-.768-1.152-.864-.768-2.208.384-1.152 2.016-2.016 1.44-.768 2.4-1.824t1.632-3.36l8.352-27.744q.288-.864.288-1.44 0-1.056-.48-1.632-.48-.672-1.44-1.344-.96-.768-1.344-1.344t-.096-1.536q.576-2.208 6.048-3.84 5.472-1.728 11.424-1.728M662.514 0q3.744 0 6.24 2.496 2.496 2.4 2.496 5.952 0 2.496-1.344 4.896-1.248 2.4-3.648 3.936-2.304 1.44-5.184 1.44-3.648 0-6.144-2.4-2.4-2.496-2.496-6.144 0-2.4 1.248-4.704 1.248-2.4 3.552-3.936T662.514 0M725.414 58.752q-.192.384-.192 1.152 0 .672.288 1.056.384.384.96.384 1.152 0 1.92-.96.864-1.056 1.152-1.056.48 0 .768.672.288.576.288 1.44.096 2.784-1.824 5.472-1.92 2.592-5.664 4.32-3.648 1.632-8.832 1.632-6.336 0-10.08-2.88-3.744-2.976-3.84-7.872 0-3.552 1.728-7.968l5.28-13.824q.48-1.248.48-2.016 0-1.248-.864-1.92-.768-.768-1.92-.768-2.112 0-4.032 2.016-1.92 1.92-2.784 4.8l-5.952 19.584q-.384 1.056-.384 2.016 0 1.152.48 1.92.48.672 1.344 1.44.672.576.96 1.056t.096 1.152q-.384 1.248-1.824 1.824t-4.512.576h-21.888q-2.496 0-3.552-.768-1.152-.864-.864-2.208.384-1.152 2.016-2.016 1.44-.768 2.4-1.824t1.632-3.36l8.544-27.744q.192-.48.192-1.344 0-1.056-.48-1.632-.384-.576-1.344-1.44-.96-.768-1.344-1.344t-.096-1.536q.576-2.208 6.048-3.84 5.472-1.728 11.424-1.728 4.8 0 7.584 2.688 2.784 2.592 2.496 7.296 3.936-5.664 8.352-7.776 4.416-2.208 9.6-2.208 5.856 0 9.408 3.552 3.648 3.552 3.648 9.216 0 2.976-.96 5.856z"/>
  <path d="M792.885 5.568q3.072 0 5.952 1.344 2.976 1.248 4.8 3.552 1.92 2.208 1.92 4.8 0 5.664-7.68 5.664-2.208 0-3.456-.288-1.152-.384-2.784-1.152-.288.672-.288 1.92 0 1.536.48 3.648.576 2.112 1.344 3.936 2.016 2.976 2.016 7.104 0 1.824-.48 4.416-1.152 4.992-5.088 9.12-3.84 4.128-9.984 6.528-6.048 2.304-13.344 2.304-5.568 0-10.464-.768-1.44 1.248-1.44 3.072 0 1.248 1.152 2.112 1.152.768 3.84.768h14.4q7.392 0 11.52 2.592 4.128 2.496 4.128 7.2 0 1.728-.576 3.552-1.152 3.744-5.28 6.912-4.032 3.264-11.424 5.28T754.197 91.2q-9.408 0-15.936-1.632t-9.696-4.512q-3.264-2.784-3.264-6.24 0-.768.384-2.304.864-2.784 3.936-4.512 2.976-1.824 9.888-2.4-2.304-2.208-2.304-5.28 0-1.056.288-2.208 1.536-4.992 9.024-7.392-7.2-3.936-7.2-11.52 0-2.112.576-4.416 1.152-4.992 5.088-9.024 3.936-4.128 10.08-6.528t13.44-2.4q11.424 0 17.952 2.976a21.4 21.4 0 0 1-2.304-4.704q-.768-2.592-.768-4.704 0-3.648 2.304-6.24 2.4-2.592 7.2-2.592m-20.832 34.08q1.536-4.896 1.536-7.488 0-3.264-2.784-3.264-2.4 0-4.224 2.4-1.728 2.304-3.552 8.352-1.536 4.992-1.536 7.584 0 3.168 2.688 3.168 2.4 0 4.224-2.4t3.648-8.352m-19.104 33.696q-2.688 0-4.896-.288-1.152 1.44-1.152 3.84.096 2.4 1.92 3.456 1.92 1.056 5.856 1.056 4.8 0 7.776-1.44 3.072-1.44 3.072-4.128 0-1.152-.864-1.824t-2.496-.672z"/></g>
</svg>