<svg width="20" height="20" viewBox="0 0 20 20" fill="none" xmlns="http://www.w3.org/2000/svg">
<path d="M19.7716 11.9803C19.671 11.8795 19.5448 11.8079 19.4066 11.7734C19.2684 11.7388 19.1234 11.7425 18.9872 11.7842C17.4914 12.2365 15.901 12.2744 14.3854 11.8939C12.8698 11.5134 11.4858 10.7288 10.3808 9.62363C9.2759 8.51846 8.49143 7.13416 8.11103 5.61824C7.73063 4.10232 7.76854 2.51157 8.22073 1.0155C8.2627 0.879174 8.26672 0.733987 8.23236 0.595551C8.19799 0.457114 8.12655 0.330666 8.02571 0.229805C7.92487 0.128944 7.79845 0.0574862 7.66004 0.0231169C7.52163 -0.0112524 7.37647 -0.00723286 7.24018 0.0347431C5.17222 0.668354 3.35674 1.93818 2.05208 3.66353C0.911127 5.17866 0.215172 6.98198 0.0424089 8.87092C-0.130354 10.7598 0.226919 12.6595 1.07409 14.3566C1.92126 16.0536 3.22476 17.4808 4.83816 18.4777C6.45155 19.4746 8.3109 20.0017 10.2073 20C12.4198 20.0068 14.5734 19.2874 16.3377 17.9521C18.0627 16.6472 19.3323 14.8314 19.9658 12.763C20.0073 12.6272 20.0111 12.4826 19.9769 12.3448C19.9427 12.207 19.8718 12.081 19.7716 11.9803Z" fill="white"/>
</svg>
