<svg width="96" height="96" viewBox="0 0 96 96" fill="none" xmlns="http://www.w3.org/2000/svg">
<path d="M81.8682 22.5607C74.1925 16.45 65.7716 16.7481 60.2571 17.5678C58.7667 17.4188 57.3508 17.4188 56.233 17.6423L59.5864 20.2506V20.6232C54.2209 14.3634 47.2159 17.7169 47.9611 20.8468H47.2159C47.2159 20.3996 47.2159 20.1015 47.2159 19.9525C47.2159 17.4188 39.3912 15.9284 37.3046 18.2385L36.3359 17.6423C30.8213 16.7481 22.1024 16.2264 14.1286 22.5607C-11.9537 43.3521 4.88801 83.5189 22.8476 91.7907C28.2131 94.2499 33.6531 94.8461 37.9753 94.2499V93.4302C41.4778 95.6658 44.7567 94.1754 46.2472 91.6417L47.7376 90.8219C49.4516 93.5792 53.9973 95.8894 57.9469 92.5359L57.8724 94.2499C62.2692 94.8461 67.6347 94.2499 73.0002 91.7907C91.1088 83.5189 107.951 43.4266 81.8682 22.5607Z" fill="#FB8C00"/>
<path d="M49.0045 0.726074L53.6248 3.55787C53.6248 3.55787 47.9612 6.53871 49.228 17.7169L46.9179 18.5366C46.2472 15.4812 44.3097 6.38967 49.0045 0.726074Z" fill="#6D4C41"/>
<path d="M34.9198 95.2188C30.8212 95.2188 26.5735 94.2501 22.6239 92.4616C11.8183 87.4687 2.20514 72.0428 0.342113 56.617C-1.37187 42.5325 3.39747 30.2366 13.6814 21.9647C22.7729 14.6617 33.0568 16.3757 36.4103 16.8973C36.7829 16.9718 37.0809 17.3444 37.0064 17.717C36.9319 18.0896 36.5593 18.3877 36.1867 18.3132C30.5976 17.4189 22.3258 16.8973 14.5756 23.0825C4.66433 30.9818 0.11855 42.8306 1.75801 56.3934C3.54651 71.3721 12.7871 86.2763 23.1455 91.0457C27.8403 93.2068 33.0568 94.101 37.9007 93.4303C38.2733 93.3558 38.6459 93.6539 38.7204 94.101C38.7949 94.5482 38.4968 94.8462 38.0497 94.9208C37.0809 95.1443 36.0377 95.2188 34.9198 95.2188Z" fill="black"/>
<path d="M61.1513 95.2187C60.0335 95.2187 58.9156 95.1442 57.8723 94.9951C57.4997 94.9206 57.2017 94.548 57.2017 94.1754C57.2762 93.8028 57.6488 93.5047 58.0214 93.5047C62.7907 94.1009 68.0817 93.2811 72.7765 91.12C83.135 86.3507 92.3756 71.4465 94.1641 56.4678C95.8035 42.905 91.2577 31.1306 81.3464 23.1569C73.7453 17.1207 66.2187 17.4188 60.5551 18.313C60.1825 18.3876 59.7354 18.0895 59.7354 17.7169C59.6608 17.3443 59.9589 16.8971 60.3315 16.8971C66.3677 15.9284 74.267 15.6303 82.3152 22.0391C92.6736 30.3109 97.3685 42.6069 95.6545 56.6913C93.7914 72.1172 84.1782 87.543 73.3727 92.5359C69.5721 94.2499 65.2499 95.2187 61.1513 95.2187Z" fill="black"/>
<path d="M41.4776 95.368C39.9127 95.368 37.9006 94.7718 35.665 92.5362C30.1505 86.9471 23.4436 68.5404 25.1575 48.6433C25.1575 48.1962 25.5302 47.8981 25.9773 47.9726C26.4244 47.9726 26.7225 48.3452 26.648 48.7924C24.934 68.2423 31.4173 86.1274 36.7083 91.4929C38.7949 93.654 41.105 94.3992 43.1916 93.5795C45.1292 92.7597 46.5451 90.5986 46.5451 88.363V38.732C46.5451 38.2849 46.8431 37.9868 47.2903 37.9868C47.7374 37.9868 48.0355 38.2849 48.0355 38.732V88.363C48.0355 91.1948 46.247 93.8775 43.7133 94.9208C43.1916 95.1444 42.3719 95.368 41.4776 95.368Z" fill="black"/>
<path d="M37.5278 95.2933C34.547 95.2933 31.5662 94.3245 28.4363 92.4615C15.5442 84.6368 4.96218 50.7297 16.8855 29.7894C17.1091 29.4168 17.5562 29.2677 17.9288 29.4913C18.3014 29.7148 18.376 30.162 18.2269 30.5346C6.67617 50.8788 16.8855 83.668 29.256 91.1946C32.9821 93.4303 36.261 94.25 39.689 93.6538C40.0616 93.5793 40.5087 93.8774 40.5832 94.25C40.6577 94.6226 40.3596 95.0697 39.987 95.1442C39.0928 95.2188 38.3476 95.2933 37.5278 95.2933Z" fill="black"/>
<path d="M22.2511 24.4237C22.102 24.4237 21.8785 24.3492 21.7294 24.2001C21.4313 23.902 21.4313 23.4549 21.7294 23.1568C26.4988 18.2384 34.6215 15.9283 39.2418 16.8971C39.6145 16.9716 39.9125 17.3442 39.838 17.7913C39.7635 18.1639 39.3909 18.462 38.9438 18.3875C34.7706 17.4932 27.1695 19.6543 22.8472 24.2001C22.6982 24.3492 22.4746 24.4237 22.2511 24.4237Z" fill="black"/>
<path d="M53.3263 95.2186C52.5066 95.2186 51.6869 95.0695 50.8671 94.7715C48.3334 93.7282 46.5449 91.1199 46.5449 88.3627C46.5449 87.9155 46.843 87.6174 47.2901 87.6174C47.7373 87.6174 48.0353 87.9155 48.0353 88.3627C48.0353 90.4492 49.4512 92.5358 51.4633 93.3556C53.6989 94.2498 56.0836 93.5046 58.3192 91.269C65.3242 84.1895 73.2979 56.9893 65.5478 33.8133C65.3987 33.4407 65.6223 32.9936 65.9949 32.8445C66.3675 32.6955 66.8146 32.9191 66.9637 33.2917C75.31 58.0326 66.3675 85.2328 59.4371 92.3123C57.4995 94.2498 55.3384 95.2186 53.3263 95.2186Z" fill="black"/>
<path d="M57.4251 95.2189C56.5308 95.2189 55.7111 95.1444 54.8914 94.9953C54.5187 94.9208 54.2207 94.5482 54.2952 94.1011C54.3697 93.7285 54.7423 93.4304 55.1894 93.5049C58.7664 94.1011 62.7161 93.2813 66.2185 91.1202C68.7523 89.5553 71.3605 86.798 73.6706 83.072C73.8942 82.6994 74.3413 82.6248 74.7139 82.8484C75.0865 83.072 75.1611 83.5191 74.9375 83.8917C72.4783 87.7668 69.721 90.7476 66.9638 92.3871C63.8339 94.2501 60.5549 95.2189 57.4251 95.2189Z" fill="black"/>
<path d="M76.4278 80.3147C76.3532 80.3147 76.2042 80.3147 76.1297 80.2402C75.7571 80.0911 75.608 79.644 75.8316 79.2714C81.1971 68.5404 83.4327 54.8285 81.6442 43.5759C81.5697 43.2032 81.8678 42.7561 82.2404 42.7561C82.613 42.6816 83.0601 42.9797 83.0601 43.3523C84.9232 54.903 82.613 68.913 77.0985 79.9421C76.9494 80.1657 76.7259 80.3147 76.4278 80.3147Z" fill="black"/>
<path d="M80.601 37.2412C80.3029 37.2412 80.0049 37.0177 79.9303 36.7196C78.2909 31.8757 75.8317 27.628 72.5528 24.2001C68.2305 19.6543 60.6294 17.4932 56.4562 18.3874C56.0836 18.462 55.6365 18.2384 55.562 17.7913C55.4875 17.4187 55.711 16.9715 56.1581 16.897C60.7784 15.9282 68.9012 18.1639 73.6706 23.1568C77.0985 26.7338 79.7068 31.1305 81.4208 36.1979C81.5698 36.5705 81.3462 37.0177 80.9736 37.1667C80.7501 37.2412 80.6755 37.2412 80.601 37.2412Z" fill="black"/>
<path d="M46.992 19.2819C46.694 19.2819 46.3214 19.0583 46.2468 18.6857C45.129 14.1399 43.9367 5.71906 48.4825 0.279031C48.706 -0.0190525 49.1532 -0.0935735 49.4512 0.129989L54.0715 2.96179C54.2951 3.11083 54.4441 3.40891 54.4441 3.63247C54.4441 3.93056 54.2206 4.15412 53.997 4.22864C53.7734 4.30316 48.7805 6.61331 50.0474 17.0462C50.1219 17.4189 49.8238 17.7915 49.3767 17.866C48.9296 17.9405 48.6315 17.6424 48.557 17.1953C47.5137 8.55086 50.569 4.89933 52.283 3.48343L49.3022 1.62041C45.6507 6.61331 46.7685 14.1399 47.8118 18.2386C47.8863 18.6112 47.6627 19.0583 47.2901 19.1328C47.0666 19.2819 46.992 19.2819 46.992 19.2819Z" fill="black"/>
<path d="M63.6849 28.0755C63.3868 28.0755 63.1633 27.9265 63.0142 27.6284C62.269 26.0634 61.4493 24.4985 60.4805 23.0081C57.4252 18.0152 53.3265 17.0464 50.6438 17.8661C49.0043 18.3132 48.11 19.3565 48.11 20.0272C48.11 20.4744 47.812 20.7724 47.3648 20.7724C46.9177 20.7724 46.6196 20.4744 46.6196 20.0272C46.6196 18.5368 48.0355 17.0464 50.1966 16.4502C53.4756 15.556 58.2449 16.5247 61.7474 22.2629C62.7162 23.8278 63.6104 25.4673 64.3556 27.0322C64.5047 27.4048 64.3556 27.8519 63.983 28.001C63.834 28.001 63.7595 28.0755 63.6849 28.0755Z" fill="black"/>
<path d="M27.6911 38.4338C27.6166 38.4338 27.5421 38.4338 27.4676 38.4338C27.095 38.3593 26.7969 37.9121 26.9459 37.5395C27.9892 33.5899 29.9268 27.7028 33.3547 22.2627C36.8572 16.5991 41.403 15.5559 44.4584 16.4501C46.5449 17.0463 47.9608 18.5367 47.9608 20.0271V29.0441C47.9608 29.4913 47.6628 29.7894 47.2156 29.7894C46.7685 29.7894 46.4704 29.4913 46.4704 29.0441V19.9526C46.4704 19.2074 45.6507 18.2386 44.0112 17.7915C41.4775 17.0463 37.6024 18.015 34.5471 22.9334C31.2682 28.2989 29.3306 33.9625 28.2873 37.8376C28.3618 38.2102 28.0637 38.4338 27.6911 38.4338Z" fill="black"/>
</svg>
